<?xml version="1.0" encoding="UTF-8" standalone="no"?>
<svg width="177px" height="100px" viewBox="0 0 177 100" version="1.1" xmlns="http://www.w3.org/2000/svg" xmlns:xlink="http://www.w3.org/1999/xlink" xmlns:sketch="http://www.bohemiancoding.com/sketch/ns">
    <!-- Generator: Sketch 3.3.3 (12081) - http://www.bohemiancoding.com/sketch -->
    <title>Untitled</title>
    <desc>Created with Sketch.</desc>
    <defs></defs>
    <g id="Page-1" stroke="none" stroke-width="1" fill="none" fill-rule="evenodd" sketch:type="MSPage">
        <g id="logo" sketch:type="MSLayerGroup">
            <g id="Page-1" sketch:type="MSShapeGroup">
                <rect id="Rectangle-1" fill="#009CBF" x="0" y="0" width="177" height="100"></rect>
                <path d="M26.6015625,25.8696289 L26.6015625,60.6040039 C26.6015625,62.0512767 27.028316,63.2758739 27.8818359,64.277832 C28.8466845,65.3911188 30.1826087,65.9477539 31.8896484,65.9477539 L49.6464844,65.9477539 C50.2031278,65.9477539 50.6484358,65.7807633 50.9824219,65.4467773 C51.2792984,65.1499008 51.4277344,64.7973653 51.4277344,64.3891601 C51.4277344,63.9438454 51.2792984,63.5727553 50.9824219,63.2758789 C50.6484358,62.9790024 50.2031278,62.8305664 49.6464844,62.8305664 L32.5019531,62.8305664 C31.6855428,62.8305664 31.0546897,62.5708033 30.609375,62.0512695 C30.2382794,61.6059548 30.0527344,61.0493197 30.0527344,60.3813476 L30.0527344,25.8696289 C30.0527344,25.2758759 29.8671894,24.8120133 29.4960938,24.4780273 C29.1621077,24.1811508 28.7724632,24.0327148 28.3271484,24.0327148 C27.8447242,24.0327148 27.4365251,24.1811508 27.1025391,24.4780273 C26.768553,24.8120133 26.6015625,25.2758759 26.6015625,25.8696289 L26.6015625,25.8696289 Z M69.4072266,35.2768554 C64.9911889,35.2768554 61.5400515,36.9096516 59.0537109,40.1752929 C56.8642469,43.0698386 55.7695312,46.7250755 55.7695312,51.1411132 C55.7695312,55.5200414 56.8642469,59.1567238 59.0537109,62.0512695 C61.5400515,65.3540204 64.9911889,67.005371 69.4072266,67.005371 C73.7861547,67.005371 77.2187376,65.3540204 79.7050781,62.0512695 C81.9316518,59.1567238 83.0449219,55.5200414 83.0449219,51.1411132 C83.0449219,46.7250755 81.9316518,43.0698386 79.7050781,40.1752929 C77.2187376,36.9096516 73.7861547,35.2768554 69.4072266,35.2768554 L69.4072266,35.2768554 Z M69.4072266,38.3383789 C72.6728679,38.3383789 75.2148347,39.6557485 77.0332031,42.2905273 C78.7031333,44.6284296 79.5380859,47.5785954 79.5380859,51.1411132 C79.5380859,54.6294119 78.7031333,57.5610232 77.0332031,59.9360351 C75.2148347,62.5708139 72.6728679,63.8881835 69.4072266,63.8881835 C66.1044757,63.8881835 63.5253999,62.5708139 61.6699219,59.9360351 C60.0742108,57.5981328 59.2763672,54.6665215 59.2763672,51.1411132 C59.2763672,47.5785954 60.0742108,44.6284296 61.6699219,42.2905273 C63.5253999,39.6557485 66.1044757,38.3383789 69.4072266,38.3383789 L69.4072266,38.3383789 Z M112.769531,37.2807617 L112.769531,40.230957 C111.619135,38.5239172 110.264656,37.2436566 108.706055,36.3901367 C107.110344,35.5737263 105.254893,35.1655273 103.139648,35.1655273 C98.9091585,35.1655273 95.5879027,36.779769 93.1757812,40.0083007 C91.0605363,42.9028465 90.0029297,46.4282018 90.0029297,50.5844726 C90.0029297,54.8891816 91.0605363,58.4330915 93.1757812,61.2163085 C95.5507931,64.3706212 98.872049,65.9477539 103.139648,65.9477539 C105.403332,65.9477539 107.444327,65.4467823 109.262695,64.4448242 C110.821297,63.5541947 111.99023,62.4594791 112.769531,61.1606445 L112.769531,64.4448242 C112.769531,66.1889735 111.990242,67.6547792 110.431641,68.8422851 C108.724601,70.1782293 106.293961,70.8461914 103.139648,70.8461914 C100.616198,70.8461914 98.5937576,70.4565468 97.0722656,69.677246 C95.6621023,68.9721644 94.6230502,67.9331123 93.9550781,66.5600585 C93.6953112,66.1147438 93.3427757,65.8549808 92.8974609,65.7807617 C92.4892558,65.669433 92.0810567,65.743651 91.6728516,66.0034179 C91.2275368,66.2260753 90.9492193,66.5415018 90.8378906,66.949707 C90.6523428,67.3950217 90.7080063,67.8588843 91.0048828,68.3413085 C92.0068409,70.1967866 93.5468646,71.5883742 95.625,72.5161132 C97.6289163,73.4438523 100.11522,73.9077148 103.083984,73.9077148 C107.314474,73.9077148 110.63573,72.9057717 113.047852,70.9018554 C115.200206,69.1577061 116.276367,66.9868294 116.276367,64.3891601 L116.276367,37.2807617 C116.276367,36.7612278 116.090822,36.3530288 115.719727,36.0561523 C115.385741,35.7963854 114.977541,35.6665039 114.495117,35.6665039 C114.012693,35.6665039 113.604494,35.7963854 113.270508,36.0561523 C112.936522,36.3530288 112.769531,36.7612278 112.769531,37.2807617 L112.769531,37.2807617 Z M103.083984,38.2270507 C106.201187,38.2270507 108.650382,39.5258659 110.431641,42.1235351 C111.990242,44.4243279 112.769531,47.2260577 112.769531,50.5288085 C112.769531,54.0171072 111.990242,56.8745005 110.431641,59.1010742 C108.687491,61.5874147 106.238297,62.8305664 103.083984,62.8305664 C99.8925622,62.8305664 97.4433679,61.5874147 95.7363281,59.1010742 C94.2148361,56.8745005 93.4541016,54.0171072 93.4541016,50.5288085 C93.4541016,47.2260577 94.2148361,44.4243279 95.7363281,42.1235351 C97.517587,39.5258659 99.9667813,38.2270507 103.083984,38.2270507 L103.083984,38.2270507 Z M138.430664,35.2768554 C134.014626,35.2768554 130.563489,36.9096516 128.077148,40.1752929 C125.887684,43.0698386 124.792969,46.7250755 124.792969,51.1411132 C124.792969,55.5200414 125.887684,59.1567238 128.077148,62.0512695 C130.563489,65.3540204 134.014626,67.005371 138.430664,67.005371 C142.809592,67.005371 146.242175,65.3540204 148.728516,62.0512695 C150.955089,59.1567238 152.068359,55.5200414 152.068359,51.1411132 C152.068359,46.7250755 150.955089,43.0698386 148.728516,40.1752929 C146.242175,36.9096516 142.809592,35.2768554 138.430664,35.2768554 L138.430664,35.2768554 Z M138.430664,38.3383789 C141.696305,38.3383789 144.238272,39.6557485 146.056641,42.2905273 C147.726571,44.6284296 148.561523,47.5785954 148.561523,51.1411132 C148.561523,54.6294119 147.726571,57.5610232 146.056641,59.9360351 C144.238272,62.5708139 141.696305,63.8881835 138.430664,63.8881835 C135.127913,63.8881835 132.548837,62.5708139 130.693359,59.9360351 C129.097648,57.5981328 128.299805,54.6665215 128.299805,51.1411132 C128.299805,47.5785954 129.097648,44.6284296 130.693359,42.2905273 C132.548837,39.6557485 135.127913,38.3383789 138.430664,38.3383789 L138.430664,38.3383789 Z" id="Logo" fill="#FFFFFF"></path>
            </g>
        </g>
    </g>
</svg>