<?xml version="1.0" encoding="iso-8859-1"?>
<!-- Generator: Adobe Illustrator 16.0.4, SVG Export Plug-In . SVG Version: 6.00 Build 0)  -->
<!DOCTYPE svg PUBLIC "-//W3C//DTD SVG 1.1//EN" "http://www.w3.org/Graphics/SVG/1.1/DTD/svg11.dtd">
<svg version="1.1" xmlns="http://www.w3.org/2000/svg" xmlns:xlink="http://www.w3.org/1999/xlink" x="0px" y="0px" width="1038px"
	 height="1798px" viewBox="0 0 1038 1798" style="enable-background:new 0 0 1038 1798;" xml:space="preserve">
<g id="Layer_1">
	<g>
		<defs>
			<rect id="SVGID_1_" width="1038" height="1798"/>
		</defs>
		<clipPath id="SVGID_2_">
			<use xlink:href="#SVGID_1_"  style="overflow:visible;"/>
		</clipPath>
		<path style="clip-path:url(#SVGID_2_);fill:#EEEEF0;" d="M0,1798h1038V0H0V1798z M519,665c-109.352,0-198-88.648-198-198
			s88.648-198,198-198c109.352,0,198,88.648,198,198S628.352,665,519,665"/>
	</g>
</g>
<g id="Layer_2">
	<g>
		<defs>
			<rect id="SVGID_3_" width="1038" height="1798"/>
		</defs>
		<clipPath id="SVGID_4_">
			<use xlink:href="#SVGID_3_"  style="overflow:visible;"/>
		</clipPath>
		<path style="clip-path:url(#SVGID_4_);fill:#FFFFFF;" d="M0,1798h1038V0H0V1798z M519,665c-109.352,0-198-88.648-198-198
			s88.648-198,198-198c109.352,0,198,88.648,198,198S628.352,665,519,665"/>
	</g>
</g>
</svg>
