<?xml version="1.0" encoding="UTF-8" standalone="no"?>
<svg width="44px" height="41px" viewBox="0 0 44 41" version="1.1" xmlns="http://www.w3.org/2000/svg" xmlns:xlink="http://www.w3.org/1999/xlink" xmlns:sketch="http://www.bohemiancoding.com/sketch/ns">
    <!-- Generator: Sketch 3.4.4 (17249) - http://www.bohemiancoding.com/sketch -->
    <title>Slice 1</title>
    <desc>Created with Sketch.</desc>
    <defs>
        <rect id="path-1" x="0" y="0" width="44" height="40.01"></rect>
    </defs>
    <g id="Page-1" stroke="none" stroke-width="1" fill="none" fill-rule="evenodd" sketch:type="MSPage">
        <g id="icon-partners" sketch:type="MSLayerGroup">
            <g id="Clipped">
                <mask id="mask-2" sketch:name="SVGID_1_" fill="white">
                    <use xlink:href="#path-1"></use>
                </mask>
                <g id="SVGID_1_"></g>
                <path d="M36.739,29.218 C36.739,29.218 33.036,28.363 33.036,24.618 C33.036,21.329 34.808,20.171 35.395,19.371 C35.395,19.371 36.602,18.347 35.794,15.044 C37.14,13.235 37.455,10.036 35.991,6.649 C35.073,4.523 33.948,3.359 32.712,2.682 C31.803,2.184 30.773,2.001 29.77,2.001 C28.275,2.001 26.853,2.409 25.978,2.803 C26.233,3.298 26.476,3.822 26.714,4.381 C26.748,4.461 26.772,4.542 26.805,4.622 C27.37,4.37 28.505,4 29.77,4 C30.557,4 31.224,4.147 31.752,4.437 C32.373,4.777 33.3,5.458 34.155,7.443 C35.374,10.262 35.051,12.693 34.189,13.851 C33.834,14.329 33.71,14.941 33.851,15.52 C34.255,17.175 33.995,17.87 33.929,18.009 C33.876,18.066 33.827,18.125 33.782,18.188 C33.742,18.241 33.603,18.391 33.502,18.499 C32.64,19.426 31.035,21.149 31.035,24.617 C31.035,28.747 34.326,30.663 36.17,31.136 C38.806,32.056 41.374,33.203 41.901,36.008 L35.574,36.008 C35.755,36.625 35.882,37.289 35.943,38.008 L43.087,38.008 C44,38.009 44,37.109 44,37.109 C44,31.709 39.093,30.035 36.739,29.218 L36.739,29.218 Z M26.037,30.24 C26.037,30.24 21.975,29.291 21.975,25.131 C21.975,21.477 23.644,20.19 24.289,19.301 C24.289,19.301 25.612,18.164 24.727,14.494 C26.204,12.484 26.481,8.93 24.875,5.166 C23.867,2.804 22.977,1.51 21.62,0.758 C20.624,0.205 19.493,0 18.393,0 C16.344,0 14.402,0.712 13.627,1.21 C11.359,2.208 9.834,3.127 8.404,6.63 C7.244,9.473 8.64,12.765 9.367,14.369 C8.481,18.039 9.711,19.301 9.711,19.301 C10.355,20.19 12.024,21.477 12.024,25.131 C12.024,29.291 7.963,30.24 7.963,30.24 C5.383,31.149 0,33.01 0,39.01 C0,39.01 0,40.01 1,40.01 L33,40.01 C34,40.01 34,39.01 34,39.01 C34,33.01 28.617,31.149 26.037,30.24 L26.037,30.24 Z M2.069,38.01 C2.562,34.592 5.605,33.198 8.538,32.158 C10.504,31.65 14.024,29.584 14.024,25.131 C14.024,21.319 12.452,19.463 11.607,18.465 C11.502,18.341 11.405,18.231 11.33,18.126 C11.306,18.095 11.282,18.064 11.257,18.032 C11.186,17.897 10.79,16.998 11.311,14.838 C11.416,14.406 11.373,13.949 11.189,13.544 C10.693,12.449 9.376,9.541 10.256,7.386 C11.447,4.466 12.508,3.888 14.432,3.041 C14.528,2.999 14.62,2.949 14.708,2.893 C15.192,2.581 16.77,2.001 18.393,2.001 C19.285,2.001 20.044,2.171 20.65,2.507 C21.37,2.906 22.051,3.645 23.035,5.951 C24.428,9.214 24.078,11.998 23.114,13.311 C22.765,13.785 22.644,14.391 22.782,14.963 C23.267,16.974 22.91,17.786 22.835,17.928 C22.776,17.99 22.721,18.057 22.67,18.126 C22.595,18.231 22.498,18.341 22.393,18.465 C21.549,19.463 19.976,21.319 19.976,25.131 C19.976,29.585 23.498,31.651 25.464,32.158 C28.368,33.184 31.437,34.573 31.932,38.01 L2.069,38.01 L2.069,38.01 Z" id="Shape" fill="#9B9B9B" sketch:type="MSShapeGroup" mask="url(#mask-2)"></path>
            </g>
        </g>
    </g>
</svg>