<?xml version="1.0" encoding="UTF-8" standalone="no"?>
<svg width="44px" height="36px" viewBox="0 0 44 36" version="1.1" xmlns="http://www.w3.org/2000/svg" xmlns:xlink="http://www.w3.org/1999/xlink" xmlns:sketch="http://www.bohemiancoding.com/sketch/ns">
    <!-- Generator: Sketch 3.4.4 (17249) - http://www.bohemiancoding.com/sketch -->
    <title>Untitled</title>
    <desc>Created with Sketch.</desc>
    <defs>
        <rect id="path-1" x="0" y="0" width="44" height="36"></rect>
    </defs>
    <g id="Page-1" stroke="none" stroke-width="1" fill="none" fill-rule="evenodd" sketch:type="MSPage">
        <g id="icon-fx" sketch:type="MSLayerGroup">
            <g id="Clipped">
                <mask id="mask-2" sketch:name="SVGID_1_" fill="white">
                    <use xlink:href="#path-1"></use>
                </mask>
                <g id="SVGID_1_"></g>
                <path d="M7,22 L1,22 C0.448,22 0,22.448 0,23 L0,35 C0,35.553 0.448,36 1,36 L7,36 C7.552,36 8,35.553 8,35 L8,23 C8,22.448 7.552,22 7,22 L7,22 Z M6,34 L2,34 L2,24 L6,24 L6,34 L6,34 Z M31,16 L25,16 C24.448,16 24,16.448 24,17 L24,35 C24,35.553 24.448,36 25,36 L31,36 C31.552,36 32,35.553 32,35 L32,17 C32,16.448 31.552,16 31,16 L31,16 Z M30,34 L26,34 L26,18 L30,18 L30,34 L30,34 Z M19,4 L13,4 C12.448,4 12,4.448 12,5 L12,35 C12,35.553 12.448,36 13,36 L19,36 C19.552,36 20,35.553 20,35 L20,5 C20,4.448 19.552,4 19,4 L19,4 Z M18,34 L14,34 L14,6 L18,6 L18,34 L18,34 Z M43,0 L37,0 C36.448,0 36,0.448 36,1 L36,35 C36,35.553 36.448,36 37,36 L43,36 C43.552,36 44,35.553 44,35 L44,1 C44,0.448 43.552,0 43,0 L43,0 Z M42,34 L38,34 L38,2 L42,2 L42,34 L42,34 Z" id="Shape" fill="#9B9B9B" sketch:type="MSShapeGroup" mask="url(#mask-2)"></path>
            </g>
        </g>
    </g>
</svg>