<?xml version="1.0" encoding="UTF-8" standalone="no"?>
<svg width="44px" height="44px" viewBox="0 0 44 44" version="1.1" xmlns="http://www.w3.org/2000/svg" xmlns:xlink="http://www.w3.org/1999/xlink" xmlns:sketch="http://www.bohemiancoding.com/sketch/ns">
    <!-- Generator: Sketch 3.4.4 (17249) - http://www.bohemiancoding.com/sketch -->
    <title>Untitled 2</title>
    <desc>Created with Sketch.</desc>
    <defs>
        <rect id="path-1" x="0" y="0" width="44" height="44"></rect>
    </defs>
    <g id="Page-1" stroke="none" stroke-width="1" fill="none" fill-rule="evenodd" sketch:type="MSPage">
        <g id="icon-how" sketch:type="MSLayerGroup">
            <g id="Group">
                <g id="SVGID_1_-link" fill="#FFFFFF" sketch:type="MSShapeGroup">
                    <rect id="SVGID_1_" x="0" y="0" width="44" height="44"></rect>
                </g>
                <g id="Clipped">
                    <mask id="mask-2" sketch:name="SVGID_1_" fill="white">
                        <use xlink:href="#path-1"></use>
                    </mask>
                    <g id="SVGID_1_"></g>
                    <path d="M9,12 L21,12 C21.552,12 22,11.553 22,11 C22,10.448 21.552,10 21,10 L9,10 C8.448,10 8,10.448 8,11 C8,11.553 8.448,12 9,12 L9,12 Z M9,18 L35,18 C35.552,18 36,17.553 36,17 C36,16.448 35.552,16 35,16 L9,16 C8.448,16 8,16.448 8,17 C8,17.553 8.448,18 9,18 L9,18 Z M42,0 L2,0 C0.896,0 0,0.896 0,2 L0,34 L10,44 L42,44 C43.104,44 44,43.105 44,42 L44,2 C44,0.896 43.104,0 42,0 L42,0 Z M10,41 L3,34 L10,34 L10,41 L10,41 Z M42,42 L12,42 L12,33 C12,32.448 11.552,32 11,32 L2,32 L2,2 L42,2 L42,42 L42,42 Z M9,24 L29,24 C29.552,24 30,23.553 30,23 C30,22.448 29.552,22 29,22 L9,22 C8.448,22 8,22.448 8,23 C8,23.553 8.448,24 9,24 L9,24 Z" id="Shape" fill="#9B9B9B" sketch:type="MSShapeGroup" mask="url(#mask-2)"></path>
                </g>
            </g>
        </g>
    </g>
</svg>