<?xml version="1.0" encoding="UTF-8" standalone="no"?>
<svg width="69px" height="76px" viewBox="0 0 69 76" version="1.1" xmlns="http://www.w3.org/2000/svg" xmlns:xlink="http://www.w3.org/1999/xlink" xmlns:sketch="http://www.bohemiancoding.com/sketch/ns">
    <!-- Generator: Sketch 3.4.4 (17249) - http://www.bohemiancoding.com/sketch -->
    <title>Untitled 4</title>
    <desc>Created with Sketch.</desc>
    <defs>
        <rect id="path-1" x="0" y="0" width="68.351" height="75.912"></rect>
        <rect id="path-3" x="0" y="0" width="68.351" height="75.912"></rect>
        <rect id="path-5" x="0" y="0" width="68.351" height="75.912"></rect>
        <rect id="path-7" x="0" y="0" width="68.351" height="75.912"></rect>
        <rect id="path-9" x="0" y="0" width="68.351" height="75.912"></rect>
        <rect id="path-11" x="0" y="0" width="68.351" height="75.912"></rect>
        <rect id="path-13" x="0" y="0" width="68.351" height="75.912"></rect>
        <rect id="path-15" x="0" y="0" width="68.351" height="75.912"></rect>
        <rect id="path-17" x="0" y="0" width="68.351" height="75.912"></rect>
    </defs>
    <g id="Page-1" stroke="none" stroke-width="1" fill="none" fill-rule="evenodd" sketch:type="MSPage">
        <g id="icon-offers" sketch:type="MSLayerGroup">
            <g id="Group">
                <g id="Clipped">
                    <mask id="mask-2" sketch:name="SVGID_1_" fill="white">
                        <use xlink:href="#path-1"></use>
                    </mask>
                    <g id="SVGID_1_"></g>
                    <path d="M0.37,43.849 C0.132,44.089 0,44.409 0,44.749 C0,45.091 0.132,45.409 0.37,45.647 L30.087,75.538 C30.326,75.779 30.643,75.912 30.981,75.912 C31.319,75.912 31.637,75.779 31.875,75.539 L67.98,39.221 C68.22,38.981 68.354,38.645 68.35,38.302 L68.045,20.245 C68.04,19.913 67.908,19.601 67.676,19.367 L56.215,7.838 C55.982,7.603 55.673,7.471 55.342,7.466 L37.289,7.155 C36.924,7.155 36.644,7.36 36.474,7.532 L28.499,15.523 L28.307,15.52 L27.968,15.294 C20.656,10.424 16.38,5.026 17.128,3.206 L17.192,3.12 C17.492,2.748 18.253,2.543 19.335,2.543 C22.043,2.543 26.41,3.905 30.825,6.123 L32.454,4.586 L32.32,4.018 C27.185,1.411 22.54,0 19.334,0 C17.22,0 15.71,0.652 14.97,1.886 C13.811,3.82 14.783,6.634 17.778,10.023 C19.794,12.301 22.608,14.706 25.918,16.975 L26.459,17.39 L26.444,17.622 L0.37,43.849 L0.37,43.849 Z M28.755,18.923 L28.911,18.904 L29.272,19.119 C34.973,22.521 40.81,24.781 44.889,25.164 L45.279,25.217 L45.399,25.337 L45.494,25.665 C45.8,26.72 46.373,27.693 47.152,28.48 C48.393,29.727 50.045,30.415 51.801,30.415 C53.557,30.415 55.207,29.728 56.447,28.48 C59.009,25.903 59.009,21.709 56.447,19.131 C55.205,17.883 53.554,17.196 51.8,17.196 C50.046,17.196 48.395,17.883 47.154,19.131 C46.344,19.946 45.758,20.967 45.46,22.085 L45.308,22.564 L45.131,22.654 L44.703,22.601 C41.301,22.183 36.346,20.255 31.448,17.443 L30.829,17.043 L30.836,16.802 L37.971,9.712 L54.846,10.056 L65.526,20.88 L65.753,37.865 L31.052,72.729 L30.839,72.7 L3.164,44.82 L3.194,44.609 L28.755,18.923 L28.755,18.923 Z M50.766,20.645 L50.726,19.993 L50.878,19.846 L51.453,19.769 C51.566,19.753 51.68,19.74 51.797,19.74 L51.803,19.74 C52.879,19.74 53.893,20.163 54.658,20.93 C56.235,22.518 56.234,25.098 54.658,26.682 C53.929,27.418 52.888,27.84 51.803,27.84 C50.718,27.84 49.676,27.418 48.943,26.683 C48.706,26.443 48.494,26.155 48.297,25.803 L48.008,25.221 L48.114,25.02 L48.643,24.807 C49.443,24.485 50.043,23.998 50.425,23.359 C50.881,22.598 50.992,21.712 50.766,20.645 L50.766,20.645 Z" id="Shape" fill="#9B9B9B" sketch:type="MSShapeGroup" mask="url(#mask-2)"></path>
                </g>
                <g id="Clipped">
                    <mask id="mask-4" sketch:name="SVGID_1_" fill="white">
                        <use xlink:href="#path-3"></use>
                    </mask>
                    <g id="SVGID_1_"></g>
                    <path d="M25.721,38.152 C26.399,38.83 27.115,39.321 27.852,39.611 C28.449,39.844 29.061,39.964 29.671,39.964 C29.826,39.964 29.984,39.956 30.139,39.941 C30.883,39.864 31.625,39.618 32.342,39.21 C33.012,38.829 33.676,38.311 34.318,37.669 C34.859,37.128 35.331,36.551 35.716,35.954 C36.146,35.295 36.426,34.596 36.548,33.874 C36.673,33.118 36.593,32.339 36.313,31.558 C36.041,30.799 35.521,30.032 34.769,29.281 C34.082,28.594 33.357,28.1 32.616,27.814 C31.856,27.525 31.074,27.425 30.307,27.512 C29.569,27.599 28.837,27.848 28.132,28.251 C27.474,28.628 26.83,29.13 26.216,29.744 C25.616,30.345 25.113,30.962 24.723,31.578 C24.291,32.26 24.022,32.973 23.923,33.695 C23.821,34.445 23.919,35.212 24.214,35.975 C24.499,36.705 25.007,37.439 25.721,38.152 M26.528,32.714 C26.83,32.234 27.232,31.741 27.723,31.249 C28.202,30.772 28.694,30.387 29.185,30.105 C29.636,29.847 30.092,29.689 30.542,29.636 C30.642,29.624 30.743,29.617 30.842,29.617 C30.979,29.617 31.115,29.635 31.253,29.657 C31.445,29.689 31.638,29.735 31.837,29.812 C32.3,29.988 32.776,30.32 33.252,30.796 C33.781,31.325 34.133,31.828 34.299,32.293 C34.458,32.734 34.503,33.14 34.438,33.534 C34.365,33.967 34.198,34.38 33.926,34.796 C33.617,35.271 33.241,35.731 32.81,36.162 C32.308,36.664 31.797,37.066 31.293,37.354 C30.839,37.612 30.383,37.767 29.94,37.812 C29.763,37.829 29.588,37.817 29.412,37.799 C29.357,37.793 29.301,37.792 29.246,37.782 C29.048,37.75 28.849,37.7 28.645,37.62 C28.182,37.438 27.709,37.107 27.239,36.637 C26.732,36.13 26.386,35.643 26.209,35.188 C26.043,34.76 25.988,34.361 26.042,33.97 C26.098,33.551 26.257,33.141 26.528,32.714" id="Shape" fill="#9B9B9B" sketch:type="MSShapeGroup" mask="url(#mask-4)"></path>
                </g>
                <g id="Clipped">
                    <mask id="mask-6" sketch:name="SVGID_1_" fill="white">
                        <use xlink:href="#path-5"></use>
                    </mask>
                    <g id="SVGID_1_"></g>
                    <path d="M35.769,49.492 C35.08,48.804 34.355,48.31 33.615,48.025 C32.86,47.735 32.076,47.632 31.307,47.722 C30.567,47.81 29.835,48.059 29.131,48.462 C28.474,48.839 27.83,49.341 27.216,49.955 C26.617,50.553 26.114,51.17 25.722,51.789 C25.29,52.473 25.02,53.185 24.921,53.905 C24.82,54.655 24.918,55.422 25.214,56.184 C25.497,56.913 26.004,57.647 26.721,58.364 C27.399,59.043 28.117,59.534 28.853,59.823 C29.45,60.057 30.061,60.175 30.669,60.175 C30.825,60.175 30.982,60.167 31.138,60.152 C31.882,60.076 32.623,59.83 33.341,59.421 C34.009,59.04 34.674,58.523 35.317,57.88 C35.857,57.339 36.328,56.763 36.714,56.166 C37.146,55.505 37.426,54.805 37.546,54.085 C37.671,53.329 37.592,52.55 37.312,51.769 C37.038,51.009 36.519,50.242 35.769,49.492 M35.436,53.747 C35.364,54.178 35.197,54.59 34.925,55.008 C34.615,55.484 34.24,55.943 33.81,56.373 C33.305,56.878 32.793,57.279 32.29,57.565 C31.836,57.825 31.381,57.978 30.938,58.023 C30.767,58.041 30.597,58.029 30.426,58.011 C30.363,58.005 30.301,58.003 30.239,57.993 C30.043,57.959 29.846,57.91 29.644,57.831 C29.182,57.649 28.709,57.318 28.238,56.848 C27.731,56.34 27.384,55.853 27.208,55.4 C27.042,54.971 26.987,54.572 27.041,54.18 C27.098,53.761 27.257,53.351 27.526,52.925 C27.834,52.439 28.237,51.946 28.723,51.461 C29.202,50.982 29.694,50.597 30.186,50.315 C30.637,50.057 31.092,49.898 31.541,49.846 C31.64,49.834 31.741,49.828 31.839,49.828 C32.169,49.828 32.496,49.891 32.837,50.021 C33.301,50.2 33.776,50.531 34.252,51.005 C34.779,51.533 35.132,52.037 35.299,52.503 C35.456,52.945 35.502,53.352 35.436,53.747" id="Shape" fill="#9B9B9B" sketch:type="MSShapeGroup" mask="url(#mask-6)"></path>
                </g>
                <g id="Clipped">
                    <mask id="mask-8" sketch:name="SVGID_1_" fill="white">
                        <use xlink:href="#path-7"></use>
                    </mask>
                    <g id="SVGID_1_"></g>
                    <path d="M16.934,46.02 C17.025,46.596 16.664,47.143 16.088,47.236 L44.387,42.71 C43.8,42.81 43.227,42.423 43.127,41.835 C43.026,41.248 43.477,40.689 44.064,40.589 L15.803,45.129 C16.378,45.037 16.842,45.444 16.934,46.02" id="Shape" fill="#9B9B9B" sketch:type="MSShapeGroup" mask="url(#mask-8)"></path>
                </g>
                <g id="Clipped">
                    <mask id="mask-10" sketch:name="SVGID_1_" fill="white">
                        <use xlink:href="#path-9"></use>
                    </mask>
                    <g id="SVGID_1_"></g>
                    <path d="M45.254,41.472 C45.154,40.884 44.651,40.489 44.065,40.588 L44.387,42.709 C44.974,42.609 45.354,42.06 45.254,41.472" id="Shape" fill="#9B9B9B" sketch:type="MSShapeGroup" mask="url(#mask-10)"></path>
                </g>
                <g id="Clipped">
                    <mask id="mask-12" sketch:name="SVGID_1_" fill="white">
                        <use xlink:href="#path-11"></use>
                    </mask>
                    <g id="SVGID_1_"></g>
                    <path d="M43.126,41.834 C43.227,42.422 43.799,42.81 44.388,42.709 L44.064,40.587 C43.477,40.688 43.026,41.246 43.126,41.834" id="Shape" fill="#9B9B9B" sketch:type="MSShapeGroup" mask="url(#mask-12)"></path>
                </g>
                <g id="Clipped">
                    <mask id="mask-14" sketch:name="SVGID_1_" fill="white">
                        <use xlink:href="#path-13"></use>
                    </mask>
                    <g id="SVGID_1_"></g>
                    <path d="M16.087,47.234 L15.802,45.129 C15.226,45.22 14.755,45.775 14.847,46.351 C14.938,46.928 15.511,47.325 16.087,47.234" id="Shape" fill="#9B9B9B" sketch:type="MSShapeGroup" mask="url(#mask-14)"></path>
                </g>
                <g id="Clipped">
                    <mask id="mask-16" sketch:name="SVGID_1_" fill="white">
                        <use xlink:href="#path-15"></use>
                    </mask>
                    <g id="SVGID_1_"></g>
                    <path d="M16.934,46.02 C16.843,45.445 16.379,45.038 15.803,45.128 L16.088,47.235 C16.664,47.143 17.024,46.596 16.934,46.02" id="Shape" fill="#9B9B9B" sketch:type="MSShapeGroup" mask="url(#mask-16)"></path>
                </g>
                <g id="Clipped">
                    <mask id="mask-18" sketch:name="SVGID_1_" fill="white">
                        <use xlink:href="#path-17"></use>
                    </mask>
                    <g id="SVGID_1_"></g>
                    <path d="M32.77,5.726 C32.437,6.384 31.483,6.457 30.826,6.124 C30.168,5.79 30.056,5.177 30.389,4.519 C30.722,3.862 31.663,3.684 32.321,4.018 C32.978,4.351 33.103,5.067 32.77,5.726" id="Shape" fill="#9B9B9B" sketch:type="MSShapeGroup" mask="url(#mask-18)"></path>
                </g>
            </g>
        </g>
    </g>
</svg>