<?xml version="1.0" encoding="utf-8"?>
<!-- Generator: Adobe Illustrator 15.1.0, SVG Export Plug-In . SVG Version: 6.00 Build 0)  -->
<!DOCTYPE svg PUBLIC "-//W3C//DTD SVG 1.1//EN" "http://www.w3.org/Graphics/SVG/1.1/DTD/svg11.dtd">
<svg version="1.1" id="Layer_1" xmlns="http://www.w3.org/2000/svg" xmlns:xlink="http://www.w3.org/1999/xlink" x="0px" y="0px"
	 width="44px" height="44px" viewBox="0 0 44 44" enable-background="new 0 0 44 44" xml:space="preserve">
<g>
	<defs>
		<rect id="SVGID_1_" width="44" height="44"/>
	</defs>
	<clipPath id="SVGID_2_">
		<use xlink:href="#SVGID_1_"  overflow="visible"/>
	</clipPath>
	<path clip-path="url(#SVGID_2_)" fill="#9B9B9B" d="M27,27h-4v4h4V27z M27,20h-4v4h4V20z M27,34h-4v4h4V34z M33,20h-4v4h4V20z
		 M39,20h-4v4h4V20z M33,27h-4v4h4V27z M39,27h-4v4h4V27z M21,27h-4v4h4V27z M21,20h-4v4h4V20z M21,34h-4v4h4V34z M9,27H5v4h4V27z
		 M9,20H5v4h4V20z M40,4h-4V1c0-0.552-0.447-1-1-1s-1,0.448-1,1v3H10V1c0-0.552-0.447-1-1-1S8,0.448,8,1v3H4
		C1.791,4,0,5.791,0,8.001V40c0,2.209,1.791,4,4,4h36c2.209,0,4-1.791,4-4V8.001C44,5.791,42.209,4,40,4 M42,40c0,1.104-0.896,2-2,2
		H4c-1.104,0-2-0.896-2-2V16h40V40z M42,14H2V8.001C2,6.896,2.896,6,4,6h4v3c0,0.553,0.447,1,1,1s1-0.447,1-1V6h24v3
		c0,0.553,0.447,1,1,1s1-0.447,1-1V6h4c1.104,0,2,0.896,2,2.001V14z M9,34H5v4h4V34z M15,20h-4v4h4V20z M15,34h-4v4h4V34z M15,27h-4
		v4h4V27z"/>
</g>
</svg>
