<?xml version="1.0" encoding="utf-8"?>
<!-- Generator: Adobe Illustrator 18.1.1, SVG Export Plug-In . SVG Version: 6.00 Build 0)  -->
<svg version="1.1" xmlns="http://www.w3.org/2000/svg" xmlns:xlink="http://www.w3.org/1999/xlink" x="0px" y="0px"
	 viewBox="0 0 100 100" enable-background="new 0 0 100 100" xml:space="preserve">
<g id="GUIDES">
</g>
<g id="ICONS_-_BLACK" display="none">
	<g display="inline">
		<g>
			<g>
				<path d="M83.2,54l-0.1-0.2c0.2-1.5,0.3-2.9,0.3-4.2c0-1.8-0.1-3.6-0.4-5.5l-0.2-1.4c-3.1-15.7-16.5-27.3-31.9-27.6
					c-0.2,0-0.5,0-0.7,0c-2.9,0-5.9,0.4-8.8,1.2l-1.4,0.5c-13.4,4.6-22.4,17.5-22.4,32.1c0,19,14.9,34.5,33.2,34.5
					c10.5,0,20.3-5.3,26.5-14.1l0.2,0c0.7,0.2,1.3,0.3,1.9,0.3c4.3,0,7.8-3.7,7.8-8.2C87.3,58.3,85.7,55.5,83.2,54z M43.7,18.5
					c2.2-0.5,4.4-0.8,6.6-0.8c0.2,0,0.4,0,0.6,0C64.6,18,76.5,27.9,80,41.8l-0.2,0.2c-3.4-0.7-6.7-1.7-9.8-3l-0.1-0.2
					c0.2-0.7,0.3-1.5,0.3-2.3c0-4.6-3.6-8.4-8-8.4l-0.1,0c-2.3,0-4.5,1-6,2.9l-0.2,0c-4.6-3.5-8.7-7.5-12.2-12.2L43.7,18.5z
					 M67.7,36.4c0,1.5-0.6,2.9-1.6,4c-1,1.1-2.4,1.7-3.9,1.7c-3,0-5.5-2.6-5.5-5.8c0-3.1,2.4-5.6,5.4-5.6l0.1,0
					C65.2,30.7,67.7,33.3,67.7,36.4z M33.5,23.1c2.2-1.6,4.6-2.8,7.2-3.7l0,0l0,0l0.2,0.1c3.9,5.3,8.5,9.9,13.7,13.8l0,0.2
					c-0.3,0.9-0.5,1.8-0.5,2.8c0,4.6,3.6,8.4,8.1,8.4c2.5,0,4.8-1.2,6.4-3.4l0.2,0c3.8,1.5,7.7,2.7,11.7,3.5l0.1,0.1
					c0.2,1.6,0.3,3.2,0.3,4.7c0,1-0.1,2.1-0.2,3.4l-0.2,0.1C80.1,53,79.7,53,79.3,53c-2.4,0-4.7,1.2-6.2,3.2l-0.2,0
					c-5.4-2.1-11.1-3.5-17-4.1l-0.1-0.1c-4.7-11.5-12.5-21.4-22.4-28.8L33.5,23.1z M21.7,58.6c-1-3.1-1.4-6.3-1.4-9.6
					c0-9.3,4-18.1,10.8-24l0,0l0,0l0.2,0.1c0.1,0.1,0.2,0.2,0.3,0.2c9.3,6.7,16.7,15.9,21.3,26.6L52.8,52c-0.8,0-1.7-0.1-2.5-0.1
					c-2.4,0-4.8,0.1-7.3,0.4l-0.1-0.1c-1.4-2.8-4.2-4.6-7.3-4.6c-4.4,0-8,3.7-8,8.3l0,0.2l-0.1,0.1c-1.9,0.7-3.7,1.6-5.5,2.4
					L21.7,58.6z M41.2,56.1c0,1.5-0.6,3-1.6,4c-1,1.1-2.4,1.7-4,1.7c-3.1,0-5.6-2.6-5.6-5.8c0-3.2,2.5-5.7,5.5-5.7h0.1
					C38.7,50.3,41.2,52.9,41.2,56.1z M58.7,79.8c-2.6,0.7-5.2,1.1-7.8,1.1c-12.2,0-23.3-7.6-28.1-19.4l0.1-0.2
					c1.6-0.8,3.3-1.6,5-2.3l0,0l0,0l0.2,0.1c1.2,3.3,4.2,5.4,7.6,5.4c4.4,0,8-3.7,8-8.3c0-0.3,0-0.7,0-1.1l0.2-0.1
					c2.2-0.2,4.4-0.4,6.6-0.4c1.2,0,2.4,0,3.7,0.1l0.1,0.1c2.9,7.7,4.4,15.8,4.4,24L58.7,79.8L58.7,79.8z M61.3,78.9l-0.2-0.2
					c0-8-1.4-15.9-4-23.5l0.1-0.2l0.1,0c5,0.6,9.8,1.8,14.5,3.6l0.1,0.2c-0.2,0.8-0.4,1.6-0.4,2.5c0,2.7,1.3,5.3,3.5,6.9l0,0.2
					C71.5,73.1,66.8,76.8,61.3,78.9z M83.3,65.3c-1,1.1-2.4,1.7-3.8,1.7c-3,0-5.4-2.6-5.4-5.7c0-3.1,2.4-5.7,5.4-5.7h0
					c3,0,5.4,2.6,5.4,5.7C84.8,62.8,84.3,64.2,83.3,65.3z"/>
			</g>
		</g>
	</g>
</g>
<g id="ICONS_-_DARK_PURPLE" display="none">
	<g display="inline">
		<g>
			<g>
				<path fill="#4F2556" d="M83.2,54l-0.1-0.2c0.2-1.5,0.3-2.9,0.3-4.2c0-1.8-0.1-3.6-0.4-5.5l-0.2-1.4
					c-3.1-15.7-16.5-27.3-31.9-27.6c-0.2,0-0.5,0-0.7,0c-2.9,0-5.9,0.4-8.8,1.2l-1.4,0.5c-13.4,4.6-22.4,17.5-22.4,32.1
					c0,19,14.9,34.5,33.2,34.5c10.5,0,20.3-5.3,26.5-14.1l0.2,0c0.7,0.2,1.3,0.3,1.9,0.3c4.3,0,7.8-3.7,7.8-8.2
					C87.3,58.3,85.7,55.5,83.2,54z M43.7,18.5c2.2-0.5,4.4-0.8,6.6-0.8c0.2,0,0.4,0,0.6,0C64.6,18,76.5,27.9,80,41.8l-0.2,0.2
					c-3.4-0.7-6.7-1.7-9.8-3l-0.1-0.2c0.2-0.7,0.3-1.5,0.3-2.3c0-4.6-3.6-8.4-8-8.4l-0.1,0c-2.3,0-4.5,1-6,2.9l-0.2,0
					c-4.6-3.5-8.7-7.5-12.2-12.2L43.7,18.5z M67.7,36.4c0,1.5-0.6,2.9-1.6,4c-1,1.1-2.4,1.7-3.9,1.7c-3,0-5.5-2.6-5.5-5.8
					c0-3.1,2.4-5.6,5.4-5.6l0.1,0C65.2,30.7,67.7,33.3,67.7,36.4z M33.5,23.1c2.2-1.6,4.6-2.8,7.2-3.7l0,0l0,0l0.2,0.1
					c3.9,5.3,8.5,9.9,13.7,13.8l0,0.2c-0.3,0.9-0.5,1.8-0.5,2.8c0,4.6,3.6,8.4,8.1,8.4c2.5,0,4.8-1.2,6.4-3.4l0.2,0
					c3.8,1.5,7.7,2.7,11.7,3.5l0.1,0.1c0.2,1.6,0.3,3.2,0.3,4.7c0,1-0.1,2.1-0.2,3.4l-0.2,0.1C80.1,53,79.7,53,79.3,53
					c-2.4,0-4.7,1.2-6.2,3.2l-0.2,0c-5.4-2.1-11.1-3.5-17-4.1l-0.1-0.1c-4.7-11.5-12.5-21.4-22.4-28.8L33.5,23.1z M21.7,58.6
					c-1-3.1-1.4-6.3-1.4-9.6c0-9.3,4-18.1,10.8-24l0,0l0,0l0.2,0.1c0.1,0.1,0.2,0.2,0.3,0.2c9.3,6.7,16.7,15.9,21.3,26.6L52.8,52
					c-0.8,0-1.7-0.1-2.5-0.1c-2.4,0-4.8,0.1-7.3,0.4l-0.1-0.1c-1.4-2.8-4.2-4.6-7.3-4.6c-4.4,0-8,3.7-8,8.3l0,0.2l-0.1,0.1
					c-1.9,0.7-3.7,1.6-5.5,2.4L21.7,58.6z M41.2,56.1c0,1.5-0.6,3-1.6,4c-1,1.1-2.4,1.7-4,1.7c-3.1,0-5.6-2.6-5.6-5.8
					c0-3.2,2.5-5.7,5.5-5.7h0.1C38.7,50.3,41.2,52.9,41.2,56.1z M58.7,79.8c-2.6,0.7-5.2,1.1-7.8,1.1c-12.2,0-23.3-7.6-28.1-19.4
					l0.1-0.2c1.6-0.8,3.3-1.6,5-2.3l0,0l0,0l0.2,0.1c1.2,3.3,4.2,5.4,7.6,5.4c4.4,0,8-3.7,8-8.3c0-0.3,0-0.7,0-1.1l0.2-0.1
					c2.2-0.2,4.4-0.4,6.6-0.4c1.2,0,2.4,0,3.7,0.1l0.1,0.1c2.9,7.7,4.4,15.8,4.4,24L58.7,79.8L58.7,79.8z M61.3,78.9l-0.2-0.2
					c0-8-1.4-15.9-4-23.5l0.1-0.2l0.1,0c5,0.6,9.8,1.8,14.5,3.6l0.1,0.2c-0.2,0.8-0.4,1.6-0.4,2.5c0,2.7,1.3,5.3,3.5,6.9l0,0.2
					C71.5,73.1,66.8,76.8,61.3,78.9z M83.3,65.3c-1,1.1-2.4,1.7-3.8,1.7c-3,0-5.4-2.6-5.4-5.7c0-3.1,2.4-5.7,5.4-5.7h0
					c3,0,5.4,2.6,5.4,5.7C84.8,62.8,84.3,64.2,83.3,65.3z"/>
			</g>
		</g>
	</g>
</g>
<g id="ICONS_-_WARM_GREY" display="none">
	<g display="inline">
		<g>
			<g>
				<path fill="#534C63" d="M83.2,54l-0.1-0.2c0.2-1.5,0.3-2.9,0.3-4.2c0-1.8-0.1-3.6-0.4-5.5l-0.2-1.4
					c-3.1-15.7-16.5-27.3-31.9-27.6c-0.2,0-0.5,0-0.7,0c-2.9,0-5.9,0.4-8.8,1.2l-1.4,0.5c-13.4,4.6-22.4,17.5-22.4,32.1
					c0,19,14.9,34.5,33.2,34.5c10.5,0,20.3-5.3,26.5-14.1l0.2,0c0.7,0.2,1.3,0.3,1.9,0.3c4.3,0,7.8-3.7,7.8-8.2
					C87.3,58.3,85.7,55.5,83.2,54z M43.7,18.5c2.2-0.5,4.4-0.8,6.6-0.8c0.2,0,0.4,0,0.6,0C64.6,18,76.5,27.9,80,41.8l-0.2,0.2
					c-3.4-0.7-6.7-1.7-9.8-3l-0.1-0.2c0.2-0.7,0.3-1.5,0.3-2.3c0-4.6-3.6-8.4-8-8.4l-0.1,0c-2.3,0-4.5,1-6,2.9l-0.2,0
					c-4.6-3.5-8.7-7.5-12.2-12.2L43.7,18.5z M67.7,36.4c0,1.5-0.6,2.9-1.6,4c-1,1.1-2.4,1.7-3.9,1.7c-3,0-5.5-2.6-5.5-5.8
					c0-3.1,2.4-5.6,5.4-5.6l0.1,0C65.2,30.7,67.7,33.3,67.7,36.4z M33.5,23.1c2.2-1.6,4.6-2.8,7.2-3.7l0,0l0,0l0.2,0.1
					c3.9,5.3,8.5,9.9,13.7,13.8l0,0.2c-0.3,0.9-0.5,1.8-0.5,2.8c0,4.6,3.6,8.4,8.1,8.4c2.5,0,4.8-1.2,6.4-3.4l0.2,0
					c3.8,1.5,7.7,2.7,11.7,3.5l0.1,0.1c0.2,1.6,0.3,3.2,0.3,4.7c0,1-0.1,2.1-0.2,3.4l-0.2,0.1C80.1,53,79.7,53,79.3,53
					c-2.4,0-4.7,1.2-6.2,3.2l-0.2,0c-5.4-2.1-11.1-3.5-17-4.1l-0.1-0.1c-4.7-11.5-12.5-21.4-22.4-28.8L33.5,23.1z M21.7,58.6
					c-1-3.1-1.4-6.3-1.4-9.6c0-9.3,4-18.1,10.8-24l0,0l0,0l0.2,0.1c0.1,0.1,0.2,0.2,0.3,0.2c9.3,6.7,16.7,15.9,21.3,26.6L52.8,52
					c-0.8,0-1.7-0.1-2.5-0.1c-2.4,0-4.8,0.1-7.3,0.4l-0.1-0.1c-1.4-2.8-4.2-4.6-7.3-4.6c-4.4,0-8,3.7-8,8.3l0,0.2l-0.1,0.1
					c-1.9,0.7-3.7,1.6-5.5,2.4L21.7,58.6z M41.2,56.1c0,1.5-0.6,3-1.6,4c-1,1.1-2.4,1.7-4,1.7c-3.1,0-5.6-2.6-5.6-5.8
					c0-3.2,2.5-5.7,5.5-5.7h0.1C38.7,50.3,41.2,52.9,41.2,56.1z M58.7,79.8c-2.6,0.7-5.2,1.1-7.8,1.1c-12.2,0-23.3-7.6-28.1-19.4
					l0.1-0.2c1.6-0.8,3.3-1.6,5-2.3l0,0l0,0l0.2,0.1c1.2,3.3,4.2,5.4,7.6,5.4c4.4,0,8-3.7,8-8.3c0-0.3,0-0.7,0-1.1l0.2-0.1
					c2.2-0.2,4.4-0.4,6.6-0.4c1.2,0,2.4,0,3.7,0.1l0.1,0.1c2.9,7.7,4.4,15.8,4.4,24L58.7,79.8L58.7,79.8z M61.3,78.9l-0.2-0.2
					c0-8-1.4-15.9-4-23.5l0.1-0.2l0.1,0c5,0.6,9.8,1.8,14.5,3.6l0.1,0.2c-0.2,0.8-0.4,1.6-0.4,2.5c0,2.7,1.3,5.3,3.5,6.9l0,0.2
					C71.5,73.1,66.8,76.8,61.3,78.9z M83.3,65.3c-1,1.1-2.4,1.7-3.8,1.7c-3,0-5.4-2.6-5.4-5.7c0-3.1,2.4-5.7,5.4-5.7h0
					c3,0,5.4,2.6,5.4,5.7C84.8,62.8,84.3,64.2,83.3,65.3z"/>
			</g>
		</g>
	</g>
</g>
<g id="ICONS_-_SKRILL_TEAL" display="none">
	<g display="inline">
		<g>
			<g>
				<path fill="#41AEB5" d="M83.2,54l-0.1-0.2c0.2-1.5,0.3-2.9,0.3-4.2c0-1.8-0.1-3.6-0.4-5.5l-0.2-1.4
					c-3.1-15.7-16.5-27.3-31.9-27.6c-0.2,0-0.5,0-0.7,0c-2.9,0-5.9,0.4-8.8,1.2l-1.4,0.5c-13.4,4.6-22.4,17.5-22.4,32.1
					c0,19,14.9,34.5,33.2,34.5c10.5,0,20.3-5.3,26.5-14.1l0.2,0c0.7,0.2,1.3,0.3,1.9,0.3c4.3,0,7.8-3.7,7.8-8.2
					C87.3,58.3,85.7,55.5,83.2,54z M43.7,18.5c2.2-0.5,4.4-0.8,6.6-0.8c0.2,0,0.4,0,0.6,0C64.6,18,76.5,27.9,80,41.8l-0.2,0.2
					c-3.4-0.7-6.7-1.7-9.8-3l-0.1-0.2c0.2-0.7,0.3-1.5,0.3-2.3c0-4.6-3.6-8.4-8-8.4l-0.1,0c-2.3,0-4.5,1-6,2.9l-0.2,0
					c-4.6-3.5-8.7-7.5-12.2-12.2L43.7,18.5z M67.7,36.4c0,1.5-0.6,2.9-1.6,4c-1,1.1-2.4,1.7-3.9,1.7c-3,0-5.5-2.6-5.5-5.8
					c0-3.1,2.4-5.6,5.4-5.6l0.1,0C65.2,30.7,67.7,33.3,67.7,36.4z M33.5,23.1c2.2-1.6,4.6-2.8,7.2-3.7l0,0l0,0l0.2,0.1
					c3.9,5.3,8.5,9.9,13.7,13.8l0,0.2c-0.3,0.9-0.5,1.8-0.5,2.8c0,4.6,3.6,8.4,8.1,8.4c2.5,0,4.8-1.2,6.4-3.4l0.2,0
					c3.8,1.5,7.7,2.7,11.7,3.5l0.1,0.1c0.2,1.6,0.3,3.2,0.3,4.7c0,1-0.1,2.1-0.2,3.4l-0.2,0.1C80.1,53,79.7,53,79.3,53
					c-2.4,0-4.7,1.2-6.2,3.2l-0.2,0c-5.4-2.1-11.1-3.5-17-4.1l-0.1-0.1c-4.7-11.5-12.5-21.4-22.4-28.8L33.5,23.1z M21.7,58.6
					c-1-3.1-1.4-6.3-1.4-9.6c0-9.3,4-18.1,10.8-24l0,0l0,0l0.2,0.1c0.1,0.1,0.2,0.2,0.3,0.2c9.3,6.7,16.7,15.9,21.3,26.6L52.8,52
					c-0.8,0-1.7-0.1-2.5-0.1c-2.4,0-4.8,0.1-7.3,0.4l-0.1-0.1c-1.4-2.8-4.2-4.6-7.3-4.6c-4.4,0-8,3.7-8,8.3l0,0.2l-0.1,0.1
					c-1.9,0.7-3.7,1.6-5.5,2.4L21.7,58.6z M41.2,56.1c0,1.5-0.6,3-1.6,4c-1,1.1-2.4,1.7-4,1.7c-3.1,0-5.6-2.6-5.6-5.8
					c0-3.2,2.5-5.7,5.5-5.7h0.1C38.7,50.3,41.2,52.9,41.2,56.1z M58.7,79.8c-2.6,0.7-5.2,1.1-7.8,1.1c-12.2,0-23.3-7.6-28.1-19.4
					l0.1-0.2c1.6-0.8,3.3-1.6,5-2.3l0,0l0,0l0.2,0.1c1.2,3.3,4.2,5.4,7.6,5.4c4.4,0,8-3.7,8-8.3c0-0.3,0-0.7,0-1.1l0.2-0.1
					c2.2-0.2,4.4-0.4,6.6-0.4c1.2,0,2.4,0,3.7,0.1l0.1,0.1c2.9,7.7,4.4,15.8,4.4,24L58.7,79.8L58.7,79.8z M61.3,78.9l-0.2-0.2
					c0-8-1.4-15.9-4-23.5l0.1-0.2l0.1,0c5,0.6,9.8,1.8,14.5,3.6l0.1,0.2c-0.2,0.8-0.4,1.6-0.4,2.5c0,2.7,1.3,5.3,3.5,6.9l0,0.2
					C71.5,73.1,66.8,76.8,61.3,78.9z M83.3,65.3c-1,1.1-2.4,1.7-3.8,1.7c-3,0-5.4-2.6-5.4-5.7c0-3.1,2.4-5.7,5.4-5.7h0
					c3,0,5.4,2.6,5.4,5.7C84.8,62.8,84.3,64.2,83.3,65.3z"/>
			</g>
		</g>
	</g>
</g>
<g id="ICONS_-_SKRILL_PURPLE">
	<g>
		<g>
			<g>
				<path fill="#811E68" d="M83.2,54l-0.1-0.2c0.2-1.5,0.3-2.9,0.3-4.2c0-1.8-0.1-3.6-0.4-5.5l-0.2-1.4
					c-3.1-15.7-16.5-27.3-31.9-27.6c-0.2,0-0.5,0-0.7,0c-2.9,0-5.9,0.4-8.8,1.2l-1.4,0.5c-13.4,4.6-22.4,17.5-22.4,32.1
					c0,19,14.9,34.5,33.2,34.5c10.5,0,20.3-5.3,26.5-14.1l0.2,0c0.7,0.2,1.3,0.3,1.9,0.3c4.3,0,7.8-3.7,7.8-8.2
					C87.3,58.3,85.7,55.5,83.2,54z M43.7,18.5c2.2-0.5,4.4-0.8,6.6-0.8c0.2,0,0.4,0,0.6,0C64.6,18,76.5,27.9,80,41.8l-0.2,0.2
					c-3.4-0.7-6.7-1.7-9.8-3l-0.1-0.2c0.2-0.7,0.3-1.5,0.3-2.3c0-4.6-3.6-8.4-8-8.4l-0.1,0c-2.3,0-4.5,1-6,2.9l-0.2,0
					c-4.6-3.5-8.7-7.5-12.2-12.2L43.7,18.5z M67.7,36.4c0,1.5-0.6,2.9-1.6,4c-1,1.1-2.4,1.7-3.9,1.7c-3,0-5.5-2.6-5.5-5.8
					c0-3.1,2.4-5.6,5.4-5.6l0.1,0C65.2,30.7,67.7,33.3,67.7,36.4z M33.5,23.1c2.2-1.6,4.6-2.8,7.2-3.7l0,0l0,0l0.2,0.1
					c3.9,5.3,8.5,9.9,13.7,13.8l0,0.2c-0.3,0.9-0.5,1.8-0.5,2.8c0,4.6,3.6,8.4,8.1,8.4c2.5,0,4.8-1.2,6.4-3.4l0.2,0
					c3.8,1.5,7.7,2.7,11.7,3.5l0.1,0.1c0.2,1.6,0.3,3.2,0.3,4.7c0,1-0.1,2.1-0.2,3.4l-0.2,0.1C80.1,53,79.7,53,79.3,53
					c-2.4,0-4.7,1.2-6.2,3.2l-0.2,0c-5.4-2.1-11.1-3.5-17-4.1l-0.1-0.1c-4.7-11.5-12.5-21.4-22.4-28.8L33.5,23.1z M21.7,58.6
					c-1-3.1-1.4-6.3-1.4-9.6c0-9.3,4-18.1,10.8-24l0,0l0,0l0.2,0.1c0.1,0.1,0.2,0.2,0.3,0.2c9.3,6.7,16.7,15.9,21.3,26.6L52.8,52
					c-0.8,0-1.7-0.1-2.5-0.1c-2.4,0-4.8,0.1-7.3,0.4l-0.1-0.1c-1.4-2.8-4.2-4.6-7.3-4.6c-4.4,0-8,3.7-8,8.3l0,0.2l-0.1,0.1
					c-1.9,0.7-3.7,1.6-5.5,2.4L21.7,58.6z M41.2,56.1c0,1.5-0.6,3-1.6,4c-1,1.1-2.4,1.7-4,1.7c-3.1,0-5.6-2.6-5.6-5.8
					c0-3.2,2.5-5.7,5.5-5.7h0.1C38.7,50.3,41.2,52.9,41.2,56.1z M58.7,79.8c-2.6,0.7-5.2,1.1-7.8,1.1c-12.2,0-23.3-7.6-28.1-19.4
					l0.1-0.2c1.6-0.8,3.3-1.6,5-2.3l0,0l0,0l0.2,0.1c1.2,3.3,4.2,5.4,7.6,5.4c4.4,0,8-3.7,8-8.3c0-0.3,0-0.7,0-1.1l0.2-0.1
					c2.2-0.2,4.4-0.4,6.6-0.4c1.2,0,2.4,0,3.7,0.1l0.1,0.1c2.9,7.7,4.4,15.8,4.4,24L58.7,79.8L58.7,79.8z M61.3,78.9l-0.2-0.2
					c0-8-1.4-15.9-4-23.5l0.1-0.2l0.1,0c5,0.6,9.8,1.8,14.5,3.6l0.1,0.2c-0.2,0.8-0.4,1.6-0.4,2.5c0,2.7,1.3,5.3,3.5,6.9l0,0.2
					C71.5,73.1,66.8,76.8,61.3,78.9z M83.3,65.3c-1,1.1-2.4,1.7-3.8,1.7c-3,0-5.4-2.6-5.4-5.7c0-3.1,2.4-5.7,5.4-5.7h0
					c3,0,5.4,2.6,5.4,5.7C84.8,62.8,84.3,64.2,83.3,65.3z"/>
			</g>
		</g>
	</g>
</g>
<g id="ICONS_-_WHITE" display="none">
	<g display="inline">
		<g>
			<g>
				<path fill="#FFFFFF" d="M83.2,54l-0.1-0.2c0.2-1.5,0.3-2.9,0.3-4.2c0-1.8-0.1-3.6-0.4-5.5l-0.2-1.4
					c-3.1-15.7-16.5-27.3-31.9-27.6c-0.2,0-0.5,0-0.7,0c-2.9,0-5.9,0.4-8.8,1.2l-1.4,0.5c-13.4,4.6-22.4,17.5-22.4,32.1
					c0,19,14.9,34.5,33.2,34.5c10.5,0,20.3-5.3,26.5-14.1l0.2,0c0.7,0.2,1.3,0.3,1.9,0.3c4.3,0,7.8-3.7,7.8-8.2
					C87.3,58.3,85.7,55.5,83.2,54z M43.7,18.5c2.2-0.5,4.4-0.8,6.6-0.8c0.2,0,0.4,0,0.6,0C64.6,18,76.5,27.9,80,41.8l-0.2,0.2
					c-3.4-0.7-6.7-1.7-9.8-3l-0.1-0.2c0.2-0.7,0.3-1.5,0.3-2.3c0-4.6-3.6-8.4-8-8.4l-0.1,0c-2.3,0-4.5,1-6,2.9l-0.2,0
					c-4.6-3.5-8.7-7.5-12.2-12.2L43.7,18.5z M67.7,36.4c0,1.5-0.6,2.9-1.6,4c-1,1.1-2.4,1.7-3.9,1.7c-3,0-5.5-2.6-5.5-5.8
					c0-3.1,2.4-5.6,5.4-5.6l0.1,0C65.2,30.7,67.7,33.3,67.7,36.4z M33.5,23.1c2.2-1.6,4.6-2.8,7.2-3.7l0,0l0,0l0.2,0.1
					c3.9,5.3,8.5,9.9,13.7,13.8l0,0.2c-0.3,0.9-0.5,1.8-0.5,2.8c0,4.6,3.6,8.4,8.1,8.4c2.5,0,4.8-1.2,6.4-3.4l0.2,0
					c3.8,1.5,7.7,2.7,11.7,3.5l0.1,0.1c0.2,1.6,0.3,3.2,0.3,4.7c0,1-0.1,2.1-0.2,3.4l-0.2,0.1C80.1,53,79.7,53,79.3,53
					c-2.4,0-4.7,1.2-6.2,3.2l-0.2,0c-5.4-2.1-11.1-3.5-17-4.1l-0.1-0.1c-4.7-11.5-12.5-21.4-22.4-28.8L33.5,23.1z M21.7,58.6
					c-1-3.1-1.4-6.3-1.4-9.6c0-9.3,4-18.1,10.8-24l0,0l0,0l0.2,0.1c0.1,0.1,0.2,0.2,0.3,0.2c9.3,6.7,16.7,15.9,21.3,26.6L52.8,52
					c-0.8,0-1.7-0.1-2.5-0.1c-2.4,0-4.8,0.1-7.3,0.4l-0.1-0.1c-1.4-2.8-4.2-4.6-7.3-4.6c-4.4,0-8,3.7-8,8.3l0,0.2l-0.1,0.1
					c-1.9,0.7-3.7,1.6-5.5,2.4L21.7,58.6z M41.2,56.1c0,1.5-0.6,3-1.6,4c-1,1.1-2.4,1.7-4,1.7c-3.1,0-5.6-2.6-5.6-5.8
					c0-3.2,2.5-5.7,5.5-5.7h0.1C38.7,50.3,41.2,52.9,41.2,56.1z M58.7,79.8c-2.6,0.7-5.2,1.1-7.8,1.1c-12.2,0-23.3-7.6-28.1-19.4
					l0.1-0.2c1.6-0.8,3.3-1.6,5-2.3l0,0l0,0l0.2,0.1c1.2,3.3,4.2,5.4,7.6,5.4c4.4,0,8-3.7,8-8.3c0-0.3,0-0.7,0-1.1l0.2-0.1
					c2.2-0.2,4.4-0.4,6.6-0.4c1.2,0,2.4,0,3.7,0.1l0.1,0.1c2.9,7.7,4.4,15.8,4.4,24L58.7,79.8L58.7,79.8z M61.3,78.9l-0.2-0.2
					c0-8-1.4-15.9-4-23.5l0.1-0.2l0.1,0c5,0.6,9.8,1.8,14.5,3.6l0.1,0.2c-0.2,0.8-0.4,1.6-0.4,2.5c0,2.7,1.3,5.3,3.5,6.9l0,0.2
					C71.5,73.1,66.8,76.8,61.3,78.9z M83.3,65.3c-1,1.1-2.4,1.7-3.8,1.7c-3,0-5.4-2.6-5.4-5.7c0-3.1,2.4-5.7,5.4-5.7h0
					c3,0,5.4,2.6,5.4,5.7C84.8,62.8,84.3,64.2,83.3,65.3z"/>
			</g>
		</g>
	</g>
</g>
<g id="LABELS">
</g>
</svg>
