<?xml version="1.0" encoding="utf-8"?>
<!-- Generator: Adobe Illustrator 18.1.1, SVG Export Plug-In . SVG Version: 6.00 Build 0)  -->
<svg version="1.1" xmlns="http://www.w3.org/2000/svg" xmlns:xlink="http://www.w3.org/1999/xlink" x="0px" y="0px"
	 viewBox="0 0 100 100" enable-background="new 0 0 100 100" xml:space="preserve">
<g id="GUIDES">
</g>
<g id="ICONS_-_BLACK" display="none">
	<g display="inline">
		<g>
			<g>
				<path d="M88.4,69.3c0,1.6,0,3.2,0,4.8c-0.1-0.1-0.1-0.2-0.2-0.2c-0.8-1.5-1.6-2.9-2.5-4.4c-0.1-0.1-0.2-0.2-0.3-0.2
					c-0.5,0-1.1,0-1.6,0c-0.1,0-0.2,0-0.2,0c0,2.3,0,4.7,0,7c0.5,0,1,0,1.6,0c0-1.6,0-3.2,0-4.8c0.1,0.1,0.1,0.1,0.2,0.2
					c0.8,1.5,1.7,3,2.5,4.4c0,0.1,0.1,0.2,0.2,0.2c0.6,0,1.3,0,1.9,0c0-2.3,0-4.7,0-7C89.5,69.3,89,69.3,88.4,69.3z"/>
				<path d="M18.4,70.2c-1.6-0.4-3.3-0.8-4.9-1.2c-0.4-0.1-0.8-0.2-1.2-0.2c-0.1,0-0.2,0-0.3,0c-0.1,0.1-0.1,0.1,0,0.2
					c0.3,0.6,0.3,1.2,0.2,1.8c-0.2,0.9-0.7,1.6-1.3,2.3c-0.3,0.3-0.5,0.6-0.8,0.9c0,0,0,0,0,0C12.8,72.8,15.6,71.5,18.4,70.2
					C18.4,70.2,18.4,70.2,18.4,70.2z"/>
				<path d="M48,69.5c-1.2-0.5-2.4-0.5-3.5,0c-0.8,0.3-1.3,1-1.3,1.9c0,0.5,0,1,0,1.5c0,0,0,0,0,0c0,0.4,0,0.9,0,1.3
					c0,1.1,0.5,1.8,1.5,2.1c1,0.3,2,0.3,3,0c1-0.3,1.5-1,1.5-2c0-1,0-1.9,0-2.9C49.2,70.5,48.8,69.9,48,69.5z M46.8,75
					c-0.4,0.1-0.9,0.1-1.3,0c-0.4-0.1-0.7-0.4-0.7-0.9c0-0.4,0-0.8,0-1.3c0-0.4,0-0.8,0-1.2c0-0.5,0.2-0.8,0.7-0.9
					c0.4-0.1,0.9-0.1,1.3,0c0.5,0.1,0.7,0.4,0.7,0.9c0,0.8,0,1.6,0,2.4C47.5,74.6,47.3,74.8,46.8,75z"/>
				<path d="M80.5,69.5c-1.2-0.5-2.3-0.5-3.5,0c-0.8,0.3-1.3,1-1.3,1.9c0,0.5,0,1,0,1.5c0,0,0,0,0,0c0,0.4,0,0.9,0,1.3
					c0,1.1,0.5,1.8,1.6,2.1c0.9,0.3,1.8,0.3,2.8,0c1.2-0.3,1.7-1,1.7-2.2c0-0.9,0-1.8,0-2.7C81.7,70.5,81.3,69.8,80.5,69.5z
					 M79.4,74.9c-0.5,0.1-1,0.1-1.4,0c-0.4-0.1-0.6-0.4-0.6-0.8c0-0.4,0-0.8,0-1.3c0-0.4,0-0.8,0-1.2c0-0.5,0.2-0.8,0.7-0.9
					c0.5-0.1,0.9-0.1,1.4,0c0.4,0.1,0.6,0.4,0.6,0.8c0,0.8,0,1.7,0,2.5C80,74.5,79.8,74.8,79.4,74.9z"/>
				<path d="M61.5,69.6c0,1.5,0,3,0,4.4c0,0.5-0.2,0.8-0.7,0.9c-0.4,0.1-0.8,0.1-1.2,0c-0.5-0.1-0.7-0.4-0.7-0.9c0-1.5,0-3,0-4.5
					c0-0.1,0-0.2,0-0.3c-0.6,0-1.1,0-1.7,0c0,0,0,0.1,0,0.1c0,1.6,0,3.3,0,4.9c0,0.8,0.4,1.4,1.1,1.7c1.1,0.5,2.2,0.5,3.2,0.2
					c1.1-0.3,1.6-1,1.6-2.1c0-1.5,0-3.1,0-4.6c0-0.1,0-0.2,0-0.3c-0.6,0-1.1,0-1.7,0C61.5,69.4,61.5,69.5,61.5,69.6z"/>
				<path d="M26.3,69.5c-0.3-0.1-0.6-0.2-0.9-0.2c-1.2,0-2.4,0-3.6,0c0,0-0.1,0-0.1,0c0,2.3,0,4.7,0,7c0.6,0,1.1,0,1.7,0
					c0-0.7,0-1.3,0-2c0.2,0,0.4,0,0.6,0c0.6,0,1.2,0,1.8-0.1c1-0.1,1.5-0.7,1.6-1.6c0.1-0.6,0-1.2,0-1.8
					C27.2,70.3,26.9,69.8,26.3,69.5z M25.6,72.4c0,0.4-0.2,0.5-0.6,0.6c-0.1,0-0.2,0-0.3,0c-0.5,0-1,0-1.5,0c0-0.8,0-1.5,0-2.3
					c0.2,0,0.3,0,0.5,0c0.4,0,0.9,0,1.3,0c0.4,0,0.5,0.2,0.6,0.6C25.6,71.6,25.6,72,25.6,72.4z"/>
				<path d="M32.7,69.5c0-0.1-0.1-0.2-0.2-0.2c-0.6,0-1.1,0-1.7,0c-0.2,0-0.2,0.1-0.3,0.2c-0.6,1.8-1.2,3.6-1.9,5.3
					c-0.2,0.5-0.3,0.9-0.5,1.5c0.6,0,1.1,0,1.6,0c0.1,0,0.1-0.1,0.1-0.1c0.1-0.3,0.2-0.6,0.3-0.9c0-0.1,0.1-0.2,0.3-0.2
					c0.8,0,1.6,0,2.4,0c0.1,0,0.2,0,0.3,0.2c0.1,0.3,0.2,0.6,0.3,0.9c0,0.1,0.1,0.1,0.1,0.1c0.5,0,1,0,1.6,0c0-0.1,0-0.1,0-0.1
					C34.2,74,33.5,71.7,32.7,69.5z M30.5,73.8c0.3-1,0.7-2.1,1-3.1c0,0,0,0,0,0c0.3,1,0.7,2,1,3.1C31.9,73.8,31.2,73.8,30.5,73.8z"
					/>
				<path d="M40.4,69.5c-0.3,0.7-0.6,1.3-0.9,2c-0.2,0.4-0.4,0.8-0.6,1.2c-0.1-0.1-0.1-0.1-0.1-0.2c-0.4-0.9-0.9-1.8-1.3-2.7
					c-0.2-0.4-0.4-0.6-0.8-0.5c-0.4,0-0.7,0-1.1,0c0,0.1,0.1,0.2,0.1,0.2c0.6,1.2,1.1,2.4,1.8,3.5c0.5,0.9,0.7,1.7,0.6,2.7
					c0,0.2,0,0.4,0,0.6c0.6,0,1.1,0,1.7,0c0-0.6,0-1.2,0-1.8c0-0.1,0-0.3,0.1-0.4c0.8-1.5,1.5-3.1,2.3-4.6c0-0.1,0.1-0.1,0.1-0.2
					c-0.6,0-1.1,0-1.6,0C40.5,69.3,40.5,69.4,40.4,69.5z"/>
				<path d="M64.6,70.8c0.7,0,1.4,0,2.1,0c0,1.9,0,3.7,0,5.6c0.6,0,1.1,0,1.7,0c0-1.9,0-3.7,0-5.6c0.7,0,1.4,0,2.1,0
					c0-0.5,0-0.9,0-1.4c-2,0-4,0-5.9,0C64.6,69.8,64.6,70.3,64.6,70.8z"/>
				<path d="M10.6,75.5c1,0.3,2.1,0.6,3.1,0.8c1,0.2,2,0.4,3,0.6c0.1,0,0.2,0,0.4,0c0-0.1,0-0.1,0-0.1c-0.3-0.6-0.4-1.2-0.2-1.9
					c0.2-0.8,0.6-1.5,1.1-2.1c0.3-0.4,0.7-0.8,1-1.2c-2.8,1.3-5.7,2.6-8.5,3.9C10.6,75.4,10.6,75.5,10.6,75.5z"/>
				<path d="M52.8,69.3c-0.6,0-1.1,0-1.7,0c0,2.3,0,4.7,0,7c1.6,0,3.2,0,4.7,0c0-0.5,0-0.9,0-1.4c-1,0-2,0-3.1,0
					C52.8,73,52.8,71.2,52.8,69.3z"/>
				<path d="M72.1,76.3c0.6,0,1.1,0,1.6,0c0-2.3,0-4.7,0-7c-0.5,0-1.1,0-1.6,0C72.1,71.7,72.1,74,72.1,76.3z"/>
				<g>
					<rect x="58.3" y="25.9" width="3.9" height="10.9"/>
					<polygon points="73.4,21.9 69.5,22.6 69.5,36.8 73.4,36.8 					"/>
					<polygon points="67.7,21.9 63.8,22.6 63.8,36.8 67.7,36.8 					"/>
					<circle cx="60.2" cy="22.9" r="1.9"/>
					<path d="M56.1,25.7c-3.6,0.1-5.4,1.7-5.4,4.9v6.2h3.9v-5c0-1.9,0.3-2.8,2.5-2.8v-3.2C56.7,25.7,56.1,25.7,56.1,25.7z"/>
					<path d="M32.2,31.2c0.4,0,1.6,0.1,1.6,1.2c0,0.9-0.9,1.4-2.5,1.4c-1.7,0-3.4-0.4-4.4-0.8v3.5c1.5,0.4,3.2,0.6,5.2,0.6
						c4.3,0,6.2-2.4,6.2-4.8c0-2.7-2.2-4.5-5.8-4.7c-0.5,0-1.6-0.1-1.6-1.1c0-1.2,1.6-1.2,2.3-1.2c1.1,0,2.5,0.3,3.5,0.6
						c0,0,0.6,0.2,1,0.4l0,0v0v-3.3l-0.1,0c-1.2-0.4-2.6-0.8-5.1-0.8c-4.4,0-6,2.6-6,4.8C26.6,27.9,27.1,30.9,32.2,31.2z"/>
					<path d="M43.3,32.5c1.2,1.7,1.7,4.4,1.7,4.4h4.8c-0.5-2-2.6-5.6-2.6-5.6c1.9-2.4,2.7-4.9,2.8-5.3h-4.6c-0.1,0.2-0.7,2-2.2,3.8
						v-7.8l-4,0.8v14.2h4V32.5z"/>
				</g>
				<path d="M50.1,53.8l3.7,0c0.4,0,0.7-0.3,0.7-0.7c0-0.4-0.3-0.7-0.7-0.7l-0.3,0v0l-3.4,0l0-3.7c0-0.4-0.3-0.7-0.7-0.7
					c-0.4,0-0.7,0.3-0.7,0.7l0,0.3h0l0,3.4l-3.7,0c-0.4,0-0.7,0.3-0.7,0.7c0,0.4,0.3,0.7,0.7,0.7l0.3,0v0l3.4,0l0,3.7
					c0,0.4,0.3,0.7,0.7,0.7c0.4,0,0.7-0.3,0.7-0.7l0-0.3h0L50.1,53.8z"/>
			</g>
		</g>
	</g>
</g>
<g id="ICONS_-_DARK_PURPLE" display="none">
	<g display="inline">
		<g>
			<g>
				<path fill="#4F2556" d="M88.4,69.3c0,1.6,0,3.2,0,4.8c-0.1-0.1-0.1-0.2-0.2-0.2c-0.8-1.5-1.6-2.9-2.5-4.4
					c-0.1-0.1-0.2-0.2-0.3-0.2c-0.5,0-1.1,0-1.6,0c-0.1,0-0.2,0-0.2,0c0,2.3,0,4.7,0,7c0.5,0,1,0,1.6,0c0-1.6,0-3.2,0-4.8
					c0.1,0.1,0.1,0.1,0.2,0.2c0.8,1.5,1.7,3,2.5,4.4c0,0.1,0.1,0.2,0.2,0.2c0.6,0,1.3,0,1.9,0c0-2.3,0-4.7,0-7
					C89.5,69.3,89,69.3,88.4,69.3z"/>
				<path fill="#4F2556" d="M18.4,70.2c-1.6-0.4-3.3-0.8-4.9-1.2c-0.4-0.1-0.8-0.2-1.2-0.2c-0.1,0-0.2,0-0.3,0
					c-0.1,0.1-0.1,0.1,0,0.2c0.3,0.6,0.3,1.2,0.2,1.8c-0.2,0.9-0.7,1.6-1.3,2.3c-0.3,0.3-0.5,0.6-0.8,0.9c0,0,0,0,0,0
					C12.8,72.8,15.6,71.5,18.4,70.2C18.4,70.2,18.4,70.2,18.4,70.2z"/>
				<path fill="#4F2556" d="M48,69.5c-1.2-0.5-2.4-0.5-3.5,0c-0.8,0.3-1.3,1-1.3,1.9c0,0.5,0,1,0,1.5c0,0,0,0,0,0c0,0.4,0,0.9,0,1.3
					c0,1.1,0.5,1.8,1.5,2.1c1,0.3,2,0.3,3,0c1-0.3,1.5-1,1.5-2c0-1,0-1.9,0-2.9C49.2,70.5,48.8,69.9,48,69.5z M46.8,75
					c-0.4,0.1-0.9,0.1-1.3,0c-0.4-0.1-0.7-0.4-0.7-0.9c0-0.4,0-0.8,0-1.3c0-0.4,0-0.8,0-1.2c0-0.5,0.2-0.8,0.7-0.9
					c0.4-0.1,0.9-0.1,1.3,0c0.5,0.1,0.7,0.4,0.7,0.9c0,0.8,0,1.6,0,2.4C47.5,74.6,47.3,74.8,46.8,75z"/>
				<path fill="#4F2556" d="M80.5,69.5c-1.2-0.5-2.3-0.5-3.5,0c-0.8,0.3-1.3,1-1.3,1.9c0,0.5,0,1,0,1.5c0,0,0,0,0,0
					c0,0.4,0,0.9,0,1.3c0,1.1,0.5,1.8,1.6,2.1c0.9,0.3,1.8,0.3,2.8,0c1.2-0.3,1.7-1,1.7-2.2c0-0.9,0-1.8,0-2.7
					C81.7,70.5,81.3,69.8,80.5,69.5z M79.4,74.9c-0.5,0.1-1,0.1-1.4,0c-0.4-0.1-0.6-0.4-0.6-0.8c0-0.4,0-0.8,0-1.3
					c0-0.4,0-0.8,0-1.2c0-0.5,0.2-0.8,0.7-0.9c0.5-0.1,0.9-0.1,1.4,0c0.4,0.1,0.6,0.4,0.6,0.8c0,0.8,0,1.7,0,2.5
					C80,74.5,79.8,74.8,79.4,74.9z"/>
				<path fill="#4F2556" d="M61.5,69.6c0,1.5,0,3,0,4.4c0,0.5-0.2,0.8-0.7,0.9c-0.4,0.1-0.8,0.1-1.2,0c-0.5-0.1-0.7-0.4-0.7-0.9
					c0-1.5,0-3,0-4.5c0-0.1,0-0.2,0-0.3c-0.6,0-1.1,0-1.7,0c0,0,0,0.1,0,0.1c0,1.6,0,3.3,0,4.9c0,0.8,0.4,1.4,1.1,1.7
					c1.1,0.5,2.2,0.5,3.2,0.2c1.1-0.3,1.6-1,1.6-2.1c0-1.5,0-3.1,0-4.6c0-0.1,0-0.2,0-0.3c-0.6,0-1.1,0-1.7,0
					C61.5,69.4,61.5,69.5,61.5,69.6z"/>
				<path fill="#4F2556" d="M26.3,69.5c-0.3-0.1-0.6-0.2-0.9-0.2c-1.2,0-2.4,0-3.6,0c0,0-0.1,0-0.1,0c0,2.3,0,4.7,0,7
					c0.6,0,1.1,0,1.7,0c0-0.7,0-1.3,0-2c0.2,0,0.4,0,0.6,0c0.6,0,1.2,0,1.8-0.1c1-0.1,1.5-0.7,1.6-1.6c0.1-0.6,0-1.2,0-1.8
					C27.2,70.3,26.9,69.8,26.3,69.5z M25.6,72.4c0,0.4-0.2,0.5-0.6,0.6c-0.1,0-0.2,0-0.3,0c-0.5,0-1,0-1.5,0c0-0.8,0-1.5,0-2.3
					c0.2,0,0.3,0,0.5,0c0.4,0,0.9,0,1.3,0c0.4,0,0.5,0.2,0.6,0.6C25.6,71.6,25.6,72,25.6,72.4z"/>
				<path fill="#4F2556" d="M32.7,69.5c0-0.1-0.1-0.2-0.2-0.2c-0.6,0-1.1,0-1.7,0c-0.2,0-0.2,0.1-0.3,0.2c-0.6,1.8-1.2,3.6-1.9,5.3
					c-0.2,0.5-0.3,0.9-0.5,1.5c0.6,0,1.1,0,1.6,0c0.1,0,0.1-0.1,0.1-0.1c0.1-0.3,0.2-0.6,0.3-0.9c0-0.1,0.1-0.2,0.3-0.2
					c0.8,0,1.6,0,2.4,0c0.1,0,0.2,0,0.3,0.2c0.1,0.3,0.2,0.6,0.3,0.9c0,0.1,0.1,0.1,0.1,0.1c0.5,0,1,0,1.6,0c0-0.1,0-0.1,0-0.1
					C34.2,74,33.5,71.7,32.7,69.5z M30.5,73.8c0.3-1,0.7-2.1,1-3.1c0,0,0,0,0,0c0.3,1,0.7,2,1,3.1C31.9,73.8,31.2,73.8,30.5,73.8z"
					/>
				<path fill="#4F2556" d="M40.4,69.5c-0.3,0.7-0.6,1.3-0.9,2c-0.2,0.4-0.4,0.8-0.6,1.2c-0.1-0.1-0.1-0.1-0.1-0.2
					c-0.4-0.9-0.9-1.8-1.3-2.7c-0.2-0.4-0.4-0.6-0.8-0.5c-0.4,0-0.7,0-1.1,0c0,0.1,0.1,0.2,0.1,0.2c0.6,1.2,1.1,2.4,1.8,3.5
					c0.5,0.9,0.7,1.7,0.6,2.7c0,0.2,0,0.4,0,0.6c0.6,0,1.1,0,1.7,0c0-0.6,0-1.2,0-1.8c0-0.1,0-0.3,0.1-0.4c0.8-1.5,1.5-3.1,2.3-4.6
					c0-0.1,0.1-0.1,0.1-0.2c-0.6,0-1.1,0-1.6,0C40.5,69.3,40.5,69.4,40.4,69.5z"/>
				<path fill="#4F2556" d="M64.6,70.8c0.7,0,1.4,0,2.1,0c0,1.9,0,3.7,0,5.6c0.6,0,1.1,0,1.7,0c0-1.9,0-3.7,0-5.6c0.7,0,1.4,0,2.1,0
					c0-0.5,0-0.9,0-1.4c-2,0-4,0-5.9,0C64.6,69.8,64.6,70.3,64.6,70.8z"/>
				<path fill="#4F2556" d="M10.6,75.5c1,0.3,2.1,0.6,3.1,0.8c1,0.2,2,0.4,3,0.6c0.1,0,0.2,0,0.4,0c0-0.1,0-0.1,0-0.1
					c-0.3-0.6-0.4-1.2-0.2-1.9c0.2-0.8,0.6-1.5,1.1-2.1c0.3-0.4,0.7-0.8,1-1.2c-2.8,1.3-5.7,2.6-8.5,3.9
					C10.6,75.4,10.6,75.5,10.6,75.5z"/>
				<path fill="#4F2556" d="M52.8,69.3c-0.6,0-1.1,0-1.7,0c0,2.3,0,4.7,0,7c1.6,0,3.2,0,4.7,0c0-0.5,0-0.9,0-1.4c-1,0-2,0-3.1,0
					C52.8,73,52.8,71.2,52.8,69.3z"/>
				<path fill="#4F2556" d="M72.1,76.3c0.6,0,1.1,0,1.6,0c0-2.3,0-4.7,0-7c-0.5,0-1.1,0-1.6,0C72.1,71.7,72.1,74,72.1,76.3z"/>
				<g>
					<rect x="58.3" y="25.9" fill="#4F2556" width="3.9" height="10.9"/>
					<polygon fill="#4F2556" points="73.4,21.9 69.5,22.6 69.5,36.8 73.4,36.8 					"/>
					<polygon fill="#4F2556" points="67.7,21.9 63.8,22.6 63.8,36.8 67.7,36.8 					"/>
					<circle fill="#4F2556" cx="60.2" cy="22.9" r="1.9"/>
					<path fill="#4F2556" d="M56.1,25.7c-3.6,0.1-5.4,1.7-5.4,4.9v6.2h3.9v-5c0-1.9,0.3-2.8,2.5-2.8v-3.2
						C56.7,25.7,56.1,25.7,56.1,25.7z"/>
					<path fill="#4F2556" d="M32.2,31.2c0.4,0,1.6,0.1,1.6,1.2c0,0.9-0.9,1.4-2.5,1.4c-1.7,0-3.4-0.4-4.4-0.8v3.5
						c1.5,0.4,3.2,0.6,5.2,0.6c4.3,0,6.2-2.4,6.2-4.8c0-2.7-2.2-4.5-5.8-4.7c-0.5,0-1.6-0.1-1.6-1.1c0-1.2,1.6-1.2,2.3-1.2
						c1.1,0,2.5,0.3,3.5,0.6c0,0,0.6,0.2,1,0.4l0,0v0v-3.3l-0.1,0c-1.2-0.4-2.6-0.8-5.1-0.8c-4.4,0-6,2.6-6,4.8
						C26.6,27.9,27.1,30.9,32.2,31.2z"/>
					<path fill="#4F2556" d="M43.3,32.5c1.2,1.7,1.7,4.4,1.7,4.4h4.8c-0.5-2-2.6-5.6-2.6-5.6c1.9-2.4,2.7-4.9,2.8-5.3h-4.6
						c-0.1,0.2-0.7,2-2.2,3.8v-7.8l-4,0.8v14.2h4V32.5z"/>
				</g>
				<path fill="#4F2556" d="M50.1,53.8l3.7,0c0.4,0,0.7-0.3,0.7-0.7c0-0.4-0.3-0.7-0.7-0.7l-0.3,0v0l-3.4,0l0-3.7
					c0-0.4-0.3-0.7-0.7-0.7c-0.4,0-0.7,0.3-0.7,0.7l0,0.3h0l0,3.4l-3.7,0c-0.4,0-0.7,0.3-0.7,0.7c0,0.4,0.3,0.7,0.7,0.7l0.3,0v0
					l3.4,0l0,3.7c0,0.4,0.3,0.7,0.7,0.7c0.4,0,0.7-0.3,0.7-0.7l0-0.3h0L50.1,53.8z"/>
			</g>
		</g>
	</g>
</g>
<g id="ICONS_-_WARM_GREY" display="none">
	<g display="inline">
		<g>
			<g>
				<path fill="#534C63" d="M88.4,69.3c0,1.6,0,3.2,0,4.8c-0.1-0.1-0.1-0.2-0.2-0.2c-0.8-1.5-1.6-2.9-2.5-4.4
					c-0.1-0.1-0.2-0.2-0.3-0.2c-0.5,0-1.1,0-1.6,0c-0.1,0-0.2,0-0.2,0c0,2.3,0,4.7,0,7c0.5,0,1,0,1.6,0c0-1.6,0-3.2,0-4.8
					c0.1,0.1,0.1,0.1,0.2,0.2c0.8,1.5,1.7,3,2.5,4.4c0,0.1,0.1,0.2,0.2,0.2c0.6,0,1.3,0,1.9,0c0-2.3,0-4.7,0-7
					C89.5,69.3,89,69.3,88.4,69.3z"/>
				<path fill="#534C63" d="M18.4,70.2c-1.6-0.4-3.3-0.8-4.9-1.2c-0.4-0.1-0.8-0.2-1.2-0.2c-0.1,0-0.2,0-0.3,0
					c-0.1,0.1-0.1,0.1,0,0.2c0.3,0.6,0.3,1.2,0.2,1.8c-0.2,0.9-0.7,1.6-1.3,2.3c-0.3,0.3-0.5,0.6-0.8,0.9c0,0,0,0,0,0
					C12.8,72.8,15.6,71.5,18.4,70.2C18.4,70.2,18.4,70.2,18.4,70.2z"/>
				<path fill="#534C63" d="M48,69.5c-1.2-0.5-2.4-0.5-3.5,0c-0.8,0.3-1.3,1-1.3,1.9c0,0.5,0,1,0,1.5c0,0,0,0,0,0c0,0.4,0,0.9,0,1.3
					c0,1.1,0.5,1.8,1.5,2.1c1,0.3,2,0.3,3,0c1-0.3,1.5-1,1.5-2c0-1,0-1.9,0-2.9C49.2,70.5,48.8,69.9,48,69.5z M46.8,75
					c-0.4,0.1-0.9,0.1-1.3,0c-0.4-0.1-0.7-0.4-0.7-0.9c0-0.4,0-0.8,0-1.3c0-0.4,0-0.8,0-1.2c0-0.5,0.2-0.8,0.7-0.9
					c0.4-0.1,0.9-0.1,1.3,0c0.5,0.1,0.7,0.4,0.7,0.9c0,0.8,0,1.6,0,2.4C47.5,74.6,47.3,74.8,46.8,75z"/>
				<path fill="#534C63" d="M80.5,69.5c-1.2-0.5-2.3-0.5-3.5,0c-0.8,0.3-1.3,1-1.3,1.9c0,0.5,0,1,0,1.5c0,0,0,0,0,0
					c0,0.4,0,0.9,0,1.3c0,1.1,0.5,1.8,1.6,2.1c0.9,0.3,1.8,0.3,2.8,0c1.2-0.3,1.7-1,1.7-2.2c0-0.9,0-1.8,0-2.7
					C81.7,70.5,81.3,69.8,80.5,69.5z M79.4,74.9c-0.5,0.1-1,0.1-1.4,0c-0.4-0.1-0.6-0.4-0.6-0.8c0-0.4,0-0.8,0-1.3
					c0-0.4,0-0.8,0-1.2c0-0.5,0.2-0.8,0.7-0.9c0.5-0.1,0.9-0.1,1.4,0c0.4,0.1,0.6,0.4,0.6,0.8c0,0.8,0,1.7,0,2.5
					C80,74.5,79.8,74.8,79.4,74.9z"/>
				<path fill="#534C63" d="M61.5,69.6c0,1.5,0,3,0,4.4c0,0.5-0.2,0.8-0.7,0.9c-0.4,0.1-0.8,0.1-1.2,0c-0.5-0.1-0.7-0.4-0.7-0.9
					c0-1.5,0-3,0-4.5c0-0.1,0-0.2,0-0.3c-0.6,0-1.1,0-1.7,0c0,0,0,0.1,0,0.1c0,1.6,0,3.3,0,4.9c0,0.8,0.4,1.4,1.1,1.7
					c1.1,0.5,2.2,0.5,3.2,0.2c1.1-0.3,1.6-1,1.6-2.1c0-1.5,0-3.1,0-4.6c0-0.1,0-0.2,0-0.3c-0.6,0-1.1,0-1.7,0
					C61.5,69.4,61.5,69.5,61.5,69.6z"/>
				<path fill="#534C63" d="M26.3,69.5c-0.3-0.1-0.6-0.2-0.9-0.2c-1.2,0-2.4,0-3.6,0c0,0-0.1,0-0.1,0c0,2.3,0,4.7,0,7
					c0.6,0,1.1,0,1.7,0c0-0.7,0-1.3,0-2c0.2,0,0.4,0,0.6,0c0.6,0,1.2,0,1.8-0.1c1-0.1,1.5-0.7,1.6-1.6c0.1-0.6,0-1.2,0-1.8
					C27.2,70.3,26.9,69.8,26.3,69.5z M25.6,72.4c0,0.4-0.2,0.5-0.6,0.6c-0.1,0-0.2,0-0.3,0c-0.5,0-1,0-1.5,0c0-0.8,0-1.5,0-2.3
					c0.2,0,0.3,0,0.5,0c0.4,0,0.9,0,1.3,0c0.4,0,0.5,0.2,0.6,0.6C25.6,71.6,25.6,72,25.6,72.4z"/>
				<path fill="#534C63" d="M32.7,69.5c0-0.1-0.1-0.2-0.2-0.2c-0.6,0-1.1,0-1.7,0c-0.2,0-0.2,0.1-0.3,0.2c-0.6,1.8-1.2,3.6-1.9,5.3
					c-0.2,0.5-0.3,0.9-0.5,1.5c0.6,0,1.1,0,1.6,0c0.1,0,0.1-0.1,0.1-0.1c0.1-0.3,0.2-0.6,0.3-0.9c0-0.1,0.1-0.2,0.3-0.2
					c0.8,0,1.6,0,2.4,0c0.1,0,0.2,0,0.3,0.2c0.1,0.3,0.2,0.6,0.3,0.9c0,0.1,0.1,0.1,0.1,0.1c0.5,0,1,0,1.6,0c0-0.1,0-0.1,0-0.1
					C34.2,74,33.5,71.7,32.7,69.5z M30.5,73.8c0.3-1,0.7-2.1,1-3.1c0,0,0,0,0,0c0.3,1,0.7,2,1,3.1C31.9,73.8,31.2,73.8,30.5,73.8z"
					/>
				<path fill="#534C63" d="M40.4,69.5c-0.3,0.7-0.6,1.3-0.9,2c-0.2,0.4-0.4,0.8-0.6,1.2c-0.1-0.1-0.1-0.1-0.1-0.2
					c-0.4-0.9-0.9-1.8-1.3-2.7c-0.2-0.4-0.4-0.6-0.8-0.5c-0.4,0-0.7,0-1.1,0c0,0.1,0.1,0.2,0.1,0.2c0.6,1.2,1.1,2.4,1.8,3.5
					c0.5,0.9,0.7,1.7,0.6,2.7c0,0.2,0,0.4,0,0.6c0.6,0,1.1,0,1.7,0c0-0.6,0-1.2,0-1.8c0-0.1,0-0.3,0.1-0.4c0.8-1.5,1.5-3.1,2.3-4.6
					c0-0.1,0.1-0.1,0.1-0.2c-0.6,0-1.1,0-1.6,0C40.5,69.3,40.5,69.4,40.4,69.5z"/>
				<path fill="#534C63" d="M64.6,70.8c0.7,0,1.4,0,2.1,0c0,1.9,0,3.7,0,5.6c0.6,0,1.1,0,1.7,0c0-1.9,0-3.7,0-5.6c0.7,0,1.4,0,2.1,0
					c0-0.5,0-0.9,0-1.4c-2,0-4,0-5.9,0C64.6,69.8,64.6,70.3,64.6,70.8z"/>
				<path fill="#534C63" d="M10.6,75.5c1,0.3,2.1,0.6,3.1,0.8c1,0.2,2,0.4,3,0.6c0.1,0,0.2,0,0.4,0c0-0.1,0-0.1,0-0.1
					c-0.3-0.6-0.4-1.2-0.2-1.9c0.2-0.8,0.6-1.5,1.1-2.1c0.3-0.4,0.7-0.8,1-1.2c-2.8,1.3-5.7,2.6-8.5,3.9
					C10.6,75.4,10.6,75.5,10.6,75.5z"/>
				<path fill="#534C63" d="M52.8,69.3c-0.6,0-1.1,0-1.7,0c0,2.3,0,4.7,0,7c1.6,0,3.2,0,4.7,0c0-0.5,0-0.9,0-1.4c-1,0-2,0-3.1,0
					C52.8,73,52.8,71.2,52.8,69.3z"/>
				<path fill="#534C63" d="M72.1,76.3c0.6,0,1.1,0,1.6,0c0-2.3,0-4.7,0-7c-0.5,0-1.1,0-1.6,0C72.1,71.7,72.1,74,72.1,76.3z"/>
				<g>
					<rect x="58.3" y="25.9" fill="#534C63" width="3.9" height="10.9"/>
					<polygon fill="#534C63" points="73.4,21.9 69.5,22.6 69.5,36.8 73.4,36.8 					"/>
					<polygon fill="#534C63" points="67.7,21.9 63.8,22.6 63.8,36.8 67.7,36.8 					"/>
					<circle fill="#534C63" cx="60.2" cy="22.9" r="1.9"/>
					<path fill="#534C63" d="M56.1,25.7c-3.6,0.1-5.4,1.7-5.4,4.9v6.2h3.9v-5c0-1.9,0.3-2.8,2.5-2.8v-3.2
						C56.7,25.7,56.1,25.7,56.1,25.7z"/>
					<path fill="#534C63" d="M32.2,31.2c0.4,0,1.6,0.1,1.6,1.2c0,0.9-0.9,1.4-2.5,1.4c-1.7,0-3.4-0.4-4.4-0.8v3.5
						c1.5,0.4,3.2,0.6,5.2,0.6c4.3,0,6.2-2.4,6.2-4.8c0-2.7-2.2-4.5-5.8-4.7c-0.5,0-1.6-0.1-1.6-1.1c0-1.2,1.6-1.2,2.3-1.2
						c1.1,0,2.5,0.3,3.5,0.6c0,0,0.6,0.2,1,0.4l0,0v0v-3.3l-0.1,0c-1.2-0.4-2.6-0.8-5.1-0.8c-4.4,0-6,2.6-6,4.8
						C26.6,27.9,27.1,30.9,32.2,31.2z"/>
					<path fill="#534C63" d="M43.3,32.5c1.2,1.7,1.7,4.4,1.7,4.4h4.8c-0.5-2-2.6-5.6-2.6-5.6c1.9-2.4,2.7-4.9,2.8-5.3h-4.6
						c-0.1,0.2-0.7,2-2.2,3.8v-7.8l-4,0.8v14.2h4V32.5z"/>
				</g>
				<path fill="#534C63" d="M50.1,53.8l3.7,0c0.4,0,0.7-0.3,0.7-0.7c0-0.4-0.3-0.7-0.7-0.7l-0.3,0v0l-3.4,0l0-3.7
					c0-0.4-0.3-0.7-0.7-0.7c-0.4,0-0.7,0.3-0.7,0.7l0,0.3h0l0,3.4l-3.7,0c-0.4,0-0.7,0.3-0.7,0.7c0,0.4,0.3,0.7,0.7,0.7l0.3,0v0
					l3.4,0l0,3.7c0,0.4,0.3,0.7,0.7,0.7c0.4,0,0.7-0.3,0.7-0.7l0-0.3h0L50.1,53.8z"/>
			</g>
		</g>
	</g>
</g>
<g id="ICONS_-_SKRILL_TEAL" display="none">
	<g display="inline">
		<g>
			<g>
				<path fill="#41AEB5" d="M88.4,69.3c0,1.6,0,3.2,0,4.8c-0.1-0.1-0.1-0.2-0.2-0.2c-0.8-1.5-1.6-2.9-2.5-4.4
					c-0.1-0.1-0.2-0.2-0.3-0.2c-0.5,0-1.1,0-1.6,0c-0.1,0-0.2,0-0.2,0c0,2.3,0,4.7,0,7c0.5,0,1,0,1.6,0c0-1.6,0-3.2,0-4.8
					c0.1,0.1,0.1,0.1,0.2,0.2c0.8,1.5,1.7,3,2.5,4.4c0,0.1,0.1,0.2,0.2,0.2c0.6,0,1.3,0,1.9,0c0-2.3,0-4.7,0-7
					C89.5,69.3,89,69.3,88.4,69.3z"/>
				<path fill="#41AEB5" d="M18.4,70.2c-1.6-0.4-3.3-0.8-4.9-1.2c-0.4-0.1-0.8-0.2-1.2-0.2c-0.1,0-0.2,0-0.3,0
					c-0.1,0.1-0.1,0.1,0,0.2c0.3,0.6,0.3,1.2,0.2,1.8c-0.2,0.9-0.7,1.6-1.3,2.3c-0.3,0.3-0.5,0.6-0.8,0.9c0,0,0,0,0,0
					C12.8,72.8,15.6,71.5,18.4,70.2C18.4,70.2,18.4,70.2,18.4,70.2z"/>
				<path fill="#41AEB5" d="M48,69.5c-1.2-0.5-2.4-0.5-3.5,0c-0.8,0.3-1.3,1-1.3,1.9c0,0.5,0,1,0,1.5c0,0,0,0,0,0c0,0.4,0,0.9,0,1.3
					c0,1.1,0.5,1.8,1.5,2.1c1,0.3,2,0.3,3,0c1-0.3,1.5-1,1.5-2c0-1,0-1.9,0-2.9C49.2,70.5,48.8,69.9,48,69.5z M46.8,75
					c-0.4,0.1-0.9,0.1-1.3,0c-0.4-0.1-0.7-0.4-0.7-0.9c0-0.4,0-0.8,0-1.3c0-0.4,0-0.8,0-1.2c0-0.5,0.2-0.8,0.7-0.9
					c0.4-0.1,0.9-0.1,1.3,0c0.5,0.1,0.7,0.4,0.7,0.9c0,0.8,0,1.6,0,2.4C47.5,74.6,47.3,74.8,46.8,75z"/>
				<path fill="#41AEB5" d="M80.5,69.5c-1.2-0.5-2.3-0.5-3.5,0c-0.8,0.3-1.3,1-1.3,1.9c0,0.5,0,1,0,1.5c0,0,0,0,0,0
					c0,0.4,0,0.9,0,1.3c0,1.1,0.5,1.8,1.6,2.1c0.9,0.3,1.8,0.3,2.8,0c1.2-0.3,1.7-1,1.7-2.2c0-0.9,0-1.8,0-2.7
					C81.7,70.5,81.3,69.8,80.5,69.5z M79.4,74.9c-0.5,0.1-1,0.1-1.4,0c-0.4-0.1-0.6-0.4-0.6-0.8c0-0.4,0-0.8,0-1.3
					c0-0.4,0-0.8,0-1.2c0-0.5,0.2-0.8,0.7-0.9c0.5-0.1,0.9-0.1,1.4,0c0.4,0.1,0.6,0.4,0.6,0.8c0,0.8,0,1.7,0,2.5
					C80,74.5,79.8,74.8,79.4,74.9z"/>
				<path fill="#41AEB5" d="M61.5,69.6c0,1.5,0,3,0,4.4c0,0.5-0.2,0.8-0.7,0.9c-0.4,0.1-0.8,0.1-1.2,0c-0.5-0.1-0.7-0.4-0.7-0.9
					c0-1.5,0-3,0-4.5c0-0.1,0-0.2,0-0.3c-0.6,0-1.1,0-1.7,0c0,0,0,0.1,0,0.1c0,1.6,0,3.3,0,4.9c0,0.8,0.4,1.4,1.1,1.7
					c1.1,0.5,2.2,0.5,3.2,0.2c1.1-0.3,1.6-1,1.6-2.1c0-1.5,0-3.1,0-4.6c0-0.1,0-0.2,0-0.3c-0.6,0-1.1,0-1.7,0
					C61.5,69.4,61.5,69.5,61.5,69.6z"/>
				<path fill="#41AEB5" d="M26.3,69.5c-0.3-0.1-0.6-0.2-0.9-0.2c-1.2,0-2.4,0-3.6,0c0,0-0.1,0-0.1,0c0,2.3,0,4.7,0,7
					c0.6,0,1.1,0,1.7,0c0-0.7,0-1.3,0-2c0.2,0,0.4,0,0.6,0c0.6,0,1.2,0,1.8-0.1c1-0.1,1.5-0.7,1.6-1.6c0.1-0.6,0-1.2,0-1.8
					C27.2,70.3,26.9,69.8,26.3,69.5z M25.6,72.4c0,0.4-0.2,0.5-0.6,0.6c-0.1,0-0.2,0-0.3,0c-0.5,0-1,0-1.5,0c0-0.8,0-1.5,0-2.3
					c0.2,0,0.3,0,0.5,0c0.4,0,0.9,0,1.3,0c0.4,0,0.5,0.2,0.6,0.6C25.6,71.6,25.6,72,25.6,72.4z"/>
				<path fill="#41AEB5" d="M32.7,69.5c0-0.1-0.1-0.2-0.2-0.2c-0.6,0-1.1,0-1.7,0c-0.2,0-0.2,0.1-0.3,0.2c-0.6,1.8-1.2,3.6-1.9,5.3
					c-0.2,0.5-0.3,0.9-0.5,1.5c0.6,0,1.1,0,1.6,0c0.1,0,0.1-0.1,0.1-0.1c0.1-0.3,0.2-0.6,0.3-0.9c0-0.1,0.1-0.2,0.3-0.2
					c0.8,0,1.6,0,2.4,0c0.1,0,0.2,0,0.3,0.2c0.1,0.3,0.2,0.6,0.3,0.9c0,0.1,0.1,0.1,0.1,0.1c0.5,0,1,0,1.6,0c0-0.1,0-0.1,0-0.1
					C34.2,74,33.5,71.7,32.7,69.5z M30.5,73.8c0.3-1,0.7-2.1,1-3.1c0,0,0,0,0,0c0.3,1,0.7,2,1,3.1C31.9,73.8,31.2,73.8,30.5,73.8z"
					/>
				<path fill="#41AEB5" d="M40.4,69.5c-0.3,0.7-0.6,1.3-0.9,2c-0.2,0.4-0.4,0.8-0.6,1.2c-0.1-0.1-0.1-0.1-0.1-0.2
					c-0.4-0.9-0.9-1.8-1.3-2.7c-0.2-0.4-0.4-0.6-0.8-0.5c-0.4,0-0.7,0-1.1,0c0,0.1,0.1,0.2,0.1,0.2c0.6,1.2,1.1,2.4,1.8,3.5
					c0.5,0.9,0.7,1.7,0.6,2.7c0,0.2,0,0.4,0,0.6c0.6,0,1.1,0,1.7,0c0-0.6,0-1.2,0-1.8c0-0.1,0-0.3,0.1-0.4c0.8-1.5,1.5-3.1,2.3-4.6
					c0-0.1,0.1-0.1,0.1-0.2c-0.6,0-1.1,0-1.6,0C40.5,69.3,40.5,69.4,40.4,69.5z"/>
				<path fill="#41AEB5" d="M64.6,70.8c0.7,0,1.4,0,2.1,0c0,1.9,0,3.7,0,5.6c0.6,0,1.1,0,1.7,0c0-1.9,0-3.7,0-5.6c0.7,0,1.4,0,2.1,0
					c0-0.5,0-0.9,0-1.4c-2,0-4,0-5.9,0C64.6,69.8,64.6,70.3,64.6,70.8z"/>
				<path fill="#41AEB5" d="M10.6,75.5c1,0.3,2.1,0.6,3.1,0.8c1,0.2,2,0.4,3,0.6c0.1,0,0.2,0,0.4,0c0-0.1,0-0.1,0-0.1
					c-0.3-0.6-0.4-1.2-0.2-1.9c0.2-0.8,0.6-1.5,1.1-2.1c0.3-0.4,0.7-0.8,1-1.2c-2.8,1.3-5.7,2.6-8.5,3.9
					C10.6,75.4,10.6,75.5,10.6,75.5z"/>
				<path fill="#41AEB5" d="M52.8,69.3c-0.6,0-1.1,0-1.7,0c0,2.3,0,4.7,0,7c1.6,0,3.2,0,4.7,0c0-0.5,0-0.9,0-1.4c-1,0-2,0-3.1,0
					C52.8,73,52.8,71.2,52.8,69.3z"/>
				<path fill="#41AEB5" d="M72.1,76.3c0.6,0,1.1,0,1.6,0c0-2.3,0-4.7,0-7c-0.5,0-1.1,0-1.6,0C72.1,71.7,72.1,74,72.1,76.3z"/>
				<g>
					<rect x="58.3" y="25.9" fill="#41AEB5" width="3.9" height="10.9"/>
					<polygon fill="#41AEB5" points="73.4,21.9 69.5,22.6 69.5,36.8 73.4,36.8 					"/>
					<polygon fill="#41AEB5" points="67.7,21.9 63.8,22.6 63.8,36.8 67.7,36.8 					"/>
					<circle fill="#41AEB5" cx="60.2" cy="22.9" r="1.9"/>
					<path fill="#41AEB5" d="M56.1,25.7c-3.6,0.1-5.4,1.7-5.4,4.9v6.2h3.9v-5c0-1.9,0.3-2.8,2.5-2.8v-3.2
						C56.7,25.7,56.1,25.7,56.1,25.7z"/>
					<path fill="#41AEB5" d="M32.2,31.2c0.4,0,1.6,0.1,1.6,1.2c0,0.9-0.9,1.4-2.5,1.4c-1.7,0-3.4-0.4-4.4-0.8v3.5
						c1.5,0.4,3.2,0.6,5.2,0.6c4.3,0,6.2-2.4,6.2-4.8c0-2.7-2.2-4.5-5.8-4.7c-0.5,0-1.6-0.1-1.6-1.1c0-1.2,1.6-1.2,2.3-1.2
						c1.1,0,2.5,0.3,3.5,0.6c0,0,0.6,0.2,1,0.4l0,0v0v-3.3l-0.1,0c-1.2-0.4-2.6-0.8-5.1-0.8c-4.4,0-6,2.6-6,4.8
						C26.6,27.9,27.1,30.9,32.2,31.2z"/>
					<path fill="#41AEB5" d="M43.3,32.5c1.2,1.7,1.7,4.4,1.7,4.4h4.8c-0.5-2-2.6-5.6-2.6-5.6c1.9-2.4,2.7-4.9,2.8-5.3h-4.6
						c-0.1,0.2-0.7,2-2.2,3.8v-7.8l-4,0.8v14.2h4V32.5z"/>
				</g>
				<path fill="#41AEB5" d="M50.1,53.8l3.7,0c0.4,0,0.7-0.3,0.7-0.7c0-0.4-0.3-0.7-0.7-0.7l-0.3,0v0l-3.4,0l0-3.7
					c0-0.4-0.3-0.7-0.7-0.7c-0.4,0-0.7,0.3-0.7,0.7l0,0.3h0l0,3.4l-3.7,0c-0.4,0-0.7,0.3-0.7,0.7c0,0.4,0.3,0.7,0.7,0.7l0.3,0v0
					l3.4,0l0,3.7c0,0.4,0.3,0.7,0.7,0.7c0.4,0,0.7-0.3,0.7-0.7l0-0.3h0L50.1,53.8z"/>
			</g>
		</g>
	</g>
</g>
<g id="ICONS_-_SKRILL_PURPLE">
	<g>
		<g>
			<g>
				<path fill="#811E68" d="M88.4,69.3c0,1.6,0,3.2,0,4.8c-0.1-0.1-0.1-0.2-0.2-0.2c-0.8-1.5-1.6-2.9-2.5-4.4
					c-0.1-0.1-0.2-0.2-0.3-0.2c-0.5,0-1.1,0-1.6,0c-0.1,0-0.2,0-0.2,0c0,2.3,0,4.7,0,7c0.5,0,1,0,1.6,0c0-1.6,0-3.2,0-4.8
					c0.1,0.1,0.1,0.1,0.2,0.2c0.8,1.5,1.7,3,2.5,4.4c0,0.1,0.1,0.2,0.2,0.2c0.6,0,1.3,0,1.9,0c0-2.3,0-4.7,0-7
					C89.5,69.3,89,69.3,88.4,69.3z"/>
				<path fill="#811E68" d="M18.4,70.2c-1.6-0.4-3.3-0.8-4.9-1.2c-0.4-0.1-0.8-0.2-1.2-0.2c-0.1,0-0.2,0-0.3,0
					c-0.1,0.1-0.1,0.1,0,0.2c0.3,0.6,0.3,1.2,0.2,1.8c-0.2,0.9-0.7,1.6-1.3,2.3c-0.3,0.3-0.5,0.6-0.8,0.9c0,0,0,0,0,0
					C12.8,72.8,15.6,71.5,18.4,70.2C18.4,70.2,18.4,70.2,18.4,70.2z"/>
				<path fill="#811E68" d="M48,69.5c-1.2-0.5-2.4-0.5-3.5,0c-0.8,0.3-1.3,1-1.3,1.9c0,0.5,0,1,0,1.5c0,0,0,0,0,0c0,0.4,0,0.9,0,1.3
					c0,1.1,0.5,1.8,1.5,2.1c1,0.3,2,0.3,3,0c1-0.3,1.5-1,1.5-2c0-1,0-1.9,0-2.9C49.2,70.5,48.8,69.9,48,69.5z M46.8,75
					c-0.4,0.1-0.9,0.1-1.3,0c-0.4-0.1-0.7-0.4-0.7-0.9c0-0.4,0-0.8,0-1.3c0-0.4,0-0.8,0-1.2c0-0.5,0.2-0.8,0.7-0.9
					c0.4-0.1,0.9-0.1,1.3,0c0.5,0.1,0.7,0.4,0.7,0.9c0,0.8,0,1.6,0,2.4C47.5,74.6,47.3,74.8,46.8,75z"/>
				<path fill="#811E68" d="M80.5,69.5c-1.2-0.5-2.3-0.5-3.5,0c-0.8,0.3-1.3,1-1.3,1.9c0,0.5,0,1,0,1.5c0,0,0,0,0,0
					c0,0.4,0,0.9,0,1.3c0,1.1,0.5,1.8,1.6,2.1c0.9,0.3,1.8,0.3,2.8,0c1.2-0.3,1.7-1,1.7-2.2c0-0.9,0-1.8,0-2.7
					C81.7,70.5,81.3,69.8,80.5,69.5z M79.4,74.9c-0.5,0.1-1,0.1-1.4,0c-0.4-0.1-0.6-0.4-0.6-0.8c0-0.4,0-0.8,0-1.3
					c0-0.4,0-0.8,0-1.2c0-0.5,0.2-0.8,0.7-0.9c0.5-0.1,0.9-0.1,1.4,0c0.4,0.1,0.6,0.4,0.6,0.8c0,0.8,0,1.7,0,2.5
					C80,74.5,79.8,74.8,79.4,74.9z"/>
				<path fill="#811E68" d="M61.5,69.6c0,1.5,0,3,0,4.4c0,0.5-0.2,0.8-0.7,0.9c-0.4,0.1-0.8,0.1-1.2,0c-0.5-0.1-0.7-0.4-0.7-0.9
					c0-1.5,0-3,0-4.5c0-0.1,0-0.2,0-0.3c-0.6,0-1.1,0-1.7,0c0,0,0,0.1,0,0.1c0,1.6,0,3.3,0,4.9c0,0.8,0.4,1.4,1.1,1.7
					c1.1,0.5,2.2,0.5,3.2,0.2c1.1-0.3,1.6-1,1.6-2.1c0-1.5,0-3.1,0-4.6c0-0.1,0-0.2,0-0.3c-0.6,0-1.1,0-1.7,0
					C61.5,69.4,61.5,69.5,61.5,69.6z"/>
				<path fill="#811E68" d="M26.3,69.5c-0.3-0.1-0.6-0.2-0.9-0.2c-1.2,0-2.4,0-3.6,0c0,0-0.1,0-0.1,0c0,2.3,0,4.7,0,7
					c0.6,0,1.1,0,1.7,0c0-0.7,0-1.3,0-2c0.2,0,0.4,0,0.6,0c0.6,0,1.2,0,1.8-0.1c1-0.1,1.5-0.7,1.6-1.6c0.1-0.6,0-1.2,0-1.8
					C27.2,70.3,26.9,69.8,26.3,69.5z M25.6,72.4c0,0.4-0.2,0.5-0.6,0.6c-0.1,0-0.2,0-0.3,0c-0.5,0-1,0-1.5,0c0-0.8,0-1.5,0-2.3
					c0.2,0,0.3,0,0.5,0c0.4,0,0.9,0,1.3,0c0.4,0,0.5,0.2,0.6,0.6C25.6,71.6,25.6,72,25.6,72.4z"/>
				<path fill="#811E68" d="M32.7,69.5c0-0.1-0.1-0.2-0.2-0.2c-0.6,0-1.1,0-1.7,0c-0.2,0-0.2,0.1-0.3,0.2c-0.6,1.8-1.2,3.6-1.9,5.3
					c-0.2,0.5-0.3,0.9-0.5,1.5c0.6,0,1.1,0,1.6,0c0.1,0,0.1-0.1,0.1-0.1c0.1-0.3,0.2-0.6,0.3-0.9c0-0.1,0.1-0.2,0.3-0.2
					c0.8,0,1.6,0,2.4,0c0.1,0,0.2,0,0.3,0.2c0.1,0.3,0.2,0.6,0.3,0.9c0,0.1,0.1,0.1,0.1,0.1c0.5,0,1,0,1.6,0c0-0.1,0-0.1,0-0.1
					C34.2,74,33.5,71.7,32.7,69.5z M30.5,73.8c0.3-1,0.7-2.1,1-3.1c0,0,0,0,0,0c0.3,1,0.7,2,1,3.1C31.9,73.8,31.2,73.8,30.5,73.8z"
					/>
				<path fill="#811E68" d="M40.4,69.5c-0.3,0.7-0.6,1.3-0.9,2c-0.2,0.4-0.4,0.8-0.6,1.2c-0.1-0.1-0.1-0.1-0.1-0.2
					c-0.4-0.9-0.9-1.8-1.3-2.7c-0.2-0.4-0.4-0.6-0.8-0.5c-0.4,0-0.7,0-1.1,0c0,0.1,0.1,0.2,0.1,0.2c0.6,1.2,1.1,2.4,1.8,3.5
					c0.5,0.9,0.7,1.7,0.6,2.7c0,0.2,0,0.4,0,0.6c0.6,0,1.1,0,1.7,0c0-0.6,0-1.2,0-1.8c0-0.1,0-0.3,0.1-0.4c0.8-1.5,1.5-3.1,2.3-4.6
					c0-0.1,0.1-0.1,0.1-0.2c-0.6,0-1.1,0-1.6,0C40.5,69.3,40.5,69.4,40.4,69.5z"/>
				<path fill="#811E68" d="M64.6,70.8c0.7,0,1.4,0,2.1,0c0,1.9,0,3.7,0,5.6c0.6,0,1.1,0,1.7,0c0-1.9,0-3.7,0-5.6c0.7,0,1.4,0,2.1,0
					c0-0.5,0-0.9,0-1.4c-2,0-4,0-5.9,0C64.6,69.8,64.6,70.3,64.6,70.8z"/>
				<path fill="#811E68" d="M10.6,75.5c1,0.3,2.1,0.6,3.1,0.8c1,0.2,2,0.4,3,0.6c0.1,0,0.2,0,0.4,0c0-0.1,0-0.1,0-0.1
					c-0.3-0.6-0.4-1.2-0.2-1.9c0.2-0.8,0.6-1.5,1.1-2.1c0.3-0.4,0.7-0.8,1-1.2c-2.8,1.3-5.7,2.6-8.5,3.9
					C10.6,75.4,10.6,75.5,10.6,75.5z"/>
				<path fill="#811E68" d="M52.8,69.3c-0.6,0-1.1,0-1.7,0c0,2.3,0,4.7,0,7c1.6,0,3.2,0,4.7,0c0-0.5,0-0.9,0-1.4c-1,0-2,0-3.1,0
					C52.8,73,52.8,71.2,52.8,69.3z"/>
				<path fill="#811E68" d="M72.1,76.3c0.6,0,1.1,0,1.6,0c0-2.3,0-4.7,0-7c-0.5,0-1.1,0-1.6,0C72.1,71.7,72.1,74,72.1,76.3z"/>
				<g>
					<rect x="58.3" y="25.9" fill="#811E68" width="3.9" height="10.9"/>
					<polygon fill="#811E68" points="73.4,21.9 69.5,22.6 69.5,36.8 73.4,36.8 					"/>
					<polygon fill="#811E68" points="67.7,21.9 63.8,22.6 63.8,36.8 67.7,36.8 					"/>
					<circle fill="#811E68" cx="60.2" cy="22.9" r="1.9"/>
					<path fill="#811E68" d="M56.1,25.7c-3.6,0.1-5.4,1.7-5.4,4.9v6.2h3.9v-5c0-1.9,0.3-2.8,2.5-2.8v-3.2
						C56.7,25.7,56.1,25.7,56.1,25.7z"/>
					<path fill="#811E68" d="M32.2,31.2c0.4,0,1.6,0.1,1.6,1.2c0,0.9-0.9,1.4-2.5,1.4c-1.7,0-3.4-0.4-4.4-0.8v3.5
						c1.5,0.4,3.2,0.6,5.2,0.6c4.3,0,6.2-2.4,6.2-4.8c0-2.7-2.2-4.5-5.8-4.7c-0.5,0-1.6-0.1-1.6-1.1c0-1.2,1.6-1.2,2.3-1.2
						c1.1,0,2.5,0.3,3.5,0.6c0,0,0.6,0.2,1,0.4l0,0v0v-3.3l-0.1,0c-1.2-0.4-2.6-0.8-5.1-0.8c-4.4,0-6,2.6-6,4.8
						C26.6,27.9,27.1,30.9,32.2,31.2z"/>
					<path fill="#811E68" d="M43.3,32.5c1.2,1.7,1.7,4.4,1.7,4.4h4.8c-0.5-2-2.6-5.6-2.6-5.6c1.9-2.4,2.7-4.9,2.8-5.3h-4.6
						c-0.1,0.2-0.7,2-2.2,3.8v-7.8l-4,0.8v14.2h4V32.5z"/>
				</g>
				<path fill="#811E68" d="M50.1,53.8l3.7,0c0.4,0,0.7-0.3,0.7-0.7c0-0.4-0.3-0.7-0.7-0.7l-0.3,0v0l-3.4,0l0-3.7
					c0-0.4-0.3-0.7-0.7-0.7c-0.4,0-0.7,0.3-0.7,0.7l0,0.3h0l0,3.4l-3.7,0c-0.4,0-0.7,0.3-0.7,0.7c0,0.4,0.3,0.7,0.7,0.7l0.3,0v0
					l3.4,0l0,3.7c0,0.4,0.3,0.7,0.7,0.7c0.4,0,0.7-0.3,0.7-0.7l0-0.3h0L50.1,53.8z"/>
			</g>
		</g>
	</g>
</g>
<g id="ICONS_-_WHITE" display="none">
	<g display="inline">
		<g>
			<g>
				<path fill="#FFFFFF" d="M88.4,69.3c0,1.6,0,3.2,0,4.8c-0.1-0.1-0.1-0.2-0.2-0.2c-0.8-1.5-1.6-2.9-2.5-4.4
					c-0.1-0.1-0.2-0.2-0.3-0.2c-0.5,0-1.1,0-1.6,0c-0.1,0-0.2,0-0.2,0c0,2.3,0,4.7,0,7c0.5,0,1,0,1.6,0c0-1.6,0-3.2,0-4.8
					c0.1,0.1,0.1,0.1,0.2,0.2c0.8,1.5,1.7,3,2.5,4.4c0,0.1,0.1,0.2,0.2,0.2c0.6,0,1.3,0,1.9,0c0-2.3,0-4.7,0-7
					C89.5,69.3,89,69.3,88.4,69.3z"/>
				<path fill="#FFFFFF" d="M18.4,70.2c-1.6-0.4-3.3-0.8-4.9-1.2c-0.4-0.1-0.8-0.2-1.2-0.2c-0.1,0-0.2,0-0.3,0
					c-0.1,0.1-0.1,0.1,0,0.2c0.3,0.6,0.3,1.2,0.2,1.8c-0.2,0.9-0.7,1.6-1.3,2.3c-0.3,0.3-0.5,0.6-0.8,0.9c0,0,0,0,0,0
					C12.8,72.8,15.6,71.5,18.4,70.2C18.4,70.2,18.4,70.2,18.4,70.2z"/>
				<path fill="#FFFFFF" d="M48,69.5c-1.2-0.5-2.4-0.5-3.5,0c-0.8,0.3-1.3,1-1.3,1.9c0,0.5,0,1,0,1.5c0,0,0,0,0,0c0,0.4,0,0.9,0,1.3
					c0,1.1,0.5,1.8,1.5,2.1c1,0.3,2,0.3,3,0c1-0.3,1.5-1,1.5-2c0-1,0-1.9,0-2.9C49.2,70.5,48.8,69.9,48,69.5z M46.8,75
					c-0.4,0.1-0.9,0.1-1.3,0c-0.4-0.1-0.7-0.4-0.7-0.9c0-0.4,0-0.8,0-1.3c0-0.4,0-0.8,0-1.2c0-0.5,0.2-0.8,0.7-0.9
					c0.4-0.1,0.9-0.1,1.3,0c0.5,0.1,0.7,0.4,0.7,0.9c0,0.8,0,1.6,0,2.4C47.5,74.6,47.3,74.8,46.8,75z"/>
				<path fill="#FFFFFF" d="M80.5,69.5c-1.2-0.5-2.3-0.5-3.5,0c-0.8,0.3-1.3,1-1.3,1.9c0,0.5,0,1,0,1.5c0,0,0,0,0,0
					c0,0.4,0,0.9,0,1.3c0,1.1,0.5,1.8,1.6,2.1c0.9,0.3,1.8,0.3,2.8,0c1.2-0.3,1.7-1,1.7-2.2c0-0.9,0-1.8,0-2.7
					C81.7,70.5,81.3,69.8,80.5,69.5z M79.4,74.9c-0.5,0.1-1,0.1-1.4,0c-0.4-0.1-0.6-0.4-0.6-0.8c0-0.4,0-0.8,0-1.3
					c0-0.4,0-0.8,0-1.2c0-0.5,0.2-0.8,0.7-0.9c0.5-0.1,0.9-0.1,1.4,0c0.4,0.1,0.6,0.4,0.6,0.8c0,0.8,0,1.7,0,2.5
					C80,74.5,79.8,74.8,79.4,74.9z"/>
				<path fill="#FFFFFF" d="M61.5,69.6c0,1.5,0,3,0,4.4c0,0.5-0.2,0.8-0.7,0.9c-0.4,0.1-0.8,0.1-1.2,0c-0.5-0.1-0.7-0.4-0.7-0.9
					c0-1.5,0-3,0-4.5c0-0.1,0-0.2,0-0.3c-0.6,0-1.1,0-1.7,0c0,0,0,0.1,0,0.1c0,1.6,0,3.3,0,4.9c0,0.8,0.4,1.4,1.1,1.7
					c1.1,0.5,2.2,0.5,3.2,0.2c1.1-0.3,1.6-1,1.6-2.1c0-1.5,0-3.1,0-4.6c0-0.1,0-0.2,0-0.3c-0.6,0-1.1,0-1.7,0
					C61.5,69.4,61.5,69.5,61.5,69.6z"/>
				<path fill="#FFFFFF" d="M26.3,69.5c-0.3-0.1-0.6-0.2-0.9-0.2c-1.2,0-2.4,0-3.6,0c0,0-0.1,0-0.1,0c0,2.3,0,4.7,0,7
					c0.6,0,1.1,0,1.7,0c0-0.7,0-1.3,0-2c0.2,0,0.4,0,0.6,0c0.6,0,1.2,0,1.8-0.1c1-0.1,1.5-0.7,1.6-1.6c0.1-0.6,0-1.2,0-1.8
					C27.2,70.3,26.9,69.8,26.3,69.5z M25.6,72.4c0,0.4-0.2,0.5-0.6,0.6c-0.1,0-0.2,0-0.3,0c-0.5,0-1,0-1.5,0c0-0.8,0-1.5,0-2.3
					c0.2,0,0.3,0,0.5,0c0.4,0,0.9,0,1.3,0c0.4,0,0.5,0.2,0.6,0.6C25.6,71.6,25.6,72,25.6,72.4z"/>
				<path fill="#FFFFFF" d="M32.7,69.5c0-0.1-0.1-0.2-0.2-0.2c-0.6,0-1.1,0-1.7,0c-0.2,0-0.2,0.1-0.3,0.2c-0.6,1.8-1.2,3.6-1.9,5.3
					c-0.2,0.5-0.3,0.9-0.5,1.5c0.6,0,1.1,0,1.6,0c0.1,0,0.1-0.1,0.1-0.1c0.1-0.3,0.2-0.6,0.3-0.9c0-0.1,0.1-0.2,0.3-0.2
					c0.8,0,1.6,0,2.4,0c0.1,0,0.2,0,0.3,0.2c0.1,0.3,0.2,0.6,0.3,0.9c0,0.1,0.1,0.1,0.1,0.1c0.5,0,1,0,1.6,0c0-0.1,0-0.1,0-0.1
					C34.2,74,33.5,71.7,32.7,69.5z M30.5,73.8c0.3-1,0.7-2.1,1-3.1c0,0,0,0,0,0c0.3,1,0.7,2,1,3.1C31.9,73.8,31.2,73.8,30.5,73.8z"
					/>
				<path fill="#FFFFFF" d="M40.4,69.5c-0.3,0.7-0.6,1.3-0.9,2c-0.2,0.4-0.4,0.8-0.6,1.2c-0.1-0.1-0.1-0.1-0.1-0.2
					c-0.4-0.9-0.9-1.8-1.3-2.7c-0.2-0.4-0.4-0.6-0.8-0.5c-0.4,0-0.7,0-1.1,0c0,0.1,0.1,0.2,0.1,0.2c0.6,1.2,1.1,2.4,1.8,3.5
					c0.5,0.9,0.7,1.7,0.6,2.7c0,0.2,0,0.4,0,0.6c0.6,0,1.1,0,1.7,0c0-0.6,0-1.2,0-1.8c0-0.1,0-0.3,0.1-0.4c0.8-1.5,1.5-3.1,2.3-4.6
					c0-0.1,0.1-0.1,0.1-0.2c-0.6,0-1.1,0-1.6,0C40.5,69.3,40.5,69.4,40.4,69.5z"/>
				<path fill="#FFFFFF" d="M64.6,70.8c0.7,0,1.4,0,2.1,0c0,1.9,0,3.7,0,5.6c0.6,0,1.1,0,1.7,0c0-1.9,0-3.7,0-5.6c0.7,0,1.4,0,2.1,0
					c0-0.5,0-0.9,0-1.4c-2,0-4,0-5.9,0C64.6,69.8,64.6,70.3,64.6,70.8z"/>
				<path fill="#FFFFFF" d="M10.6,75.5c1,0.3,2.1,0.6,3.1,0.8c1,0.2,2,0.4,3,0.6c0.1,0,0.2,0,0.4,0c0-0.1,0-0.1,0-0.1
					c-0.3-0.6-0.4-1.2-0.2-1.9c0.2-0.8,0.6-1.5,1.1-2.1c0.3-0.4,0.7-0.8,1-1.2c-2.8,1.3-5.7,2.6-8.5,3.9
					C10.6,75.4,10.6,75.5,10.6,75.5z"/>
				<path fill="#FFFFFF" d="M52.8,69.3c-0.6,0-1.1,0-1.7,0c0,2.3,0,4.7,0,7c1.6,0,3.2,0,4.7,0c0-0.5,0-0.9,0-1.4c-1,0-2,0-3.1,0
					C52.8,73,52.8,71.2,52.8,69.3z"/>
				<path fill="#FFFFFF" d="M72.1,76.3c0.6,0,1.1,0,1.6,0c0-2.3,0-4.7,0-7c-0.5,0-1.1,0-1.6,0C72.1,71.7,72.1,74,72.1,76.3z"/>
				<g>
					<rect x="58.3" y="25.9" fill="#FFFFFF" width="3.9" height="10.9"/>
					<polygon fill="#FFFFFF" points="73.4,21.9 69.5,22.6 69.5,36.8 73.4,36.8 					"/>
					<polygon fill="#FFFFFF" points="67.7,21.9 63.8,22.6 63.8,36.8 67.7,36.8 					"/>
					<circle fill="#FFFFFF" cx="60.2" cy="22.9" r="1.9"/>
					<path fill="#FFFFFF" d="M56.1,25.7c-3.6,0.1-5.4,1.7-5.4,4.9v6.2h3.9v-5c0-1.9,0.3-2.8,2.5-2.8v-3.2
						C56.7,25.7,56.1,25.7,56.1,25.7z"/>
					<path fill="#FFFFFF" d="M32.2,31.2c0.4,0,1.6,0.1,1.6,1.2c0,0.9-0.9,1.4-2.5,1.4c-1.7,0-3.4-0.4-4.4-0.8v3.5
						c1.5,0.4,3.2,0.6,5.2,0.6c4.3,0,6.2-2.4,6.2-4.8c0-2.7-2.2-4.5-5.8-4.7c-0.5,0-1.6-0.1-1.6-1.1c0-1.2,1.6-1.2,2.3-1.2
						c1.1,0,2.5,0.3,3.5,0.6c0,0,0.6,0.2,1,0.4l0,0v0v-3.3l-0.1,0c-1.2-0.4-2.6-0.8-5.1-0.8c-4.4,0-6,2.6-6,4.8
						C26.6,27.9,27.1,30.9,32.2,31.2z"/>
					<path fill="#FFFFFF" d="M43.3,32.5c1.2,1.7,1.7,4.4,1.7,4.4h4.8c-0.5-2-2.6-5.6-2.6-5.6c1.9-2.4,2.7-4.9,2.8-5.3h-4.6
						c-0.1,0.2-0.7,2-2.2,3.8v-7.8l-4,0.8v14.2h4V32.5z"/>
				</g>
				<path fill="#FFFFFF" d="M50.1,53.8l3.7,0c0.4,0,0.7-0.3,0.7-0.7c0-0.4-0.3-0.7-0.7-0.7l-0.3,0v0l-3.4,0l0-3.7
					c0-0.4-0.3-0.7-0.7-0.7c-0.4,0-0.7,0.3-0.7,0.7l0,0.3h0l0,3.4l-3.7,0c-0.4,0-0.7,0.3-0.7,0.7c0,0.4,0.3,0.7,0.7,0.7l0.3,0v0
					l3.4,0l0,3.7c0,0.4,0.3,0.7,0.7,0.7c0.4,0,0.7-0.3,0.7-0.7l0-0.3h0L50.1,53.8z"/>
			</g>
		</g>
	</g>
</g>
<g id="LABELS">
</g>
</svg>
