<?xml version="1.0" encoding="utf-8"?>
<!-- Generator: Adobe Illustrator 18.1.1, SVG Export Plug-In . SVG Version: 6.00 Build 0)  -->
<svg version="1.1" xmlns="http://www.w3.org/2000/svg" xmlns:xlink="http://www.w3.org/1999/xlink" x="0px" y="0px"
	 viewBox="0 0 100 100" enable-background="new 0 0 100 100" xml:space="preserve">
<g id="GUIDES">
</g>
<g id="ICONS_-_BLACK" display="none">
	<g display="inline">
		<g>
			<g>
				<path d="M80.1,15.8H19.9c-0.7,0-1.2,0.5-1.2,1.2v14.9c0,0.7,0.5,1.2,1.2,1.2h8.4v44.8c0,0.7,0.5,1.2,1.2,1.2h5V83
					c0,0.7,0.5,1.2,1.2,1.2h33.5c0.7,0,1.2-0.5,1.2-1.2V33.1h9.6c0.7,0,1.2-0.5,1.2-1.2V17C81.3,16.3,80.8,15.8,80.1,15.8z
					 M28.3,30.7h-7.2V18.2h7.2V30.7z M30.8,76.7V18.2h32.1v58.5H30.8z M68,81.8H37v-2.7h27.1c0.7,0,1.2-0.5,1.2-1.2V18.2H68V81.8z
					 M78.9,30.7h-8.4V18.2h8.4V30.7z"/>
				<path d="M35.6,30.7c0.7,0,1.2-0.6,1.2-1.2v-6.8c0-0.7-0.6-1.2-1.2-1.2s-1.2,0.6-1.2,1.2v6.8C34.3,30.1,34.9,30.7,35.6,30.7z"/>
				<path d="M58.1,30.7c0.7,0,1.2-0.6,1.2-1.2v-6.8c0-0.7-0.6-1.2-1.2-1.2s-1.2,0.6-1.2,1.2v6.8C56.9,30.1,57.4,30.7,58.1,30.7z"/>
				<path d="M35.6,63.3c-0.7,0-1.2,0.6-1.2,1.2v6.8c0,0.7,0.6,1.2,1.2,1.2s1.2-0.6,1.2-1.2v-6.8C36.8,63.9,36.3,63.3,35.6,63.3z"/>
				<path d="M58.1,63.3c-0.7,0-1.2,0.6-1.2,1.2v6.8c0,0.7,0.6,1.2,1.2,1.2s1.2-0.6,1.2-1.2v-6.8C59.4,63.9,58.8,63.3,58.1,63.3z"/>
				<path d="M58.7,46.9h-2.5h0c-0.4-3.5-3-4.5-4.6-4.5c-2.2,0-3.8,1.5-5.1,4.5h-7.2c0.5-2.2,2.4-3.1,2.7-3.1c0.6,0,1-0.5,1-1
					s-0.5-1-1-1c-1.5,0-4.4,1.8-4.9,5.2h0h-2.6c-0.6,0-1,0.5-1,1s0.5,1,1,1h2.6h0c0.4,3.2,2.4,5.2,5.4,5.2c3.2,0,4.5-3.1,5.3-5.2
					h6.1c-0.5,2.2-2.4,2.5-2.4,2.5c-0.3,0-0.5,0.2-0.7,0.4c-0.2,0.2-0.2,0.5-0.2,0.8c0.1,0.5,0.5,0.9,1,0.9l0.2,0
					c0,0,3.7-0.6,4.3-4.6h0h2.6c0.6,0,1-0.5,1-1S59.2,46.9,58.7,46.9z M42.6,52.1c-1.9,0-3-1.1-3.3-3.1h6.4
					C44.8,50.9,44,52.1,42.6,52.1z M51.5,44.5c0.4,0,2.1,0.1,2.5,2.4h-5.3C49.8,44.8,50.8,44.5,51.5,44.5z"/>
			</g>
		</g>
	</g>
</g>
<g id="ICONS_-_DARK_PURPLE" display="none">
	<g display="inline">
		<g>
			<g>
				<path fill="#4F2556" d="M80.1,15.8H19.9c-0.7,0-1.2,0.5-1.2,1.2v14.9c0,0.7,0.5,1.2,1.2,1.2h8.4v44.8c0,0.7,0.5,1.2,1.2,1.2h5
					V83c0,0.7,0.5,1.2,1.2,1.2h33.5c0.7,0,1.2-0.5,1.2-1.2V33.1h9.6c0.7,0,1.2-0.5,1.2-1.2V17C81.3,16.3,80.8,15.8,80.1,15.8z
					 M28.3,30.7h-7.2V18.2h7.2V30.7z M30.8,76.7V18.2h32.1v58.5H30.8z M68,81.8H37v-2.7h27.1c0.7,0,1.2-0.5,1.2-1.2V18.2H68V81.8z
					 M78.9,30.7h-8.4V18.2h8.4V30.7z"/>
				<path fill="#4F2556" d="M35.6,30.7c0.7,0,1.2-0.6,1.2-1.2v-6.8c0-0.7-0.6-1.2-1.2-1.2s-1.2,0.6-1.2,1.2v6.8
					C34.3,30.1,34.9,30.7,35.6,30.7z"/>
				<path fill="#4F2556" d="M58.1,30.7c0.7,0,1.2-0.6,1.2-1.2v-6.8c0-0.7-0.6-1.2-1.2-1.2s-1.2,0.6-1.2,1.2v6.8
					C56.9,30.1,57.4,30.7,58.1,30.7z"/>
				<path fill="#4F2556" d="M35.6,63.3c-0.7,0-1.2,0.6-1.2,1.2v6.8c0,0.7,0.6,1.2,1.2,1.2s1.2-0.6,1.2-1.2v-6.8
					C36.8,63.9,36.3,63.3,35.6,63.3z"/>
				<path fill="#4F2556" d="M58.1,63.3c-0.7,0-1.2,0.6-1.2,1.2v6.8c0,0.7,0.6,1.2,1.2,1.2s1.2-0.6,1.2-1.2v-6.8
					C59.4,63.9,58.8,63.3,58.1,63.3z"/>
				<path fill="#4F2556" d="M58.7,46.9h-2.5h0c-0.4-3.5-3-4.5-4.6-4.5c-2.2,0-3.8,1.5-5.1,4.5h-7.2c0.5-2.2,2.4-3.1,2.7-3.1
					c0.6,0,1-0.5,1-1s-0.5-1-1-1c-1.5,0-4.4,1.8-4.9,5.2h0h-2.6c-0.6,0-1,0.5-1,1s0.5,1,1,1h2.6h0c0.4,3.2,2.4,5.2,5.4,5.2
					c3.2,0,4.5-3.1,5.3-5.2h6.1c-0.5,2.2-2.4,2.5-2.4,2.5c-0.3,0-0.5,0.2-0.7,0.4c-0.2,0.2-0.2,0.5-0.2,0.8c0.1,0.5,0.5,0.9,1,0.9
					l0.2,0c0,0,3.7-0.6,4.3-4.6h0h2.6c0.6,0,1-0.5,1-1S59.2,46.9,58.7,46.9z M42.6,52.1c-1.9,0-3-1.1-3.3-3.1h6.4
					C44.8,50.9,44,52.1,42.6,52.1z M51.5,44.5c0.4,0,2.1,0.1,2.5,2.4h-5.3C49.8,44.8,50.8,44.5,51.5,44.5z"/>
			</g>
		</g>
	</g>
</g>
<g id="ICONS_-_WARM_GREY" display="none">
	<g display="inline">
		<g>
			<g>
				<path fill="#534C63" d="M80.1,15.8H19.9c-0.7,0-1.2,0.5-1.2,1.2v14.9c0,0.7,0.5,1.2,1.2,1.2h8.4v44.8c0,0.7,0.5,1.2,1.2,1.2h5
					V83c0,0.7,0.5,1.2,1.2,1.2h33.5c0.7,0,1.2-0.5,1.2-1.2V33.1h9.6c0.7,0,1.2-0.5,1.2-1.2V17C81.3,16.3,80.8,15.8,80.1,15.8z
					 M28.3,30.7h-7.2V18.2h7.2V30.7z M30.8,76.7V18.2h32.1v58.5H30.8z M68,81.8H37v-2.7h27.1c0.7,0,1.2-0.5,1.2-1.2V18.2H68V81.8z
					 M78.9,30.7h-8.4V18.2h8.4V30.7z"/>
				<path fill="#534C63" d="M35.6,30.7c0.7,0,1.2-0.6,1.2-1.2v-6.8c0-0.7-0.6-1.2-1.2-1.2s-1.2,0.6-1.2,1.2v6.8
					C34.3,30.1,34.9,30.7,35.6,30.7z"/>
				<path fill="#534C63" d="M58.1,30.7c0.7,0,1.2-0.6,1.2-1.2v-6.8c0-0.7-0.6-1.2-1.2-1.2s-1.2,0.6-1.2,1.2v6.8
					C56.9,30.1,57.4,30.7,58.1,30.7z"/>
				<path fill="#534C63" d="M35.6,63.3c-0.7,0-1.2,0.6-1.2,1.2v6.8c0,0.7,0.6,1.2,1.2,1.2s1.2-0.6,1.2-1.2v-6.8
					C36.8,63.9,36.3,63.3,35.6,63.3z"/>
				<path fill="#534C63" d="M58.1,63.3c-0.7,0-1.2,0.6-1.2,1.2v6.8c0,0.7,0.6,1.2,1.2,1.2s1.2-0.6,1.2-1.2v-6.8
					C59.4,63.9,58.8,63.3,58.1,63.3z"/>
				<path fill="#534C63" d="M58.7,46.9h-2.5h0c-0.4-3.5-3-4.5-4.6-4.5c-2.2,0-3.8,1.5-5.1,4.5h-7.2c0.5-2.2,2.4-3.1,2.7-3.1
					c0.6,0,1-0.5,1-1s-0.5-1-1-1c-1.5,0-4.4,1.8-4.9,5.2h0h-2.6c-0.6,0-1,0.5-1,1s0.5,1,1,1h2.6h0c0.4,3.2,2.4,5.2,5.4,5.2
					c3.2,0,4.5-3.1,5.3-5.2h6.1c-0.5,2.2-2.4,2.5-2.4,2.5c-0.3,0-0.5,0.2-0.7,0.4c-0.2,0.2-0.2,0.5-0.2,0.8c0.1,0.5,0.5,0.9,1,0.9
					l0.2,0c0,0,3.7-0.6,4.3-4.6h0h2.6c0.6,0,1-0.5,1-1S59.2,46.9,58.7,46.9z M42.6,52.1c-1.9,0-3-1.1-3.3-3.1h6.4
					C44.8,50.9,44,52.1,42.6,52.1z M51.5,44.5c0.4,0,2.1,0.1,2.5,2.4h-5.3C49.8,44.8,50.8,44.5,51.5,44.5z"/>
			</g>
		</g>
	</g>
</g>
<g id="ICONS_-_SKRILL_TEAL" display="none">
	<g display="inline">
		<g>
			<g>
				<path fill="#41AEB5" d="M80.1,15.8H19.9c-0.7,0-1.2,0.5-1.2,1.2v14.9c0,0.7,0.5,1.2,1.2,1.2h8.4v44.8c0,0.7,0.5,1.2,1.2,1.2h5
					V83c0,0.7,0.5,1.2,1.2,1.2h33.5c0.7,0,1.2-0.5,1.2-1.2V33.1h9.6c0.7,0,1.2-0.5,1.2-1.2V17C81.3,16.3,80.8,15.8,80.1,15.8z
					 M28.3,30.7h-7.2V18.2h7.2V30.7z M30.8,76.7V18.2h32.1v58.5H30.8z M68,81.8H37v-2.7h27.1c0.7,0,1.2-0.5,1.2-1.2V18.2H68V81.8z
					 M78.9,30.7h-8.4V18.2h8.4V30.7z"/>
				<path fill="#41AEB5" d="M35.6,30.7c0.7,0,1.2-0.6,1.2-1.2v-6.8c0-0.7-0.6-1.2-1.2-1.2s-1.2,0.6-1.2,1.2v6.8
					C34.3,30.1,34.9,30.7,35.6,30.7z"/>
				<path fill="#41AEB5" d="M58.1,30.7c0.7,0,1.2-0.6,1.2-1.2v-6.8c0-0.7-0.6-1.2-1.2-1.2s-1.2,0.6-1.2,1.2v6.8
					C56.9,30.1,57.4,30.7,58.1,30.7z"/>
				<path fill="#41AEB5" d="M35.6,63.3c-0.7,0-1.2,0.6-1.2,1.2v6.8c0,0.7,0.6,1.2,1.2,1.2s1.2-0.6,1.2-1.2v-6.8
					C36.8,63.9,36.3,63.3,35.6,63.3z"/>
				<path fill="#41AEB5" d="M58.1,63.3c-0.7,0-1.2,0.6-1.2,1.2v6.8c0,0.7,0.6,1.2,1.2,1.2s1.2-0.6,1.2-1.2v-6.8
					C59.4,63.9,58.8,63.3,58.1,63.3z"/>
				<path fill="#41AEB5" d="M58.7,46.9h-2.5h0c-0.4-3.5-3-4.5-4.6-4.5c-2.2,0-3.8,1.5-5.1,4.5h-7.2c0.5-2.2,2.4-3.1,2.7-3.1
					c0.6,0,1-0.5,1-1s-0.5-1-1-1c-1.5,0-4.4,1.8-4.9,5.2h0h-2.6c-0.6,0-1,0.5-1,1s0.5,1,1,1h2.6h0c0.4,3.2,2.4,5.2,5.4,5.2
					c3.2,0,4.5-3.1,5.3-5.2h6.1c-0.5,2.2-2.4,2.5-2.4,2.5c-0.3,0-0.5,0.2-0.7,0.4c-0.2,0.2-0.2,0.5-0.2,0.8c0.1,0.5,0.5,0.9,1,0.9
					l0.2,0c0,0,3.7-0.6,4.3-4.6h0h2.6c0.6,0,1-0.5,1-1S59.2,46.9,58.7,46.9z M42.6,52.1c-1.9,0-3-1.1-3.3-3.1h6.4
					C44.8,50.9,44,52.1,42.6,52.1z M51.5,44.5c0.4,0,2.1,0.1,2.5,2.4h-5.3C49.8,44.8,50.8,44.5,51.5,44.5z"/>
			</g>
		</g>
	</g>
</g>
<g id="ICONS_-_SKRILL_PURPLE">
	<g>
		<g>
			<g>
				<path fill="#811E68" d="M80.1,15.8H19.9c-0.7,0-1.2,0.5-1.2,1.2v14.9c0,0.7,0.5,1.2,1.2,1.2h8.4v44.8c0,0.7,0.5,1.2,1.2,1.2h5
					V83c0,0.7,0.5,1.2,1.2,1.2h33.5c0.7,0,1.2-0.5,1.2-1.2V33.1h9.6c0.7,0,1.2-0.5,1.2-1.2V17C81.3,16.3,80.8,15.8,80.1,15.8z
					 M28.3,30.7h-7.2V18.2h7.2V30.7z M30.8,76.7V18.2h32.1v58.5H30.8z M68,81.8H37v-2.7h27.1c0.7,0,1.2-0.5,1.2-1.2V18.2H68V81.8z
					 M78.9,30.7h-8.4V18.2h8.4V30.7z"/>
				<path fill="#811E68" d="M35.6,30.7c0.7,0,1.2-0.6,1.2-1.2v-6.8c0-0.7-0.6-1.2-1.2-1.2s-1.2,0.6-1.2,1.2v6.8
					C34.3,30.1,34.9,30.7,35.6,30.7z"/>
				<path fill="#811E68" d="M58.1,30.7c0.7,0,1.2-0.6,1.2-1.2v-6.8c0-0.7-0.6-1.2-1.2-1.2s-1.2,0.6-1.2,1.2v6.8
					C56.9,30.1,57.4,30.7,58.1,30.7z"/>
				<path fill="#811E68" d="M35.6,63.3c-0.7,0-1.2,0.6-1.2,1.2v6.8c0,0.7,0.6,1.2,1.2,1.2s1.2-0.6,1.2-1.2v-6.8
					C36.8,63.9,36.3,63.3,35.6,63.3z"/>
				<path fill="#811E68" d="M58.1,63.3c-0.7,0-1.2,0.6-1.2,1.2v6.8c0,0.7,0.6,1.2,1.2,1.2s1.2-0.6,1.2-1.2v-6.8
					C59.4,63.9,58.8,63.3,58.1,63.3z"/>
				<path fill="#811E68" d="M58.7,46.9h-2.5h0c-0.4-3.5-3-4.5-4.6-4.5c-2.2,0-3.8,1.5-5.1,4.5h-7.2c0.5-2.2,2.4-3.1,2.7-3.1
					c0.6,0,1-0.5,1-1s-0.5-1-1-1c-1.5,0-4.4,1.8-4.9,5.2h0h-2.6c-0.6,0-1,0.5-1,1s0.5,1,1,1h2.6h0c0.4,3.2,2.4,5.2,5.4,5.2
					c3.2,0,4.5-3.1,5.3-5.2h6.1c-0.5,2.2-2.4,2.5-2.4,2.5c-0.3,0-0.5,0.2-0.7,0.4c-0.2,0.2-0.2,0.5-0.2,0.8c0.1,0.5,0.5,0.9,1,0.9
					l0.2,0c0,0,3.7-0.6,4.3-4.6h0h2.6c0.6,0,1-0.5,1-1S59.2,46.9,58.7,46.9z M42.6,52.1c-1.9,0-3-1.1-3.3-3.1h6.4
					C44.8,50.9,44,52.1,42.6,52.1z M51.5,44.5c0.4,0,2.1,0.1,2.5,2.4h-5.3C49.8,44.8,50.8,44.5,51.5,44.5z"/>
			</g>
		</g>
	</g>
</g>
<g id="ICONS_-_WHITE" display="none">
	<g display="inline">
		<g>
			<g>
				<path fill="#FFFFFF" d="M80.1,15.8H19.9c-0.7,0-1.2,0.5-1.2,1.2v14.9c0,0.7,0.5,1.2,1.2,1.2h8.4v44.8c0,0.7,0.5,1.2,1.2,1.2h5
					V83c0,0.7,0.5,1.2,1.2,1.2h33.5c0.7,0,1.2-0.5,1.2-1.2V33.1h9.6c0.7,0,1.2-0.5,1.2-1.2V17C81.3,16.3,80.8,15.8,80.1,15.8z
					 M28.3,30.7h-7.2V18.2h7.2V30.7z M30.8,76.7V18.2h32.1v58.5H30.8z M68,81.8H37v-2.7h27.1c0.7,0,1.2-0.5,1.2-1.2V18.2H68V81.8z
					 M78.9,30.7h-8.4V18.2h8.4V30.7z"/>
				<path fill="#FFFFFF" d="M35.6,30.7c0.7,0,1.2-0.6,1.2-1.2v-6.8c0-0.7-0.6-1.2-1.2-1.2s-1.2,0.6-1.2,1.2v6.8
					C34.3,30.1,34.9,30.7,35.6,30.7z"/>
				<path fill="#FFFFFF" d="M58.1,30.7c0.7,0,1.2-0.6,1.2-1.2v-6.8c0-0.7-0.6-1.2-1.2-1.2s-1.2,0.6-1.2,1.2v6.8
					C56.9,30.1,57.4,30.7,58.1,30.7z"/>
				<path fill="#FFFFFF" d="M35.6,63.3c-0.7,0-1.2,0.6-1.2,1.2v6.8c0,0.7,0.6,1.2,1.2,1.2s1.2-0.6,1.2-1.2v-6.8
					C36.8,63.9,36.3,63.3,35.6,63.3z"/>
				<path fill="#FFFFFF" d="M58.1,63.3c-0.7,0-1.2,0.6-1.2,1.2v6.8c0,0.7,0.6,1.2,1.2,1.2s1.2-0.6,1.2-1.2v-6.8
					C59.4,63.9,58.8,63.3,58.1,63.3z"/>
				<path fill="#FFFFFF" d="M58.7,46.9h-2.5h0c-0.4-3.5-3-4.5-4.6-4.5c-2.2,0-3.8,1.5-5.1,4.5h-7.2c0.5-2.2,2.4-3.1,2.7-3.1
					c0.6,0,1-0.5,1-1s-0.5-1-1-1c-1.5,0-4.4,1.8-4.9,5.2h0h-2.6c-0.6,0-1,0.5-1,1s0.5,1,1,1h2.6h0c0.4,3.2,2.4,5.2,5.4,5.2
					c3.2,0,4.5-3.1,5.3-5.2h6.1c-0.5,2.2-2.4,2.5-2.4,2.5c-0.3,0-0.5,0.2-0.7,0.4c-0.2,0.2-0.2,0.5-0.2,0.8c0.1,0.5,0.5,0.9,1,0.9
					l0.2,0c0,0,3.7-0.6,4.3-4.6h0h2.6c0.6,0,1-0.5,1-1S59.2,46.9,58.7,46.9z M42.6,52.1c-1.9,0-3-1.1-3.3-3.1h6.4
					C44.8,50.9,44,52.1,42.6,52.1z M51.5,44.5c0.4,0,2.1,0.1,2.5,2.4h-5.3C49.8,44.8,50.8,44.5,51.5,44.5z"/>
			</g>
		</g>
	</g>
</g>
<g id="LABELS">
</g>
</svg>
