<?xml version="1.0" encoding="utf-8"?>
<!-- Generator: Adobe Illustrator 18.1.1, SVG Export Plug-In . SVG Version: 6.00 Build 0)  -->
<svg version="1.1" xmlns="http://www.w3.org/2000/svg" xmlns:xlink="http://www.w3.org/1999/xlink" x="0px" y="0px"
	 viewBox="0 0 100 100" enable-background="new 0 0 100 100" xml:space="preserve">
<g id="GUIDES">
</g>
<g id="ICONS_-_BLACK" display="none">
	<g display="inline">
		<g>
			<g>
				<path d="M86.2,18.6c-0.1-0.1-0.1-0.2-0.3-0.3c-0.1-0.1-0.2-0.2-0.4-0.2c-0.2,0-0.3-0.1-0.5-0.1H15.2c-0.2,0-0.4,0-0.6,0.1
					c-0.2,0.1-0.3,0.1-0.5,0.2c-0.1,0.1-0.3,0.2-0.3,0.3c-0.1,0.1-0.1,0.3-0.1,0.4v7.2c0,1.9,0.4,3.7,1.1,5.5
					c0.7,1.7,1.8,3.2,3.1,4.5c1.3,1.3,2.8,2.3,4.5,3c1.7,0.7,3.6,1.1,5.5,1.2l0.2,0.2c0,2.8,0.6,5.5,1.6,8.1c1,2.5,2.4,4.8,4.2,6.7
					c1.8,2,4,3.6,6.4,4.7c2.5,1.2,5.3,2,8.2,2.2l0.2,0.2v8.3L48.5,71h-7.9c-0.2,0-0.3,0-0.5,0.1c-0.2,0.1-0.3,0.2-0.4,0.3
					c-0.1,0.1-0.2,0.3-0.3,0.4c-0.1,0.2-0.1,0.3-0.1,0.5s0,0.3,0.1,0.5c0.1,0.2,0.2,0.3,0.3,0.4c0.1,0.1,0.3,0.2,0.4,0.3
					c0.2,0.1,0.3,0.1,0.5,0.1h18.3c0.2,0,0.3,0,0.5-0.1c0.2-0.1,0.3-0.2,0.4-0.3c0.1-0.1,0.2-0.3,0.3-0.4c0.1-0.2,0.1-0.3,0.1-0.5
					s0-0.3-0.1-0.5c-0.1-0.2-0.2-0.3-0.3-0.4c-0.1-0.1-0.3-0.2-0.4-0.3c-0.2-0.1-0.3-0.1-0.5-0.1h-7.4l-0.2-0.2v-8.2l0.2-0.2
					c2.7-0.1,5.3-0.8,7.8-2c2.5-1.2,4.7-2.7,6.6-4.7c2-2,3.5-4.3,4.6-6.8c1.1-2.6,1.7-5.4,1.8-8.2l0.2-0.2c1.9,0,3.7-0.4,5.4-1.2
					c1.6-0.7,3.1-1.7,4.4-3c1.3-1.3,2.2-2.8,2.9-4.5c0.7-1.7,1.1-3.6,1.1-5.5v-7.2C86.3,18.9,86.3,18.8,86.2,18.6z M27.7,37.7
					l-0.2,0.2c-1.5,0-3-0.4-4.3-1c-1.3-0.6-2.5-1.4-3.6-2.5c-1-1.1-1.8-2.3-2.4-3.7c-0.6-1.4-0.9-2.9-0.9-4.5v-5.5l0.2-0.2h11
					l0.2,0.2V37.7z M69.7,40.4c0,2.6-0.5,5.2-1.6,7.6c-1,2.3-2.4,4.4-4.3,6.2c-1.8,1.8-3.9,3.2-6.3,4.2c-2.4,1-5,1.5-7.6,1.5
					s-5.2-0.5-7.6-1.5c-2.3-1-4.5-2.4-6.3-4.2c-1.8-1.8-3.3-3.9-4.3-6.2c-1-2.4-1.6-5-1.6-7.6V20.8l0.2-0.2h39l0.2,0.2V40.4z
					 M83.7,26.3c0,1.5-0.3,3-0.9,4.5c-0.6,1.4-1.4,2.6-2.4,3.7c-1,1.1-2.2,1.9-3.6,2.5c-1.4,0.6-2.8,0.9-4.3,1l-0.2-0.2V20.8
					l0.2-0.2h11l0.2,0.2V26.3z"/>
				<path d="M73,79H26.5c-0.3,0-0.7,0.1-0.9,0.4c-0.2,0.2-0.4,0.6-0.4,0.9s0.1,0.7,0.4,0.9c0.2,0.2,0.6,0.4,0.9,0.4H73
					c0.3,0,0.7-0.1,0.9-0.4c0.2-0.2,0.4-0.6,0.4-0.9s-0.1-0.7-0.4-0.9C73.7,79.2,73.3,79,73,79z"/>
			</g>
		</g>
	</g>
</g>
<g id="ICONS_-_DARK_PURPLE" display="none">
	<g display="inline">
		<g>
			<g>
				<path fill="#4F2556" d="M86.2,18.6c-0.1-0.1-0.1-0.2-0.3-0.3c-0.1-0.1-0.2-0.2-0.4-0.2c-0.2,0-0.3-0.1-0.5-0.1H15.2
					c-0.2,0-0.4,0-0.6,0.1c-0.2,0.1-0.3,0.1-0.5,0.2c-0.1,0.1-0.3,0.2-0.3,0.3c-0.1,0.1-0.1,0.3-0.1,0.4v7.2c0,1.9,0.4,3.7,1.1,5.5
					c0.7,1.7,1.8,3.2,3.1,4.5c1.3,1.3,2.8,2.3,4.5,3c1.7,0.7,3.6,1.1,5.5,1.2l0.2,0.2c0,2.8,0.6,5.5,1.6,8.1c1,2.5,2.4,4.8,4.2,6.7
					c1.8,2,4,3.6,6.4,4.7c2.5,1.2,5.3,2,8.2,2.2l0.2,0.2v8.3L48.5,71h-7.9c-0.2,0-0.3,0-0.5,0.1c-0.2,0.1-0.3,0.2-0.4,0.3
					c-0.1,0.1-0.2,0.3-0.3,0.4c-0.1,0.2-0.1,0.3-0.1,0.5s0,0.3,0.1,0.5c0.1,0.2,0.2,0.3,0.3,0.4c0.1,0.1,0.3,0.2,0.4,0.3
					c0.2,0.1,0.3,0.1,0.5,0.1h18.3c0.2,0,0.3,0,0.5-0.1c0.2-0.1,0.3-0.2,0.4-0.3c0.1-0.1,0.2-0.3,0.3-0.4c0.1-0.2,0.1-0.3,0.1-0.5
					s0-0.3-0.1-0.5c-0.1-0.2-0.2-0.3-0.3-0.4c-0.1-0.1-0.3-0.2-0.4-0.3c-0.2-0.1-0.3-0.1-0.5-0.1h-7.4l-0.2-0.2v-8.2l0.2-0.2
					c2.7-0.1,5.3-0.8,7.8-2c2.5-1.2,4.7-2.7,6.6-4.7c2-2,3.5-4.3,4.6-6.8c1.1-2.6,1.7-5.4,1.8-8.2l0.2-0.2c1.9,0,3.7-0.4,5.4-1.2
					c1.6-0.7,3.1-1.7,4.4-3c1.3-1.3,2.2-2.8,2.9-4.5c0.7-1.7,1.1-3.6,1.1-5.5v-7.2C86.3,18.9,86.3,18.8,86.2,18.6z M27.7,37.7
					l-0.2,0.2c-1.5,0-3-0.4-4.3-1c-1.3-0.6-2.5-1.4-3.6-2.5c-1-1.1-1.8-2.3-2.4-3.7c-0.6-1.4-0.9-2.9-0.9-4.5v-5.5l0.2-0.2h11
					l0.2,0.2V37.7z M69.7,40.4c0,2.6-0.5,5.2-1.6,7.6c-1,2.3-2.4,4.4-4.3,6.2c-1.8,1.8-3.9,3.2-6.3,4.2c-2.4,1-5,1.5-7.6,1.5
					s-5.2-0.5-7.6-1.5c-2.3-1-4.5-2.4-6.3-4.2c-1.8-1.8-3.3-3.9-4.3-6.2c-1-2.4-1.6-5-1.6-7.6V20.8l0.2-0.2h39l0.2,0.2V40.4z
					 M83.7,26.3c0,1.5-0.3,3-0.9,4.5c-0.6,1.4-1.4,2.6-2.4,3.7c-1,1.1-2.2,1.9-3.6,2.5c-1.4,0.6-2.8,0.9-4.3,1l-0.2-0.2V20.8
					l0.2-0.2h11l0.2,0.2V26.3z"/>
				<path fill="#4F2556" d="M73,79H26.5c-0.3,0-0.7,0.1-0.9,0.4c-0.2,0.2-0.4,0.6-0.4,0.9s0.1,0.7,0.4,0.9c0.2,0.2,0.6,0.4,0.9,0.4
					H73c0.3,0,0.7-0.1,0.9-0.4c0.2-0.2,0.4-0.6,0.4-0.9s-0.1-0.7-0.4-0.9C73.7,79.2,73.3,79,73,79z"/>
			</g>
		</g>
	</g>
</g>
<g id="ICONS_-_WARM_GREY" display="none">
	<g display="inline">
		<g>
			<g>
				<path fill="#534C63" d="M86.2,18.6c-0.1-0.1-0.1-0.2-0.3-0.3c-0.1-0.1-0.2-0.2-0.4-0.2c-0.2,0-0.3-0.1-0.5-0.1H15.2
					c-0.2,0-0.4,0-0.6,0.1c-0.2,0.1-0.3,0.1-0.5,0.2c-0.1,0.1-0.3,0.2-0.3,0.3c-0.1,0.1-0.1,0.3-0.1,0.4v7.2c0,1.9,0.4,3.7,1.1,5.5
					c0.7,1.7,1.8,3.2,3.1,4.5c1.3,1.3,2.8,2.3,4.5,3c1.7,0.7,3.6,1.1,5.5,1.2l0.2,0.2c0,2.8,0.6,5.5,1.6,8.1c1,2.5,2.4,4.8,4.2,6.7
					c1.8,2,4,3.6,6.4,4.7c2.5,1.2,5.3,2,8.2,2.2l0.2,0.2v8.3L48.5,71h-7.9c-0.2,0-0.3,0-0.5,0.1c-0.2,0.1-0.3,0.2-0.4,0.3
					c-0.1,0.1-0.2,0.3-0.3,0.4c-0.1,0.2-0.1,0.3-0.1,0.5s0,0.3,0.1,0.5c0.1,0.2,0.2,0.3,0.3,0.4c0.1,0.1,0.3,0.2,0.4,0.3
					c0.2,0.1,0.3,0.1,0.5,0.1h18.3c0.2,0,0.3,0,0.5-0.1c0.2-0.1,0.3-0.2,0.4-0.3c0.1-0.1,0.2-0.3,0.3-0.4c0.1-0.2,0.1-0.3,0.1-0.5
					s0-0.3-0.1-0.5c-0.1-0.2-0.2-0.3-0.3-0.4c-0.1-0.1-0.3-0.2-0.4-0.3c-0.2-0.1-0.3-0.1-0.5-0.1h-7.4l-0.2-0.2v-8.2l0.2-0.2
					c2.7-0.1,5.3-0.8,7.8-2c2.5-1.2,4.7-2.7,6.6-4.7c2-2,3.5-4.3,4.6-6.8c1.1-2.6,1.7-5.4,1.8-8.2l0.2-0.2c1.9,0,3.7-0.4,5.4-1.2
					c1.6-0.7,3.1-1.7,4.4-3c1.3-1.3,2.2-2.8,2.9-4.5c0.7-1.7,1.1-3.6,1.1-5.5v-7.2C86.3,18.9,86.3,18.8,86.2,18.6z M27.7,37.7
					l-0.2,0.2c-1.5,0-3-0.4-4.3-1c-1.3-0.6-2.5-1.4-3.6-2.5c-1-1.1-1.8-2.3-2.4-3.7c-0.6-1.4-0.9-2.9-0.9-4.5v-5.5l0.2-0.2h11
					l0.2,0.2V37.7z M69.7,40.4c0,2.6-0.5,5.2-1.6,7.6c-1,2.3-2.4,4.4-4.3,6.2c-1.8,1.8-3.9,3.2-6.3,4.2c-2.4,1-5,1.5-7.6,1.5
					s-5.2-0.5-7.6-1.5c-2.3-1-4.5-2.4-6.3-4.2c-1.8-1.8-3.3-3.9-4.3-6.2c-1-2.4-1.6-5-1.6-7.6V20.8l0.2-0.2h39l0.2,0.2V40.4z
					 M83.7,26.3c0,1.5-0.3,3-0.9,4.5c-0.6,1.4-1.4,2.6-2.4,3.7c-1,1.1-2.2,1.9-3.6,2.5c-1.4,0.6-2.8,0.9-4.3,1l-0.2-0.2V20.8
					l0.2-0.2h11l0.2,0.2V26.3z"/>
				<path fill="#534C63" d="M73,79H26.5c-0.3,0-0.7,0.1-0.9,0.4c-0.2,0.2-0.4,0.6-0.4,0.9s0.1,0.7,0.4,0.9c0.2,0.2,0.6,0.4,0.9,0.4
					H73c0.3,0,0.7-0.1,0.9-0.4c0.2-0.2,0.4-0.6,0.4-0.9s-0.1-0.7-0.4-0.9C73.7,79.2,73.3,79,73,79z"/>
			</g>
		</g>
	</g>
</g>
<g id="ICONS_-_SKRILL_TEAL" display="none">
	<g display="inline">
		<g>
			<g>
				<path fill="#41AEB5" d="M86.2,18.6c-0.1-0.1-0.1-0.2-0.3-0.3c-0.1-0.1-0.2-0.2-0.4-0.2c-0.2,0-0.3-0.1-0.5-0.1H15.2
					c-0.2,0-0.4,0-0.6,0.1c-0.2,0.1-0.3,0.1-0.5,0.2c-0.1,0.1-0.3,0.2-0.3,0.3c-0.1,0.1-0.1,0.3-0.1,0.4v7.2c0,1.9,0.4,3.7,1.1,5.5
					c0.7,1.7,1.8,3.2,3.1,4.5c1.3,1.3,2.8,2.3,4.5,3c1.7,0.7,3.6,1.1,5.5,1.2l0.2,0.2c0,2.8,0.6,5.5,1.6,8.1c1,2.5,2.4,4.8,4.2,6.7
					c1.8,2,4,3.6,6.4,4.7c2.5,1.2,5.3,2,8.2,2.2l0.2,0.2v8.3L48.5,71h-7.9c-0.2,0-0.3,0-0.5,0.1c-0.2,0.1-0.3,0.2-0.4,0.3
					c-0.1,0.1-0.2,0.3-0.3,0.4c-0.1,0.2-0.1,0.3-0.1,0.5s0,0.3,0.1,0.5c0.1,0.2,0.2,0.3,0.3,0.4c0.1,0.1,0.3,0.2,0.4,0.3
					c0.2,0.1,0.3,0.1,0.5,0.1h18.3c0.2,0,0.3,0,0.5-0.1c0.2-0.1,0.3-0.2,0.4-0.3c0.1-0.1,0.2-0.3,0.3-0.4c0.1-0.2,0.1-0.3,0.1-0.5
					s0-0.3-0.1-0.5c-0.1-0.2-0.2-0.3-0.3-0.4c-0.1-0.1-0.3-0.2-0.4-0.3c-0.2-0.1-0.3-0.1-0.5-0.1h-7.4l-0.2-0.2v-8.2l0.2-0.2
					c2.7-0.1,5.3-0.8,7.8-2c2.5-1.2,4.7-2.7,6.6-4.7c2-2,3.5-4.3,4.6-6.8c1.1-2.6,1.7-5.4,1.8-8.2l0.2-0.2c1.9,0,3.7-0.4,5.4-1.2
					c1.6-0.7,3.1-1.7,4.4-3c1.3-1.3,2.2-2.8,2.9-4.5c0.7-1.7,1.1-3.6,1.1-5.5v-7.2C86.3,18.9,86.3,18.8,86.2,18.6z M27.7,37.7
					l-0.2,0.2c-1.5,0-3-0.4-4.3-1c-1.3-0.6-2.5-1.4-3.6-2.5c-1-1.1-1.8-2.3-2.4-3.7c-0.6-1.4-0.9-2.9-0.9-4.5v-5.5l0.2-0.2h11
					l0.2,0.2V37.7z M69.7,40.4c0,2.6-0.5,5.2-1.6,7.6c-1,2.3-2.4,4.4-4.3,6.2c-1.8,1.8-3.9,3.2-6.3,4.2c-2.4,1-5,1.5-7.6,1.5
					s-5.2-0.5-7.6-1.5c-2.3-1-4.5-2.4-6.3-4.2c-1.8-1.8-3.3-3.9-4.3-6.2c-1-2.4-1.6-5-1.6-7.6V20.8l0.2-0.2h39l0.2,0.2V40.4z
					 M83.7,26.3c0,1.5-0.3,3-0.9,4.5c-0.6,1.4-1.4,2.6-2.4,3.7c-1,1.1-2.2,1.9-3.6,2.5c-1.4,0.6-2.8,0.9-4.3,1l-0.2-0.2V20.8
					l0.2-0.2h11l0.2,0.2V26.3z"/>
				<path fill="#41AEB5" d="M73,79H26.5c-0.3,0-0.7,0.1-0.9,0.4c-0.2,0.2-0.4,0.6-0.4,0.9s0.1,0.7,0.4,0.9c0.2,0.2,0.6,0.4,0.9,0.4
					H73c0.3,0,0.7-0.1,0.9-0.4c0.2-0.2,0.4-0.6,0.4-0.9s-0.1-0.7-0.4-0.9C73.7,79.2,73.3,79,73,79z"/>
			</g>
		</g>
	</g>
</g>
<g id="ICONS_-_SKRILL_PURPLE">
	<g>
		<g>
			<g>
				<path fill="#811E68" d="M86.2,18.6c-0.1-0.1-0.1-0.2-0.3-0.3c-0.1-0.1-0.2-0.2-0.4-0.2c-0.2,0-0.3-0.1-0.5-0.1H15.2
					c-0.2,0-0.4,0-0.6,0.1c-0.2,0.1-0.3,0.1-0.5,0.2c-0.1,0.1-0.3,0.2-0.3,0.3c-0.1,0.1-0.1,0.3-0.1,0.4v7.2c0,1.9,0.4,3.7,1.1,5.5
					c0.7,1.7,1.8,3.2,3.1,4.5c1.3,1.3,2.8,2.3,4.5,3c1.7,0.7,3.6,1.1,5.5,1.2l0.2,0.2c0,2.8,0.6,5.5,1.6,8.1c1,2.5,2.4,4.8,4.2,6.7
					c1.8,2,4,3.6,6.4,4.7c2.5,1.2,5.3,2,8.2,2.2l0.2,0.2v8.3L48.5,71h-7.9c-0.2,0-0.3,0-0.5,0.1c-0.2,0.1-0.3,0.2-0.4,0.3
					c-0.1,0.1-0.2,0.3-0.3,0.4c-0.1,0.2-0.1,0.3-0.1,0.5s0,0.3,0.1,0.5c0.1,0.2,0.2,0.3,0.3,0.4c0.1,0.1,0.3,0.2,0.4,0.3
					c0.2,0.1,0.3,0.1,0.5,0.1h18.3c0.2,0,0.3,0,0.5-0.1c0.2-0.1,0.3-0.2,0.4-0.3c0.1-0.1,0.2-0.3,0.3-0.4c0.1-0.2,0.1-0.3,0.1-0.5
					s0-0.3-0.1-0.5c-0.1-0.2-0.2-0.3-0.3-0.4c-0.1-0.1-0.3-0.2-0.4-0.3c-0.2-0.1-0.3-0.1-0.5-0.1h-7.4l-0.2-0.2v-8.2l0.2-0.2
					c2.7-0.1,5.3-0.8,7.8-2c2.5-1.2,4.7-2.7,6.6-4.7c2-2,3.5-4.3,4.6-6.8c1.1-2.6,1.7-5.4,1.8-8.2l0.2-0.2c1.9,0,3.7-0.4,5.4-1.2
					c1.6-0.7,3.1-1.7,4.4-3c1.3-1.3,2.2-2.8,2.9-4.5c0.7-1.7,1.1-3.6,1.1-5.5v-7.2C86.3,18.9,86.3,18.8,86.2,18.6z M27.7,37.7
					l-0.2,0.2c-1.5,0-3-0.4-4.3-1c-1.3-0.6-2.5-1.4-3.6-2.5c-1-1.1-1.8-2.3-2.4-3.7c-0.6-1.4-0.9-2.9-0.9-4.5v-5.5l0.2-0.2h11
					l0.2,0.2V37.7z M69.7,40.4c0,2.6-0.5,5.2-1.6,7.6c-1,2.3-2.4,4.4-4.3,6.2c-1.8,1.8-3.9,3.2-6.3,4.2c-2.4,1-5,1.5-7.6,1.5
					s-5.2-0.5-7.6-1.5c-2.3-1-4.5-2.4-6.3-4.2c-1.8-1.8-3.3-3.9-4.3-6.2c-1-2.4-1.6-5-1.6-7.6V20.8l0.2-0.2h39l0.2,0.2V40.4z
					 M83.7,26.3c0,1.5-0.3,3-0.9,4.5c-0.6,1.4-1.4,2.6-2.4,3.7c-1,1.1-2.2,1.9-3.6,2.5c-1.4,0.6-2.8,0.9-4.3,1l-0.2-0.2V20.8
					l0.2-0.2h11l0.2,0.2V26.3z"/>
				<path fill="#811E68" d="M73,79H26.5c-0.3,0-0.7,0.1-0.9,0.4c-0.2,0.2-0.4,0.6-0.4,0.9s0.1,0.7,0.4,0.9c0.2,0.2,0.6,0.4,0.9,0.4
					H73c0.3,0,0.7-0.1,0.9-0.4c0.2-0.2,0.4-0.6,0.4-0.9s-0.1-0.7-0.4-0.9C73.7,79.2,73.3,79,73,79z"/>
			</g>
		</g>
	</g>
</g>
<g id="ICONS_-_WHITE" display="none">
	<g display="inline">
		<g>
			<g>
				<path fill="#FFFFFF" d="M86.2,18.6c-0.1-0.1-0.1-0.2-0.3-0.3c-0.1-0.1-0.2-0.2-0.4-0.2c-0.2,0-0.3-0.1-0.5-0.1H15.2
					c-0.2,0-0.4,0-0.6,0.1c-0.2,0.1-0.3,0.1-0.5,0.2c-0.1,0.1-0.3,0.2-0.3,0.3c-0.1,0.1-0.1,0.3-0.1,0.4v7.2c0,1.9,0.4,3.7,1.1,5.5
					c0.7,1.7,1.8,3.2,3.1,4.5c1.3,1.3,2.8,2.3,4.5,3c1.7,0.7,3.6,1.1,5.5,1.2l0.2,0.2c0,2.8,0.6,5.5,1.6,8.1c1,2.5,2.4,4.8,4.2,6.7
					c1.8,2,4,3.6,6.4,4.7c2.5,1.2,5.3,2,8.2,2.2l0.2,0.2v8.3L48.5,71h-7.9c-0.2,0-0.3,0-0.5,0.1c-0.2,0.1-0.3,0.2-0.4,0.3
					c-0.1,0.1-0.2,0.3-0.3,0.4c-0.1,0.2-0.1,0.3-0.1,0.5s0,0.3,0.1,0.5c0.1,0.2,0.2,0.3,0.3,0.4c0.1,0.1,0.3,0.2,0.4,0.3
					c0.2,0.1,0.3,0.1,0.5,0.1h18.3c0.2,0,0.3,0,0.5-0.1c0.2-0.1,0.3-0.2,0.4-0.3c0.1-0.1,0.2-0.3,0.3-0.4c0.1-0.2,0.1-0.3,0.1-0.5
					s0-0.3-0.1-0.5c-0.1-0.2-0.2-0.3-0.3-0.4c-0.1-0.1-0.3-0.2-0.4-0.3c-0.2-0.1-0.3-0.1-0.5-0.1h-7.4l-0.2-0.2v-8.2l0.2-0.2
					c2.7-0.1,5.3-0.8,7.8-2c2.5-1.2,4.7-2.7,6.6-4.7c2-2,3.5-4.3,4.6-6.8c1.1-2.6,1.7-5.4,1.8-8.2l0.2-0.2c1.9,0,3.7-0.4,5.4-1.2
					c1.6-0.7,3.1-1.7,4.4-3c1.3-1.3,2.2-2.8,2.9-4.5c0.7-1.7,1.1-3.6,1.1-5.5v-7.2C86.3,18.9,86.3,18.8,86.2,18.6z M27.7,37.7
					l-0.2,0.2c-1.5,0-3-0.4-4.3-1c-1.3-0.6-2.5-1.4-3.6-2.5c-1-1.1-1.8-2.3-2.4-3.7c-0.6-1.4-0.9-2.9-0.9-4.5v-5.5l0.2-0.2h11
					l0.2,0.2V37.7z M69.7,40.4c0,2.6-0.5,5.2-1.6,7.6c-1,2.3-2.4,4.4-4.3,6.2c-1.8,1.8-3.9,3.2-6.3,4.2c-2.4,1-5,1.5-7.6,1.5
					s-5.2-0.5-7.6-1.5c-2.3-1-4.5-2.4-6.3-4.2c-1.8-1.8-3.3-3.9-4.3-6.2c-1-2.4-1.6-5-1.6-7.6V20.8l0.2-0.2h39l0.2,0.2V40.4z
					 M83.7,26.3c0,1.5-0.3,3-0.9,4.5c-0.6,1.4-1.4,2.6-2.4,3.7c-1,1.1-2.2,1.9-3.6,2.5c-1.4,0.6-2.8,0.9-4.3,1l-0.2-0.2V20.8
					l0.2-0.2h11l0.2,0.2V26.3z"/>
				<path fill="#FFFFFF" d="M73,79H26.5c-0.3,0-0.7,0.1-0.9,0.4c-0.2,0.2-0.4,0.6-0.4,0.9s0.1,0.7,0.4,0.9c0.2,0.2,0.6,0.4,0.9,0.4
					H73c0.3,0,0.7-0.1,0.9-0.4c0.2-0.2,0.4-0.6,0.4-0.9s-0.1-0.7-0.4-0.9C73.7,79.2,73.3,79,73,79z"/>
			</g>
		</g>
	</g>
</g>
<g id="LABELS">
</g>
</svg>
