<?xml version="1.0" encoding="utf-8"?>
<!-- Generator: Adobe Illustrator 18.1.1, SVG Export Plug-In . SVG Version: 6.00 Build 0)  -->
<svg version="1.1" xmlns="http://www.w3.org/2000/svg" xmlns:xlink="http://www.w3.org/1999/xlink" x="0px" y="0px"
	 viewBox="0 0 100 100" enable-background="new 0 0 100 100" xml:space="preserve">
<g id="GUIDES">
</g>
<g id="ICONS_-_BLACK" display="none">
	<g display="inline">
		<g>
			<g>
				<path d="M12.8,53.2c1.2,0,2.3-0.2,3.4-0.5c2.2-0.7,3.8-2.1,4.7-4.3c0.5-1.5,0.6-3,0.3-4.5c-0.3-2-1.3-3.5-3-4.6
					c-1.5-0.9-3.2-1.3-5-1.4c-1.3,0-2.6,0-3.9,0.1C8.8,38,8.4,38,8.1,38c0,5.1,0,10.1,0,15.2c0.1,0,0.1,0,0.2,0
					C9.8,53.2,11.3,53.2,12.8,53.2z M11.8,41c1.3-0.2,2.6-0.1,3.8,0.7c1,0.6,1.5,1.6,1.8,2.7c0.2,1,0.2,1.9-0.1,2.9
					c-0.5,1.7-1.7,2.6-3.4,2.9c-0.7,0.1-1.4,0.1-2.1,0.1C11.8,47.1,11.8,44.1,11.8,41z"/>
				<path d="M43.5,53c1.1,0.4,2.2,0.5,3.3,0.3c1.9-0.3,3.4-1.2,4.2-2.9c0.7-1.5,0.8-3,0.4-4.6c-0.3-1.4-1.1-2.5-2.3-3.2
					c-1-0.6-2-0.8-3.2-0.8c-0.5,0-0.9,0.1-1.4,0.2c-1.9,0.4-3.3,1.4-4,3.2c-0.6,1.4-0.7,2.9-0.3,4.4C40.8,51.2,41.9,52.4,43.5,53z
					 M43.9,47.3c0-0.6,0.1-1.2,0.4-1.7c0.3-0.6,0.7-1,1.4-1c0.6-0.1,1.1,0.1,1.4,0.6c0.5,0.6,0.6,1.4,0.7,2.2c0,0.1,0,0.1,0,0.2
					c0,0.7-0.1,1.4-0.4,2c-0.3,0.6-0.8,1-1.5,1c-0.7,0-1.2-0.3-1.5-0.9C44,49,43.9,48.2,43.9,47.3z"/>
				<path d="M26.1,53.1c1.5,0.5,3.1,0.5,4.6,0.2c0.6-0.1,1.1-0.3,1.7-0.5c-0.2-0.9-0.4-1.8-0.6-2.6c-0.7,0.1-1.4,0.3-2.2,0.4
					c-0.8,0.1-1.6,0-2.4-0.3c-0.6-0.3-1-0.7-1.2-1.4c2.3,0,4.6,0,6.9,0c0.2-1.6,0.2-3-0.5-4.5c-0.6-1.2-1.5-2-2.8-2.4
					c-0.7-0.2-1.4-0.2-2.2-0.2c-1.6,0.1-3,0.8-3.9,2.2c-0.9,1.4-1.2,2.9-1,4.5C22.7,50.8,23.9,52.3,26.1,53.1z M26.8,44.8
					c0.6-0.4,1.3-0.5,1.9-0.1c0.6,0.3,0.9,0.9,0.9,1.7c-1.2,0-2.4,0-3.6,0C26,45.6,26.2,45.1,26.8,44.8z"/>
				<path d="M85.5,52.5c-0.2-0.8-0.3-1.6-0.5-2.4c-0.2,0.1-0.3,0.1-0.5,0.1c-0.8,0.2-1.6,0.4-2.5,0.3c-0.7,0-1.4-0.2-2.1-0.6
					c-0.4-0.3-0.6-0.7-0.7-1.2c0.2,0,0.3,0,0.4,0c2.1,0,4.1,0,6.2,0c0.2,0,0.3-0.1,0.3-0.3c0.2-1.2,0.1-2.5-0.3-3.6
					c-0.5-1.4-1.4-2.4-2.8-2.8c-0.8-0.3-1.6-0.3-2.4-0.3c-1.7,0.1-3,0.9-3.9,2.3c-0.9,1.5-1.2,3.1-0.9,4.9c0.3,1.7,1.3,3,2.9,3.8
					c1.2,0.6,2.5,0.7,3.8,0.6c1,0,2-0.3,2.9-0.6C85.5,52.8,85.5,52.7,85.5,52.5z M80,44.7c0.6-0.4,1.3-0.5,2-0.1
					c0.6,0.4,0.8,0.9,0.9,1.6c-1.2,0-2.4,0-3.6,0C79.2,45.6,79.5,45.1,80,44.7z"/>
				<path d="M66.2,53.2c0.2,0,0.2-0.1,0.2-0.3c0-0.9,0-1.7,0-2.6c0,0,0-0.1,0-0.1c-0.5,0-1.1,0.1-1.6,0.1c-0.5,0-0.9-0.3-1-0.8
					c-0.1-0.2-0.1-0.5-0.1-0.7c0-1.2,0-2.4,0-3.6c0-0.1,0-0.2,0-0.3c0.8,0,1.6,0,2.4,0c0-0.9,0-1.9,0-2.8c-0.8,0-1.6,0-2.4,0
					c0-1.2,0-2.3,0-3.4c-1.2,0.1-2.4,0.3-3.7,0.4c0,1,0,2,0,3c-0.5,0-0.9,0-1.4,0c0,0.9,0,1.9,0,2.8c0.2,0,0.5,0,0.7,0
					c0.2,0,0.5,0,0.7,0c0,0.2,0,0.3,0,0.4c0,1.4,0,2.8,0,4.2c0,0.4,0,0.9,0.1,1.3c0.3,1.6,1.3,2.6,2.9,2.8
					C64,53.5,65.1,53.4,66.2,53.2z"/>
				<path d="M68.5,45.2c0,1.4,0,2.7,0,4.1c0,0.4,0,0.8,0.1,1.2c0.2,1.6,1.1,2.5,2.7,2.8c0.7,0.2,1.5,0.1,2.2,0
					c0.5-0.1,0.9-0.2,1.4-0.2c0-1,0-2,0-2.9c-0.5,0-0.9,0.1-1.3,0.1c-0.8,0-1.3-0.4-1.4-1.3c0-1.4,0-2.7,0-4.1c0,0,0-0.1,0-0.1
					c0.8,0,1.5,0,2.3,0c0-0.9,0-1.9,0-2.8c-0.8,0-1.6,0-2.4,0c0-0.6,0-1.1,0-1.7c0-0.6,0-1.1,0-1.7c-0.1,0-0.1,0-0.2,0
					c-1.1,0.1-2.2,0.3-3.3,0.4c-0.2,0-0.2,0.1-0.2,0.2c0,0.6,0,1.2,0,1.8c0,0.3,0,0.7,0,1c-0.5,0-0.9,0-1.4,0c0,0.9,0,1.9,0,2.8
					c0.5,0,0.9,0,1.4,0C68.5,45,68.5,45.1,68.5,45.2z"/>
				<path d="M38.2,53.2c0.2,0,0.3-0.1,0.3-0.3c0-4.8,0-9.7,0-14.5c0-0.2,0-0.3-0.3-0.3c-1.1,0-2.1,0-3.2,0c-0.1,0-0.2,0-0.2,0
					c0,5,0,10,0,15.1c0.1,0,0.2,0,0.2,0C36,53.2,37.1,53.2,38.2,53.2z"/>
				<path d="M56.7,53.2c0.3,0,0.3-0.1,0.3-0.3c0-3.5,0-7,0-10.5c0-0.1,0-0.2,0-0.3c-1.3,0-2.5,0-3.7,0c0,3.7,0,7.4,0,11.1
					c0.1,0,0.2,0,0.3,0C54.6,53.2,55.7,53.2,56.7,53.2z"/>
				<path d="M54.4,64.2c-0.5,0.1-0.9,0-1.4-0.2c-0.1-0.1-0.3-0.1-0.5-0.2c-0.9-0.2-1.7-0.1-2.4,0.5c-0.7,0.7-0.5,1.8,0.3,2.3
					c0.1,0,0.2,0.1,0.3,0.2c-0.3,0.1-0.6,0.2-0.9,0.3c-0.4,0.1-0.5,0.4-0.3,0.8c0.1,0.2,0.3,0.4,0.5,0.5c0.1,0.1,0.2,0.2,0.3,0.3
					c-0.2,0.1-0.3,0.2-0.4,0.2c-0.2,0.1-0.4,0.2-0.6,0.4c-0.4,0.3-0.4,0.7-0.1,1.1c0.2,0.2,0.5,0.4,0.7,0.5c0.7,0.2,1.5,0.1,2.2,0
					c0.7-0.1,1.3-0.3,1.8-0.8c0.4-0.4,0.5-0.8,0.4-1.3c-0.1-0.5-0.5-0.7-0.9-0.8c-0.5-0.1-0.9-0.1-1.4-0.2c-0.4,0-0.7,0-1.1-0.1
					c-0.2,0-0.3,0-0.3-0.3c0-0.2,0.1-0.3,0.3-0.4c0.3,0,0.6-0.1,0.8-0.1c1.3,0,2-0.7,2-1.9c0-0.2,0.1-0.3,0.3-0.3
					c0.2,0,0.5,0,0.7-0.1C54.9,64.2,54.8,64.1,54.4,64.2z M51.1,68.8c0.2,0,0.3,0,0.5,0c0,0,0,0,0,0c0.5,0.1,1,0.1,1.4,0.2
					c0.2,0,0.5,0.1,0.5,0.4c0.1,0.3-0.1,0.5-0.3,0.7c-0.5,0.4-1.1,0.5-1.8,0.5c-0.3,0-0.6-0.1-0.8-0.2c-0.5-0.2-0.6-0.8-0.3-1.2
					C50.5,68.9,50.8,68.8,51.1,68.8z M52.5,66.2c-0.1,0.3-0.4,0.5-0.7,0.5c-0.3,0-0.6-0.2-0.7-0.5c-0.2-0.6-0.2-1.2,0-1.8
					c0.1-0.3,0.4-0.5,0.7-0.5c0.4,0,0.6,0.2,0.7,0.5c0.1,0.3,0.1,0.5,0.2,0.8C52.6,65.6,52.6,65.9,52.5,66.2z"/>
				<path d="M68.3,63c0-0.1,0.1-0.2,0.1-0.2c0-0.4,0-0.7,0-1.1c0-0.4-0.1-0.5-0.5-0.5c-1.6,0-3.2,0-4.8,0c-0.1,0-0.2,0-0.2,0
					c-0.1,0-0.2,0.1-0.2,0.2c0,0,0.1,0.1,0.2,0.2c0.1,0,0.3,0,0.4,0.1c0.2,0,0.3,0.1,0.3,0.3c0,0.1,0,0.2,0,0.4c0,1.2,0,2.5-0.1,3.7
					c0,0.5,0,1,0,1.5c0,0.3-0.1,0.4-0.4,0.4c-0.1,0-0.3,0-0.4,0c-0.1,0-0.2,0.1-0.2,0.2c0,0.2,0.1,0.2,0.2,0.2c0.3,0,0.6,0,0.9,0
					c0.8,0,1.6,0,2.4,0c0.1,0,0.2-0.1,0.3-0.1c-0.1-0.1-0.1-0.2-0.2-0.2c-0.2-0.1-0.4-0.1-0.6-0.1c-0.4-0.1-0.5-0.2-0.5-0.6
					c0-0.3,0-0.7,0-1c0-0.4,0-0.7,0-1.1c0-0.1,0.1-0.3,0.2-0.3c0.5-0.1,1-0.1,1.5,0.1c0.4,0.1,0.4,0.5,0.5,0.8c0,0,0,0,0,0
					c0.1,0.1,0.1,0.1,0.2,0.2c0-0.1,0.1-0.1,0.1-0.2c0-0.7,0-1.4,0-2.1c0-0.1-0.1-0.1-0.1-0.2c-0.1,0.1-0.2,0.1-0.2,0.2
					c0,0.1-0.1,0.1-0.1,0.2c-0.1,0.3-0.3,0.5-0.6,0.6c-0.4,0-0.8,0.1-1.1,0.1c-0.2,0-0.3-0.1-0.3-0.4c0-0.6,0-1.2,0-1.8
					c0-0.1,0-0.2,0-0.3c0-0.2,0.2-0.3,0.4-0.4c0.3,0,0.7,0,1,0c0.7,0.1,1.4,0.3,1.5,1.1C68.1,62.9,68.2,62.9,68.3,63z"/>
				<path d="M29.4,68.1c-0.4-0.1-0.5-0.4-0.5-0.8c0-0.8,0-1.5,0-2.3c0-0.6-0.3-1.1-0.9-1.3c-0.4-0.1-0.9-0.2-1.3,0
					c-0.4,0.1-0.8,0.3-1.2,0.5c0-0.1,0-0.2,0-0.2c0-1,0-1.9,0-2.9c0-0.3-0.1-0.3-0.3-0.3c-0.4,0.1-0.8,0.3-1.2,0.4
					c-0.1,0-0.1,0.1-0.2,0.2c0.1,0.1,0.1,0.2,0.2,0.2c0.2,0.1,0.3,0.2,0.3,0.4c0,1.7,0,3.4,0,5.2c0,0.4,0,0.8-0.6,0.9
					c0,0-0.1,0-0.1,0c0,0-0.1,0.1-0.1,0.2c0,0,0.1,0.1,0.1,0.1c0.1,0,0.2,0,0.3,0c0.6,0,1.2,0,1.8,0c0.1,0,0.2,0,0.3,0
					c0.1,0,0.1-0.1,0.2-0.1c-0.1-0.1-0.1-0.1-0.2-0.2c-0.2,0-0.3-0.1-0.5-0.1c-0.2,0-0.2-0.2-0.2-0.3c0-0.8,0-1.6,0-2.4
					c0-0.3,0.1-0.5,0.3-0.6c0.5-0.3,1-0.3,1.5-0.1c0.2,0.1,0.4,0.3,0.4,0.6c0,0.8,0,1.6,0,2.4c0,0.3-0.2,0.5-0.5,0.5
					c-0.1,0-0.2,0.1-0.3,0.2c0.1,0.1,0.2,0.1,0.3,0.1c0.4,0,0.9,0,1.3,0c0.2,0,0.5,0,0.7,0c0.1,0,0.2-0.1,0.2-0.1
					C29.5,68.3,29.5,68.2,29.4,68.1z"/>
				<path d="M88,61.2c-0.1,0-0.2,0-0.2,0c0,0-0.1,0-0.1,0c-0.9,0.2-1.4,0.7-1.8,1.5c-0.5,1-0.5,2-0.4,3c0.1,0.5,0.2,1,0.4,1.4
					c0.4,0.8,1,1.3,2,1.4c1,0,1.7-0.4,2.1-1.2c0.8-1.6,0.8-3.3,0.1-4.9C89.6,61.7,88.9,61.2,88,61.2z M89,67
					c-0.1,0.3-0.2,0.6-0.4,0.8c-0.4,0.6-1.1,0.6-1.5,0c-0.2-0.3-0.3-0.6-0.3-0.9c-0.2-1.4-0.3-2.9,0.1-4.3c0.1-0.3,0.2-0.5,0.4-0.8
					c0.4-0.5,1-0.5,1.4,0c0.3,0.4,0.4,1,0.5,1.5c0.1,0.5,0.1,0.9,0.1,1.4c0,0,0,0,0.1,0C89.2,65.6,89.1,66.3,89,67z"/>
				<path d="M13.7,68.1C13.5,68,13.3,68,13.2,68c-0.4,0-0.5-0.1-0.5-0.5c0-0.1,0-0.2,0-0.4c0-0.8,0-1.5,0-2.3c0-0.9,0-1.7,0-2.6
					c0-0.3,0.1-0.4,0.4-0.4c0.3,0,0.5,0,0.8,0c0.7,0,1.3,0.1,1.4,1c0,0.1,0.1,0.1,0.2,0.2c0.1-0.1,0.1-0.1,0.2-0.2
					c0-0.6,0-1.2,0.1-1.7c0-0.1-0.1-0.1-0.1-0.2c-0.1,0-0.2,0.1-0.2,0.1c-0.1,0.2-0.3,0.3-0.5,0.4c-0.1,0-0.2,0-0.3,0
					c-1.6,0-3.1,0-4.7,0c-0.3,0-0.6,0-0.8-0.3C9,61.1,8.9,61,8.8,61c-0.1,0-0.2,0.1-0.2,0.2c-0.2,0.5-0.4,1.1-0.5,1.6
					c0,0.1,0,0.1,0,0.2c0,0.1,0,0.2,0.1,0.2c0.1,0,0.2,0,0.2-0.1c0.1-0.1,0.1-0.2,0.2-0.3c0.1-0.2,0.3-0.4,0.4-0.5
					c0.6-0.5,1.3-0.5,2-0.3c0.1,0,0.2,0.1,0.2,0.2c0,0.1,0,0.2,0,0.3c0,1.5,0,3.1,0,4.6c0,0.1,0,0.2,0,0.3c-0.1,0.4-0.2,0.5-0.6,0.6
					c-0.1,0-0.3,0-0.4,0.1c-0.1,0-0.1,0.1-0.1,0.2c0,0,0.1,0.1,0.2,0.1c0.1,0,0.1,0,0.2,0c0.7,0,1.5-0.1,2.2-0.1c0.3,0,0.7,0,1,0
					c0.1,0,0.2-0.1,0.2-0.2C13.8,68.2,13.8,68.1,13.7,68.1z"/>
				<path d="M89.9,49.3c-1.1,0-2,0.9-2,2.1c0,1.2,0.9,2,2.1,2c1.1,0,2-0.9,2-2C91.9,50.2,91,49.3,89.9,49.3z"/>
				<path d="M35.5,68.1c-0.4-0.1-0.4-0.1-0.4-0.6c0-0.7,0-1.4,0-2.2c0-1.1-0.7-1.8-1.9-1.6c-0.5,0.1-0.9,0.3-1.3,0.6
					c-0.2,0.1-0.2,0.1-0.3-0.1c0-0.2,0-0.4,0-0.7c-0.2,0.1-0.2,0.2-0.3,0.2c-0.4,0.3-0.7,0.5-1.1,0.8c-0.2,0.1-0.2,0.2,0,0.3
					c0.2,0.1,0.3,0.2,0.3,0.5c0,0.7,0,1.5,0,2.2c0,0.3-0.1,0.6-0.4,0.7c-0.1,0-0.1,0.1-0.2,0.2c0.1,0,0.2,0.1,0.2,0.1
					c0.7,0,1.4,0,2.2,0c0.1,0,0.2-0.1,0.3-0.1c-0.1-0.1-0.1-0.1-0.2-0.2c0,0-0.1,0-0.1,0c-0.5-0.1-0.6-0.2-0.6-0.7
					c0-0.7,0-1.5,0-2.2c0-0.3,0.2-0.6,0.5-0.7c0.2-0.1,0.5-0.1,0.7-0.2c0.6,0,1,0.2,1.1,0.8c0,0.8,0,1.7,0,2.5
					c0,0.2-0.1,0.3-0.3,0.4c-0.2,0-0.3,0.1-0.5,0.1c0,0,0,0.1,0,0.1c0.1,0,0.2,0.1,0.3,0.1c0.5,0,1,0,1.5,0c0.2,0,0.5,0,0.7,0
					c0.1,0,0.2-0.1,0.2-0.1c0-0.1-0.1-0.1-0.1-0.2C35.6,68.1,35.6,68.1,35.5,68.1z"/>
				<path d="M72.5,67.7c-0.4,0.1-0.5,0-0.5-0.3c0-0.7,0-1.4,0-2c0,0,0,0,0,0c0-0.2,0-0.4,0-0.6c0-0.5-0.3-0.8-0.7-0.9
					c-1-0.2-1.9,0-2.7,0.6c-0.2,0.2-0.3,0.4-0.5,0.6c-0.1,0.2,0,0.4,0.3,0.4c0.4,0,0.6-0.2,0.8-0.6c0.1-0.2,0.2-0.4,0.4-0.5
					c0.3-0.2,0.6-0.3,0.9-0.1c0.4,0.2,0.4,0.5,0.4,0.9c0,0.3-0.2,0.4-0.5,0.6c-0.5,0.2-1.1,0.5-1.6,0.8c-0.5,0.3-0.7,0.8-0.6,1.4
					c0,0.5,0.3,0.8,0.8,0.8c0.5,0,1-0.1,1.4-0.4c0.2-0.2,0.4-0.2,0.7,0c0.5,0.4,1.4,0.3,1.8-0.3c0.1-0.1,0-0.2,0.1-0.3
					c-0.1,0-0.2,0-0.3,0C72.6,67.7,72.5,67.7,72.5,67.7z M70.8,67.3c-0.1,0.4-0.2,0.6-0.6,0.6c-0.6,0.1-0.9-0.2-0.8-0.7
					c0.1-0.5,0.8-1.2,1.3-1.2c0.1,0,0.2,0.1,0.2,0.2c0,0.2,0,0.3,0,0.5c0,0,0,0,0,0C70.8,66.8,70.8,67.1,70.8,67.3z"/>
				<path d="M84.1,64c-0.3-0.2-0.6-0.3-0.9-0.4c-0.4-0.1-0.7-0.1-1.1-0.2c-0.1,0-0.3-0.1-0.3-0.2c-0.1-0.4,0.1-0.7,0.5-0.7
					c0.6-0.1,1.1-0.1,1.7-0.1c0.2,0,0.4,0,0.5-0.1c0.1-0.3,0.1-0.6,0.1-0.8c0,0-0.3-0.1-0.5-0.1c-0.1,0-0.1,0-0.2,0c0,0,0,0,0,0
					c-0.6,0.1-1.2,0.1-1.7,0.2c-0.2,0-0.3,0.1-0.4,0.3c-0.2,0.7-0.4,1.5-0.6,2.2c-0.1,0.4-0.1,0.5,0.4,0.5c0.5,0.1,1,0.1,1.5,0.3
					c0.5,0.2,0.9,0.6,0.9,1.1c0.1,0.7-0.2,1.4-0.8,1.8c-0.5,0.5-1.2,0.7-1.9,0.9c-0.1,0-0.2,0.1-0.2,0.2c0.1,0.1,0.2,0.1,0.3,0.2
					c0,0,0.1,0,0.1,0c0.8-0.1,1.5-0.3,2.2-0.8c0.9-0.6,1.5-1.5,1.4-2.6C84.9,64.9,84.6,64.4,84.1,64z"/>
				<path d="M57,40.8c0-0.8,0-1.6,0-2.4c0-0.2-0.1-0.3-0.3-0.3c-1.1,0-2.1,0-3.2,0c-0.1,0-0.2,0-0.3,0c0,1,0,1.9,0,2.9
					c1.2,0,2.5,0,3.7,0C57,40.9,57,40.8,57,40.8z"/>
				<path d="M48.7,64.6c-0.7-0.8-1.6-1-2.6-0.9c-1.6,0.2-2.6,1.8-2,3.3c0.3,1,1.4,1.6,2.5,1.7c0.3,0,0.5-0.1,0.8-0.1
					C49.1,68,49.8,66,48.7,64.6z M47.5,67.8c-0.5,0.7-1.3,0.7-1.9,0.1c-0.5-0.6-0.6-1.4-0.5-2.2c0.1-0.5,0.2-1,0.6-1.3
					c0.5-0.5,1.2-0.5,1.7,0.1c0.3,0.4,0.5,1,0.5,1.5C48,66.7,47.9,67.3,47.5,67.8z"/>
				<path d="M40.3,64.4c-0.9-0.8-2.4-0.9-3.5-0.2c-0.8,0.5-1.1,1.3-1,2.2c0.2,1.3,1.3,2.2,2.6,2.2c0.3,0,0.5-0.1,0.8-0.1
					c0.9-0.3,1.6-0.8,1.8-1.8C41.2,65.8,41,65,40.3,64.4z M39.4,67.8c-0.5,0.7-1.4,0.7-1.9,0C37,67.2,37,66.4,37,65.7
					c0.1-0.5,0.2-1,0.6-1.3c0.5-0.5,1.2-0.5,1.7,0.1c0.4,0.5,0.5,1.1,0.5,1.8C39.8,66.8,39.7,67.3,39.4,67.8z"/>
				<path d="M17.6,63.9c-0.9-0.4-1.7-0.2-2.4,0.3c-0.8,0.6-1.1,1.5-1,2.4c0.3,1.4,1.4,2.2,2.8,1.9c0.6-0.1,1.1-0.4,1.4-0.9
					c0.1-0.1,0-0.2,0.1-0.3c-0.1,0-0.2,0-0.3,0c-0.2,0.1-0.4,0.2-0.6,0.3c-1,0.5-2.3-0.4-2.2-1.5c0-0.3,0.1-0.4,0.4-0.4
					c0.2,0,0.4,0,0.7,0c0.7,0,1.4,0,2.2,0C18.8,65.1,18.3,64.2,17.6,63.9z M17.6,64.9c0,0.3-0.2,0.4-0.5,0.4c-0.3,0-0.5,0.1-0.8,0.1
					c0,0,0,0,0,0c-0.2,0-0.4,0-0.5,0c-0.2,0-0.2-0.1-0.2-0.2c0-0.8,1-1.4,1.7-1.1C17.5,64.3,17.6,64.5,17.6,64.9z"/>
				<path d="M58.4,63.9c-0.1,0-0.1,0.1-0.2,0.1c0,0,0.1,0.1,0.1,0.1c0,0,0.1,0,0.1,0.1c0.3,0.1,0.4,0.2,0.4,0.6
					c0,0.1-0.1,0.3-0.1,0.4c-0.3,0.6-0.5,1.2-0.8,1.8c0,0.1-0.1,0.2-0.2,0.3c-0.1-0.1-0.1-0.2-0.1-0.3c-0.3-0.7-0.5-1.4-0.8-2.1
					c-0.2-0.4-0.1-0.6,0.4-0.7c0.1,0,0.2-0.1,0.2-0.2c-0.1,0-0.2-0.1-0.3-0.1c-0.6,0-1.3,0-1.9,0c-0.1,0-0.2,0.1-0.3,0.1
					c0.1,0.1,0.1,0.2,0.2,0.3c0.2,0.1,0.4,0.2,0.4,0.5c0.5,1.2,0.9,2.3,1.4,3.5c0.2,0.5,0,0.9-0.2,1.4c-0.2,0.3-0.5,0.3-0.9,0.3
					c-0.3,0-0.5,0.1-0.5,0.4c-0.1,0.3,0,0.6,0.3,0.7c0.4,0.2,0.8,0.1,1.1-0.3c0.1-0.2,0.2-0.4,0.3-0.5c0.2-0.5,0.4-1,0.6-1.5
					c0.6-1.3,1.2-2.7,1.9-4c0.1-0.2,0.3-0.3,0.4-0.4c0.1-0.1,0.1-0.1,0.1-0.2c-0.1,0-0.1-0.1-0.2-0.1C59.4,63.9,58.9,63.9,58.4,63.9
					z"/>
				<path d="M43.8,68.1c-0.1-0.1-0.3-0.1-0.4-0.1c-0.3,0-0.3-0.2-0.3-0.4c0-1,0-2.1,0-3.1c0-1,0-2,0-3.1c0-0.1,0-0.2,0-0.3
					c0-0.1-0.1-0.2-0.2-0.1c-0.4,0.2-0.9,0.3-1.3,0.5c-0.1,0-0.2,0.1-0.2,0.2c0,0.1,0.1,0.2,0.2,0.2c0.3,0.1,0.4,0.4,0.4,0.7
					c0,1.6,0,3.2,0,4.7c0,0.8,0,0.7-0.7,0.9c0,0,0,0-0.1,0c-0.1,0.1-0.1,0.1-0.2,0.2c0.1,0,0.2,0.1,0.3,0.1c0.7,0,1.5,0,2.2,0
					c0.1,0,0.2,0,0.3,0c0.1,0,0.2-0.1,0.2-0.1C44,68.2,43.9,68.2,43.8,68.1z"/>
				<path d="M75.2,65.5c-0.3-0.1-0.6-0.3-0.8-0.4c-0.2-0.1-0.3-0.2-0.3-0.5c0-0.2,0.2-0.4,0.4-0.4c0.5-0.2,1.1,0,1.3,0.5
					c0.1,0.1,0.1,0.2,0.2,0.3c0,0,0.1,0.1,0.2,0.1c0,0,0.1-0.1,0.1-0.2c0-0.1,0-0.3,0-0.4c0,0,0,0,0.1,0c-0.1-0.2-0.1-0.4-0.2-0.5
					c-0.7-0.5-2-0.3-2.6,0.2c-0.6,0.6-0.6,1.5,0.2,1.9c0.3,0.2,0.7,0.3,1,0.5c0.2,0.1,0.5,0.3,0.7,0.5c0.4,0.4,0.2,0.9-0.3,1.1
					c-0.5,0.2-1.3,0.1-1.6-0.7c0,0,0-0.1-0.1-0.1c0-0.1-0.1-0.1-0.2-0.1c-0.1,0-0.1,0.1-0.2,0.2c0,0.2,0,0.4-0.1,0.6
					c0,0.3,0.1,0.5,0.4,0.5c0.8,0.3,1.7,0.3,2.5-0.1c0.9-0.4,1-1.6,0.3-2.3C75.9,65.8,75.6,65.7,75.2,65.5z"/>
				<path d="M23.1,63.9c-0.3-0.1-0.6-0.1-0.9-0.2c-1.1-0.1-2.1,0.3-2.7,1.2c-0.9,1.2-0.4,3,1,3.5c0.6,0.2,1.2,0.2,1.8,0.1
					c0.4-0.1,0.8-0.2,1.1-0.5c0.1-0.1,0.1-0.2,0.1-0.3c-0.1,0-0.2,0-0.3,0c0,0-0.1,0-0.1,0.1c-1.3,0.7-2.7-0.1-2.7-1.6
					c0-0.6,0.1-1.1,0.5-1.5c0.4-0.6,1.3-0.8,1.7,0c0.1,0.1,0.1,0.2,0.2,0.3c0.1,0.1,0.3,0.2,0.4,0.2c0.2,0,0.3-0.1,0.4-0.3
					C23.6,64.3,23.5,64,23.1,63.9z"/>
				<path d="M78.9,64.5c0.3,0,0.7,0,1,0c0.3,0,0.2-0.2,0.2-0.3c0-0.2-0.1-0.3-0.2-0.3c-0.3,0-0.6,0-0.9,0c-0.2,0-0.3-0.1-0.3-0.2
					c0-0.1,0-0.3,0-0.4c0-0.1-0.1-0.2-0.1-0.2c-0.1,0-0.2,0.1-0.2,0.1c-0.1,0.1-0.1,0.2-0.2,0.2c-0.3,0.3-0.6,0.5-0.9,0.7
					c-0.1,0.1-0.2,0.1-0.3,0.2c-0.1,0-0.2,0.2-0.1,0.2c0,0.1,0.1,0.1,0.2,0.2c0.1,0,0.2,0,0.4,0c0,0.1,0,0.2,0,0.4
					c0,0.8,0,1.6,0,2.4c0,0.4,0.1,0.7,0.3,0.9c0.5,0.5,1.8,0.3,2.2-0.3c0,0,0,0,0,0c0-0.1,0-0.2,0-0.2c0,0-0.1-0.1-0.2,0
					c-0.2,0-0.4,0.1-0.7,0.1c-0.4,0-0.6-0.1-0.6-0.5c0-0.8,0-1.7,0-2.5C78.6,64.6,78.7,64.5,78.9,64.5z"/>
			</g>
		</g>
	</g>
</g>
<g id="ICONS_-_DARK_PURPLE" display="none">
	<g display="inline">
		<g>
			<g>
				<path fill="#4F2556" d="M12.8,53.2c1.2,0,2.3-0.2,3.4-0.5c2.2-0.7,3.8-2.1,4.7-4.3c0.5-1.5,0.6-3,0.3-4.5c-0.3-2-1.3-3.5-3-4.6
					c-1.5-0.9-3.2-1.3-5-1.4c-1.3,0-2.6,0-3.9,0.1C8.8,38,8.4,38,8.1,38c0,5.1,0,10.1,0,15.2c0.1,0,0.1,0,0.2,0
					C9.8,53.2,11.3,53.2,12.8,53.2z M11.8,41c1.3-0.2,2.6-0.1,3.8,0.7c1,0.6,1.5,1.6,1.8,2.7c0.2,1,0.2,1.9-0.1,2.9
					c-0.5,1.7-1.7,2.6-3.4,2.9c-0.7,0.1-1.4,0.1-2.1,0.1C11.8,47.1,11.8,44.1,11.8,41z"/>
				<path fill="#4F2556" d="M43.5,53c1.1,0.4,2.2,0.5,3.3,0.3c1.9-0.3,3.4-1.2,4.2-2.9c0.7-1.5,0.8-3,0.4-4.6
					c-0.3-1.4-1.1-2.5-2.3-3.2c-1-0.6-2-0.8-3.2-0.8c-0.5,0-0.9,0.1-1.4,0.2c-1.9,0.4-3.3,1.4-4,3.2c-0.6,1.4-0.7,2.9-0.3,4.4
					C40.8,51.2,41.9,52.4,43.5,53z M43.9,47.3c0-0.6,0.1-1.2,0.4-1.7c0.3-0.6,0.7-1,1.4-1c0.6-0.1,1.1,0.1,1.4,0.6
					c0.5,0.6,0.6,1.4,0.7,2.2c0,0.1,0,0.1,0,0.2c0,0.7-0.1,1.4-0.4,2c-0.3,0.6-0.8,1-1.5,1c-0.7,0-1.2-0.3-1.5-0.9
					C44,49,43.9,48.2,43.9,47.3z"/>
				<path fill="#4F2556" d="M26.1,53.1c1.5,0.5,3.1,0.5,4.6,0.2c0.6-0.1,1.1-0.3,1.7-0.5c-0.2-0.9-0.4-1.8-0.6-2.6
					c-0.7,0.1-1.4,0.3-2.2,0.4c-0.8,0.1-1.6,0-2.4-0.3c-0.6-0.3-1-0.7-1.2-1.4c2.3,0,4.6,0,6.9,0c0.2-1.6,0.2-3-0.5-4.5
					c-0.6-1.2-1.5-2-2.8-2.4c-0.7-0.2-1.4-0.2-2.2-0.2c-1.6,0.1-3,0.8-3.9,2.2c-0.9,1.4-1.2,2.9-1,4.5
					C22.7,50.8,23.9,52.3,26.1,53.1z M26.8,44.8c0.6-0.4,1.3-0.5,1.9-0.1c0.6,0.3,0.9,0.9,0.9,1.7c-1.2,0-2.4,0-3.6,0
					C26,45.6,26.2,45.1,26.8,44.8z"/>
				<path fill="#4F2556" d="M85.5,52.5c-0.2-0.8-0.3-1.6-0.5-2.4c-0.2,0.1-0.3,0.1-0.5,0.1c-0.8,0.2-1.6,0.4-2.5,0.3
					c-0.7,0-1.4-0.2-2.1-0.6c-0.4-0.3-0.6-0.7-0.7-1.2c0.2,0,0.3,0,0.4,0c2.1,0,4.1,0,6.2,0c0.2,0,0.3-0.1,0.3-0.3
					c0.2-1.2,0.1-2.5-0.3-3.6c-0.5-1.4-1.4-2.4-2.8-2.8c-0.8-0.3-1.6-0.3-2.4-0.3c-1.7,0.1-3,0.9-3.9,2.3c-0.9,1.5-1.2,3.1-0.9,4.9
					c0.3,1.7,1.3,3,2.9,3.8c1.2,0.6,2.5,0.7,3.8,0.6c1,0,2-0.3,2.9-0.6C85.5,52.8,85.5,52.7,85.5,52.5z M80,44.7
					c0.6-0.4,1.3-0.5,2-0.1c0.6,0.4,0.8,0.9,0.9,1.6c-1.2,0-2.4,0-3.6,0C79.2,45.6,79.5,45.1,80,44.7z"/>
				<path fill="#4F2556" d="M66.2,53.2c0.2,0,0.2-0.1,0.2-0.3c0-0.9,0-1.7,0-2.6c0,0,0-0.1,0-0.1c-0.5,0-1.1,0.1-1.6,0.1
					c-0.5,0-0.9-0.3-1-0.8c-0.1-0.2-0.1-0.5-0.1-0.7c0-1.2,0-2.4,0-3.6c0-0.1,0-0.2,0-0.3c0.8,0,1.6,0,2.4,0c0-0.9,0-1.9,0-2.8
					c-0.8,0-1.6,0-2.4,0c0-1.2,0-2.3,0-3.4c-1.2,0.1-2.4,0.3-3.7,0.4c0,1,0,2,0,3c-0.5,0-0.9,0-1.4,0c0,0.9,0,1.9,0,2.8
					c0.2,0,0.5,0,0.7,0c0.2,0,0.5,0,0.7,0c0,0.2,0,0.3,0,0.4c0,1.4,0,2.8,0,4.2c0,0.4,0,0.9,0.1,1.3c0.3,1.6,1.3,2.6,2.9,2.8
					C64,53.5,65.1,53.4,66.2,53.2z"/>
				<path fill="#4F2556" d="M68.5,45.2c0,1.4,0,2.7,0,4.1c0,0.4,0,0.8,0.1,1.2c0.2,1.6,1.1,2.5,2.7,2.8c0.7,0.2,1.5,0.1,2.2,0
					c0.5-0.1,0.9-0.2,1.4-0.2c0-1,0-2,0-2.9c-0.5,0-0.9,0.1-1.3,0.1c-0.8,0-1.3-0.4-1.4-1.3c0-1.4,0-2.7,0-4.1c0,0,0-0.1,0-0.1
					c0.8,0,1.5,0,2.3,0c0-0.9,0-1.9,0-2.8c-0.8,0-1.6,0-2.4,0c0-0.6,0-1.1,0-1.7c0-0.6,0-1.1,0-1.7c-0.1,0-0.1,0-0.2,0
					c-1.1,0.1-2.2,0.3-3.3,0.4c-0.2,0-0.2,0.1-0.2,0.2c0,0.6,0,1.2,0,1.8c0,0.3,0,0.7,0,1c-0.5,0-0.9,0-1.4,0c0,0.9,0,1.9,0,2.8
					c0.5,0,0.9,0,1.4,0C68.5,45,68.5,45.1,68.5,45.2z"/>
				<path fill="#4F2556" d="M38.2,53.2c0.2,0,0.3-0.1,0.3-0.3c0-4.8,0-9.7,0-14.5c0-0.2,0-0.3-0.3-0.3c-1.1,0-2.1,0-3.2,0
					c-0.1,0-0.2,0-0.2,0c0,5,0,10,0,15.1c0.1,0,0.2,0,0.2,0C36,53.2,37.1,53.2,38.2,53.2z"/>
				<path fill="#4F2556" d="M56.7,53.2c0.3,0,0.3-0.1,0.3-0.3c0-3.5,0-7,0-10.5c0-0.1,0-0.2,0-0.3c-1.3,0-2.5,0-3.7,0
					c0,3.7,0,7.4,0,11.1c0.1,0,0.2,0,0.3,0C54.6,53.2,55.7,53.2,56.7,53.2z"/>
				<path fill="#4F2556" d="M54.4,64.2c-0.5,0.1-0.9,0-1.4-0.2c-0.1-0.1-0.3-0.1-0.5-0.2c-0.9-0.2-1.7-0.1-2.4,0.5
					c-0.7,0.7-0.5,1.8,0.3,2.3c0.1,0,0.2,0.1,0.3,0.2c-0.3,0.1-0.6,0.2-0.9,0.3c-0.4,0.1-0.5,0.4-0.3,0.8c0.1,0.2,0.3,0.4,0.5,0.5
					c0.1,0.1,0.2,0.2,0.3,0.3c-0.2,0.1-0.3,0.2-0.4,0.2c-0.2,0.1-0.4,0.2-0.6,0.4c-0.4,0.3-0.4,0.7-0.1,1.1c0.2,0.2,0.5,0.4,0.7,0.5
					c0.7,0.2,1.5,0.1,2.2,0c0.7-0.1,1.3-0.3,1.8-0.8c0.4-0.4,0.5-0.8,0.4-1.3c-0.1-0.5-0.5-0.7-0.9-0.8c-0.5-0.1-0.9-0.1-1.4-0.2
					c-0.4,0-0.7,0-1.1-0.1c-0.2,0-0.3,0-0.3-0.3c0-0.2,0.1-0.3,0.3-0.4c0.3,0,0.6-0.1,0.8-0.1c1.3,0,2-0.7,2-1.9
					c0-0.2,0.1-0.3,0.3-0.3c0.2,0,0.5,0,0.7-0.1C54.9,64.2,54.8,64.1,54.4,64.2z M51.1,68.8c0.2,0,0.3,0,0.5,0c0,0,0,0,0,0
					c0.5,0.1,1,0.1,1.4,0.2c0.2,0,0.5,0.1,0.5,0.4c0.1,0.3-0.1,0.5-0.3,0.7c-0.5,0.4-1.1,0.5-1.8,0.5c-0.3,0-0.6-0.1-0.8-0.2
					c-0.5-0.2-0.6-0.8-0.3-1.2C50.5,68.9,50.8,68.8,51.1,68.8z M52.5,66.2c-0.1,0.3-0.4,0.5-0.7,0.5c-0.3,0-0.6-0.2-0.7-0.5
					c-0.2-0.6-0.2-1.2,0-1.8c0.1-0.3,0.4-0.5,0.7-0.5c0.4,0,0.6,0.2,0.7,0.5c0.1,0.3,0.1,0.5,0.2,0.8C52.6,65.6,52.6,65.9,52.5,66.2
					z"/>
				<path fill="#4F2556" d="M68.3,63c0-0.1,0.1-0.2,0.1-0.2c0-0.4,0-0.7,0-1.1c0-0.4-0.1-0.5-0.5-0.5c-1.6,0-3.2,0-4.8,0
					c-0.1,0-0.2,0-0.2,0c-0.1,0-0.2,0.1-0.2,0.2c0,0,0.1,0.1,0.2,0.2c0.1,0,0.3,0,0.4,0.1c0.2,0,0.3,0.1,0.3,0.3c0,0.1,0,0.2,0,0.4
					c0,1.2,0,2.5-0.1,3.7c0,0.5,0,1,0,1.5c0,0.3-0.1,0.4-0.4,0.4c-0.1,0-0.3,0-0.4,0c-0.1,0-0.2,0.1-0.2,0.2c0,0.2,0.1,0.2,0.2,0.2
					c0.3,0,0.6,0,0.9,0c0.8,0,1.6,0,2.4,0c0.1,0,0.2-0.1,0.3-0.1c-0.1-0.1-0.1-0.2-0.2-0.2c-0.2-0.1-0.4-0.1-0.6-0.1
					c-0.4-0.1-0.5-0.2-0.5-0.6c0-0.3,0-0.7,0-1c0-0.4,0-0.7,0-1.1c0-0.1,0.1-0.3,0.2-0.3c0.5-0.1,1-0.1,1.5,0.1
					c0.4,0.1,0.4,0.5,0.5,0.8c0,0,0,0,0,0c0.1,0.1,0.1,0.1,0.2,0.2c0-0.1,0.1-0.1,0.1-0.2c0-0.7,0-1.4,0-2.1c0-0.1-0.1-0.1-0.1-0.2
					c-0.1,0.1-0.2,0.1-0.2,0.2c0,0.1-0.1,0.1-0.1,0.2c-0.1,0.3-0.3,0.5-0.6,0.6c-0.4,0-0.8,0.1-1.1,0.1c-0.2,0-0.3-0.1-0.3-0.4
					c0-0.6,0-1.2,0-1.8c0-0.1,0-0.2,0-0.3c0-0.2,0.2-0.3,0.4-0.4c0.3,0,0.7,0,1,0c0.7,0.1,1.4,0.3,1.5,1.1
					C68.1,62.9,68.2,62.9,68.3,63z"/>
				<path fill="#4F2556" d="M29.4,68.1c-0.4-0.1-0.5-0.4-0.5-0.8c0-0.8,0-1.5,0-2.3c0-0.6-0.3-1.1-0.9-1.3c-0.4-0.1-0.9-0.2-1.3,0
					c-0.4,0.1-0.8,0.3-1.2,0.5c0-0.1,0-0.2,0-0.2c0-1,0-1.9,0-2.9c0-0.3-0.1-0.3-0.3-0.3c-0.4,0.1-0.8,0.3-1.2,0.4
					c-0.1,0-0.1,0.1-0.2,0.2c0.1,0.1,0.1,0.2,0.2,0.2c0.2,0.1,0.3,0.2,0.3,0.4c0,1.7,0,3.4,0,5.2c0,0.4,0,0.8-0.6,0.9
					c0,0-0.1,0-0.1,0c0,0-0.1,0.1-0.1,0.2c0,0,0.1,0.1,0.1,0.1c0.1,0,0.2,0,0.3,0c0.6,0,1.2,0,1.8,0c0.1,0,0.2,0,0.3,0
					c0.1,0,0.1-0.1,0.2-0.1c-0.1-0.1-0.1-0.1-0.2-0.2c-0.2,0-0.3-0.1-0.5-0.1c-0.2,0-0.2-0.2-0.2-0.3c0-0.8,0-1.6,0-2.4
					c0-0.3,0.1-0.5,0.3-0.6c0.5-0.3,1-0.3,1.5-0.1c0.2,0.1,0.4,0.3,0.4,0.6c0,0.8,0,1.6,0,2.4c0,0.3-0.2,0.5-0.5,0.5
					c-0.1,0-0.2,0.1-0.3,0.2c0.1,0.1,0.2,0.1,0.3,0.1c0.4,0,0.9,0,1.3,0c0.2,0,0.5,0,0.7,0c0.1,0,0.2-0.1,0.2-0.1
					C29.5,68.3,29.5,68.2,29.4,68.1z"/>
				<path fill="#4F2556" d="M88,61.2c-0.1,0-0.2,0-0.2,0c0,0-0.1,0-0.1,0c-0.9,0.2-1.4,0.7-1.8,1.5c-0.5,1-0.5,2-0.4,3
					c0.1,0.5,0.2,1,0.4,1.4c0.4,0.8,1,1.3,2,1.4c1,0,1.7-0.4,2.1-1.2c0.8-1.6,0.8-3.3,0.1-4.9C89.6,61.7,88.9,61.2,88,61.2z M89,67
					c-0.1,0.3-0.2,0.6-0.4,0.8c-0.4,0.6-1.1,0.6-1.5,0c-0.2-0.3-0.3-0.6-0.3-0.9c-0.2-1.4-0.3-2.9,0.1-4.3c0.1-0.3,0.2-0.5,0.4-0.8
					c0.4-0.5,1-0.5,1.4,0c0.3,0.4,0.4,1,0.5,1.5c0.1,0.5,0.1,0.9,0.1,1.4c0,0,0,0,0.1,0C89.2,65.6,89.1,66.3,89,67z"/>
				<path fill="#4F2556" d="M13.7,68.1C13.5,68,13.3,68,13.2,68c-0.4,0-0.5-0.1-0.5-0.5c0-0.1,0-0.2,0-0.4c0-0.8,0-1.5,0-2.3
					c0-0.9,0-1.7,0-2.6c0-0.3,0.1-0.4,0.4-0.4c0.3,0,0.5,0,0.8,0c0.7,0,1.3,0.1,1.4,1c0,0.1,0.1,0.1,0.2,0.2
					c0.1-0.1,0.1-0.1,0.2-0.2c0-0.6,0-1.2,0.1-1.7c0-0.1-0.1-0.1-0.1-0.2c-0.1,0-0.2,0.1-0.2,0.1c-0.1,0.2-0.3,0.3-0.5,0.4
					c-0.1,0-0.2,0-0.3,0c-1.6,0-3.1,0-4.7,0c-0.3,0-0.6,0-0.8-0.3C9,61.1,8.9,61,8.8,61c-0.1,0-0.2,0.1-0.2,0.2
					c-0.2,0.5-0.4,1.1-0.5,1.6c0,0.1,0,0.1,0,0.2c0,0.1,0,0.2,0.1,0.2c0.1,0,0.2,0,0.2-0.1c0.1-0.1,0.1-0.2,0.2-0.3
					c0.1-0.2,0.3-0.4,0.4-0.5c0.6-0.5,1.3-0.5,2-0.3c0.1,0,0.2,0.1,0.2,0.2c0,0.1,0,0.2,0,0.3c0,1.5,0,3.1,0,4.6c0,0.1,0,0.2,0,0.3
					c-0.1,0.4-0.2,0.5-0.6,0.6c-0.1,0-0.3,0-0.4,0.1c-0.1,0-0.1,0.1-0.1,0.2c0,0,0.1,0.1,0.2,0.1c0.1,0,0.1,0,0.2,0
					c0.7,0,1.5-0.1,2.2-0.1c0.3,0,0.7,0,1,0c0.1,0,0.2-0.1,0.2-0.2C13.8,68.2,13.8,68.1,13.7,68.1z"/>
				<path fill="#4F2556" d="M89.9,49.3c-1.1,0-2,0.9-2,2.1c0,1.2,0.9,2,2.1,2c1.1,0,2-0.9,2-2C91.9,50.2,91,49.3,89.9,49.3z"/>
				<path fill="#4F2556" d="M35.5,68.1c-0.4-0.1-0.4-0.1-0.4-0.6c0-0.7,0-1.4,0-2.2c0-1.1-0.7-1.8-1.9-1.6c-0.5,0.1-0.9,0.3-1.3,0.6
					c-0.2,0.1-0.2,0.1-0.3-0.1c0-0.2,0-0.4,0-0.7c-0.2,0.1-0.2,0.2-0.3,0.2c-0.4,0.3-0.7,0.5-1.1,0.8c-0.2,0.1-0.2,0.2,0,0.3
					c0.2,0.1,0.3,0.2,0.3,0.5c0,0.7,0,1.5,0,2.2c0,0.3-0.1,0.6-0.4,0.7c-0.1,0-0.1,0.1-0.2,0.2c0.1,0,0.2,0.1,0.2,0.1
					c0.7,0,1.4,0,2.2,0c0.1,0,0.2-0.1,0.3-0.1c-0.1-0.1-0.1-0.1-0.2-0.2c0,0-0.1,0-0.1,0c-0.5-0.1-0.6-0.2-0.6-0.7
					c0-0.7,0-1.5,0-2.2c0-0.3,0.2-0.6,0.5-0.7c0.2-0.1,0.5-0.1,0.7-0.2c0.6,0,1,0.2,1.1,0.8c0,0.8,0,1.7,0,2.5
					c0,0.2-0.1,0.3-0.3,0.4c-0.2,0-0.3,0.1-0.5,0.1c0,0,0,0.1,0,0.1c0.1,0,0.2,0.1,0.3,0.1c0.5,0,1,0,1.5,0c0.2,0,0.5,0,0.7,0
					c0.1,0,0.2-0.1,0.2-0.1c0-0.1-0.1-0.1-0.1-0.2C35.6,68.1,35.6,68.1,35.5,68.1z"/>
				<path fill="#4F2556" d="M72.5,67.7c-0.4,0.1-0.5,0-0.5-0.3c0-0.7,0-1.4,0-2c0,0,0,0,0,0c0-0.2,0-0.4,0-0.6
					c0-0.5-0.3-0.8-0.7-0.9c-1-0.2-1.9,0-2.7,0.6c-0.2,0.2-0.3,0.4-0.5,0.6c-0.1,0.2,0,0.4,0.3,0.4c0.4,0,0.6-0.2,0.8-0.6
					c0.1-0.2,0.2-0.4,0.4-0.5c0.3-0.2,0.6-0.3,0.9-0.1c0.4,0.2,0.4,0.5,0.4,0.9c0,0.3-0.2,0.4-0.5,0.6c-0.5,0.2-1.1,0.5-1.6,0.8
					c-0.5,0.3-0.7,0.8-0.6,1.4c0,0.5,0.3,0.8,0.8,0.8c0.5,0,1-0.1,1.4-0.4c0.2-0.2,0.4-0.2,0.7,0c0.5,0.4,1.4,0.3,1.8-0.3
					c0.1-0.1,0-0.2,0.1-0.3c-0.1,0-0.2,0-0.3,0C72.6,67.7,72.5,67.7,72.5,67.7z M70.8,67.3c-0.1,0.4-0.2,0.6-0.6,0.6
					c-0.6,0.1-0.9-0.2-0.8-0.7c0.1-0.5,0.8-1.2,1.3-1.2c0.1,0,0.2,0.1,0.2,0.2c0,0.2,0,0.3,0,0.5c0,0,0,0,0,0
					C70.8,66.8,70.8,67.1,70.8,67.3z"/>
				<path fill="#4F2556" d="M84.1,64c-0.3-0.2-0.6-0.3-0.9-0.4c-0.4-0.1-0.7-0.1-1.1-0.2c-0.1,0-0.3-0.1-0.3-0.2
					c-0.1-0.4,0.1-0.7,0.5-0.7c0.6-0.1,1.1-0.1,1.7-0.1c0.2,0,0.4,0,0.5-0.1c0.1-0.3,0.1-0.6,0.1-0.8c0,0-0.3-0.1-0.5-0.1
					c-0.1,0-0.1,0-0.2,0c0,0,0,0,0,0c-0.6,0.1-1.2,0.1-1.7,0.2c-0.2,0-0.3,0.1-0.4,0.3c-0.2,0.7-0.4,1.5-0.6,2.2
					c-0.1,0.4-0.1,0.5,0.4,0.5c0.5,0.1,1,0.1,1.5,0.3c0.5,0.2,0.9,0.6,0.9,1.1c0.1,0.7-0.2,1.4-0.8,1.8c-0.5,0.5-1.2,0.7-1.9,0.9
					c-0.1,0-0.2,0.1-0.2,0.2c0.1,0.1,0.2,0.1,0.3,0.2c0,0,0.1,0,0.1,0c0.8-0.1,1.5-0.3,2.2-0.8c0.9-0.6,1.5-1.5,1.4-2.6
					C84.9,64.9,84.6,64.4,84.1,64z"/>
				<path fill="#4F2556" d="M57,40.8c0-0.8,0-1.6,0-2.4c0-0.2-0.1-0.3-0.3-0.3c-1.1,0-2.1,0-3.2,0c-0.1,0-0.2,0-0.3,0
					c0,1,0,1.9,0,2.9c1.2,0,2.5,0,3.7,0C57,40.9,57,40.8,57,40.8z"/>
				<path fill="#4F2556" d="M48.7,64.6c-0.7-0.8-1.6-1-2.6-0.9c-1.6,0.2-2.6,1.8-2,3.3c0.3,1,1.4,1.6,2.5,1.7c0.3,0,0.5-0.1,0.8-0.1
					C49.1,68,49.8,66,48.7,64.6z M47.5,67.8c-0.5,0.7-1.3,0.7-1.9,0.1c-0.5-0.6-0.6-1.4-0.5-2.2c0.1-0.5,0.2-1,0.6-1.3
					c0.5-0.5,1.2-0.5,1.7,0.1c0.3,0.4,0.5,1,0.5,1.5C48,66.7,47.9,67.3,47.5,67.8z"/>
				<path fill="#4F2556" d="M40.3,64.4c-0.9-0.8-2.4-0.9-3.5-0.2c-0.8,0.5-1.1,1.3-1,2.2c0.2,1.3,1.3,2.2,2.6,2.2
					c0.3,0,0.5-0.1,0.8-0.1c0.9-0.3,1.6-0.8,1.8-1.8C41.2,65.8,41,65,40.3,64.4z M39.4,67.8c-0.5,0.7-1.4,0.7-1.9,0
					C37,67.2,37,66.4,37,65.7c0.1-0.5,0.2-1,0.6-1.3c0.5-0.5,1.2-0.5,1.7,0.1c0.4,0.5,0.5,1.1,0.5,1.8
					C39.8,66.8,39.7,67.3,39.4,67.8z"/>
				<path fill="#4F2556" d="M17.6,63.9c-0.9-0.4-1.7-0.2-2.4,0.3c-0.8,0.6-1.1,1.5-1,2.4c0.3,1.4,1.4,2.2,2.8,1.9
					c0.6-0.1,1.1-0.4,1.4-0.9c0.1-0.1,0-0.2,0.1-0.3c-0.1,0-0.2,0-0.3,0c-0.2,0.1-0.4,0.2-0.6,0.3c-1,0.5-2.3-0.4-2.2-1.5
					c0-0.3,0.1-0.4,0.4-0.4c0.2,0,0.4,0,0.7,0c0.7,0,1.4,0,2.2,0C18.8,65.1,18.3,64.2,17.6,63.9z M17.6,64.9c0,0.3-0.2,0.4-0.5,0.4
					c-0.3,0-0.5,0.1-0.8,0.1c0,0,0,0,0,0c-0.2,0-0.4,0-0.5,0c-0.2,0-0.2-0.1-0.2-0.2c0-0.8,1-1.4,1.7-1.1
					C17.5,64.3,17.6,64.5,17.6,64.9z"/>
				<path fill="#4F2556" d="M58.4,63.9c-0.1,0-0.1,0.1-0.2,0.1c0,0,0.1,0.1,0.1,0.1c0,0,0.1,0,0.1,0.1c0.3,0.1,0.4,0.2,0.4,0.6
					c0,0.1-0.1,0.3-0.1,0.4c-0.3,0.6-0.5,1.2-0.8,1.8c0,0.1-0.1,0.2-0.2,0.3c-0.1-0.1-0.1-0.2-0.1-0.3c-0.3-0.7-0.5-1.4-0.8-2.1
					c-0.2-0.4-0.1-0.6,0.4-0.7c0.1,0,0.2-0.1,0.2-0.2c-0.1,0-0.2-0.1-0.3-0.1c-0.6,0-1.3,0-1.9,0c-0.1,0-0.2,0.1-0.3,0.1
					c0.1,0.1,0.1,0.2,0.2,0.3c0.2,0.1,0.4,0.2,0.4,0.5c0.5,1.2,0.9,2.3,1.4,3.5c0.2,0.5,0,0.9-0.2,1.4c-0.2,0.3-0.5,0.3-0.9,0.3
					c-0.3,0-0.5,0.1-0.5,0.4c-0.1,0.3,0,0.6,0.3,0.7c0.4,0.2,0.8,0.1,1.1-0.3c0.1-0.2,0.2-0.4,0.3-0.5c0.2-0.5,0.4-1,0.6-1.5
					c0.6-1.3,1.2-2.7,1.9-4c0.1-0.2,0.3-0.3,0.4-0.4c0.1-0.1,0.1-0.1,0.1-0.2c-0.1,0-0.1-0.1-0.2-0.1C59.4,63.9,58.9,63.9,58.4,63.9
					z"/>
				<path fill="#4F2556" d="M43.8,68.1c-0.1-0.1-0.3-0.1-0.4-0.1c-0.3,0-0.3-0.2-0.3-0.4c0-1,0-2.1,0-3.1c0-1,0-2,0-3.1
					c0-0.1,0-0.2,0-0.3c0-0.1-0.1-0.2-0.2-0.1c-0.4,0.2-0.9,0.3-1.3,0.5c-0.1,0-0.2,0.1-0.2,0.2c0,0.1,0.1,0.2,0.2,0.2
					c0.3,0.1,0.4,0.4,0.4,0.7c0,1.6,0,3.2,0,4.7c0,0.8,0,0.7-0.7,0.9c0,0,0,0-0.1,0c-0.1,0.1-0.1,0.1-0.2,0.2c0.1,0,0.2,0.1,0.3,0.1
					c0.7,0,1.5,0,2.2,0c0.1,0,0.2,0,0.3,0c0.1,0,0.2-0.1,0.2-0.1C44,68.2,43.9,68.2,43.8,68.1z"/>
				<path fill="#4F2556" d="M75.2,65.5c-0.3-0.1-0.6-0.3-0.8-0.4c-0.2-0.1-0.3-0.2-0.3-0.5c0-0.2,0.2-0.4,0.4-0.4
					c0.5-0.2,1.1,0,1.3,0.5c0.1,0.1,0.1,0.2,0.2,0.3c0,0,0.1,0.1,0.2,0.1c0,0,0.1-0.1,0.1-0.2c0-0.1,0-0.3,0-0.4c0,0,0,0,0.1,0
					c-0.1-0.2-0.1-0.4-0.2-0.5c-0.7-0.5-2-0.3-2.6,0.2c-0.6,0.6-0.6,1.5,0.2,1.9c0.3,0.2,0.7,0.3,1,0.5c0.2,0.1,0.5,0.3,0.7,0.5
					c0.4,0.4,0.2,0.9-0.3,1.1c-0.5,0.2-1.3,0.1-1.6-0.7c0,0,0-0.1-0.1-0.1c0-0.1-0.1-0.1-0.2-0.1c-0.1,0-0.1,0.1-0.2,0.2
					c0,0.2,0,0.4-0.1,0.6c0,0.3,0.1,0.5,0.4,0.5c0.8,0.3,1.7,0.3,2.5-0.1c0.9-0.4,1-1.6,0.3-2.3C75.9,65.8,75.6,65.7,75.2,65.5z"/>
				<path fill="#4F2556" d="M23.1,63.9c-0.3-0.1-0.6-0.1-0.9-0.2c-1.1-0.1-2.1,0.3-2.7,1.2c-0.9,1.2-0.4,3,1,3.5
					c0.6,0.2,1.2,0.2,1.8,0.1c0.4-0.1,0.8-0.2,1.1-0.5c0.1-0.1,0.1-0.2,0.1-0.3c-0.1,0-0.2,0-0.3,0c0,0-0.1,0-0.1,0.1
					c-1.3,0.7-2.7-0.1-2.7-1.6c0-0.6,0.1-1.1,0.5-1.5c0.4-0.6,1.3-0.8,1.7,0c0.1,0.1,0.1,0.2,0.2,0.3c0.1,0.1,0.3,0.2,0.4,0.2
					c0.2,0,0.3-0.1,0.4-0.3C23.6,64.3,23.5,64,23.1,63.9z"/>
				<path fill="#4F2556" d="M78.9,64.5c0.3,0,0.7,0,1,0c0.3,0,0.2-0.2,0.2-0.3c0-0.2-0.1-0.3-0.2-0.3c-0.3,0-0.6,0-0.9,0
					c-0.2,0-0.3-0.1-0.3-0.2c0-0.1,0-0.3,0-0.4c0-0.1-0.1-0.2-0.1-0.2c-0.1,0-0.2,0.1-0.2,0.1c-0.1,0.1-0.1,0.2-0.2,0.2
					c-0.3,0.3-0.6,0.5-0.9,0.7c-0.1,0.1-0.2,0.1-0.3,0.2c-0.1,0-0.2,0.2-0.1,0.2c0,0.1,0.1,0.1,0.2,0.2c0.1,0,0.2,0,0.4,0
					c0,0.1,0,0.2,0,0.4c0,0.8,0,1.6,0,2.4c0,0.4,0.1,0.7,0.3,0.9c0.5,0.5,1.8,0.3,2.2-0.3c0,0,0,0,0,0c0-0.1,0-0.2,0-0.2
					c0,0-0.1-0.1-0.2,0c-0.2,0-0.4,0.1-0.7,0.1c-0.4,0-0.6-0.1-0.6-0.5c0-0.8,0-1.7,0-2.5C78.6,64.6,78.7,64.5,78.9,64.5z"/>
			</g>
		</g>
	</g>
</g>
<g id="ICONS_-_WARM_GREY" display="none">
	<g display="inline">
		<g>
			<g>
				<path fill="#534C63" d="M12.8,53.2c1.2,0,2.3-0.2,3.4-0.5c2.2-0.7,3.8-2.1,4.7-4.3c0.5-1.5,0.6-3,0.3-4.5c-0.3-2-1.3-3.5-3-4.6
					c-1.5-0.9-3.2-1.3-5-1.4c-1.3,0-2.6,0-3.9,0.1C8.8,38,8.4,38,8.1,38c0,5.1,0,10.1,0,15.2c0.1,0,0.1,0,0.2,0
					C9.8,53.2,11.3,53.2,12.8,53.2z M11.8,41c1.3-0.2,2.6-0.1,3.8,0.7c1,0.6,1.5,1.6,1.8,2.7c0.2,1,0.2,1.9-0.1,2.9
					c-0.5,1.7-1.7,2.6-3.4,2.9c-0.7,0.1-1.4,0.1-2.1,0.1C11.8,47.1,11.8,44.1,11.8,41z"/>
				<path fill="#534C63" d="M43.5,53c1.1,0.4,2.2,0.5,3.3,0.3c1.9-0.3,3.4-1.2,4.2-2.9c0.7-1.5,0.8-3,0.4-4.6
					c-0.3-1.4-1.1-2.5-2.3-3.2c-1-0.6-2-0.8-3.2-0.8c-0.5,0-0.9,0.1-1.4,0.2c-1.9,0.4-3.3,1.4-4,3.2c-0.6,1.4-0.7,2.9-0.3,4.4
					C40.8,51.2,41.9,52.4,43.5,53z M43.9,47.3c0-0.6,0.1-1.2,0.4-1.7c0.3-0.6,0.7-1,1.4-1c0.6-0.1,1.1,0.1,1.4,0.6
					c0.5,0.6,0.6,1.4,0.7,2.2c0,0.1,0,0.1,0,0.2c0,0.7-0.1,1.4-0.4,2c-0.3,0.6-0.8,1-1.5,1c-0.7,0-1.2-0.3-1.5-0.9
					C44,49,43.9,48.2,43.9,47.3z"/>
				<path fill="#534C63" d="M26.1,53.1c1.5,0.5,3.1,0.5,4.6,0.2c0.6-0.1,1.1-0.3,1.7-0.5c-0.2-0.9-0.4-1.8-0.6-2.6
					c-0.7,0.1-1.4,0.3-2.2,0.4c-0.8,0.1-1.6,0-2.4-0.3c-0.6-0.3-1-0.7-1.2-1.4c2.3,0,4.6,0,6.9,0c0.2-1.6,0.2-3-0.5-4.5
					c-0.6-1.2-1.5-2-2.8-2.4c-0.7-0.2-1.4-0.2-2.2-0.2c-1.6,0.1-3,0.8-3.9,2.2c-0.9,1.4-1.2,2.9-1,4.5
					C22.7,50.8,23.9,52.3,26.1,53.1z M26.8,44.8c0.6-0.4,1.3-0.5,1.9-0.1c0.6,0.3,0.9,0.9,0.9,1.7c-1.2,0-2.4,0-3.6,0
					C26,45.6,26.2,45.1,26.8,44.8z"/>
				<path fill="#534C63" d="M85.5,52.5c-0.2-0.8-0.3-1.6-0.5-2.4c-0.2,0.1-0.3,0.1-0.5,0.1c-0.8,0.2-1.6,0.4-2.5,0.3
					c-0.7,0-1.4-0.2-2.1-0.6c-0.4-0.3-0.6-0.7-0.7-1.2c0.2,0,0.3,0,0.4,0c2.1,0,4.1,0,6.2,0c0.2,0,0.3-0.1,0.3-0.3
					c0.2-1.2,0.1-2.5-0.3-3.6c-0.5-1.4-1.4-2.4-2.8-2.8c-0.8-0.3-1.6-0.3-2.4-0.3c-1.7,0.1-3,0.9-3.9,2.3c-0.9,1.5-1.2,3.1-0.9,4.9
					c0.3,1.7,1.3,3,2.9,3.8c1.2,0.6,2.5,0.7,3.8,0.6c1,0,2-0.3,2.9-0.6C85.5,52.8,85.5,52.7,85.5,52.5z M80,44.7
					c0.6-0.4,1.3-0.5,2-0.1c0.6,0.4,0.8,0.9,0.9,1.6c-1.2,0-2.4,0-3.6,0C79.2,45.6,79.5,45.1,80,44.7z"/>
				<path fill="#534C63" d="M66.2,53.2c0.2,0,0.2-0.1,0.2-0.3c0-0.9,0-1.7,0-2.6c0,0,0-0.1,0-0.1c-0.5,0-1.1,0.1-1.6,0.1
					c-0.5,0-0.9-0.3-1-0.8c-0.1-0.2-0.1-0.5-0.1-0.7c0-1.2,0-2.4,0-3.6c0-0.1,0-0.2,0-0.3c0.8,0,1.6,0,2.4,0c0-0.9,0-1.9,0-2.8
					c-0.8,0-1.6,0-2.4,0c0-1.2,0-2.3,0-3.4c-1.2,0.1-2.4,0.3-3.7,0.4c0,1,0,2,0,3c-0.5,0-0.9,0-1.4,0c0,0.9,0,1.9,0,2.8
					c0.2,0,0.5,0,0.7,0c0.2,0,0.5,0,0.7,0c0,0.2,0,0.3,0,0.4c0,1.4,0,2.8,0,4.2c0,0.4,0,0.9,0.1,1.3c0.3,1.6,1.3,2.6,2.9,2.8
					C64,53.5,65.1,53.4,66.2,53.2z"/>
				<path fill="#534C63" d="M68.5,45.2c0,1.4,0,2.7,0,4.1c0,0.4,0,0.8,0.1,1.2c0.2,1.6,1.1,2.5,2.7,2.8c0.7,0.2,1.5,0.1,2.2,0
					c0.5-0.1,0.9-0.2,1.4-0.2c0-1,0-2,0-2.9c-0.5,0-0.9,0.1-1.3,0.1c-0.8,0-1.3-0.4-1.4-1.3c0-1.4,0-2.7,0-4.1c0,0,0-0.1,0-0.1
					c0.8,0,1.5,0,2.3,0c0-0.9,0-1.9,0-2.8c-0.8,0-1.6,0-2.4,0c0-0.6,0-1.1,0-1.7c0-0.6,0-1.1,0-1.7c-0.1,0-0.1,0-0.2,0
					c-1.1,0.1-2.2,0.3-3.3,0.4c-0.2,0-0.2,0.1-0.2,0.2c0,0.6,0,1.2,0,1.8c0,0.3,0,0.7,0,1c-0.5,0-0.9,0-1.4,0c0,0.9,0,1.9,0,2.8
					c0.5,0,0.9,0,1.4,0C68.5,45,68.5,45.1,68.5,45.2z"/>
				<path fill="#534C63" d="M38.2,53.2c0.2,0,0.3-0.1,0.3-0.3c0-4.8,0-9.7,0-14.5c0-0.2,0-0.3-0.3-0.3c-1.1,0-2.1,0-3.2,0
					c-0.1,0-0.2,0-0.2,0c0,5,0,10,0,15.1c0.1,0,0.2,0,0.2,0C36,53.2,37.1,53.2,38.2,53.2z"/>
				<path fill="#534C63" d="M56.7,53.2c0.3,0,0.3-0.1,0.3-0.3c0-3.5,0-7,0-10.5c0-0.1,0-0.2,0-0.3c-1.3,0-2.5,0-3.7,0
					c0,3.7,0,7.4,0,11.1c0.1,0,0.2,0,0.3,0C54.6,53.2,55.7,53.2,56.7,53.2z"/>
				<path fill="#534C63" d="M54.4,64.2c-0.5,0.1-0.9,0-1.4-0.2c-0.1-0.1-0.3-0.1-0.5-0.2c-0.9-0.2-1.7-0.1-2.4,0.5
					c-0.7,0.7-0.5,1.8,0.3,2.3c0.1,0,0.2,0.1,0.3,0.2c-0.3,0.1-0.6,0.2-0.9,0.3c-0.4,0.1-0.5,0.4-0.3,0.8c0.1,0.2,0.3,0.4,0.5,0.5
					c0.1,0.1,0.2,0.2,0.3,0.3c-0.2,0.1-0.3,0.2-0.4,0.2c-0.2,0.1-0.4,0.2-0.6,0.4c-0.4,0.3-0.4,0.7-0.1,1.1c0.2,0.2,0.5,0.4,0.7,0.5
					c0.7,0.2,1.5,0.1,2.2,0c0.7-0.1,1.3-0.3,1.8-0.8c0.4-0.4,0.5-0.8,0.4-1.3c-0.1-0.5-0.5-0.7-0.9-0.8c-0.5-0.1-0.9-0.1-1.4-0.2
					c-0.4,0-0.7,0-1.1-0.1c-0.2,0-0.3,0-0.3-0.3c0-0.2,0.1-0.3,0.3-0.4c0.3,0,0.6-0.1,0.8-0.1c1.3,0,2-0.7,2-1.9
					c0-0.2,0.1-0.3,0.3-0.3c0.2,0,0.5,0,0.7-0.1C54.9,64.2,54.8,64.1,54.4,64.2z M51.1,68.8c0.2,0,0.3,0,0.5,0c0,0,0,0,0,0
					c0.5,0.1,1,0.1,1.4,0.2c0.2,0,0.5,0.1,0.5,0.4c0.1,0.3-0.1,0.5-0.3,0.7c-0.5,0.4-1.1,0.5-1.8,0.5c-0.3,0-0.6-0.1-0.8-0.2
					c-0.5-0.2-0.6-0.8-0.3-1.2C50.5,68.9,50.8,68.8,51.1,68.8z M52.5,66.2c-0.1,0.3-0.4,0.5-0.7,0.5c-0.3,0-0.6-0.2-0.7-0.5
					c-0.2-0.6-0.2-1.2,0-1.8c0.1-0.3,0.4-0.5,0.7-0.5c0.4,0,0.6,0.2,0.7,0.5c0.1,0.3,0.1,0.5,0.2,0.8C52.6,65.6,52.6,65.9,52.5,66.2
					z"/>
				<path fill="#534C63" d="M68.3,63c0-0.1,0.1-0.2,0.1-0.2c0-0.4,0-0.7,0-1.1c0-0.4-0.1-0.5-0.5-0.5c-1.6,0-3.2,0-4.8,0
					c-0.1,0-0.2,0-0.2,0c-0.1,0-0.2,0.1-0.2,0.2c0,0,0.1,0.1,0.2,0.2c0.1,0,0.3,0,0.4,0.1c0.2,0,0.3,0.1,0.3,0.3c0,0.1,0,0.2,0,0.4
					c0,1.2,0,2.5-0.1,3.7c0,0.5,0,1,0,1.5c0,0.3-0.1,0.4-0.4,0.4c-0.1,0-0.3,0-0.4,0c-0.1,0-0.2,0.1-0.2,0.2c0,0.2,0.1,0.2,0.2,0.2
					c0.3,0,0.6,0,0.9,0c0.8,0,1.6,0,2.4,0c0.1,0,0.2-0.1,0.3-0.1c-0.1-0.1-0.1-0.2-0.2-0.2c-0.2-0.1-0.4-0.1-0.6-0.1
					c-0.4-0.1-0.5-0.2-0.5-0.6c0-0.3,0-0.7,0-1c0-0.4,0-0.7,0-1.1c0-0.1,0.1-0.3,0.2-0.3c0.5-0.1,1-0.1,1.5,0.1
					c0.4,0.1,0.4,0.5,0.5,0.8c0,0,0,0,0,0c0.1,0.1,0.1,0.1,0.2,0.2c0-0.1,0.1-0.1,0.1-0.2c0-0.7,0-1.4,0-2.1c0-0.1-0.1-0.1-0.1-0.2
					c-0.1,0.1-0.2,0.1-0.2,0.2c0,0.1-0.1,0.1-0.1,0.2c-0.1,0.3-0.3,0.5-0.6,0.6c-0.4,0-0.8,0.1-1.1,0.1c-0.2,0-0.3-0.1-0.3-0.4
					c0-0.6,0-1.2,0-1.8c0-0.1,0-0.2,0-0.3c0-0.2,0.2-0.3,0.4-0.4c0.3,0,0.7,0,1,0c0.7,0.1,1.4,0.3,1.5,1.1
					C68.1,62.9,68.2,62.9,68.3,63z"/>
				<path fill="#534C63" d="M29.4,68.1c-0.4-0.1-0.5-0.4-0.5-0.8c0-0.8,0-1.5,0-2.3c0-0.6-0.3-1.1-0.9-1.3c-0.4-0.1-0.9-0.2-1.3,0
					c-0.4,0.1-0.8,0.3-1.2,0.5c0-0.1,0-0.2,0-0.2c0-1,0-1.9,0-2.9c0-0.3-0.1-0.3-0.3-0.3c-0.4,0.1-0.8,0.3-1.2,0.4
					c-0.1,0-0.1,0.1-0.2,0.2c0.1,0.1,0.1,0.2,0.2,0.2c0.2,0.1,0.3,0.2,0.3,0.4c0,1.7,0,3.4,0,5.2c0,0.4,0,0.8-0.6,0.9
					c0,0-0.1,0-0.1,0c0,0-0.1,0.1-0.1,0.2c0,0,0.1,0.1,0.1,0.1c0.1,0,0.2,0,0.3,0c0.6,0,1.2,0,1.8,0c0.1,0,0.2,0,0.3,0
					c0.1,0,0.1-0.1,0.2-0.1c-0.1-0.1-0.1-0.1-0.2-0.2c-0.2,0-0.3-0.1-0.5-0.1c-0.2,0-0.2-0.2-0.2-0.3c0-0.8,0-1.6,0-2.4
					c0-0.3,0.1-0.5,0.3-0.6c0.5-0.3,1-0.3,1.5-0.1c0.2,0.1,0.4,0.3,0.4,0.6c0,0.8,0,1.6,0,2.4c0,0.3-0.2,0.5-0.5,0.5
					c-0.1,0-0.2,0.1-0.3,0.2c0.1,0.1,0.2,0.1,0.3,0.1c0.4,0,0.9,0,1.3,0c0.2,0,0.5,0,0.7,0c0.1,0,0.2-0.1,0.2-0.1
					C29.5,68.3,29.5,68.2,29.4,68.1z"/>
				<path fill="#534C63" d="M88,61.2c-0.1,0-0.2,0-0.2,0c0,0-0.1,0-0.1,0c-0.9,0.2-1.4,0.7-1.8,1.5c-0.5,1-0.5,2-0.4,3
					c0.1,0.5,0.2,1,0.4,1.4c0.4,0.8,1,1.3,2,1.4c1,0,1.7-0.4,2.1-1.2c0.8-1.6,0.8-3.3,0.1-4.9C89.6,61.7,88.9,61.2,88,61.2z M89,67
					c-0.1,0.3-0.2,0.6-0.4,0.8c-0.4,0.6-1.1,0.6-1.5,0c-0.2-0.3-0.3-0.6-0.3-0.9c-0.2-1.4-0.3-2.9,0.1-4.3c0.1-0.3,0.2-0.5,0.4-0.8
					c0.4-0.5,1-0.5,1.4,0c0.3,0.4,0.4,1,0.5,1.5c0.1,0.5,0.1,0.9,0.1,1.4c0,0,0,0,0.1,0C89.2,65.6,89.1,66.3,89,67z"/>
				<path fill="#534C63" d="M13.7,68.1C13.5,68,13.3,68,13.2,68c-0.4,0-0.5-0.1-0.5-0.5c0-0.1,0-0.2,0-0.4c0-0.8,0-1.5,0-2.3
					c0-0.9,0-1.7,0-2.6c0-0.3,0.1-0.4,0.4-0.4c0.3,0,0.5,0,0.8,0c0.7,0,1.3,0.1,1.4,1c0,0.1,0.1,0.1,0.2,0.2
					c0.1-0.1,0.1-0.1,0.2-0.2c0-0.6,0-1.2,0.1-1.7c0-0.1-0.1-0.1-0.1-0.2c-0.1,0-0.2,0.1-0.2,0.1c-0.1,0.2-0.3,0.3-0.5,0.4
					c-0.1,0-0.2,0-0.3,0c-1.6,0-3.1,0-4.7,0c-0.3,0-0.6,0-0.8-0.3C9,61.1,8.9,61,8.8,61c-0.1,0-0.2,0.1-0.2,0.2
					c-0.2,0.5-0.4,1.1-0.5,1.6c0,0.1,0,0.1,0,0.2c0,0.1,0,0.2,0.1,0.2c0.1,0,0.2,0,0.2-0.1c0.1-0.1,0.1-0.2,0.2-0.3
					c0.1-0.2,0.3-0.4,0.4-0.5c0.6-0.5,1.3-0.5,2-0.3c0.1,0,0.2,0.1,0.2,0.2c0,0.1,0,0.2,0,0.3c0,1.5,0,3.1,0,4.6c0,0.1,0,0.2,0,0.3
					c-0.1,0.4-0.2,0.5-0.6,0.6c-0.1,0-0.3,0-0.4,0.1c-0.1,0-0.1,0.1-0.1,0.2c0,0,0.1,0.1,0.2,0.1c0.1,0,0.1,0,0.2,0
					c0.7,0,1.5-0.1,2.2-0.1c0.3,0,0.7,0,1,0c0.1,0,0.2-0.1,0.2-0.2C13.8,68.2,13.8,68.1,13.7,68.1z"/>
				<path fill="#534C63" d="M89.9,49.3c-1.1,0-2,0.9-2,2.1c0,1.2,0.9,2,2.1,2c1.1,0,2-0.9,2-2C91.9,50.2,91,49.3,89.9,49.3z"/>
				<path fill="#534C63" d="M35.5,68.1c-0.4-0.1-0.4-0.1-0.4-0.6c0-0.7,0-1.4,0-2.2c0-1.1-0.7-1.8-1.9-1.6c-0.5,0.1-0.9,0.3-1.3,0.6
					c-0.2,0.1-0.2,0.1-0.3-0.1c0-0.2,0-0.4,0-0.7c-0.2,0.1-0.2,0.2-0.3,0.2c-0.4,0.3-0.7,0.5-1.1,0.8c-0.2,0.1-0.2,0.2,0,0.3
					c0.2,0.1,0.3,0.2,0.3,0.5c0,0.7,0,1.5,0,2.2c0,0.3-0.1,0.6-0.4,0.7c-0.1,0-0.1,0.1-0.2,0.2c0.1,0,0.2,0.1,0.2,0.1
					c0.7,0,1.4,0,2.2,0c0.1,0,0.2-0.1,0.3-0.1c-0.1-0.1-0.1-0.1-0.2-0.2c0,0-0.1,0-0.1,0c-0.5-0.1-0.6-0.2-0.6-0.7
					c0-0.7,0-1.5,0-2.2c0-0.3,0.2-0.6,0.5-0.7c0.2-0.1,0.5-0.1,0.7-0.2c0.6,0,1,0.2,1.1,0.8c0,0.8,0,1.7,0,2.5
					c0,0.2-0.1,0.3-0.3,0.4c-0.2,0-0.3,0.1-0.5,0.1c0,0,0,0.1,0,0.1c0.1,0,0.2,0.1,0.3,0.1c0.5,0,1,0,1.5,0c0.2,0,0.5,0,0.7,0
					c0.1,0,0.2-0.1,0.2-0.1c0-0.1-0.1-0.1-0.1-0.2C35.6,68.1,35.6,68.1,35.5,68.1z"/>
				<path fill="#534C63" d="M72.5,67.7c-0.4,0.1-0.5,0-0.5-0.3c0-0.7,0-1.4,0-2c0,0,0,0,0,0c0-0.2,0-0.4,0-0.6
					c0-0.5-0.3-0.8-0.7-0.9c-1-0.2-1.9,0-2.7,0.6c-0.2,0.2-0.3,0.4-0.5,0.6c-0.1,0.2,0,0.4,0.3,0.4c0.4,0,0.6-0.2,0.8-0.6
					c0.1-0.2,0.2-0.4,0.4-0.5c0.3-0.2,0.6-0.3,0.9-0.1c0.4,0.2,0.4,0.5,0.4,0.9c0,0.3-0.2,0.4-0.5,0.6c-0.5,0.2-1.1,0.5-1.6,0.8
					c-0.5,0.3-0.7,0.8-0.6,1.4c0,0.5,0.3,0.8,0.8,0.8c0.5,0,1-0.1,1.4-0.4c0.2-0.2,0.4-0.2,0.7,0c0.5,0.4,1.4,0.3,1.8-0.3
					c0.1-0.1,0-0.2,0.1-0.3c-0.1,0-0.2,0-0.3,0C72.6,67.7,72.5,67.7,72.5,67.7z M70.8,67.3c-0.1,0.4-0.2,0.6-0.6,0.6
					c-0.6,0.1-0.9-0.2-0.8-0.7c0.1-0.5,0.8-1.2,1.3-1.2c0.1,0,0.2,0.1,0.2,0.2c0,0.2,0,0.3,0,0.5c0,0,0,0,0,0
					C70.8,66.8,70.8,67.1,70.8,67.3z"/>
				<path fill="#534C63" d="M84.1,64c-0.3-0.2-0.6-0.3-0.9-0.4c-0.4-0.1-0.7-0.1-1.1-0.2c-0.1,0-0.3-0.1-0.3-0.2
					c-0.1-0.4,0.1-0.7,0.5-0.7c0.6-0.1,1.1-0.1,1.7-0.1c0.2,0,0.4,0,0.5-0.1c0.1-0.3,0.1-0.6,0.1-0.8c0,0-0.3-0.1-0.5-0.1
					c-0.1,0-0.1,0-0.2,0c0,0,0,0,0,0c-0.6,0.1-1.2,0.1-1.7,0.2c-0.2,0-0.3,0.1-0.4,0.3c-0.2,0.7-0.4,1.5-0.6,2.2
					c-0.1,0.4-0.1,0.5,0.4,0.5c0.5,0.1,1,0.1,1.5,0.3c0.5,0.2,0.9,0.6,0.9,1.1c0.1,0.7-0.2,1.4-0.8,1.8c-0.5,0.5-1.2,0.7-1.9,0.9
					c-0.1,0-0.2,0.1-0.2,0.2c0.1,0.1,0.2,0.1,0.3,0.2c0,0,0.1,0,0.1,0c0.8-0.1,1.5-0.3,2.2-0.8c0.9-0.6,1.5-1.5,1.4-2.6
					C84.9,64.9,84.6,64.4,84.1,64z"/>
				<path fill="#534C63" d="M57,40.8c0-0.8,0-1.6,0-2.4c0-0.2-0.1-0.3-0.3-0.3c-1.1,0-2.1,0-3.2,0c-0.1,0-0.2,0-0.3,0
					c0,1,0,1.9,0,2.9c1.2,0,2.5,0,3.7,0C57,40.9,57,40.8,57,40.8z"/>
				<path fill="#534C63" d="M48.7,64.6c-0.7-0.8-1.6-1-2.6-0.9c-1.6,0.2-2.6,1.8-2,3.3c0.3,1,1.4,1.6,2.5,1.7c0.3,0,0.5-0.1,0.8-0.1
					C49.1,68,49.8,66,48.7,64.6z M47.5,67.8c-0.5,0.7-1.3,0.7-1.9,0.1c-0.5-0.6-0.6-1.4-0.5-2.2c0.1-0.5,0.2-1,0.6-1.3
					c0.5-0.5,1.2-0.5,1.7,0.1c0.3,0.4,0.5,1,0.5,1.5C48,66.7,47.9,67.3,47.5,67.8z"/>
				<path fill="#534C63" d="M40.3,64.4c-0.9-0.8-2.4-0.9-3.5-0.2c-0.8,0.5-1.1,1.3-1,2.2c0.2,1.3,1.3,2.2,2.6,2.2
					c0.3,0,0.5-0.1,0.8-0.1c0.9-0.3,1.6-0.8,1.8-1.8C41.2,65.8,41,65,40.3,64.4z M39.4,67.8c-0.5,0.7-1.4,0.7-1.9,0
					C37,67.2,37,66.4,37,65.7c0.1-0.5,0.2-1,0.6-1.3c0.5-0.5,1.2-0.5,1.7,0.1c0.4,0.5,0.5,1.1,0.5,1.8
					C39.8,66.8,39.7,67.3,39.4,67.8z"/>
				<path fill="#534C63" d="M17.6,63.9c-0.9-0.4-1.7-0.2-2.4,0.3c-0.8,0.6-1.1,1.5-1,2.4c0.3,1.4,1.4,2.2,2.8,1.9
					c0.6-0.1,1.1-0.4,1.4-0.9c0.1-0.1,0-0.2,0.1-0.3c-0.1,0-0.2,0-0.3,0c-0.2,0.1-0.4,0.2-0.6,0.3c-1,0.5-2.3-0.4-2.2-1.5
					c0-0.3,0.1-0.4,0.4-0.4c0.2,0,0.4,0,0.7,0c0.7,0,1.4,0,2.2,0C18.8,65.1,18.3,64.2,17.6,63.9z M17.6,64.9c0,0.3-0.2,0.4-0.5,0.4
					c-0.3,0-0.5,0.1-0.8,0.1c0,0,0,0,0,0c-0.2,0-0.4,0-0.5,0c-0.2,0-0.2-0.1-0.2-0.2c0-0.8,1-1.4,1.7-1.1
					C17.5,64.3,17.6,64.5,17.6,64.9z"/>
				<path fill="#534C63" d="M58.4,63.9c-0.1,0-0.1,0.1-0.2,0.1c0,0,0.1,0.1,0.1,0.1c0,0,0.1,0,0.1,0.1c0.3,0.1,0.4,0.2,0.4,0.6
					c0,0.1-0.1,0.3-0.1,0.4c-0.3,0.6-0.5,1.2-0.8,1.8c0,0.1-0.1,0.2-0.2,0.3c-0.1-0.1-0.1-0.2-0.1-0.3c-0.3-0.7-0.5-1.4-0.8-2.1
					c-0.2-0.4-0.1-0.6,0.4-0.7c0.1,0,0.2-0.1,0.2-0.2c-0.1,0-0.2-0.1-0.3-0.1c-0.6,0-1.3,0-1.9,0c-0.1,0-0.2,0.1-0.3,0.1
					c0.1,0.1,0.1,0.2,0.2,0.3c0.2,0.1,0.4,0.2,0.4,0.5c0.5,1.2,0.9,2.3,1.4,3.5c0.2,0.5,0,0.9-0.2,1.4c-0.2,0.3-0.5,0.3-0.9,0.3
					c-0.3,0-0.5,0.1-0.5,0.4c-0.1,0.3,0,0.6,0.3,0.7c0.4,0.2,0.8,0.1,1.1-0.3c0.1-0.2,0.2-0.4,0.3-0.5c0.2-0.5,0.4-1,0.6-1.5
					c0.6-1.3,1.2-2.7,1.9-4c0.1-0.2,0.3-0.3,0.4-0.4c0.1-0.1,0.1-0.1,0.1-0.2c-0.1,0-0.1-0.1-0.2-0.1C59.4,63.9,58.9,63.9,58.4,63.9
					z"/>
				<path fill="#534C63" d="M43.8,68.1c-0.1-0.1-0.3-0.1-0.4-0.1c-0.3,0-0.3-0.2-0.3-0.4c0-1,0-2.1,0-3.1c0-1,0-2,0-3.1
					c0-0.1,0-0.2,0-0.3c0-0.1-0.1-0.2-0.2-0.1c-0.4,0.2-0.9,0.3-1.3,0.5c-0.1,0-0.2,0.1-0.2,0.2c0,0.1,0.1,0.2,0.2,0.2
					c0.3,0.1,0.4,0.4,0.4,0.7c0,1.6,0,3.2,0,4.7c0,0.8,0,0.7-0.7,0.9c0,0,0,0-0.1,0c-0.1,0.1-0.1,0.1-0.2,0.2c0.1,0,0.2,0.1,0.3,0.1
					c0.7,0,1.5,0,2.2,0c0.1,0,0.2,0,0.3,0c0.1,0,0.2-0.1,0.2-0.1C44,68.2,43.9,68.2,43.8,68.1z"/>
				<path fill="#534C63" d="M75.2,65.5c-0.3-0.1-0.6-0.3-0.8-0.4c-0.2-0.1-0.3-0.2-0.3-0.5c0-0.2,0.2-0.4,0.4-0.4
					c0.5-0.2,1.1,0,1.3,0.5c0.1,0.1,0.1,0.2,0.2,0.3c0,0,0.1,0.1,0.2,0.1c0,0,0.1-0.1,0.1-0.2c0-0.1,0-0.3,0-0.4c0,0,0,0,0.1,0
					c-0.1-0.2-0.1-0.4-0.2-0.5c-0.7-0.5-2-0.3-2.6,0.2c-0.6,0.6-0.6,1.5,0.2,1.9c0.3,0.2,0.7,0.3,1,0.5c0.2,0.1,0.5,0.3,0.7,0.5
					c0.4,0.4,0.2,0.9-0.3,1.1c-0.5,0.2-1.3,0.1-1.6-0.7c0,0,0-0.1-0.1-0.1c0-0.1-0.1-0.1-0.2-0.1c-0.1,0-0.1,0.1-0.2,0.2
					c0,0.2,0,0.4-0.1,0.6c0,0.3,0.1,0.5,0.4,0.5c0.8,0.3,1.7,0.3,2.5-0.1c0.9-0.4,1-1.6,0.3-2.3C75.9,65.8,75.6,65.7,75.2,65.5z"/>
				<path fill="#534C63" d="M23.1,63.9c-0.3-0.1-0.6-0.1-0.9-0.2c-1.1-0.1-2.1,0.3-2.7,1.2c-0.9,1.2-0.4,3,1,3.5
					c0.6,0.2,1.2,0.2,1.8,0.1c0.4-0.1,0.8-0.2,1.1-0.5c0.1-0.1,0.1-0.2,0.1-0.3c-0.1,0-0.2,0-0.3,0c0,0-0.1,0-0.1,0.1
					c-1.3,0.7-2.7-0.1-2.7-1.6c0-0.6,0.1-1.1,0.5-1.5c0.4-0.6,1.3-0.8,1.7,0c0.1,0.1,0.1,0.2,0.2,0.3c0.1,0.1,0.3,0.2,0.4,0.2
					c0.2,0,0.3-0.1,0.4-0.3C23.6,64.3,23.5,64,23.1,63.9z"/>
				<path fill="#534C63" d="M78.9,64.5c0.3,0,0.7,0,1,0c0.3,0,0.2-0.2,0.2-0.3c0-0.2-0.1-0.3-0.2-0.3c-0.3,0-0.6,0-0.9,0
					c-0.2,0-0.3-0.1-0.3-0.2c0-0.1,0-0.3,0-0.4c0-0.1-0.1-0.2-0.1-0.2c-0.1,0-0.2,0.1-0.2,0.1c-0.1,0.1-0.1,0.2-0.2,0.2
					c-0.3,0.3-0.6,0.5-0.9,0.7c-0.1,0.1-0.2,0.1-0.3,0.2c-0.1,0-0.2,0.2-0.1,0.2c0,0.1,0.1,0.1,0.2,0.2c0.1,0,0.2,0,0.4,0
					c0,0.1,0,0.2,0,0.4c0,0.8,0,1.6,0,2.4c0,0.4,0.1,0.7,0.3,0.9c0.5,0.5,1.8,0.3,2.2-0.3c0,0,0,0,0,0c0-0.1,0-0.2,0-0.2
					c0,0-0.1-0.1-0.2,0c-0.2,0-0.4,0.1-0.7,0.1c-0.4,0-0.6-0.1-0.6-0.5c0-0.8,0-1.7,0-2.5C78.6,64.6,78.7,64.5,78.9,64.5z"/>
			</g>
		</g>
	</g>
</g>
<g id="ICONS_-_SKRILL_TEAL" display="none">
	<g display="inline">
		<g>
			<g>
				<path fill="#41AEB5" d="M12.8,53.2c1.2,0,2.3-0.2,3.4-0.5c2.2-0.7,3.8-2.1,4.7-4.3c0.5-1.5,0.6-3,0.3-4.5c-0.3-2-1.3-3.5-3-4.6
					c-1.5-0.9-3.2-1.3-5-1.4c-1.3,0-2.6,0-3.9,0.1C8.8,38,8.4,38,8.1,38c0,5.1,0,10.1,0,15.2c0.1,0,0.1,0,0.2,0
					C9.8,53.2,11.3,53.2,12.8,53.2z M11.8,41c1.3-0.2,2.6-0.1,3.8,0.7c1,0.6,1.5,1.6,1.8,2.7c0.2,1,0.2,1.9-0.1,2.9
					c-0.5,1.7-1.7,2.6-3.4,2.9c-0.7,0.1-1.4,0.1-2.1,0.1C11.8,47.1,11.8,44.1,11.8,41z"/>
				<path fill="#41AEB5" d="M43.5,53c1.1,0.4,2.2,0.5,3.3,0.3c1.9-0.3,3.4-1.2,4.2-2.9c0.7-1.5,0.8-3,0.4-4.6
					c-0.3-1.4-1.1-2.5-2.3-3.2c-1-0.6-2-0.8-3.2-0.8c-0.5,0-0.9,0.1-1.4,0.2c-1.9,0.4-3.3,1.4-4,3.2c-0.6,1.4-0.7,2.9-0.3,4.4
					C40.8,51.2,41.9,52.4,43.5,53z M43.9,47.3c0-0.6,0.1-1.2,0.4-1.7c0.3-0.6,0.7-1,1.4-1c0.6-0.1,1.1,0.1,1.4,0.6
					c0.5,0.6,0.6,1.4,0.7,2.2c0,0.1,0,0.1,0,0.2c0,0.7-0.1,1.4-0.4,2c-0.3,0.6-0.8,1-1.5,1c-0.7,0-1.2-0.3-1.5-0.9
					C44,49,43.9,48.2,43.9,47.3z"/>
				<path fill="#41AEB5" d="M26.1,53.1c1.5,0.5,3.1,0.5,4.6,0.2c0.6-0.1,1.1-0.3,1.7-0.5c-0.2-0.9-0.4-1.8-0.6-2.6
					c-0.7,0.1-1.4,0.3-2.2,0.4c-0.8,0.1-1.6,0-2.4-0.3c-0.6-0.3-1-0.7-1.2-1.4c2.3,0,4.6,0,6.9,0c0.2-1.6,0.2-3-0.5-4.5
					c-0.6-1.2-1.5-2-2.8-2.4c-0.7-0.2-1.4-0.2-2.2-0.2c-1.6,0.1-3,0.8-3.9,2.2c-0.9,1.4-1.2,2.9-1,4.5
					C22.7,50.8,23.9,52.3,26.1,53.1z M26.8,44.8c0.6-0.4,1.3-0.5,1.9-0.1c0.6,0.3,0.9,0.9,0.9,1.7c-1.2,0-2.4,0-3.6,0
					C26,45.6,26.2,45.1,26.8,44.8z"/>
				<path fill="#41AEB5" d="M85.5,52.5c-0.2-0.8-0.3-1.6-0.5-2.4c-0.2,0.1-0.3,0.1-0.5,0.1c-0.8,0.2-1.6,0.4-2.5,0.3
					c-0.7,0-1.4-0.2-2.1-0.6c-0.4-0.3-0.6-0.7-0.7-1.2c0.2,0,0.3,0,0.4,0c2.1,0,4.1,0,6.2,0c0.2,0,0.3-0.1,0.3-0.3
					c0.2-1.2,0.1-2.5-0.3-3.6c-0.5-1.4-1.4-2.4-2.8-2.8c-0.8-0.3-1.6-0.3-2.4-0.3c-1.7,0.1-3,0.9-3.9,2.3c-0.9,1.5-1.2,3.1-0.9,4.9
					c0.3,1.7,1.3,3,2.9,3.8c1.2,0.6,2.5,0.7,3.8,0.6c1,0,2-0.3,2.9-0.6C85.5,52.8,85.5,52.7,85.5,52.5z M80,44.7
					c0.6-0.4,1.3-0.5,2-0.1c0.6,0.4,0.8,0.9,0.9,1.6c-1.2,0-2.4,0-3.6,0C79.2,45.6,79.5,45.1,80,44.7z"/>
				<path fill="#41AEB5" d="M66.2,53.2c0.2,0,0.2-0.1,0.2-0.3c0-0.9,0-1.7,0-2.6c0,0,0-0.1,0-0.1c-0.5,0-1.1,0.1-1.6,0.1
					c-0.5,0-0.9-0.3-1-0.8c-0.1-0.2-0.1-0.5-0.1-0.7c0-1.2,0-2.4,0-3.6c0-0.1,0-0.2,0-0.3c0.8,0,1.6,0,2.4,0c0-0.9,0-1.9,0-2.8
					c-0.8,0-1.6,0-2.4,0c0-1.2,0-2.3,0-3.4c-1.2,0.1-2.4,0.3-3.7,0.4c0,1,0,2,0,3c-0.5,0-0.9,0-1.4,0c0,0.9,0,1.9,0,2.8
					c0.2,0,0.5,0,0.7,0c0.2,0,0.5,0,0.7,0c0,0.2,0,0.3,0,0.4c0,1.4,0,2.8,0,4.2c0,0.4,0,0.9,0.1,1.3c0.3,1.6,1.3,2.6,2.9,2.8
					C64,53.5,65.1,53.4,66.2,53.2z"/>
				<path fill="#41AEB5" d="M68.5,45.2c0,1.4,0,2.7,0,4.1c0,0.4,0,0.8,0.1,1.2c0.2,1.6,1.1,2.5,2.7,2.8c0.7,0.2,1.5,0.1,2.2,0
					c0.5-0.1,0.9-0.2,1.4-0.2c0-1,0-2,0-2.9c-0.5,0-0.9,0.1-1.3,0.1c-0.8,0-1.3-0.4-1.4-1.3c0-1.4,0-2.7,0-4.1c0,0,0-0.1,0-0.1
					c0.8,0,1.5,0,2.3,0c0-0.9,0-1.9,0-2.8c-0.8,0-1.6,0-2.4,0c0-0.6,0-1.1,0-1.7c0-0.6,0-1.1,0-1.7c-0.1,0-0.1,0-0.2,0
					c-1.1,0.1-2.2,0.3-3.3,0.4c-0.2,0-0.2,0.1-0.2,0.2c0,0.6,0,1.2,0,1.8c0,0.3,0,0.7,0,1c-0.5,0-0.9,0-1.4,0c0,0.9,0,1.9,0,2.8
					c0.5,0,0.9,0,1.4,0C68.5,45,68.5,45.1,68.5,45.2z"/>
				<path fill="#41AEB5" d="M38.2,53.2c0.2,0,0.3-0.1,0.3-0.3c0-4.8,0-9.7,0-14.5c0-0.2,0-0.3-0.3-0.3c-1.1,0-2.1,0-3.2,0
					c-0.1,0-0.2,0-0.2,0c0,5,0,10,0,15.1c0.1,0,0.2,0,0.2,0C36,53.2,37.1,53.2,38.2,53.2z"/>
				<path fill="#41AEB5" d="M56.7,53.2c0.3,0,0.3-0.1,0.3-0.3c0-3.5,0-7,0-10.5c0-0.1,0-0.2,0-0.3c-1.3,0-2.5,0-3.7,0
					c0,3.7,0,7.4,0,11.1c0.1,0,0.2,0,0.3,0C54.6,53.2,55.7,53.2,56.7,53.2z"/>
				<path fill="#41AEB5" d="M54.4,64.2c-0.5,0.1-0.9,0-1.4-0.2c-0.1-0.1-0.3-0.1-0.5-0.2c-0.9-0.2-1.7-0.1-2.4,0.5
					c-0.7,0.7-0.5,1.8,0.3,2.3c0.1,0,0.2,0.1,0.3,0.2c-0.3,0.1-0.6,0.2-0.9,0.3c-0.4,0.1-0.5,0.4-0.3,0.8c0.1,0.2,0.3,0.4,0.5,0.5
					c0.1,0.1,0.2,0.2,0.3,0.3c-0.2,0.1-0.3,0.2-0.4,0.2c-0.2,0.1-0.4,0.2-0.6,0.4c-0.4,0.3-0.4,0.7-0.1,1.1c0.2,0.2,0.5,0.4,0.7,0.5
					c0.7,0.2,1.5,0.1,2.2,0c0.7-0.1,1.3-0.3,1.8-0.8c0.4-0.4,0.5-0.8,0.4-1.3c-0.1-0.5-0.5-0.7-0.9-0.8c-0.5-0.1-0.9-0.1-1.4-0.2
					c-0.4,0-0.7,0-1.1-0.1c-0.2,0-0.3,0-0.3-0.3c0-0.2,0.1-0.3,0.3-0.4c0.3,0,0.6-0.1,0.8-0.1c1.3,0,2-0.7,2-1.9
					c0-0.2,0.1-0.3,0.3-0.3c0.2,0,0.5,0,0.7-0.1C54.9,64.2,54.8,64.1,54.4,64.2z M51.1,68.8c0.2,0,0.3,0,0.5,0c0,0,0,0,0,0
					c0.5,0.1,1,0.1,1.4,0.2c0.2,0,0.5,0.1,0.5,0.4c0.1,0.3-0.1,0.5-0.3,0.7c-0.5,0.4-1.1,0.5-1.8,0.5c-0.3,0-0.6-0.1-0.8-0.2
					c-0.5-0.2-0.6-0.8-0.3-1.2C50.5,68.9,50.8,68.8,51.1,68.8z M52.5,66.2c-0.1,0.3-0.4,0.5-0.7,0.5c-0.3,0-0.6-0.2-0.7-0.5
					c-0.2-0.6-0.2-1.2,0-1.8c0.1-0.3,0.4-0.5,0.7-0.5c0.4,0,0.6,0.2,0.7,0.5c0.1,0.3,0.1,0.5,0.2,0.8C52.6,65.6,52.6,65.9,52.5,66.2
					z"/>
				<path fill="#41AEB5" d="M68.3,63c0-0.1,0.1-0.2,0.1-0.2c0-0.4,0-0.7,0-1.1c0-0.4-0.1-0.5-0.5-0.5c-1.6,0-3.2,0-4.8,0
					c-0.1,0-0.2,0-0.2,0c-0.1,0-0.2,0.1-0.2,0.2c0,0,0.1,0.1,0.2,0.2c0.1,0,0.3,0,0.4,0.1c0.2,0,0.3,0.1,0.3,0.3c0,0.1,0,0.2,0,0.4
					c0,1.2,0,2.5-0.1,3.7c0,0.5,0,1,0,1.5c0,0.3-0.1,0.4-0.4,0.4c-0.1,0-0.3,0-0.4,0c-0.1,0-0.2,0.1-0.2,0.2c0,0.2,0.1,0.2,0.2,0.2
					c0.3,0,0.6,0,0.9,0c0.8,0,1.6,0,2.4,0c0.1,0,0.2-0.1,0.3-0.1c-0.1-0.1-0.1-0.2-0.2-0.2c-0.2-0.1-0.4-0.1-0.6-0.1
					c-0.4-0.1-0.5-0.2-0.5-0.6c0-0.3,0-0.7,0-1c0-0.4,0-0.7,0-1.1c0-0.1,0.1-0.3,0.2-0.3c0.5-0.1,1-0.1,1.5,0.1
					c0.4,0.1,0.4,0.5,0.5,0.8c0,0,0,0,0,0c0.1,0.1,0.1,0.1,0.2,0.2c0-0.1,0.1-0.1,0.1-0.2c0-0.7,0-1.4,0-2.1c0-0.1-0.1-0.1-0.1-0.2
					c-0.1,0.1-0.2,0.1-0.2,0.2c0,0.1-0.1,0.1-0.1,0.2c-0.1,0.3-0.3,0.5-0.6,0.6c-0.4,0-0.8,0.1-1.1,0.1c-0.2,0-0.3-0.1-0.3-0.4
					c0-0.6,0-1.2,0-1.8c0-0.1,0-0.2,0-0.3c0-0.2,0.2-0.3,0.4-0.4c0.3,0,0.7,0,1,0c0.7,0.1,1.4,0.3,1.5,1.1
					C68.1,62.9,68.2,62.9,68.3,63z"/>
				<path fill="#41AEB5" d="M29.4,68.1c-0.4-0.1-0.5-0.4-0.5-0.8c0-0.8,0-1.5,0-2.3c0-0.6-0.3-1.1-0.9-1.3c-0.4-0.1-0.9-0.2-1.3,0
					c-0.4,0.1-0.8,0.3-1.2,0.5c0-0.1,0-0.2,0-0.2c0-1,0-1.9,0-2.9c0-0.3-0.1-0.3-0.3-0.3c-0.4,0.1-0.8,0.3-1.2,0.4
					c-0.1,0-0.1,0.1-0.2,0.2c0.1,0.1,0.1,0.2,0.2,0.2c0.2,0.1,0.3,0.2,0.3,0.4c0,1.7,0,3.4,0,5.2c0,0.4,0,0.8-0.6,0.9
					c0,0-0.1,0-0.1,0c0,0-0.1,0.1-0.1,0.2c0,0,0.1,0.1,0.1,0.1c0.1,0,0.2,0,0.3,0c0.6,0,1.2,0,1.8,0c0.1,0,0.2,0,0.3,0
					c0.1,0,0.1-0.1,0.2-0.1c-0.1-0.1-0.1-0.1-0.2-0.2c-0.2,0-0.3-0.1-0.5-0.1c-0.2,0-0.2-0.2-0.2-0.3c0-0.8,0-1.6,0-2.4
					c0-0.3,0.1-0.5,0.3-0.6c0.5-0.3,1-0.3,1.5-0.1c0.2,0.1,0.4,0.3,0.4,0.6c0,0.8,0,1.6,0,2.4c0,0.3-0.2,0.5-0.5,0.5
					c-0.1,0-0.2,0.1-0.3,0.2c0.1,0.1,0.2,0.1,0.3,0.1c0.4,0,0.9,0,1.3,0c0.2,0,0.5,0,0.7,0c0.1,0,0.2-0.1,0.2-0.1
					C29.5,68.3,29.5,68.2,29.4,68.1z"/>
				<path fill="#41AEB5" d="M88,61.2c-0.1,0-0.2,0-0.2,0c0,0-0.1,0-0.1,0c-0.9,0.2-1.4,0.7-1.8,1.5c-0.5,1-0.5,2-0.4,3
					c0.1,0.5,0.2,1,0.4,1.4c0.4,0.8,1,1.3,2,1.4c1,0,1.7-0.4,2.1-1.2c0.8-1.6,0.8-3.3,0.1-4.9C89.6,61.7,88.9,61.2,88,61.2z M89,67
					c-0.1,0.3-0.2,0.6-0.4,0.8c-0.4,0.6-1.1,0.6-1.5,0c-0.2-0.3-0.3-0.6-0.3-0.9c-0.2-1.4-0.3-2.9,0.1-4.3c0.1-0.3,0.2-0.5,0.4-0.8
					c0.4-0.5,1-0.5,1.4,0c0.3,0.4,0.4,1,0.5,1.5c0.1,0.5,0.1,0.9,0.1,1.4c0,0,0,0,0.1,0C89.2,65.6,89.1,66.3,89,67z"/>
				<path fill="#41AEB5" d="M13.7,68.1C13.5,68,13.3,68,13.2,68c-0.4,0-0.5-0.1-0.5-0.5c0-0.1,0-0.2,0-0.4c0-0.8,0-1.5,0-2.3
					c0-0.9,0-1.7,0-2.6c0-0.3,0.1-0.4,0.4-0.4c0.3,0,0.5,0,0.8,0c0.7,0,1.3,0.1,1.4,1c0,0.1,0.1,0.1,0.2,0.2
					c0.1-0.1,0.1-0.1,0.2-0.2c0-0.6,0-1.2,0.1-1.7c0-0.1-0.1-0.1-0.1-0.2c-0.1,0-0.2,0.1-0.2,0.1c-0.1,0.2-0.3,0.3-0.5,0.4
					c-0.1,0-0.2,0-0.3,0c-1.6,0-3.1,0-4.7,0c-0.3,0-0.6,0-0.8-0.3C9,61.1,8.9,61,8.8,61c-0.1,0-0.2,0.1-0.2,0.2
					c-0.2,0.5-0.4,1.1-0.5,1.6c0,0.1,0,0.1,0,0.2c0,0.1,0,0.2,0.1,0.2c0.1,0,0.2,0,0.2-0.1c0.1-0.1,0.1-0.2,0.2-0.3
					c0.1-0.2,0.3-0.4,0.4-0.5c0.6-0.5,1.3-0.5,2-0.3c0.1,0,0.2,0.1,0.2,0.2c0,0.1,0,0.2,0,0.3c0,1.5,0,3.1,0,4.6c0,0.1,0,0.2,0,0.3
					c-0.1,0.4-0.2,0.5-0.6,0.6c-0.1,0-0.3,0-0.4,0.1c-0.1,0-0.1,0.1-0.1,0.2c0,0,0.1,0.1,0.2,0.1c0.1,0,0.1,0,0.2,0
					c0.7,0,1.5-0.1,2.2-0.1c0.3,0,0.7,0,1,0c0.1,0,0.2-0.1,0.2-0.2C13.8,68.2,13.8,68.1,13.7,68.1z"/>
				<path fill="#41AEB5" d="M89.9,49.3c-1.1,0-2,0.9-2,2.1c0,1.2,0.9,2,2.1,2c1.1,0,2-0.9,2-2C91.9,50.2,91,49.3,89.9,49.3z"/>
				<path fill="#41AEB5" d="M35.5,68.1c-0.4-0.1-0.4-0.1-0.4-0.6c0-0.7,0-1.4,0-2.2c0-1.1-0.7-1.8-1.9-1.6c-0.5,0.1-0.9,0.3-1.3,0.6
					c-0.2,0.1-0.2,0.1-0.3-0.1c0-0.2,0-0.4,0-0.7c-0.2,0.1-0.2,0.2-0.3,0.2c-0.4,0.3-0.7,0.5-1.1,0.8c-0.2,0.1-0.2,0.2,0,0.3
					c0.2,0.1,0.3,0.2,0.3,0.5c0,0.7,0,1.5,0,2.2c0,0.3-0.1,0.6-0.4,0.7c-0.1,0-0.1,0.1-0.2,0.2c0.1,0,0.2,0.1,0.2,0.1
					c0.7,0,1.4,0,2.2,0c0.1,0,0.2-0.1,0.3-0.1c-0.1-0.1-0.1-0.1-0.2-0.2c0,0-0.1,0-0.1,0c-0.5-0.1-0.6-0.2-0.6-0.7
					c0-0.7,0-1.5,0-2.2c0-0.3,0.2-0.6,0.5-0.7c0.2-0.1,0.5-0.1,0.7-0.2c0.6,0,1,0.2,1.1,0.8c0,0.8,0,1.7,0,2.5
					c0,0.2-0.1,0.3-0.3,0.4c-0.2,0-0.3,0.1-0.5,0.1c0,0,0,0.1,0,0.1c0.1,0,0.2,0.1,0.3,0.1c0.5,0,1,0,1.5,0c0.2,0,0.5,0,0.7,0
					c0.1,0,0.2-0.1,0.2-0.1c0-0.1-0.1-0.1-0.1-0.2C35.6,68.1,35.6,68.1,35.5,68.1z"/>
				<path fill="#41AEB5" d="M72.5,67.7c-0.4,0.1-0.5,0-0.5-0.3c0-0.7,0-1.4,0-2c0,0,0,0,0,0c0-0.2,0-0.4,0-0.6
					c0-0.5-0.3-0.8-0.7-0.9c-1-0.2-1.9,0-2.7,0.6c-0.2,0.2-0.3,0.4-0.5,0.6c-0.1,0.2,0,0.4,0.3,0.4c0.4,0,0.6-0.2,0.8-0.6
					c0.1-0.2,0.2-0.4,0.4-0.5c0.3-0.2,0.6-0.3,0.9-0.1c0.4,0.2,0.4,0.5,0.4,0.9c0,0.3-0.2,0.4-0.5,0.6c-0.5,0.2-1.1,0.5-1.6,0.8
					c-0.5,0.3-0.7,0.8-0.6,1.4c0,0.5,0.3,0.8,0.8,0.8c0.5,0,1-0.1,1.4-0.4c0.2-0.2,0.4-0.2,0.7,0c0.5,0.4,1.4,0.3,1.8-0.3
					c0.1-0.1,0-0.2,0.1-0.3c-0.1,0-0.2,0-0.3,0C72.6,67.7,72.5,67.7,72.5,67.7z M70.8,67.3c-0.1,0.4-0.2,0.6-0.6,0.6
					c-0.6,0.1-0.9-0.2-0.8-0.7c0.1-0.5,0.8-1.2,1.3-1.2c0.1,0,0.2,0.1,0.2,0.2c0,0.2,0,0.3,0,0.5c0,0,0,0,0,0
					C70.8,66.8,70.8,67.1,70.8,67.3z"/>
				<path fill="#41AEB5" d="M84.1,64c-0.3-0.2-0.6-0.3-0.9-0.4c-0.4-0.1-0.7-0.1-1.1-0.2c-0.1,0-0.3-0.1-0.3-0.2
					c-0.1-0.4,0.1-0.7,0.5-0.7c0.6-0.1,1.1-0.1,1.7-0.1c0.2,0,0.4,0,0.5-0.1c0.1-0.3,0.1-0.6,0.1-0.8c0,0-0.3-0.1-0.5-0.1
					c-0.1,0-0.1,0-0.2,0c0,0,0,0,0,0c-0.6,0.1-1.2,0.1-1.7,0.2c-0.2,0-0.3,0.1-0.4,0.3c-0.2,0.7-0.4,1.5-0.6,2.2
					c-0.1,0.4-0.1,0.5,0.4,0.5c0.5,0.1,1,0.1,1.5,0.3c0.5,0.2,0.9,0.6,0.9,1.1c0.1,0.7-0.2,1.4-0.8,1.8c-0.5,0.5-1.2,0.7-1.9,0.9
					c-0.1,0-0.2,0.1-0.2,0.2c0.1,0.1,0.2,0.1,0.3,0.2c0,0,0.1,0,0.1,0c0.8-0.1,1.5-0.3,2.2-0.8c0.9-0.6,1.5-1.5,1.4-2.6
					C84.9,64.9,84.6,64.4,84.1,64z"/>
				<path fill="#41AEB5" d="M57,40.8c0-0.8,0-1.6,0-2.4c0-0.2-0.1-0.3-0.3-0.3c-1.1,0-2.1,0-3.2,0c-0.1,0-0.2,0-0.3,0
					c0,1,0,1.9,0,2.9c1.2,0,2.5,0,3.7,0C57,40.9,57,40.8,57,40.8z"/>
				<path fill="#41AEB5" d="M48.7,64.6c-0.7-0.8-1.6-1-2.6-0.9c-1.6,0.2-2.6,1.8-2,3.3c0.3,1,1.4,1.6,2.5,1.7c0.3,0,0.5-0.1,0.8-0.1
					C49.1,68,49.8,66,48.7,64.6z M47.5,67.8c-0.5,0.7-1.3,0.7-1.9,0.1c-0.5-0.6-0.6-1.4-0.5-2.2c0.1-0.5,0.2-1,0.6-1.3
					c0.5-0.5,1.2-0.5,1.7,0.1c0.3,0.4,0.5,1,0.5,1.5C48,66.7,47.9,67.3,47.5,67.8z"/>
				<path fill="#41AEB5" d="M40.3,64.4c-0.9-0.8-2.4-0.9-3.5-0.2c-0.8,0.5-1.1,1.3-1,2.2c0.2,1.3,1.3,2.2,2.6,2.2
					c0.3,0,0.5-0.1,0.8-0.1c0.9-0.3,1.6-0.8,1.8-1.8C41.2,65.8,41,65,40.3,64.4z M39.4,67.8c-0.5,0.7-1.4,0.7-1.9,0
					C37,67.2,37,66.4,37,65.7c0.1-0.5,0.2-1,0.6-1.3c0.5-0.5,1.2-0.5,1.7,0.1c0.4,0.5,0.5,1.1,0.5,1.8
					C39.8,66.8,39.7,67.3,39.4,67.8z"/>
				<path fill="#41AEB5" d="M17.6,63.9c-0.9-0.4-1.7-0.2-2.4,0.3c-0.8,0.6-1.1,1.5-1,2.4c0.3,1.4,1.4,2.2,2.8,1.9
					c0.6-0.1,1.1-0.4,1.4-0.9c0.1-0.1,0-0.2,0.1-0.3c-0.1,0-0.2,0-0.3,0c-0.2,0.1-0.4,0.2-0.6,0.3c-1,0.5-2.3-0.4-2.2-1.5
					c0-0.3,0.1-0.4,0.4-0.4c0.2,0,0.4,0,0.7,0c0.7,0,1.4,0,2.2,0C18.8,65.1,18.3,64.2,17.6,63.9z M17.6,64.9c0,0.3-0.2,0.4-0.5,0.4
					c-0.3,0-0.5,0.1-0.8,0.1c0,0,0,0,0,0c-0.2,0-0.4,0-0.5,0c-0.2,0-0.2-0.1-0.2-0.2c0-0.8,1-1.4,1.7-1.1
					C17.5,64.3,17.6,64.5,17.6,64.9z"/>
				<path fill="#41AEB5" d="M58.4,63.9c-0.1,0-0.1,0.1-0.2,0.1c0,0,0.1,0.1,0.1,0.1c0,0,0.1,0,0.1,0.1c0.3,0.1,0.4,0.2,0.4,0.6
					c0,0.1-0.1,0.3-0.1,0.4c-0.3,0.6-0.5,1.2-0.8,1.8c0,0.1-0.1,0.2-0.2,0.3c-0.1-0.1-0.1-0.2-0.1-0.3c-0.3-0.7-0.5-1.4-0.8-2.1
					c-0.2-0.4-0.1-0.6,0.4-0.7c0.1,0,0.2-0.1,0.2-0.2c-0.1,0-0.2-0.1-0.3-0.1c-0.6,0-1.3,0-1.9,0c-0.1,0-0.2,0.1-0.3,0.1
					c0.1,0.1,0.1,0.2,0.2,0.3c0.2,0.1,0.4,0.2,0.4,0.5c0.5,1.2,0.9,2.3,1.4,3.5c0.2,0.5,0,0.9-0.2,1.4c-0.2,0.3-0.5,0.3-0.9,0.3
					c-0.3,0-0.5,0.1-0.5,0.4c-0.1,0.3,0,0.6,0.3,0.7c0.4,0.2,0.8,0.1,1.1-0.3c0.1-0.2,0.2-0.4,0.3-0.5c0.2-0.5,0.4-1,0.6-1.5
					c0.6-1.3,1.2-2.7,1.9-4c0.1-0.2,0.3-0.3,0.4-0.4c0.1-0.1,0.1-0.1,0.1-0.2c-0.1,0-0.1-0.1-0.2-0.1C59.4,63.9,58.9,63.9,58.4,63.9
					z"/>
				<path fill="#41AEB5" d="M43.8,68.1c-0.1-0.1-0.3-0.1-0.4-0.1c-0.3,0-0.3-0.2-0.3-0.4c0-1,0-2.1,0-3.1c0-1,0-2,0-3.1
					c0-0.1,0-0.2,0-0.3c0-0.1-0.1-0.2-0.2-0.1c-0.4,0.2-0.9,0.3-1.3,0.5c-0.1,0-0.2,0.1-0.2,0.2c0,0.1,0.1,0.2,0.2,0.2
					c0.3,0.1,0.4,0.4,0.4,0.7c0,1.6,0,3.2,0,4.7c0,0.8,0,0.7-0.7,0.9c0,0,0,0-0.1,0c-0.1,0.1-0.1,0.1-0.2,0.2c0.1,0,0.2,0.1,0.3,0.1
					c0.7,0,1.5,0,2.2,0c0.1,0,0.2,0,0.3,0c0.1,0,0.2-0.1,0.2-0.1C44,68.2,43.9,68.2,43.8,68.1z"/>
				<path fill="#41AEB5" d="M75.2,65.5c-0.3-0.1-0.6-0.3-0.8-0.4c-0.2-0.1-0.3-0.2-0.3-0.5c0-0.2,0.2-0.4,0.4-0.4
					c0.5-0.2,1.1,0,1.3,0.5c0.1,0.1,0.1,0.2,0.2,0.3c0,0,0.1,0.1,0.2,0.1c0,0,0.1-0.1,0.1-0.2c0-0.1,0-0.3,0-0.4c0,0,0,0,0.1,0
					c-0.1-0.2-0.1-0.4-0.2-0.5c-0.7-0.5-2-0.3-2.6,0.2c-0.6,0.6-0.6,1.5,0.2,1.9c0.3,0.2,0.7,0.3,1,0.5c0.2,0.1,0.5,0.3,0.7,0.5
					c0.4,0.4,0.2,0.9-0.3,1.1c-0.5,0.2-1.3,0.1-1.6-0.7c0,0,0-0.1-0.1-0.1c0-0.1-0.1-0.1-0.2-0.1c-0.1,0-0.1,0.1-0.2,0.2
					c0,0.2,0,0.4-0.1,0.6c0,0.3,0.1,0.5,0.4,0.5c0.8,0.3,1.7,0.3,2.5-0.1c0.9-0.4,1-1.6,0.3-2.3C75.9,65.8,75.6,65.7,75.2,65.5z"/>
				<path fill="#41AEB5" d="M23.1,63.9c-0.3-0.1-0.6-0.1-0.9-0.2c-1.1-0.1-2.1,0.3-2.7,1.2c-0.9,1.2-0.4,3,1,3.5
					c0.6,0.2,1.2,0.2,1.8,0.1c0.4-0.1,0.8-0.2,1.1-0.5c0.1-0.1,0.1-0.2,0.1-0.3c-0.1,0-0.2,0-0.3,0c0,0-0.1,0-0.1,0.1
					c-1.3,0.7-2.7-0.1-2.7-1.6c0-0.6,0.1-1.1,0.5-1.5c0.4-0.6,1.3-0.8,1.7,0c0.1,0.1,0.1,0.2,0.2,0.3c0.1,0.1,0.3,0.2,0.4,0.2
					c0.2,0,0.3-0.1,0.4-0.3C23.6,64.3,23.5,64,23.1,63.9z"/>
				<path fill="#41AEB5" d="M78.9,64.5c0.3,0,0.7,0,1,0c0.3,0,0.2-0.2,0.2-0.3c0-0.2-0.1-0.3-0.2-0.3c-0.3,0-0.6,0-0.9,0
					c-0.2,0-0.3-0.1-0.3-0.2c0-0.1,0-0.3,0-0.4c0-0.1-0.1-0.2-0.1-0.2c-0.1,0-0.2,0.1-0.2,0.1c-0.1,0.1-0.1,0.2-0.2,0.2
					c-0.3,0.3-0.6,0.5-0.9,0.7c-0.1,0.1-0.2,0.1-0.3,0.2c-0.1,0-0.2,0.2-0.1,0.2c0,0.1,0.1,0.1,0.2,0.2c0.1,0,0.2,0,0.4,0
					c0,0.1,0,0.2,0,0.4c0,0.8,0,1.6,0,2.4c0,0.4,0.1,0.7,0.3,0.9c0.5,0.5,1.8,0.3,2.2-0.3c0,0,0,0,0,0c0-0.1,0-0.2,0-0.2
					c0,0-0.1-0.1-0.2,0c-0.2,0-0.4,0.1-0.7,0.1c-0.4,0-0.6-0.1-0.6-0.5c0-0.8,0-1.7,0-2.5C78.6,64.6,78.7,64.5,78.9,64.5z"/>
			</g>
		</g>
	</g>
</g>
<g id="ICONS_-_SKRILL_PURPLE">
	<g>
		<g>
			<g>
				<path fill="#811E68" d="M12.8,53.2c1.2,0,2.3-0.2,3.4-0.5c2.2-0.7,3.8-2.1,4.7-4.3c0.5-1.5,0.6-3,0.3-4.5c-0.3-2-1.3-3.5-3-4.6
					c-1.5-0.9-3.2-1.3-5-1.4c-1.3,0-2.6,0-3.9,0.1C8.8,38,8.4,38,8.1,38c0,5.1,0,10.1,0,15.2c0.1,0,0.1,0,0.2,0
					C9.8,53.2,11.3,53.2,12.8,53.2z M11.8,41c1.3-0.2,2.6-0.1,3.8,0.7c1,0.6,1.5,1.6,1.8,2.7c0.2,1,0.2,1.9-0.1,2.9
					c-0.5,1.7-1.7,2.6-3.4,2.9c-0.7,0.1-1.4,0.1-2.1,0.1C11.8,47.1,11.8,44.1,11.8,41z"/>
				<path fill="#811E68" d="M43.5,53c1.1,0.4,2.2,0.5,3.3,0.3c1.9-0.3,3.4-1.2,4.2-2.9c0.7-1.5,0.8-3,0.4-4.6
					c-0.3-1.4-1.1-2.5-2.3-3.2c-1-0.6-2-0.8-3.2-0.8c-0.5,0-0.9,0.1-1.4,0.2c-1.9,0.4-3.3,1.4-4,3.2c-0.6,1.4-0.7,2.9-0.3,4.4
					C40.8,51.2,41.9,52.4,43.5,53z M43.9,47.3c0-0.6,0.1-1.2,0.4-1.7c0.3-0.6,0.7-1,1.4-1c0.6-0.1,1.1,0.1,1.4,0.6
					c0.5,0.6,0.6,1.4,0.7,2.2c0,0.1,0,0.1,0,0.2c0,0.7-0.1,1.4-0.4,2c-0.3,0.6-0.8,1-1.5,1c-0.7,0-1.2-0.3-1.5-0.9
					C44,49,43.9,48.2,43.9,47.3z"/>
				<path fill="#811E68" d="M26.1,53.1c1.5,0.5,3.1,0.5,4.6,0.2c0.6-0.1,1.1-0.3,1.7-0.5c-0.2-0.9-0.4-1.8-0.6-2.6
					c-0.7,0.1-1.4,0.3-2.2,0.4c-0.8,0.1-1.6,0-2.4-0.3c-0.6-0.3-1-0.7-1.2-1.4c2.3,0,4.6,0,6.9,0c0.2-1.6,0.2-3-0.5-4.5
					c-0.6-1.2-1.5-2-2.8-2.4c-0.7-0.2-1.4-0.2-2.2-0.2c-1.6,0.1-3,0.8-3.9,2.2c-0.9,1.4-1.2,2.9-1,4.5
					C22.7,50.8,23.9,52.3,26.1,53.1z M26.8,44.8c0.6-0.4,1.3-0.5,1.9-0.1c0.6,0.3,0.9,0.9,0.9,1.7c-1.2,0-2.4,0-3.6,0
					C26,45.6,26.2,45.1,26.8,44.8z"/>
				<path fill="#811E68" d="M85.5,52.5c-0.2-0.8-0.3-1.6-0.5-2.4c-0.2,0.1-0.3,0.1-0.5,0.1c-0.8,0.2-1.6,0.4-2.5,0.3
					c-0.7,0-1.4-0.2-2.1-0.6c-0.4-0.3-0.6-0.7-0.7-1.2c0.2,0,0.3,0,0.4,0c2.1,0,4.1,0,6.2,0c0.2,0,0.3-0.1,0.3-0.3
					c0.2-1.2,0.1-2.5-0.3-3.6c-0.5-1.4-1.4-2.4-2.8-2.8c-0.8-0.3-1.6-0.3-2.4-0.3c-1.7,0.1-3,0.9-3.9,2.3c-0.9,1.5-1.2,3.1-0.9,4.9
					c0.3,1.7,1.3,3,2.9,3.8c1.2,0.6,2.5,0.7,3.8,0.6c1,0,2-0.3,2.9-0.6C85.5,52.8,85.5,52.7,85.5,52.5z M80,44.7
					c0.6-0.4,1.3-0.5,2-0.1c0.6,0.4,0.8,0.9,0.9,1.6c-1.2,0-2.4,0-3.6,0C79.2,45.6,79.5,45.1,80,44.7z"/>
				<path fill="#811E68" d="M66.2,53.2c0.2,0,0.2-0.1,0.2-0.3c0-0.9,0-1.7,0-2.6c0,0,0-0.1,0-0.1c-0.5,0-1.1,0.1-1.6,0.1
					c-0.5,0-0.9-0.3-1-0.8c-0.1-0.2-0.1-0.5-0.1-0.7c0-1.2,0-2.4,0-3.6c0-0.1,0-0.2,0-0.3c0.8,0,1.6,0,2.4,0c0-0.9,0-1.9,0-2.8
					c-0.8,0-1.6,0-2.4,0c0-1.2,0-2.3,0-3.4c-1.2,0.1-2.4,0.3-3.7,0.4c0,1,0,2,0,3c-0.5,0-0.9,0-1.4,0c0,0.9,0,1.9,0,2.8
					c0.2,0,0.5,0,0.7,0c0.2,0,0.5,0,0.7,0c0,0.2,0,0.3,0,0.4c0,1.4,0,2.8,0,4.2c0,0.4,0,0.9,0.1,1.3c0.3,1.6,1.3,2.6,2.9,2.8
					C64,53.5,65.1,53.4,66.2,53.2z"/>
				<path fill="#811E68" d="M68.5,45.2c0,1.4,0,2.7,0,4.1c0,0.4,0,0.8,0.1,1.2c0.2,1.6,1.1,2.5,2.7,2.8c0.7,0.2,1.5,0.1,2.2,0
					c0.5-0.1,0.9-0.2,1.4-0.2c0-1,0-2,0-2.9c-0.5,0-0.9,0.1-1.3,0.1c-0.8,0-1.3-0.4-1.4-1.3c0-1.4,0-2.7,0-4.1c0,0,0-0.1,0-0.1
					c0.8,0,1.5,0,2.3,0c0-0.9,0-1.9,0-2.8c-0.8,0-1.6,0-2.4,0c0-0.6,0-1.1,0-1.7c0-0.6,0-1.1,0-1.7c-0.1,0-0.1,0-0.2,0
					c-1.1,0.1-2.2,0.3-3.3,0.4c-0.2,0-0.2,0.1-0.2,0.2c0,0.6,0,1.2,0,1.8c0,0.3,0,0.7,0,1c-0.5,0-0.9,0-1.4,0c0,0.9,0,1.9,0,2.8
					c0.5,0,0.9,0,1.4,0C68.5,45,68.5,45.1,68.5,45.2z"/>
				<path fill="#811E68" d="M38.2,53.2c0.2,0,0.3-0.1,0.3-0.3c0-4.8,0-9.7,0-14.5c0-0.2,0-0.3-0.3-0.3c-1.1,0-2.1,0-3.2,0
					c-0.1,0-0.2,0-0.2,0c0,5,0,10,0,15.1c0.1,0,0.2,0,0.2,0C36,53.2,37.1,53.2,38.2,53.2z"/>
				<path fill="#811E68" d="M56.7,53.2c0.3,0,0.3-0.1,0.3-0.3c0-3.5,0-7,0-10.5c0-0.1,0-0.2,0-0.3c-1.3,0-2.5,0-3.7,0
					c0,3.7,0,7.4,0,11.1c0.1,0,0.2,0,0.3,0C54.6,53.2,55.7,53.2,56.7,53.2z"/>
				<path fill="#811E68" d="M54.4,64.2c-0.5,0.1-0.9,0-1.4-0.2c-0.1-0.1-0.3-0.1-0.5-0.2c-0.9-0.2-1.7-0.1-2.4,0.5
					c-0.7,0.7-0.5,1.8,0.3,2.3c0.1,0,0.2,0.1,0.3,0.2c-0.3,0.1-0.6,0.2-0.9,0.3c-0.4,0.1-0.5,0.4-0.3,0.8c0.1,0.2,0.3,0.4,0.5,0.5
					c0.1,0.1,0.2,0.2,0.3,0.3c-0.2,0.1-0.3,0.2-0.4,0.2c-0.2,0.1-0.4,0.2-0.6,0.4c-0.4,0.3-0.4,0.7-0.1,1.1c0.2,0.2,0.5,0.4,0.7,0.5
					c0.7,0.2,1.5,0.1,2.2,0c0.7-0.1,1.3-0.3,1.8-0.8c0.4-0.4,0.5-0.8,0.4-1.3c-0.1-0.5-0.5-0.7-0.9-0.8c-0.5-0.1-0.9-0.1-1.4-0.2
					c-0.4,0-0.7,0-1.1-0.1c-0.2,0-0.3,0-0.3-0.3c0-0.2,0.1-0.3,0.3-0.4c0.3,0,0.6-0.1,0.8-0.1c1.3,0,2-0.7,2-1.9
					c0-0.2,0.1-0.3,0.3-0.3c0.2,0,0.5,0,0.7-0.1C54.9,64.2,54.8,64.1,54.4,64.2z M51.1,68.8c0.2,0,0.3,0,0.5,0c0,0,0,0,0,0
					c0.5,0.1,1,0.1,1.4,0.2c0.2,0,0.5,0.1,0.5,0.4c0.1,0.3-0.1,0.5-0.3,0.7c-0.5,0.4-1.1,0.5-1.8,0.5c-0.3,0-0.6-0.1-0.8-0.2
					c-0.5-0.2-0.6-0.8-0.3-1.2C50.5,68.9,50.8,68.8,51.1,68.8z M52.5,66.2c-0.1,0.3-0.4,0.5-0.7,0.5c-0.3,0-0.6-0.2-0.7-0.5
					c-0.2-0.6-0.2-1.2,0-1.8c0.1-0.3,0.4-0.5,0.7-0.5c0.4,0,0.6,0.2,0.7,0.5c0.1,0.3,0.1,0.5,0.2,0.8C52.6,65.6,52.6,65.9,52.5,66.2
					z"/>
				<path fill="#811E68" d="M68.3,63c0-0.1,0.1-0.2,0.1-0.2c0-0.4,0-0.7,0-1.1c0-0.4-0.1-0.5-0.5-0.5c-1.6,0-3.2,0-4.8,0
					c-0.1,0-0.2,0-0.2,0c-0.1,0-0.2,0.1-0.2,0.2c0,0,0.1,0.1,0.2,0.2c0.1,0,0.3,0,0.4,0.1c0.2,0,0.3,0.1,0.3,0.3c0,0.1,0,0.2,0,0.4
					c0,1.2,0,2.5-0.1,3.7c0,0.5,0,1,0,1.5c0,0.3-0.1,0.4-0.4,0.4c-0.1,0-0.3,0-0.4,0c-0.1,0-0.2,0.1-0.2,0.2c0,0.2,0.1,0.2,0.2,0.2
					c0.3,0,0.6,0,0.9,0c0.8,0,1.6,0,2.4,0c0.1,0,0.2-0.1,0.3-0.1c-0.1-0.1-0.1-0.2-0.2-0.2c-0.2-0.1-0.4-0.1-0.6-0.1
					c-0.4-0.1-0.5-0.2-0.5-0.6c0-0.3,0-0.7,0-1c0-0.4,0-0.7,0-1.1c0-0.1,0.1-0.3,0.2-0.3c0.5-0.1,1-0.1,1.5,0.1
					c0.4,0.1,0.4,0.5,0.5,0.8c0,0,0,0,0,0c0.1,0.1,0.1,0.1,0.2,0.2c0-0.1,0.1-0.1,0.1-0.2c0-0.7,0-1.4,0-2.1c0-0.1-0.1-0.1-0.1-0.2
					c-0.1,0.1-0.2,0.1-0.2,0.2c0,0.1-0.1,0.1-0.1,0.2c-0.1,0.3-0.3,0.5-0.6,0.6c-0.4,0-0.8,0.1-1.1,0.1c-0.2,0-0.3-0.1-0.3-0.4
					c0-0.6,0-1.2,0-1.8c0-0.1,0-0.2,0-0.3c0-0.2,0.2-0.3,0.4-0.4c0.3,0,0.7,0,1,0c0.7,0.1,1.4,0.3,1.5,1.1
					C68.1,62.9,68.2,62.9,68.3,63z"/>
				<path fill="#811E68" d="M29.4,68.1c-0.4-0.1-0.5-0.4-0.5-0.8c0-0.8,0-1.5,0-2.3c0-0.6-0.3-1.1-0.9-1.3c-0.4-0.1-0.9-0.2-1.3,0
					c-0.4,0.1-0.8,0.3-1.2,0.5c0-0.1,0-0.2,0-0.2c0-1,0-1.9,0-2.9c0-0.3-0.1-0.3-0.3-0.3c-0.4,0.1-0.8,0.3-1.2,0.4
					c-0.1,0-0.1,0.1-0.2,0.2c0.1,0.1,0.1,0.2,0.2,0.2c0.2,0.1,0.3,0.2,0.3,0.4c0,1.7,0,3.4,0,5.2c0,0.4,0,0.8-0.6,0.9
					c0,0-0.1,0-0.1,0c0,0-0.1,0.1-0.1,0.2c0,0,0.1,0.1,0.1,0.1c0.1,0,0.2,0,0.3,0c0.6,0,1.2,0,1.8,0c0.1,0,0.2,0,0.3,0
					c0.1,0,0.1-0.1,0.2-0.1c-0.1-0.1-0.1-0.1-0.2-0.2c-0.2,0-0.3-0.1-0.5-0.1c-0.2,0-0.2-0.2-0.2-0.3c0-0.8,0-1.6,0-2.4
					c0-0.3,0.1-0.5,0.3-0.6c0.5-0.3,1-0.3,1.5-0.1c0.2,0.1,0.4,0.3,0.4,0.6c0,0.8,0,1.6,0,2.4c0,0.3-0.2,0.5-0.5,0.5
					c-0.1,0-0.2,0.1-0.3,0.2c0.1,0.1,0.2,0.1,0.3,0.1c0.4,0,0.9,0,1.3,0c0.2,0,0.5,0,0.7,0c0.1,0,0.2-0.1,0.2-0.1
					C29.5,68.3,29.5,68.2,29.4,68.1z"/>
				<path fill="#811E68" d="M88,61.2c-0.1,0-0.2,0-0.2,0c0,0-0.1,0-0.1,0c-0.9,0.2-1.4,0.7-1.8,1.5c-0.5,1-0.5,2-0.4,3
					c0.1,0.5,0.2,1,0.4,1.4c0.4,0.8,1,1.3,2,1.4c1,0,1.7-0.4,2.1-1.2c0.8-1.6,0.8-3.3,0.1-4.9C89.6,61.7,88.9,61.2,88,61.2z M89,67
					c-0.1,0.3-0.2,0.6-0.4,0.8c-0.4,0.6-1.1,0.6-1.5,0c-0.2-0.3-0.3-0.6-0.3-0.9c-0.2-1.4-0.3-2.9,0.1-4.3c0.1-0.3,0.2-0.5,0.4-0.8
					c0.4-0.5,1-0.5,1.4,0c0.3,0.4,0.4,1,0.5,1.5c0.1,0.5,0.1,0.9,0.1,1.4c0,0,0,0,0.1,0C89.2,65.6,89.1,66.3,89,67z"/>
				<path fill="#811E68" d="M13.7,68.1C13.5,68,13.3,68,13.2,68c-0.4,0-0.5-0.1-0.5-0.5c0-0.1,0-0.2,0-0.4c0-0.8,0-1.5,0-2.3
					c0-0.9,0-1.7,0-2.6c0-0.3,0.1-0.4,0.4-0.4c0.3,0,0.5,0,0.8,0c0.7,0,1.3,0.1,1.4,1c0,0.1,0.1,0.1,0.2,0.2
					c0.1-0.1,0.1-0.1,0.2-0.2c0-0.6,0-1.2,0.1-1.7c0-0.1-0.1-0.1-0.1-0.2c-0.1,0-0.2,0.1-0.2,0.1c-0.1,0.2-0.3,0.3-0.5,0.4
					c-0.1,0-0.2,0-0.3,0c-1.6,0-3.1,0-4.7,0c-0.3,0-0.6,0-0.8-0.3C9,61.1,8.9,61,8.8,61c-0.1,0-0.2,0.1-0.2,0.2
					c-0.2,0.5-0.4,1.1-0.5,1.6c0,0.1,0,0.1,0,0.2c0,0.1,0,0.2,0.1,0.2c0.1,0,0.2,0,0.2-0.1c0.1-0.1,0.1-0.2,0.2-0.3
					c0.1-0.2,0.3-0.4,0.4-0.5c0.6-0.5,1.3-0.5,2-0.3c0.1,0,0.2,0.1,0.2,0.2c0,0.1,0,0.2,0,0.3c0,1.5,0,3.1,0,4.6c0,0.1,0,0.2,0,0.3
					c-0.1,0.4-0.2,0.5-0.6,0.6c-0.1,0-0.3,0-0.4,0.1c-0.1,0-0.1,0.1-0.1,0.2c0,0,0.1,0.1,0.2,0.1c0.1,0,0.1,0,0.2,0
					c0.7,0,1.5-0.1,2.2-0.1c0.3,0,0.7,0,1,0c0.1,0,0.2-0.1,0.2-0.2C13.8,68.2,13.8,68.1,13.7,68.1z"/>
				<path fill="#811E68" d="M89.9,49.3c-1.1,0-2,0.9-2,2.1c0,1.2,0.9,2,2.1,2c1.1,0,2-0.9,2-2C91.9,50.2,91,49.3,89.9,49.3z"/>
				<path fill="#811E68" d="M35.5,68.1c-0.4-0.1-0.4-0.1-0.4-0.6c0-0.7,0-1.4,0-2.2c0-1.1-0.7-1.8-1.9-1.6c-0.5,0.1-0.9,0.3-1.3,0.6
					c-0.2,0.1-0.2,0.1-0.3-0.1c0-0.2,0-0.4,0-0.7c-0.2,0.1-0.2,0.2-0.3,0.2c-0.4,0.3-0.7,0.5-1.1,0.8c-0.2,0.1-0.2,0.2,0,0.3
					c0.2,0.1,0.3,0.2,0.3,0.5c0,0.7,0,1.5,0,2.2c0,0.3-0.1,0.6-0.4,0.7c-0.1,0-0.1,0.1-0.2,0.2c0.1,0,0.2,0.1,0.2,0.1
					c0.7,0,1.4,0,2.2,0c0.1,0,0.2-0.1,0.3-0.1c-0.1-0.1-0.1-0.1-0.2-0.2c0,0-0.1,0-0.1,0c-0.5-0.1-0.6-0.2-0.6-0.7
					c0-0.7,0-1.5,0-2.2c0-0.3,0.2-0.6,0.5-0.7c0.2-0.1,0.5-0.1,0.7-0.2c0.6,0,1,0.2,1.1,0.8c0,0.8,0,1.7,0,2.5
					c0,0.2-0.1,0.3-0.3,0.4c-0.2,0-0.3,0.1-0.5,0.1c0,0,0,0.1,0,0.1c0.1,0,0.2,0.1,0.3,0.1c0.5,0,1,0,1.5,0c0.2,0,0.5,0,0.7,0
					c0.1,0,0.2-0.1,0.2-0.1c0-0.1-0.1-0.1-0.1-0.2C35.6,68.1,35.6,68.1,35.5,68.1z"/>
				<path fill="#811E68" d="M72.5,67.7c-0.4,0.1-0.5,0-0.5-0.3c0-0.7,0-1.4,0-2c0,0,0,0,0,0c0-0.2,0-0.4,0-0.6
					c0-0.5-0.3-0.8-0.7-0.9c-1-0.2-1.9,0-2.7,0.6c-0.2,0.2-0.3,0.4-0.5,0.6c-0.1,0.2,0,0.4,0.3,0.4c0.4,0,0.6-0.2,0.8-0.6
					c0.1-0.2,0.2-0.4,0.4-0.5c0.3-0.2,0.6-0.3,0.9-0.1c0.4,0.2,0.4,0.5,0.4,0.9c0,0.3-0.2,0.4-0.5,0.6c-0.5,0.2-1.1,0.5-1.6,0.8
					c-0.5,0.3-0.7,0.8-0.6,1.4c0,0.5,0.3,0.8,0.8,0.8c0.5,0,1-0.1,1.4-0.4c0.2-0.2,0.4-0.2,0.7,0c0.5,0.4,1.4,0.3,1.8-0.3
					c0.1-0.1,0-0.2,0.1-0.3c-0.1,0-0.2,0-0.3,0C72.6,67.7,72.5,67.7,72.5,67.7z M70.8,67.3c-0.1,0.4-0.2,0.6-0.6,0.6
					c-0.6,0.1-0.9-0.2-0.8-0.7c0.1-0.5,0.8-1.2,1.3-1.2c0.1,0,0.2,0.1,0.2,0.2c0,0.2,0,0.3,0,0.5c0,0,0,0,0,0
					C70.8,66.8,70.8,67.1,70.8,67.3z"/>
				<path fill="#811E68" d="M84.1,64c-0.3-0.2-0.6-0.3-0.9-0.4c-0.4-0.1-0.7-0.1-1.1-0.2c-0.1,0-0.3-0.1-0.3-0.2
					c-0.1-0.4,0.1-0.7,0.5-0.7c0.6-0.1,1.1-0.1,1.7-0.1c0.2,0,0.4,0,0.5-0.1c0.1-0.3,0.1-0.6,0.1-0.8c0,0-0.3-0.1-0.5-0.1
					c-0.1,0-0.1,0-0.2,0c0,0,0,0,0,0c-0.6,0.1-1.2,0.1-1.7,0.2c-0.2,0-0.3,0.1-0.4,0.3c-0.2,0.7-0.4,1.5-0.6,2.2
					c-0.1,0.4-0.1,0.5,0.4,0.5c0.5,0.1,1,0.1,1.5,0.3c0.5,0.2,0.9,0.6,0.9,1.1c0.1,0.7-0.2,1.4-0.8,1.8c-0.5,0.5-1.2,0.7-1.9,0.9
					c-0.1,0-0.2,0.1-0.2,0.2c0.1,0.1,0.2,0.1,0.3,0.2c0,0,0.1,0,0.1,0c0.8-0.1,1.5-0.3,2.2-0.8c0.9-0.6,1.5-1.5,1.4-2.6
					C84.9,64.9,84.6,64.4,84.1,64z"/>
				<path fill="#811E68" d="M57,40.8c0-0.8,0-1.6,0-2.4c0-0.2-0.1-0.3-0.3-0.3c-1.1,0-2.1,0-3.2,0c-0.1,0-0.2,0-0.3,0
					c0,1,0,1.9,0,2.9c1.2,0,2.5,0,3.7,0C57,40.9,57,40.8,57,40.8z"/>
				<path fill="#811E68" d="M48.7,64.6c-0.7-0.8-1.6-1-2.6-0.9c-1.6,0.2-2.6,1.8-2,3.3c0.3,1,1.4,1.6,2.5,1.7c0.3,0,0.5-0.1,0.8-0.1
					C49.1,68,49.8,66,48.7,64.6z M47.5,67.8c-0.5,0.7-1.3,0.7-1.9,0.1c-0.5-0.6-0.6-1.4-0.5-2.2c0.1-0.5,0.2-1,0.6-1.3
					c0.5-0.5,1.2-0.5,1.7,0.1c0.3,0.4,0.5,1,0.5,1.5C48,66.7,47.9,67.3,47.5,67.8z"/>
				<path fill="#811E68" d="M40.3,64.4c-0.9-0.8-2.4-0.9-3.5-0.2c-0.8,0.5-1.1,1.3-1,2.2c0.2,1.3,1.3,2.2,2.6,2.2
					c0.3,0,0.5-0.1,0.8-0.1c0.9-0.3,1.6-0.8,1.8-1.8C41.2,65.8,41,65,40.3,64.4z M39.4,67.8c-0.5,0.7-1.4,0.7-1.9,0
					C37,67.2,37,66.4,37,65.7c0.1-0.5,0.2-1,0.6-1.3c0.5-0.5,1.2-0.5,1.7,0.1c0.4,0.5,0.5,1.1,0.5,1.8
					C39.8,66.8,39.7,67.3,39.4,67.8z"/>
				<path fill="#811E68" d="M17.6,63.9c-0.9-0.4-1.7-0.2-2.4,0.3c-0.8,0.6-1.1,1.5-1,2.4c0.3,1.4,1.4,2.2,2.8,1.9
					c0.6-0.1,1.1-0.4,1.4-0.9c0.1-0.1,0-0.2,0.1-0.3c-0.1,0-0.2,0-0.3,0c-0.2,0.1-0.4,0.2-0.6,0.3c-1,0.5-2.3-0.4-2.2-1.5
					c0-0.3,0.1-0.4,0.4-0.4c0.2,0,0.4,0,0.7,0c0.7,0,1.4,0,2.2,0C18.8,65.1,18.3,64.2,17.6,63.9z M17.6,64.9c0,0.3-0.2,0.4-0.5,0.4
					c-0.3,0-0.5,0.1-0.8,0.1c0,0,0,0,0,0c-0.2,0-0.4,0-0.5,0c-0.2,0-0.2-0.1-0.2-0.2c0-0.8,1-1.4,1.7-1.1
					C17.5,64.3,17.6,64.5,17.6,64.9z"/>
				<path fill="#811E68" d="M58.4,63.9c-0.1,0-0.1,0.1-0.2,0.1c0,0,0.1,0.1,0.1,0.1c0,0,0.1,0,0.1,0.1c0.3,0.1,0.4,0.2,0.4,0.6
					c0,0.1-0.1,0.3-0.1,0.4c-0.3,0.6-0.5,1.2-0.8,1.8c0,0.1-0.1,0.2-0.2,0.3c-0.1-0.1-0.1-0.2-0.1-0.3c-0.3-0.7-0.5-1.4-0.8-2.1
					c-0.2-0.4-0.1-0.6,0.4-0.7c0.1,0,0.2-0.1,0.2-0.2c-0.1,0-0.2-0.1-0.3-0.1c-0.6,0-1.3,0-1.9,0c-0.1,0-0.2,0.1-0.3,0.1
					c0.1,0.1,0.1,0.2,0.2,0.3c0.2,0.1,0.4,0.2,0.4,0.5c0.5,1.2,0.9,2.3,1.4,3.5c0.2,0.5,0,0.9-0.2,1.4c-0.2,0.3-0.5,0.3-0.9,0.3
					c-0.3,0-0.5,0.1-0.5,0.4c-0.1,0.3,0,0.6,0.3,0.7c0.4,0.2,0.8,0.1,1.1-0.3c0.1-0.2,0.2-0.4,0.3-0.5c0.2-0.5,0.4-1,0.6-1.5
					c0.6-1.3,1.2-2.7,1.9-4c0.1-0.2,0.3-0.3,0.4-0.4c0.1-0.1,0.1-0.1,0.1-0.2c-0.1,0-0.1-0.1-0.2-0.1C59.4,63.9,58.9,63.9,58.4,63.9
					z"/>
				<path fill="#811E68" d="M43.8,68.1c-0.1-0.1-0.3-0.1-0.4-0.1c-0.3,0-0.3-0.2-0.3-0.4c0-1,0-2.1,0-3.1c0-1,0-2,0-3.1
					c0-0.1,0-0.2,0-0.3c0-0.1-0.1-0.2-0.2-0.1c-0.4,0.2-0.9,0.3-1.3,0.5c-0.1,0-0.2,0.1-0.2,0.2c0,0.1,0.1,0.2,0.2,0.2
					c0.3,0.1,0.4,0.4,0.4,0.7c0,1.6,0,3.2,0,4.7c0,0.8,0,0.7-0.7,0.9c0,0,0,0-0.1,0c-0.1,0.1-0.1,0.1-0.2,0.2c0.1,0,0.2,0.1,0.3,0.1
					c0.7,0,1.5,0,2.2,0c0.1,0,0.2,0,0.3,0c0.1,0,0.2-0.1,0.2-0.1C44,68.2,43.9,68.2,43.8,68.1z"/>
				<path fill="#811E68" d="M75.2,65.5c-0.3-0.1-0.6-0.3-0.8-0.4c-0.2-0.1-0.3-0.2-0.3-0.5c0-0.2,0.2-0.4,0.4-0.4
					c0.5-0.2,1.1,0,1.3,0.5c0.1,0.1,0.1,0.2,0.2,0.3c0,0,0.1,0.1,0.2,0.1c0,0,0.1-0.1,0.1-0.2c0-0.1,0-0.3,0-0.4c0,0,0,0,0.1,0
					c-0.1-0.2-0.1-0.4-0.2-0.5c-0.7-0.5-2-0.3-2.6,0.2c-0.6,0.6-0.6,1.5,0.2,1.9c0.3,0.2,0.7,0.3,1,0.5c0.2,0.1,0.5,0.3,0.7,0.5
					c0.4,0.4,0.2,0.9-0.3,1.1c-0.5,0.2-1.3,0.1-1.6-0.7c0,0,0-0.1-0.1-0.1c0-0.1-0.1-0.1-0.2-0.1c-0.1,0-0.1,0.1-0.2,0.2
					c0,0.2,0,0.4-0.1,0.6c0,0.3,0.1,0.5,0.4,0.5c0.8,0.3,1.7,0.3,2.5-0.1c0.9-0.4,1-1.6,0.3-2.3C75.9,65.8,75.6,65.7,75.2,65.5z"/>
				<path fill="#811E68" d="M23.1,63.9c-0.3-0.1-0.6-0.1-0.9-0.2c-1.1-0.1-2.1,0.3-2.7,1.2c-0.9,1.2-0.4,3,1,3.5
					c0.6,0.2,1.2,0.2,1.8,0.1c0.4-0.1,0.8-0.2,1.1-0.5c0.1-0.1,0.1-0.2,0.1-0.3c-0.1,0-0.2,0-0.3,0c0,0-0.1,0-0.1,0.1
					c-1.3,0.7-2.7-0.1-2.7-1.6c0-0.6,0.1-1.1,0.5-1.5c0.4-0.6,1.3-0.8,1.7,0c0.1,0.1,0.1,0.2,0.2,0.3c0.1,0.1,0.3,0.2,0.4,0.2
					c0.2,0,0.3-0.1,0.4-0.3C23.6,64.3,23.5,64,23.1,63.9z"/>
				<path fill="#811E68" d="M78.9,64.5c0.3,0,0.7,0,1,0c0.3,0,0.2-0.2,0.2-0.3c0-0.2-0.1-0.3-0.2-0.3c-0.3,0-0.6,0-0.9,0
					c-0.2,0-0.3-0.1-0.3-0.2c0-0.1,0-0.3,0-0.4c0-0.1-0.1-0.2-0.1-0.2c-0.1,0-0.2,0.1-0.2,0.1c-0.1,0.1-0.1,0.2-0.2,0.2
					c-0.3,0.3-0.6,0.5-0.9,0.7c-0.1,0.1-0.2,0.1-0.3,0.2c-0.1,0-0.2,0.2-0.1,0.2c0,0.1,0.1,0.1,0.2,0.2c0.1,0,0.2,0,0.4,0
					c0,0.1,0,0.2,0,0.4c0,0.8,0,1.6,0,2.4c0,0.4,0.1,0.7,0.3,0.9c0.5,0.5,1.8,0.3,2.2-0.3c0,0,0,0,0,0c0-0.1,0-0.2,0-0.2
					c0,0-0.1-0.1-0.2,0c-0.2,0-0.4,0.1-0.7,0.1c-0.4,0-0.6-0.1-0.6-0.5c0-0.8,0-1.7,0-2.5C78.6,64.6,78.7,64.5,78.9,64.5z"/>
			</g>
		</g>
	</g>
</g>
<g id="ICONS_-_WHITE" display="none">
	<g display="inline">
		<g>
			<g>
				<path fill="#FFFFFF" d="M12.8,53.2c1.2,0,2.3-0.2,3.4-0.5c2.2-0.7,3.8-2.1,4.7-4.3c0.5-1.5,0.6-3,0.3-4.5c-0.3-2-1.3-3.5-3-4.6
					c-1.5-0.9-3.2-1.3-5-1.4c-1.3,0-2.6,0-3.9,0.1C8.8,38,8.4,38,8.1,38c0,5.1,0,10.1,0,15.2c0.1,0,0.1,0,0.2,0
					C9.8,53.2,11.3,53.2,12.8,53.2z M11.8,41c1.3-0.2,2.6-0.1,3.8,0.7c1,0.6,1.5,1.6,1.8,2.7c0.2,1,0.2,1.9-0.1,2.9
					c-0.5,1.7-1.7,2.6-3.4,2.9c-0.7,0.1-1.4,0.1-2.1,0.1C11.8,47.1,11.8,44.1,11.8,41z"/>
				<path fill="#FFFFFF" d="M43.5,53c1.1,0.4,2.2,0.5,3.3,0.3c1.9-0.3,3.4-1.2,4.2-2.9c0.7-1.5,0.8-3,0.4-4.6
					c-0.3-1.4-1.1-2.5-2.3-3.2c-1-0.6-2-0.8-3.2-0.8c-0.5,0-0.9,0.1-1.4,0.2c-1.9,0.4-3.3,1.4-4,3.2c-0.6,1.4-0.7,2.9-0.3,4.4
					C40.8,51.2,41.9,52.4,43.5,53z M43.9,47.3c0-0.6,0.1-1.2,0.4-1.7c0.3-0.6,0.7-1,1.4-1c0.6-0.1,1.1,0.1,1.4,0.6
					c0.5,0.6,0.6,1.4,0.7,2.2c0,0.1,0,0.1,0,0.2c0,0.7-0.1,1.4-0.4,2c-0.3,0.6-0.8,1-1.5,1c-0.7,0-1.2-0.3-1.5-0.9
					C44,49,43.9,48.2,43.9,47.3z"/>
				<path fill="#FFFFFF" d="M26.1,53.1c1.5,0.5,3.1,0.5,4.6,0.2c0.6-0.1,1.1-0.3,1.7-0.5c-0.2-0.9-0.4-1.8-0.6-2.6
					c-0.7,0.1-1.4,0.3-2.2,0.4c-0.8,0.1-1.6,0-2.4-0.3c-0.6-0.3-1-0.7-1.2-1.4c2.3,0,4.6,0,6.9,0c0.2-1.6,0.2-3-0.5-4.5
					c-0.6-1.2-1.5-2-2.8-2.4c-0.7-0.2-1.4-0.2-2.2-0.2c-1.6,0.1-3,0.8-3.9,2.2c-0.9,1.4-1.2,2.9-1,4.5
					C22.7,50.8,23.9,52.3,26.1,53.1z M26.8,44.8c0.6-0.4,1.3-0.5,1.9-0.1c0.6,0.3,0.9,0.9,0.9,1.7c-1.2,0-2.4,0-3.6,0
					C26,45.6,26.2,45.1,26.8,44.8z"/>
				<path fill="#FFFFFF" d="M85.5,52.5c-0.2-0.8-0.3-1.6-0.5-2.4c-0.2,0.1-0.3,0.1-0.5,0.1c-0.8,0.2-1.6,0.4-2.5,0.3
					c-0.7,0-1.4-0.2-2.1-0.6c-0.4-0.3-0.6-0.7-0.7-1.2c0.2,0,0.3,0,0.4,0c2.1,0,4.1,0,6.2,0c0.2,0,0.3-0.1,0.3-0.3
					c0.2-1.2,0.1-2.5-0.3-3.6c-0.5-1.4-1.4-2.4-2.8-2.8c-0.8-0.3-1.6-0.3-2.4-0.3c-1.7,0.1-3,0.9-3.9,2.3c-0.9,1.5-1.2,3.1-0.9,4.9
					c0.3,1.7,1.3,3,2.9,3.8c1.2,0.6,2.5,0.7,3.8,0.6c1,0,2-0.3,2.9-0.6C85.5,52.8,85.5,52.7,85.5,52.5z M80,44.7
					c0.6-0.4,1.3-0.5,2-0.1c0.6,0.4,0.8,0.9,0.9,1.6c-1.2,0-2.4,0-3.6,0C79.2,45.6,79.5,45.1,80,44.7z"/>
				<path fill="#FFFFFF" d="M66.2,53.2c0.2,0,0.2-0.1,0.2-0.3c0-0.9,0-1.7,0-2.6c0,0,0-0.1,0-0.1c-0.5,0-1.1,0.1-1.6,0.1
					c-0.5,0-0.9-0.3-1-0.8c-0.1-0.2-0.1-0.5-0.1-0.7c0-1.2,0-2.4,0-3.6c0-0.1,0-0.2,0-0.3c0.8,0,1.6,0,2.4,0c0-0.9,0-1.9,0-2.8
					c-0.8,0-1.6,0-2.4,0c0-1.2,0-2.3,0-3.4c-1.2,0.1-2.4,0.3-3.7,0.4c0,1,0,2,0,3c-0.5,0-0.9,0-1.4,0c0,0.9,0,1.9,0,2.8
					c0.2,0,0.5,0,0.7,0c0.2,0,0.5,0,0.7,0c0,0.2,0,0.3,0,0.4c0,1.4,0,2.8,0,4.2c0,0.4,0,0.9,0.1,1.3c0.3,1.6,1.3,2.6,2.9,2.8
					C64,53.5,65.1,53.4,66.2,53.2z"/>
				<path fill="#FFFFFF" d="M68.5,45.2c0,1.4,0,2.7,0,4.1c0,0.4,0,0.8,0.1,1.2c0.2,1.6,1.1,2.5,2.7,2.8c0.7,0.2,1.5,0.1,2.2,0
					c0.5-0.1,0.9-0.2,1.4-0.2c0-1,0-2,0-2.9c-0.5,0-0.9,0.1-1.3,0.1c-0.8,0-1.3-0.4-1.4-1.3c0-1.4,0-2.7,0-4.1c0,0,0-0.1,0-0.1
					c0.8,0,1.5,0,2.3,0c0-0.9,0-1.9,0-2.8c-0.8,0-1.6,0-2.4,0c0-0.6,0-1.1,0-1.7c0-0.6,0-1.1,0-1.7c-0.1,0-0.1,0-0.2,0
					c-1.1,0.1-2.2,0.3-3.3,0.4c-0.2,0-0.2,0.1-0.2,0.2c0,0.6,0,1.2,0,1.8c0,0.3,0,0.7,0,1c-0.5,0-0.9,0-1.4,0c0,0.9,0,1.9,0,2.8
					c0.5,0,0.9,0,1.4,0C68.5,45,68.5,45.1,68.5,45.2z"/>
				<path fill="#FFFFFF" d="M38.2,53.2c0.2,0,0.3-0.1,0.3-0.3c0-4.8,0-9.7,0-14.5c0-0.2,0-0.3-0.3-0.3c-1.1,0-2.1,0-3.2,0
					c-0.1,0-0.2,0-0.2,0c0,5,0,10,0,15.1c0.1,0,0.2,0,0.2,0C36,53.2,37.1,53.2,38.2,53.2z"/>
				<path fill="#FFFFFF" d="M56.7,53.2c0.3,0,0.3-0.1,0.3-0.3c0-3.5,0-7,0-10.5c0-0.1,0-0.2,0-0.3c-1.3,0-2.5,0-3.7,0
					c0,3.7,0,7.4,0,11.1c0.1,0,0.2,0,0.3,0C54.6,53.2,55.7,53.2,56.7,53.2z"/>
				<path fill="#FFFFFF" d="M54.4,64.2c-0.5,0.1-0.9,0-1.4-0.2c-0.1-0.1-0.3-0.1-0.5-0.2c-0.9-0.2-1.7-0.1-2.4,0.5
					c-0.7,0.7-0.5,1.8,0.3,2.3c0.1,0,0.2,0.1,0.3,0.2c-0.3,0.1-0.6,0.2-0.9,0.3c-0.4,0.1-0.5,0.4-0.3,0.8c0.1,0.2,0.3,0.4,0.5,0.5
					c0.1,0.1,0.2,0.2,0.3,0.3c-0.2,0.1-0.3,0.2-0.4,0.2c-0.2,0.1-0.4,0.2-0.6,0.4c-0.4,0.3-0.4,0.7-0.1,1.1c0.2,0.2,0.5,0.4,0.7,0.5
					c0.7,0.2,1.5,0.1,2.2,0c0.7-0.1,1.3-0.3,1.8-0.8c0.4-0.4,0.5-0.8,0.4-1.3c-0.1-0.5-0.5-0.7-0.9-0.8c-0.5-0.1-0.9-0.1-1.4-0.2
					c-0.4,0-0.7,0-1.1-0.1c-0.2,0-0.3,0-0.3-0.3c0-0.2,0.1-0.3,0.3-0.4c0.3,0,0.6-0.1,0.8-0.1c1.3,0,2-0.7,2-1.9
					c0-0.2,0.1-0.3,0.3-0.3c0.2,0,0.5,0,0.7-0.1C54.9,64.2,54.8,64.1,54.4,64.2z M51.1,68.8c0.2,0,0.3,0,0.5,0c0,0,0,0,0,0
					c0.5,0.1,1,0.1,1.4,0.2c0.2,0,0.5,0.1,0.5,0.4c0.1,0.3-0.1,0.5-0.3,0.7c-0.5,0.4-1.1,0.5-1.8,0.5c-0.3,0-0.6-0.1-0.8-0.2
					c-0.5-0.2-0.6-0.8-0.3-1.2C50.5,68.9,50.8,68.8,51.1,68.8z M52.5,66.2c-0.1,0.3-0.4,0.5-0.7,0.5c-0.3,0-0.6-0.2-0.7-0.5
					c-0.2-0.6-0.2-1.2,0-1.8c0.1-0.3,0.4-0.5,0.7-0.5c0.4,0,0.6,0.2,0.7,0.5c0.1,0.3,0.1,0.5,0.2,0.8C52.6,65.6,52.6,65.9,52.5,66.2
					z"/>
				<path fill="#FFFFFF" d="M68.3,63c0-0.1,0.1-0.2,0.1-0.2c0-0.4,0-0.7,0-1.1c0-0.4-0.1-0.5-0.5-0.5c-1.6,0-3.2,0-4.8,0
					c-0.1,0-0.2,0-0.2,0c-0.1,0-0.2,0.1-0.2,0.2c0,0,0.1,0.1,0.2,0.2c0.1,0,0.3,0,0.4,0.1c0.2,0,0.3,0.1,0.3,0.3c0,0.1,0,0.2,0,0.4
					c0,1.2,0,2.5-0.1,3.7c0,0.5,0,1,0,1.5c0,0.3-0.1,0.4-0.4,0.4c-0.1,0-0.3,0-0.4,0c-0.1,0-0.2,0.1-0.2,0.2c0,0.2,0.1,0.2,0.2,0.2
					c0.3,0,0.6,0,0.9,0c0.8,0,1.6,0,2.4,0c0.1,0,0.2-0.1,0.3-0.1c-0.1-0.1-0.1-0.2-0.2-0.2c-0.2-0.1-0.4-0.1-0.6-0.1
					c-0.4-0.1-0.5-0.2-0.5-0.6c0-0.3,0-0.7,0-1c0-0.4,0-0.7,0-1.1c0-0.1,0.1-0.3,0.2-0.3c0.5-0.1,1-0.1,1.5,0.1
					c0.4,0.1,0.4,0.5,0.5,0.8c0,0,0,0,0,0c0.1,0.1,0.1,0.1,0.2,0.2c0-0.1,0.1-0.1,0.1-0.2c0-0.7,0-1.4,0-2.1c0-0.1-0.1-0.1-0.1-0.2
					c-0.1,0.1-0.2,0.1-0.2,0.2c0,0.1-0.1,0.1-0.1,0.2c-0.1,0.3-0.3,0.5-0.6,0.6c-0.4,0-0.8,0.1-1.1,0.1c-0.2,0-0.3-0.1-0.3-0.4
					c0-0.6,0-1.2,0-1.8c0-0.1,0-0.2,0-0.3c0-0.2,0.2-0.3,0.4-0.4c0.3,0,0.7,0,1,0c0.7,0.1,1.4,0.3,1.5,1.1
					C68.1,62.9,68.2,62.9,68.3,63z"/>
				<path fill="#FFFFFF" d="M29.4,68.1c-0.4-0.1-0.5-0.4-0.5-0.8c0-0.8,0-1.5,0-2.3c0-0.6-0.3-1.1-0.9-1.3c-0.4-0.1-0.9-0.2-1.3,0
					c-0.4,0.1-0.8,0.3-1.2,0.5c0-0.1,0-0.2,0-0.2c0-1,0-1.9,0-2.9c0-0.3-0.1-0.3-0.3-0.3c-0.4,0.1-0.8,0.3-1.2,0.4
					c-0.1,0-0.1,0.1-0.2,0.2c0.1,0.1,0.1,0.2,0.2,0.2c0.2,0.1,0.3,0.2,0.3,0.4c0,1.7,0,3.4,0,5.2c0,0.4,0,0.8-0.6,0.9
					c0,0-0.1,0-0.1,0c0,0-0.1,0.1-0.1,0.2c0,0,0.1,0.1,0.1,0.1c0.1,0,0.2,0,0.3,0c0.6,0,1.2,0,1.8,0c0.1,0,0.2,0,0.3,0
					c0.1,0,0.1-0.1,0.2-0.1c-0.1-0.1-0.1-0.1-0.2-0.2c-0.2,0-0.3-0.1-0.5-0.1c-0.2,0-0.2-0.2-0.2-0.3c0-0.8,0-1.6,0-2.4
					c0-0.3,0.1-0.5,0.3-0.6c0.5-0.3,1-0.3,1.5-0.1c0.2,0.1,0.4,0.3,0.4,0.6c0,0.8,0,1.6,0,2.4c0,0.3-0.2,0.5-0.5,0.5
					c-0.1,0-0.2,0.1-0.3,0.2c0.1,0.1,0.2,0.1,0.3,0.1c0.4,0,0.9,0,1.3,0c0.2,0,0.5,0,0.7,0c0.1,0,0.2-0.1,0.2-0.1
					C29.5,68.3,29.5,68.2,29.4,68.1z"/>
				<path fill="#FFFFFF" d="M88,61.2c-0.1,0-0.2,0-0.2,0c0,0-0.1,0-0.1,0c-0.9,0.2-1.4,0.7-1.8,1.5c-0.5,1-0.5,2-0.4,3
					c0.1,0.5,0.2,1,0.4,1.4c0.4,0.8,1,1.3,2,1.4c1,0,1.7-0.4,2.1-1.2c0.8-1.6,0.8-3.3,0.1-4.9C89.6,61.7,88.9,61.2,88,61.2z M89,67
					c-0.1,0.3-0.2,0.6-0.4,0.8c-0.4,0.6-1.1,0.6-1.5,0c-0.2-0.3-0.3-0.6-0.3-0.9c-0.2-1.4-0.3-2.9,0.1-4.3c0.1-0.3,0.2-0.5,0.4-0.8
					c0.4-0.5,1-0.5,1.4,0c0.3,0.4,0.4,1,0.5,1.5c0.1,0.5,0.1,0.9,0.1,1.4c0,0,0,0,0.1,0C89.2,65.6,89.1,66.3,89,67z"/>
				<path fill="#FFFFFF" d="M13.7,68.1C13.5,68,13.3,68,13.2,68c-0.4,0-0.5-0.1-0.5-0.5c0-0.1,0-0.2,0-0.4c0-0.8,0-1.5,0-2.3
					c0-0.9,0-1.7,0-2.6c0-0.3,0.1-0.4,0.4-0.4c0.3,0,0.5,0,0.8,0c0.7,0,1.3,0.1,1.4,1c0,0.1,0.1,0.1,0.2,0.2
					c0.1-0.1,0.1-0.1,0.2-0.2c0-0.6,0-1.2,0.1-1.7c0-0.1-0.1-0.1-0.1-0.2c-0.1,0-0.2,0.1-0.2,0.1c-0.1,0.2-0.3,0.3-0.5,0.4
					c-0.1,0-0.2,0-0.3,0c-1.6,0-3.1,0-4.7,0c-0.3,0-0.6,0-0.8-0.3C9,61.1,8.9,61,8.8,61c-0.1,0-0.2,0.1-0.2,0.2
					c-0.2,0.5-0.4,1.1-0.5,1.6c0,0.1,0,0.1,0,0.2c0,0.1,0,0.2,0.1,0.2c0.1,0,0.2,0,0.2-0.1c0.1-0.1,0.1-0.2,0.2-0.3
					c0.1-0.2,0.3-0.4,0.4-0.5c0.6-0.5,1.3-0.5,2-0.3c0.1,0,0.2,0.1,0.2,0.2c0,0.1,0,0.2,0,0.3c0,1.5,0,3.1,0,4.6c0,0.1,0,0.2,0,0.3
					c-0.1,0.4-0.2,0.5-0.6,0.6c-0.1,0-0.3,0-0.4,0.1c-0.1,0-0.1,0.1-0.1,0.2c0,0,0.1,0.1,0.2,0.1c0.1,0,0.1,0,0.2,0
					c0.7,0,1.5-0.1,2.2-0.1c0.3,0,0.7,0,1,0c0.1,0,0.2-0.1,0.2-0.2C13.8,68.2,13.8,68.1,13.7,68.1z"/>
				<path fill="#FFFFFF" d="M89.9,49.3c-1.1,0-2,0.9-2,2.1c0,1.2,0.9,2,2.1,2c1.1,0,2-0.9,2-2C91.9,50.2,91,49.3,89.9,49.3z"/>
				<path fill="#FFFFFF" d="M35.5,68.1c-0.4-0.1-0.4-0.1-0.4-0.6c0-0.7,0-1.4,0-2.2c0-1.1-0.7-1.8-1.9-1.6c-0.5,0.1-0.9,0.3-1.3,0.6
					c-0.2,0.1-0.2,0.1-0.3-0.1c0-0.2,0-0.4,0-0.7c-0.2,0.1-0.2,0.2-0.3,0.2c-0.4,0.3-0.7,0.5-1.1,0.8c-0.2,0.1-0.2,0.2,0,0.3
					c0.2,0.1,0.3,0.2,0.3,0.5c0,0.7,0,1.5,0,2.2c0,0.3-0.1,0.6-0.4,0.7c-0.1,0-0.1,0.1-0.2,0.2c0.1,0,0.2,0.1,0.2,0.1
					c0.7,0,1.4,0,2.2,0c0.1,0,0.2-0.1,0.3-0.1c-0.1-0.1-0.1-0.1-0.2-0.2c0,0-0.1,0-0.1,0c-0.5-0.1-0.6-0.2-0.6-0.7
					c0-0.7,0-1.5,0-2.2c0-0.3,0.2-0.6,0.5-0.7c0.2-0.1,0.5-0.1,0.7-0.2c0.6,0,1,0.2,1.1,0.8c0,0.8,0,1.7,0,2.5
					c0,0.2-0.1,0.3-0.3,0.4c-0.2,0-0.3,0.1-0.5,0.1c0,0,0,0.1,0,0.1c0.1,0,0.2,0.1,0.3,0.1c0.5,0,1,0,1.5,0c0.2,0,0.5,0,0.7,0
					c0.1,0,0.2-0.1,0.2-0.1c0-0.1-0.1-0.1-0.1-0.2C35.6,68.1,35.6,68.1,35.5,68.1z"/>
				<path fill="#FFFFFF" d="M72.5,67.7c-0.4,0.1-0.5,0-0.5-0.3c0-0.7,0-1.4,0-2c0,0,0,0,0,0c0-0.2,0-0.4,0-0.6
					c0-0.5-0.3-0.8-0.7-0.9c-1-0.2-1.9,0-2.7,0.6c-0.2,0.2-0.3,0.4-0.5,0.6c-0.1,0.2,0,0.4,0.3,0.4c0.4,0,0.6-0.2,0.8-0.6
					c0.1-0.2,0.2-0.4,0.4-0.5c0.3-0.2,0.6-0.3,0.9-0.1c0.4,0.2,0.4,0.5,0.4,0.9c0,0.3-0.2,0.4-0.5,0.6c-0.5,0.2-1.1,0.5-1.6,0.8
					c-0.5,0.3-0.7,0.8-0.6,1.4c0,0.5,0.3,0.8,0.8,0.8c0.5,0,1-0.1,1.4-0.4c0.2-0.2,0.4-0.2,0.7,0c0.5,0.4,1.4,0.3,1.8-0.3
					c0.1-0.1,0-0.2,0.1-0.3c-0.1,0-0.2,0-0.3,0C72.6,67.7,72.5,67.7,72.5,67.7z M70.8,67.3c-0.1,0.4-0.2,0.6-0.6,0.6
					c-0.6,0.1-0.9-0.2-0.8-0.7c0.1-0.5,0.8-1.2,1.3-1.2c0.1,0,0.2,0.1,0.2,0.2c0,0.2,0,0.3,0,0.5c0,0,0,0,0,0
					C70.8,66.8,70.8,67.1,70.8,67.3z"/>
				<path fill="#FFFFFF" d="M84.1,64c-0.3-0.2-0.6-0.3-0.9-0.4c-0.4-0.1-0.7-0.1-1.1-0.2c-0.1,0-0.3-0.1-0.3-0.2
					c-0.1-0.4,0.1-0.7,0.5-0.7c0.6-0.1,1.1-0.1,1.7-0.1c0.2,0,0.4,0,0.5-0.1c0.1-0.3,0.1-0.6,0.1-0.8c0,0-0.3-0.1-0.5-0.1
					c-0.1,0-0.1,0-0.2,0c0,0,0,0,0,0c-0.6,0.1-1.2,0.1-1.7,0.2c-0.2,0-0.3,0.1-0.4,0.3c-0.2,0.7-0.4,1.5-0.6,2.2
					c-0.1,0.4-0.1,0.5,0.4,0.5c0.5,0.1,1,0.1,1.5,0.3c0.5,0.2,0.9,0.6,0.9,1.1c0.1,0.7-0.2,1.4-0.8,1.8c-0.5,0.5-1.2,0.7-1.9,0.9
					c-0.1,0-0.2,0.1-0.2,0.2c0.1,0.1,0.2,0.1,0.3,0.2c0,0,0.1,0,0.1,0c0.8-0.1,1.5-0.3,2.2-0.8c0.9-0.6,1.5-1.5,1.4-2.6
					C84.9,64.9,84.6,64.4,84.1,64z"/>
				<path fill="#FFFFFF" d="M57,40.8c0-0.8,0-1.6,0-2.4c0-0.2-0.1-0.3-0.3-0.3c-1.1,0-2.1,0-3.2,0c-0.1,0-0.2,0-0.3,0
					c0,1,0,1.9,0,2.9c1.2,0,2.5,0,3.7,0C57,40.9,57,40.8,57,40.8z"/>
				<path fill="#FFFFFF" d="M48.7,64.6c-0.7-0.8-1.6-1-2.6-0.9c-1.6,0.2-2.6,1.8-2,3.3c0.3,1,1.4,1.6,2.5,1.7c0.3,0,0.5-0.1,0.8-0.1
					C49.1,68,49.8,66,48.7,64.6z M47.5,67.8c-0.5,0.7-1.3,0.7-1.9,0.1c-0.5-0.6-0.6-1.4-0.5-2.2c0.1-0.5,0.2-1,0.6-1.3
					c0.5-0.5,1.2-0.5,1.7,0.1c0.3,0.4,0.5,1,0.5,1.5C48,66.7,47.9,67.3,47.5,67.8z"/>
				<path fill="#FFFFFF" d="M40.3,64.4c-0.9-0.8-2.4-0.9-3.5-0.2c-0.8,0.5-1.1,1.3-1,2.2c0.2,1.3,1.3,2.2,2.6,2.2
					c0.3,0,0.5-0.1,0.8-0.1c0.9-0.3,1.6-0.8,1.8-1.8C41.2,65.8,41,65,40.3,64.4z M39.4,67.8c-0.5,0.7-1.4,0.7-1.9,0
					C37,67.2,37,66.4,37,65.7c0.1-0.5,0.2-1,0.6-1.3c0.5-0.5,1.2-0.5,1.7,0.1c0.4,0.5,0.5,1.1,0.5,1.8
					C39.8,66.8,39.7,67.3,39.4,67.8z"/>
				<path fill="#FFFFFF" d="M17.6,63.9c-0.9-0.4-1.7-0.2-2.4,0.3c-0.8,0.6-1.1,1.5-1,2.4c0.3,1.4,1.4,2.2,2.8,1.9
					c0.6-0.1,1.1-0.4,1.4-0.9c0.1-0.1,0-0.2,0.1-0.3c-0.1,0-0.2,0-0.3,0c-0.2,0.1-0.4,0.2-0.6,0.3c-1,0.5-2.3-0.4-2.2-1.5
					c0-0.3,0.1-0.4,0.4-0.4c0.2,0,0.4,0,0.7,0c0.7,0,1.4,0,2.2,0C18.8,65.1,18.3,64.2,17.6,63.9z M17.6,64.9c0,0.3-0.2,0.4-0.5,0.4
					c-0.3,0-0.5,0.1-0.8,0.1c0,0,0,0,0,0c-0.2,0-0.4,0-0.5,0c-0.2,0-0.2-0.1-0.2-0.2c0-0.8,1-1.4,1.7-1.1
					C17.5,64.3,17.6,64.5,17.6,64.9z"/>
				<path fill="#FFFFFF" d="M58.4,63.9c-0.1,0-0.1,0.1-0.2,0.1c0,0,0.1,0.1,0.1,0.1c0,0,0.1,0,0.1,0.1c0.3,0.1,0.4,0.2,0.4,0.6
					c0,0.1-0.1,0.3-0.1,0.4c-0.3,0.6-0.5,1.2-0.8,1.8c0,0.1-0.1,0.2-0.2,0.3c-0.1-0.1-0.1-0.2-0.1-0.3c-0.3-0.7-0.5-1.4-0.8-2.1
					c-0.2-0.4-0.1-0.6,0.4-0.7c0.1,0,0.2-0.1,0.2-0.2c-0.1,0-0.2-0.1-0.3-0.1c-0.6,0-1.3,0-1.9,0c-0.1,0-0.2,0.1-0.3,0.1
					c0.1,0.1,0.1,0.2,0.2,0.3c0.2,0.1,0.4,0.2,0.4,0.5c0.5,1.2,0.9,2.3,1.4,3.5c0.2,0.5,0,0.9-0.2,1.4c-0.2,0.3-0.5,0.3-0.9,0.3
					c-0.3,0-0.5,0.1-0.5,0.4c-0.1,0.3,0,0.6,0.3,0.7c0.4,0.2,0.8,0.1,1.1-0.3c0.1-0.2,0.2-0.4,0.3-0.5c0.2-0.5,0.4-1,0.6-1.5
					c0.6-1.3,1.2-2.7,1.9-4c0.1-0.2,0.3-0.3,0.4-0.4c0.1-0.1,0.1-0.1,0.1-0.2c-0.1,0-0.1-0.1-0.2-0.1C59.4,63.9,58.9,63.9,58.4,63.9
					z"/>
				<path fill="#FFFFFF" d="M43.8,68.1c-0.1-0.1-0.3-0.1-0.4-0.1c-0.3,0-0.3-0.2-0.3-0.4c0-1,0-2.1,0-3.1c0-1,0-2,0-3.1
					c0-0.1,0-0.2,0-0.3c0-0.1-0.1-0.2-0.2-0.1c-0.4,0.2-0.9,0.3-1.3,0.5c-0.1,0-0.2,0.1-0.2,0.2c0,0.1,0.1,0.2,0.2,0.2
					c0.3,0.1,0.4,0.4,0.4,0.7c0,1.6,0,3.2,0,4.7c0,0.8,0,0.7-0.7,0.9c0,0,0,0-0.1,0c-0.1,0.1-0.1,0.1-0.2,0.2c0.1,0,0.2,0.1,0.3,0.1
					c0.7,0,1.5,0,2.2,0c0.1,0,0.2,0,0.3,0c0.1,0,0.2-0.1,0.2-0.1C44,68.2,43.9,68.2,43.8,68.1z"/>
				<path fill="#FFFFFF" d="M75.2,65.5c-0.3-0.1-0.6-0.3-0.8-0.4c-0.2-0.1-0.3-0.2-0.3-0.5c0-0.2,0.2-0.4,0.4-0.4
					c0.5-0.2,1.1,0,1.3,0.5c0.1,0.1,0.1,0.2,0.2,0.3c0,0,0.1,0.1,0.2,0.1c0,0,0.1-0.1,0.1-0.2c0-0.1,0-0.3,0-0.4c0,0,0,0,0.1,0
					c-0.1-0.2-0.1-0.4-0.2-0.5c-0.7-0.5-2-0.3-2.6,0.2c-0.6,0.6-0.6,1.5,0.2,1.9c0.3,0.2,0.7,0.3,1,0.5c0.2,0.1,0.5,0.3,0.7,0.5
					c0.4,0.4,0.2,0.9-0.3,1.1c-0.5,0.2-1.3,0.1-1.6-0.7c0,0,0-0.1-0.1-0.1c0-0.1-0.1-0.1-0.2-0.1c-0.1,0-0.1,0.1-0.2,0.2
					c0,0.2,0,0.4-0.1,0.6c0,0.3,0.1,0.5,0.4,0.5c0.8,0.3,1.7,0.3,2.5-0.1c0.9-0.4,1-1.6,0.3-2.3C75.9,65.8,75.6,65.7,75.2,65.5z"/>
				<path fill="#FFFFFF" d="M23.1,63.9c-0.3-0.1-0.6-0.1-0.9-0.2c-1.1-0.1-2.1,0.3-2.7,1.2c-0.9,1.2-0.4,3,1,3.5
					c0.6,0.2,1.2,0.2,1.8,0.1c0.4-0.1,0.8-0.2,1.1-0.5c0.1-0.1,0.1-0.2,0.1-0.3c-0.1,0-0.2,0-0.3,0c0,0-0.1,0-0.1,0.1
					c-1.3,0.7-2.7-0.1-2.7-1.6c0-0.6,0.1-1.1,0.5-1.5c0.4-0.6,1.3-0.8,1.7,0c0.1,0.1,0.1,0.2,0.2,0.3c0.1,0.1,0.3,0.2,0.4,0.2
					c0.2,0,0.3-0.1,0.4-0.3C23.6,64.3,23.5,64,23.1,63.9z"/>
				<path fill="#FFFFFF" d="M78.9,64.5c0.3,0,0.7,0,1,0c0.3,0,0.2-0.2,0.2-0.3c0-0.2-0.1-0.3-0.2-0.3c-0.3,0-0.6,0-0.9,0
					c-0.2,0-0.3-0.1-0.3-0.2c0-0.1,0-0.3,0-0.4c0-0.1-0.1-0.2-0.1-0.2c-0.1,0-0.2,0.1-0.2,0.1c-0.1,0.1-0.1,0.2-0.2,0.2
					c-0.3,0.3-0.6,0.5-0.9,0.7c-0.1,0.1-0.2,0.1-0.3,0.2c-0.1,0-0.2,0.2-0.1,0.2c0,0.1,0.1,0.1,0.2,0.2c0.1,0,0.2,0,0.4,0
					c0,0.1,0,0.2,0,0.4c0,0.8,0,1.6,0,2.4c0,0.4,0.1,0.7,0.3,0.9c0.5,0.5,1.8,0.3,2.2-0.3c0,0,0,0,0,0c0-0.1,0-0.2,0-0.2
					c0,0-0.1-0.1-0.2,0c-0.2,0-0.4,0.1-0.7,0.1c-0.4,0-0.6-0.1-0.6-0.5c0-0.8,0-1.7,0-2.5C78.6,64.6,78.7,64.5,78.9,64.5z"/>
			</g>
		</g>
	</g>
</g>
<g id="LABELS">
</g>
</svg>
