<?xml version="1.0" encoding="utf-8"?>
<!-- Generator: Adobe Illustrator 18.1.1, SVG Export Plug-In . SVG Version: 6.00 Build 0)  -->
<svg version="1.1" xmlns="http://www.w3.org/2000/svg" xmlns:xlink="http://www.w3.org/1999/xlink" x="0px" y="0px"
	 viewBox="0 0 100 100" enable-background="new 0 0 100 100" xml:space="preserve">
<g id="GUIDES">
</g>
<g id="ICONS_-_BLACK" display="none">
	<g display="inline">
		<g>
			<path d="M50,87c-0.4,0-0.8-0.2-1-0.5c-1-1.4-24.6-34.4-24.6-48.1c0-14.1,11.5-25.6,25.6-25.6c14.1,0,25.6,11.5,25.6,25.6
				C75.6,52.1,52,85.1,51,86.5C50.8,86.8,50.4,87,50,87z M50,15.3c-12.8,0-23.1,10.4-23.1,23.1C26.9,49.8,45.4,77,50,83.6
				c4.6-6.6,23.1-33.8,23.1-45.2C73.1,25.7,62.8,15.3,50,15.3z"/>
			<path d="M50,50.8c-6.6,0-11.9-5.3-11.9-11.9S43.4,27,50,27s11.9,5.3,11.9,11.9S56.6,50.8,50,50.8z M50,29.5
				c-5.2,0-9.4,4.2-9.4,9.4s4.2,9.4,9.4,9.4s9.4-4.2,9.4-9.4S55.2,29.5,50,29.5z"/>
		</g>
	</g>
</g>
<g id="ICONS_-_DARK_PURPLE" display="none">
	<g display="inline">
		<g>
			<path fill="#4F2556" d="M50,87c-0.4,0-0.8-0.2-1-0.5c-1-1.4-24.6-34.4-24.6-48.1c0-14.1,11.5-25.6,25.6-25.6
				c14.1,0,25.6,11.5,25.6,25.6C75.6,52.1,52,85.1,51,86.5C50.8,86.8,50.4,87,50,87z M50,15.3c-12.8,0-23.1,10.4-23.1,23.1
				C26.9,49.8,45.4,77,50,83.6c4.6-6.6,23.1-33.8,23.1-45.2C73.1,25.7,62.8,15.3,50,15.3z"/>
			<path fill="#4F2556" d="M50,50.8c-6.6,0-11.9-5.3-11.9-11.9S43.4,27,50,27s11.9,5.3,11.9,11.9S56.6,50.8,50,50.8z M50,29.5
				c-5.2,0-9.4,4.2-9.4,9.4s4.2,9.4,9.4,9.4s9.4-4.2,9.4-9.4S55.2,29.5,50,29.5z"/>
		</g>
	</g>
</g>
<g id="ICONS_-_WARM_GREY" display="none">
	<g display="inline">
		<g>
			<path fill="#534C63" d="M50,87c-0.4,0-0.8-0.2-1-0.5c-1-1.4-24.6-34.4-24.6-48.1c0-14.1,11.5-25.6,25.6-25.6
				c14.1,0,25.6,11.5,25.6,25.6C75.6,52.1,52,85.1,51,86.5C50.8,86.8,50.4,87,50,87z M50,15.3c-12.8,0-23.1,10.4-23.1,23.1
				C26.9,49.8,45.4,77,50,83.6c4.6-6.6,23.1-33.8,23.1-45.2C73.1,25.7,62.8,15.3,50,15.3z"/>
			<path fill="#534C63" d="M50,50.8c-6.6,0-11.9-5.3-11.9-11.9S43.4,27,50,27s11.9,5.3,11.9,11.9S56.6,50.8,50,50.8z M50,29.5
				c-5.2,0-9.4,4.2-9.4,9.4s4.2,9.4,9.4,9.4s9.4-4.2,9.4-9.4S55.2,29.5,50,29.5z"/>
		</g>
	</g>
</g>
<g id="ICONS_-_SKRILL_TEAL" display="none">
	<g display="inline">
		<g>
			<path fill="#41AEB5" d="M50,87c-0.4,0-0.8-0.2-1-0.5c-1-1.4-24.6-34.4-24.6-48.1c0-14.1,11.5-25.6,25.6-25.6
				c14.1,0,25.6,11.5,25.6,25.6C75.6,52.1,52,85.1,51,86.5C50.8,86.8,50.4,87,50,87z M50,15.3c-12.8,0-23.1,10.4-23.1,23.1
				C26.9,49.8,45.4,77,50,83.6c4.6-6.6,23.1-33.8,23.1-45.2C73.1,25.7,62.8,15.3,50,15.3z"/>
			<path fill="#41AEB5" d="M50,50.8c-6.6,0-11.9-5.3-11.9-11.9S43.4,27,50,27s11.9,5.3,11.9,11.9S56.6,50.8,50,50.8z M50,29.5
				c-5.2,0-9.4,4.2-9.4,9.4s4.2,9.4,9.4,9.4s9.4-4.2,9.4-9.4S55.2,29.5,50,29.5z"/>
		</g>
	</g>
</g>
<g id="ICONS_-_SKRILL_PURPLE">
	<g>
		<g>
			<path fill="#811E68" d="M50,87c-0.4,0-0.8-0.2-1-0.5c-1-1.4-24.6-34.4-24.6-48.1c0-14.1,11.5-25.6,25.6-25.6
				c14.1,0,25.6,11.5,25.6,25.6C75.6,52.1,52,85.1,51,86.5C50.8,86.8,50.4,87,50,87z M50,15.3c-12.8,0-23.1,10.4-23.1,23.1
				C26.9,49.8,45.4,77,50,83.6c4.6-6.6,23.1-33.8,23.1-45.2C73.1,25.7,62.8,15.3,50,15.3z"/>
			<path fill="#811E68" d="M50,50.8c-6.6,0-11.9-5.3-11.9-11.9S43.4,27,50,27s11.9,5.3,11.9,11.9S56.6,50.8,50,50.8z M50,29.5
				c-5.2,0-9.4,4.2-9.4,9.4s4.2,9.4,9.4,9.4s9.4-4.2,9.4-9.4S55.2,29.5,50,29.5z"/>
		</g>
	</g>
</g>
<g id="ICONS_-_WHITE" display="none">
	<g display="inline">
		<g>
			<path fill="#FFFFFF" d="M50,87c-0.4,0-0.8-0.2-1-0.5c-1-1.4-24.6-34.4-24.6-48.1c0-14.1,11.5-25.6,25.6-25.6
				c14.1,0,25.6,11.5,25.6,25.6C75.6,52.1,52,85.1,51,86.5C50.8,86.8,50.4,87,50,87z M50,15.3c-12.8,0-23.1,10.4-23.1,23.1
				C26.9,49.8,45.4,77,50,83.6c4.6-6.6,23.1-33.8,23.1-45.2C73.1,25.7,62.8,15.3,50,15.3z"/>
			<path fill="#FFFFFF" d="M50,50.8c-6.6,0-11.9-5.3-11.9-11.9S43.4,27,50,27s11.9,5.3,11.9,11.9S56.6,50.8,50,50.8z M50,29.5
				c-5.2,0-9.4,4.2-9.4,9.4s4.2,9.4,9.4,9.4s9.4-4.2,9.4-9.4S55.2,29.5,50,29.5z"/>
		</g>
	</g>
</g>
<g id="LABELS">
</g>
</svg>
