<?xml version="1.0" encoding="utf-8"?>
<!-- Generator: Adobe Illustrator 18.1.1, SVG Export Plug-In . SVG Version: 6.00 Build 0)  -->
<svg version="1.1" xmlns="http://www.w3.org/2000/svg" xmlns:xlink="http://www.w3.org/1999/xlink" x="0px" y="0px"
	 viewBox="0 0 100 100" enable-background="new 0 0 100 100" xml:space="preserve">
<g id="GUIDES">
</g>
<g id="ICONS_-_BLACK" display="none">
	<g display="inline">
		<g>
			<g>
				<path d="M83.9,31.2c-0.4-3.8-3.6-7.1-7.6-7.1h-4.9v-4c0-0.7-0.6-1.2-1.2-1.2s-1.2,0.6-1.2,1.2v4H30.1v-4c0-0.7-0.6-1.2-1.2-1.2
					s-1.2,0.6-1.2,1.2v4h-5.3c-4.2,0-7.6,3.7-7.6,7.9v28.8c0,0.3,0,10.6,0,10.8c0.4,3.8,3.6,6.8,7.6,6.8h0h54c4.2,0,7.6-3.4,7.6-7.6
					V32C83.9,31.7,83.9,31.5,83.9,31.2z M17.2,32c0-2.9,2.4-5.4,5.1-5.4h5.3v4.6c0,0.7,0.6,1.2,1.2,1.2s1.2-0.6,1.2-1.2v-4.6h38.8
					v4.6c0,0.7,0.6,1.2,1.2,1.2s1.2-0.6,1.2-1.2v-4.6h4.9c2.5,0,4.8,2.2,5.1,4.8c0,0.2,0,0.3,0,0.5v9.1H17.2V32z M81.4,70.9
					c0,2.8-2.3,5.1-5.1,5.1h-54c-2.6,0-4.8-1.9-5.1-4.5c0-1,0-9.9,0-10.7V43.6h64.2V70.9z"/>
				<path d="M63.9,51.6h-6.3v6.2h6.3V51.6z M61.9,55.7h-2.3v-2.2h2.3V55.7z"/>
				<path d="M53,51.6h-6.3v6.2H53V51.6z M51,55.7h-2.3v-2.2H51V55.7z"/>
				<path d="M63.9,61.5h-6.3v6.2h6.3V61.5z M61.9,65.7h-2.3v-2.2h2.3V65.7z"/>
				<path d="M74.8,61.5h-6.3v6.2h6.3V61.5z M72.8,65.7h-2.3v-2.2h2.3V65.7z"/>
				<path d="M74.8,51.6h-6.3v6.2h6.3V51.6z M72.8,55.7h-2.3v-2.2h2.3V55.7z"/>
				<path d="M31.1,51.6h-6.3v6.2h6.3V51.6z M29.1,55.7h-2.3v-2.2h2.3V55.7z"/>
				<path d="M53,61.5h-6.3v6.2H53V61.5z M51,65.7h-2.3v-2.2H51V65.7z"/>
				<path d="M31.1,61.5h-6.3v6.2h6.3V61.5z M29.1,65.7h-2.3v-2.2h2.3V65.7z"/>
				<path d="M42,51.6h-6.3v6.2H42V51.6z M40,55.7h-2.3v-2.2H40V55.7z"/>
				<path d="M42,61.5h-6.3v6.2H42V61.5z M40,65.7h-2.3v-2.2H40V65.7z"/>
			</g>
		</g>
	</g>
</g>
<g id="ICONS_-_DARK_PURPLE" display="none">
	<g display="inline">
		<g>
			<g>
				<path fill="#4F2556" d="M83.9,31.2c-0.4-3.8-3.6-7.1-7.6-7.1h-4.9v-4c0-0.7-0.6-1.2-1.2-1.2s-1.2,0.6-1.2,1.2v4H30.1v-4
					c0-0.7-0.6-1.2-1.2-1.2s-1.2,0.6-1.2,1.2v4h-5.3c-4.2,0-7.6,3.7-7.6,7.9v28.8c0,0.3,0,10.6,0,10.8c0.4,3.8,3.6,6.8,7.6,6.8h0h54
					c4.2,0,7.6-3.4,7.6-7.6V32C83.9,31.7,83.9,31.5,83.9,31.2z M17.2,32c0-2.9,2.4-5.4,5.1-5.4h5.3v4.6c0,0.7,0.6,1.2,1.2,1.2
					s1.2-0.6,1.2-1.2v-4.6h38.8v4.6c0,0.7,0.6,1.2,1.2,1.2s1.2-0.6,1.2-1.2v-4.6h4.9c2.5,0,4.8,2.2,5.1,4.8c0,0.2,0,0.3,0,0.5v9.1
					H17.2V32z M81.4,70.9c0,2.8-2.3,5.1-5.1,5.1h-54c-2.6,0-4.8-1.9-5.1-4.5c0-1,0-9.9,0-10.7V43.6h64.2V70.9z"/>
				<path fill="#4F2556" d="M63.9,51.6h-6.3v6.2h6.3V51.6z M61.9,55.7h-2.3v-2.2h2.3V55.7z"/>
				<path fill="#4F2556" d="M53,51.6h-6.3v6.2H53V51.6z M51,55.7h-2.3v-2.2H51V55.7z"/>
				<path fill="#4F2556" d="M63.9,61.5h-6.3v6.2h6.3V61.5z M61.9,65.7h-2.3v-2.2h2.3V65.7z"/>
				<path fill="#4F2556" d="M74.8,61.5h-6.3v6.2h6.3V61.5z M72.8,65.7h-2.3v-2.2h2.3V65.7z"/>
				<path fill="#4F2556" d="M74.8,51.6h-6.3v6.2h6.3V51.6z M72.8,55.7h-2.3v-2.2h2.3V55.7z"/>
				<path fill="#4F2556" d="M31.1,51.6h-6.3v6.2h6.3V51.6z M29.1,55.7h-2.3v-2.2h2.3V55.7z"/>
				<path fill="#4F2556" d="M53,61.5h-6.3v6.2H53V61.5z M51,65.7h-2.3v-2.2H51V65.7z"/>
				<path fill="#4F2556" d="M31.1,61.5h-6.3v6.2h6.3V61.5z M29.1,65.7h-2.3v-2.2h2.3V65.7z"/>
				<path fill="#4F2556" d="M42,51.6h-6.3v6.2H42V51.6z M40,55.7h-2.3v-2.2H40V55.7z"/>
				<path fill="#4F2556" d="M42,61.5h-6.3v6.2H42V61.5z M40,65.7h-2.3v-2.2H40V65.7z"/>
			</g>
		</g>
	</g>
</g>
<g id="ICONS_-_WARM_GREY" display="none">
	<g display="inline">
		<g>
			<g>
				<path fill="#534C63" d="M83.9,31.2c-0.4-3.8-3.6-7.1-7.6-7.1h-4.9v-4c0-0.7-0.6-1.2-1.2-1.2s-1.2,0.6-1.2,1.2v4H30.1v-4
					c0-0.7-0.6-1.2-1.2-1.2s-1.2,0.6-1.2,1.2v4h-5.3c-4.2,0-7.6,3.7-7.6,7.9v28.8c0,0.3,0,10.6,0,10.8c0.4,3.8,3.6,6.8,7.6,6.8h0h54
					c4.2,0,7.6-3.4,7.6-7.6V32C83.9,31.7,83.9,31.5,83.9,31.2z M17.2,32c0-2.9,2.4-5.4,5.1-5.4h5.3v4.6c0,0.7,0.6,1.2,1.2,1.2
					s1.2-0.6,1.2-1.2v-4.6h38.8v4.6c0,0.7,0.6,1.2,1.2,1.2s1.2-0.6,1.2-1.2v-4.6h4.9c2.5,0,4.8,2.2,5.1,4.8c0,0.2,0,0.3,0,0.5v9.1
					H17.2V32z M81.4,70.9c0,2.8-2.3,5.1-5.1,5.1h-54c-2.6,0-4.8-1.9-5.1-4.5c0-1,0-9.9,0-10.7V43.6h64.2V70.9z"/>
				<path fill="#534C63" d="M63.9,51.6h-6.3v6.2h6.3V51.6z M61.9,55.7h-2.3v-2.2h2.3V55.7z"/>
				<path fill="#534C63" d="M53,51.6h-6.3v6.2H53V51.6z M51,55.7h-2.3v-2.2H51V55.7z"/>
				<path fill="#534C63" d="M63.9,61.5h-6.3v6.2h6.3V61.5z M61.9,65.7h-2.3v-2.2h2.3V65.7z"/>
				<path fill="#534C63" d="M74.8,61.5h-6.3v6.2h6.3V61.5z M72.8,65.7h-2.3v-2.2h2.3V65.7z"/>
				<path fill="#534C63" d="M74.8,51.6h-6.3v6.2h6.3V51.6z M72.8,55.7h-2.3v-2.2h2.3V55.7z"/>
				<path fill="#534C63" d="M31.1,51.6h-6.3v6.2h6.3V51.6z M29.1,55.7h-2.3v-2.2h2.3V55.7z"/>
				<path fill="#534C63" d="M53,61.5h-6.3v6.2H53V61.5z M51,65.7h-2.3v-2.2H51V65.7z"/>
				<path fill="#534C63" d="M31.1,61.5h-6.3v6.2h6.3V61.5z M29.1,65.7h-2.3v-2.2h2.3V65.7z"/>
				<path fill="#534C63" d="M42,51.6h-6.3v6.2H42V51.6z M40,55.7h-2.3v-2.2H40V55.7z"/>
				<path fill="#534C63" d="M42,61.5h-6.3v6.2H42V61.5z M40,65.7h-2.3v-2.2H40V65.7z"/>
			</g>
		</g>
	</g>
</g>
<g id="ICONS_-_SKRILL_TEAL" display="none">
	<g display="inline">
		<g>
			<g>
				<path fill="#41AEB5" d="M83.9,31.2c-0.4-3.8-3.6-7.1-7.6-7.1h-4.9v-4c0-0.7-0.6-1.2-1.2-1.2s-1.2,0.6-1.2,1.2v4H30.1v-4
					c0-0.7-0.6-1.2-1.2-1.2s-1.2,0.6-1.2,1.2v4h-5.3c-4.2,0-7.6,3.7-7.6,7.9v28.8c0,0.3,0,10.6,0,10.8c0.4,3.8,3.6,6.8,7.6,6.8h0h54
					c4.2,0,7.6-3.4,7.6-7.6V32C83.9,31.7,83.9,31.5,83.9,31.2z M17.2,32c0-2.9,2.4-5.4,5.1-5.4h5.3v4.6c0,0.7,0.6,1.2,1.2,1.2
					s1.2-0.6,1.2-1.2v-4.6h38.8v4.6c0,0.7,0.6,1.2,1.2,1.2s1.2-0.6,1.2-1.2v-4.6h4.9c2.5,0,4.8,2.2,5.1,4.8c0,0.2,0,0.3,0,0.5v9.1
					H17.2V32z M81.4,70.9c0,2.8-2.3,5.1-5.1,5.1h-54c-2.6,0-4.8-1.9-5.1-4.5c0-1,0-9.9,0-10.7V43.6h64.2V70.9z"/>
				<path fill="#41AEB5" d="M63.9,51.6h-6.3v6.2h6.3V51.6z M61.9,55.7h-2.3v-2.2h2.3V55.7z"/>
				<path fill="#41AEB5" d="M53,51.6h-6.3v6.2H53V51.6z M51,55.7h-2.3v-2.2H51V55.7z"/>
				<path fill="#41AEB5" d="M63.9,61.5h-6.3v6.2h6.3V61.5z M61.9,65.7h-2.3v-2.2h2.3V65.7z"/>
				<path fill="#41AEB5" d="M74.8,61.5h-6.3v6.2h6.3V61.5z M72.8,65.7h-2.3v-2.2h2.3V65.7z"/>
				<path fill="#41AEB5" d="M74.8,51.6h-6.3v6.2h6.3V51.6z M72.8,55.7h-2.3v-2.2h2.3V55.7z"/>
				<path fill="#41AEB5" d="M31.1,51.6h-6.3v6.2h6.3V51.6z M29.1,55.7h-2.3v-2.2h2.3V55.7z"/>
				<path fill="#41AEB5" d="M53,61.5h-6.3v6.2H53V61.5z M51,65.7h-2.3v-2.2H51V65.7z"/>
				<path fill="#41AEB5" d="M31.1,61.5h-6.3v6.2h6.3V61.5z M29.1,65.7h-2.3v-2.2h2.3V65.7z"/>
				<path fill="#41AEB5" d="M42,51.6h-6.3v6.2H42V51.6z M40,55.7h-2.3v-2.2H40V55.7z"/>
				<path fill="#41AEB5" d="M42,61.5h-6.3v6.2H42V61.5z M40,65.7h-2.3v-2.2H40V65.7z"/>
			</g>
		</g>
	</g>
</g>
<g id="ICONS_-_SKRILL_PURPLE">
	<g>
		<g>
			<g>
				<path fill="#811E68" d="M83.9,31.2c-0.4-3.8-3.6-7.1-7.6-7.1h-4.9v-4c0-0.7-0.6-1.2-1.2-1.2s-1.2,0.6-1.2,1.2v4H30.1v-4
					c0-0.7-0.6-1.2-1.2-1.2s-1.2,0.6-1.2,1.2v4h-5.3c-4.2,0-7.6,3.7-7.6,7.9v28.8c0,0.3,0,10.6,0,10.8c0.4,3.8,3.6,6.8,7.6,6.8h0h54
					c4.2,0,7.6-3.4,7.6-7.6V32C83.9,31.7,83.9,31.5,83.9,31.2z M17.2,32c0-2.9,2.4-5.4,5.1-5.4h5.3v4.6c0,0.7,0.6,1.2,1.2,1.2
					s1.2-0.6,1.2-1.2v-4.6h38.8v4.6c0,0.7,0.6,1.2,1.2,1.2s1.2-0.6,1.2-1.2v-4.6h4.9c2.5,0,4.8,2.2,5.1,4.8c0,0.2,0,0.3,0,0.5v9.1
					H17.2V32z M81.4,70.9c0,2.8-2.3,5.1-5.1,5.1h-54c-2.6,0-4.8-1.9-5.1-4.5c0-1,0-9.9,0-10.7V43.6h64.2V70.9z"/>
				<path fill="#811E68" d="M63.9,51.6h-6.3v6.2h6.3V51.6z M61.9,55.7h-2.3v-2.2h2.3V55.7z"/>
				<path fill="#811E68" d="M53,51.6h-6.3v6.2H53V51.6z M51,55.7h-2.3v-2.2H51V55.7z"/>
				<path fill="#811E68" d="M63.9,61.5h-6.3v6.2h6.3V61.5z M61.9,65.7h-2.3v-2.2h2.3V65.7z"/>
				<path fill="#811E68" d="M74.8,61.5h-6.3v6.2h6.3V61.5z M72.8,65.7h-2.3v-2.2h2.3V65.7z"/>
				<path fill="#811E68" d="M74.8,51.6h-6.3v6.2h6.3V51.6z M72.8,55.7h-2.3v-2.2h2.3V55.7z"/>
				<path fill="#811E68" d="M31.1,51.6h-6.3v6.2h6.3V51.6z M29.1,55.7h-2.3v-2.2h2.3V55.7z"/>
				<path fill="#811E68" d="M53,61.5h-6.3v6.2H53V61.5z M51,65.7h-2.3v-2.2H51V65.7z"/>
				<path fill="#811E68" d="M31.1,61.5h-6.3v6.2h6.3V61.5z M29.1,65.7h-2.3v-2.2h2.3V65.7z"/>
				<path fill="#811E68" d="M42,51.6h-6.3v6.2H42V51.6z M40,55.7h-2.3v-2.2H40V55.7z"/>
				<path fill="#811E68" d="M42,61.5h-6.3v6.2H42V61.5z M40,65.7h-2.3v-2.2H40V65.7z"/>
			</g>
		</g>
	</g>
</g>
<g id="ICONS_-_WHITE" display="none">
	<g display="inline">
		<g>
			<g>
				<path fill="#FFFFFF" d="M83.9,31.2c-0.4-3.8-3.6-7.1-7.6-7.1h-4.9v-4c0-0.7-0.6-1.2-1.2-1.2s-1.2,0.6-1.2,1.2v4H30.1v-4
					c0-0.7-0.6-1.2-1.2-1.2s-1.2,0.6-1.2,1.2v4h-5.3c-4.2,0-7.6,3.7-7.6,7.9v28.8c0,0.3,0,10.6,0,10.8c0.4,3.8,3.6,6.8,7.6,6.8h0h54
					c4.2,0,7.6-3.4,7.6-7.6V32C83.9,31.7,83.9,31.5,83.9,31.2z M17.2,32c0-2.9,2.4-5.4,5.1-5.4h5.3v4.6c0,0.7,0.6,1.2,1.2,1.2
					s1.2-0.6,1.2-1.2v-4.6h38.8v4.6c0,0.7,0.6,1.2,1.2,1.2s1.2-0.6,1.2-1.2v-4.6h4.9c2.5,0,4.8,2.2,5.1,4.8c0,0.2,0,0.3,0,0.5v9.1
					H17.2V32z M81.4,70.9c0,2.8-2.3,5.1-5.1,5.1h-54c-2.6,0-4.8-1.9-5.1-4.5c0-1,0-9.9,0-10.7V43.6h64.2V70.9z"/>
				<path fill="#FFFFFF" d="M63.9,51.6h-6.3v6.2h6.3V51.6z M61.9,55.7h-2.3v-2.2h2.3V55.7z"/>
				<path fill="#FFFFFF" d="M53,51.6h-6.3v6.2H53V51.6z M51,55.7h-2.3v-2.2H51V55.7z"/>
				<path fill="#FFFFFF" d="M63.9,61.5h-6.3v6.2h6.3V61.5z M61.9,65.7h-2.3v-2.2h2.3V65.7z"/>
				<path fill="#FFFFFF" d="M74.8,61.5h-6.3v6.2h6.3V61.5z M72.8,65.7h-2.3v-2.2h2.3V65.7z"/>
				<path fill="#FFFFFF" d="M74.8,51.6h-6.3v6.2h6.3V51.6z M72.8,55.7h-2.3v-2.2h2.3V55.7z"/>
				<path fill="#FFFFFF" d="M31.1,51.6h-6.3v6.2h6.3V51.6z M29.1,55.7h-2.3v-2.2h2.3V55.7z"/>
				<path fill="#FFFFFF" d="M53,61.5h-6.3v6.2H53V61.5z M51,65.7h-2.3v-2.2H51V65.7z"/>
				<path fill="#FFFFFF" d="M31.1,61.5h-6.3v6.2h6.3V61.5z M29.1,65.7h-2.3v-2.2h2.3V65.7z"/>
				<path fill="#FFFFFF" d="M42,51.6h-6.3v6.2H42V51.6z M40,55.7h-2.3v-2.2H40V55.7z"/>
				<path fill="#FFFFFF" d="M42,61.5h-6.3v6.2H42V61.5z M40,65.7h-2.3v-2.2H40V65.7z"/>
			</g>
		</g>
	</g>
</g>
<g id="LABELS">
</g>
</svg>
