<?xml version="1.0" encoding="utf-8"?>
<!-- Generator: Adobe Illustrator 18.1.1, SVG Export Plug-In . SVG Version: 6.00 Build 0)  -->
<svg version="1.1" xmlns="http://www.w3.org/2000/svg" xmlns:xlink="http://www.w3.org/1999/xlink" x="0px" y="0px"
	 viewBox="0 0 100 100" enable-background="new 0 0 100 100" xml:space="preserve">
<g id="GUIDES">
</g>
<g id="ICONS_-_BLACK" display="none">
	<g display="inline">
		<g>
			<g>
				<path d="M25.1,68.9h-2.4c-0.2,0-0.4,0-0.6,0.1c-0.2,0.1-0.4,0.2-0.5,0.3c-0.3,0.3-0.4,0.8-0.4,1.4v7.7h1.7v-2.6h2.3
					c0.4,0,0.8-0.2,1.1-0.5c0.3-0.3,0.5-0.7,0.5-1.1v-3.6C26.7,69.5,26.2,68.9,25.1,68.9z M25.1,73.6c0,0.1,0,0.2-0.1,0.3
					C24.8,74,24.7,74,24.6,74h-1.2c-0.3,0-0.5-0.2-0.5-0.5v-2.4c0-0.3,0.2-0.5,0.5-0.5h1.3c0.2,0,0.4,0.1,0.4,0.4V73.6z"/>
				<path d="M32,68.9h-3.9v1.7h3.4c0.3,0,0.5,0.1,0.5,0.4v0.2h-2.3c-1.1,0-1.6,0.6-1.6,1.6v1.4c0,1,0.6,1.5,1.7,1.6h2.3
					c0.5,0,0.8-0.2,1.1-0.5c0.3-0.3,0.4-0.7,0.4-1.1v-3.6C33.7,69.4,33.1,68.9,32,68.9z M32,73.7c0,0.2-0.2,0.3-0.5,0.3h-1.3
					c-0.1,0-0.2,0-0.3-0.1c-0.1-0.1-0.1-0.1-0.1-0.2v-0.4c0-0.2,0-0.3,0.1-0.4c0.1-0.1,0.2-0.1,0.4-0.1h1.3c0.3,0,0.5,0.1,0.5,0.4
					V73.7z"/>
				<path d="M39,73.6c0,0.1-0.1,0.2-0.2,0.3C38.7,74,38.6,74,38.4,74h-1.2c-0.3,0-0.5-0.2-0.5-0.6v-4.6h-1.7V74c0,0.3,0,0.5,0.1,0.7
					c0.1,0.2,0.2,0.4,0.4,0.6c0.2,0.2,0.4,0.3,0.5,0.4c0.2,0.1,0.4,0.1,0.7,0.1H39v0.4c0,0.1,0,0.2-0.1,0.3
					c-0.1,0.1-0.2,0.1-0.3,0.1h-3.4v1.7h4c0.5,0,0.9-0.2,1.2-0.5c0.3-0.3,0.4-0.8,0.4-1.4v-7.6H39V73.6z"/>
				<path d="M42,70.4v1.3c0,0.4,0.2,0.7,0.5,1c0.3,0.3,0.7,0.4,1.1,0.5h1.5c0.1,0,0.2,0.1,0.2,0.2c0,0.1,0,0.1,0,0.2v0.2
					c0,0.2-0.2,0.3-0.4,0.3h-3v1.7h3.6c0.3,0,0.5,0,0.7-0.1c0.2-0.1,0.3-0.2,0.5-0.4c0.3-0.4,0.5-0.7,0.5-1.1V73
					c0-0.4-0.2-0.8-0.4-1.1c-0.3-0.3-0.6-0.5-1-0.5h-1.5c-0.4,0-0.5-0.1-0.5-0.3v-0.2c0-0.2,0.2-0.3,0.5-0.3h3v-1.7h-3.5
					C42.6,68.9,42,69.4,42,70.4z"/>
				<path d="M52.2,68.9h-3.9v1.7h3.4c0.3,0,0.5,0.1,0.5,0.4v0.2H50c-1.1,0-1.6,0.6-1.6,1.6v1.4c0,1,0.6,1.5,1.7,1.6h2.3
					c0.5,0,0.8-0.2,1.1-0.5c0.3-0.3,0.4-0.7,0.4-1.1v-3.6C53.9,69.4,53.4,68.9,52.2,68.9z M52.3,73.7c0,0.2-0.2,0.3-0.5,0.3h-1.3
					c-0.1,0-0.2,0-0.3-0.1c-0.1-0.1-0.1-0.1-0.1-0.2v-0.4c0-0.2,0-0.3,0.1-0.4c0.1-0.1,0.2-0.1,0.4-0.1h1.3c0.3,0,0.5,0.1,0.5,0.4
					V73.7z"/>
				<path d="M55.9,66.7c-0.3,0.3-0.5,0.7-0.5,1.1v7.9H57v-5.2h1.2v-1.7H57v-0.4c0-0.3,0.2-0.5,0.5-0.5h0.7v-1.7h-1.1
					C56.6,66.3,56.2,66.5,55.9,66.7z"/>
				<path d="M63.2,68.9h-2.3c-1.1,0-1.6,0.6-1.7,1.6l0,3.5c0,0.3,0,0.6,0.1,0.8c0.1,0.2,0.2,0.4,0.4,0.6c0.2,0.2,0.3,0.3,0.5,0.3
					c0.2,0.1,0.5,0.1,0.8,0.1h3.7V74h-3.5c-0.1,0-0.2-0.1-0.2-0.2C61,73.8,61,73.7,61,73.5v-0.1l3.8-1.5v-1.4
					C64.8,69.4,64.2,68.9,63.2,68.9z M63.1,71l-2.1,0.8v-0.7c0-0.1,0.1-0.2,0.2-0.3c0.1-0.1,0.2-0.1,0.4-0.1h1.2
					c0.1,0,0.2,0,0.3,0.1C63,70.8,63.1,70.8,63.1,71L63.1,71z"/>
				<path d="M67.8,75.3c-0.2,0-0.4-0.1-0.5-0.3c-0.2-0.2-0.3-0.3-0.4-0.6c-0.1-0.2-0.1-0.4-0.1-0.7v-3.3c0-0.5,0.1-0.8,0.4-1
					c0.3-0.2,0.6-0.3,1.1-0.3h2.5v-0.4h-2.6c-0.3,0-0.5,0-0.7,0.1c-0.2,0.1-0.4,0.2-0.6,0.4c-0.2,0.2-0.3,0.4-0.4,0.6
					c-0.1,0.2-0.1,0.4-0.1,0.7v3.3c0,0.3,0,0.6,0.1,0.8c0.1,0.3,0.2,0.5,0.5,0.7c0.2,0.2,0.4,0.3,0.7,0.3c0.2,0,0.4,0.1,0.7,0.1h2.4
					v-0.4h-2.4C68.2,75.4,68,75.3,67.8,75.3z"/>
				<path d="M77.1,69c-0.1-0.1-0.2-0.1-0.4-0.2c-0.3,0-0.6-0.1-0.9-0.1h-3.5v0.4h3.7c0.2,0,0.4,0,0.6,0.1c0.2,0.1,0.3,0.2,0.5,0.4
					c0.2,0.3,0.3,0.6,0.3,1v0.5h-3.4c-1.2,0-1.8,0.6-1.8,1.8v1c0,0.6,0.2,1,0.5,1.3c0.3,0.3,0.8,0.5,1.3,0.5h2c0.5,0,1-0.2,1.3-0.5
					c0.2-0.2,0.3-0.4,0.3-0.6c0-0.2,0.1-0.4,0.1-0.7v-3.1c0-0.5-0.1-1-0.5-1.4C77.3,69.2,77.2,69.1,77.1,69z M77.5,74
					c0,0.9-0.4,1.4-1.3,1.4h-2.1c-0.4,0-0.7-0.1-1-0.4c-0.2-0.1-0.3-0.3-0.3-0.5c0-0.2-0.1-0.4-0.1-0.6v-1c0-0.4,0.1-0.8,0.4-1
					c0.2-0.2,0.6-0.4,1-0.4h3.4V74z"/>
				<path d="M79.9,70.8v5h0.4v-5c0-1,0.4-1.5,1.4-1.6h0.5v-0.4h-0.5C80.5,68.8,79.9,69.5,79.9,70.8z"/>
				<path d="M88.6,66.6v2.3h-3.2c-1.3,0-2,0.7-2,2v3c0,0.3,0,0.5,0.1,0.8c0,0.2,0.2,0.5,0.3,0.7c0.2,0.2,0.5,0.4,0.7,0.5
					c0.3,0.1,0.5,0.1,0.9,0.1h1.5c1.4,0,2.1-0.6,2.1-1.9v-7.3H88.6z M88.6,73.8c0,0.6-0.2,1-0.5,1.2c-0.3,0.2-0.8,0.4-1.3,0.4h-1.4
					c-0.2,0-0.4,0-0.6-0.1c-0.2,0-0.4-0.1-0.5-0.2c-0.3-0.2-0.5-0.6-0.5-1.1v-3.2c0-0.2,0-0.5,0.1-0.6c0-0.2,0.2-0.3,0.3-0.5
					c0.2-0.2,0.4-0.3,0.6-0.4c0.2,0,0.4-0.1,0.6-0.1h3.2V73.8z"/>
				<path d="M12.1,68.5c0.2-1.2,1.3-2,2.5-2c1.2,0,2.3,0.9,2.5,2c0.4,0.1,0.7,0.2,0.9,0.5c0-0.2,0-0.4,0-0.6
					c-0.2-1.8-1.6-3.2-3.4-3.2c-1.9,0-3.4,1.5-3.5,3.3c0,0.2,0,0.3,0,0.5c0.2-0.1,0.3-0.3,0.5-0.3C11.9,68.6,12,68.5,12.1,68.5z"/>
				<path d="M16.7,68.9h-4.1c-0.2,0-0.4,0-0.6,0.1c-0.2,0.1-0.4,0.2-0.5,0.3c-0.3,0.3-0.4,0.8-0.4,1.4v3.2c0,0.6,0.1,1,0.4,1.4
					c0.1,0.1,0.3,0.2,0.5,0.3c0.2,0.1,0.4,0.1,0.6,0.1h4.1c1.1,0,1.6-0.6,1.6-1.8v-3.4C18.3,69.5,17.7,68.9,16.7,68.9z"/>
				<g>
					<path d="M43.3,32.5c1.2,1.7,1.7,4.4,1.7,4.4h4.8c-0.5-2-2.6-5.6-2.6-5.6c1.9-2.4,2.7-4.9,2.8-5.3h-4.6c-0.1,0.2-0.7,2-2.2,3.8
						v-7.8l-4,0.8v14.2h4V32.5z"/>
					<path d="M32.2,31.2c0.4,0,1.6,0.1,1.6,1.2c0,0.9-0.9,1.4-2.5,1.4c-1.7,0-3.4-0.4-4.4-0.8v3.5c1.5,0.4,3.2,0.6,5.2,0.6
						c4.3,0,6.2-2.4,6.2-4.8c0-2.7-2.2-4.5-5.8-4.7c-0.5,0-1.6-0.1-1.6-1.1c0-1.2,1.6-1.2,2.3-1.2c1.1,0,2.5,0.3,3.5,0.6
						c0,0,0.6,0.2,1,0.4l0,0v0v-3.3l-0.1,0c-1.2-0.4-2.6-0.8-5.1-0.8c-4.4,0-6,2.6-6,4.8C26.6,27.9,27.1,30.9,32.2,31.2z"/>
					<rect x="58.3" y="25.9" width="3.9" height="10.9"/>
					<circle cx="60.2" cy="22.9" r="1.9"/>
					<path d="M54.6,31.8c0-1.9,0.3-2.8,2.5-2.8v-3.2c-0.4-0.1-1-0.1-1-0.1c-3.6,0.1-5.4,1.7-5.4,4.9v6.2h3.9V31.8z"/>
					<polygon points="67.7,21.9 63.8,22.6 63.8,36.8 67.7,36.8 					"/>
					<polygon points="73.4,21.9 69.5,22.6 69.5,36.8 73.4,36.8 					"/>
				</g>
				<path d="M53.8,52.5l-0.3,0v0l-3.4,0l0-3.7c0-0.4-0.3-0.7-0.7-0.7c-0.4,0-0.7,0.3-0.7,0.7l0,0.3h0l0,3.4l-3.7,0
					c-0.4,0-0.7,0.3-0.7,0.7c0,0.4,0.3,0.7,0.7,0.7l0.3,0v0l3.4,0l0,3.7c0,0.4,0.3,0.7,0.7,0.7c0.4,0,0.7-0.3,0.7-0.7l0-0.3h0l0-3.4
					l3.7,0c0.4,0,0.7-0.3,0.7-0.7C54.5,52.8,54.2,52.5,53.8,52.5z"/>
			</g>
		</g>
	</g>
</g>
<g id="ICONS_-_DARK_PURPLE" display="none">
	<g display="inline">
		<g>
			<g>
				<path fill="#4F2556" d="M25.1,68.9h-2.4c-0.2,0-0.4,0-0.6,0.1c-0.2,0.1-0.4,0.2-0.5,0.3c-0.3,0.3-0.4,0.8-0.4,1.4v7.7h1.7v-2.6
					h2.3c0.4,0,0.8-0.2,1.1-0.5c0.3-0.3,0.5-0.7,0.5-1.1v-3.6C26.7,69.5,26.2,68.9,25.1,68.9z M25.1,73.6c0,0.1,0,0.2-0.1,0.3
					C24.8,74,24.7,74,24.6,74h-1.2c-0.3,0-0.5-0.2-0.5-0.5v-2.4c0-0.3,0.2-0.5,0.5-0.5h1.3c0.2,0,0.4,0.1,0.4,0.4V73.6z"/>
				<path fill="#4F2556" d="M32,68.9h-3.9v1.7h3.4c0.3,0,0.5,0.1,0.5,0.4v0.2h-2.3c-1.1,0-1.6,0.6-1.6,1.6v1.4c0,1,0.6,1.5,1.7,1.6
					h2.3c0.5,0,0.8-0.2,1.1-0.5c0.3-0.3,0.4-0.7,0.4-1.1v-3.6C33.7,69.4,33.1,68.9,32,68.9z M32,73.7c0,0.2-0.2,0.3-0.5,0.3h-1.3
					c-0.1,0-0.2,0-0.3-0.1c-0.1-0.1-0.1-0.1-0.1-0.2v-0.4c0-0.2,0-0.3,0.1-0.4c0.1-0.1,0.2-0.1,0.4-0.1h1.3c0.3,0,0.5,0.1,0.5,0.4
					V73.7z"/>
				<path fill="#4F2556" d="M39,73.6c0,0.1-0.1,0.2-0.2,0.3C38.7,74,38.6,74,38.4,74h-1.2c-0.3,0-0.5-0.2-0.5-0.6v-4.6h-1.7V74
					c0,0.3,0,0.5,0.1,0.7c0.1,0.2,0.2,0.4,0.4,0.6c0.2,0.2,0.4,0.3,0.5,0.4c0.2,0.1,0.4,0.1,0.7,0.1H39v0.4c0,0.1,0,0.2-0.1,0.3
					c-0.1,0.1-0.2,0.1-0.3,0.1h-3.4v1.7h4c0.5,0,0.9-0.2,1.2-0.5c0.3-0.3,0.4-0.8,0.4-1.4v-7.6H39V73.6z"/>
				<path fill="#4F2556" d="M42,70.4v1.3c0,0.4,0.2,0.7,0.5,1c0.3,0.3,0.7,0.4,1.1,0.5h1.5c0.1,0,0.2,0.1,0.2,0.2c0,0.1,0,0.1,0,0.2
					v0.2c0,0.2-0.2,0.3-0.4,0.3h-3v1.7h3.6c0.3,0,0.5,0,0.7-0.1c0.2-0.1,0.3-0.2,0.5-0.4c0.3-0.4,0.5-0.7,0.5-1.1V73
					c0-0.4-0.2-0.8-0.4-1.1c-0.3-0.3-0.6-0.5-1-0.5h-1.5c-0.4,0-0.5-0.1-0.5-0.3v-0.2c0-0.2,0.2-0.3,0.5-0.3h3v-1.7h-3.5
					C42.6,68.9,42,69.4,42,70.4z"/>
				<path fill="#4F2556" d="M52.2,68.9h-3.9v1.7h3.4c0.3,0,0.5,0.1,0.5,0.4v0.2H50c-1.1,0-1.6,0.6-1.6,1.6v1.4c0,1,0.6,1.5,1.7,1.6
					h2.3c0.5,0,0.8-0.2,1.1-0.5c0.3-0.3,0.4-0.7,0.4-1.1v-3.6C53.9,69.4,53.4,68.9,52.2,68.9z M52.3,73.7c0,0.2-0.2,0.3-0.5,0.3
					h-1.3c-0.1,0-0.2,0-0.3-0.1c-0.1-0.1-0.1-0.1-0.1-0.2v-0.4c0-0.2,0-0.3,0.1-0.4c0.1-0.1,0.2-0.1,0.4-0.1h1.3
					c0.3,0,0.5,0.1,0.5,0.4V73.7z"/>
				<path fill="#4F2556" d="M55.9,66.7c-0.3,0.3-0.5,0.7-0.5,1.1v7.9H57v-5.2h1.2v-1.7H57v-0.4c0-0.3,0.2-0.5,0.5-0.5h0.7v-1.7h-1.1
					C56.6,66.3,56.2,66.5,55.9,66.7z"/>
				<path fill="#4F2556" d="M63.2,68.9h-2.3c-1.1,0-1.6,0.6-1.7,1.6l0,3.5c0,0.3,0,0.6,0.1,0.8c0.1,0.2,0.2,0.4,0.4,0.6
					c0.2,0.2,0.3,0.3,0.5,0.3c0.2,0.1,0.5,0.1,0.8,0.1h3.7V74h-3.5c-0.1,0-0.2-0.1-0.2-0.2C61,73.8,61,73.7,61,73.5v-0.1l3.8-1.5
					v-1.4C64.8,69.4,64.2,68.9,63.2,68.9z M63.1,71l-2.1,0.8v-0.7c0-0.1,0.1-0.2,0.2-0.3c0.1-0.1,0.2-0.1,0.4-0.1h1.2
					c0.1,0,0.2,0,0.3,0.1C63,70.8,63.1,70.8,63.1,71L63.1,71z"/>
				<path fill="#4F2556" d="M67.8,75.3c-0.2,0-0.4-0.1-0.5-0.3c-0.2-0.2-0.3-0.3-0.4-0.6c-0.1-0.2-0.1-0.4-0.1-0.7v-3.3
					c0-0.5,0.1-0.8,0.4-1c0.3-0.2,0.6-0.3,1.1-0.3h2.5v-0.4h-2.6c-0.3,0-0.5,0-0.7,0.1c-0.2,0.1-0.4,0.2-0.6,0.4
					c-0.2,0.2-0.3,0.4-0.4,0.6c-0.1,0.2-0.1,0.4-0.1,0.7v3.3c0,0.3,0,0.6,0.1,0.8c0.1,0.3,0.2,0.5,0.5,0.7c0.2,0.2,0.4,0.3,0.7,0.3
					c0.2,0,0.4,0.1,0.7,0.1h2.4v-0.4h-2.4C68.2,75.4,68,75.3,67.8,75.3z"/>
				<path fill="#4F2556" d="M77.1,69c-0.1-0.1-0.2-0.1-0.4-0.2c-0.3,0-0.6-0.1-0.9-0.1h-3.5v0.4h3.7c0.2,0,0.4,0,0.6,0.1
					c0.2,0.1,0.3,0.2,0.5,0.4c0.2,0.3,0.3,0.6,0.3,1v0.5h-3.4c-1.2,0-1.8,0.6-1.8,1.8v1c0,0.6,0.2,1,0.5,1.3
					c0.3,0.3,0.8,0.5,1.3,0.5h2c0.5,0,1-0.2,1.3-0.5c0.2-0.2,0.3-0.4,0.3-0.6c0-0.2,0.1-0.4,0.1-0.7v-3.1c0-0.5-0.1-1-0.5-1.4
					C77.3,69.2,77.2,69.1,77.1,69z M77.5,74c0,0.9-0.4,1.4-1.3,1.4h-2.1c-0.4,0-0.7-0.1-1-0.4c-0.2-0.1-0.3-0.3-0.3-0.5
					c0-0.2-0.1-0.4-0.1-0.6v-1c0-0.4,0.1-0.8,0.4-1c0.2-0.2,0.6-0.4,1-0.4h3.4V74z"/>
				<path fill="#4F2556" d="M79.9,70.8v5h0.4v-5c0-1,0.4-1.5,1.4-1.6h0.5v-0.4h-0.5C80.5,68.8,79.9,69.5,79.9,70.8z"/>
				<path fill="#4F2556" d="M88.6,66.6v2.3h-3.2c-1.3,0-2,0.7-2,2v3c0,0.3,0,0.5,0.1,0.8c0,0.2,0.2,0.5,0.3,0.7
					c0.2,0.2,0.5,0.4,0.7,0.5c0.3,0.1,0.5,0.1,0.9,0.1h1.5c1.4,0,2.1-0.6,2.1-1.9v-7.3H88.6z M88.6,73.8c0,0.6-0.2,1-0.5,1.2
					c-0.3,0.2-0.8,0.4-1.3,0.4h-1.4c-0.2,0-0.4,0-0.6-0.1c-0.2,0-0.4-0.1-0.5-0.2c-0.3-0.2-0.5-0.6-0.5-1.1v-3.2
					c0-0.2,0-0.5,0.1-0.6c0-0.2,0.2-0.3,0.3-0.5c0.2-0.2,0.4-0.3,0.6-0.4c0.2,0,0.4-0.1,0.6-0.1h3.2V73.8z"/>
				<path fill="#4F2556" d="M12.1,68.5c0.2-1.2,1.3-2,2.5-2c1.2,0,2.3,0.9,2.5,2c0.4,0.1,0.7,0.2,0.9,0.5c0-0.2,0-0.4,0-0.6
					c-0.2-1.8-1.6-3.2-3.4-3.2c-1.9,0-3.4,1.5-3.5,3.3c0,0.2,0,0.3,0,0.5c0.2-0.1,0.3-0.3,0.5-0.3C11.9,68.6,12,68.5,12.1,68.5z"/>
				<path fill="#4F2556" d="M16.7,68.9h-4.1c-0.2,0-0.4,0-0.6,0.1c-0.2,0.1-0.4,0.2-0.5,0.3c-0.3,0.3-0.4,0.8-0.4,1.4v3.2
					c0,0.6,0.1,1,0.4,1.4c0.1,0.1,0.3,0.2,0.5,0.3c0.2,0.1,0.4,0.1,0.6,0.1h4.1c1.1,0,1.6-0.6,1.6-1.8v-3.4
					C18.3,69.5,17.7,68.9,16.7,68.9z"/>
				<g>
					<path fill="#4F2556" d="M43.3,32.5c1.2,1.7,1.7,4.4,1.7,4.4h4.8c-0.5-2-2.6-5.6-2.6-5.6c1.9-2.4,2.7-4.9,2.8-5.3h-4.6
						c-0.1,0.2-0.7,2-2.2,3.8v-7.8l-4,0.8v14.2h4V32.5z"/>
					<path fill="#4F2556" d="M32.2,31.2c0.4,0,1.6,0.1,1.6,1.2c0,0.9-0.9,1.4-2.5,1.4c-1.7,0-3.4-0.4-4.4-0.8v3.5
						c1.5,0.4,3.2,0.6,5.2,0.6c4.3,0,6.2-2.4,6.2-4.8c0-2.7-2.2-4.5-5.8-4.7c-0.5,0-1.6-0.1-1.6-1.1c0-1.2,1.6-1.2,2.3-1.2
						c1.1,0,2.5,0.3,3.5,0.6c0,0,0.6,0.2,1,0.4l0,0v0v-3.3l-0.1,0c-1.2-0.4-2.6-0.8-5.1-0.8c-4.4,0-6,2.6-6,4.8
						C26.6,27.9,27.1,30.9,32.2,31.2z"/>
					<rect x="58.3" y="25.9" fill="#4F2556" width="3.9" height="10.9"/>
					<circle fill="#4F2556" cx="60.2" cy="22.9" r="1.9"/>
					<path fill="#4F2556" d="M54.6,31.8c0-1.9,0.3-2.8,2.5-2.8v-3.2c-0.4-0.1-1-0.1-1-0.1c-3.6,0.1-5.4,1.7-5.4,4.9v6.2h3.9V31.8z"
						/>
					<polygon fill="#4F2556" points="67.7,21.9 63.8,22.6 63.8,36.8 67.7,36.8 					"/>
					<polygon fill="#4F2556" points="73.4,21.9 69.5,22.6 69.5,36.8 73.4,36.8 					"/>
				</g>
				<path fill="#4F2556" d="M53.8,52.5l-0.3,0v0l-3.4,0l0-3.7c0-0.4-0.3-0.7-0.7-0.7c-0.4,0-0.7,0.3-0.7,0.7l0,0.3h0l0,3.4l-3.7,0
					c-0.4,0-0.7,0.3-0.7,0.7c0,0.4,0.3,0.7,0.7,0.7l0.3,0v0l3.4,0l0,3.7c0,0.4,0.3,0.7,0.7,0.7c0.4,0,0.7-0.3,0.7-0.7l0-0.3h0l0-3.4
					l3.7,0c0.4,0,0.7-0.3,0.7-0.7C54.5,52.8,54.2,52.5,53.8,52.5z"/>
			</g>
		</g>
	</g>
</g>
<g id="ICONS_-_WARM_GREY" display="none">
	<g display="inline">
		<g>
			<g>
				<path fill="#534C63" d="M25.1,68.9h-2.4c-0.2,0-0.4,0-0.6,0.1c-0.2,0.1-0.4,0.2-0.5,0.3c-0.3,0.3-0.4,0.8-0.4,1.4v7.7h1.7v-2.6
					h2.3c0.4,0,0.8-0.2,1.1-0.5c0.3-0.3,0.5-0.7,0.5-1.1v-3.6C26.7,69.5,26.2,68.9,25.1,68.9z M25.1,73.6c0,0.1,0,0.2-0.1,0.3
					C24.8,74,24.7,74,24.6,74h-1.2c-0.3,0-0.5-0.2-0.5-0.5v-2.4c0-0.3,0.2-0.5,0.5-0.5h1.3c0.2,0,0.4,0.1,0.4,0.4V73.6z"/>
				<path fill="#534C63" d="M32,68.9h-3.9v1.7h3.4c0.3,0,0.5,0.1,0.5,0.4v0.2h-2.3c-1.1,0-1.6,0.6-1.6,1.6v1.4c0,1,0.6,1.5,1.7,1.6
					h2.3c0.5,0,0.8-0.2,1.1-0.5c0.3-0.3,0.4-0.7,0.4-1.1v-3.6C33.7,69.4,33.1,68.9,32,68.9z M32,73.7c0,0.2-0.2,0.3-0.5,0.3h-1.3
					c-0.1,0-0.2,0-0.3-0.1c-0.1-0.1-0.1-0.1-0.1-0.2v-0.4c0-0.2,0-0.3,0.1-0.4c0.1-0.1,0.2-0.1,0.4-0.1h1.3c0.3,0,0.5,0.1,0.5,0.4
					V73.7z"/>
				<path fill="#534C63" d="M39,73.6c0,0.1-0.1,0.2-0.2,0.3C38.7,74,38.6,74,38.4,74h-1.2c-0.3,0-0.5-0.2-0.5-0.6v-4.6h-1.7V74
					c0,0.3,0,0.5,0.1,0.7c0.1,0.2,0.2,0.4,0.4,0.6c0.2,0.2,0.4,0.3,0.5,0.4c0.2,0.1,0.4,0.1,0.7,0.1H39v0.4c0,0.1,0,0.2-0.1,0.3
					c-0.1,0.1-0.2,0.1-0.3,0.1h-3.4v1.7h4c0.5,0,0.9-0.2,1.2-0.5c0.3-0.3,0.4-0.8,0.4-1.4v-7.6H39V73.6z"/>
				<path fill="#534C63" d="M42,70.4v1.3c0,0.4,0.2,0.7,0.5,1c0.3,0.3,0.7,0.4,1.1,0.5h1.5c0.1,0,0.2,0.1,0.2,0.2c0,0.1,0,0.1,0,0.2
					v0.2c0,0.2-0.2,0.3-0.4,0.3h-3v1.7h3.6c0.3,0,0.5,0,0.7-0.1c0.2-0.1,0.3-0.2,0.5-0.4c0.3-0.4,0.5-0.7,0.5-1.1V73
					c0-0.4-0.2-0.8-0.4-1.1c-0.3-0.3-0.6-0.5-1-0.5h-1.5c-0.4,0-0.5-0.1-0.5-0.3v-0.2c0-0.2,0.2-0.3,0.5-0.3h3v-1.7h-3.5
					C42.6,68.9,42,69.4,42,70.4z"/>
				<path fill="#534C63" d="M52.2,68.9h-3.9v1.7h3.4c0.3,0,0.5,0.1,0.5,0.4v0.2H50c-1.1,0-1.6,0.6-1.6,1.6v1.4c0,1,0.6,1.5,1.7,1.6
					h2.3c0.5,0,0.8-0.2,1.1-0.5c0.3-0.3,0.4-0.7,0.4-1.1v-3.6C53.9,69.4,53.4,68.9,52.2,68.9z M52.3,73.7c0,0.2-0.2,0.3-0.5,0.3
					h-1.3c-0.1,0-0.2,0-0.3-0.1c-0.1-0.1-0.1-0.1-0.1-0.2v-0.4c0-0.2,0-0.3,0.1-0.4c0.1-0.1,0.2-0.1,0.4-0.1h1.3
					c0.3,0,0.5,0.1,0.5,0.4V73.7z"/>
				<path fill="#534C63" d="M55.9,66.7c-0.3,0.3-0.5,0.7-0.5,1.1v7.9H57v-5.2h1.2v-1.7H57v-0.4c0-0.3,0.2-0.5,0.5-0.5h0.7v-1.7h-1.1
					C56.6,66.3,56.2,66.5,55.9,66.7z"/>
				<path fill="#534C63" d="M63.2,68.9h-2.3c-1.1,0-1.6,0.6-1.7,1.6l0,3.5c0,0.3,0,0.6,0.1,0.8c0.1,0.2,0.2,0.4,0.4,0.6
					c0.2,0.2,0.3,0.3,0.5,0.3c0.2,0.1,0.5,0.1,0.8,0.1h3.7V74h-3.5c-0.1,0-0.2-0.1-0.2-0.2C61,73.8,61,73.7,61,73.5v-0.1l3.8-1.5
					v-1.4C64.8,69.4,64.2,68.9,63.2,68.9z M63.1,71l-2.1,0.8v-0.7c0-0.1,0.1-0.2,0.2-0.3c0.1-0.1,0.2-0.1,0.4-0.1h1.2
					c0.1,0,0.2,0,0.3,0.1C63,70.8,63.1,70.8,63.1,71L63.1,71z"/>
				<path fill="#534C63" d="M67.8,75.3c-0.2,0-0.4-0.1-0.5-0.3c-0.2-0.2-0.3-0.3-0.4-0.6c-0.1-0.2-0.1-0.4-0.1-0.7v-3.3
					c0-0.5,0.1-0.8,0.4-1c0.3-0.2,0.6-0.3,1.1-0.3h2.5v-0.4h-2.6c-0.3,0-0.5,0-0.7,0.1c-0.2,0.1-0.4,0.2-0.6,0.4
					c-0.2,0.2-0.3,0.4-0.4,0.6c-0.1,0.2-0.1,0.4-0.1,0.7v3.3c0,0.3,0,0.6,0.1,0.8c0.1,0.3,0.2,0.5,0.5,0.7c0.2,0.2,0.4,0.3,0.7,0.3
					c0.2,0,0.4,0.1,0.7,0.1h2.4v-0.4h-2.4C68.2,75.4,68,75.3,67.8,75.3z"/>
				<path fill="#534C63" d="M77.1,69c-0.1-0.1-0.2-0.1-0.4-0.2c-0.3,0-0.6-0.1-0.9-0.1h-3.5v0.4h3.7c0.2,0,0.4,0,0.6,0.1
					c0.2,0.1,0.3,0.2,0.5,0.4c0.2,0.3,0.3,0.6,0.3,1v0.5h-3.4c-1.2,0-1.8,0.6-1.8,1.8v1c0,0.6,0.2,1,0.5,1.3
					c0.3,0.3,0.8,0.5,1.3,0.5h2c0.5,0,1-0.2,1.3-0.5c0.2-0.2,0.3-0.4,0.3-0.6c0-0.2,0.1-0.4,0.1-0.7v-3.1c0-0.5-0.1-1-0.5-1.4
					C77.3,69.2,77.2,69.1,77.1,69z M77.5,74c0,0.9-0.4,1.4-1.3,1.4h-2.1c-0.4,0-0.7-0.1-1-0.4c-0.2-0.1-0.3-0.3-0.3-0.5
					c0-0.2-0.1-0.4-0.1-0.6v-1c0-0.4,0.1-0.8,0.4-1c0.2-0.2,0.6-0.4,1-0.4h3.4V74z"/>
				<path fill="#534C63" d="M79.9,70.8v5h0.4v-5c0-1,0.4-1.5,1.4-1.6h0.5v-0.4h-0.5C80.5,68.8,79.9,69.5,79.9,70.8z"/>
				<path fill="#534C63" d="M88.6,66.6v2.3h-3.2c-1.3,0-2,0.7-2,2v3c0,0.3,0,0.5,0.1,0.8c0,0.2,0.2,0.5,0.3,0.7
					c0.2,0.2,0.5,0.4,0.7,0.5c0.3,0.1,0.5,0.1,0.9,0.1h1.5c1.4,0,2.1-0.6,2.1-1.9v-7.3H88.6z M88.6,73.8c0,0.6-0.2,1-0.5,1.2
					c-0.3,0.2-0.8,0.4-1.3,0.4h-1.4c-0.2,0-0.4,0-0.6-0.1c-0.2,0-0.4-0.1-0.5-0.2c-0.3-0.2-0.5-0.6-0.5-1.1v-3.2
					c0-0.2,0-0.5,0.1-0.6c0-0.2,0.2-0.3,0.3-0.5c0.2-0.2,0.4-0.3,0.6-0.4c0.2,0,0.4-0.1,0.6-0.1h3.2V73.8z"/>
				<path fill="#534C63" d="M12.1,68.5c0.2-1.2,1.3-2,2.5-2c1.2,0,2.3,0.9,2.5,2c0.4,0.1,0.7,0.2,0.9,0.5c0-0.2,0-0.4,0-0.6
					c-0.2-1.8-1.6-3.2-3.4-3.2c-1.9,0-3.4,1.5-3.5,3.3c0,0.2,0,0.3,0,0.5c0.2-0.1,0.3-0.3,0.5-0.3C11.9,68.6,12,68.5,12.1,68.5z"/>
				<path fill="#534C63" d="M16.7,68.9h-4.1c-0.2,0-0.4,0-0.6,0.1c-0.2,0.1-0.4,0.2-0.5,0.3c-0.3,0.3-0.4,0.8-0.4,1.4v3.2
					c0,0.6,0.1,1,0.4,1.4c0.1,0.1,0.3,0.2,0.5,0.3c0.2,0.1,0.4,0.1,0.6,0.1h4.1c1.1,0,1.6-0.6,1.6-1.8v-3.4
					C18.3,69.5,17.7,68.9,16.7,68.9z"/>
				<g>
					<path fill="#534C63" d="M43.3,32.5c1.2,1.7,1.7,4.4,1.7,4.4h4.8c-0.5-2-2.6-5.6-2.6-5.6c1.9-2.4,2.7-4.9,2.8-5.3h-4.6
						c-0.1,0.2-0.7,2-2.2,3.8v-7.8l-4,0.8v14.2h4V32.5z"/>
					<path fill="#534C63" d="M32.2,31.2c0.4,0,1.6,0.1,1.6,1.2c0,0.9-0.9,1.4-2.5,1.4c-1.7,0-3.4-0.4-4.4-0.8v3.5
						c1.5,0.4,3.2,0.6,5.2,0.6c4.3,0,6.2-2.4,6.2-4.8c0-2.7-2.2-4.5-5.8-4.7c-0.5,0-1.6-0.1-1.6-1.1c0-1.2,1.6-1.2,2.3-1.2
						c1.1,0,2.5,0.3,3.5,0.6c0,0,0.6,0.2,1,0.4l0,0v0v-3.3l-0.1,0c-1.2-0.4-2.6-0.8-5.1-0.8c-4.4,0-6,2.6-6,4.8
						C26.6,27.9,27.1,30.9,32.2,31.2z"/>
					<rect x="58.3" y="25.9" fill="#534C63" width="3.9" height="10.9"/>
					<circle fill="#534C63" cx="60.2" cy="22.9" r="1.9"/>
					<path fill="#534C63" d="M54.6,31.8c0-1.9,0.3-2.8,2.5-2.8v-3.2c-0.4-0.1-1-0.1-1-0.1c-3.6,0.1-5.4,1.7-5.4,4.9v6.2h3.9V31.8z"
						/>
					<polygon fill="#534C63" points="67.7,21.9 63.8,22.6 63.8,36.8 67.7,36.8 					"/>
					<polygon fill="#534C63" points="73.4,21.9 69.5,22.6 69.5,36.8 73.4,36.8 					"/>
				</g>
				<path fill="#534C63" d="M53.8,52.5l-0.3,0v0l-3.4,0l0-3.7c0-0.4-0.3-0.7-0.7-0.7c-0.4,0-0.7,0.3-0.7,0.7l0,0.3h0l0,3.4l-3.7,0
					c-0.4,0-0.7,0.3-0.7,0.7c0,0.4,0.3,0.7,0.7,0.7l0.3,0v0l3.4,0l0,3.7c0,0.4,0.3,0.7,0.7,0.7c0.4,0,0.7-0.3,0.7-0.7l0-0.3h0l0-3.4
					l3.7,0c0.4,0,0.7-0.3,0.7-0.7C54.5,52.8,54.2,52.5,53.8,52.5z"/>
			</g>
		</g>
	</g>
</g>
<g id="ICONS_-_SKRILL_TEAL" display="none">
	<g display="inline">
		<g>
			<g>
				<path fill="#41AEB5" d="M25.1,68.9h-2.4c-0.2,0-0.4,0-0.6,0.1c-0.2,0.1-0.4,0.2-0.5,0.3c-0.3,0.3-0.4,0.8-0.4,1.4v7.7h1.7v-2.6
					h2.3c0.4,0,0.8-0.2,1.1-0.5c0.3-0.3,0.5-0.7,0.5-1.1v-3.6C26.7,69.5,26.2,68.9,25.1,68.9z M25.1,73.6c0,0.1,0,0.2-0.1,0.3
					C24.8,74,24.7,74,24.6,74h-1.2c-0.3,0-0.5-0.2-0.5-0.5v-2.4c0-0.3,0.2-0.5,0.5-0.5h1.3c0.2,0,0.4,0.1,0.4,0.4V73.6z"/>
				<path fill="#41AEB5" d="M32,68.9h-3.9v1.7h3.4c0.3,0,0.5,0.1,0.5,0.4v0.2h-2.3c-1.1,0-1.6,0.6-1.6,1.6v1.4c0,1,0.6,1.5,1.7,1.6
					h2.3c0.5,0,0.8-0.2,1.1-0.5c0.3-0.3,0.4-0.7,0.4-1.1v-3.6C33.7,69.4,33.1,68.9,32,68.9z M32,73.7c0,0.2-0.2,0.3-0.5,0.3h-1.3
					c-0.1,0-0.2,0-0.3-0.1c-0.1-0.1-0.1-0.1-0.1-0.2v-0.4c0-0.2,0-0.3,0.1-0.4c0.1-0.1,0.2-0.1,0.4-0.1h1.3c0.3,0,0.5,0.1,0.5,0.4
					V73.7z"/>
				<path fill="#41AEB5" d="M39,73.6c0,0.1-0.1,0.2-0.2,0.3C38.7,74,38.6,74,38.4,74h-1.2c-0.3,0-0.5-0.2-0.5-0.6v-4.6h-1.7V74
					c0,0.3,0,0.5,0.1,0.7c0.1,0.2,0.2,0.4,0.4,0.6c0.2,0.2,0.4,0.3,0.5,0.4c0.2,0.1,0.4,0.1,0.7,0.1H39v0.4c0,0.1,0,0.2-0.1,0.3
					c-0.1,0.1-0.2,0.1-0.3,0.1h-3.4v1.7h4c0.5,0,0.9-0.2,1.2-0.5c0.3-0.3,0.4-0.8,0.4-1.4v-7.6H39V73.6z"/>
				<path fill="#41AEB5" d="M42,70.4v1.3c0,0.4,0.2,0.7,0.5,1c0.3,0.3,0.7,0.4,1.1,0.5h1.5c0.1,0,0.2,0.1,0.2,0.2c0,0.1,0,0.1,0,0.2
					v0.2c0,0.2-0.2,0.3-0.4,0.3h-3v1.7h3.6c0.3,0,0.5,0,0.7-0.1c0.2-0.1,0.3-0.2,0.5-0.4c0.3-0.4,0.5-0.7,0.5-1.1V73
					c0-0.4-0.2-0.8-0.4-1.1c-0.3-0.3-0.6-0.5-1-0.5h-1.5c-0.4,0-0.5-0.1-0.5-0.3v-0.2c0-0.2,0.2-0.3,0.5-0.3h3v-1.7h-3.5
					C42.6,68.9,42,69.4,42,70.4z"/>
				<path fill="#41AEB5" d="M52.2,68.9h-3.9v1.7h3.4c0.3,0,0.5,0.1,0.5,0.4v0.2H50c-1.1,0-1.6,0.6-1.6,1.6v1.4c0,1,0.6,1.5,1.7,1.6
					h2.3c0.5,0,0.8-0.2,1.1-0.5c0.3-0.3,0.4-0.7,0.4-1.1v-3.6C53.9,69.4,53.4,68.9,52.2,68.9z M52.3,73.7c0,0.2-0.2,0.3-0.5,0.3
					h-1.3c-0.1,0-0.2,0-0.3-0.1c-0.1-0.1-0.1-0.1-0.1-0.2v-0.4c0-0.2,0-0.3,0.1-0.4c0.1-0.1,0.2-0.1,0.4-0.1h1.3
					c0.3,0,0.5,0.1,0.5,0.4V73.7z"/>
				<path fill="#41AEB5" d="M55.9,66.7c-0.3,0.3-0.5,0.7-0.5,1.1v7.9H57v-5.2h1.2v-1.7H57v-0.4c0-0.3,0.2-0.5,0.5-0.5h0.7v-1.7h-1.1
					C56.6,66.3,56.2,66.5,55.9,66.7z"/>
				<path fill="#41AEB5" d="M63.2,68.9h-2.3c-1.1,0-1.6,0.6-1.7,1.6l0,3.5c0,0.3,0,0.6,0.1,0.8c0.1,0.2,0.2,0.4,0.4,0.6
					c0.2,0.2,0.3,0.3,0.5,0.3c0.2,0.1,0.5,0.1,0.8,0.1h3.7V74h-3.5c-0.1,0-0.2-0.1-0.2-0.2C61,73.8,61,73.7,61,73.5v-0.1l3.8-1.5
					v-1.4C64.8,69.4,64.2,68.9,63.2,68.9z M63.1,71l-2.1,0.8v-0.7c0-0.1,0.1-0.2,0.2-0.3c0.1-0.1,0.2-0.1,0.4-0.1h1.2
					c0.1,0,0.2,0,0.3,0.1C63,70.8,63.1,70.8,63.1,71L63.1,71z"/>
				<path fill="#41AEB5" d="M67.8,75.3c-0.2,0-0.4-0.1-0.5-0.3c-0.2-0.2-0.3-0.3-0.4-0.6c-0.1-0.2-0.1-0.4-0.1-0.7v-3.3
					c0-0.5,0.1-0.8,0.4-1c0.3-0.2,0.6-0.3,1.1-0.3h2.5v-0.4h-2.6c-0.3,0-0.5,0-0.7,0.1c-0.2,0.1-0.4,0.2-0.6,0.4
					c-0.2,0.2-0.3,0.4-0.4,0.6c-0.1,0.2-0.1,0.4-0.1,0.7v3.3c0,0.3,0,0.6,0.1,0.8c0.1,0.3,0.2,0.5,0.5,0.7c0.2,0.2,0.4,0.3,0.7,0.3
					c0.2,0,0.4,0.1,0.7,0.1h2.4v-0.4h-2.4C68.2,75.4,68,75.3,67.8,75.3z"/>
				<path fill="#41AEB5" d="M77.1,69c-0.1-0.1-0.2-0.1-0.4-0.2c-0.3,0-0.6-0.1-0.9-0.1h-3.5v0.4h3.7c0.2,0,0.4,0,0.6,0.1
					c0.2,0.1,0.3,0.2,0.5,0.4c0.2,0.3,0.3,0.6,0.3,1v0.5h-3.4c-1.2,0-1.8,0.6-1.8,1.8v1c0,0.6,0.2,1,0.5,1.3
					c0.3,0.3,0.8,0.5,1.3,0.5h2c0.5,0,1-0.2,1.3-0.5c0.2-0.2,0.3-0.4,0.3-0.6c0-0.2,0.1-0.4,0.1-0.7v-3.1c0-0.5-0.1-1-0.5-1.4
					C77.3,69.2,77.2,69.1,77.1,69z M77.5,74c0,0.9-0.4,1.4-1.3,1.4h-2.1c-0.4,0-0.7-0.1-1-0.4c-0.2-0.1-0.3-0.3-0.3-0.5
					c0-0.2-0.1-0.4-0.1-0.6v-1c0-0.4,0.1-0.8,0.4-1c0.2-0.2,0.6-0.4,1-0.4h3.4V74z"/>
				<path fill="#41AEB5" d="M79.9,70.8v5h0.4v-5c0-1,0.4-1.5,1.4-1.6h0.5v-0.4h-0.5C80.5,68.8,79.9,69.5,79.9,70.8z"/>
				<path fill="#41AEB5" d="M88.6,66.6v2.3h-3.2c-1.3,0-2,0.7-2,2v3c0,0.3,0,0.5,0.1,0.8c0,0.2,0.2,0.5,0.3,0.7
					c0.2,0.2,0.5,0.4,0.7,0.5c0.3,0.1,0.5,0.1,0.9,0.1h1.5c1.4,0,2.1-0.6,2.1-1.9v-7.3H88.6z M88.6,73.8c0,0.6-0.2,1-0.5,1.2
					c-0.3,0.2-0.8,0.4-1.3,0.4h-1.4c-0.2,0-0.4,0-0.6-0.1c-0.2,0-0.4-0.1-0.5-0.2c-0.3-0.2-0.5-0.6-0.5-1.1v-3.2
					c0-0.2,0-0.5,0.1-0.6c0-0.2,0.2-0.3,0.3-0.5c0.2-0.2,0.4-0.3,0.6-0.4c0.2,0,0.4-0.1,0.6-0.1h3.2V73.8z"/>
				<path fill="#41AEB5" d="M12.1,68.5c0.2-1.2,1.3-2,2.5-2c1.2,0,2.3,0.9,2.5,2c0.4,0.1,0.7,0.2,0.9,0.5c0-0.2,0-0.4,0-0.6
					c-0.2-1.8-1.6-3.2-3.4-3.2c-1.9,0-3.4,1.5-3.5,3.3c0,0.2,0,0.3,0,0.5c0.2-0.1,0.3-0.3,0.5-0.3C11.9,68.6,12,68.5,12.1,68.5z"/>
				<path fill="#41AEB5" d="M16.7,68.9h-4.1c-0.2,0-0.4,0-0.6,0.1c-0.2,0.1-0.4,0.2-0.5,0.3c-0.3,0.3-0.4,0.8-0.4,1.4v3.2
					c0,0.6,0.1,1,0.4,1.4c0.1,0.1,0.3,0.2,0.5,0.3c0.2,0.1,0.4,0.1,0.6,0.1h4.1c1.1,0,1.6-0.6,1.6-1.8v-3.4
					C18.3,69.5,17.7,68.9,16.7,68.9z"/>
				<g>
					<path fill="#41AEB5" d="M43.3,32.5c1.2,1.7,1.7,4.4,1.7,4.4h4.8c-0.5-2-2.6-5.6-2.6-5.6c1.9-2.4,2.7-4.9,2.8-5.3h-4.6
						c-0.1,0.2-0.7,2-2.2,3.8v-7.8l-4,0.8v14.2h4V32.5z"/>
					<path fill="#41AEB5" d="M32.2,31.2c0.4,0,1.6,0.1,1.6,1.2c0,0.9-0.9,1.4-2.5,1.4c-1.7,0-3.4-0.4-4.4-0.8v3.5
						c1.5,0.4,3.2,0.6,5.2,0.6c4.3,0,6.2-2.4,6.2-4.8c0-2.7-2.2-4.5-5.8-4.7c-0.5,0-1.6-0.1-1.6-1.1c0-1.2,1.6-1.2,2.3-1.2
						c1.1,0,2.5,0.3,3.5,0.6c0,0,0.6,0.2,1,0.4l0,0v0v-3.3l-0.1,0c-1.2-0.4-2.6-0.8-5.1-0.8c-4.4,0-6,2.6-6,4.8
						C26.6,27.9,27.1,30.9,32.2,31.2z"/>
					<rect x="58.3" y="25.9" fill="#41AEB5" width="3.9" height="10.9"/>
					<circle fill="#41AEB5" cx="60.2" cy="22.9" r="1.9"/>
					<path fill="#41AEB5" d="M54.6,31.8c0-1.9,0.3-2.8,2.5-2.8v-3.2c-0.4-0.1-1-0.1-1-0.1c-3.6,0.1-5.4,1.7-5.4,4.9v6.2h3.9V31.8z"
						/>
					<polygon fill="#41AEB5" points="67.7,21.9 63.8,22.6 63.8,36.8 67.7,36.8 					"/>
					<polygon fill="#41AEB5" points="73.4,21.9 69.5,22.6 69.5,36.8 73.4,36.8 					"/>
				</g>
				<path fill="#41AEB5" d="M53.8,52.5l-0.3,0v0l-3.4,0l0-3.7c0-0.4-0.3-0.7-0.7-0.7c-0.4,0-0.7,0.3-0.7,0.7l0,0.3h0l0,3.4l-3.7,0
					c-0.4,0-0.7,0.3-0.7,0.7c0,0.4,0.3,0.7,0.7,0.7l0.3,0v0l3.4,0l0,3.7c0,0.4,0.3,0.7,0.7,0.7c0.4,0,0.7-0.3,0.7-0.7l0-0.3h0l0-3.4
					l3.7,0c0.4,0,0.7-0.3,0.7-0.7C54.5,52.8,54.2,52.5,53.8,52.5z"/>
			</g>
		</g>
	</g>
</g>
<g id="ICONS_-_SKRILL_PURPLE">
	<g>
		<g>
			<g>
				<path fill="#811E68" d="M25.1,68.9h-2.4c-0.2,0-0.4,0-0.6,0.1c-0.2,0.1-0.4,0.2-0.5,0.3c-0.3,0.3-0.4,0.8-0.4,1.4v7.7h1.7v-2.6
					h2.3c0.4,0,0.8-0.2,1.1-0.5c0.3-0.3,0.5-0.7,0.5-1.1v-3.6C26.7,69.5,26.2,68.9,25.1,68.9z M25.1,73.6c0,0.1,0,0.2-0.1,0.3
					C24.8,74,24.7,74,24.6,74h-1.2c-0.3,0-0.5-0.2-0.5-0.5v-2.4c0-0.3,0.2-0.5,0.5-0.5h1.3c0.2,0,0.4,0.1,0.4,0.4V73.6z"/>
				<path fill="#811E68" d="M32,68.9h-3.9v1.7h3.4c0.3,0,0.5,0.1,0.5,0.4v0.2h-2.3c-1.1,0-1.6,0.6-1.6,1.6v1.4c0,1,0.6,1.5,1.7,1.6
					h2.3c0.5,0,0.8-0.2,1.1-0.5c0.3-0.3,0.4-0.7,0.4-1.1v-3.6C33.7,69.4,33.1,68.9,32,68.9z M32,73.7c0,0.2-0.2,0.3-0.5,0.3h-1.3
					c-0.1,0-0.2,0-0.3-0.1c-0.1-0.1-0.1-0.1-0.1-0.2v-0.4c0-0.2,0-0.3,0.1-0.4c0.1-0.1,0.2-0.1,0.4-0.1h1.3c0.3,0,0.5,0.1,0.5,0.4
					V73.7z"/>
				<path fill="#811E68" d="M39,73.6c0,0.1-0.1,0.2-0.2,0.3C38.7,74,38.6,74,38.4,74h-1.2c-0.3,0-0.5-0.2-0.5-0.6v-4.6h-1.7V74
					c0,0.3,0,0.5,0.1,0.7c0.1,0.2,0.2,0.4,0.4,0.6c0.2,0.2,0.4,0.3,0.5,0.4c0.2,0.1,0.4,0.1,0.7,0.1H39v0.4c0,0.1,0,0.2-0.1,0.3
					c-0.1,0.1-0.2,0.1-0.3,0.1h-3.4v1.7h4c0.5,0,0.9-0.2,1.2-0.5c0.3-0.3,0.4-0.8,0.4-1.4v-7.6H39V73.6z"/>
				<path fill="#811E68" d="M42,70.4v1.3c0,0.4,0.2,0.7,0.5,1c0.3,0.3,0.7,0.4,1.1,0.5h1.5c0.1,0,0.2,0.1,0.2,0.2c0,0.1,0,0.1,0,0.2
					v0.2c0,0.2-0.2,0.3-0.4,0.3h-3v1.7h3.6c0.3,0,0.5,0,0.7-0.1c0.2-0.1,0.3-0.2,0.5-0.4c0.3-0.4,0.5-0.7,0.5-1.1V73
					c0-0.4-0.2-0.8-0.4-1.1c-0.3-0.3-0.6-0.5-1-0.5h-1.5c-0.4,0-0.5-0.1-0.5-0.3v-0.2c0-0.2,0.2-0.3,0.5-0.3h3v-1.7h-3.5
					C42.6,68.9,42,69.4,42,70.4z"/>
				<path fill="#811E68" d="M52.2,68.9h-3.9v1.7h3.4c0.3,0,0.5,0.1,0.5,0.4v0.2H50c-1.1,0-1.6,0.6-1.6,1.6v1.4c0,1,0.6,1.5,1.7,1.6
					h2.3c0.5,0,0.8-0.2,1.1-0.5c0.3-0.3,0.4-0.7,0.4-1.1v-3.6C53.9,69.4,53.4,68.9,52.2,68.9z M52.3,73.7c0,0.2-0.2,0.3-0.5,0.3
					h-1.3c-0.1,0-0.2,0-0.3-0.1c-0.1-0.1-0.1-0.1-0.1-0.2v-0.4c0-0.2,0-0.3,0.1-0.4c0.1-0.1,0.2-0.1,0.4-0.1h1.3
					c0.3,0,0.5,0.1,0.5,0.4V73.7z"/>
				<path fill="#811E68" d="M55.9,66.7c-0.3,0.3-0.5,0.7-0.5,1.1v7.9H57v-5.2h1.2v-1.7H57v-0.4c0-0.3,0.2-0.5,0.5-0.5h0.7v-1.7h-1.1
					C56.6,66.3,56.2,66.5,55.9,66.7z"/>
				<path fill="#811E68" d="M63.2,68.9h-2.3c-1.1,0-1.6,0.6-1.7,1.6l0,3.5c0,0.3,0,0.6,0.1,0.8c0.1,0.2,0.2,0.4,0.4,0.6
					c0.2,0.2,0.3,0.3,0.5,0.3c0.2,0.1,0.5,0.1,0.8,0.1h3.7V74h-3.5c-0.1,0-0.2-0.1-0.2-0.2C61,73.8,61,73.7,61,73.5v-0.1l3.8-1.5
					v-1.4C64.8,69.4,64.2,68.9,63.2,68.9z M63.1,71l-2.1,0.8v-0.7c0-0.1,0.1-0.2,0.2-0.3c0.1-0.1,0.2-0.1,0.4-0.1h1.2
					c0.1,0,0.2,0,0.3,0.1C63,70.8,63.1,70.8,63.1,71L63.1,71z"/>
				<path fill="#811E68" d="M67.8,75.3c-0.2,0-0.4-0.1-0.5-0.3c-0.2-0.2-0.3-0.3-0.4-0.6c-0.1-0.2-0.1-0.4-0.1-0.7v-3.3
					c0-0.5,0.1-0.8,0.4-1c0.3-0.2,0.6-0.3,1.1-0.3h2.5v-0.4h-2.6c-0.3,0-0.5,0-0.7,0.1c-0.2,0.1-0.4,0.2-0.6,0.4
					c-0.2,0.2-0.3,0.4-0.4,0.6c-0.1,0.2-0.1,0.4-0.1,0.7v3.3c0,0.3,0,0.6,0.1,0.8c0.1,0.3,0.2,0.5,0.5,0.7c0.2,0.2,0.4,0.3,0.7,0.3
					c0.2,0,0.4,0.1,0.7,0.1h2.4v-0.4h-2.4C68.2,75.4,68,75.3,67.8,75.3z"/>
				<path fill="#811E68" d="M77.1,69c-0.1-0.1-0.2-0.1-0.4-0.2c-0.3,0-0.6-0.1-0.9-0.1h-3.5v0.4h3.7c0.2,0,0.4,0,0.6,0.1
					c0.2,0.1,0.3,0.2,0.5,0.4c0.2,0.3,0.3,0.6,0.3,1v0.5h-3.4c-1.2,0-1.8,0.6-1.8,1.8v1c0,0.6,0.2,1,0.5,1.3
					c0.3,0.3,0.8,0.5,1.3,0.5h2c0.5,0,1-0.2,1.3-0.5c0.2-0.2,0.3-0.4,0.3-0.6c0-0.2,0.1-0.4,0.1-0.7v-3.1c0-0.5-0.1-1-0.5-1.4
					C77.3,69.2,77.2,69.1,77.1,69z M77.5,74c0,0.9-0.4,1.4-1.3,1.4h-2.1c-0.4,0-0.7-0.1-1-0.4c-0.2-0.1-0.3-0.3-0.3-0.5
					c0-0.2-0.1-0.4-0.1-0.6v-1c0-0.4,0.1-0.8,0.4-1c0.2-0.2,0.6-0.4,1-0.4h3.4V74z"/>
				<path fill="#811E68" d="M79.9,70.8v5h0.4v-5c0-1,0.4-1.5,1.4-1.6h0.5v-0.4h-0.5C80.5,68.8,79.9,69.5,79.9,70.8z"/>
				<path fill="#811E68" d="M88.6,66.6v2.3h-3.2c-1.3,0-2,0.7-2,2v3c0,0.3,0,0.5,0.1,0.8c0,0.2,0.2,0.5,0.3,0.7
					c0.2,0.2,0.5,0.4,0.7,0.5c0.3,0.1,0.5,0.1,0.9,0.1h1.5c1.4,0,2.1-0.6,2.1-1.9v-7.3H88.6z M88.6,73.8c0,0.6-0.2,1-0.5,1.2
					c-0.3,0.2-0.8,0.4-1.3,0.4h-1.4c-0.2,0-0.4,0-0.6-0.1c-0.2,0-0.4-0.1-0.5-0.2c-0.3-0.2-0.5-0.6-0.5-1.1v-3.2
					c0-0.2,0-0.5,0.1-0.6c0-0.2,0.2-0.3,0.3-0.5c0.2-0.2,0.4-0.3,0.6-0.4c0.2,0,0.4-0.1,0.6-0.1h3.2V73.8z"/>
				<path fill="#811E68" d="M12.1,68.5c0.2-1.2,1.3-2,2.5-2c1.2,0,2.3,0.9,2.5,2c0.4,0.1,0.7,0.2,0.9,0.5c0-0.2,0-0.4,0-0.6
					c-0.2-1.8-1.6-3.2-3.4-3.2c-1.9,0-3.4,1.5-3.5,3.3c0,0.2,0,0.3,0,0.5c0.2-0.1,0.3-0.3,0.5-0.3C11.9,68.6,12,68.5,12.1,68.5z"/>
				<path fill="#811E68" d="M16.7,68.9h-4.1c-0.2,0-0.4,0-0.6,0.1c-0.2,0.1-0.4,0.2-0.5,0.3c-0.3,0.3-0.4,0.8-0.4,1.4v3.2
					c0,0.6,0.1,1,0.4,1.4c0.1,0.1,0.3,0.2,0.5,0.3c0.2,0.1,0.4,0.1,0.6,0.1h4.1c1.1,0,1.6-0.6,1.6-1.8v-3.4
					C18.3,69.5,17.7,68.9,16.7,68.9z"/>
				<g>
					<path fill="#811E68" d="M43.3,32.5c1.2,1.7,1.7,4.4,1.7,4.4h4.8c-0.5-2-2.6-5.6-2.6-5.6c1.9-2.4,2.7-4.9,2.8-5.3h-4.6
						c-0.1,0.2-0.7,2-2.2,3.8v-7.8l-4,0.8v14.2h4V32.5z"/>
					<path fill="#811E68" d="M32.2,31.2c0.4,0,1.6,0.1,1.6,1.2c0,0.9-0.9,1.4-2.5,1.4c-1.7,0-3.4-0.4-4.4-0.8v3.5
						c1.5,0.4,3.2,0.6,5.2,0.6c4.3,0,6.2-2.4,6.2-4.8c0-2.7-2.2-4.5-5.8-4.7c-0.5,0-1.6-0.1-1.6-1.1c0-1.2,1.6-1.2,2.3-1.2
						c1.1,0,2.5,0.3,3.5,0.6c0,0,0.6,0.2,1,0.4l0,0v0v-3.3l-0.1,0c-1.2-0.4-2.6-0.8-5.1-0.8c-4.4,0-6,2.6-6,4.8
						C26.6,27.9,27.1,30.9,32.2,31.2z"/>
					<rect x="58.3" y="25.9" fill="#811E68" width="3.9" height="10.9"/>
					<circle fill="#811E68" cx="60.2" cy="22.9" r="1.9"/>
					<path fill="#811E68" d="M54.6,31.8c0-1.9,0.3-2.8,2.5-2.8v-3.2c-0.4-0.1-1-0.1-1-0.1c-3.6,0.1-5.4,1.7-5.4,4.9v6.2h3.9V31.8z"
						/>
					<polygon fill="#811E68" points="67.7,21.9 63.8,22.6 63.8,36.8 67.7,36.8 					"/>
					<polygon fill="#811E68" points="73.4,21.9 69.5,22.6 69.5,36.8 73.4,36.8 					"/>
				</g>
				<path fill="#811E68" d="M53.8,52.5l-0.3,0v0l-3.4,0l0-3.7c0-0.4-0.3-0.7-0.7-0.7c-0.4,0-0.7,0.3-0.7,0.7l0,0.3h0l0,3.4l-3.7,0
					c-0.4,0-0.7,0.3-0.7,0.7c0,0.4,0.3,0.7,0.7,0.7l0.3,0v0l3.4,0l0,3.7c0,0.4,0.3,0.7,0.7,0.7c0.4,0,0.7-0.3,0.7-0.7l0-0.3h0l0-3.4
					l3.7,0c0.4,0,0.7-0.3,0.7-0.7C54.5,52.8,54.2,52.5,53.8,52.5z"/>
			</g>
		</g>
	</g>
</g>
<g id="ICONS_-_WHITE" display="none">
	<g display="inline">
		<g>
			<g>
				<path fill="#FFFFFF" d="M25.1,68.9h-2.4c-0.2,0-0.4,0-0.6,0.1c-0.2,0.1-0.4,0.2-0.5,0.3c-0.3,0.3-0.4,0.8-0.4,1.4v7.7h1.7v-2.6
					h2.3c0.4,0,0.8-0.2,1.1-0.5c0.3-0.3,0.5-0.7,0.5-1.1v-3.6C26.7,69.5,26.2,68.9,25.1,68.9z M25.1,73.6c0,0.1,0,0.2-0.1,0.3
					C24.8,74,24.7,74,24.6,74h-1.2c-0.3,0-0.5-0.2-0.5-0.5v-2.4c0-0.3,0.2-0.5,0.5-0.5h1.3c0.2,0,0.4,0.1,0.4,0.4V73.6z"/>
				<path fill="#FFFFFF" d="M32,68.9h-3.9v1.7h3.4c0.3,0,0.5,0.1,0.5,0.4v0.2h-2.3c-1.1,0-1.6,0.6-1.6,1.6v1.4c0,1,0.6,1.5,1.7,1.6
					h2.3c0.5,0,0.8-0.2,1.1-0.5c0.3-0.3,0.4-0.7,0.4-1.1v-3.6C33.7,69.4,33.1,68.9,32,68.9z M32,73.7c0,0.2-0.2,0.3-0.5,0.3h-1.3
					c-0.1,0-0.2,0-0.3-0.1c-0.1-0.1-0.1-0.1-0.1-0.2v-0.4c0-0.2,0-0.3,0.1-0.4c0.1-0.1,0.2-0.1,0.4-0.1h1.3c0.3,0,0.5,0.1,0.5,0.4
					V73.7z"/>
				<path fill="#FFFFFF" d="M39,73.6c0,0.1-0.1,0.2-0.2,0.3C38.7,74,38.6,74,38.4,74h-1.2c-0.3,0-0.5-0.2-0.5-0.6v-4.6h-1.7V74
					c0,0.3,0,0.5,0.1,0.7c0.1,0.2,0.2,0.4,0.4,0.6c0.2,0.2,0.4,0.3,0.5,0.4c0.2,0.1,0.4,0.1,0.7,0.1H39v0.4c0,0.1,0,0.2-0.1,0.3
					c-0.1,0.1-0.2,0.1-0.3,0.1h-3.4v1.7h4c0.5,0,0.9-0.2,1.2-0.5c0.3-0.3,0.4-0.8,0.4-1.4v-7.6H39V73.6z"/>
				<path fill="#FFFFFF" d="M42,70.4v1.3c0,0.4,0.2,0.7,0.5,1c0.3,0.3,0.7,0.4,1.1,0.5h1.5c0.1,0,0.2,0.1,0.2,0.2c0,0.1,0,0.1,0,0.2
					v0.2c0,0.2-0.2,0.3-0.4,0.3h-3v1.7h3.6c0.3,0,0.5,0,0.7-0.1c0.2-0.1,0.3-0.2,0.5-0.4c0.3-0.4,0.5-0.7,0.5-1.1V73
					c0-0.4-0.2-0.8-0.4-1.1c-0.3-0.3-0.6-0.5-1-0.5h-1.5c-0.4,0-0.5-0.1-0.5-0.3v-0.2c0-0.2,0.2-0.3,0.5-0.3h3v-1.7h-3.5
					C42.6,68.9,42,69.4,42,70.4z"/>
				<path fill="#FFFFFF" d="M52.2,68.9h-3.9v1.7h3.4c0.3,0,0.5,0.1,0.5,0.4v0.2H50c-1.1,0-1.6,0.6-1.6,1.6v1.4c0,1,0.6,1.5,1.7,1.6
					h2.3c0.5,0,0.8-0.2,1.1-0.5c0.3-0.3,0.4-0.7,0.4-1.1v-3.6C53.9,69.4,53.4,68.9,52.2,68.9z M52.3,73.7c0,0.2-0.2,0.3-0.5,0.3
					h-1.3c-0.1,0-0.2,0-0.3-0.1c-0.1-0.1-0.1-0.1-0.1-0.2v-0.4c0-0.2,0-0.3,0.1-0.4c0.1-0.1,0.2-0.1,0.4-0.1h1.3
					c0.3,0,0.5,0.1,0.5,0.4V73.7z"/>
				<path fill="#FFFFFF" d="M55.9,66.7c-0.3,0.3-0.5,0.7-0.5,1.1v7.9H57v-5.2h1.2v-1.7H57v-0.4c0-0.3,0.2-0.5,0.5-0.5h0.7v-1.7h-1.1
					C56.6,66.3,56.2,66.5,55.9,66.7z"/>
				<path fill="#FFFFFF" d="M63.2,68.9h-2.3c-1.1,0-1.6,0.6-1.7,1.6l0,3.5c0,0.3,0,0.6,0.1,0.8c0.1,0.2,0.2,0.4,0.4,0.6
					c0.2,0.2,0.3,0.3,0.5,0.3c0.2,0.1,0.5,0.1,0.8,0.1h3.7V74h-3.5c-0.1,0-0.2-0.1-0.2-0.2C61,73.8,61,73.7,61,73.5v-0.1l3.8-1.5
					v-1.4C64.8,69.4,64.2,68.9,63.2,68.9z M63.1,71l-2.1,0.8v-0.7c0-0.1,0.1-0.2,0.2-0.3c0.1-0.1,0.2-0.1,0.4-0.1h1.2
					c0.1,0,0.2,0,0.3,0.1C63,70.8,63.1,70.8,63.1,71L63.1,71z"/>
				<path fill="#FFFFFF" d="M67.8,75.3c-0.2,0-0.4-0.1-0.5-0.3c-0.2-0.2-0.3-0.3-0.4-0.6c-0.1-0.2-0.1-0.4-0.1-0.7v-3.3
					c0-0.5,0.1-0.8,0.4-1c0.3-0.2,0.6-0.3,1.1-0.3h2.5v-0.4h-2.6c-0.3,0-0.5,0-0.7,0.1c-0.2,0.1-0.4,0.2-0.6,0.4
					c-0.2,0.2-0.3,0.4-0.4,0.6c-0.1,0.2-0.1,0.4-0.1,0.7v3.3c0,0.3,0,0.6,0.1,0.8c0.1,0.3,0.2,0.5,0.5,0.7c0.2,0.2,0.4,0.3,0.7,0.3
					c0.2,0,0.4,0.1,0.7,0.1h2.4v-0.4h-2.4C68.2,75.4,68,75.3,67.8,75.3z"/>
				<path fill="#FFFFFF" d="M77.1,69c-0.1-0.1-0.2-0.1-0.4-0.2c-0.3,0-0.6-0.1-0.9-0.1h-3.5v0.4h3.7c0.2,0,0.4,0,0.6,0.1
					c0.2,0.1,0.3,0.2,0.5,0.4c0.2,0.3,0.3,0.6,0.3,1v0.5h-3.4c-1.2,0-1.8,0.6-1.8,1.8v1c0,0.6,0.2,1,0.5,1.3
					c0.3,0.3,0.8,0.5,1.3,0.5h2c0.5,0,1-0.2,1.3-0.5c0.2-0.2,0.3-0.4,0.3-0.6c0-0.2,0.1-0.4,0.1-0.7v-3.1c0-0.5-0.1-1-0.5-1.4
					C77.3,69.2,77.2,69.1,77.1,69z M77.5,74c0,0.9-0.4,1.4-1.3,1.4h-2.1c-0.4,0-0.7-0.1-1-0.4c-0.2-0.1-0.3-0.3-0.3-0.5
					c0-0.2-0.1-0.4-0.1-0.6v-1c0-0.4,0.1-0.8,0.4-1c0.2-0.2,0.6-0.4,1-0.4h3.4V74z"/>
				<path fill="#FFFFFF" d="M79.9,70.8v5h0.4v-5c0-1,0.4-1.5,1.4-1.6h0.5v-0.4h-0.5C80.5,68.8,79.9,69.5,79.9,70.8z"/>
				<path fill="#FFFFFF" d="M88.6,66.6v2.3h-3.2c-1.3,0-2,0.7-2,2v3c0,0.3,0,0.5,0.1,0.8c0,0.2,0.2,0.5,0.3,0.7
					c0.2,0.2,0.5,0.4,0.7,0.5c0.3,0.1,0.5,0.1,0.9,0.1h1.5c1.4,0,2.1-0.6,2.1-1.9v-7.3H88.6z M88.6,73.8c0,0.6-0.2,1-0.5,1.2
					c-0.3,0.2-0.8,0.4-1.3,0.4h-1.4c-0.2,0-0.4,0-0.6-0.1c-0.2,0-0.4-0.1-0.5-0.2c-0.3-0.2-0.5-0.6-0.5-1.1v-3.2
					c0-0.2,0-0.5,0.1-0.6c0-0.2,0.2-0.3,0.3-0.5c0.2-0.2,0.4-0.3,0.6-0.4c0.2,0,0.4-0.1,0.6-0.1h3.2V73.8z"/>
				<path fill="#FFFFFF" d="M12.1,68.5c0.2-1.2,1.3-2,2.5-2c1.2,0,2.3,0.9,2.5,2c0.4,0.1,0.7,0.2,0.9,0.5c0-0.2,0-0.4,0-0.6
					c-0.2-1.8-1.6-3.2-3.4-3.2c-1.9,0-3.4,1.5-3.5,3.3c0,0.2,0,0.3,0,0.5c0.2-0.1,0.3-0.3,0.5-0.3C11.9,68.6,12,68.5,12.1,68.5z"/>
				<path fill="#FFFFFF" d="M16.7,68.9h-4.1c-0.2,0-0.4,0-0.6,0.1c-0.2,0.1-0.4,0.2-0.5,0.3c-0.3,0.3-0.4,0.8-0.4,1.4v3.2
					c0,0.6,0.1,1,0.4,1.4c0.1,0.1,0.3,0.2,0.5,0.3c0.2,0.1,0.4,0.1,0.6,0.1h4.1c1.1,0,1.6-0.6,1.6-1.8v-3.4
					C18.3,69.5,17.7,68.9,16.7,68.9z"/>
				<g>
					<path fill="#FFFFFF" d="M43.3,32.5c1.2,1.7,1.7,4.4,1.7,4.4h4.8c-0.5-2-2.6-5.6-2.6-5.6c1.9-2.4,2.7-4.9,2.8-5.3h-4.6
						c-0.1,0.2-0.7,2-2.2,3.8v-7.8l-4,0.8v14.2h4V32.5z"/>
					<path fill="#FFFFFF" d="M32.2,31.2c0.4,0,1.6,0.1,1.6,1.2c0,0.9-0.9,1.4-2.5,1.4c-1.7,0-3.4-0.4-4.4-0.8v3.5
						c1.5,0.4,3.2,0.6,5.2,0.6c4.3,0,6.2-2.4,6.2-4.8c0-2.7-2.2-4.5-5.8-4.7c-0.5,0-1.6-0.1-1.6-1.1c0-1.2,1.6-1.2,2.3-1.2
						c1.1,0,2.5,0.3,3.5,0.6c0,0,0.6,0.2,1,0.4l0,0v0v-3.3l-0.1,0c-1.2-0.4-2.6-0.8-5.1-0.8c-4.4,0-6,2.6-6,4.8
						C26.6,27.9,27.1,30.9,32.2,31.2z"/>
					<rect x="58.3" y="25.9" fill="#FFFFFF" width="3.9" height="10.9"/>
					<circle fill="#FFFFFF" cx="60.2" cy="22.9" r="1.9"/>
					<path fill="#FFFFFF" d="M54.6,31.8c0-1.9,0.3-2.8,2.5-2.8v-3.2c-0.4-0.1-1-0.1-1-0.1c-3.6,0.1-5.4,1.7-5.4,4.9v6.2h3.9V31.8z"
						/>
					<polygon fill="#FFFFFF" points="67.7,21.9 63.8,22.6 63.8,36.8 67.7,36.8 					"/>
					<polygon fill="#FFFFFF" points="73.4,21.9 69.5,22.6 69.5,36.8 73.4,36.8 					"/>
				</g>
				<path fill="#FFFFFF" d="M53.8,52.5l-0.3,0v0l-3.4,0l0-3.7c0-0.4-0.3-0.7-0.7-0.7c-0.4,0-0.7,0.3-0.7,0.7l0,0.3h0l0,3.4l-3.7,0
					c-0.4,0-0.7,0.3-0.7,0.7c0,0.4,0.3,0.7,0.7,0.7l0.3,0v0l3.4,0l0,3.7c0,0.4,0.3,0.7,0.7,0.7c0.4,0,0.7-0.3,0.7-0.7l0-0.3h0l0-3.4
					l3.7,0c0.4,0,0.7-0.3,0.7-0.7C54.5,52.8,54.2,52.5,53.8,52.5z"/>
			</g>
		</g>
	</g>
</g>
<g id="LABELS">
</g>
</svg>
