<?xml version="1.0" encoding="utf-8"?>
<!-- Generator: Adobe Illustrator 18.1.1, SVG Export Plug-In . SVG Version: 6.00 Build 0)  -->
<svg version="1.1" xmlns="http://www.w3.org/2000/svg" xmlns:xlink="http://www.w3.org/1999/xlink" x="0px" y="0px"
	 viewBox="0 0 100 100" enable-background="new 0 0 100 100" xml:space="preserve">
<g id="GUIDES">
</g>
<g id="ICONS_-_BLACK" display="none">
	<g display="inline">
		<g>
			<g>
				<g>
					<path d="M48.7,82.7l2.6,0l0.9-0.1C68.7,81.6,82,68.3,83.1,51.8l0.1-0.9v-3l-0.1-0.5C82,30.8,68.7,17.5,52.2,16.5l-0.9-0.1h-3
						l-0.5,0.1C31.3,17.5,18,30.8,16.9,47.4l-0.1,0.9v3l0.1,0.5C18,68.3,31.3,81.6,47.8,82.7L48.7,82.7z M51.3,80.2V64.5h13.6
						l-0.5,1.3c-2.6,7.6-6.9,12.7-11.9,14L51.3,80.2z M48.7,80.2l-1.3-0.3c-4.9-1.3-9.2-6.4-11.9-14l-0.5-1.3h13.6V80.2z M59.5,79
						l2.5-3.3c2.1-2.8,3.9-6.5,5.2-10.5l0.2-0.7h9.4l-1,1.5c-3.1,4.8-7.4,8.7-12.6,11.1L59.5,79z M40.5,79l-3.7-1.8
						c-5.2-2.5-9.5-6.3-12.6-11.1l-1-1.5h9.4l0.2,0.7c1.3,4,3.1,7.6,5.2,10.5L40.5,79z M78,62h-9.9l0.3-1.2c0.6-2.9,1-5.9,1.1-8.9
						l0-1h11.1l-0.1,1.1c-0.2,3.3-1,6.4-2.3,9.4L78,62z M65.5,62H51.3V50.8h15.7l0,1c-0.1,3.2-0.5,6.3-1.2,9.3L65.5,62z M48.7,62
						H34.5l-0.2-0.8c-0.7-3-1.1-6.1-1.2-9.3l0-1h15.7V62z M31.9,62H22l-0.3-0.6c-1.3-3-2-6.2-2.3-9.4l-0.1-1.1h11.1l0,1
						c0.1,3.1,0.5,6.1,1.1,8.9L31.9,62z M80.6,48.3H69.5l0-1c-0.1-3.1-0.5-6.1-1.1-8.9l-0.3-1.2H78l0.3,0.6c1.3,3,2,6.2,2.3,9.4
						L80.6,48.3z M66.9,48.3H51.3V37.2h14.3l0.2,0.8c0.7,3,1.1,6.1,1.2,9.3L66.9,48.3z M48.7,48.3H33.1l0-1c0.1-3.2,0.5-6.3,1.2-9.3
						l0.2-0.8h14.3V48.3z M30.5,48.3H19.4l0.1-1.1c0.2-3.3,1-6.4,2.3-9.4l0.3-0.6h9.9l-0.3,1.2c-0.6,2.9-1,5.9-1.1,8.9L30.5,48.3z
						 M76.8,34.6h-9.4l-0.2-0.7c-1.3-4-3.1-7.6-5.2-10.5l-2.5-3.3l3.7,1.8c5.2,2.5,9.5,6.3,12.6,11.1L76.8,34.6z M64.8,34.6H51.3
						V18.9l1.3,0.3c4.9,1.3,9.2,6.4,11.9,14L64.8,34.6z M48.7,34.6H35.2l0.5-1.3c2.6-7.6,6.9-12.7,11.9-14l1.3-0.3V34.6z M32.6,34.6
						h-9.4l1-1.5c3.1-4.8,7.4-8.7,12.6-11.1l3.7-1.8L38,23.4c-2.1,2.8-3.9,6.5-5.2,10.5L32.6,34.6z"/>
				</g>
			</g>
		</g>
	</g>
</g>
<g id="ICONS_-_DARK_PURPLE" display="none">
	<g display="inline">
		<g>
			<g>
				<g>
					<path fill="#4F2556" d="M48.7,82.7l2.6,0l0.9-0.1C68.7,81.6,82,68.3,83.1,51.8l0.1-0.9v-3l-0.1-0.5
						C82,30.8,68.7,17.5,52.2,16.5l-0.9-0.1h-3l-0.5,0.1C31.3,17.5,18,30.8,16.9,47.4l-0.1,0.9v3l0.1,0.5
						C18,68.3,31.3,81.6,47.8,82.7L48.7,82.7z M51.3,80.2V64.5h13.6l-0.5,1.3c-2.6,7.6-6.9,12.7-11.9,14L51.3,80.2z M48.7,80.2
						l-1.3-0.3c-4.9-1.3-9.2-6.4-11.9-14l-0.5-1.3h13.6V80.2z M59.5,79l2.5-3.3c2.1-2.8,3.9-6.5,5.2-10.5l0.2-0.7h9.4l-1,1.5
						c-3.1,4.8-7.4,8.7-12.6,11.1L59.5,79z M40.5,79l-3.7-1.8c-5.2-2.5-9.5-6.3-12.6-11.1l-1-1.5h9.4l0.2,0.7
						c1.3,4,3.1,7.6,5.2,10.5L40.5,79z M78,62h-9.9l0.3-1.2c0.6-2.9,1-5.9,1.1-8.9l0-1h11.1l-0.1,1.1c-0.2,3.3-1,6.4-2.3,9.4L78,62z
						 M65.5,62H51.3V50.8h15.7l0,1c-0.1,3.2-0.5,6.3-1.2,9.3L65.5,62z M48.7,62H34.5l-0.2-0.8c-0.7-3-1.1-6.1-1.2-9.3l0-1h15.7V62z
						 M31.9,62H22l-0.3-0.6c-1.3-3-2-6.2-2.3-9.4l-0.1-1.1h11.1l0,1c0.1,3.1,0.5,6.1,1.1,8.9L31.9,62z M80.6,48.3H69.5l0-1
						c-0.1-3.1-0.5-6.1-1.1-8.9l-0.3-1.2H78l0.3,0.6c1.3,3,2,6.2,2.3,9.4L80.6,48.3z M66.9,48.3H51.3V37.2h14.3l0.2,0.8
						c0.7,3,1.1,6.1,1.2,9.3L66.9,48.3z M48.7,48.3H33.1l0-1c0.1-3.2,0.5-6.3,1.2-9.3l0.2-0.8h14.3V48.3z M30.5,48.3H19.4l0.1-1.1
						c0.2-3.3,1-6.4,2.3-9.4l0.3-0.6h9.9l-0.3,1.2c-0.6,2.9-1,5.9-1.1,8.9L30.5,48.3z M76.8,34.6h-9.4l-0.2-0.7
						c-1.3-4-3.1-7.6-5.2-10.5l-2.5-3.3l3.7,1.8c5.2,2.5,9.5,6.3,12.6,11.1L76.8,34.6z M64.8,34.6H51.3V18.9l1.3,0.3
						c4.9,1.3,9.2,6.4,11.9,14L64.8,34.6z M48.7,34.6H35.2l0.5-1.3c2.6-7.6,6.9-12.7,11.9-14l1.3-0.3V34.6z M32.6,34.6h-9.4l1-1.5
						c3.1-4.8,7.4-8.7,12.6-11.1l3.7-1.8L38,23.4c-2.1,2.8-3.9,6.5-5.2,10.5L32.6,34.6z"/>
				</g>
			</g>
		</g>
	</g>
</g>
<g id="ICONS_-_WARM_GREY" display="none">
	<g display="inline">
		<g>
			<g>
				<g>
					<path fill="#534C63" d="M48.7,82.7l2.6,0l0.9-0.1C68.7,81.6,82,68.3,83.1,51.8l0.1-0.9v-3l-0.1-0.5
						C82,30.8,68.7,17.5,52.2,16.5l-0.9-0.1h-3l-0.5,0.1C31.3,17.5,18,30.8,16.9,47.4l-0.1,0.9v3l0.1,0.5
						C18,68.3,31.3,81.6,47.8,82.7L48.7,82.7z M51.3,80.2V64.5h13.6l-0.5,1.3c-2.6,7.6-6.9,12.7-11.9,14L51.3,80.2z M48.7,80.2
						l-1.3-0.3c-4.9-1.3-9.2-6.4-11.9-14l-0.5-1.3h13.6V80.2z M59.5,79l2.5-3.3c2.1-2.8,3.9-6.5,5.2-10.5l0.2-0.7h9.4l-1,1.5
						c-3.1,4.8-7.4,8.7-12.6,11.1L59.5,79z M40.5,79l-3.7-1.8c-5.2-2.5-9.5-6.3-12.6-11.1l-1-1.5h9.4l0.2,0.7
						c1.3,4,3.1,7.6,5.2,10.5L40.5,79z M78,62h-9.9l0.3-1.2c0.6-2.9,1-5.9,1.1-8.9l0-1h11.1l-0.1,1.1c-0.2,3.3-1,6.4-2.3,9.4L78,62z
						 M65.5,62H51.3V50.8h15.7l0,1c-0.1,3.2-0.5,6.3-1.2,9.3L65.5,62z M48.7,62H34.5l-0.2-0.8c-0.7-3-1.1-6.1-1.2-9.3l0-1h15.7V62z
						 M31.9,62H22l-0.3-0.6c-1.3-3-2-6.2-2.3-9.4l-0.1-1.1h11.1l0,1c0.1,3.1,0.5,6.1,1.1,8.9L31.9,62z M80.6,48.3H69.5l0-1
						c-0.1-3.1-0.5-6.1-1.1-8.9l-0.3-1.2H78l0.3,0.6c1.3,3,2,6.2,2.3,9.4L80.6,48.3z M66.9,48.3H51.3V37.2h14.3l0.2,0.8
						c0.7,3,1.1,6.1,1.2,9.3L66.9,48.3z M48.7,48.3H33.1l0-1c0.1-3.2,0.5-6.3,1.2-9.3l0.2-0.8h14.3V48.3z M30.5,48.3H19.4l0.1-1.1
						c0.2-3.3,1-6.4,2.3-9.4l0.3-0.6h9.9l-0.3,1.2c-0.6,2.9-1,5.9-1.1,8.9L30.5,48.3z M76.8,34.6h-9.4l-0.2-0.7
						c-1.3-4-3.1-7.6-5.2-10.5l-2.5-3.3l3.7,1.8c5.2,2.5,9.5,6.3,12.6,11.1L76.8,34.6z M64.8,34.6H51.3V18.9l1.3,0.3
						c4.9,1.3,9.2,6.4,11.9,14L64.8,34.6z M48.7,34.6H35.2l0.5-1.3c2.6-7.6,6.9-12.7,11.9-14l1.3-0.3V34.6z M32.6,34.6h-9.4l1-1.5
						c3.1-4.8,7.4-8.7,12.6-11.1l3.7-1.8L38,23.4c-2.1,2.8-3.9,6.5-5.2,10.5L32.6,34.6z"/>
				</g>
			</g>
		</g>
	</g>
</g>
<g id="ICONS_-_SKRILL_TEAL" display="none">
	<g display="inline">
		<g>
			<g>
				<g>
					<path fill="#41AEB5" d="M48.7,82.7l2.6,0l0.9-0.1C68.7,81.6,82,68.3,83.1,51.8l0.1-0.9v-3l-0.1-0.5
						C82,30.8,68.7,17.5,52.2,16.5l-0.9-0.1h-3l-0.5,0.1C31.3,17.5,18,30.8,16.9,47.4l-0.1,0.9v3l0.1,0.5
						C18,68.3,31.3,81.6,47.8,82.7L48.7,82.7z M51.3,80.2V64.5h13.6l-0.5,1.3c-2.6,7.6-6.9,12.7-11.9,14L51.3,80.2z M48.7,80.2
						l-1.3-0.3c-4.9-1.3-9.2-6.4-11.9-14l-0.5-1.3h13.6V80.2z M59.5,79l2.5-3.3c2.1-2.8,3.9-6.5,5.2-10.5l0.2-0.7h9.4l-1,1.5
						c-3.1,4.8-7.4,8.7-12.6,11.1L59.5,79z M40.5,79l-3.7-1.8c-5.2-2.5-9.5-6.3-12.6-11.1l-1-1.5h9.4l0.2,0.7
						c1.3,4,3.1,7.6,5.2,10.5L40.5,79z M78,62h-9.9l0.3-1.2c0.6-2.9,1-5.9,1.1-8.9l0-1h11.1l-0.1,1.1c-0.2,3.3-1,6.4-2.3,9.4L78,62z
						 M65.5,62H51.3V50.8h15.7l0,1c-0.1,3.2-0.5,6.3-1.2,9.3L65.5,62z M48.7,62H34.5l-0.2-0.8c-0.7-3-1.1-6.1-1.2-9.3l0-1h15.7V62z
						 M31.9,62H22l-0.3-0.6c-1.3-3-2-6.2-2.3-9.4l-0.1-1.1h11.1l0,1c0.1,3.1,0.5,6.1,1.1,8.9L31.9,62z M80.6,48.3H69.5l0-1
						c-0.1-3.1-0.5-6.1-1.1-8.9l-0.3-1.2H78l0.3,0.6c1.3,3,2,6.2,2.3,9.4L80.6,48.3z M66.9,48.3H51.3V37.2h14.3l0.2,0.8
						c0.7,3,1.1,6.1,1.2,9.3L66.9,48.3z M48.7,48.3H33.1l0-1c0.1-3.2,0.5-6.3,1.2-9.3l0.2-0.8h14.3V48.3z M30.5,48.3H19.4l0.1-1.1
						c0.2-3.3,1-6.4,2.3-9.4l0.3-0.6h9.9l-0.3,1.2c-0.6,2.9-1,5.9-1.1,8.9L30.5,48.3z M76.8,34.6h-9.4l-0.2-0.7
						c-1.3-4-3.1-7.6-5.2-10.5l-2.5-3.3l3.7,1.8c5.2,2.5,9.5,6.3,12.6,11.1L76.8,34.6z M64.8,34.6H51.3V18.9l1.3,0.3
						c4.9,1.3,9.2,6.4,11.9,14L64.8,34.6z M48.7,34.6H35.2l0.5-1.3c2.6-7.6,6.9-12.7,11.9-14l1.3-0.3V34.6z M32.6,34.6h-9.4l1-1.5
						c3.1-4.8,7.4-8.7,12.6-11.1l3.7-1.8L38,23.4c-2.1,2.8-3.9,6.5-5.2,10.5L32.6,34.6z"/>
				</g>
			</g>
		</g>
	</g>
</g>
<g id="ICONS_-_SKRILL_PURPLE">
	<g>
		<g>
			<g>
				<g>
					<path fill="#811E68" d="M48.7,82.7l2.6,0l0.9-0.1C68.7,81.6,82,68.3,83.1,51.8l0.1-0.9v-3l-0.1-0.5
						C82,30.8,68.7,17.5,52.2,16.5l-0.9-0.1h-3l-0.5,0.1C31.3,17.5,18,30.8,16.9,47.4l-0.1,0.9v3l0.1,0.5
						C18,68.3,31.3,81.6,47.8,82.7L48.7,82.7z M51.3,80.2V64.5h13.6l-0.5,1.3c-2.6,7.6-6.9,12.7-11.9,14L51.3,80.2z M48.7,80.2
						l-1.3-0.3c-4.9-1.3-9.2-6.4-11.9-14l-0.5-1.3h13.6V80.2z M59.5,79l2.5-3.3c2.1-2.8,3.9-6.5,5.2-10.5l0.2-0.7h9.4l-1,1.5
						c-3.1,4.8-7.4,8.7-12.6,11.1L59.5,79z M40.5,79l-3.7-1.8c-5.2-2.5-9.5-6.3-12.6-11.1l-1-1.5h9.4l0.2,0.7
						c1.3,4,3.1,7.6,5.2,10.5L40.5,79z M78,62h-9.9l0.3-1.2c0.6-2.9,1-5.9,1.1-8.9l0-1h11.1l-0.1,1.1c-0.2,3.3-1,6.4-2.3,9.4L78,62z
						 M65.5,62H51.3V50.8h15.7l0,1c-0.1,3.2-0.5,6.3-1.2,9.3L65.5,62z M48.7,62H34.5l-0.2-0.8c-0.7-3-1.1-6.1-1.2-9.3l0-1h15.7V62z
						 M31.9,62H22l-0.3-0.6c-1.3-3-2-6.2-2.3-9.4l-0.1-1.1h11.1l0,1c0.1,3.1,0.5,6.1,1.1,8.9L31.9,62z M80.6,48.3H69.5l0-1
						c-0.1-3.1-0.5-6.1-1.1-8.9l-0.3-1.2H78l0.3,0.6c1.3,3,2,6.2,2.3,9.4L80.6,48.3z M66.9,48.3H51.3V37.2h14.3l0.2,0.8
						c0.7,3,1.1,6.1,1.2,9.3L66.9,48.3z M48.7,48.3H33.1l0-1c0.1-3.2,0.5-6.3,1.2-9.3l0.2-0.8h14.3V48.3z M30.5,48.3H19.4l0.1-1.1
						c0.2-3.3,1-6.4,2.3-9.4l0.3-0.6h9.9l-0.3,1.2c-0.6,2.9-1,5.9-1.1,8.9L30.5,48.3z M76.8,34.6h-9.4l-0.2-0.7
						c-1.3-4-3.1-7.6-5.2-10.5l-2.5-3.3l3.7,1.8c5.2,2.5,9.5,6.3,12.6,11.1L76.8,34.6z M64.8,34.6H51.3V18.9l1.3,0.3
						c4.9,1.3,9.2,6.4,11.9,14L64.8,34.6z M48.7,34.6H35.2l0.5-1.3c2.6-7.6,6.9-12.7,11.9-14l1.3-0.3V34.6z M32.6,34.6h-9.4l1-1.5
						c3.1-4.8,7.4-8.7,12.6-11.1l3.7-1.8L38,23.4c-2.1,2.8-3.9,6.5-5.2,10.5L32.6,34.6z"/>
				</g>
			</g>
		</g>
	</g>
</g>
<g id="ICONS_-_WHITE" display="none">
	<g display="inline">
		<g>
			<g>
				<g>
					<path fill="#FFFFFF" d="M48.7,82.7l2.6,0l0.9-0.1C68.7,81.6,82,68.3,83.1,51.8l0.1-0.9v-3l-0.1-0.5
						C82,30.8,68.7,17.5,52.2,16.5l-0.9-0.1h-3l-0.5,0.1C31.3,17.5,18,30.8,16.9,47.4l-0.1,0.9v3l0.1,0.5
						C18,68.3,31.3,81.6,47.8,82.7L48.7,82.7z M51.3,80.2V64.5h13.6l-0.5,1.3c-2.6,7.6-6.9,12.7-11.9,14L51.3,80.2z M48.7,80.2
						l-1.3-0.3c-4.9-1.3-9.2-6.4-11.9-14l-0.5-1.3h13.6V80.2z M59.5,79l2.5-3.3c2.1-2.8,3.9-6.5,5.2-10.5l0.2-0.7h9.4l-1,1.5
						c-3.1,4.8-7.4,8.7-12.6,11.1L59.5,79z M40.5,79l-3.7-1.8c-5.2-2.5-9.5-6.3-12.6-11.1l-1-1.5h9.4l0.2,0.7
						c1.3,4,3.1,7.6,5.2,10.5L40.5,79z M78,62h-9.9l0.3-1.2c0.6-2.9,1-5.9,1.1-8.9l0-1h11.1l-0.1,1.1c-0.2,3.3-1,6.4-2.3,9.4L78,62z
						 M65.5,62H51.3V50.8h15.7l0,1c-0.1,3.2-0.5,6.3-1.2,9.3L65.5,62z M48.7,62H34.5l-0.2-0.8c-0.7-3-1.1-6.1-1.2-9.3l0-1h15.7V62z
						 M31.9,62H22l-0.3-0.6c-1.3-3-2-6.2-2.3-9.4l-0.1-1.1h11.1l0,1c0.1,3.1,0.5,6.1,1.1,8.9L31.9,62z M80.6,48.3H69.5l0-1
						c-0.1-3.1-0.5-6.1-1.1-8.9l-0.3-1.2H78l0.3,0.6c1.3,3,2,6.2,2.3,9.4L80.6,48.3z M66.9,48.3H51.3V37.2h14.3l0.2,0.8
						c0.7,3,1.1,6.1,1.2,9.3L66.9,48.3z M48.7,48.3H33.1l0-1c0.1-3.2,0.5-6.3,1.2-9.3l0.2-0.8h14.3V48.3z M30.5,48.3H19.4l0.1-1.1
						c0.2-3.3,1-6.4,2.3-9.4l0.3-0.6h9.9l-0.3,1.2c-0.6,2.9-1,5.9-1.1,8.9L30.5,48.3z M76.8,34.6h-9.4l-0.2-0.7
						c-1.3-4-3.1-7.6-5.2-10.5l-2.5-3.3l3.7,1.8c5.2,2.5,9.5,6.3,12.6,11.1L76.8,34.6z M64.8,34.6H51.3V18.9l1.3,0.3
						c4.9,1.3,9.2,6.4,11.9,14L64.8,34.6z M48.7,34.6H35.2l0.5-1.3c2.6-7.6,6.9-12.7,11.9-14l1.3-0.3V34.6z M32.6,34.6h-9.4l1-1.5
						c3.1-4.8,7.4-8.7,12.6-11.1l3.7-1.8L38,23.4c-2.1,2.8-3.9,6.5-5.2,10.5L32.6,34.6z"/>
				</g>
			</g>
		</g>
	</g>
</g>
<g id="LABELS">
</g>
</svg>
