<?xml version="1.0" encoding="utf-8"?>
<!-- Generator: Adobe Illustrator 18.1.1, SVG Export Plug-In . SVG Version: 6.00 Build 0)  -->
<svg version="1.1" xmlns="http://www.w3.org/2000/svg" xmlns:xlink="http://www.w3.org/1999/xlink" x="0px" y="0px"
	 viewBox="0 0 100 100" enable-background="new 0 0 100 100" xml:space="preserve">
<g id="GUIDES">
</g>
<g id="ICONS_-_BLACK" display="none">
	<g display="inline">
		<g>
			<g>
				<path d="M44.4,48.2c-1.8,0-3.4,0.7-4.5,2l-0.3,0.3l-0.3-0.3c-1.1-1.3-2.8-2-4.5-2c-3.2,0-6.7,2.4-6.7,6.8c0,5.6,3.4,7.9,7,10.2
					c1.3,0.8,2.6,1.7,3.8,2.8l0.8,0.7l0.8-0.7c1.2-1.1,2.5-1.9,3.8-2.8c3.6-2.4,7-4.6,7-10.2C51.1,50.5,47.6,48.2,44.4,48.2z
					 M42.8,63.3c-1,0.7-2,1.3-3,2.1l-0.2,0.2l-0.2-0.2c-1-0.8-2-1.5-3-2.1c-3.3-2.2-5.9-3.9-5.9-8.3c0-2.9,2.3-4.5,4.4-4.5
					c1.7,0,3.1,1,3.6,2.6l0.3,0.9l0,0c0.1,0.5,0.5,0.8,1,0.8c0.5,0,0.9-0.3,0.9-0.8l0,0l0.2-0.9c0.5-1.6,1.9-2.6,3.6-2.6
					c2.1,0,4.4,1.6,4.4,4.5C48.8,59.3,46.1,61.1,42.8,63.3z"/>
				<path d="M77.4,18.2L48.7,9.1c-1.6-0.5-3.3-0.4-4.8,0.4c-1.5,0.8-2.6,2.1-3.1,3.7l-1.1,3.6l-3-0.5c-3.4-0.6-6.7,1.8-7.2,5.2
					l-0.6,3.6h-4.4c-3.5,0-6.3,2.8-6.3,6.3v49.9c0,3.5,2.8,6.3,6.3,6.3h30.1c3,0,5.4-2,6.1-4.8l20.8-56.7
					C82.6,22.8,80.7,19.3,77.4,18.2z M58.3,81.4c0,0.2,0,0.5-0.1,0.7l0,0.1c-0.4,1.7-1.8,2.9-3.6,2.9H24.5c-2,0-3.7-1.7-3.7-3.7
					V31.5c0-2,1.7-3.7,3.7-3.7h30.1c2,0,3.7,1.7,3.7,3.7V81.4z M54.6,25.2H31.5L32,22c0.3-2,2.2-3.4,4.2-3.1L66,23.7
					c1,0.2,1.8,0.7,2.4,1.5C69,26,69.2,27,69,27.9l-8.1,40.8V31.5C60.9,28,58.1,25.2,54.6,25.2z M79.1,25.3l-15,41l7.6-37.9
					c0.3-1.7-0.1-3.3-1.1-4.7c-1-1.4-2.4-2.3-4.1-2.5l-24.1-3.9l1-3.2c0.3-0.9,0.9-1.7,1.8-2.2c0.9-0.5,1.9-0.5,2.8-0.2l28.7,9.1
					C78.6,21.3,79.7,23.4,79.1,25.3z"/>
			</g>
		</g>
	</g>
</g>
<g id="ICONS_-_DARK_PURPLE" display="none">
	<g display="inline">
		<g>
			<g>
				<path fill="#4F2556" d="M44.4,48.2c-1.8,0-3.4,0.7-4.5,2l-0.3,0.3l-0.3-0.3c-1.1-1.3-2.8-2-4.5-2c-3.2,0-6.7,2.4-6.7,6.8
					c0,5.6,3.4,7.9,7,10.2c1.3,0.8,2.6,1.7,3.8,2.8l0.8,0.7l0.8-0.7c1.2-1.1,2.5-1.9,3.8-2.8c3.6-2.4,7-4.6,7-10.2
					C51.1,50.5,47.6,48.2,44.4,48.2z M42.8,63.3c-1,0.7-2,1.3-3,2.1l-0.2,0.2l-0.2-0.2c-1-0.8-2-1.5-3-2.1c-3.3-2.2-5.9-3.9-5.9-8.3
					c0-2.9,2.3-4.5,4.4-4.5c1.7,0,3.1,1,3.6,2.6l0.3,0.9l0,0c0.1,0.5,0.5,0.8,1,0.8c0.5,0,0.9-0.3,0.9-0.8l0,0l0.2-0.9
					c0.5-1.6,1.9-2.6,3.6-2.6c2.1,0,4.4,1.6,4.4,4.5C48.8,59.3,46.1,61.1,42.8,63.3z"/>
				<path fill="#4F2556" d="M77.4,18.2L48.7,9.1c-1.6-0.5-3.3-0.4-4.8,0.4c-1.5,0.8-2.6,2.1-3.1,3.7l-1.1,3.6l-3-0.5
					c-3.4-0.6-6.7,1.8-7.2,5.2l-0.6,3.6h-4.4c-3.5,0-6.3,2.8-6.3,6.3v49.9c0,3.5,2.8,6.3,6.3,6.3h30.1c3,0,5.4-2,6.1-4.8l20.8-56.7
					C82.6,22.8,80.7,19.3,77.4,18.2z M58.3,81.4c0,0.2,0,0.5-0.1,0.7l0,0.1c-0.4,1.7-1.8,2.9-3.6,2.9H24.5c-2,0-3.7-1.7-3.7-3.7
					V31.5c0-2,1.7-3.7,3.7-3.7h30.1c2,0,3.7,1.7,3.7,3.7V81.4z M54.6,25.2H31.5L32,22c0.3-2,2.2-3.4,4.2-3.1L66,23.7
					c1,0.2,1.8,0.7,2.4,1.5C69,26,69.2,27,69,27.9l-8.1,40.8V31.5C60.9,28,58.1,25.2,54.6,25.2z M79.1,25.3l-15,41l7.6-37.9
					c0.3-1.7-0.1-3.3-1.1-4.7c-1-1.4-2.4-2.3-4.1-2.5l-24.1-3.9l1-3.2c0.3-0.9,0.9-1.7,1.8-2.2c0.9-0.5,1.9-0.5,2.8-0.2l28.7,9.1
					C78.6,21.3,79.7,23.4,79.1,25.3z"/>
			</g>
		</g>
	</g>
</g>
<g id="ICONS_-_WARM_GREY" display="none">
	<g display="inline">
		<g>
			<g>
				<path fill="#534C63" d="M44.4,48.2c-1.8,0-3.4,0.7-4.5,2l-0.3,0.3l-0.3-0.3c-1.1-1.3-2.8-2-4.5-2c-3.2,0-6.7,2.4-6.7,6.8
					c0,5.6,3.4,7.9,7,10.2c1.3,0.8,2.6,1.7,3.8,2.8l0.8,0.7l0.8-0.7c1.2-1.1,2.5-1.9,3.8-2.8c3.6-2.4,7-4.6,7-10.2
					C51.1,50.5,47.6,48.2,44.4,48.2z M42.8,63.3c-1,0.7-2,1.3-3,2.1l-0.2,0.2l-0.2-0.2c-1-0.8-2-1.5-3-2.1c-3.3-2.2-5.9-3.9-5.9-8.3
					c0-2.9,2.3-4.5,4.4-4.5c1.7,0,3.1,1,3.6,2.6l0.3,0.9l0,0c0.1,0.5,0.5,0.8,1,0.8c0.5,0,0.9-0.3,0.9-0.8l0,0l0.2-0.9
					c0.5-1.6,1.9-2.6,3.6-2.6c2.1,0,4.4,1.6,4.4,4.5C48.8,59.3,46.1,61.1,42.8,63.3z"/>
				<path fill="#534C63" d="M77.4,18.2L48.7,9.1c-1.6-0.5-3.3-0.4-4.8,0.4c-1.5,0.8-2.6,2.1-3.1,3.7l-1.1,3.6l-3-0.5
					c-3.4-0.6-6.7,1.8-7.2,5.2l-0.6,3.6h-4.4c-3.5,0-6.3,2.8-6.3,6.3v49.9c0,3.5,2.8,6.3,6.3,6.3h30.1c3,0,5.4-2,6.1-4.8l20.8-56.7
					C82.6,22.8,80.7,19.3,77.4,18.2z M58.3,81.4c0,0.2,0,0.5-0.1,0.7l0,0.1c-0.4,1.7-1.8,2.9-3.6,2.9H24.5c-2,0-3.7-1.7-3.7-3.7
					V31.5c0-2,1.7-3.7,3.7-3.7h30.1c2,0,3.7,1.7,3.7,3.7V81.4z M54.6,25.2H31.5L32,22c0.3-2,2.2-3.4,4.2-3.1L66,23.7
					c1,0.2,1.8,0.7,2.4,1.5C69,26,69.2,27,69,27.9l-8.1,40.8V31.5C60.9,28,58.1,25.2,54.6,25.2z M79.1,25.3l-15,41l7.6-37.9
					c0.3-1.7-0.1-3.3-1.1-4.7c-1-1.4-2.4-2.3-4.1-2.5l-24.1-3.9l1-3.2c0.3-0.9,0.9-1.7,1.8-2.2c0.9-0.5,1.9-0.5,2.8-0.2l28.7,9.1
					C78.6,21.3,79.7,23.4,79.1,25.3z"/>
			</g>
		</g>
	</g>
</g>
<g id="ICONS_-_SKRILL_TEAL" display="none">
	<g display="inline">
		<g>
			<g>
				<path fill="#41AEB5" d="M44.4,48.2c-1.8,0-3.4,0.7-4.5,2l-0.3,0.3l-0.3-0.3c-1.1-1.3-2.8-2-4.5-2c-3.2,0-6.7,2.4-6.7,6.8
					c0,5.6,3.4,7.9,7,10.2c1.3,0.8,2.6,1.7,3.8,2.8l0.8,0.7l0.8-0.7c1.2-1.1,2.5-1.9,3.8-2.8c3.6-2.4,7-4.6,7-10.2
					C51.1,50.5,47.6,48.2,44.4,48.2z M42.8,63.3c-1,0.7-2,1.3-3,2.1l-0.2,0.2l-0.2-0.2c-1-0.8-2-1.5-3-2.1c-3.3-2.2-5.9-3.9-5.9-8.3
					c0-2.9,2.3-4.5,4.4-4.5c1.7,0,3.1,1,3.6,2.6l0.3,0.9l0,0c0.1,0.5,0.5,0.8,1,0.8c0.5,0,0.9-0.3,0.9-0.8l0,0l0.2-0.9
					c0.5-1.6,1.9-2.6,3.6-2.6c2.1,0,4.4,1.6,4.4,4.5C48.8,59.3,46.1,61.1,42.8,63.3z"/>
				<path fill="#41AEB5" d="M77.4,18.2L48.7,9.1c-1.6-0.5-3.3-0.4-4.8,0.4c-1.5,0.8-2.6,2.1-3.1,3.7l-1.1,3.6l-3-0.5
					c-3.4-0.6-6.7,1.8-7.2,5.2l-0.6,3.6h-4.4c-3.5,0-6.3,2.8-6.3,6.3v49.9c0,3.5,2.8,6.3,6.3,6.3h30.1c3,0,5.4-2,6.1-4.8l20.8-56.7
					C82.6,22.8,80.7,19.3,77.4,18.2z M58.3,81.4c0,0.2,0,0.5-0.1,0.7l0,0.1c-0.4,1.7-1.8,2.9-3.6,2.9H24.5c-2,0-3.7-1.7-3.7-3.7
					V31.5c0-2,1.7-3.7,3.7-3.7h30.1c2,0,3.7,1.7,3.7,3.7V81.4z M54.6,25.2H31.5L32,22c0.3-2,2.2-3.4,4.2-3.1L66,23.7
					c1,0.2,1.8,0.7,2.4,1.5C69,26,69.2,27,69,27.9l-8.1,40.8V31.5C60.9,28,58.1,25.2,54.6,25.2z M79.1,25.3l-15,41l7.6-37.9
					c0.3-1.7-0.1-3.3-1.1-4.7c-1-1.4-2.4-2.3-4.1-2.5l-24.1-3.9l1-3.2c0.3-0.9,0.9-1.7,1.8-2.2c0.9-0.5,1.9-0.5,2.8-0.2l28.7,9.1
					C78.6,21.3,79.7,23.4,79.1,25.3z"/>
			</g>
		</g>
	</g>
</g>
<g id="ICONS_-_SKRILL_PURPLE">
	<g>
		<g>
			<g>
				<path fill="#811E68" d="M44.4,48.2c-1.8,0-3.4,0.7-4.5,2l-0.3,0.3l-0.3-0.3c-1.1-1.3-2.8-2-4.5-2c-3.2,0-6.7,2.4-6.7,6.8
					c0,5.6,3.4,7.9,7,10.2c1.3,0.8,2.6,1.7,3.8,2.8l0.8,0.7l0.8-0.7c1.2-1.1,2.5-1.9,3.8-2.8c3.6-2.4,7-4.6,7-10.2
					C51.1,50.5,47.6,48.2,44.4,48.2z M42.8,63.3c-1,0.7-2,1.3-3,2.1l-0.2,0.2l-0.2-0.2c-1-0.8-2-1.5-3-2.1c-3.3-2.2-5.9-3.9-5.9-8.3
					c0-2.9,2.3-4.5,4.4-4.5c1.7,0,3.1,1,3.6,2.6l0.3,0.9l0,0c0.1,0.5,0.5,0.8,1,0.8c0.5,0,0.9-0.3,0.9-0.8l0,0l0.2-0.9
					c0.5-1.6,1.9-2.6,3.6-2.6c2.1,0,4.4,1.6,4.4,4.5C48.8,59.3,46.1,61.1,42.8,63.3z"/>
				<path fill="#811E68" d="M77.4,18.2L48.7,9.1c-1.6-0.5-3.3-0.4-4.8,0.4c-1.5,0.8-2.6,2.1-3.1,3.7l-1.1,3.6l-3-0.5
					c-3.4-0.6-6.7,1.8-7.2,5.2l-0.6,3.6h-4.4c-3.5,0-6.3,2.8-6.3,6.3v49.9c0,3.5,2.8,6.3,6.3,6.3h30.1c3,0,5.4-2,6.1-4.8l20.8-56.7
					C82.6,22.8,80.7,19.3,77.4,18.2z M58.3,81.4c0,0.2,0,0.5-0.1,0.7l0,0.1c-0.4,1.7-1.8,2.9-3.6,2.9H24.5c-2,0-3.7-1.7-3.7-3.7
					V31.5c0-2,1.7-3.7,3.7-3.7h30.1c2,0,3.7,1.7,3.7,3.7V81.4z M54.6,25.2H31.5L32,22c0.3-2,2.2-3.4,4.2-3.1L66,23.7
					c1,0.2,1.8,0.7,2.4,1.5C69,26,69.2,27,69,27.9l-8.1,40.8V31.5C60.9,28,58.1,25.2,54.6,25.2z M79.1,25.3l-15,41l7.6-37.9
					c0.3-1.7-0.1-3.3-1.1-4.7c-1-1.4-2.4-2.3-4.1-2.5l-24.1-3.9l1-3.2c0.3-0.9,0.9-1.7,1.8-2.2c0.9-0.5,1.9-0.5,2.8-0.2l28.7,9.1
					C78.6,21.3,79.7,23.4,79.1,25.3z"/>
			</g>
		</g>
	</g>
</g>
<g id="ICONS_-_WHITE" display="none">
	<g display="inline">
		<g>
			<g>
				<path fill="#FFFFFF" d="M44.4,48.2c-1.8,0-3.4,0.7-4.5,2l-0.3,0.3l-0.3-0.3c-1.1-1.3-2.8-2-4.5-2c-3.2,0-6.7,2.4-6.7,6.8
					c0,5.6,3.4,7.9,7,10.2c1.3,0.8,2.6,1.7,3.8,2.8l0.8,0.7l0.8-0.7c1.2-1.1,2.5-1.9,3.8-2.8c3.6-2.4,7-4.6,7-10.2
					C51.1,50.5,47.6,48.2,44.4,48.2z M42.8,63.3c-1,0.7-2,1.3-3,2.1l-0.2,0.2l-0.2-0.2c-1-0.8-2-1.5-3-2.1c-3.3-2.2-5.9-3.9-5.9-8.3
					c0-2.9,2.3-4.5,4.4-4.5c1.7,0,3.1,1,3.6,2.6l0.3,0.9l0,0c0.1,0.5,0.5,0.8,1,0.8c0.5,0,0.9-0.3,0.9-0.8l0,0l0.2-0.9
					c0.5-1.6,1.9-2.6,3.6-2.6c2.1,0,4.4,1.6,4.4,4.5C48.8,59.3,46.1,61.1,42.8,63.3z"/>
				<path fill="#FFFFFF" d="M77.4,18.2L48.7,9.1c-1.6-0.5-3.3-0.4-4.8,0.4c-1.5,0.8-2.6,2.1-3.1,3.7l-1.1,3.6l-3-0.5
					c-3.4-0.6-6.7,1.8-7.2,5.2l-0.6,3.6h-4.4c-3.5,0-6.3,2.8-6.3,6.3v49.9c0,3.5,2.8,6.3,6.3,6.3h30.1c3,0,5.4-2,6.1-4.8l20.8-56.7
					C82.6,22.8,80.7,19.3,77.4,18.2z M58.3,81.4c0,0.2,0,0.5-0.1,0.7l0,0.1c-0.4,1.7-1.8,2.9-3.6,2.9H24.5c-2,0-3.7-1.7-3.7-3.7
					V31.5c0-2,1.7-3.7,3.7-3.7h30.1c2,0,3.7,1.7,3.7,3.7V81.4z M54.6,25.2H31.5L32,22c0.3-2,2.2-3.4,4.2-3.1L66,23.7
					c1,0.2,1.8,0.7,2.4,1.5C69,26,69.2,27,69,27.9l-8.1,40.8V31.5C60.9,28,58.1,25.2,54.6,25.2z M79.1,25.3l-15,41l7.6-37.9
					c0.3-1.7-0.1-3.3-1.1-4.7c-1-1.4-2.4-2.3-4.1-2.5l-24.1-3.9l1-3.2c0.3-0.9,0.9-1.7,1.8-2.2c0.9-0.5,1.9-0.5,2.8-0.2l28.7,9.1
					C78.6,21.3,79.7,23.4,79.1,25.3z"/>
			</g>
		</g>
	</g>
</g>
<g id="LABELS">
</g>
</svg>
