<?xml version="1.0" encoding="utf-8"?>
<!-- Generator: Adobe Illustrator 18.1.1, SVG Export Plug-In . SVG Version: 6.00 Build 0)  -->
<svg version="1.1" xmlns="http://www.w3.org/2000/svg" xmlns:xlink="http://www.w3.org/1999/xlink" x="0px" y="0px"
	 viewBox="0 0 100 100" enable-background="new 0 0 100 100" xml:space="preserve">
<g id="GUIDES">
</g>
<g id="ICONS_-_BLACK" display="none">
	<g display="inline">
		<g>
			<g>
				<path d="M42.9,61.7H24.3c-0.7,0-1.3,0.6-1.3,1.3s0.6,1.3,1.3,1.3h18.6c0.7,0,1.3-0.6,1.3-1.3S43.6,61.7,42.9,61.7z"/>
				<path d="M86.6,25.2l-53.9-8.7c-0.4-0.1-0.8-0.1-1.2-0.1c-3.7,0-6.9,2.7-7.5,6.4l-1.3,8l-0.4,0.3h-2.7c-4.2,0-7.6,3.4-7.6,7.6
					v28.8c0,4.2,3.4,7.6,7.6,7.6h54.6c3.6,0,6.7-2.6,7.4-6.2l0.3-0.3c3.2-0.5,5.8-3,6.3-6.3l4.6-28.5c0.3-2-0.2-4-1.3-5.6
					C90.3,26.6,88.6,25.5,86.6,25.2z M79.3,67.5c0,2.8-2.3,5.1-5.1,5.1H19.6c-2.8,0-5.1-2.3-5.1-5.1V45.1l0.4-0.4h64l0.4,0.4V67.5z
					 M79.3,41.9l-0.4,0.4h-64l-0.4-0.4v-3.2c0-2.8,2.3-5.1,5.1-5.1h54.6c2.8,0,5.1,2.3,5.1,5.1V41.9z M90.4,33.5L85.8,62
					c-0.3,1.9-1.7,3.5-3.5,4.1l-0.5-0.4V38.7c0-4.2-3.4-7.6-7.6-7.6H25.6l-0.4-0.5l1.2-7.5c0.4-2.5,2.5-4.3,5-4.3
					c0.3,0,0.5,0,0.8,0.1l53.9,8.7c1.3,0.2,2.5,0.9,3.3,2.1S90.6,32.1,90.4,33.5z"/>
			</g>
		</g>
	</g>
</g>
<g id="ICONS_-_DARK_PURPLE" display="none">
	<g display="inline">
		<g>
			<g>
				<path fill="#4F2556" d="M42.9,61.7H24.3c-0.7,0-1.3,0.6-1.3,1.3s0.6,1.3,1.3,1.3h18.6c0.7,0,1.3-0.6,1.3-1.3
					S43.6,61.7,42.9,61.7z"/>
				<path fill="#4F2556" d="M86.6,25.2l-53.9-8.7c-0.4-0.1-0.8-0.1-1.2-0.1c-3.7,0-6.9,2.7-7.5,6.4l-1.3,8l-0.4,0.3h-2.7
					c-4.2,0-7.6,3.4-7.6,7.6v28.8c0,4.2,3.4,7.6,7.6,7.6h54.6c3.6,0,6.7-2.6,7.4-6.2l0.3-0.3c3.2-0.5,5.8-3,6.3-6.3l4.6-28.5
					c0.3-2-0.2-4-1.3-5.6C90.3,26.6,88.6,25.5,86.6,25.2z M79.3,67.5c0,2.8-2.3,5.1-5.1,5.1H19.6c-2.8,0-5.1-2.3-5.1-5.1V45.1
					l0.4-0.4h64l0.4,0.4V67.5z M79.3,41.9l-0.4,0.4h-64l-0.4-0.4v-3.2c0-2.8,2.3-5.1,5.1-5.1h54.6c2.8,0,5.1,2.3,5.1,5.1V41.9z
					 M90.4,33.5L85.8,62c-0.3,1.9-1.7,3.5-3.5,4.1l-0.5-0.4V38.7c0-4.2-3.4-7.6-7.6-7.6H25.6l-0.4-0.5l1.2-7.5
					c0.4-2.5,2.5-4.3,5-4.3c0.3,0,0.5,0,0.8,0.1l53.9,8.7c1.3,0.2,2.5,0.9,3.3,2.1S90.6,32.1,90.4,33.5z"/>
			</g>
		</g>
	</g>
</g>
<g id="ICONS_-_WARM_GREY" display="none">
	<g display="inline">
		<g>
			<g>
				<path fill="#534C63" d="M42.9,61.7H24.3c-0.7,0-1.3,0.6-1.3,1.3s0.6,1.3,1.3,1.3h18.6c0.7,0,1.3-0.6,1.3-1.3
					S43.6,61.7,42.9,61.7z"/>
				<path fill="#534C63" d="M86.6,25.2l-53.9-8.7c-0.4-0.1-0.8-0.1-1.2-0.1c-3.7,0-6.9,2.7-7.5,6.4l-1.3,8l-0.4,0.3h-2.7
					c-4.2,0-7.6,3.4-7.6,7.6v28.8c0,4.2,3.4,7.6,7.6,7.6h54.6c3.6,0,6.7-2.6,7.4-6.2l0.3-0.3c3.2-0.5,5.8-3,6.3-6.3l4.6-28.5
					c0.3-2-0.2-4-1.3-5.6C90.3,26.6,88.6,25.5,86.6,25.2z M79.3,67.5c0,2.8-2.3,5.1-5.1,5.1H19.6c-2.8,0-5.1-2.3-5.1-5.1V45.1
					l0.4-0.4h64l0.4,0.4V67.5z M79.3,41.9l-0.4,0.4h-64l-0.4-0.4v-3.2c0-2.8,2.3-5.1,5.1-5.1h54.6c2.8,0,5.1,2.3,5.1,5.1V41.9z
					 M90.4,33.5L85.8,62c-0.3,1.9-1.7,3.5-3.5,4.1l-0.5-0.4V38.7c0-4.2-3.4-7.6-7.6-7.6H25.6l-0.4-0.5l1.2-7.5
					c0.4-2.5,2.5-4.3,5-4.3c0.3,0,0.5,0,0.8,0.1l53.9,8.7c1.3,0.2,2.5,0.9,3.3,2.1S90.6,32.1,90.4,33.5z"/>
			</g>
		</g>
	</g>
</g>
<g id="ICONS_-_SKRILL_TEAL" display="none">
	<g display="inline">
		<g>
			<g>
				<path fill="#41AEB5" d="M42.9,61.7H24.3c-0.7,0-1.3,0.6-1.3,1.3s0.6,1.3,1.3,1.3h18.6c0.7,0,1.3-0.6,1.3-1.3
					S43.6,61.7,42.9,61.7z"/>
				<path fill="#41AEB5" d="M86.6,25.2l-53.9-8.7c-0.4-0.1-0.8-0.1-1.2-0.1c-3.7,0-6.9,2.7-7.5,6.4l-1.3,8l-0.4,0.3h-2.7
					c-4.2,0-7.6,3.4-7.6,7.6v28.8c0,4.2,3.4,7.6,7.6,7.6h54.6c3.6,0,6.7-2.6,7.4-6.2l0.3-0.3c3.2-0.5,5.8-3,6.3-6.3l4.6-28.5
					c0.3-2-0.2-4-1.3-5.6C90.3,26.6,88.6,25.5,86.6,25.2z M79.3,67.5c0,2.8-2.3,5.1-5.1,5.1H19.6c-2.8,0-5.1-2.3-5.1-5.1V45.1
					l0.4-0.4h64l0.4,0.4V67.5z M79.3,41.9l-0.4,0.4h-64l-0.4-0.4v-3.2c0-2.8,2.3-5.1,5.1-5.1h54.6c2.8,0,5.1,2.3,5.1,5.1V41.9z
					 M90.4,33.5L85.8,62c-0.3,1.9-1.7,3.5-3.5,4.1l-0.5-0.4V38.7c0-4.2-3.4-7.6-7.6-7.6H25.6l-0.4-0.5l1.2-7.5
					c0.4-2.5,2.5-4.3,5-4.3c0.3,0,0.5,0,0.8,0.1l53.9,8.7c1.3,0.2,2.5,0.9,3.3,2.1S90.6,32.1,90.4,33.5z"/>
			</g>
		</g>
	</g>
</g>
<g id="ICONS_-_SKRILL_PURPLE">
	<g>
		<g>
			<g>
				<path fill="#811E68" d="M42.9,61.7H24.3c-0.7,0-1.3,0.6-1.3,1.3s0.6,1.3,1.3,1.3h18.6c0.7,0,1.3-0.6,1.3-1.3
					S43.6,61.7,42.9,61.7z"/>
				<path fill="#811E68" d="M86.6,25.2l-53.9-8.7c-0.4-0.1-0.8-0.1-1.2-0.1c-3.7,0-6.9,2.7-7.5,6.4l-1.3,8l-0.4,0.3h-2.7
					c-4.2,0-7.6,3.4-7.6,7.6v28.8c0,4.2,3.4,7.6,7.6,7.6h54.6c3.6,0,6.7-2.6,7.4-6.2l0.3-0.3c3.2-0.5,5.8-3,6.3-6.3l4.6-28.5
					c0.3-2-0.2-4-1.3-5.6C90.3,26.6,88.6,25.5,86.6,25.2z M79.3,67.5c0,2.8-2.3,5.1-5.1,5.1H19.6c-2.8,0-5.1-2.3-5.1-5.1V45.1
					l0.4-0.4h64l0.4,0.4V67.5z M79.3,41.9l-0.4,0.4h-64l-0.4-0.4v-3.2c0-2.8,2.3-5.1,5.1-5.1h54.6c2.8,0,5.1,2.3,5.1,5.1V41.9z
					 M90.4,33.5L85.8,62c-0.3,1.9-1.7,3.5-3.5,4.1l-0.5-0.4V38.7c0-4.2-3.4-7.6-7.6-7.6H25.6l-0.4-0.5l1.2-7.5
					c0.4-2.5,2.5-4.3,5-4.3c0.3,0,0.5,0,0.8,0.1l53.9,8.7c1.3,0.2,2.5,0.9,3.3,2.1S90.6,32.1,90.4,33.5z"/>
			</g>
		</g>
	</g>
</g>
<g id="ICONS_-_WHITE" display="none">
	<g display="inline">
		<g>
			<g>
				<path fill="#FFFFFF" d="M42.9,61.7H24.3c-0.7,0-1.3,0.6-1.3,1.3s0.6,1.3,1.3,1.3h18.6c0.7,0,1.3-0.6,1.3-1.3
					S43.6,61.7,42.9,61.7z"/>
				<path fill="#FFFFFF" d="M86.6,25.2l-53.9-8.7c-0.4-0.1-0.8-0.1-1.2-0.1c-3.7,0-6.9,2.7-7.5,6.4l-1.3,8l-0.4,0.3h-2.7
					c-4.2,0-7.6,3.4-7.6,7.6v28.8c0,4.2,3.4,7.6,7.6,7.6h54.6c3.6,0,6.7-2.6,7.4-6.2l0.3-0.3c3.2-0.5,5.8-3,6.3-6.3l4.6-28.5
					c0.3-2-0.2-4-1.3-5.6C90.3,26.6,88.6,25.5,86.6,25.2z M79.3,67.5c0,2.8-2.3,5.1-5.1,5.1H19.6c-2.8,0-5.1-2.3-5.1-5.1V45.1
					l0.4-0.4h64l0.4,0.4V67.5z M79.3,41.9l-0.4,0.4h-64l-0.4-0.4v-3.2c0-2.8,2.3-5.1,5.1-5.1h54.6c2.8,0,5.1,2.3,5.1,5.1V41.9z
					 M90.4,33.5L85.8,62c-0.3,1.9-1.7,3.5-3.5,4.1l-0.5-0.4V38.7c0-4.2-3.4-7.6-7.6-7.6H25.6l-0.4-0.5l1.2-7.5
					c0.4-2.5,2.5-4.3,5-4.3c0.3,0,0.5,0,0.8,0.1l53.9,8.7c1.3,0.2,2.5,0.9,3.3,2.1S90.6,32.1,90.4,33.5z"/>
			</g>
		</g>
	</g>
</g>
<g id="LABELS">
</g>
</svg>
