<?xml version="1.0" encoding="utf-8"?>
<!-- Generator: Adobe Illustrator 18.1.1, SVG Export Plug-In . SVG Version: 6.00 Build 0)  -->
<svg version="1.1" xmlns="http://www.w3.org/2000/svg" xmlns:xlink="http://www.w3.org/1999/xlink" x="0px" y="0px"
	 viewBox="0 0 100 100" enable-background="new 0 0 100 100" xml:space="preserve">
<g id="GUIDES">
</g>
<g id="ICONS_-_BLACK" display="none">
	<g display="inline">
		<g>
			<g>
				<path d="M15.5,55.8c-0.2,0.2-0.4,0.6-0.4,0.9s0.1,0.7,0.4,0.9l29.7,29.9c0.2,0.2,0.6,0.4,0.9,0.4c0.3,0,0.7-0.1,0.9-0.4
					l36.1-36.3c0.2-0.2,0.4-0.6,0.4-0.9l-0.3-18.1c0-0.3-0.1-0.6-0.4-0.9L71.3,19.8c-0.2-0.2-0.5-0.4-0.9-0.4l-18.1-0.3
					c-0.4,0-0.6,0.2-0.8,0.4l-8,8l-0.2,0l-0.3-0.2C35.8,22.4,31.5,17,32.2,15.1l0.1-0.1c0.3-0.4,1.1-0.6,2.1-0.6
					c2.7,0,7.1,1.4,11.5,3.6l0,0l1.6-1.5l-0.1-0.6c-5.1-2.6-9.8-4-13-4c-2.1,0-3.6,0.7-4.4,1.9c-1.2,1.9-0.2,4.7,2.8,8.1
					c2,2.3,4.8,4.7,8.1,7l0.5,0.4l0,0.2L15.5,55.8z M43.9,30.9l0.2,0l0.4,0.2c5.7,3.4,11.5,5.7,15.6,6l0.4,0.1l0.1,0.1l0.1,0.3
					c0.3,1.1,0.9,2,1.7,2.8c1.2,1.2,2.9,1.9,4.6,1.9c1.8,0,3.4-0.7,4.6-1.9c2.6-2.6,2.6-6.8,0-9.3c-1.2-1.2-2.9-1.9-4.6-1.9
					c-1.8,0-3.4,0.7-4.6,1.9c-0.8,0.8-1.4,1.8-1.7,3l-0.2,0.5l-0.2,0.1l-0.4-0.1c-3.4-0.4-8.4-2.3-13.3-5.2L45.9,29l0-0.2l7.1-7.1
					L70,22l10.7,10.8l0.2,17L46.2,84.7l-0.2,0L18.3,56.8l0-0.2L43.9,30.9z M65.9,32.6l0-0.7l0.2-0.1l0.6-0.1c0.1,0,0.2,0,0.3,0h0
					c1.1,0,2.1,0.4,2.9,1.2c1.6,1.6,1.6,4.2,0,5.8c-0.7,0.7-1.8,1.2-2.9,1.2c-1.1,0-2.1-0.4-2.9-1.2c-0.2-0.2-0.4-0.5-0.6-0.9
					l-0.3-0.6l0.1-0.2l0.5-0.2c0.8-0.3,1.4-0.8,1.8-1.4C66,34.5,66.1,33.6,65.9,32.6z"/>
				<path d="M40.8,50.1c0.7,0.7,1.4,1.2,2.1,1.5c0.6,0.2,1.2,0.4,1.8,0.4c0.2,0,0.3,0,0.5,0c0.7-0.1,1.5-0.3,2.2-0.7
					c0.7-0.4,1.3-0.9,2-1.5c0.5-0.5,1-1.1,1.4-1.7c0.4-0.7,0.7-1.4,0.8-2.1c0.1-0.8,0-1.5-0.2-2.3c-0.3-0.8-0.8-1.5-1.5-2.3
					c-0.7-0.7-1.4-1.2-2.2-1.5c-0.8-0.3-1.5-0.4-2.3-0.3c-0.7,0.1-1.5,0.3-2.2,0.7c-0.7,0.4-1.3,0.9-1.9,1.5
					c-0.6,0.6-1.1,1.2-1.5,1.8c-0.4,0.7-0.7,1.4-0.8,2.1c-0.1,0.8,0,1.5,0.3,2.3C39.6,48.6,40.1,49.4,40.8,50.1z M41.6,44.6
					c0.3-0.5,0.7-1,1.2-1.5c0.5-0.5,1-0.9,1.5-1.1c0.5-0.3,0.9-0.4,1.4-0.5c0.1,0,0.2,0,0.3,0c0.1,0,0.3,0,0.4,0
					c0.2,0,0.4,0.1,0.6,0.2c0.5,0.2,0.9,0.5,1.4,1c0.5,0.5,0.9,1,1,1.5c0.2,0.4,0.2,0.8,0.1,1.2c-0.1,0.4-0.2,0.8-0.5,1.3
					c-0.3,0.5-0.7,0.9-1.1,1.4c-0.5,0.5-1,0.9-1.5,1.2c-0.5,0.3-0.9,0.4-1.4,0.5c-0.2,0-0.4,0-0.5,0c-0.1,0-0.1,0-0.2,0
					c-0.2,0-0.4-0.1-0.6-0.2c-0.5-0.2-0.9-0.5-1.4-1c-0.5-0.5-0.9-1-1-1.4c-0.2-0.4-0.2-0.8-0.2-1.2C41.2,45.5,41.4,45.1,41.6,44.6z
					"/>
				<path d="M50.9,61.4c-0.7-0.7-1.4-1.2-2.2-1.5c-0.8-0.3-1.5-0.4-2.3-0.3c-0.7,0.1-1.5,0.3-2.2,0.7c-0.7,0.4-1.3,0.9-1.9,1.5
					c-0.6,0.6-1.1,1.2-1.5,1.8c-0.4,0.7-0.7,1.4-0.8,2.1c-0.1,0.8,0,1.5,0.3,2.3c0.3,0.7,0.8,1.5,1.5,2.2c0.7,0.7,1.4,1.2,2.1,1.5
					c0.6,0.2,1.2,0.4,1.8,0.4h0c0.2,0,0.3,0,0.5,0c0.7-0.1,1.5-0.3,2.2-0.7c0.7-0.4,1.3-0.9,2-1.5c0.5-0.5,1-1.1,1.4-1.7
					c0.4-0.7,0.7-1.4,0.8-2.1c0.1-0.8,0-1.5-0.2-2.3C52.1,62.9,51.6,62.2,50.9,61.4z M50.5,65.7c-0.1,0.4-0.2,0.8-0.5,1.3
					c-0.3,0.5-0.7,0.9-1.1,1.4c-0.5,0.5-1,0.9-1.5,1.2c-0.5,0.3-0.9,0.4-1.4,0.5c-0.2,0-0.3,0-0.5,0c-0.1,0-0.1,0-0.2,0
					c-0.2,0-0.4-0.1-0.6-0.2c-0.5-0.2-0.9-0.5-1.4-1c-0.5-0.5-0.9-1-1-1.4c-0.2-0.4-0.2-0.8-0.2-1.2c0.1-0.4,0.2-0.8,0.5-1.3
					c0.3-0.5,0.7-1,1.2-1.5c0.5-0.5,1-0.9,1.5-1.1c0.5-0.3,0.9-0.4,1.4-0.5c0.1,0,0.2,0,0.3,0c0.3,0,0.7,0.1,1,0.2
					c0.5,0.2,0.9,0.5,1.4,1c0.5,0.5,0.9,1,1,1.5C50.6,64.9,50.6,65.3,50.5,65.7z"/>
				<path d="M32,58c0.1,0.6-0.3,1.1-0.8,1.2l28.3-4.5c-0.6,0.1-1.2-0.3-1.3-0.9c-0.1-0.6,0.3-1.1,0.9-1.2l-28.3,4.5
					C31.5,57,32,57.4,32,58z"/>
				<path d="M60.4,53.4c-0.1-0.6-0.6-1-1.2-0.9l0.3,2.1C60.1,54.5,60.5,54,60.4,53.4z"/>
				<path d="M58.2,53.8c0.1,0.6,0.7,1,1.3,0.9l-0.3-2.1C58.6,52.6,58.1,53.2,58.2,53.8z"/>
				<path d="M31.2,59.2l-0.3-2.1c-0.6,0.1-1,0.6-1,1.2C30,58.9,30.6,59.3,31.2,59.2z"/>
				<path d="M32,58c-0.1-0.6-0.6-1-1.1-0.9l0.3,2.1C31.8,59.1,32.1,58.5,32,58z"/>
				<path d="M47.9,17.7c-0.3,0.7-1.3,0.7-1.9,0.4c-0.7-0.3-0.8-0.9-0.4-1.6c0.3-0.7,1.3-0.8,1.9-0.5C48.1,16.3,48.2,17,47.9,17.7z"
					/>
			</g>
		</g>
	</g>
</g>
<g id="ICONS_-_DARK_PURPLE" display="none">
	<g display="inline">
		<g>
			<g>
				<path fill="#4F2556" d="M15.5,55.8c-0.2,0.2-0.4,0.6-0.4,0.9s0.1,0.7,0.4,0.9l29.7,29.9c0.2,0.2,0.6,0.4,0.9,0.4
					c0.3,0,0.7-0.1,0.9-0.4l36.1-36.3c0.2-0.2,0.4-0.6,0.4-0.9l-0.3-18.1c0-0.3-0.1-0.6-0.4-0.9L71.3,19.8c-0.2-0.2-0.5-0.4-0.9-0.4
					l-18.1-0.3c-0.4,0-0.6,0.2-0.8,0.4l-8,8l-0.2,0l-0.3-0.2C35.8,22.4,31.5,17,32.2,15.1l0.1-0.1c0.3-0.4,1.1-0.6,2.1-0.6
					c2.7,0,7.1,1.4,11.5,3.6l0,0l1.6-1.5l-0.1-0.6c-5.1-2.6-9.8-4-13-4c-2.1,0-3.6,0.7-4.4,1.9c-1.2,1.9-0.2,4.7,2.8,8.1
					c2,2.3,4.8,4.7,8.1,7l0.5,0.4l0,0.2L15.5,55.8z M43.9,30.9l0.2,0l0.4,0.2c5.7,3.4,11.5,5.7,15.6,6l0.4,0.1l0.1,0.1l0.1,0.3
					c0.3,1.1,0.9,2,1.7,2.8c1.2,1.2,2.9,1.9,4.6,1.9c1.8,0,3.4-0.7,4.6-1.9c2.6-2.6,2.6-6.8,0-9.3c-1.2-1.2-2.9-1.9-4.6-1.9
					c-1.8,0-3.4,0.7-4.6,1.9c-0.8,0.8-1.4,1.8-1.7,3l-0.2,0.5l-0.2,0.1l-0.4-0.1c-3.4-0.4-8.4-2.3-13.3-5.2L45.9,29l0-0.2l7.1-7.1
					L70,22l10.7,10.8l0.2,17L46.2,84.7l-0.2,0L18.3,56.8l0-0.2L43.9,30.9z M65.9,32.6l0-0.7l0.2-0.1l0.6-0.1c0.1,0,0.2,0,0.3,0h0
					c1.1,0,2.1,0.4,2.9,1.2c1.6,1.6,1.6,4.2,0,5.8c-0.7,0.7-1.8,1.2-2.9,1.2c-1.1,0-2.1-0.4-2.9-1.2c-0.2-0.2-0.4-0.5-0.6-0.9
					l-0.3-0.6l0.1-0.2l0.5-0.2c0.8-0.3,1.4-0.8,1.8-1.4C66,34.5,66.1,33.6,65.9,32.6z"/>
				<path fill="#4F2556" d="M40.8,50.1c0.7,0.7,1.4,1.2,2.1,1.5c0.6,0.2,1.2,0.4,1.8,0.4c0.2,0,0.3,0,0.5,0c0.7-0.1,1.5-0.3,2.2-0.7
					c0.7-0.4,1.3-0.9,2-1.5c0.5-0.5,1-1.1,1.4-1.7c0.4-0.7,0.7-1.4,0.8-2.1c0.1-0.8,0-1.5-0.2-2.3c-0.3-0.8-0.8-1.5-1.5-2.3
					c-0.7-0.7-1.4-1.2-2.2-1.5c-0.8-0.3-1.5-0.4-2.3-0.3c-0.7,0.1-1.5,0.3-2.2,0.7c-0.7,0.4-1.3,0.9-1.9,1.5
					c-0.6,0.6-1.1,1.2-1.5,1.8c-0.4,0.7-0.7,1.4-0.8,2.1c-0.1,0.8,0,1.5,0.3,2.3C39.6,48.6,40.1,49.4,40.8,50.1z M41.6,44.6
					c0.3-0.5,0.7-1,1.2-1.5c0.5-0.5,1-0.9,1.5-1.1c0.5-0.3,0.9-0.4,1.4-0.5c0.1,0,0.2,0,0.3,0c0.1,0,0.3,0,0.4,0
					c0.2,0,0.4,0.1,0.6,0.2c0.5,0.2,0.9,0.5,1.4,1c0.5,0.5,0.9,1,1,1.5c0.2,0.4,0.2,0.8,0.1,1.2c-0.1,0.4-0.2,0.8-0.5,1.3
					c-0.3,0.5-0.7,0.9-1.1,1.4c-0.5,0.5-1,0.9-1.5,1.2c-0.5,0.3-0.9,0.4-1.4,0.5c-0.2,0-0.4,0-0.5,0c-0.1,0-0.1,0-0.2,0
					c-0.2,0-0.4-0.1-0.6-0.2c-0.5-0.2-0.9-0.5-1.4-1c-0.5-0.5-0.9-1-1-1.4c-0.2-0.4-0.2-0.8-0.2-1.2C41.2,45.5,41.4,45.1,41.6,44.6z
					"/>
				<path fill="#4F2556" d="M50.9,61.4c-0.7-0.7-1.4-1.2-2.2-1.5c-0.8-0.3-1.5-0.4-2.3-0.3c-0.7,0.1-1.5,0.3-2.2,0.7
					c-0.7,0.4-1.3,0.9-1.9,1.5c-0.6,0.6-1.1,1.2-1.5,1.8c-0.4,0.7-0.7,1.4-0.8,2.1c-0.1,0.8,0,1.5,0.3,2.3c0.3,0.7,0.8,1.5,1.5,2.2
					c0.7,0.7,1.4,1.2,2.1,1.5c0.6,0.2,1.2,0.4,1.8,0.4h0c0.2,0,0.3,0,0.5,0c0.7-0.1,1.5-0.3,2.2-0.7c0.7-0.4,1.3-0.9,2-1.5
					c0.5-0.5,1-1.1,1.4-1.7c0.4-0.7,0.7-1.4,0.8-2.1c0.1-0.8,0-1.5-0.2-2.3C52.1,62.9,51.6,62.2,50.9,61.4z M50.5,65.7
					c-0.1,0.4-0.2,0.8-0.5,1.3c-0.3,0.5-0.7,0.9-1.1,1.4c-0.5,0.5-1,0.9-1.5,1.2c-0.5,0.3-0.9,0.4-1.4,0.5c-0.2,0-0.3,0-0.5,0
					c-0.1,0-0.1,0-0.2,0c-0.2,0-0.4-0.1-0.6-0.2c-0.5-0.2-0.9-0.5-1.4-1c-0.5-0.5-0.9-1-1-1.4c-0.2-0.4-0.2-0.8-0.2-1.2
					c0.1-0.4,0.2-0.8,0.5-1.3c0.3-0.5,0.7-1,1.2-1.5c0.5-0.5,1-0.9,1.5-1.1c0.5-0.3,0.9-0.4,1.4-0.5c0.1,0,0.2,0,0.3,0
					c0.3,0,0.7,0.1,1,0.2c0.5,0.2,0.9,0.5,1.4,1c0.5,0.5,0.9,1,1,1.5C50.6,64.9,50.6,65.3,50.5,65.7z"/>
				<path fill="#4F2556" d="M32,58c0.1,0.6-0.3,1.1-0.8,1.2l28.3-4.5c-0.6,0.1-1.2-0.3-1.3-0.9c-0.1-0.6,0.3-1.1,0.9-1.2l-28.3,4.5
					C31.5,57,32,57.4,32,58z"/>
				<path fill="#4F2556" d="M60.4,53.4c-0.1-0.6-0.6-1-1.2-0.9l0.3,2.1C60.1,54.5,60.5,54,60.4,53.4z"/>
				<path fill="#4F2556" d="M58.2,53.8c0.1,0.6,0.7,1,1.3,0.9l-0.3-2.1C58.6,52.6,58.1,53.2,58.2,53.8z"/>
				<path fill="#4F2556" d="M31.2,59.2l-0.3-2.1c-0.6,0.1-1,0.6-1,1.2C30,58.9,30.6,59.3,31.2,59.2z"/>
				<path fill="#4F2556" d="M32,58c-0.1-0.6-0.6-1-1.1-0.9l0.3,2.1C31.8,59.1,32.1,58.5,32,58z"/>
				<path fill="#4F2556" d="M47.9,17.7c-0.3,0.7-1.3,0.7-1.9,0.4c-0.7-0.3-0.8-0.9-0.4-1.6c0.3-0.7,1.3-0.8,1.9-0.5
					C48.1,16.3,48.2,17,47.9,17.7z"/>
			</g>
		</g>
	</g>
</g>
<g id="ICONS_-_WARM_GREY" display="none">
	<g display="inline">
		<g>
			<g>
				<path fill="#534C63" d="M15.5,55.8c-0.2,0.2-0.4,0.6-0.4,0.9s0.1,0.7,0.4,0.9l29.7,29.9c0.2,0.2,0.6,0.4,0.9,0.4
					c0.3,0,0.7-0.1,0.9-0.4l36.1-36.3c0.2-0.2,0.4-0.6,0.4-0.9l-0.3-18.1c0-0.3-0.1-0.6-0.4-0.9L71.3,19.8c-0.2-0.2-0.5-0.4-0.9-0.4
					l-18.1-0.3c-0.4,0-0.6,0.2-0.8,0.4l-8,8l-0.2,0l-0.3-0.2C35.8,22.4,31.5,17,32.2,15.1l0.1-0.1c0.3-0.4,1.1-0.6,2.1-0.6
					c2.7,0,7.1,1.4,11.5,3.6l0,0l1.6-1.5l-0.1-0.6c-5.1-2.6-9.8-4-13-4c-2.1,0-3.6,0.7-4.4,1.9c-1.2,1.9-0.2,4.7,2.8,8.1
					c2,2.3,4.8,4.7,8.1,7l0.5,0.4l0,0.2L15.5,55.8z M43.9,30.9l0.2,0l0.4,0.2c5.7,3.4,11.5,5.7,15.6,6l0.4,0.1l0.1,0.1l0.1,0.3
					c0.3,1.1,0.9,2,1.7,2.8c1.2,1.2,2.9,1.9,4.6,1.9c1.8,0,3.4-0.7,4.6-1.9c2.6-2.6,2.6-6.8,0-9.3c-1.2-1.2-2.9-1.9-4.6-1.9
					c-1.8,0-3.4,0.7-4.6,1.9c-0.8,0.8-1.4,1.8-1.7,3l-0.2,0.5l-0.2,0.1l-0.4-0.1c-3.4-0.4-8.4-2.3-13.3-5.2L45.9,29l0-0.2l7.1-7.1
					L70,22l10.7,10.8l0.2,17L46.2,84.7l-0.2,0L18.3,56.8l0-0.2L43.9,30.9z M65.9,32.6l0-0.7l0.2-0.1l0.6-0.1c0.1,0,0.2,0,0.3,0h0
					c1.1,0,2.1,0.4,2.9,1.2c1.6,1.6,1.6,4.2,0,5.8c-0.7,0.7-1.8,1.2-2.9,1.2c-1.1,0-2.1-0.4-2.9-1.2c-0.2-0.2-0.4-0.5-0.6-0.9
					l-0.3-0.6l0.1-0.2l0.5-0.2c0.8-0.3,1.4-0.8,1.8-1.4C66,34.5,66.1,33.6,65.9,32.6z"/>
				<path fill="#534C63" d="M40.8,50.1c0.7,0.7,1.4,1.2,2.1,1.5c0.6,0.2,1.2,0.4,1.8,0.4c0.2,0,0.3,0,0.5,0c0.7-0.1,1.5-0.3,2.2-0.7
					c0.7-0.4,1.3-0.9,2-1.5c0.5-0.5,1-1.1,1.4-1.7c0.4-0.7,0.7-1.4,0.8-2.1c0.1-0.8,0-1.5-0.2-2.3c-0.3-0.8-0.8-1.5-1.5-2.3
					c-0.7-0.7-1.4-1.2-2.2-1.5c-0.8-0.3-1.5-0.4-2.3-0.3c-0.7,0.1-1.5,0.3-2.2,0.7c-0.7,0.4-1.3,0.9-1.9,1.5
					c-0.6,0.6-1.1,1.2-1.5,1.8c-0.4,0.7-0.7,1.4-0.8,2.1c-0.1,0.8,0,1.5,0.3,2.3C39.6,48.6,40.1,49.4,40.8,50.1z M41.6,44.6
					c0.3-0.5,0.7-1,1.2-1.5c0.5-0.5,1-0.9,1.5-1.1c0.5-0.3,0.9-0.4,1.4-0.5c0.1,0,0.2,0,0.3,0c0.1,0,0.3,0,0.4,0
					c0.2,0,0.4,0.1,0.6,0.2c0.5,0.2,0.9,0.5,1.4,1c0.5,0.5,0.9,1,1,1.5c0.2,0.4,0.2,0.8,0.1,1.2c-0.1,0.4-0.2,0.8-0.5,1.3
					c-0.3,0.5-0.7,0.9-1.1,1.4c-0.5,0.5-1,0.9-1.5,1.2c-0.5,0.3-0.9,0.4-1.4,0.5c-0.2,0-0.4,0-0.5,0c-0.1,0-0.1,0-0.2,0
					c-0.2,0-0.4-0.1-0.6-0.2c-0.5-0.2-0.9-0.5-1.4-1c-0.5-0.5-0.9-1-1-1.4c-0.2-0.4-0.2-0.8-0.2-1.2C41.2,45.5,41.4,45.1,41.6,44.6z
					"/>
				<path fill="#534C63" d="M50.9,61.4c-0.7-0.7-1.4-1.2-2.2-1.5c-0.8-0.3-1.5-0.4-2.3-0.3c-0.7,0.1-1.5,0.3-2.2,0.7
					c-0.7,0.4-1.3,0.9-1.9,1.5c-0.6,0.6-1.1,1.2-1.5,1.8c-0.4,0.7-0.7,1.4-0.8,2.1c-0.1,0.8,0,1.5,0.3,2.3c0.3,0.7,0.8,1.5,1.5,2.2
					c0.7,0.7,1.4,1.2,2.1,1.5c0.6,0.2,1.2,0.4,1.8,0.4h0c0.2,0,0.3,0,0.5,0c0.7-0.1,1.5-0.3,2.2-0.7c0.7-0.4,1.3-0.9,2-1.5
					c0.5-0.5,1-1.1,1.4-1.7c0.4-0.7,0.7-1.4,0.8-2.1c0.1-0.8,0-1.5-0.2-2.3C52.1,62.9,51.6,62.2,50.9,61.4z M50.5,65.7
					c-0.1,0.4-0.2,0.8-0.5,1.3c-0.3,0.5-0.7,0.9-1.1,1.4c-0.5,0.5-1,0.9-1.5,1.2c-0.5,0.3-0.9,0.4-1.4,0.5c-0.2,0-0.3,0-0.5,0
					c-0.1,0-0.1,0-0.2,0c-0.2,0-0.4-0.1-0.6-0.2c-0.5-0.2-0.9-0.5-1.4-1c-0.5-0.5-0.9-1-1-1.4c-0.2-0.4-0.2-0.8-0.2-1.2
					c0.1-0.4,0.2-0.8,0.5-1.3c0.3-0.5,0.7-1,1.2-1.5c0.5-0.5,1-0.9,1.5-1.1c0.5-0.3,0.9-0.4,1.4-0.5c0.1,0,0.2,0,0.3,0
					c0.3,0,0.7,0.1,1,0.2c0.5,0.2,0.9,0.5,1.4,1c0.5,0.5,0.9,1,1,1.5C50.6,64.9,50.6,65.3,50.5,65.7z"/>
				<path fill="#534C63" d="M32,58c0.1,0.6-0.3,1.1-0.8,1.2l28.3-4.5c-0.6,0.1-1.2-0.3-1.3-0.9c-0.1-0.6,0.3-1.1,0.9-1.2l-28.3,4.5
					C31.5,57,32,57.4,32,58z"/>
				<path fill="#534C63" d="M60.4,53.4c-0.1-0.6-0.6-1-1.2-0.9l0.3,2.1C60.1,54.5,60.5,54,60.4,53.4z"/>
				<path fill="#534C63" d="M58.2,53.8c0.1,0.6,0.7,1,1.3,0.9l-0.3-2.1C58.6,52.6,58.1,53.2,58.2,53.8z"/>
				<path fill="#534C63" d="M31.2,59.2l-0.3-2.1c-0.6,0.1-1,0.6-1,1.2C30,58.9,30.6,59.3,31.2,59.2z"/>
				<path fill="#534C63" d="M32,58c-0.1-0.6-0.6-1-1.1-0.9l0.3,2.1C31.8,59.1,32.1,58.5,32,58z"/>
				<path fill="#534C63" d="M47.9,17.7c-0.3,0.7-1.3,0.7-1.9,0.4c-0.7-0.3-0.8-0.9-0.4-1.6c0.3-0.7,1.3-0.8,1.9-0.5
					C48.1,16.3,48.2,17,47.9,17.7z"/>
			</g>
		</g>
	</g>
</g>
<g id="ICONS_-_SKRILL_TEAL" display="none">
	<g display="inline">
		<g>
			<g>
				<path fill="#41AEB5" d="M15.5,55.8c-0.2,0.2-0.4,0.6-0.4,0.9s0.1,0.7,0.4,0.9l29.7,29.9c0.2,0.2,0.6,0.4,0.9,0.4
					c0.3,0,0.7-0.1,0.9-0.4l36.1-36.3c0.2-0.2,0.4-0.6,0.4-0.9l-0.3-18.1c0-0.3-0.1-0.6-0.4-0.9L71.3,19.8c-0.2-0.2-0.5-0.4-0.9-0.4
					l-18.1-0.3c-0.4,0-0.6,0.2-0.8,0.4l-8,8l-0.2,0l-0.3-0.2C35.8,22.4,31.5,17,32.2,15.1l0.1-0.1c0.3-0.4,1.1-0.6,2.1-0.6
					c2.7,0,7.1,1.4,11.5,3.6l0,0l1.6-1.5l-0.1-0.6c-5.1-2.6-9.8-4-13-4c-2.1,0-3.6,0.7-4.4,1.9c-1.2,1.9-0.2,4.7,2.8,8.1
					c2,2.3,4.8,4.7,8.1,7l0.5,0.4l0,0.2L15.5,55.8z M43.9,30.9l0.2,0l0.4,0.2c5.7,3.4,11.5,5.7,15.6,6l0.4,0.1l0.1,0.1l0.1,0.3
					c0.3,1.1,0.9,2,1.7,2.8c1.2,1.2,2.9,1.9,4.6,1.9c1.8,0,3.4-0.7,4.6-1.9c2.6-2.6,2.6-6.8,0-9.3c-1.2-1.2-2.9-1.9-4.6-1.9
					c-1.8,0-3.4,0.7-4.6,1.9c-0.8,0.8-1.4,1.8-1.7,3l-0.2,0.5l-0.2,0.1l-0.4-0.1c-3.4-0.4-8.4-2.3-13.3-5.2L45.9,29l0-0.2l7.1-7.1
					L70,22l10.7,10.8l0.2,17L46.2,84.7l-0.2,0L18.3,56.8l0-0.2L43.9,30.9z M65.9,32.6l0-0.7l0.2-0.1l0.6-0.1c0.1,0,0.2,0,0.3,0h0
					c1.1,0,2.1,0.4,2.9,1.2c1.6,1.6,1.6,4.2,0,5.8c-0.7,0.7-1.8,1.2-2.9,1.2c-1.1,0-2.1-0.4-2.9-1.2c-0.2-0.2-0.4-0.5-0.6-0.9
					l-0.3-0.6l0.1-0.2l0.5-0.2c0.8-0.3,1.4-0.8,1.8-1.4C66,34.5,66.1,33.6,65.9,32.6z"/>
				<path fill="#41AEB5" d="M40.8,50.1c0.7,0.7,1.4,1.2,2.1,1.5c0.6,0.2,1.2,0.4,1.8,0.4c0.2,0,0.3,0,0.5,0c0.7-0.1,1.5-0.3,2.2-0.7
					c0.7-0.4,1.3-0.9,2-1.5c0.5-0.5,1-1.1,1.4-1.7c0.4-0.7,0.7-1.4,0.8-2.1c0.1-0.8,0-1.5-0.2-2.3c-0.3-0.8-0.8-1.5-1.5-2.3
					c-0.7-0.7-1.4-1.2-2.2-1.5c-0.8-0.3-1.5-0.4-2.3-0.3c-0.7,0.1-1.5,0.3-2.2,0.7c-0.7,0.4-1.3,0.9-1.9,1.5
					c-0.6,0.6-1.1,1.2-1.5,1.8c-0.4,0.7-0.7,1.4-0.8,2.1c-0.1,0.8,0,1.5,0.3,2.3C39.6,48.6,40.1,49.4,40.8,50.1z M41.6,44.6
					c0.3-0.5,0.7-1,1.2-1.5c0.5-0.5,1-0.9,1.5-1.1c0.5-0.3,0.9-0.4,1.4-0.5c0.1,0,0.2,0,0.3,0c0.1,0,0.3,0,0.4,0
					c0.2,0,0.4,0.1,0.6,0.2c0.5,0.2,0.9,0.5,1.4,1c0.5,0.5,0.9,1,1,1.5c0.2,0.4,0.2,0.8,0.1,1.2c-0.1,0.4-0.2,0.8-0.5,1.3
					c-0.3,0.5-0.7,0.9-1.1,1.4c-0.5,0.5-1,0.9-1.5,1.2c-0.5,0.3-0.9,0.4-1.4,0.5c-0.2,0-0.4,0-0.5,0c-0.1,0-0.1,0-0.2,0
					c-0.2,0-0.4-0.1-0.6-0.2c-0.5-0.2-0.9-0.5-1.4-1c-0.5-0.5-0.9-1-1-1.4c-0.2-0.4-0.2-0.8-0.2-1.2C41.2,45.5,41.4,45.1,41.6,44.6z
					"/>
				<path fill="#41AEB5" d="M50.9,61.4c-0.7-0.7-1.4-1.2-2.2-1.5c-0.8-0.3-1.5-0.4-2.3-0.3c-0.7,0.1-1.5,0.3-2.2,0.7
					c-0.7,0.4-1.3,0.9-1.9,1.5c-0.6,0.6-1.1,1.2-1.5,1.8c-0.4,0.7-0.7,1.4-0.8,2.1c-0.1,0.8,0,1.5,0.3,2.3c0.3,0.7,0.8,1.5,1.5,2.2
					c0.7,0.7,1.4,1.2,2.1,1.5c0.6,0.2,1.2,0.4,1.8,0.4h0c0.2,0,0.3,0,0.5,0c0.7-0.1,1.5-0.3,2.2-0.7c0.7-0.4,1.3-0.9,2-1.5
					c0.5-0.5,1-1.1,1.4-1.7c0.4-0.7,0.7-1.4,0.8-2.1c0.1-0.8,0-1.5-0.2-2.3C52.1,62.9,51.6,62.2,50.9,61.4z M50.5,65.7
					c-0.1,0.4-0.2,0.8-0.5,1.3c-0.3,0.5-0.7,0.9-1.1,1.4c-0.5,0.5-1,0.9-1.5,1.2c-0.5,0.3-0.9,0.4-1.4,0.5c-0.2,0-0.3,0-0.5,0
					c-0.1,0-0.1,0-0.2,0c-0.2,0-0.4-0.1-0.6-0.2c-0.5-0.2-0.9-0.5-1.4-1c-0.5-0.5-0.9-1-1-1.4c-0.2-0.4-0.2-0.8-0.2-1.2
					c0.1-0.4,0.2-0.8,0.5-1.3c0.3-0.5,0.7-1,1.2-1.5c0.5-0.5,1-0.9,1.5-1.1c0.5-0.3,0.9-0.4,1.4-0.5c0.1,0,0.2,0,0.3,0
					c0.3,0,0.7,0.1,1,0.2c0.5,0.2,0.9,0.5,1.4,1c0.5,0.5,0.9,1,1,1.5C50.6,64.9,50.6,65.3,50.5,65.7z"/>
				<path fill="#41AEB5" d="M32,58c0.1,0.6-0.3,1.1-0.8,1.2l28.3-4.5c-0.6,0.1-1.2-0.3-1.3-0.9c-0.1-0.6,0.3-1.1,0.9-1.2l-28.3,4.5
					C31.5,57,32,57.4,32,58z"/>
				<path fill="#41AEB5" d="M60.4,53.4c-0.1-0.6-0.6-1-1.2-0.9l0.3,2.1C60.1,54.5,60.5,54,60.4,53.4z"/>
				<path fill="#41AEB5" d="M58.2,53.8c0.1,0.6,0.7,1,1.3,0.9l-0.3-2.1C58.6,52.6,58.1,53.2,58.2,53.8z"/>
				<path fill="#41AEB5" d="M31.2,59.2l-0.3-2.1c-0.6,0.1-1,0.6-1,1.2C30,58.9,30.6,59.3,31.2,59.2z"/>
				<path fill="#41AEB5" d="M32,58c-0.1-0.6-0.6-1-1.1-0.9l0.3,2.1C31.8,59.1,32.1,58.5,32,58z"/>
				<path fill="#41AEB5" d="M47.9,17.7c-0.3,0.7-1.3,0.7-1.9,0.4c-0.7-0.3-0.8-0.9-0.4-1.6c0.3-0.7,1.3-0.8,1.9-0.5
					C48.1,16.3,48.2,17,47.9,17.7z"/>
			</g>
		</g>
	</g>
</g>
<g id="ICONS_-_SKRILL_PURPLE">
	<g>
		<g>
			<g>
				<path fill="#811E68" d="M15.5,55.8c-0.2,0.2-0.4,0.6-0.4,0.9s0.1,0.7,0.4,0.9l29.7,29.9c0.2,0.2,0.6,0.4,0.9,0.4
					c0.3,0,0.7-0.1,0.9-0.4l36.1-36.3c0.2-0.2,0.4-0.6,0.4-0.9l-0.3-18.1c0-0.3-0.1-0.6-0.4-0.9L71.3,19.8c-0.2-0.2-0.5-0.4-0.9-0.4
					l-18.1-0.3c-0.4,0-0.6,0.2-0.8,0.4l-8,8l-0.2,0l-0.3-0.2C35.8,22.4,31.5,17,32.2,15.1l0.1-0.1c0.3-0.4,1.1-0.6,2.1-0.6
					c2.7,0,7.1,1.4,11.5,3.6l0,0l1.6-1.5l-0.1-0.6c-5.1-2.6-9.8-4-13-4c-2.1,0-3.6,0.7-4.4,1.9c-1.2,1.9-0.2,4.7,2.8,8.1
					c2,2.3,4.8,4.7,8.1,7l0.5,0.4l0,0.2L15.5,55.8z M43.9,30.9l0.2,0l0.4,0.2c5.7,3.4,11.5,5.7,15.6,6l0.4,0.1l0.1,0.1l0.1,0.3
					c0.3,1.1,0.9,2,1.7,2.8c1.2,1.2,2.9,1.9,4.6,1.9c1.8,0,3.4-0.7,4.6-1.9c2.6-2.6,2.6-6.8,0-9.3c-1.2-1.2-2.9-1.9-4.6-1.9
					c-1.8,0-3.4,0.7-4.6,1.9c-0.8,0.8-1.4,1.8-1.7,3l-0.2,0.5l-0.2,0.1l-0.4-0.1c-3.4-0.4-8.4-2.3-13.3-5.2L45.9,29l0-0.2l7.1-7.1
					L70,22l10.7,10.8l0.2,17L46.2,84.7l-0.2,0L18.3,56.8l0-0.2L43.9,30.9z M65.9,32.6l0-0.7l0.2-0.1l0.6-0.1c0.1,0,0.2,0,0.3,0h0
					c1.1,0,2.1,0.4,2.9,1.2c1.6,1.6,1.6,4.2,0,5.8c-0.7,0.7-1.8,1.2-2.9,1.2c-1.1,0-2.1-0.4-2.9-1.2c-0.2-0.2-0.4-0.5-0.6-0.9
					l-0.3-0.6l0.1-0.2l0.5-0.2c0.8-0.3,1.4-0.8,1.8-1.4C66,34.5,66.1,33.6,65.9,32.6z"/>
				<path fill="#811E68" d="M40.8,50.1c0.7,0.7,1.4,1.2,2.1,1.5c0.6,0.2,1.2,0.4,1.8,0.4c0.2,0,0.3,0,0.5,0c0.7-0.1,1.5-0.3,2.2-0.7
					c0.7-0.4,1.3-0.9,2-1.5c0.5-0.5,1-1.1,1.4-1.7c0.4-0.7,0.7-1.4,0.8-2.1c0.1-0.8,0-1.5-0.2-2.3c-0.3-0.8-0.8-1.5-1.5-2.3
					c-0.7-0.7-1.4-1.2-2.2-1.5c-0.8-0.3-1.5-0.4-2.3-0.3c-0.7,0.1-1.5,0.3-2.2,0.7c-0.7,0.4-1.3,0.9-1.9,1.5
					c-0.6,0.6-1.1,1.2-1.5,1.8c-0.4,0.7-0.7,1.4-0.8,2.1c-0.1,0.8,0,1.5,0.3,2.3C39.6,48.6,40.1,49.4,40.8,50.1z M41.6,44.6
					c0.3-0.5,0.7-1,1.2-1.5c0.5-0.5,1-0.9,1.5-1.1c0.5-0.3,0.9-0.4,1.4-0.5c0.1,0,0.2,0,0.3,0c0.1,0,0.3,0,0.4,0
					c0.2,0,0.4,0.1,0.6,0.2c0.5,0.2,0.9,0.5,1.4,1c0.5,0.5,0.9,1,1,1.5c0.2,0.4,0.2,0.8,0.1,1.2c-0.1,0.4-0.2,0.8-0.5,1.3
					c-0.3,0.5-0.7,0.9-1.1,1.4c-0.5,0.5-1,0.9-1.5,1.2c-0.5,0.3-0.9,0.4-1.4,0.5c-0.2,0-0.4,0-0.5,0c-0.1,0-0.1,0-0.2,0
					c-0.2,0-0.4-0.1-0.6-0.2c-0.5-0.2-0.9-0.5-1.4-1c-0.5-0.5-0.9-1-1-1.4c-0.2-0.4-0.2-0.8-0.2-1.2C41.2,45.5,41.4,45.1,41.6,44.6z
					"/>
				<path fill="#811E68" d="M50.9,61.4c-0.7-0.7-1.4-1.2-2.2-1.5c-0.8-0.3-1.5-0.4-2.3-0.3c-0.7,0.1-1.5,0.3-2.2,0.7
					c-0.7,0.4-1.3,0.9-1.9,1.5c-0.6,0.6-1.1,1.2-1.5,1.8c-0.4,0.7-0.7,1.4-0.8,2.1c-0.1,0.8,0,1.5,0.3,2.3c0.3,0.7,0.8,1.5,1.5,2.2
					c0.7,0.7,1.4,1.2,2.1,1.5c0.6,0.2,1.2,0.4,1.8,0.4h0c0.2,0,0.3,0,0.5,0c0.7-0.1,1.5-0.3,2.2-0.7c0.7-0.4,1.3-0.9,2-1.5
					c0.5-0.5,1-1.1,1.4-1.7c0.4-0.7,0.7-1.4,0.8-2.1c0.1-0.8,0-1.5-0.2-2.3C52.1,62.9,51.6,62.2,50.9,61.4z M50.5,65.7
					c-0.1,0.4-0.2,0.8-0.5,1.3c-0.3,0.5-0.7,0.9-1.1,1.4c-0.5,0.5-1,0.9-1.5,1.2c-0.5,0.3-0.9,0.4-1.4,0.5c-0.2,0-0.3,0-0.5,0
					c-0.1,0-0.1,0-0.2,0c-0.2,0-0.4-0.1-0.6-0.2c-0.5-0.2-0.9-0.5-1.4-1c-0.5-0.5-0.9-1-1-1.4c-0.2-0.4-0.2-0.8-0.2-1.2
					c0.1-0.4,0.2-0.8,0.5-1.3c0.3-0.5,0.7-1,1.2-1.5c0.5-0.5,1-0.9,1.5-1.1c0.5-0.3,0.9-0.4,1.4-0.5c0.1,0,0.2,0,0.3,0
					c0.3,0,0.7,0.1,1,0.2c0.5,0.2,0.9,0.5,1.4,1c0.5,0.5,0.9,1,1,1.5C50.6,64.9,50.6,65.3,50.5,65.7z"/>
				<path fill="#811E68" d="M32,58c0.1,0.6-0.3,1.1-0.8,1.2l28.3-4.5c-0.6,0.1-1.2-0.3-1.3-0.9c-0.1-0.6,0.3-1.1,0.9-1.2l-28.3,4.5
					C31.5,57,32,57.4,32,58z"/>
				<path fill="#811E68" d="M60.4,53.4c-0.1-0.6-0.6-1-1.2-0.9l0.3,2.1C60.1,54.5,60.5,54,60.4,53.4z"/>
				<path fill="#811E68" d="M58.2,53.8c0.1,0.6,0.7,1,1.3,0.9l-0.3-2.1C58.6,52.6,58.1,53.2,58.2,53.8z"/>
				<path fill="#811E68" d="M31.2,59.2l-0.3-2.1c-0.6,0.1-1,0.6-1,1.2C30,58.9,30.6,59.3,31.2,59.2z"/>
				<path fill="#811E68" d="M32,58c-0.1-0.6-0.6-1-1.1-0.9l0.3,2.1C31.8,59.1,32.1,58.5,32,58z"/>
				<path fill="#811E68" d="M47.9,17.7c-0.3,0.7-1.3,0.7-1.9,0.4c-0.7-0.3-0.8-0.9-0.4-1.6c0.3-0.7,1.3-0.8,1.9-0.5
					C48.1,16.3,48.2,17,47.9,17.7z"/>
			</g>
		</g>
	</g>
</g>
<g id="ICONS_-_WHITE" display="none">
	<g display="inline">
		<g>
			<g>
				<path fill="#FFFFFF" d="M15.5,55.8c-0.2,0.2-0.4,0.6-0.4,0.9s0.1,0.7,0.4,0.9l29.7,29.9c0.2,0.2,0.6,0.4,0.9,0.4
					c0.3,0,0.7-0.1,0.9-0.4l36.1-36.3c0.2-0.2,0.4-0.6,0.4-0.9l-0.3-18.1c0-0.3-0.1-0.6-0.4-0.9L71.3,19.8c-0.2-0.2-0.5-0.4-0.9-0.4
					l-18.1-0.3c-0.4,0-0.6,0.2-0.8,0.4l-8,8l-0.2,0l-0.3-0.2C35.8,22.4,31.5,17,32.2,15.1l0.1-0.1c0.3-0.4,1.1-0.6,2.1-0.6
					c2.7,0,7.1,1.4,11.5,3.6l0,0l1.6-1.5l-0.1-0.6c-5.1-2.6-9.8-4-13-4c-2.1,0-3.6,0.7-4.4,1.9c-1.2,1.9-0.2,4.7,2.8,8.1
					c2,2.3,4.8,4.7,8.1,7l0.5,0.4l0,0.2L15.5,55.8z M43.9,30.9l0.2,0l0.4,0.2c5.7,3.4,11.5,5.7,15.6,6l0.4,0.1l0.1,0.1l0.1,0.3
					c0.3,1.1,0.9,2,1.7,2.8c1.2,1.2,2.9,1.9,4.6,1.9c1.8,0,3.4-0.7,4.6-1.9c2.6-2.6,2.6-6.8,0-9.3c-1.2-1.2-2.9-1.9-4.6-1.9
					c-1.8,0-3.4,0.7-4.6,1.9c-0.8,0.8-1.4,1.8-1.7,3l-0.2,0.5l-0.2,0.1l-0.4-0.1c-3.4-0.4-8.4-2.3-13.3-5.2L45.9,29l0-0.2l7.1-7.1
					L70,22l10.7,10.8l0.2,17L46.2,84.7l-0.2,0L18.3,56.8l0-0.2L43.9,30.9z M65.9,32.6l0-0.7l0.2-0.1l0.6-0.1c0.1,0,0.2,0,0.3,0h0
					c1.1,0,2.1,0.4,2.9,1.2c1.6,1.6,1.6,4.2,0,5.8c-0.7,0.7-1.8,1.2-2.9,1.2c-1.1,0-2.1-0.4-2.9-1.2c-0.2-0.2-0.4-0.5-0.6-0.9
					l-0.3-0.6l0.1-0.2l0.5-0.2c0.8-0.3,1.4-0.8,1.8-1.4C66,34.5,66.1,33.6,65.9,32.6z"/>
				<path fill="#FFFFFF" d="M40.8,50.1c0.7,0.7,1.4,1.2,2.1,1.5c0.6,0.2,1.2,0.4,1.8,0.4c0.2,0,0.3,0,0.5,0c0.7-0.1,1.5-0.3,2.2-0.7
					c0.7-0.4,1.3-0.9,2-1.5c0.5-0.5,1-1.1,1.4-1.7c0.4-0.7,0.7-1.4,0.8-2.1c0.1-0.8,0-1.5-0.2-2.3c-0.3-0.8-0.8-1.5-1.5-2.3
					c-0.7-0.7-1.4-1.2-2.2-1.5c-0.8-0.3-1.5-0.4-2.3-0.3c-0.7,0.1-1.5,0.3-2.2,0.7c-0.7,0.4-1.3,0.9-1.9,1.5
					c-0.6,0.6-1.1,1.2-1.5,1.8c-0.4,0.7-0.7,1.4-0.8,2.1c-0.1,0.8,0,1.5,0.3,2.3C39.6,48.6,40.1,49.4,40.8,50.1z M41.6,44.6
					c0.3-0.5,0.7-1,1.2-1.5c0.5-0.5,1-0.9,1.5-1.1c0.5-0.3,0.9-0.4,1.4-0.5c0.1,0,0.2,0,0.3,0c0.1,0,0.3,0,0.4,0
					c0.2,0,0.4,0.1,0.6,0.2c0.5,0.2,0.9,0.5,1.4,1c0.5,0.5,0.9,1,1,1.5c0.2,0.4,0.2,0.8,0.1,1.2c-0.1,0.4-0.2,0.8-0.5,1.3
					c-0.3,0.5-0.7,0.9-1.1,1.4c-0.5,0.5-1,0.9-1.5,1.2c-0.5,0.3-0.9,0.4-1.4,0.5c-0.2,0-0.4,0-0.5,0c-0.1,0-0.1,0-0.2,0
					c-0.2,0-0.4-0.1-0.6-0.2c-0.5-0.2-0.9-0.5-1.4-1c-0.5-0.5-0.9-1-1-1.4c-0.2-0.4-0.2-0.8-0.2-1.2C41.2,45.5,41.4,45.1,41.6,44.6z
					"/>
				<path fill="#FFFFFF" d="M50.9,61.4c-0.7-0.7-1.4-1.2-2.2-1.5c-0.8-0.3-1.5-0.4-2.3-0.3c-0.7,0.1-1.5,0.3-2.2,0.7
					c-0.7,0.4-1.3,0.9-1.9,1.5c-0.6,0.6-1.1,1.2-1.5,1.8c-0.4,0.7-0.7,1.4-0.8,2.1c-0.1,0.8,0,1.5,0.3,2.3c0.3,0.7,0.8,1.5,1.5,2.2
					c0.7,0.7,1.4,1.2,2.1,1.5c0.6,0.2,1.2,0.4,1.8,0.4h0c0.2,0,0.3,0,0.5,0c0.7-0.1,1.5-0.3,2.2-0.7c0.7-0.4,1.3-0.9,2-1.5
					c0.5-0.5,1-1.1,1.4-1.7c0.4-0.7,0.7-1.4,0.8-2.1c0.1-0.8,0-1.5-0.2-2.3C52.1,62.9,51.6,62.2,50.9,61.4z M50.5,65.7
					c-0.1,0.4-0.2,0.8-0.5,1.3c-0.3,0.5-0.7,0.9-1.1,1.4c-0.5,0.5-1,0.9-1.5,1.2c-0.5,0.3-0.9,0.4-1.4,0.5c-0.2,0-0.3,0-0.5,0
					c-0.1,0-0.1,0-0.2,0c-0.2,0-0.4-0.1-0.6-0.2c-0.5-0.2-0.9-0.5-1.4-1c-0.5-0.5-0.9-1-1-1.4c-0.2-0.4-0.2-0.8-0.2-1.2
					c0.1-0.4,0.2-0.8,0.5-1.3c0.3-0.5,0.7-1,1.2-1.5c0.5-0.5,1-0.9,1.5-1.1c0.5-0.3,0.9-0.4,1.4-0.5c0.1,0,0.2,0,0.3,0
					c0.3,0,0.7,0.1,1,0.2c0.5,0.2,0.9,0.5,1.4,1c0.5,0.5,0.9,1,1,1.5C50.6,64.9,50.6,65.3,50.5,65.7z"/>
				<path fill="#FFFFFF" d="M32,58c0.1,0.6-0.3,1.1-0.8,1.2l28.3-4.5c-0.6,0.1-1.2-0.3-1.3-0.9c-0.1-0.6,0.3-1.1,0.9-1.2l-28.3,4.5
					C31.5,57,32,57.4,32,58z"/>
				<path fill="#FFFFFF" d="M60.4,53.4c-0.1-0.6-0.6-1-1.2-0.9l0.3,2.1C60.1,54.5,60.5,54,60.4,53.4z"/>
				<path fill="#FFFFFF" d="M58.2,53.8c0.1,0.6,0.7,1,1.3,0.9l-0.3-2.1C58.6,52.6,58.1,53.2,58.2,53.8z"/>
				<path fill="#FFFFFF" d="M31.2,59.2l-0.3-2.1c-0.6,0.1-1,0.6-1,1.2C30,58.9,30.6,59.3,31.2,59.2z"/>
				<path fill="#FFFFFF" d="M32,58c-0.1-0.6-0.6-1-1.1-0.9l0.3,2.1C31.8,59.1,32.1,58.5,32,58z"/>
				<path fill="#FFFFFF" d="M47.9,17.7c-0.3,0.7-1.3,0.7-1.9,0.4c-0.7-0.3-0.8-0.9-0.4-1.6c0.3-0.7,1.3-0.8,1.9-0.5
					C48.1,16.3,48.2,17,47.9,17.7z"/>
			</g>
		</g>
	</g>
</g>
<g id="LABELS">
</g>
</svg>
