<?xml version="1.0" encoding="utf-8"?>
<!-- Generator: Adobe Illustrator 18.1.1, SVG Export Plug-In . SVG Version: 6.00 Build 0)  -->
<svg version="1.1" xmlns="http://www.w3.org/2000/svg" xmlns:xlink="http://www.w3.org/1999/xlink" x="0px" y="0px"
	 viewBox="0 0 100 100" enable-background="new 0 0 100 100" xml:space="preserve">
<g id="GUIDES">
</g>
<g id="ICONS_-_BLACK" display="none">
	<g display="inline">
		<g>
			<path d="M51.3,61.1c0.1-0.3,0-0.7-0.2-1c-0.2-0.4-0.7-0.7-1.2-0.7c-0.2,0-0.5,0.1-0.7,0.2c-0.3,0.2-0.5,0.5-0.6,0.8
				c-0.1,0.3,0,0.7,0.2,1c0.2,0.4,0.7,0.6,1.2,0.6c0.2,0,0.5-0.1,0.7-0.2C51,61.8,51.2,61.5,51.3,61.1z"/>
			<path d="M86,52.8c-0.7,0-1.3,0.6-1.3,1.3v7H71.2l0-0.5c-0.1-1.1-0.4-2.2-1-3.2c-0.3-0.5-0.7-1-1.1-1.4L69,55.9l0-0.1
				c-0.2-0.5-0.5-1.2-0.3-2.1c0-0.2,0.1-0.4,0.2-0.7l0.1-0.1l8.9-5.4c1.2-0.7,2.1-1.9,2.4-3.3c0.3-1.4,0.1-2.8-0.6-4l-1.5-2.5
				l2.9-1.7c0.6-0.4,0.8-1.1,0.4-1.7l-0.8-1.4l-0.2-0.3L80.2,32l-2.6-4.4c0-0.1-0.1-0.1-0.2-0.2l0,0l-2.8-4.6
				c-1.1-1.8-2.8-3-4.9-3.5c-0.6-0.1-1.2-0.2-1.8-0.2c-1.5,0-2.9,0.4-4.2,1.2L13.4,50.8c-0.4,0.2-0.6,0.6-0.6,1.1
				c0,0.4,0.2,0.8,0.6,1.1l10.1,6.4c0.2,0.1,0.4,0.2,0.7,0.2c0.2,0,0.5-0.1,0.7-0.2l13.9-8.4c0.5-0.3,1.1-0.5,1.8-0.5
				c3,0,6.8,3,8,4.2c0.2,0.2,0.5,0.3,0.9,0.3c0.2,0,0.5-0.1,0.7-0.2L76,38.9l1.5,2.5c0.4,0.7,0.5,1.4,0.3,2.2
				c-0.2,0.7-0.6,1.4-1.3,1.8L44,65.1c-0.4,0.3-1,0.4-1.5,0.4c-0.3,0-0.5,0-0.9-0.1c-0.7-0.2-1.2-0.6-1.6-1.2l-4.2-6.8
				c-0.4-0.6-1.2-0.8-1.8-0.4c-0.6,0.4-0.7,1.2-0.4,1.8l3.4,5.5l-2.6,1.6l-3.4-5.5c-0.4-0.6-1.2-0.8-1.8-0.4
				c-0.6,0.4-0.7,1.2-0.4,1.8l4,6.5c0.2,0.4,0.6,0.6,1.1,0.6c0.2,0,0.5-0.1,0.7-0.2l3.8-2.3l0.3,0.3c1,0.9,2.4,1.5,3.7,1.5
				c1,0,2-0.3,2.8-0.8l9.2-5.6l0.2,0c0.2,0,0.5,0,0.7,0.1c0.9,0.2,1.6,0.9,2,1.3l0.1,0.1l0,0.1c0.2,0.5,0.4,1,0.6,1.4
				c0.7,1.1,1.7,2,2.8,2.6l0.2,0.1l0.1,0.3c0.6,2.7,3.7,4.7,7.3,4.7h16.1v7.2c0,0.7,0.6,1.3,1.3,1.3c0.7,0,1.3-0.6,1.3-1.3l0-25.5
				C87.2,53.3,86.7,52.8,86,52.8z M49.6,52l-0.3-0.2c-1.8-1.5-5.3-4-8.8-4c-1.1,0-2.2,0.3-3.1,0.9l-13.2,8l-7.7-4.9L65,22.4
				c0.9-0.5,1.9-0.8,2.9-0.8c0.4,0,0.8,0,1.3,0.1c1.4,0.3,2.6,1.1,3.3,2.3l5.5,9.2l0.7,1.2L49.6,52z M60.2,63.4
				c-0.2-0.3-0.3-0.6-0.4-1c-0.5-0.9-1.1-1.6-1.6-2.2l-0.5-0.5l8.2-5l0.2,0.7c0.2,0.7,0.6,1.5,1.1,2.3c0.3,0.3,0.6,0.6,0.8,0.9
				c0.6,1,0.8,2.2,0.5,3.4c-0.3,1.2-1,2.2-2.1,2.8c-0.7,0.4-1.6,0.7-2.4,0.7C62.4,65.5,61,64.7,60.2,63.4z M84.5,69.9l-16,0
				c-1.3,0-2.6-0.4-3.5-1l-1.1-0.8l1.3-0.2c0.9-0.2,1.8-0.5,2.5-0.9c1.2-0.7,2.2-1.8,2.8-3.1l0.1-0.3h13.8V69.9z"/>
		</g>
	</g>
</g>
<g id="ICONS_-_DARK_PURPLE" display="none">
	<g display="inline">
		<g>
			<path fill="#4F2556" d="M51.3,61.1c0.1-0.3,0-0.7-0.2-1c-0.2-0.4-0.7-0.7-1.2-0.7c-0.2,0-0.5,0.1-0.7,0.2
				c-0.3,0.2-0.5,0.5-0.6,0.8c-0.1,0.3,0,0.7,0.2,1c0.2,0.4,0.7,0.6,1.2,0.6c0.2,0,0.5-0.1,0.7-0.2C51,61.8,51.2,61.5,51.3,61.1z"/>
			<path fill="#4F2556" d="M86,52.8c-0.7,0-1.3,0.6-1.3,1.3v7H71.2l0-0.5c-0.1-1.1-0.4-2.2-1-3.2c-0.3-0.5-0.7-1-1.1-1.4L69,55.9
				l0-0.1c-0.2-0.5-0.5-1.2-0.3-2.1c0-0.2,0.1-0.4,0.2-0.7l0.1-0.1l8.9-5.4c1.2-0.7,2.1-1.9,2.4-3.3c0.3-1.4,0.1-2.8-0.6-4l-1.5-2.5
				l2.9-1.7c0.6-0.4,0.8-1.1,0.4-1.7l-0.8-1.4l-0.2-0.3L80.2,32l-2.6-4.4c0-0.1-0.1-0.1-0.2-0.2l0,0l-2.8-4.6
				c-1.1-1.8-2.8-3-4.9-3.5c-0.6-0.1-1.2-0.2-1.8-0.2c-1.5,0-2.9,0.4-4.2,1.2L13.4,50.8c-0.4,0.2-0.6,0.6-0.6,1.1
				c0,0.4,0.2,0.8,0.6,1.1l10.1,6.4c0.2,0.1,0.4,0.2,0.7,0.2c0.2,0,0.5-0.1,0.7-0.2l13.9-8.4c0.5-0.3,1.1-0.5,1.8-0.5
				c3,0,6.8,3,8,4.2c0.2,0.2,0.5,0.3,0.9,0.3c0.2,0,0.5-0.1,0.7-0.2L76,38.9l1.5,2.5c0.4,0.7,0.5,1.4,0.3,2.2
				c-0.2,0.7-0.6,1.4-1.3,1.8L44,65.1c-0.4,0.3-1,0.4-1.5,0.4c-0.3,0-0.5,0-0.9-0.1c-0.7-0.2-1.2-0.6-1.6-1.2l-4.2-6.8
				c-0.4-0.6-1.2-0.8-1.8-0.4c-0.6,0.4-0.7,1.2-0.4,1.8l3.4,5.5l-2.6,1.6l-3.4-5.5c-0.4-0.6-1.2-0.8-1.8-0.4
				c-0.6,0.4-0.7,1.2-0.4,1.8l4,6.5c0.2,0.4,0.6,0.6,1.1,0.6c0.2,0,0.5-0.1,0.7-0.2l3.8-2.3l0.3,0.3c1,0.9,2.4,1.5,3.7,1.5
				c1,0,2-0.3,2.8-0.8l9.2-5.6l0.2,0c0.2,0,0.5,0,0.7,0.1c0.9,0.2,1.6,0.9,2,1.3l0.1,0.1l0,0.1c0.2,0.5,0.4,1,0.6,1.4
				c0.7,1.1,1.7,2,2.8,2.6l0.2,0.1l0.1,0.3c0.6,2.7,3.7,4.7,7.3,4.7h16.1v7.2c0,0.7,0.6,1.3,1.3,1.3c0.7,0,1.3-0.6,1.3-1.3l0-25.5
				C87.2,53.3,86.7,52.8,86,52.8z M49.6,52l-0.3-0.2c-1.8-1.5-5.3-4-8.8-4c-1.1,0-2.2,0.3-3.1,0.9l-13.2,8l-7.7-4.9L65,22.4
				c0.9-0.5,1.9-0.8,2.9-0.8c0.4,0,0.8,0,1.3,0.1c1.4,0.3,2.6,1.1,3.3,2.3l5.5,9.2l0.7,1.2L49.6,52z M60.2,63.4
				c-0.2-0.3-0.3-0.6-0.4-1c-0.5-0.9-1.1-1.6-1.6-2.2l-0.5-0.5l8.2-5l0.2,0.7c0.2,0.7,0.6,1.5,1.1,2.3c0.3,0.3,0.6,0.6,0.8,0.9
				c0.6,1,0.8,2.2,0.5,3.4c-0.3,1.2-1,2.2-2.1,2.8c-0.7,0.4-1.6,0.7-2.4,0.7C62.4,65.5,61,64.7,60.2,63.4z M84.5,69.9l-16,0
				c-1.3,0-2.6-0.4-3.5-1l-1.1-0.8l1.3-0.2c0.9-0.2,1.8-0.5,2.5-0.9c1.2-0.7,2.2-1.8,2.8-3.1l0.1-0.3h13.8V69.9z"/>
		</g>
	</g>
</g>
<g id="ICONS_-_WARM_GREY" display="none">
	<g display="inline">
		<g>
			<path fill="#534C63" d="M51.3,61.1c0.1-0.3,0-0.7-0.2-1c-0.2-0.4-0.7-0.7-1.2-0.7c-0.2,0-0.5,0.1-0.7,0.2
				c-0.3,0.2-0.5,0.5-0.6,0.8c-0.1,0.3,0,0.7,0.2,1c0.2,0.4,0.7,0.6,1.2,0.6c0.2,0,0.5-0.1,0.7-0.2C51,61.8,51.2,61.5,51.3,61.1z"/>
			<path fill="#534C63" d="M86,52.8c-0.7,0-1.3,0.6-1.3,1.3v7H71.2l0-0.5c-0.1-1.1-0.4-2.2-1-3.2c-0.3-0.5-0.7-1-1.1-1.4L69,55.9
				l0-0.1c-0.2-0.5-0.5-1.2-0.3-2.1c0-0.2,0.1-0.4,0.2-0.7l0.1-0.1l8.9-5.4c1.2-0.7,2.1-1.9,2.4-3.3c0.3-1.4,0.1-2.8-0.6-4l-1.5-2.5
				l2.9-1.7c0.6-0.4,0.8-1.1,0.4-1.7l-0.8-1.4l-0.2-0.3L80.2,32l-2.6-4.4c0-0.1-0.1-0.1-0.2-0.2l0,0l-2.8-4.6
				c-1.1-1.8-2.8-3-4.9-3.5c-0.6-0.1-1.2-0.2-1.8-0.2c-1.5,0-2.9,0.4-4.2,1.2L13.4,50.8c-0.4,0.2-0.6,0.6-0.6,1.1
				c0,0.4,0.2,0.8,0.6,1.1l10.1,6.4c0.2,0.1,0.4,0.2,0.7,0.2c0.2,0,0.5-0.1,0.7-0.2l13.9-8.4c0.5-0.3,1.1-0.5,1.8-0.5
				c3,0,6.8,3,8,4.2c0.2,0.2,0.5,0.3,0.9,0.3c0.2,0,0.5-0.1,0.7-0.2L76,38.9l1.5,2.5c0.4,0.7,0.5,1.4,0.3,2.2
				c-0.2,0.7-0.6,1.4-1.3,1.8L44,65.1c-0.4,0.3-1,0.4-1.5,0.4c-0.3,0-0.5,0-0.9-0.1c-0.7-0.2-1.2-0.6-1.6-1.2l-4.2-6.8
				c-0.4-0.6-1.2-0.8-1.8-0.4c-0.6,0.4-0.7,1.2-0.4,1.8l3.4,5.5l-2.6,1.6l-3.4-5.5c-0.4-0.6-1.2-0.8-1.8-0.4
				c-0.6,0.4-0.7,1.2-0.4,1.8l4,6.5c0.2,0.4,0.6,0.6,1.1,0.6c0.2,0,0.5-0.1,0.7-0.2l3.8-2.3l0.3,0.3c1,0.9,2.4,1.5,3.7,1.5
				c1,0,2-0.3,2.8-0.8l9.2-5.6l0.2,0c0.2,0,0.5,0,0.7,0.1c0.9,0.2,1.6,0.9,2,1.3l0.1,0.1l0,0.1c0.2,0.5,0.4,1,0.6,1.4
				c0.7,1.1,1.7,2,2.8,2.6l0.2,0.1l0.1,0.3c0.6,2.7,3.7,4.7,7.3,4.7h16.1v7.2c0,0.7,0.6,1.3,1.3,1.3c0.7,0,1.3-0.6,1.3-1.3l0-25.5
				C87.2,53.3,86.7,52.8,86,52.8z M49.6,52l-0.3-0.2c-1.8-1.5-5.3-4-8.8-4c-1.1,0-2.2,0.3-3.1,0.9l-13.2,8l-7.7-4.9L65,22.4
				c0.9-0.5,1.9-0.8,2.9-0.8c0.4,0,0.8,0,1.3,0.1c1.4,0.3,2.6,1.1,3.3,2.3l5.5,9.2l0.7,1.2L49.6,52z M60.2,63.4
				c-0.2-0.3-0.3-0.6-0.4-1c-0.5-0.9-1.1-1.6-1.6-2.2l-0.5-0.5l8.2-5l0.2,0.7c0.2,0.7,0.6,1.5,1.1,2.3c0.3,0.3,0.6,0.6,0.8,0.9
				c0.6,1,0.8,2.2,0.5,3.4c-0.3,1.2-1,2.2-2.1,2.8c-0.7,0.4-1.6,0.7-2.4,0.7C62.4,65.5,61,64.7,60.2,63.4z M84.5,69.9l-16,0
				c-1.3,0-2.6-0.4-3.5-1l-1.1-0.8l1.3-0.2c0.9-0.2,1.8-0.5,2.5-0.9c1.2-0.7,2.2-1.8,2.8-3.1l0.1-0.3h13.8V69.9z"/>
		</g>
	</g>
</g>
<g id="ICONS_-_SKRILL_TEAL" display="none">
	<g display="inline">
		<g>
			<path fill="#41AEB5" d="M51.3,61.1c0.1-0.3,0-0.7-0.2-1c-0.2-0.4-0.7-0.7-1.2-0.7c-0.2,0-0.5,0.1-0.7,0.2
				c-0.3,0.2-0.5,0.5-0.6,0.8c-0.1,0.3,0,0.7,0.2,1c0.2,0.4,0.7,0.6,1.2,0.6c0.2,0,0.5-0.1,0.7-0.2C51,61.8,51.2,61.5,51.3,61.1z"/>
			<path fill="#41AEB5" d="M86,52.8c-0.7,0-1.3,0.6-1.3,1.3v7H71.2l0-0.5c-0.1-1.1-0.4-2.2-1-3.2c-0.3-0.5-0.7-1-1.1-1.4L69,55.9
				l0-0.1c-0.2-0.5-0.5-1.2-0.3-2.1c0-0.2,0.1-0.4,0.2-0.7l0.1-0.1l8.9-5.4c1.2-0.7,2.1-1.9,2.4-3.3c0.3-1.4,0.1-2.8-0.6-4l-1.5-2.5
				l2.9-1.7c0.6-0.4,0.8-1.1,0.4-1.7l-0.8-1.4l-0.2-0.3L80.2,32l-2.6-4.4c0-0.1-0.1-0.1-0.2-0.2l0,0l-2.8-4.6
				c-1.1-1.8-2.8-3-4.9-3.5c-0.6-0.1-1.2-0.2-1.8-0.2c-1.5,0-2.9,0.4-4.2,1.2L13.4,50.8c-0.4,0.2-0.6,0.6-0.6,1.1
				c0,0.4,0.2,0.8,0.6,1.1l10.1,6.4c0.2,0.1,0.4,0.2,0.7,0.2c0.2,0,0.5-0.1,0.7-0.2l13.9-8.4c0.5-0.3,1.1-0.5,1.8-0.5
				c3,0,6.8,3,8,4.2c0.2,0.2,0.5,0.3,0.9,0.3c0.2,0,0.5-0.1,0.7-0.2L76,38.9l1.5,2.5c0.4,0.7,0.5,1.4,0.3,2.2
				c-0.2,0.7-0.6,1.4-1.3,1.8L44,65.1c-0.4,0.3-1,0.4-1.5,0.4c-0.3,0-0.5,0-0.9-0.1c-0.7-0.2-1.2-0.6-1.6-1.2l-4.2-6.8
				c-0.4-0.6-1.2-0.8-1.8-0.4c-0.6,0.4-0.7,1.2-0.4,1.8l3.4,5.5l-2.6,1.6l-3.4-5.5c-0.4-0.6-1.2-0.8-1.8-0.4
				c-0.6,0.4-0.7,1.2-0.4,1.8l4,6.5c0.2,0.4,0.6,0.6,1.1,0.6c0.2,0,0.5-0.1,0.7-0.2l3.8-2.3l0.3,0.3c1,0.9,2.4,1.5,3.7,1.5
				c1,0,2-0.3,2.8-0.8l9.2-5.6l0.2,0c0.2,0,0.5,0,0.7,0.1c0.9,0.2,1.6,0.9,2,1.3l0.1,0.1l0,0.1c0.2,0.5,0.4,1,0.6,1.4
				c0.7,1.1,1.7,2,2.8,2.6l0.2,0.1l0.1,0.3c0.6,2.7,3.7,4.7,7.3,4.7h16.1v7.2c0,0.7,0.6,1.3,1.3,1.3c0.7,0,1.3-0.6,1.3-1.3l0-25.5
				C87.2,53.3,86.7,52.8,86,52.8z M49.6,52l-0.3-0.2c-1.8-1.5-5.3-4-8.8-4c-1.1,0-2.2,0.3-3.1,0.9l-13.2,8l-7.7-4.9L65,22.4
				c0.9-0.5,1.9-0.8,2.9-0.8c0.4,0,0.8,0,1.3,0.1c1.4,0.3,2.6,1.1,3.3,2.3l5.5,9.2l0.7,1.2L49.6,52z M60.2,63.4
				c-0.2-0.3-0.3-0.6-0.4-1c-0.5-0.9-1.1-1.6-1.6-2.2l-0.5-0.5l8.2-5l0.2,0.7c0.2,0.7,0.6,1.5,1.1,2.3c0.3,0.3,0.6,0.6,0.8,0.9
				c0.6,1,0.8,2.2,0.5,3.4c-0.3,1.2-1,2.2-2.1,2.8c-0.7,0.4-1.6,0.7-2.4,0.7C62.4,65.5,61,64.7,60.2,63.4z M84.5,69.9l-16,0
				c-1.3,0-2.6-0.4-3.5-1l-1.1-0.8l1.3-0.2c0.9-0.2,1.8-0.5,2.5-0.9c1.2-0.7,2.2-1.8,2.8-3.1l0.1-0.3h13.8V69.9z"/>
		</g>
	</g>
</g>
<g id="ICONS_-_SKRILL_PURPLE">
	<g>
		<g>
			<path fill="#811E68" d="M51.3,61.1c0.1-0.3,0-0.7-0.2-1c-0.2-0.4-0.7-0.7-1.2-0.7c-0.2,0-0.5,0.1-0.7,0.2
				c-0.3,0.2-0.5,0.5-0.6,0.8c-0.1,0.3,0,0.7,0.2,1c0.2,0.4,0.7,0.6,1.2,0.6c0.2,0,0.5-0.1,0.7-0.2C51,61.8,51.2,61.5,51.3,61.1z"/>
			<path fill="#811E68" d="M86,52.8c-0.7,0-1.3,0.6-1.3,1.3v7H71.2l0-0.5c-0.1-1.1-0.4-2.2-1-3.2c-0.3-0.5-0.7-1-1.1-1.4L69,55.9
				l0-0.1c-0.2-0.5-0.5-1.2-0.3-2.1c0-0.2,0.1-0.4,0.2-0.7l0.1-0.1l8.9-5.4c1.2-0.7,2.1-1.9,2.4-3.3c0.3-1.4,0.1-2.8-0.6-4l-1.5-2.5
				l2.9-1.7c0.6-0.4,0.8-1.1,0.4-1.7l-0.8-1.4l-0.2-0.3L80.2,32l-2.6-4.4c0-0.1-0.1-0.1-0.2-0.2l0,0l-2.8-4.6
				c-1.1-1.8-2.8-3-4.9-3.5c-0.6-0.1-1.2-0.2-1.8-0.2c-1.5,0-2.9,0.4-4.2,1.2L13.4,50.8c-0.4,0.2-0.6,0.6-0.6,1.1
				c0,0.4,0.2,0.8,0.6,1.1l10.1,6.4c0.2,0.1,0.4,0.2,0.7,0.2c0.2,0,0.5-0.1,0.7-0.2l13.9-8.4c0.5-0.3,1.1-0.5,1.8-0.5
				c3,0,6.8,3,8,4.2c0.2,0.2,0.5,0.3,0.9,0.3c0.2,0,0.5-0.1,0.7-0.2L76,38.9l1.5,2.5c0.4,0.7,0.5,1.4,0.3,2.2
				c-0.2,0.7-0.6,1.4-1.3,1.8L44,65.1c-0.4,0.3-1,0.4-1.5,0.4c-0.3,0-0.5,0-0.9-0.1c-0.7-0.2-1.2-0.6-1.6-1.2l-4.2-6.8
				c-0.4-0.6-1.2-0.8-1.8-0.4c-0.6,0.4-0.7,1.2-0.4,1.8l3.4,5.5l-2.6,1.6l-3.4-5.5c-0.4-0.6-1.2-0.8-1.8-0.4
				c-0.6,0.4-0.7,1.2-0.4,1.8l4,6.5c0.2,0.4,0.6,0.6,1.1,0.6c0.2,0,0.5-0.1,0.7-0.2l3.8-2.3l0.3,0.3c1,0.9,2.4,1.5,3.7,1.5
				c1,0,2-0.3,2.8-0.8l9.2-5.6l0.2,0c0.2,0,0.5,0,0.7,0.1c0.9,0.2,1.6,0.9,2,1.3l0.1,0.1l0,0.1c0.2,0.5,0.4,1,0.6,1.4
				c0.7,1.1,1.7,2,2.8,2.6l0.2,0.1l0.1,0.3c0.6,2.7,3.7,4.7,7.3,4.7h16.1v7.2c0,0.7,0.6,1.3,1.3,1.3c0.7,0,1.3-0.6,1.3-1.3l0-25.5
				C87.2,53.3,86.7,52.8,86,52.8z M49.6,52l-0.3-0.2c-1.8-1.5-5.3-4-8.8-4c-1.1,0-2.2,0.3-3.1,0.9l-13.2,8l-7.7-4.9L65,22.4
				c0.9-0.5,1.9-0.8,2.9-0.8c0.4,0,0.8,0,1.3,0.1c1.4,0.3,2.6,1.1,3.3,2.3l5.5,9.2l0.7,1.2L49.6,52z M60.2,63.4
				c-0.2-0.3-0.3-0.6-0.4-1c-0.5-0.9-1.1-1.6-1.6-2.2l-0.5-0.5l8.2-5l0.2,0.7c0.2,0.7,0.6,1.5,1.1,2.3c0.3,0.3,0.6,0.6,0.8,0.9
				c0.6,1,0.8,2.2,0.5,3.4c-0.3,1.2-1,2.2-2.1,2.8c-0.7,0.4-1.6,0.7-2.4,0.7C62.4,65.5,61,64.7,60.2,63.4z M84.5,69.9l-16,0
				c-1.3,0-2.6-0.4-3.5-1l-1.1-0.8l1.3-0.2c0.9-0.2,1.8-0.5,2.5-0.9c1.2-0.7,2.2-1.8,2.8-3.1l0.1-0.3h13.8V69.9z"/>
		</g>
	</g>
</g>
<g id="ICONS_-_WHITE" display="none">
	<g display="inline">
		<g>
			<path fill="#FFFFFF" d="M51.3,61.1c0.1-0.3,0-0.7-0.2-1c-0.2-0.4-0.7-0.7-1.2-0.7c-0.2,0-0.5,0.1-0.7,0.2
				c-0.3,0.2-0.5,0.5-0.6,0.8c-0.1,0.3,0,0.7,0.2,1c0.2,0.4,0.7,0.6,1.2,0.6c0.2,0,0.5-0.1,0.7-0.2C51,61.8,51.2,61.5,51.3,61.1z"/>
			<path fill="#FFFFFF" d="M86,52.8c-0.7,0-1.3,0.6-1.3,1.3v7H71.2l0-0.5c-0.1-1.1-0.4-2.2-1-3.2c-0.3-0.5-0.7-1-1.1-1.4L69,55.9
				l0-0.1c-0.2-0.5-0.5-1.2-0.3-2.1c0-0.2,0.1-0.4,0.2-0.7l0.1-0.1l8.9-5.4c1.2-0.7,2.1-1.9,2.4-3.3c0.3-1.4,0.1-2.8-0.6-4l-1.5-2.5
				l2.9-1.7c0.6-0.4,0.8-1.1,0.4-1.7l-0.8-1.4l-0.2-0.3L80.2,32l-2.6-4.4c0-0.1-0.1-0.1-0.2-0.2l0,0l-2.8-4.6
				c-1.1-1.8-2.8-3-4.9-3.5c-0.6-0.1-1.2-0.2-1.8-0.2c-1.5,0-2.9,0.4-4.2,1.2L13.4,50.8c-0.4,0.2-0.6,0.6-0.6,1.1
				c0,0.4,0.2,0.8,0.6,1.1l10.1,6.4c0.2,0.1,0.4,0.2,0.7,0.2c0.2,0,0.5-0.1,0.7-0.2l13.9-8.4c0.5-0.3,1.1-0.5,1.8-0.5
				c3,0,6.8,3,8,4.2c0.2,0.2,0.5,0.3,0.9,0.3c0.2,0,0.5-0.1,0.7-0.2L76,38.9l1.5,2.5c0.4,0.7,0.5,1.4,0.3,2.2
				c-0.2,0.7-0.6,1.4-1.3,1.8L44,65.1c-0.4,0.3-1,0.4-1.5,0.4c-0.3,0-0.5,0-0.9-0.1c-0.7-0.2-1.2-0.6-1.6-1.2l-4.2-6.8
				c-0.4-0.6-1.2-0.8-1.8-0.4c-0.6,0.4-0.7,1.2-0.4,1.8l3.4,5.5l-2.6,1.6l-3.4-5.5c-0.4-0.6-1.2-0.8-1.8-0.4
				c-0.6,0.4-0.7,1.2-0.4,1.8l4,6.5c0.2,0.4,0.6,0.6,1.1,0.6c0.2,0,0.5-0.1,0.7-0.2l3.8-2.3l0.3,0.3c1,0.9,2.4,1.5,3.7,1.5
				c1,0,2-0.3,2.8-0.8l9.2-5.6l0.2,0c0.2,0,0.5,0,0.7,0.1c0.9,0.2,1.6,0.9,2,1.3l0.1,0.1l0,0.1c0.2,0.5,0.4,1,0.6,1.4
				c0.7,1.1,1.7,2,2.8,2.6l0.2,0.1l0.1,0.3c0.6,2.7,3.7,4.7,7.3,4.7h16.1v7.2c0,0.7,0.6,1.3,1.3,1.3c0.7,0,1.3-0.6,1.3-1.3l0-25.5
				C87.2,53.3,86.7,52.8,86,52.8z M49.6,52l-0.3-0.2c-1.8-1.5-5.3-4-8.8-4c-1.1,0-2.2,0.3-3.1,0.9l-13.2,8l-7.7-4.9L65,22.4
				c0.9-0.5,1.9-0.8,2.9-0.8c0.4,0,0.8,0,1.3,0.1c1.4,0.3,2.6,1.1,3.3,2.3l5.5,9.2l0.7,1.2L49.6,52z M60.2,63.4
				c-0.2-0.3-0.3-0.6-0.4-1c-0.5-0.9-1.1-1.6-1.6-2.2l-0.5-0.5l8.2-5l0.2,0.7c0.2,0.7,0.6,1.5,1.1,2.3c0.3,0.3,0.6,0.6,0.8,0.9
				c0.6,1,0.8,2.2,0.5,3.4c-0.3,1.2-1,2.2-2.1,2.8c-0.7,0.4-1.6,0.7-2.4,0.7C62.4,65.5,61,64.7,60.2,63.4z M84.5,69.9l-16,0
				c-1.3,0-2.6-0.4-3.5-1l-1.1-0.8l1.3-0.2c0.9-0.2,1.8-0.5,2.5-0.9c1.2-0.7,2.2-1.8,2.8-3.1l0.1-0.3h13.8V69.9z"/>
		</g>
	</g>
</g>
<g id="LABELS">
</g>
</svg>
