<?xml version="1.0" encoding="utf-8"?>
<!-- Generator: Adobe Illustrator 18.1.1, SVG Export Plug-In . SVG Version: 6.00 Build 0)  -->
<svg version="1.1" xmlns="http://www.w3.org/2000/svg" xmlns:xlink="http://www.w3.org/1999/xlink" x="0px" y="0px"
	 viewBox="0 0 100 100" enable-background="new 0 0 100 100" xml:space="preserve">
<g id="GUIDES">
</g>
<g id="ICONS_-_BLACK" display="none">
	<g display="inline">
		<g>
			<g>
				<path d="M26.4,59.6c-0.7,0-1.3,0.6-1.3,1.3c0,0.7,0.6,1.3,1.3,1.3h18.5c0.7,0,1.3-0.6,1.3-1.3c0-0.7-0.6-1.3-1.3-1.3H26.4z"/>
				<path d="M82.4,45.6c0.7,0,1.2,0.7,1.2,1.3v-10c0-4.1-3.4-7.5-7.5-7.5H21.7c-4.1,0-7.5,3.4-7.5,7.5v28.7c0,4.1,3.4,7.5,7.5,7.5
					h27.8c-0.7,0-1.3-0.5-1.3-1.2c0-0.7,0.7-1.2,1.3-1.2H21.7c-2.8,0-5.1-2.3-5.1-5.1V42.9h64.6v3.9C81.2,46.2,81.7,45.6,82.4,45.6z
					 M16.6,40.5v-3.6c0-2.8,2.3-5.1,5.1-5.1h54.3c2.8,0,5.1,2.3,5.1,5.1v3.6H16.6z"/>
				<path d="M90.6,66l-0.1-0.4c0-0.1,0-0.3-0.1-0.4c-0.1-0.4-0.2-0.9-0.3-1.3l-0.1-0.3c-0.1-0.5-0.3-0.9-0.5-1.4l0-0.1
					c-2.7-7-9.5-11.7-16.9-11.7S58.4,55.1,55.8,62l0,0.1c-0.2,0.5-0.3,0.9-0.5,1.4l-0.1,0.3c-0.1,0.4-0.2,0.8-0.3,1.3
					c0,0.2,0,0.3-0.1,0.5L54.7,66c0,0.3-0.1,0.5-0.1,0.8c-0.1,0.6-0.1,1.2-0.1,1.7c0,0.5,0,1.1,0.1,1.7c0,0.2,0.1,0.5,0.1,0.7
					l0.1,0.5c0,0.2,0,0.3,0.1,0.5c0.1,0.4,0.2,0.8,0.3,1.2l0.1,0.4c0.1,0.4,0.3,0.9,0.4,1.4l0.1,0.1c2.7,7,9.5,11.7,16.9,11.7
					c7.5,0,14.3-4.7,16.9-11.7l0-0.1c0.2-0.5,0.3-0.9,0.5-1.4l0.1-0.2c0.1-0.4,0.2-0.9,0.3-1.3c0-0.1,0-0.3,0.1-0.4l0.1-0.4
					c0-0.3,0.1-0.5,0.1-0.8c0.1-0.6,0.1-1.2,0.1-1.7s0-1.1-0.1-1.7C90.6,66.5,90.6,66.2,90.6,66z M65.9,54.3
					c-1.4,1.9-2.6,4.3-3.3,7.1h-3.9C60.2,58.2,62.8,55.7,65.9,54.3z M57.4,72.4c0,0-0.1-0.3-0.1-0.4c-0.1-0.3-0.1-0.5-0.2-0.8
					c0-0.2-0.1-0.5-0.1-0.8c0-0.2,0-0.4-0.1-0.5c0-0.5-0.1-0.9-0.1-1.4c0-0.5,0-0.9,0.1-1.4c0-0.2,0-0.4,0.1-0.6
					c0-0.2,0.1-0.5,0.1-0.7c0-0.3,0.1-0.6,0.2-0.8l0.1-0.3c0.1-0.3,0.2-0.6,0.3-0.9h4.4c-0.3,1.6-0.4,3.2-0.4,4.8
					c0,1.6,0.1,3.2,0.4,4.8h-4.4C57.6,73,57.5,72.7,57.4,72.4z M58.6,75.6h3.9c0.7,2.8,1.9,5.2,3.3,7.1
					C62.8,81.2,60.2,78.7,58.6,75.6z M71.5,84c-2.8-0.7-5.2-3.8-6.5-8.4h6.5V84z M71.5,73.2h-7c-0.3-1.6-0.4-3.2-0.4-4.8
					c0-1.6,0.1-3.2,0.4-4.8h7V73.2z M71.5,61.3H65c1.3-4.6,3.7-7.7,6.5-8.4V61.3z M80.1,54.6l0.2,0.1c0.4,0.2,0.8,0.5,1.2,0.8
					c2.1,1.4,3.8,3.3,5,5.5c0.1,0.1,0.1,0.2,0.1,0.3l0,0.1h-3.9c-0.7-2.8-1.9-5.2-3.3-7.1C79.6,54.4,79.9,54.5,80.1,54.6z
					 M73.8,52.9c2.8,0.7,5.2,3.8,6.5,8.4h-6.5V52.9z M73.8,63.7h7c0.3,1.6,0.4,3.2,0.4,4.8c0,1.6-0.1,3.2-0.4,4.8h-7V63.7z M73.8,84
					v-8.4h6.5C79,80.2,76.6,83.3,73.8,84z M86.6,75.7c0,0.1-0.1,0.2-0.2,0.3c-1.2,2.2-2.9,4.1-5.1,5.6c-0.4,0.3-0.8,0.5-1.2,0.7
					l0,0.1h0l0,0h-0.2c-0.2,0.1-0.4,0.2-0.7,0.3c1.4-1.9,2.6-4.3,3.3-7.1L86.6,75.7L86.6,75.7z M88.3,69.9c0,0.2,0,0.4-0.1,0.6
					c0,0.2-0.1,0.5-0.1,0.7C88.1,71.5,88,71.7,88,72l-0.1,0.3c-0.1,0.3-0.2,0.6-0.3,1h-4.4c0.3-1.6,0.4-3.2,0.4-4.8
					c0-1.6-0.1-3.2-0.4-4.8h4.4c0.1,0.3,0.2,0.6,0.3,0.9l0.1,0.3c0.1,0.3,0.1,0.6,0.2,0.9c0,0.2,0.1,0.5,0.1,0.7
					c0,0.2,0.1,0.4,0.1,0.6c0,0.5,0.1,0.9,0.1,1.4C88.4,68.9,88.4,69.4,88.3,69.9z"/>
				<path d="M81.2,46.8c0,0.7,0.5,1.2,1.2,1.2s1.2-0.4,1.2-1.1C82.8,46.7,82,47,81.2,46.8z"/>
				<path d="M82.4,45.6c-0.7,0-1.2,0.5-1.2,1.2c0.8,0.1,1.6-0.1,2.4,0.1C83.6,46.3,83,45.6,82.4,45.6z"/>
				<path d="M50.6,72c0-0.7-0.4-1.2-1.1-1.2v2.4C50.2,73.2,50.6,72.6,50.6,72z"/>
				<path d="M48.2,72c0,0.7,0.7,1.2,1.3,1.2v-2.4C48.9,70.8,48.2,71.3,48.2,72z"/>
			</g>
		</g>
	</g>
</g>
<g id="ICONS_-_DARK_PURPLE" display="none">
	<g display="inline">
		<g>
			<g>
				<path fill="#4F2556" d="M26.4,59.6c-0.7,0-1.3,0.6-1.3,1.3c0,0.7,0.6,1.3,1.3,1.3h18.5c0.7,0,1.3-0.6,1.3-1.3
					c0-0.7-0.6-1.3-1.3-1.3H26.4z"/>
				<path fill="#4F2556" d="M82.4,45.6c0.7,0,1.2,0.7,1.2,1.3v-10c0-4.1-3.4-7.5-7.5-7.5H21.7c-4.1,0-7.5,3.4-7.5,7.5v28.7
					c0,4.1,3.4,7.5,7.5,7.5h27.8c-0.7,0-1.3-0.5-1.3-1.2c0-0.7,0.7-1.2,1.3-1.2H21.7c-2.8,0-5.1-2.3-5.1-5.1V42.9h64.6v3.9
					C81.2,46.2,81.7,45.6,82.4,45.6z M16.6,40.5v-3.6c0-2.8,2.3-5.1,5.1-5.1h54.3c2.8,0,5.1,2.3,5.1,5.1v3.6H16.6z"/>
				<path fill="#4F2556" d="M90.6,66l-0.1-0.4c0-0.1,0-0.3-0.1-0.4c-0.1-0.4-0.2-0.9-0.3-1.3l-0.1-0.3c-0.1-0.5-0.3-0.9-0.5-1.4
					l0-0.1c-2.7-7-9.5-11.7-16.9-11.7S58.4,55.1,55.8,62l0,0.1c-0.2,0.5-0.3,0.9-0.5,1.4l-0.1,0.3c-0.1,0.4-0.2,0.8-0.3,1.3
					c0,0.2,0,0.3-0.1,0.5L54.7,66c0,0.3-0.1,0.5-0.1,0.8c-0.1,0.6-0.1,1.2-0.1,1.7c0,0.5,0,1.1,0.1,1.7c0,0.2,0.1,0.5,0.1,0.7
					l0.1,0.5c0,0.2,0,0.3,0.1,0.5c0.1,0.4,0.2,0.8,0.3,1.2l0.1,0.4c0.1,0.4,0.3,0.9,0.4,1.4l0.1,0.1c2.7,7,9.5,11.7,16.9,11.7
					c7.5,0,14.3-4.7,16.9-11.7l0-0.1c0.2-0.5,0.3-0.9,0.5-1.4l0.1-0.2c0.1-0.4,0.2-0.9,0.3-1.3c0-0.1,0-0.3,0.1-0.4l0.1-0.4
					c0-0.3,0.1-0.5,0.1-0.8c0.1-0.6,0.1-1.2,0.1-1.7s0-1.1-0.1-1.7C90.6,66.5,90.6,66.2,90.6,66z M65.9,54.3
					c-1.4,1.9-2.6,4.3-3.3,7.1h-3.9C60.2,58.2,62.8,55.7,65.9,54.3z M57.4,72.4c0,0-0.1-0.3-0.1-0.4c-0.1-0.3-0.1-0.5-0.2-0.8
					c0-0.2-0.1-0.5-0.1-0.8c0-0.2,0-0.4-0.1-0.5c0-0.5-0.1-0.9-0.1-1.4c0-0.5,0-0.9,0.1-1.4c0-0.2,0-0.4,0.1-0.6
					c0-0.2,0.1-0.5,0.1-0.7c0-0.3,0.1-0.6,0.2-0.8l0.1-0.3c0.1-0.3,0.2-0.6,0.3-0.9h4.4c-0.3,1.6-0.4,3.2-0.4,4.8
					c0,1.6,0.1,3.2,0.4,4.8h-4.4C57.6,73,57.5,72.7,57.4,72.4z M58.6,75.6h3.9c0.7,2.8,1.9,5.2,3.3,7.1
					C62.8,81.2,60.2,78.7,58.6,75.6z M71.5,84c-2.8-0.7-5.2-3.8-6.5-8.4h6.5V84z M71.5,73.2h-7c-0.3-1.6-0.4-3.2-0.4-4.8
					c0-1.6,0.1-3.2,0.4-4.8h7V73.2z M71.5,61.3H65c1.3-4.6,3.7-7.7,6.5-8.4V61.3z M80.1,54.6l0.2,0.1c0.4,0.2,0.8,0.5,1.2,0.8
					c2.1,1.4,3.8,3.3,5,5.5c0.1,0.1,0.1,0.2,0.1,0.3l0,0.1h-3.9c-0.7-2.8-1.9-5.2-3.3-7.1C79.6,54.4,79.9,54.5,80.1,54.6z
					 M73.8,52.9c2.8,0.7,5.2,3.8,6.5,8.4h-6.5V52.9z M73.8,63.7h7c0.3,1.6,0.4,3.2,0.4,4.8c0,1.6-0.1,3.2-0.4,4.8h-7V63.7z M73.8,84
					v-8.4h6.5C79,80.2,76.6,83.3,73.8,84z M86.6,75.7c0,0.1-0.1,0.2-0.2,0.3c-1.2,2.2-2.9,4.1-5.1,5.6c-0.4,0.3-0.8,0.5-1.2,0.7
					l0,0.1h0l0,0h-0.2c-0.2,0.1-0.4,0.2-0.7,0.3c1.4-1.9,2.6-4.3,3.3-7.1L86.6,75.7L86.6,75.7z M88.3,69.9c0,0.2,0,0.4-0.1,0.6
					c0,0.2-0.1,0.5-0.1,0.7C88.1,71.5,88,71.7,88,72l-0.1,0.3c-0.1,0.3-0.2,0.6-0.3,1h-4.4c0.3-1.6,0.4-3.2,0.4-4.8
					c0-1.6-0.1-3.2-0.4-4.8h4.4c0.1,0.3,0.2,0.6,0.3,0.9l0.1,0.3c0.1,0.3,0.1,0.6,0.2,0.9c0,0.2,0.1,0.5,0.1,0.7
					c0,0.2,0.1,0.4,0.1,0.6c0,0.5,0.1,0.9,0.1,1.4C88.4,68.9,88.4,69.4,88.3,69.9z"/>
				<path fill="#4F2556" d="M81.2,46.8c0,0.7,0.5,1.2,1.2,1.2s1.2-0.4,1.2-1.1C82.8,46.7,82,47,81.2,46.8z"/>
				<path fill="#4F2556" d="M82.4,45.6c-0.7,0-1.2,0.5-1.2,1.2c0.8,0.1,1.6-0.1,2.4,0.1C83.6,46.3,83,45.6,82.4,45.6z"/>
				<path fill="#4F2556" d="M50.6,72c0-0.7-0.4-1.2-1.1-1.2v2.4C50.2,73.2,50.6,72.6,50.6,72z"/>
				<path fill="#4F2556" d="M48.2,72c0,0.7,0.7,1.2,1.3,1.2v-2.4C48.9,70.8,48.2,71.3,48.2,72z"/>
			</g>
		</g>
	</g>
</g>
<g id="ICONS_-_WARM_GREY" display="none">
	<g display="inline">
		<g>
			<g>
				<path fill="#534C63" d="M26.4,59.6c-0.7,0-1.3,0.6-1.3,1.3c0,0.7,0.6,1.3,1.3,1.3h18.5c0.7,0,1.3-0.6,1.3-1.3
					c0-0.7-0.6-1.3-1.3-1.3H26.4z"/>
				<path fill="#534C63" d="M82.4,45.6c0.7,0,1.2,0.7,1.2,1.3v-10c0-4.1-3.4-7.5-7.5-7.5H21.7c-4.1,0-7.5,3.4-7.5,7.5v28.7
					c0,4.1,3.4,7.5,7.5,7.5h27.8c-0.7,0-1.3-0.5-1.3-1.2c0-0.7,0.7-1.2,1.3-1.2H21.7c-2.8,0-5.1-2.3-5.1-5.1V42.9h64.6v3.9
					C81.2,46.2,81.7,45.6,82.4,45.6z M16.6,40.5v-3.6c0-2.8,2.3-5.1,5.1-5.1h54.3c2.8,0,5.1,2.3,5.1,5.1v3.6H16.6z"/>
				<path fill="#534C63" d="M90.6,66l-0.1-0.4c0-0.1,0-0.3-0.1-0.4c-0.1-0.4-0.2-0.9-0.3-1.3l-0.1-0.3c-0.1-0.5-0.3-0.9-0.5-1.4
					l0-0.1c-2.7-7-9.5-11.7-16.9-11.7S58.4,55.1,55.8,62l0,0.1c-0.2,0.5-0.3,0.9-0.5,1.4l-0.1,0.3c-0.1,0.4-0.2,0.8-0.3,1.3
					c0,0.2,0,0.3-0.1,0.5L54.7,66c0,0.3-0.1,0.5-0.1,0.8c-0.1,0.6-0.1,1.2-0.1,1.7c0,0.5,0,1.1,0.1,1.7c0,0.2,0.1,0.5,0.1,0.7
					l0.1,0.5c0,0.2,0,0.3,0.1,0.5c0.1,0.4,0.2,0.8,0.3,1.2l0.1,0.4c0.1,0.4,0.3,0.9,0.4,1.4l0.1,0.1c2.7,7,9.5,11.7,16.9,11.7
					c7.5,0,14.3-4.7,16.9-11.7l0-0.1c0.2-0.5,0.3-0.9,0.5-1.4l0.1-0.2c0.1-0.4,0.2-0.9,0.3-1.3c0-0.1,0-0.3,0.1-0.4l0.1-0.4
					c0-0.3,0.1-0.5,0.1-0.8c0.1-0.6,0.1-1.2,0.1-1.7s0-1.1-0.1-1.7C90.6,66.5,90.6,66.2,90.6,66z M65.9,54.3
					c-1.4,1.9-2.6,4.3-3.3,7.1h-3.9C60.2,58.2,62.8,55.7,65.9,54.3z M57.4,72.4c0,0-0.1-0.3-0.1-0.4c-0.1-0.3-0.1-0.5-0.2-0.8
					c0-0.2-0.1-0.5-0.1-0.8c0-0.2,0-0.4-0.1-0.5c0-0.5-0.1-0.9-0.1-1.4c0-0.5,0-0.9,0.1-1.4c0-0.2,0-0.4,0.1-0.6
					c0-0.2,0.1-0.5,0.1-0.7c0-0.3,0.1-0.6,0.2-0.8l0.1-0.3c0.1-0.3,0.2-0.6,0.3-0.9h4.4c-0.3,1.6-0.4,3.2-0.4,4.8
					c0,1.6,0.1,3.2,0.4,4.8h-4.4C57.6,73,57.5,72.7,57.4,72.4z M58.6,75.6h3.9c0.7,2.8,1.9,5.2,3.3,7.1
					C62.8,81.2,60.2,78.7,58.6,75.6z M71.5,84c-2.8-0.7-5.2-3.8-6.5-8.4h6.5V84z M71.5,73.2h-7c-0.3-1.6-0.4-3.2-0.4-4.8
					c0-1.6,0.1-3.2,0.4-4.8h7V73.2z M71.5,61.3H65c1.3-4.6,3.7-7.7,6.5-8.4V61.3z M80.1,54.6l0.2,0.1c0.4,0.2,0.8,0.5,1.2,0.8
					c2.1,1.4,3.8,3.3,5,5.5c0.1,0.1,0.1,0.2,0.1,0.3l0,0.1h-3.9c-0.7-2.8-1.9-5.2-3.3-7.1C79.6,54.4,79.9,54.5,80.1,54.6z
					 M73.8,52.9c2.8,0.7,5.2,3.8,6.5,8.4h-6.5V52.9z M73.8,63.7h7c0.3,1.6,0.4,3.2,0.4,4.8c0,1.6-0.1,3.2-0.4,4.8h-7V63.7z M73.8,84
					v-8.4h6.5C79,80.2,76.6,83.3,73.8,84z M86.6,75.7c0,0.1-0.1,0.2-0.2,0.3c-1.2,2.2-2.9,4.1-5.1,5.6c-0.4,0.3-0.8,0.5-1.2,0.7
					l0,0.1h0l0,0h-0.2c-0.2,0.1-0.4,0.2-0.7,0.3c1.4-1.9,2.6-4.3,3.3-7.1L86.6,75.7L86.6,75.7z M88.3,69.9c0,0.2,0,0.4-0.1,0.6
					c0,0.2-0.1,0.5-0.1,0.7C88.1,71.5,88,71.7,88,72l-0.1,0.3c-0.1,0.3-0.2,0.6-0.3,1h-4.4c0.3-1.6,0.4-3.2,0.4-4.8
					c0-1.6-0.1-3.2-0.4-4.8h4.4c0.1,0.3,0.2,0.6,0.3,0.9l0.1,0.3c0.1,0.3,0.1,0.6,0.2,0.9c0,0.2,0.1,0.5,0.1,0.7
					c0,0.2,0.1,0.4,0.1,0.6c0,0.5,0.1,0.9,0.1,1.4C88.4,68.9,88.4,69.4,88.3,69.9z"/>
				<path fill="#534C63" d="M81.2,46.8c0,0.7,0.5,1.2,1.2,1.2s1.2-0.4,1.2-1.1C82.8,46.7,82,47,81.2,46.8z"/>
				<path fill="#534C63" d="M82.4,45.6c-0.7,0-1.2,0.5-1.2,1.2c0.8,0.1,1.6-0.1,2.4,0.1C83.6,46.3,83,45.6,82.4,45.6z"/>
				<path fill="#534C63" d="M50.6,72c0-0.7-0.4-1.2-1.1-1.2v2.4C50.2,73.2,50.6,72.6,50.6,72z"/>
				<path fill="#534C63" d="M48.2,72c0,0.7,0.7,1.2,1.3,1.2v-2.4C48.9,70.8,48.2,71.3,48.2,72z"/>
			</g>
		</g>
	</g>
</g>
<g id="ICONS_-_SKRILL_TEAL" display="none">
	<g display="inline">
		<g>
			<g>
				<path fill="#41AEB5" d="M26.4,59.6c-0.7,0-1.3,0.6-1.3,1.3c0,0.7,0.6,1.3,1.3,1.3h18.5c0.7,0,1.3-0.6,1.3-1.3
					c0-0.7-0.6-1.3-1.3-1.3H26.4z"/>
				<path fill="#41AEB5" d="M82.4,45.6c0.7,0,1.2,0.7,1.2,1.3v-10c0-4.1-3.4-7.5-7.5-7.5H21.7c-4.1,0-7.5,3.4-7.5,7.5v28.7
					c0,4.1,3.4,7.5,7.5,7.5h27.8c-0.7,0-1.3-0.5-1.3-1.2c0-0.7,0.7-1.2,1.3-1.2H21.7c-2.8,0-5.1-2.3-5.1-5.1V42.9h64.6v3.9
					C81.2,46.2,81.7,45.6,82.4,45.6z M16.6,40.5v-3.6c0-2.8,2.3-5.1,5.1-5.1h54.3c2.8,0,5.1,2.3,5.1,5.1v3.6H16.6z"/>
				<path fill="#41AEB5" d="M90.6,66l-0.1-0.4c0-0.1,0-0.3-0.1-0.4c-0.1-0.4-0.2-0.9-0.3-1.3l-0.1-0.3c-0.1-0.5-0.3-0.9-0.5-1.4
					l0-0.1c-2.7-7-9.5-11.7-16.9-11.7S58.4,55.1,55.8,62l0,0.1c-0.2,0.5-0.3,0.9-0.5,1.4l-0.1,0.3c-0.1,0.4-0.2,0.8-0.3,1.3
					c0,0.2,0,0.3-0.1,0.5L54.7,66c0,0.3-0.1,0.5-0.1,0.8c-0.1,0.6-0.1,1.2-0.1,1.7c0,0.5,0,1.1,0.1,1.7c0,0.2,0.1,0.5,0.1,0.7
					l0.1,0.5c0,0.2,0,0.3,0.1,0.5c0.1,0.4,0.2,0.8,0.3,1.2l0.1,0.4c0.1,0.4,0.3,0.9,0.4,1.4l0.1,0.1c2.7,7,9.5,11.7,16.9,11.7
					c7.5,0,14.3-4.7,16.9-11.7l0-0.1c0.2-0.5,0.3-0.9,0.5-1.4l0.1-0.2c0.1-0.4,0.2-0.9,0.3-1.3c0-0.1,0-0.3,0.1-0.4l0.1-0.4
					c0-0.3,0.1-0.5,0.1-0.8c0.1-0.6,0.1-1.2,0.1-1.7s0-1.1-0.1-1.7C90.6,66.5,90.6,66.2,90.6,66z M65.9,54.3
					c-1.4,1.9-2.6,4.3-3.3,7.1h-3.9C60.2,58.2,62.8,55.7,65.9,54.3z M57.4,72.4c0,0-0.1-0.3-0.1-0.4c-0.1-0.3-0.1-0.5-0.2-0.8
					c0-0.2-0.1-0.5-0.1-0.8c0-0.2,0-0.4-0.1-0.5c0-0.5-0.1-0.9-0.1-1.4c0-0.5,0-0.9,0.1-1.4c0-0.2,0-0.4,0.1-0.6
					c0-0.2,0.1-0.5,0.1-0.7c0-0.3,0.1-0.6,0.2-0.8l0.1-0.3c0.1-0.3,0.2-0.6,0.3-0.9h4.4c-0.3,1.6-0.4,3.2-0.4,4.8
					c0,1.6,0.1,3.2,0.4,4.8h-4.4C57.6,73,57.5,72.7,57.4,72.4z M58.6,75.6h3.9c0.7,2.8,1.9,5.2,3.3,7.1
					C62.8,81.2,60.2,78.7,58.6,75.6z M71.5,84c-2.8-0.7-5.2-3.8-6.5-8.4h6.5V84z M71.5,73.2h-7c-0.3-1.6-0.4-3.2-0.4-4.8
					c0-1.6,0.1-3.2,0.4-4.8h7V73.2z M71.5,61.3H65c1.3-4.6,3.7-7.7,6.5-8.4V61.3z M80.1,54.6l0.2,0.1c0.4,0.2,0.8,0.5,1.2,0.8
					c2.1,1.4,3.8,3.3,5,5.5c0.1,0.1,0.1,0.2,0.1,0.3l0,0.1h-3.9c-0.7-2.8-1.9-5.2-3.3-7.1C79.6,54.4,79.9,54.5,80.1,54.6z
					 M73.8,52.9c2.8,0.7,5.2,3.8,6.5,8.4h-6.5V52.9z M73.8,63.7h7c0.3,1.6,0.4,3.2,0.4,4.8c0,1.6-0.1,3.2-0.4,4.8h-7V63.7z M73.8,84
					v-8.4h6.5C79,80.2,76.6,83.3,73.8,84z M86.6,75.7c0,0.1-0.1,0.2-0.2,0.3c-1.2,2.2-2.9,4.1-5.1,5.6c-0.4,0.3-0.8,0.5-1.2,0.7
					l0,0.1h0l0,0h-0.2c-0.2,0.1-0.4,0.2-0.7,0.3c1.4-1.9,2.6-4.3,3.3-7.1L86.6,75.7L86.6,75.7z M88.3,69.9c0,0.2,0,0.4-0.1,0.6
					c0,0.2-0.1,0.5-0.1,0.7C88.1,71.5,88,71.7,88,72l-0.1,0.3c-0.1,0.3-0.2,0.6-0.3,1h-4.4c0.3-1.6,0.4-3.2,0.4-4.8
					c0-1.6-0.1-3.2-0.4-4.8h4.4c0.1,0.3,0.2,0.6,0.3,0.9l0.1,0.3c0.1,0.3,0.1,0.6,0.2,0.9c0,0.2,0.1,0.5,0.1,0.7
					c0,0.2,0.1,0.4,0.1,0.6c0,0.5,0.1,0.9,0.1,1.4C88.4,68.9,88.4,69.4,88.3,69.9z"/>
				<path fill="#41AEB5" d="M81.2,46.8c0,0.7,0.5,1.2,1.2,1.2s1.2-0.4,1.2-1.1C82.8,46.7,82,47,81.2,46.8z"/>
				<path fill="#41AEB5" d="M82.4,45.6c-0.7,0-1.2,0.5-1.2,1.2c0.8,0.1,1.6-0.1,2.4,0.1C83.6,46.3,83,45.6,82.4,45.6z"/>
				<path fill="#41AEB5" d="M50.6,72c0-0.7-0.4-1.2-1.1-1.2v2.4C50.2,73.2,50.6,72.6,50.6,72z"/>
				<path fill="#41AEB5" d="M48.2,72c0,0.7,0.7,1.2,1.3,1.2v-2.4C48.9,70.8,48.2,71.3,48.2,72z"/>
			</g>
		</g>
	</g>
</g>
<g id="ICONS_-_SKRILL_PURPLE">
	<g>
		<g>
			<g>
				<path fill="#811E68" d="M26.4,59.6c-0.7,0-1.3,0.6-1.3,1.3c0,0.7,0.6,1.3,1.3,1.3h18.5c0.7,0,1.3-0.6,1.3-1.3
					c0-0.7-0.6-1.3-1.3-1.3H26.4z"/>
				<path fill="#811E68" d="M82.4,45.6c0.7,0,1.2,0.7,1.2,1.3v-10c0-4.1-3.4-7.5-7.5-7.5H21.7c-4.1,0-7.5,3.4-7.5,7.5v28.7
					c0,4.1,3.4,7.5,7.5,7.5h27.8c-0.7,0-1.3-0.5-1.3-1.2c0-0.7,0.7-1.2,1.3-1.2H21.7c-2.8,0-5.1-2.3-5.1-5.1V42.9h64.6v3.9
					C81.2,46.2,81.7,45.6,82.4,45.6z M16.6,40.5v-3.6c0-2.8,2.3-5.1,5.1-5.1h54.3c2.8,0,5.1,2.3,5.1,5.1v3.6H16.6z"/>
				<path fill="#811E68" d="M90.6,66l-0.1-0.4c0-0.1,0-0.3-0.1-0.4c-0.1-0.4-0.2-0.9-0.3-1.3l-0.1-0.3c-0.1-0.5-0.3-0.9-0.5-1.4
					l0-0.1c-2.7-7-9.5-11.7-16.9-11.7S58.4,55.1,55.8,62l0,0.1c-0.2,0.5-0.3,0.9-0.5,1.4l-0.1,0.3c-0.1,0.4-0.2,0.8-0.3,1.3
					c0,0.2,0,0.3-0.1,0.5L54.7,66c0,0.3-0.1,0.5-0.1,0.8c-0.1,0.6-0.1,1.2-0.1,1.7c0,0.5,0,1.1,0.1,1.7c0,0.2,0.1,0.5,0.1,0.7
					l0.1,0.5c0,0.2,0,0.3,0.1,0.5c0.1,0.4,0.2,0.8,0.3,1.2l0.1,0.4c0.1,0.4,0.3,0.9,0.4,1.4l0.1,0.1c2.7,7,9.5,11.7,16.9,11.7
					c7.5,0,14.3-4.7,16.9-11.7l0-0.1c0.2-0.5,0.3-0.9,0.5-1.4l0.1-0.2c0.1-0.4,0.2-0.9,0.3-1.3c0-0.1,0-0.3,0.1-0.4l0.1-0.4
					c0-0.3,0.1-0.5,0.1-0.8c0.1-0.6,0.1-1.2,0.1-1.7s0-1.1-0.1-1.7C90.6,66.5,90.6,66.2,90.6,66z M65.9,54.3
					c-1.4,1.9-2.6,4.3-3.3,7.1h-3.9C60.2,58.2,62.8,55.7,65.9,54.3z M57.4,72.4c0,0-0.1-0.3-0.1-0.4c-0.1-0.3-0.1-0.5-0.2-0.8
					c0-0.2-0.1-0.5-0.1-0.8c0-0.2,0-0.4-0.1-0.5c0-0.5-0.1-0.9-0.1-1.4c0-0.5,0-0.9,0.1-1.4c0-0.2,0-0.4,0.1-0.6
					c0-0.2,0.1-0.5,0.1-0.7c0-0.3,0.1-0.6,0.2-0.8l0.1-0.3c0.1-0.3,0.2-0.6,0.3-0.9h4.4c-0.3,1.6-0.4,3.2-0.4,4.8
					c0,1.6,0.1,3.2,0.4,4.8h-4.4C57.6,73,57.5,72.7,57.4,72.4z M58.6,75.6h3.9c0.7,2.8,1.9,5.2,3.3,7.1
					C62.8,81.2,60.2,78.7,58.6,75.6z M71.5,84c-2.8-0.7-5.2-3.8-6.5-8.4h6.5V84z M71.5,73.2h-7c-0.3-1.6-0.4-3.2-0.4-4.8
					c0-1.6,0.1-3.2,0.4-4.8h7V73.2z M71.5,61.3H65c1.3-4.6,3.7-7.7,6.5-8.4V61.3z M80.1,54.6l0.2,0.1c0.4,0.2,0.8,0.5,1.2,0.8
					c2.1,1.4,3.8,3.3,5,5.5c0.1,0.1,0.1,0.2,0.1,0.3l0,0.1h-3.9c-0.7-2.8-1.9-5.2-3.3-7.1C79.6,54.4,79.9,54.5,80.1,54.6z
					 M73.8,52.9c2.8,0.7,5.2,3.8,6.5,8.4h-6.5V52.9z M73.8,63.7h7c0.3,1.6,0.4,3.2,0.4,4.8c0,1.6-0.1,3.2-0.4,4.8h-7V63.7z M73.8,84
					v-8.4h6.5C79,80.2,76.6,83.3,73.8,84z M86.6,75.7c0,0.1-0.1,0.2-0.2,0.3c-1.2,2.2-2.9,4.1-5.1,5.6c-0.4,0.3-0.8,0.5-1.2,0.7
					l0,0.1h0l0,0h-0.2c-0.2,0.1-0.4,0.2-0.7,0.3c1.4-1.9,2.6-4.3,3.3-7.1L86.6,75.7L86.6,75.7z M88.3,69.9c0,0.2,0,0.4-0.1,0.6
					c0,0.2-0.1,0.5-0.1,0.7C88.1,71.5,88,71.7,88,72l-0.1,0.3c-0.1,0.3-0.2,0.6-0.3,1h-4.4c0.3-1.6,0.4-3.2,0.4-4.8
					c0-1.6-0.1-3.2-0.4-4.8h4.4c0.1,0.3,0.2,0.6,0.3,0.9l0.1,0.3c0.1,0.3,0.1,0.6,0.2,0.9c0,0.2,0.1,0.5,0.1,0.7
					c0,0.2,0.1,0.4,0.1,0.6c0,0.5,0.1,0.9,0.1,1.4C88.4,68.9,88.4,69.4,88.3,69.9z"/>
				<path fill="#811E68" d="M81.2,46.8c0,0.7,0.5,1.2,1.2,1.2s1.2-0.4,1.2-1.1C82.8,46.7,82,47,81.2,46.8z"/>
				<path fill="#811E68" d="M82.4,45.6c-0.7,0-1.2,0.5-1.2,1.2c0.8,0.1,1.6-0.1,2.4,0.1C83.6,46.3,83,45.6,82.4,45.6z"/>
				<path fill="#811E68" d="M50.6,72c0-0.7-0.4-1.2-1.1-1.2v2.4C50.2,73.2,50.6,72.6,50.6,72z"/>
				<path fill="#811E68" d="M48.2,72c0,0.7,0.7,1.2,1.3,1.2v-2.4C48.9,70.8,48.2,71.3,48.2,72z"/>
			</g>
		</g>
	</g>
</g>
<g id="ICONS_-_WHITE" display="none">
	<g display="inline">
		<g>
			<g>
				<path fill="#FFFFFF" d="M26.4,59.6c-0.7,0-1.3,0.6-1.3,1.3c0,0.7,0.6,1.3,1.3,1.3h18.5c0.7,0,1.3-0.6,1.3-1.3
					c0-0.7-0.6-1.3-1.3-1.3H26.4z"/>
				<path fill="#FFFFFF" d="M82.4,45.6c0.7,0,1.2,0.7,1.2,1.3v-10c0-4.1-3.4-7.5-7.5-7.5H21.7c-4.1,0-7.5,3.4-7.5,7.5v28.7
					c0,4.1,3.4,7.5,7.5,7.5h27.8c-0.7,0-1.3-0.5-1.3-1.2c0-0.7,0.7-1.2,1.3-1.2H21.7c-2.8,0-5.1-2.3-5.1-5.1V42.9h64.6v3.9
					C81.2,46.2,81.7,45.6,82.4,45.6z M16.6,40.5v-3.6c0-2.8,2.3-5.1,5.1-5.1h54.3c2.8,0,5.1,2.3,5.1,5.1v3.6H16.6z"/>
				<path fill="#FFFFFF" d="M90.6,66l-0.1-0.4c0-0.1,0-0.3-0.1-0.4c-0.1-0.4-0.2-0.9-0.3-1.3l-0.1-0.3c-0.1-0.5-0.3-0.9-0.5-1.4
					l0-0.1c-2.7-7-9.5-11.7-16.9-11.7S58.4,55.1,55.8,62l0,0.1c-0.2,0.5-0.3,0.9-0.5,1.4l-0.1,0.3c-0.1,0.4-0.2,0.8-0.3,1.3
					c0,0.2,0,0.3-0.1,0.5L54.7,66c0,0.3-0.1,0.5-0.1,0.8c-0.1,0.6-0.1,1.2-0.1,1.7c0,0.5,0,1.1,0.1,1.7c0,0.2,0.1,0.5,0.1,0.7
					l0.1,0.5c0,0.2,0,0.3,0.1,0.5c0.1,0.4,0.2,0.8,0.3,1.2l0.1,0.4c0.1,0.4,0.3,0.9,0.4,1.4l0.1,0.1c2.7,7,9.5,11.7,16.9,11.7
					c7.5,0,14.3-4.7,16.9-11.7l0-0.1c0.2-0.5,0.3-0.9,0.5-1.4l0.1-0.2c0.1-0.4,0.2-0.9,0.3-1.3c0-0.1,0-0.3,0.1-0.4l0.1-0.4
					c0-0.3,0.1-0.5,0.1-0.8c0.1-0.6,0.1-1.2,0.1-1.7s0-1.1-0.1-1.7C90.6,66.5,90.6,66.2,90.6,66z M65.9,54.3
					c-1.4,1.9-2.6,4.3-3.3,7.1h-3.9C60.2,58.2,62.8,55.7,65.9,54.3z M57.4,72.4c0,0-0.1-0.3-0.1-0.4c-0.1-0.3-0.1-0.5-0.2-0.8
					c0-0.2-0.1-0.5-0.1-0.8c0-0.2,0-0.4-0.1-0.5c0-0.5-0.1-0.9-0.1-1.4c0-0.5,0-0.9,0.1-1.4c0-0.2,0-0.4,0.1-0.6
					c0-0.2,0.1-0.5,0.1-0.7c0-0.3,0.1-0.6,0.2-0.8l0.1-0.3c0.1-0.3,0.2-0.6,0.3-0.9h4.4c-0.3,1.6-0.4,3.2-0.4,4.8
					c0,1.6,0.1,3.2,0.4,4.8h-4.4C57.6,73,57.5,72.7,57.4,72.4z M58.6,75.6h3.9c0.7,2.8,1.9,5.2,3.3,7.1
					C62.8,81.2,60.2,78.7,58.6,75.6z M71.5,84c-2.8-0.7-5.2-3.8-6.5-8.4h6.5V84z M71.5,73.2h-7c-0.3-1.6-0.4-3.2-0.4-4.8
					c0-1.6,0.1-3.2,0.4-4.8h7V73.2z M71.5,61.3H65c1.3-4.6,3.7-7.7,6.5-8.4V61.3z M80.1,54.6l0.2,0.1c0.4,0.2,0.8,0.5,1.2,0.8
					c2.1,1.4,3.8,3.3,5,5.5c0.1,0.1,0.1,0.2,0.1,0.3l0,0.1h-3.9c-0.7-2.8-1.9-5.2-3.3-7.1C79.6,54.4,79.9,54.5,80.1,54.6z
					 M73.8,52.9c2.8,0.7,5.2,3.8,6.5,8.4h-6.5V52.9z M73.8,63.7h7c0.3,1.6,0.4,3.2,0.4,4.8c0,1.6-0.1,3.2-0.4,4.8h-7V63.7z M73.8,84
					v-8.4h6.5C79,80.2,76.6,83.3,73.8,84z M86.6,75.7c0,0.1-0.1,0.2-0.2,0.3c-1.2,2.2-2.9,4.1-5.1,5.6c-0.4,0.3-0.8,0.5-1.2,0.7
					l0,0.1h0l0,0h-0.2c-0.2,0.1-0.4,0.2-0.7,0.3c1.4-1.9,2.6-4.3,3.3-7.1L86.6,75.7L86.6,75.7z M88.3,69.9c0,0.2,0,0.4-0.1,0.6
					c0,0.2-0.1,0.5-0.1,0.7C88.1,71.5,88,71.7,88,72l-0.1,0.3c-0.1,0.3-0.2,0.6-0.3,1h-4.4c0.3-1.6,0.4-3.2,0.4-4.8
					c0-1.6-0.1-3.2-0.4-4.8h4.4c0.1,0.3,0.2,0.6,0.3,0.9l0.1,0.3c0.1,0.3,0.1,0.6,0.2,0.9c0,0.2,0.1,0.5,0.1,0.7
					c0,0.2,0.1,0.4,0.1,0.6c0,0.5,0.1,0.9,0.1,1.4C88.4,68.9,88.4,69.4,88.3,69.9z"/>
				<path fill="#FFFFFF" d="M81.2,46.8c0,0.7,0.5,1.2,1.2,1.2s1.2-0.4,1.2-1.1C82.8,46.7,82,47,81.2,46.8z"/>
				<path fill="#FFFFFF" d="M82.4,45.6c-0.7,0-1.2,0.5-1.2,1.2c0.8,0.1,1.6-0.1,2.4,0.1C83.6,46.3,83,45.6,82.4,45.6z"/>
				<path fill="#FFFFFF" d="M50.6,72c0-0.7-0.4-1.2-1.1-1.2v2.4C50.2,73.2,50.6,72.6,50.6,72z"/>
				<path fill="#FFFFFF" d="M48.2,72c0,0.7,0.7,1.2,1.3,1.2v-2.4C48.9,70.8,48.2,71.3,48.2,72z"/>
			</g>
		</g>
	</g>
</g>
<g id="LABELS">
</g>
</svg>
