<?xml version="1.0" encoding="utf-8"?>
<!-- Generator: Adobe Illustrator 18.1.1, SVG Export Plug-In . SVG Version: 6.00 Build 0)  -->
<svg version="1.1" xmlns="http://www.w3.org/2000/svg" xmlns:xlink="http://www.w3.org/1999/xlink" x="0px" y="0px"
	 viewBox="0 0 100 100" enable-background="new 0 0 100 100" xml:space="preserve">
<g id="GUIDES">
</g>
<g id="ICONS_-_BLACK" display="none">
	<g display="inline">
		<g>
			<g>
				<path d="M49.1,56.4L49.1,56.4C49,56.4,49.1,56.4,49.1,56.4z"/>
				<path d="M56,46.6c0.2,0.5,0.7,1.9,0.7,1.9C56.5,47.8,56.3,47.2,56,46.6z"/>
				<path d="M49.2,56.4c0.3,0,0.6,0.1,0.9,0.1C50.2,56.4,49.5,56.4,49.2,56.4z"/>
				<path d="M50.1,43.1c-3.7,0-6.7,3-6.7,6.7c0,3.4,2.5,6.2,5.8,6.6c0.3,0,0.9,0.1,0.9,0.1c-0.3,0-0.6,0-0.9-0.1c-0.1,0-0.1,0-0.1,0
					l13.6,3.9c0.1,0,0.2,0.1,0.4,0.1c0.4,0,0.8-0.2,1-0.5c0.3-0.4,0.3-1,0-1.4l-8-11.8c-0.1-0.2-0.1-0.2,0,0
					c0.3,0.6,0.6,1.2,0.7,1.9c0,0-0.5-1.4-0.7-1.9C54.8,44.5,52.6,43.1,50.1,43.1z M56.3,48.7L56.3,48.7l7.3,9.9
					c0.2,0.3,0.2,0.7,0,1C63.5,59.8,63.3,60,63,60c-0.1,0-0.2,0-0.2,0l-12.2-3.9l-0.1,0c0,0-0.3,0-0.3,0c-3.5,0-6.3-2.8-6.3-6.3
					s2.8-6.3,6.3-6.3c3,0,5.6,2.1,6.2,5.1L56.3,48.7z"/>
				<path d="M50.1,45.1c-2.6,0-4.6,2.1-4.6,4.6c0,2.6,2.1,4.6,4.6,4.6s4.6-2.1,4.6-4.6C54.7,47.2,52.6,45.1,50.1,45.1z M50.1,54
					c-2.3,0-4.2-1.9-4.2-4.2s1.9-4.2,4.2-4.2s4.2,1.9,4.2,4.2S52.4,54,50.1,54z"/>
				<path d="M53.9,54.7l0.1,0.7l5.6,1.8l0.4-0.6l-3.5-4.7L56,52C55.5,53.1,54.8,54,53.9,54.7z M56.3,52.1l3.5,4.7l-5.6-1.8
					C55.1,54.3,55.9,53.3,56.3,52.1z"/>
				<path d="M50.1,43.5c-3.5,0-6.3,2.8-6.3,6.3s2.8,6.3,6.3,6.3c0.1,0,0.3,0,0.3,0l0.1,0l12.2,3.9c0.1,0,0.2,0,0.2,0
					c0.3,0,0.5-0.1,0.7-0.3c0.2-0.3,0.2-0.7,0-1l-7.3-9.9l0,0l-0.1-0.2C55.7,45.6,53.1,43.5,50.1,43.5z M50.1,54.4
					c-2.6,0-4.6-2.1-4.6-4.6c0-2.6,2.1-4.6,4.6-4.6s4.6,2.1,4.6,4.6C54.7,52.3,52.6,54.4,50.1,54.4z M56.6,51.9l3.5,4.7l-0.4,0.6
					L54,55.4l-0.1-0.7c0.9-0.7,1.6-1.7,2-2.7L56.6,51.9z"/>
				<path d="M64,80.5c-0.5,0-0.9-0.3-1.1-0.7c-0.1-0.3-0.2-0.6,0-0.9c0.1-0.3,0.3-0.6,0.6-0.7c4.2-2,8-5,11-8.7l-0.1-0.7l-3.6-2.5
					c-0.3-0.2-0.5-0.5-0.5-0.9c0-0.4,0-0.7,0.3-1c0.3-0.3,0.6-0.5,1.1-0.5c0.3,0,0.6,0.1,0.8,0.3l3.4,2.6l0.7-0.1
					c3.1-4.7,4.8-10.1,5.1-15.5l-0.4-0.5l-4,0c-0.7,0-1.2-0.6-1.2-1.2s0.6-1.2,1.2-1.2h4l0.5-0.4l0-0.5l0-0.2c0-0.3-0.1-0.7-0.1-1
					c0-0.3-0.1-0.7-0.1-1c0-0.2-0.1-0.5-0.1-0.7c-0.1-0.4-0.1-0.8-0.2-1.1L81,42.7c-0.8-3.8-2.3-7.4-4.5-10.7l-0.6-0.1l-3.2,2.3l0,0
					l-0.1,0l-0.1,0.1c-0.2,0.2-0.5,0.2-0.7,0.2c-0.4,0-0.8-0.2-1-0.5c-0.4-0.6-0.3-1.3,0.3-1.7l0.1-0.1l0.1-0.2l0,0.1l3.2-2.3
					l0.1-0.6c-3.5-4.4-8.1-7.7-13.3-9.7l-0.5,0.2l-1.2,3.7c0,0.1,0,0.2-0.1,0.2c-0.2,0.5-0.6,0.9-1.2,0.9c-0.1,0-0.3,0-0.4-0.1
					c-0.6-0.2-1-1-0.8-1.6l1.2-3.8l-0.2-0.5c-2.7-0.8-5.5-1.1-8.3-1.1c-2.8,0-5.5,0.4-8.2,1.1L41.3,19l1.2,3.8
					c0.1,0.3,0.1,0.6-0.1,0.9c-0.2,0.3-0.4,0.5-0.7,0.6c-0.1,0.1-0.3,0.1-0.4,0.1c-0.5,0-0.9-0.3-1.1-0.8l-1.2-3.7l-0.5-0.3
					c-4.2,1.6-7.9,4-11.1,7.1L27,26.9c-0.3,0.3-0.6,0.6-0.9,0.9c-0.1,0.2-0.3,0.3-0.4,0.5l-0.3,0.3c-0.1,0.2-0.3,0.3-0.4,0.5
					l0.1,0.6l3.2,2.4l0.1,0c0.6,0.4,0.7,1.2,0.3,1.7c-0.2,0.3-0.6,0.5-1,0.5c-0.3,0-0.5-0.1-0.7-0.2l-0.1-0.1l0,0l-3.2-2.3l-0.6,0.1
					C20,36.6,18.2,42,17.9,47.5l0.4,0.5l4.1,0c0.7,0,1.3,0.6,1.3,1.2s-0.6,1.2-1.3,1.2h-4L18,51c0.3,5.6,2,11,5,15.6l0.6,0.1
					l3.2-2.3c0.2-0.2,0.5-0.3,0.7-0.3c0.4,0,0.7,0.2,1,0.5c0.2,0.3,0.3,0.6,0.3,0.9s-0.2,0.6-0.5,0.8l-3.2,2.3l-0.1,0.6
					c3.1,3.8,6.9,6.7,11.3,8.8c0.3,0.1,0.5,0.4,0.6,0.7c0.1,0.3,0.1,0.6,0,1c-0.2,0.4-0.6,0.7-1.1,0.7c-0.2,0-0.4,0-0.5-0.1
					c-4.7-2.2-8.9-5.5-12.3-9.6L23,70.7L21.1,68c-0.4-0.7-0.9-1.4-1.4-2.3c-3-5.1-4.6-10.8-4.6-16.4c0-19.1,15.5-34.6,34.6-34.6
					s34.6,15.5,34.6,34.6c0,12-6,22.6-16.3,29l-0.4,0.3c-0.3,0.2-0.7,0.4-1,0.6c-0.5,0.3-1,0.6-1.6,0.8l-0.3,0.2l-0.1,0.1
					C64.3,80.4,64.2,80.5,64,80.5z"/>
			</g>
		</g>
	</g>
</g>
<g id="ICONS_-_DARK_PURPLE" display="none">
	<g display="inline">
		<g>
			<g>
				<path fill="#4F2556" d="M49.1,56.4L49.1,56.4C49,56.4,49.1,56.4,49.1,56.4z"/>
				<path fill="#4F2556" d="M56,46.6c0.2,0.5,0.7,1.9,0.7,1.9C56.5,47.8,56.3,47.2,56,46.6z"/>
				<path fill="#4F2556" d="M49.2,56.4c0.3,0,0.6,0.1,0.9,0.1C50.2,56.4,49.5,56.4,49.2,56.4z"/>
				<path fill="#4F2556" d="M50.1,43.1c-3.7,0-6.7,3-6.7,6.7c0,3.4,2.5,6.2,5.8,6.6c0.3,0,0.9,0.1,0.9,0.1c-0.3,0-0.6,0-0.9-0.1
					c-0.1,0-0.1,0-0.1,0l13.6,3.9c0.1,0,0.2,0.1,0.4,0.1c0.4,0,0.8-0.2,1-0.5c0.3-0.4,0.3-1,0-1.4l-8-11.8c-0.1-0.2-0.1-0.2,0,0
					c0.3,0.6,0.6,1.2,0.7,1.9c0,0-0.5-1.4-0.7-1.9C54.8,44.5,52.6,43.1,50.1,43.1z M56.3,48.7L56.3,48.7l7.3,9.9
					c0.2,0.3,0.2,0.7,0,1C63.5,59.8,63.3,60,63,60c-0.1,0-0.2,0-0.2,0l-12.2-3.9l-0.1,0c0,0-0.3,0-0.3,0c-3.5,0-6.3-2.8-6.3-6.3
					s2.8-6.3,6.3-6.3c3,0,5.6,2.1,6.2,5.1L56.3,48.7z"/>
				<path fill="#4F2556" d="M50.1,45.1c-2.6,0-4.6,2.1-4.6,4.6c0,2.6,2.1,4.6,4.6,4.6s4.6-2.1,4.6-4.6
					C54.7,47.2,52.6,45.1,50.1,45.1z M50.1,54c-2.3,0-4.2-1.9-4.2-4.2s1.9-4.2,4.2-4.2s4.2,1.9,4.2,4.2S52.4,54,50.1,54z"/>
				<path fill="#4F2556" d="M53.9,54.7l0.1,0.7l5.6,1.8l0.4-0.6l-3.5-4.7L56,52C55.5,53.1,54.8,54,53.9,54.7z M56.3,52.1l3.5,4.7
					l-5.6-1.8C55.1,54.3,55.9,53.3,56.3,52.1z"/>
				<path fill="#4F2556" d="M50.1,43.5c-3.5,0-6.3,2.8-6.3,6.3s2.8,6.3,6.3,6.3c0.1,0,0.3,0,0.3,0l0.1,0l12.2,3.9c0.1,0,0.2,0,0.2,0
					c0.3,0,0.5-0.1,0.7-0.3c0.2-0.3,0.2-0.7,0-1l-7.3-9.9l0,0l-0.1-0.2C55.7,45.6,53.1,43.5,50.1,43.5z M50.1,54.4
					c-2.6,0-4.6-2.1-4.6-4.6c0-2.6,2.1-4.6,4.6-4.6s4.6,2.1,4.6,4.6C54.7,52.3,52.6,54.4,50.1,54.4z M56.6,51.9l3.5,4.7l-0.4,0.6
					L54,55.4l-0.1-0.7c0.9-0.7,1.6-1.7,2-2.7L56.6,51.9z"/>
				<path fill="#4F2556" d="M64,80.5c-0.5,0-0.9-0.3-1.1-0.7c-0.1-0.3-0.2-0.6,0-0.9c0.1-0.3,0.3-0.6,0.6-0.7c4.2-2,8-5,11-8.7
					l-0.1-0.7l-3.6-2.5c-0.3-0.2-0.5-0.5-0.5-0.9c0-0.4,0-0.7,0.3-1c0.3-0.3,0.6-0.5,1.1-0.5c0.3,0,0.6,0.1,0.8,0.3l3.4,2.6l0.7-0.1
					c3.1-4.7,4.8-10.1,5.1-15.5l-0.4-0.5l-4,0c-0.7,0-1.2-0.6-1.2-1.2s0.6-1.2,1.2-1.2h4l0.5-0.4l0-0.5l0-0.2c0-0.3-0.1-0.7-0.1-1
					c0-0.3-0.1-0.7-0.1-1c0-0.2-0.1-0.5-0.1-0.7c-0.1-0.4-0.1-0.8-0.2-1.1L81,42.7c-0.8-3.8-2.3-7.4-4.5-10.7l-0.6-0.1l-3.2,2.3l0,0
					l-0.1,0l-0.1,0.1c-0.2,0.2-0.5,0.2-0.7,0.2c-0.4,0-0.8-0.2-1-0.5c-0.4-0.6-0.3-1.3,0.3-1.7l0.1-0.1l0.1-0.2l0,0.1l3.2-2.3
					l0.1-0.6c-3.5-4.4-8.1-7.7-13.3-9.7l-0.5,0.2l-1.2,3.7c0,0.1,0,0.2-0.1,0.2c-0.2,0.5-0.6,0.9-1.2,0.9c-0.1,0-0.3,0-0.4-0.1
					c-0.6-0.2-1-1-0.8-1.6l1.2-3.8l-0.2-0.5c-2.7-0.8-5.5-1.1-8.3-1.1c-2.8,0-5.5,0.4-8.2,1.1L41.3,19l1.2,3.8
					c0.1,0.3,0.1,0.6-0.1,0.9c-0.2,0.3-0.4,0.5-0.7,0.6c-0.1,0.1-0.3,0.1-0.4,0.1c-0.5,0-0.9-0.3-1.1-0.8l-1.2-3.7l-0.5-0.3
					c-4.2,1.6-7.9,4-11.1,7.1L27,26.9c-0.3,0.3-0.6,0.6-0.9,0.9c-0.1,0.2-0.3,0.3-0.4,0.5l-0.3,0.3c-0.1,0.2-0.3,0.3-0.4,0.5
					l0.1,0.6l3.2,2.4l0.1,0c0.6,0.4,0.7,1.2,0.3,1.7c-0.2,0.3-0.6,0.5-1,0.5c-0.3,0-0.5-0.1-0.7-0.2l-0.1-0.1l0,0l-3.2-2.3l-0.6,0.1
					C20,36.6,18.2,42,17.9,47.5l0.4,0.5l4.1,0c0.7,0,1.3,0.6,1.3,1.2s-0.6,1.2-1.3,1.2h-4L18,51c0.3,5.6,2,11,5,15.6l0.6,0.1
					l3.2-2.3c0.2-0.2,0.5-0.3,0.7-0.3c0.4,0,0.7,0.2,1,0.5c0.2,0.3,0.3,0.6,0.3,0.9s-0.2,0.6-0.5,0.8l-3.2,2.3l-0.1,0.6
					c3.1,3.8,6.9,6.7,11.3,8.8c0.3,0.1,0.5,0.4,0.6,0.7c0.1,0.3,0.1,0.6,0,1c-0.2,0.4-0.6,0.7-1.1,0.7c-0.2,0-0.4,0-0.5-0.1
					c-4.7-2.2-8.9-5.5-12.3-9.6L23,70.7L21.1,68c-0.4-0.7-0.9-1.4-1.4-2.3c-3-5.1-4.6-10.8-4.6-16.4c0-19.1,15.5-34.6,34.6-34.6
					s34.6,15.5,34.6,34.6c0,12-6,22.6-16.3,29l-0.4,0.3c-0.3,0.2-0.7,0.4-1,0.6c-0.5,0.3-1,0.6-1.6,0.8l-0.3,0.2l-0.1,0.1
					C64.3,80.4,64.2,80.5,64,80.5z"/>
			</g>
		</g>
	</g>
</g>
<g id="ICONS_-_WARM_GREY" display="none">
	<g display="inline">
		<g>
			<g>
				<path fill="#534C63" d="M49.1,56.4L49.1,56.4C49,56.4,49.1,56.4,49.1,56.4z"/>
				<path fill="#534C63" d="M56,46.6c0.2,0.5,0.7,1.9,0.7,1.9C56.5,47.8,56.3,47.2,56,46.6z"/>
				<path fill="#534C63" d="M49.2,56.4c0.3,0,0.6,0.1,0.9,0.1C50.2,56.4,49.5,56.4,49.2,56.4z"/>
				<path fill="#534C63" d="M50.1,43.1c-3.7,0-6.7,3-6.7,6.7c0,3.4,2.5,6.2,5.8,6.6c0.3,0,0.9,0.1,0.9,0.1c-0.3,0-0.6,0-0.9-0.1
					c-0.1,0-0.1,0-0.1,0l13.6,3.9c0.1,0,0.2,0.1,0.4,0.1c0.4,0,0.8-0.2,1-0.5c0.3-0.4,0.3-1,0-1.4l-8-11.8c-0.1-0.2-0.1-0.2,0,0
					c0.3,0.6,0.6,1.2,0.7,1.9c0,0-0.5-1.4-0.7-1.9C54.8,44.5,52.6,43.1,50.1,43.1z M56.3,48.7L56.3,48.7l7.3,9.9
					c0.2,0.3,0.2,0.7,0,1C63.5,59.8,63.3,60,63,60c-0.1,0-0.2,0-0.2,0l-12.2-3.9l-0.1,0c0,0-0.3,0-0.3,0c-3.5,0-6.3-2.8-6.3-6.3
					s2.8-6.3,6.3-6.3c3,0,5.6,2.1,6.2,5.1L56.3,48.7z"/>
				<path fill="#534C63" d="M50.1,45.1c-2.6,0-4.6,2.1-4.6,4.6c0,2.6,2.1,4.6,4.6,4.6s4.6-2.1,4.6-4.6
					C54.7,47.2,52.6,45.1,50.1,45.1z M50.1,54c-2.3,0-4.2-1.9-4.2-4.2s1.9-4.2,4.2-4.2s4.2,1.9,4.2,4.2S52.4,54,50.1,54z"/>
				<path fill="#534C63" d="M53.9,54.7l0.1,0.7l5.6,1.8l0.4-0.6l-3.5-4.7L56,52C55.5,53.1,54.8,54,53.9,54.7z M56.3,52.1l3.5,4.7
					l-5.6-1.8C55.1,54.3,55.9,53.3,56.3,52.1z"/>
				<path fill="#534C63" d="M50.1,43.5c-3.5,0-6.3,2.8-6.3,6.3s2.8,6.3,6.3,6.3c0.1,0,0.3,0,0.3,0l0.1,0l12.2,3.9c0.1,0,0.2,0,0.2,0
					c0.3,0,0.5-0.1,0.7-0.3c0.2-0.3,0.2-0.7,0-1l-7.3-9.9l0,0l-0.1-0.2C55.7,45.6,53.1,43.5,50.1,43.5z M50.1,54.4
					c-2.6,0-4.6-2.1-4.6-4.6c0-2.6,2.1-4.6,4.6-4.6s4.6,2.1,4.6,4.6C54.7,52.3,52.6,54.4,50.1,54.4z M56.6,51.9l3.5,4.7l-0.4,0.6
					L54,55.4l-0.1-0.7c0.9-0.7,1.6-1.7,2-2.7L56.6,51.9z"/>
				<path fill="#534C63" d="M64,80.5c-0.5,0-0.9-0.3-1.1-0.7c-0.1-0.3-0.2-0.6,0-0.9c0.1-0.3,0.3-0.6,0.6-0.7c4.2-2,8-5,11-8.7
					l-0.1-0.7l-3.6-2.5c-0.3-0.2-0.5-0.5-0.5-0.9c0-0.4,0-0.7,0.3-1c0.3-0.3,0.6-0.5,1.1-0.5c0.3,0,0.6,0.1,0.8,0.3l3.4,2.6l0.7-0.1
					c3.1-4.7,4.8-10.1,5.1-15.5l-0.4-0.5l-4,0c-0.7,0-1.2-0.6-1.2-1.2s0.6-1.2,1.2-1.2h4l0.5-0.4l0-0.5l0-0.2c0-0.3-0.1-0.7-0.1-1
					c0-0.3-0.1-0.7-0.1-1c0-0.2-0.1-0.5-0.1-0.7c-0.1-0.4-0.1-0.8-0.2-1.1L81,42.7c-0.8-3.8-2.3-7.4-4.5-10.7l-0.6-0.1l-3.2,2.3l0,0
					l-0.1,0l-0.1,0.1c-0.2,0.2-0.5,0.2-0.7,0.2c-0.4,0-0.8-0.2-1-0.5c-0.4-0.6-0.3-1.3,0.3-1.7l0.1-0.1l0.1-0.2l0,0.1l3.2-2.3
					l0.1-0.6c-3.5-4.4-8.1-7.7-13.3-9.7l-0.5,0.2l-1.2,3.7c0,0.1,0,0.2-0.1,0.2c-0.2,0.5-0.6,0.9-1.2,0.9c-0.1,0-0.3,0-0.4-0.1
					c-0.6-0.2-1-1-0.8-1.6l1.2-3.8l-0.2-0.5c-2.7-0.8-5.5-1.1-8.3-1.1c-2.8,0-5.5,0.4-8.2,1.1L41.3,19l1.2,3.8
					c0.1,0.3,0.1,0.6-0.1,0.9c-0.2,0.3-0.4,0.5-0.7,0.6c-0.1,0.1-0.3,0.1-0.4,0.1c-0.5,0-0.9-0.3-1.1-0.8l-1.2-3.7l-0.5-0.3
					c-4.2,1.6-7.9,4-11.1,7.1L27,26.9c-0.3,0.3-0.6,0.6-0.9,0.9c-0.1,0.2-0.3,0.3-0.4,0.5l-0.3,0.3c-0.1,0.2-0.3,0.3-0.4,0.5
					l0.1,0.6l3.2,2.4l0.1,0c0.6,0.4,0.7,1.2,0.3,1.7c-0.2,0.3-0.6,0.5-1,0.5c-0.3,0-0.5-0.1-0.7-0.2l-0.1-0.1l0,0l-3.2-2.3l-0.6,0.1
					C20,36.6,18.2,42,17.9,47.5l0.4,0.5l4.1,0c0.7,0,1.3,0.6,1.3,1.2s-0.6,1.2-1.3,1.2h-4L18,51c0.3,5.6,2,11,5,15.6l0.6,0.1
					l3.2-2.3c0.2-0.2,0.5-0.3,0.7-0.3c0.4,0,0.7,0.2,1,0.5c0.2,0.3,0.3,0.6,0.3,0.9s-0.2,0.6-0.5,0.8l-3.2,2.3l-0.1,0.6
					c3.1,3.8,6.9,6.7,11.3,8.8c0.3,0.1,0.5,0.4,0.6,0.7c0.1,0.3,0.1,0.6,0,1c-0.2,0.4-0.6,0.7-1.1,0.7c-0.2,0-0.4,0-0.5-0.1
					c-4.7-2.2-8.9-5.5-12.3-9.6L23,70.7L21.1,68c-0.4-0.7-0.9-1.4-1.4-2.3c-3-5.1-4.6-10.8-4.6-16.4c0-19.1,15.5-34.6,34.6-34.6
					s34.6,15.5,34.6,34.6c0,12-6,22.6-16.3,29l-0.4,0.3c-0.3,0.2-0.7,0.4-1,0.6c-0.5,0.3-1,0.6-1.6,0.8l-0.3,0.2l-0.1,0.1
					C64.3,80.4,64.2,80.5,64,80.5z"/>
			</g>
		</g>
	</g>
</g>
<g id="ICONS_-_SKRILL_TEAL" display="none">
	<g display="inline">
		<g>
			<g>
				<path fill="#41AEB5" d="M49.1,56.4L49.1,56.4C49,56.4,49.1,56.4,49.1,56.4z"/>
				<path fill="#41AEB5" d="M56,46.6c0.2,0.5,0.7,1.9,0.7,1.9C56.5,47.8,56.3,47.2,56,46.6z"/>
				<path fill="#41AEB5" d="M49.2,56.4c0.3,0,0.6,0.1,0.9,0.1C50.2,56.4,49.5,56.4,49.2,56.4z"/>
				<path fill="#41AEB5" d="M50.1,43.1c-3.7,0-6.7,3-6.7,6.7c0,3.4,2.5,6.2,5.8,6.6c0.3,0,0.9,0.1,0.9,0.1c-0.3,0-0.6,0-0.9-0.1
					c-0.1,0-0.1,0-0.1,0l13.6,3.9c0.1,0,0.2,0.1,0.4,0.1c0.4,0,0.8-0.2,1-0.5c0.3-0.4,0.3-1,0-1.4l-8-11.8c-0.1-0.2-0.1-0.2,0,0
					c0.3,0.6,0.6,1.2,0.7,1.9c0,0-0.5-1.4-0.7-1.9C54.8,44.5,52.6,43.1,50.1,43.1z M56.3,48.7L56.3,48.7l7.3,9.9
					c0.2,0.3,0.2,0.7,0,1C63.5,59.8,63.3,60,63,60c-0.1,0-0.2,0-0.2,0l-12.2-3.9l-0.1,0c0,0-0.3,0-0.3,0c-3.5,0-6.3-2.8-6.3-6.3
					s2.8-6.3,6.3-6.3c3,0,5.6,2.1,6.2,5.1L56.3,48.7z"/>
				<path fill="#41AEB5" d="M50.1,45.1c-2.6,0-4.6,2.1-4.6,4.6c0,2.6,2.1,4.6,4.6,4.6s4.6-2.1,4.6-4.6
					C54.7,47.2,52.6,45.1,50.1,45.1z M50.1,54c-2.3,0-4.2-1.9-4.2-4.2s1.9-4.2,4.2-4.2s4.2,1.9,4.2,4.2S52.4,54,50.1,54z"/>
				<path fill="#41AEB5" d="M53.9,54.7l0.1,0.7l5.6,1.8l0.4-0.6l-3.5-4.7L56,52C55.5,53.1,54.8,54,53.9,54.7z M56.3,52.1l3.5,4.7
					l-5.6-1.8C55.1,54.3,55.9,53.3,56.3,52.1z"/>
				<path fill="#41AEB5" d="M50.1,43.5c-3.5,0-6.3,2.8-6.3,6.3s2.8,6.3,6.3,6.3c0.1,0,0.3,0,0.3,0l0.1,0l12.2,3.9c0.1,0,0.2,0,0.2,0
					c0.3,0,0.5-0.1,0.7-0.3c0.2-0.3,0.2-0.7,0-1l-7.3-9.9l0,0l-0.1-0.2C55.7,45.6,53.1,43.5,50.1,43.5z M50.1,54.4
					c-2.6,0-4.6-2.1-4.6-4.6c0-2.6,2.1-4.6,4.6-4.6s4.6,2.1,4.6,4.6C54.7,52.3,52.6,54.4,50.1,54.4z M56.6,51.9l3.5,4.7l-0.4,0.6
					L54,55.4l-0.1-0.7c0.9-0.7,1.6-1.7,2-2.7L56.6,51.9z"/>
				<path fill="#41AEB5" d="M64,80.5c-0.5,0-0.9-0.3-1.1-0.7c-0.1-0.3-0.2-0.6,0-0.9c0.1-0.3,0.3-0.6,0.6-0.7c4.2-2,8-5,11-8.7
					l-0.1-0.7l-3.6-2.5c-0.3-0.2-0.5-0.5-0.5-0.9c0-0.4,0-0.7,0.3-1c0.3-0.3,0.6-0.5,1.1-0.5c0.3,0,0.6,0.1,0.8,0.3l3.4,2.6l0.7-0.1
					c3.1-4.7,4.8-10.1,5.1-15.5l-0.4-0.5l-4,0c-0.7,0-1.2-0.6-1.2-1.2s0.6-1.2,1.2-1.2h4l0.5-0.4l0-0.5l0-0.2c0-0.3-0.1-0.7-0.1-1
					c0-0.3-0.1-0.7-0.1-1c0-0.2-0.1-0.5-0.1-0.7c-0.1-0.4-0.1-0.8-0.2-1.1L81,42.7c-0.8-3.8-2.3-7.4-4.5-10.7l-0.6-0.1l-3.2,2.3l0,0
					l-0.1,0l-0.1,0.1c-0.2,0.2-0.5,0.2-0.7,0.2c-0.4,0-0.8-0.2-1-0.5c-0.4-0.6-0.3-1.3,0.3-1.7l0.1-0.1l0.1-0.2l0,0.1l3.2-2.3
					l0.1-0.6c-3.5-4.4-8.1-7.7-13.3-9.7l-0.5,0.2l-1.2,3.7c0,0.1,0,0.2-0.1,0.2c-0.2,0.5-0.6,0.9-1.2,0.9c-0.1,0-0.3,0-0.4-0.1
					c-0.6-0.2-1-1-0.8-1.6l1.2-3.8l-0.2-0.5c-2.7-0.8-5.5-1.1-8.3-1.1c-2.8,0-5.5,0.4-8.2,1.1L41.3,19l1.2,3.8
					c0.1,0.3,0.1,0.6-0.1,0.9c-0.2,0.3-0.4,0.5-0.7,0.6c-0.1,0.1-0.3,0.1-0.4,0.1c-0.5,0-0.9-0.3-1.1-0.8l-1.2-3.7l-0.5-0.3
					c-4.2,1.6-7.9,4-11.1,7.1L27,26.9c-0.3,0.3-0.6,0.6-0.9,0.9c-0.1,0.2-0.3,0.3-0.4,0.5l-0.3,0.3c-0.1,0.2-0.3,0.3-0.4,0.5
					l0.1,0.6l3.2,2.4l0.1,0c0.6,0.4,0.7,1.2,0.3,1.7c-0.2,0.3-0.6,0.5-1,0.5c-0.3,0-0.5-0.1-0.7-0.2l-0.1-0.1l0,0l-3.2-2.3l-0.6,0.1
					C20,36.6,18.2,42,17.9,47.5l0.4,0.5l4.1,0c0.7,0,1.3,0.6,1.3,1.2s-0.6,1.2-1.3,1.2h-4L18,51c0.3,5.6,2,11,5,15.6l0.6,0.1
					l3.2-2.3c0.2-0.2,0.5-0.3,0.7-0.3c0.4,0,0.7,0.2,1,0.5c0.2,0.3,0.3,0.6,0.3,0.9s-0.2,0.6-0.5,0.8l-3.2,2.3l-0.1,0.6
					c3.1,3.8,6.9,6.7,11.3,8.8c0.3,0.1,0.5,0.4,0.6,0.7c0.1,0.3,0.1,0.6,0,1c-0.2,0.4-0.6,0.7-1.1,0.7c-0.2,0-0.4,0-0.5-0.1
					c-4.7-2.2-8.9-5.5-12.3-9.6L23,70.7L21.1,68c-0.4-0.7-0.9-1.4-1.4-2.3c-3-5.1-4.6-10.8-4.6-16.4c0-19.1,15.5-34.6,34.6-34.6
					s34.6,15.5,34.6,34.6c0,12-6,22.6-16.3,29l-0.4,0.3c-0.3,0.2-0.7,0.4-1,0.6c-0.5,0.3-1,0.6-1.6,0.8l-0.3,0.2l-0.1,0.1
					C64.3,80.4,64.2,80.5,64,80.5z"/>
			</g>
		</g>
	</g>
</g>
<g id="ICONS_-_SKRILL_PURPLE">
	<g>
		<g>
			<g>
				<path fill="#811E68" d="M49.1,56.4L49.1,56.4C49,56.4,49.1,56.4,49.1,56.4z"/>
				<path fill="#811E68" d="M56,46.6c0.2,0.5,0.7,1.9,0.7,1.9C56.5,47.8,56.3,47.2,56,46.6z"/>
				<path fill="#811E68" d="M49.2,56.4c0.3,0,0.6,0.1,0.9,0.1C50.2,56.4,49.5,56.4,49.2,56.4z"/>
				<path fill="#811E68" d="M50.1,43.1c-3.7,0-6.7,3-6.7,6.7c0,3.4,2.5,6.2,5.8,6.6c0.3,0,0.9,0.1,0.9,0.1c-0.3,0-0.6,0-0.9-0.1
					c-0.1,0-0.1,0-0.1,0l13.6,3.9c0.1,0,0.2,0.1,0.4,0.1c0.4,0,0.8-0.2,1-0.5c0.3-0.4,0.3-1,0-1.4l-8-11.8c-0.1-0.2-0.1-0.2,0,0
					c0.3,0.6,0.6,1.2,0.7,1.9c0,0-0.5-1.4-0.7-1.9C54.8,44.5,52.6,43.1,50.1,43.1z M56.3,48.7L56.3,48.7l7.3,9.9
					c0.2,0.3,0.2,0.7,0,1C63.5,59.8,63.3,60,63,60c-0.1,0-0.2,0-0.2,0l-12.2-3.9l-0.1,0c0,0-0.3,0-0.3,0c-3.5,0-6.3-2.8-6.3-6.3
					s2.8-6.3,6.3-6.3c3,0,5.6,2.1,6.2,5.1L56.3,48.7z"/>
				<path fill="#811E68" d="M50.1,45.1c-2.6,0-4.6,2.1-4.6,4.6c0,2.6,2.1,4.6,4.6,4.6s4.6-2.1,4.6-4.6
					C54.7,47.2,52.6,45.1,50.1,45.1z M50.1,54c-2.3,0-4.2-1.9-4.2-4.2s1.9-4.2,4.2-4.2s4.2,1.9,4.2,4.2S52.4,54,50.1,54z"/>
				<path fill="#811E68" d="M53.9,54.7l0.1,0.7l5.6,1.8l0.4-0.6l-3.5-4.7L56,52C55.5,53.1,54.8,54,53.9,54.7z M56.3,52.1l3.5,4.7
					l-5.6-1.8C55.1,54.3,55.9,53.3,56.3,52.1z"/>
				<path fill="#811E68" d="M50.1,43.5c-3.5,0-6.3,2.8-6.3,6.3s2.8,6.3,6.3,6.3c0.1,0,0.3,0,0.3,0l0.1,0l12.2,3.9c0.1,0,0.2,0,0.2,0
					c0.3,0,0.5-0.1,0.7-0.3c0.2-0.3,0.2-0.7,0-1l-7.3-9.9l0,0l-0.1-0.2C55.7,45.6,53.1,43.5,50.1,43.5z M50.1,54.4
					c-2.6,0-4.6-2.1-4.6-4.6c0-2.6,2.1-4.6,4.6-4.6s4.6,2.1,4.6,4.6C54.7,52.3,52.6,54.4,50.1,54.4z M56.6,51.9l3.5,4.7l-0.4,0.6
					L54,55.4l-0.1-0.7c0.9-0.7,1.6-1.7,2-2.7L56.6,51.9z"/>
				<path fill="#811E68" d="M64,80.5c-0.5,0-0.9-0.3-1.1-0.7c-0.1-0.3-0.2-0.6,0-0.9c0.1-0.3,0.3-0.6,0.6-0.7c4.2-2,8-5,11-8.7
					l-0.1-0.7l-3.6-2.5c-0.3-0.2-0.5-0.5-0.5-0.9c0-0.4,0-0.7,0.3-1c0.3-0.3,0.6-0.5,1.1-0.5c0.3,0,0.6,0.1,0.8,0.3l3.4,2.6l0.7-0.1
					c3.1-4.7,4.8-10.1,5.1-15.5l-0.4-0.5l-4,0c-0.7,0-1.2-0.6-1.2-1.2s0.6-1.2,1.2-1.2h4l0.5-0.4l0-0.5l0-0.2c0-0.3-0.1-0.7-0.1-1
					c0-0.3-0.1-0.7-0.1-1c0-0.2-0.1-0.5-0.1-0.7c-0.1-0.4-0.1-0.8-0.2-1.1L81,42.7c-0.8-3.8-2.3-7.4-4.5-10.7l-0.6-0.1l-3.2,2.3l0,0
					l-0.1,0l-0.1,0.1c-0.2,0.2-0.5,0.2-0.7,0.2c-0.4,0-0.8-0.2-1-0.5c-0.4-0.6-0.3-1.3,0.3-1.7l0.1-0.1l0.1-0.2l0,0.1l3.2-2.3
					l0.1-0.6c-3.5-4.4-8.1-7.7-13.3-9.7l-0.5,0.2l-1.2,3.7c0,0.1,0,0.2-0.1,0.2c-0.2,0.5-0.6,0.9-1.2,0.9c-0.1,0-0.3,0-0.4-0.1
					c-0.6-0.2-1-1-0.8-1.6l1.2-3.8l-0.2-0.5c-2.7-0.8-5.5-1.1-8.3-1.1c-2.8,0-5.5,0.4-8.2,1.1L41.3,19l1.2,3.8
					c0.1,0.3,0.1,0.6-0.1,0.9c-0.2,0.3-0.4,0.5-0.7,0.6c-0.1,0.1-0.3,0.1-0.4,0.1c-0.5,0-0.9-0.3-1.1-0.8l-1.2-3.7l-0.5-0.3
					c-4.2,1.6-7.9,4-11.1,7.1L27,26.9c-0.3,0.3-0.6,0.6-0.9,0.9c-0.1,0.2-0.3,0.3-0.4,0.5l-0.3,0.3c-0.1,0.2-0.3,0.3-0.4,0.5
					l0.1,0.6l3.2,2.4l0.1,0c0.6,0.4,0.7,1.2,0.3,1.7c-0.2,0.3-0.6,0.5-1,0.5c-0.3,0-0.5-0.1-0.7-0.2l-0.1-0.1l0,0l-3.2-2.3l-0.6,0.1
					C20,36.6,18.2,42,17.9,47.5l0.4,0.5l4.1,0c0.7,0,1.3,0.6,1.3,1.2s-0.6,1.2-1.3,1.2h-4L18,51c0.3,5.6,2,11,5,15.6l0.6,0.1
					l3.2-2.3c0.2-0.2,0.5-0.3,0.7-0.3c0.4,0,0.7,0.2,1,0.5c0.2,0.3,0.3,0.6,0.3,0.9s-0.2,0.6-0.5,0.8l-3.2,2.3l-0.1,0.6
					c3.1,3.8,6.9,6.7,11.3,8.8c0.3,0.1,0.5,0.4,0.6,0.7c0.1,0.3,0.1,0.6,0,1c-0.2,0.4-0.6,0.7-1.1,0.7c-0.2,0-0.4,0-0.5-0.1
					c-4.7-2.2-8.9-5.5-12.3-9.6L23,70.7L21.1,68c-0.4-0.7-0.9-1.4-1.4-2.3c-3-5.1-4.6-10.8-4.6-16.4c0-19.1,15.5-34.6,34.6-34.6
					s34.6,15.5,34.6,34.6c0,12-6,22.6-16.3,29l-0.4,0.3c-0.3,0.2-0.7,0.4-1,0.6c-0.5,0.3-1,0.6-1.6,0.8l-0.3,0.2l-0.1,0.1
					C64.3,80.4,64.2,80.5,64,80.5z"/>
			</g>
		</g>
	</g>
</g>
<g id="ICONS_-_WHITE" display="none">
	<g display="inline">
		<g>
			<g>
				<path fill="#FFFFFF" d="M49.1,56.4L49.1,56.4C49,56.4,49.1,56.4,49.1,56.4z"/>
				<path fill="#FFFFFF" d="M56,46.6c0.2,0.5,0.7,1.9,0.7,1.9C56.5,47.8,56.3,47.2,56,46.6z"/>
				<path fill="#FFFFFF" d="M49.2,56.4c0.3,0,0.6,0.1,0.9,0.1C50.2,56.4,49.5,56.4,49.2,56.4z"/>
				<path fill="#FFFFFF" d="M50.1,43.1c-3.7,0-6.7,3-6.7,6.7c0,3.4,2.5,6.2,5.8,6.6c0.3,0,0.9,0.1,0.9,0.1c-0.3,0-0.6,0-0.9-0.1
					c-0.1,0-0.1,0-0.1,0l13.6,3.9c0.1,0,0.2,0.1,0.4,0.1c0.4,0,0.8-0.2,1-0.5c0.3-0.4,0.3-1,0-1.4l-8-11.8c-0.1-0.2-0.1-0.2,0,0
					c0.3,0.6,0.6,1.2,0.7,1.9c0,0-0.5-1.4-0.7-1.9C54.8,44.5,52.6,43.1,50.1,43.1z M56.3,48.7L56.3,48.7l7.3,9.9
					c0.2,0.3,0.2,0.7,0,1C63.5,59.8,63.3,60,63,60c-0.1,0-0.2,0-0.2,0l-12.2-3.9l-0.1,0c0,0-0.3,0-0.3,0c-3.5,0-6.3-2.8-6.3-6.3
					s2.8-6.3,6.3-6.3c3,0,5.6,2.1,6.2,5.1L56.3,48.7z"/>
				<path fill="#FFFFFF" d="M50.1,45.1c-2.6,0-4.6,2.1-4.6,4.6c0,2.6,2.1,4.6,4.6,4.6s4.6-2.1,4.6-4.6
					C54.7,47.2,52.6,45.1,50.1,45.1z M50.1,54c-2.3,0-4.2-1.9-4.2-4.2s1.9-4.2,4.2-4.2s4.2,1.9,4.2,4.2S52.4,54,50.1,54z"/>
				<path fill="#FFFFFF" d="M53.9,54.7l0.1,0.7l5.6,1.8l0.4-0.6l-3.5-4.7L56,52C55.5,53.1,54.8,54,53.9,54.7z M56.3,52.1l3.5,4.7
					l-5.6-1.8C55.1,54.3,55.9,53.3,56.3,52.1z"/>
				<path fill="#FFFFFF" d="M50.1,43.5c-3.5,0-6.3,2.8-6.3,6.3s2.8,6.3,6.3,6.3c0.1,0,0.3,0,0.3,0l0.1,0l12.2,3.9c0.1,0,0.2,0,0.2,0
					c0.3,0,0.5-0.1,0.7-0.3c0.2-0.3,0.2-0.7,0-1l-7.3-9.9l0,0l-0.1-0.2C55.7,45.6,53.1,43.5,50.1,43.5z M50.1,54.4
					c-2.6,0-4.6-2.1-4.6-4.6c0-2.6,2.1-4.6,4.6-4.6s4.6,2.1,4.6,4.6C54.7,52.3,52.6,54.4,50.1,54.4z M56.6,51.9l3.5,4.7l-0.4,0.6
					L54,55.4l-0.1-0.7c0.9-0.7,1.6-1.7,2-2.7L56.6,51.9z"/>
				<path fill="#FFFFFF" d="M64,80.5c-0.5,0-0.9-0.3-1.1-0.7c-0.1-0.3-0.2-0.6,0-0.9c0.1-0.3,0.3-0.6,0.6-0.7c4.2-2,8-5,11-8.7
					l-0.1-0.7l-3.6-2.5c-0.3-0.2-0.5-0.5-0.5-0.9c0-0.4,0-0.7,0.3-1c0.3-0.3,0.6-0.5,1.1-0.5c0.3,0,0.6,0.1,0.8,0.3l3.4,2.6l0.7-0.1
					c3.1-4.7,4.8-10.1,5.1-15.5l-0.4-0.5l-4,0c-0.7,0-1.2-0.6-1.2-1.2s0.6-1.2,1.2-1.2h4l0.5-0.4l0-0.5l0-0.2c0-0.3-0.1-0.7-0.1-1
					c0-0.3-0.1-0.7-0.1-1c0-0.2-0.1-0.5-0.1-0.7c-0.1-0.4-0.1-0.8-0.2-1.1L81,42.7c-0.8-3.8-2.3-7.4-4.5-10.7l-0.6-0.1l-3.2,2.3l0,0
					l-0.1,0l-0.1,0.1c-0.2,0.2-0.5,0.2-0.7,0.2c-0.4,0-0.8-0.2-1-0.5c-0.4-0.6-0.3-1.3,0.3-1.7l0.1-0.1l0.1-0.2l0,0.1l3.2-2.3
					l0.1-0.6c-3.5-4.4-8.1-7.7-13.3-9.7l-0.5,0.2l-1.2,3.7c0,0.1,0,0.2-0.1,0.2c-0.2,0.5-0.6,0.9-1.2,0.9c-0.1,0-0.3,0-0.4-0.1
					c-0.6-0.2-1-1-0.8-1.6l1.2-3.8l-0.2-0.5c-2.7-0.8-5.5-1.1-8.3-1.1c-2.8,0-5.5,0.4-8.2,1.1L41.3,19l1.2,3.8
					c0.1,0.3,0.1,0.6-0.1,0.9c-0.2,0.3-0.4,0.5-0.7,0.6c-0.1,0.1-0.3,0.1-0.4,0.1c-0.5,0-0.9-0.3-1.1-0.8l-1.2-3.7l-0.5-0.3
					c-4.2,1.6-7.9,4-11.1,7.1L27,26.9c-0.3,0.3-0.6,0.6-0.9,0.9c-0.1,0.2-0.3,0.3-0.4,0.5l-0.3,0.3c-0.1,0.2-0.3,0.3-0.4,0.5
					l0.1,0.6l3.2,2.4l0.1,0c0.6,0.4,0.7,1.2,0.3,1.7c-0.2,0.3-0.6,0.5-1,0.5c-0.3,0-0.5-0.1-0.7-0.2l-0.1-0.1l0,0l-3.2-2.3l-0.6,0.1
					C20,36.6,18.2,42,17.9,47.5l0.4,0.5l4.1,0c0.7,0,1.3,0.6,1.3,1.2s-0.6,1.2-1.3,1.2h-4L18,51c0.3,5.6,2,11,5,15.6l0.6,0.1
					l3.2-2.3c0.2-0.2,0.5-0.3,0.7-0.3c0.4,0,0.7,0.2,1,0.5c0.2,0.3,0.3,0.6,0.3,0.9s-0.2,0.6-0.5,0.8l-3.2,2.3l-0.1,0.6
					c3.1,3.8,6.9,6.7,11.3,8.8c0.3,0.1,0.5,0.4,0.6,0.7c0.1,0.3,0.1,0.6,0,1c-0.2,0.4-0.6,0.7-1.1,0.7c-0.2,0-0.4,0-0.5-0.1
					c-4.7-2.2-8.9-5.5-12.3-9.6L23,70.7L21.1,68c-0.4-0.7-0.9-1.4-1.4-2.3c-3-5.1-4.6-10.8-4.6-16.4c0-19.1,15.5-34.6,34.6-34.6
					s34.6,15.5,34.6,34.6c0,12-6,22.6-16.3,29l-0.4,0.3c-0.3,0.2-0.7,0.4-1,0.6c-0.5,0.3-1,0.6-1.6,0.8l-0.3,0.2l-0.1,0.1
					C64.3,80.4,64.2,80.5,64,80.5z"/>
			</g>
		</g>
	</g>
</g>
<g id="LABELS">
</g>
</svg>
