<?xml version="1.0" encoding="utf-8"?>
<!-- Generator: Adobe Illustrator 18.1.1, SVG Export Plug-In . SVG Version: 6.00 Build 0)  -->
<svg version="1.1" xmlns="http://www.w3.org/2000/svg" xmlns:xlink="http://www.w3.org/1999/xlink" x="0px" y="0px"
	 viewBox="0 0 100 100" enable-background="new 0 0 100 100" xml:space="preserve">
<g id="GUIDES">
</g>
<g id="ICONS_-_BLACK" display="none">
	<g display="inline">
		<g>
			<g>
				<path d="M15.9,82.3h68.7c0.7,0,1.3-0.6,1.3-1.3s-0.6-1.3-1.3-1.3H15.9c-0.7,0-1.3,0.6-1.3,1.3S15.2,82.3,15.9,82.3z"/>
				<path d="M19.8,61.4c-0.7,0-1.3,0.6-1.3,1.3v10.2c0,0.7,0.6,1.3,1.3,1.3H29c0.7,0,1.3-0.6,1.3-1.3V62.7c0-0.7-0.6-1.3-1.3-1.3
					H19.8z M27.7,71.3l-0.3,0.3h-6l-0.3-0.3v-7l0.3-0.3h6l0.3,0.3V71.3z"/>
				<path d="M54.3,31.1c-0.7,0-1.3,0.6-1.3,1.3v40.4c0,0.7,0.6,1.3,1.3,1.3h9.2c0.7,0,1.3-0.6,1.3-1.3V32.4c0-0.7-0.6-1.3-1.3-1.3
					H54.3z M62.2,71.3l-0.3,0.3h-6l-0.3-0.3V34l0.3-0.3h6l0.3,0.3V71.3z"/>
				<path d="M37,47.9c-0.7,0-1.3,0.6-1.3,1.3v23.7c0,0.7,0.6,1.3,1.3,1.3h9.2c0.7,0,1.3-0.6,1.3-1.3V49.2c0-0.7-0.6-1.3-1.3-1.3H37z
					 M44.9,71.3l-0.3,0.3h-6l-0.3-0.3V50.8l0.3-0.3h6l0.3,0.3V71.3z"/>
				<path d="M71,74.1h9.2c0.7,0,1.3-0.6,1.3-1.3V18.2c0-0.7-0.6-1.3-1.3-1.3H71c-0.7,0-1.3,0.6-1.3,1.3v54.7
					C69.8,73.6,70.3,74.1,71,74.1z M72.3,19.8l0.3-0.3h6l0.3,0.3v51.5l-0.3,0.3h-6l-0.3-0.3V19.8z"/>
			</g>
		</g>
	</g>
</g>
<g id="ICONS_-_DARK_PURPLE" display="none">
	<g display="inline">
		<g>
			<g>
				<path fill="#4F2556" d="M15.9,82.3h68.7c0.7,0,1.3-0.6,1.3-1.3s-0.6-1.3-1.3-1.3H15.9c-0.7,0-1.3,0.6-1.3,1.3
					S15.2,82.3,15.9,82.3z"/>
				<path fill="#4F2556" d="M19.8,61.4c-0.7,0-1.3,0.6-1.3,1.3v10.2c0,0.7,0.6,1.3,1.3,1.3H29c0.7,0,1.3-0.6,1.3-1.3V62.7
					c0-0.7-0.6-1.3-1.3-1.3H19.8z M27.7,71.3l-0.3,0.3h-6l-0.3-0.3v-7l0.3-0.3h6l0.3,0.3V71.3z"/>
				<path fill="#4F2556" d="M54.3,31.1c-0.7,0-1.3,0.6-1.3,1.3v40.4c0,0.7,0.6,1.3,1.3,1.3h9.2c0.7,0,1.3-0.6,1.3-1.3V32.4
					c0-0.7-0.6-1.3-1.3-1.3H54.3z M62.2,71.3l-0.3,0.3h-6l-0.3-0.3V34l0.3-0.3h6l0.3,0.3V71.3z"/>
				<path fill="#4F2556" d="M37,47.9c-0.7,0-1.3,0.6-1.3,1.3v23.7c0,0.7,0.6,1.3,1.3,1.3h9.2c0.7,0,1.3-0.6,1.3-1.3V49.2
					c0-0.7-0.6-1.3-1.3-1.3H37z M44.9,71.3l-0.3,0.3h-6l-0.3-0.3V50.8l0.3-0.3h6l0.3,0.3V71.3z"/>
				<path fill="#4F2556" d="M71,74.1h9.2c0.7,0,1.3-0.6,1.3-1.3V18.2c0-0.7-0.6-1.3-1.3-1.3H71c-0.7,0-1.3,0.6-1.3,1.3v54.7
					C69.8,73.6,70.3,74.1,71,74.1z M72.3,19.8l0.3-0.3h6l0.3,0.3v51.5l-0.3,0.3h-6l-0.3-0.3V19.8z"/>
			</g>
		</g>
	</g>
</g>
<g id="ICONS_-_WARM_GREY" display="none">
	<g display="inline">
		<g>
			<g>
				<path fill="#534C63" d="M15.9,82.3h68.7c0.7,0,1.3-0.6,1.3-1.3s-0.6-1.3-1.3-1.3H15.9c-0.7,0-1.3,0.6-1.3,1.3
					S15.2,82.3,15.9,82.3z"/>
				<path fill="#534C63" d="M19.8,61.4c-0.7,0-1.3,0.6-1.3,1.3v10.2c0,0.7,0.6,1.3,1.3,1.3H29c0.7,0,1.3-0.6,1.3-1.3V62.7
					c0-0.7-0.6-1.3-1.3-1.3H19.8z M27.7,71.3l-0.3,0.3h-6l-0.3-0.3v-7l0.3-0.3h6l0.3,0.3V71.3z"/>
				<path fill="#534C63" d="M54.3,31.1c-0.7,0-1.3,0.6-1.3,1.3v40.4c0,0.7,0.6,1.3,1.3,1.3h9.2c0.7,0,1.3-0.6,1.3-1.3V32.4
					c0-0.7-0.6-1.3-1.3-1.3H54.3z M62.2,71.3l-0.3,0.3h-6l-0.3-0.3V34l0.3-0.3h6l0.3,0.3V71.3z"/>
				<path fill="#534C63" d="M37,47.9c-0.7,0-1.3,0.6-1.3,1.3v23.7c0,0.7,0.6,1.3,1.3,1.3h9.2c0.7,0,1.3-0.6,1.3-1.3V49.2
					c0-0.7-0.6-1.3-1.3-1.3H37z M44.9,71.3l-0.3,0.3h-6l-0.3-0.3V50.8l0.3-0.3h6l0.3,0.3V71.3z"/>
				<path fill="#534C63" d="M71,74.1h9.2c0.7,0,1.3-0.6,1.3-1.3V18.2c0-0.7-0.6-1.3-1.3-1.3H71c-0.7,0-1.3,0.6-1.3,1.3v54.7
					C69.8,73.6,70.3,74.1,71,74.1z M72.3,19.8l0.3-0.3h6l0.3,0.3v51.5l-0.3,0.3h-6l-0.3-0.3V19.8z"/>
			</g>
		</g>
	</g>
</g>
<g id="ICONS_-_SKRILL_TEAL" display="none">
	<g display="inline">
		<g>
			<g>
				<path fill="#41AEB5" d="M15.9,82.3h68.7c0.7,0,1.3-0.6,1.3-1.3s-0.6-1.3-1.3-1.3H15.9c-0.7,0-1.3,0.6-1.3,1.3
					S15.2,82.3,15.9,82.3z"/>
				<path fill="#41AEB5" d="M19.8,61.4c-0.7,0-1.3,0.6-1.3,1.3v10.2c0,0.7,0.6,1.3,1.3,1.3H29c0.7,0,1.3-0.6,1.3-1.3V62.7
					c0-0.7-0.6-1.3-1.3-1.3H19.8z M27.7,71.3l-0.3,0.3h-6l-0.3-0.3v-7l0.3-0.3h6l0.3,0.3V71.3z"/>
				<path fill="#41AEB5" d="M54.3,31.1c-0.7,0-1.3,0.6-1.3,1.3v40.4c0,0.7,0.6,1.3,1.3,1.3h9.2c0.7,0,1.3-0.6,1.3-1.3V32.4
					c0-0.7-0.6-1.3-1.3-1.3H54.3z M62.2,71.3l-0.3,0.3h-6l-0.3-0.3V34l0.3-0.3h6l0.3,0.3V71.3z"/>
				<path fill="#41AEB5" d="M37,47.9c-0.7,0-1.3,0.6-1.3,1.3v23.7c0,0.7,0.6,1.3,1.3,1.3h9.2c0.7,0,1.3-0.6,1.3-1.3V49.2
					c0-0.7-0.6-1.3-1.3-1.3H37z M44.9,71.3l-0.3,0.3h-6l-0.3-0.3V50.8l0.3-0.3h6l0.3,0.3V71.3z"/>
				<path fill="#41AEB5" d="M71,74.1h9.2c0.7,0,1.3-0.6,1.3-1.3V18.2c0-0.7-0.6-1.3-1.3-1.3H71c-0.7,0-1.3,0.6-1.3,1.3v54.7
					C69.8,73.6,70.3,74.1,71,74.1z M72.3,19.8l0.3-0.3h6l0.3,0.3v51.5l-0.3,0.3h-6l-0.3-0.3V19.8z"/>
			</g>
		</g>
	</g>
</g>
<g id="ICONS_-_SKRILL_PURPLE">
	<g>
		<g>
			<g>
				<path fill="#811E68" d="M15.9,82.3h68.7c0.7,0,1.3-0.6,1.3-1.3s-0.6-1.3-1.3-1.3H15.9c-0.7,0-1.3,0.6-1.3,1.3
					S15.2,82.3,15.9,82.3z"/>
				<path fill="#811E68" d="M19.8,61.4c-0.7,0-1.3,0.6-1.3,1.3v10.2c0,0.7,0.6,1.3,1.3,1.3H29c0.7,0,1.3-0.6,1.3-1.3V62.7
					c0-0.7-0.6-1.3-1.3-1.3H19.8z M27.7,71.3l-0.3,0.3h-6l-0.3-0.3v-7l0.3-0.3h6l0.3,0.3V71.3z"/>
				<path fill="#811E68" d="M54.3,31.1c-0.7,0-1.3,0.6-1.3,1.3v40.4c0,0.7,0.6,1.3,1.3,1.3h9.2c0.7,0,1.3-0.6,1.3-1.3V32.4
					c0-0.7-0.6-1.3-1.3-1.3H54.3z M62.2,71.3l-0.3,0.3h-6l-0.3-0.3V34l0.3-0.3h6l0.3,0.3V71.3z"/>
				<path fill="#811E68" d="M37,47.9c-0.7,0-1.3,0.6-1.3,1.3v23.7c0,0.7,0.6,1.3,1.3,1.3h9.2c0.7,0,1.3-0.6,1.3-1.3V49.2
					c0-0.7-0.6-1.3-1.3-1.3H37z M44.9,71.3l-0.3,0.3h-6l-0.3-0.3V50.8l0.3-0.3h6l0.3,0.3V71.3z"/>
				<path fill="#811E68" d="M71,74.1h9.2c0.7,0,1.3-0.6,1.3-1.3V18.2c0-0.7-0.6-1.3-1.3-1.3H71c-0.7,0-1.3,0.6-1.3,1.3v54.7
					C69.8,73.6,70.3,74.1,71,74.1z M72.3,19.8l0.3-0.3h6l0.3,0.3v51.5l-0.3,0.3h-6l-0.3-0.3V19.8z"/>
			</g>
		</g>
	</g>
</g>
<g id="ICONS_-_WHITE" display="none">
	<g display="inline">
		<g>
			<g>
				<path fill="#FFFFFF" d="M15.9,82.3h68.7c0.7,0,1.3-0.6,1.3-1.3s-0.6-1.3-1.3-1.3H15.9c-0.7,0-1.3,0.6-1.3,1.3
					S15.2,82.3,15.9,82.3z"/>
				<path fill="#FFFFFF" d="M19.8,61.4c-0.7,0-1.3,0.6-1.3,1.3v10.2c0,0.7,0.6,1.3,1.3,1.3H29c0.7,0,1.3-0.6,1.3-1.3V62.7
					c0-0.7-0.6-1.3-1.3-1.3H19.8z M27.7,71.3l-0.3,0.3h-6l-0.3-0.3v-7l0.3-0.3h6l0.3,0.3V71.3z"/>
				<path fill="#FFFFFF" d="M54.3,31.1c-0.7,0-1.3,0.6-1.3,1.3v40.4c0,0.7,0.6,1.3,1.3,1.3h9.2c0.7,0,1.3-0.6,1.3-1.3V32.4
					c0-0.7-0.6-1.3-1.3-1.3H54.3z M62.2,71.3l-0.3,0.3h-6l-0.3-0.3V34l0.3-0.3h6l0.3,0.3V71.3z"/>
				<path fill="#FFFFFF" d="M37,47.9c-0.7,0-1.3,0.6-1.3,1.3v23.7c0,0.7,0.6,1.3,1.3,1.3h9.2c0.7,0,1.3-0.6,1.3-1.3V49.2
					c0-0.7-0.6-1.3-1.3-1.3H37z M44.9,71.3l-0.3,0.3h-6l-0.3-0.3V50.8l0.3-0.3h6l0.3,0.3V71.3z"/>
				<path fill="#FFFFFF" d="M71,74.1h9.2c0.7,0,1.3-0.6,1.3-1.3V18.2c0-0.7-0.6-1.3-1.3-1.3H71c-0.7,0-1.3,0.6-1.3,1.3v54.7
					C69.8,73.6,70.3,74.1,71,74.1z M72.3,19.8l0.3-0.3h6l0.3,0.3v51.5l-0.3,0.3h-6l-0.3-0.3V19.8z"/>
			</g>
		</g>
	</g>
</g>
<g id="LABELS">
</g>
</svg>
