<?xml version="1.0" encoding="utf-8"?>
<!-- Generator: Adobe Illustrator 18.1.1, SVG Export Plug-In . SVG Version: 6.00 Build 0)  -->
<svg version="1.1" xmlns="http://www.w3.org/2000/svg" xmlns:xlink="http://www.w3.org/1999/xlink" x="0px" y="0px"
	 viewBox="0 0 100 100" enable-background="new 0 0 100 100" xml:space="preserve">
<g id="GUIDES">
</g>
<g id="ICONS_-_BLACK" display="none">
	<g display="inline">
		<g>
			<g>
				<path d="M83.4,42.8l-6.3,0l-0.2-0.3v-6.4c0-0.7-0.5-1.2-1.2-1.2s-1.2,0.5-1.2,1.2l0,6.5l-0.3,0.2l-6.2,0c-0.7,0-1.2,0.5-1.2,1.2
					c0,0.7,0.5,1.2,1.2,1.2l6.3,0l0.2,0.3v6.4c0,0.7,0.5,1.2,1.2,1.2c0.7,0,1.2-0.5,1.2-1.2l0-6.5l0.3-0.2h6.2
					c0.7,0,1.2-0.5,1.2-1.2C84.6,43.3,84,42.8,83.4,42.8z"/>
				<path d="M56.2,45L56.2,45l-0.1-0.5l0.1,0c5.3-2.2,8.7-7.5,8.7-13.3c0-7.9-6.3-14.4-14.1-14.4c-5.1,0-9.8,2.8-12.3,7.4l-0.2,0.1
					c0,0-0.3,0-0.4,0c-7.8,0-14.1,6.5-14.1,14.4c0,5.9,3.4,11.1,8.7,13.3l0.1,0l0,0.5l-0.1,0c-3.5,1-6.7,3-9.2,5.7
					c-3.9,4.2-6,10.2-6,16.7c0,0.3,0.1,0.6,0.4,0.9c0.2,0.2,0.5,0.4,0.8,0.4h38.7c0.3,0,0.6-0.1,0.8-0.4c0.2-0.2,0.4-0.5,0.4-0.9
					c0-2-0.2-4-0.6-6l0.3-0.3h12.1c0.3,0,0.6-0.1,0.8-0.4c0.2-0.2,0.4-0.5,0.4-0.9c0-6.5-2.1-12.4-6-16.7C62.9,48,59.7,46,56.2,45z
					 M42.5,22.7c2.2-2.3,5.1-3.5,8.3-3.5c3.1,0,6.1,1.2,8.3,3.5c2.2,2.3,3.4,5.3,3.4,8.4c0,3.2-1.2,6.2-3.4,8.4
					c-2,2-4.6,3.3-7.5,3.4l-0.2-0.3c0.4-1.3,0.6-2.7,0.6-4c0-6.5-4.3-12.3-10.6-14l-0.1-0.4C41.6,23.7,42.1,23.2,42.5,22.7z
					 M29.6,47.1c-2.2-2.3-3.4-5.3-3.4-8.4c0-3.2,1.2-6.2,3.4-8.4c2.2-2.3,5.1-3.5,8.3-3.5c3.1,0,6.1,1.2,8.3,3.5
					c2.2,2.3,3.4,5.3,3.4,8.4c0,3.2-1.2,6.2-3.4,8.4c-2.2,2.3-5.1,3.5-8.3,3.5C34.7,50.6,31.8,49.4,29.6,47.1z M55.6,73.7l-35.7,0
					l-0.2-0.3c0.3-5.4,2.1-10,5.3-13.5c3.3-3.7,7.9-5.7,12.8-5.7c4.9,0,9.5,2,12.8,5.7c3.2,3.5,5,8.1,5.3,13.6L55.6,73.7z
					 M68.6,66.2l-11.5,0L56.9,66c-1-3-2.6-5.6-4.5-7.7c-2.5-2.7-5.6-4.7-9.2-5.7l-0.1,0l0-0.5l0.1,0c2.5-1,4.6-2.8,6.2-5.1l0.2-0.1
					l0.3,0c0.3,0,0.6,0,0.9,0h0c4.9,0,9.5,2,12.8,5.7c3.2,3.5,5,8.1,5.3,13.6L68.6,66.2z"/>
			</g>
		</g>
	</g>
</g>
<g id="ICONS_-_DARK_PURPLE" display="none">
	<g display="inline">
		<g>
			<g>
				<path fill="#4F2556" d="M83.4,42.8l-6.3,0l-0.2-0.3v-6.4c0-0.7-0.5-1.2-1.2-1.2s-1.2,0.5-1.2,1.2l0,6.5l-0.3,0.2l-6.2,0
					c-0.7,0-1.2,0.5-1.2,1.2c0,0.7,0.5,1.2,1.2,1.2l6.3,0l0.2,0.3v6.4c0,0.7,0.5,1.2,1.2,1.2c0.7,0,1.2-0.5,1.2-1.2l0-6.5l0.3-0.2
					h6.2c0.7,0,1.2-0.5,1.2-1.2C84.6,43.3,84,42.8,83.4,42.8z"/>
				<path fill="#4F2556" d="M56.2,45L56.2,45l-0.1-0.5l0.1,0c5.3-2.2,8.7-7.5,8.7-13.3c0-7.9-6.3-14.4-14.1-14.4
					c-5.1,0-9.8,2.8-12.3,7.4l-0.2,0.1c0,0-0.3,0-0.4,0c-7.8,0-14.1,6.5-14.1,14.4c0,5.9,3.4,11.1,8.7,13.3l0.1,0l0,0.5l-0.1,0
					c-3.5,1-6.7,3-9.2,5.7c-3.9,4.2-6,10.2-6,16.7c0,0.3,0.1,0.6,0.4,0.9c0.2,0.2,0.5,0.4,0.8,0.4h38.7c0.3,0,0.6-0.1,0.8-0.4
					c0.2-0.2,0.4-0.5,0.4-0.9c0-2-0.2-4-0.6-6l0.3-0.3h12.1c0.3,0,0.6-0.1,0.8-0.4c0.2-0.2,0.4-0.5,0.4-0.9c0-6.5-2.1-12.4-6-16.7
					C62.9,48,59.7,46,56.2,45z M42.5,22.7c2.2-2.3,5.1-3.5,8.3-3.5c3.1,0,6.1,1.2,8.3,3.5c2.2,2.3,3.4,5.3,3.4,8.4
					c0,3.2-1.2,6.2-3.4,8.4c-2,2-4.6,3.3-7.5,3.4l-0.2-0.3c0.4-1.3,0.6-2.7,0.6-4c0-6.5-4.3-12.3-10.6-14l-0.1-0.4
					C41.6,23.7,42.1,23.2,42.5,22.7z M29.6,47.1c-2.2-2.3-3.4-5.3-3.4-8.4c0-3.2,1.2-6.2,3.4-8.4c2.2-2.3,5.1-3.5,8.3-3.5
					c3.1,0,6.1,1.2,8.3,3.5c2.2,2.3,3.4,5.3,3.4,8.4c0,3.2-1.2,6.2-3.4,8.4c-2.2,2.3-5.1,3.5-8.3,3.5C34.7,50.6,31.8,49.4,29.6,47.1
					z M55.6,73.7l-35.7,0l-0.2-0.3c0.3-5.4,2.1-10,5.3-13.5c3.3-3.7,7.9-5.7,12.8-5.7c4.9,0,9.5,2,12.8,5.7c3.2,3.5,5,8.1,5.3,13.6
					L55.6,73.7z M68.6,66.2l-11.5,0L56.9,66c-1-3-2.6-5.6-4.5-7.7c-2.5-2.7-5.6-4.7-9.2-5.7l-0.1,0l0-0.5l0.1,0
					c2.5-1,4.6-2.8,6.2-5.1l0.2-0.1l0.3,0c0.3,0,0.6,0,0.9,0h0c4.9,0,9.5,2,12.8,5.7c3.2,3.5,5,8.1,5.3,13.6L68.6,66.2z"/>
			</g>
		</g>
	</g>
</g>
<g id="ICONS_-_WARM_GREY" display="none">
	<g display="inline">
		<g>
			<g>
				<path fill="#534C63" d="M83.4,42.8l-6.3,0l-0.2-0.3v-6.4c0-0.7-0.5-1.2-1.2-1.2s-1.2,0.5-1.2,1.2l0,6.5l-0.3,0.2l-6.2,0
					c-0.7,0-1.2,0.5-1.2,1.2c0,0.7,0.5,1.2,1.2,1.2l6.3,0l0.2,0.3v6.4c0,0.7,0.5,1.2,1.2,1.2c0.7,0,1.2-0.5,1.2-1.2l0-6.5l0.3-0.2
					h6.2c0.7,0,1.2-0.5,1.2-1.2C84.6,43.3,84,42.8,83.4,42.8z"/>
				<path fill="#534C63" d="M56.2,45L56.2,45l-0.1-0.5l0.1,0c5.3-2.2,8.7-7.5,8.7-13.3c0-7.9-6.3-14.4-14.1-14.4
					c-5.1,0-9.8,2.8-12.3,7.4l-0.2,0.1c0,0-0.3,0-0.4,0c-7.8,0-14.1,6.5-14.1,14.4c0,5.9,3.4,11.1,8.7,13.3l0.1,0l0,0.5l-0.1,0
					c-3.5,1-6.7,3-9.2,5.7c-3.9,4.2-6,10.2-6,16.7c0,0.3,0.1,0.6,0.4,0.9c0.2,0.2,0.5,0.4,0.8,0.4h38.7c0.3,0,0.6-0.1,0.8-0.4
					c0.2-0.2,0.4-0.5,0.4-0.9c0-2-0.2-4-0.6-6l0.3-0.3h12.1c0.3,0,0.6-0.1,0.8-0.4c0.2-0.2,0.4-0.5,0.4-0.9c0-6.5-2.1-12.4-6-16.7
					C62.9,48,59.7,46,56.2,45z M42.5,22.7c2.2-2.3,5.1-3.5,8.3-3.5c3.1,0,6.1,1.2,8.3,3.5c2.2,2.3,3.4,5.3,3.4,8.4
					c0,3.2-1.2,6.2-3.4,8.4c-2,2-4.6,3.3-7.5,3.4l-0.2-0.3c0.4-1.3,0.6-2.7,0.6-4c0-6.5-4.3-12.3-10.6-14l-0.1-0.4
					C41.6,23.7,42.1,23.2,42.5,22.7z M29.6,47.1c-2.2-2.3-3.4-5.3-3.4-8.4c0-3.2,1.2-6.2,3.4-8.4c2.2-2.3,5.1-3.5,8.3-3.5
					c3.1,0,6.1,1.2,8.3,3.5c2.2,2.3,3.4,5.3,3.4,8.4c0,3.2-1.2,6.2-3.4,8.4c-2.2,2.3-5.1,3.5-8.3,3.5C34.7,50.6,31.8,49.4,29.6,47.1
					z M55.6,73.7l-35.7,0l-0.2-0.3c0.3-5.4,2.1-10,5.3-13.5c3.3-3.7,7.9-5.7,12.8-5.7c4.9,0,9.5,2,12.8,5.7c3.2,3.5,5,8.1,5.3,13.6
					L55.6,73.7z M68.6,66.2l-11.5,0L56.9,66c-1-3-2.6-5.6-4.5-7.7c-2.5-2.7-5.6-4.7-9.2-5.7l-0.1,0l0-0.5l0.1,0
					c2.5-1,4.6-2.8,6.2-5.1l0.2-0.1l0.3,0c0.3,0,0.6,0,0.9,0h0c4.9,0,9.5,2,12.8,5.7c3.2,3.5,5,8.1,5.3,13.6L68.6,66.2z"/>
			</g>
		</g>
	</g>
</g>
<g id="ICONS_-_SKRILL_TEAL" display="none">
	<g display="inline">
		<g>
			<g>
				<path fill="#41AEB5" d="M83.4,42.8l-6.3,0l-0.2-0.3v-6.4c0-0.7-0.5-1.2-1.2-1.2s-1.2,0.5-1.2,1.2l0,6.5l-0.3,0.2l-6.2,0
					c-0.7,0-1.2,0.5-1.2,1.2c0,0.7,0.5,1.2,1.2,1.2l6.3,0l0.2,0.3v6.4c0,0.7,0.5,1.2,1.2,1.2c0.7,0,1.2-0.5,1.2-1.2l0-6.5l0.3-0.2
					h6.2c0.7,0,1.2-0.5,1.2-1.2C84.6,43.3,84,42.8,83.4,42.8z"/>
				<path fill="#41AEB5" d="M56.2,45L56.2,45l-0.1-0.5l0.1,0c5.3-2.2,8.7-7.5,8.7-13.3c0-7.9-6.3-14.4-14.1-14.4
					c-5.1,0-9.8,2.8-12.3,7.4l-0.2,0.1c0,0-0.3,0-0.4,0c-7.8,0-14.1,6.5-14.1,14.4c0,5.9,3.4,11.1,8.7,13.3l0.1,0l0,0.5l-0.1,0
					c-3.5,1-6.7,3-9.2,5.7c-3.9,4.2-6,10.2-6,16.7c0,0.3,0.1,0.6,0.4,0.9c0.2,0.2,0.5,0.4,0.8,0.4h38.7c0.3,0,0.6-0.1,0.8-0.4
					c0.2-0.2,0.4-0.5,0.4-0.9c0-2-0.2-4-0.6-6l0.3-0.3h12.1c0.3,0,0.6-0.1,0.8-0.4c0.2-0.2,0.4-0.5,0.4-0.9c0-6.5-2.1-12.4-6-16.7
					C62.9,48,59.7,46,56.2,45z M42.5,22.7c2.2-2.3,5.1-3.5,8.3-3.5c3.1,0,6.1,1.2,8.3,3.5c2.2,2.3,3.4,5.3,3.4,8.4
					c0,3.2-1.2,6.2-3.4,8.4c-2,2-4.6,3.3-7.5,3.4l-0.2-0.3c0.4-1.3,0.6-2.7,0.6-4c0-6.5-4.3-12.3-10.6-14l-0.1-0.4
					C41.6,23.7,42.1,23.2,42.5,22.7z M29.6,47.1c-2.2-2.3-3.4-5.3-3.4-8.4c0-3.2,1.2-6.2,3.4-8.4c2.2-2.3,5.1-3.5,8.3-3.5
					c3.1,0,6.1,1.2,8.3,3.5c2.2,2.3,3.4,5.3,3.4,8.4c0,3.2-1.2,6.2-3.4,8.4c-2.2,2.3-5.1,3.5-8.3,3.5C34.7,50.6,31.8,49.4,29.6,47.1
					z M55.6,73.7l-35.7,0l-0.2-0.3c0.3-5.4,2.1-10,5.3-13.5c3.3-3.7,7.9-5.7,12.8-5.7c4.9,0,9.5,2,12.8,5.7c3.2,3.5,5,8.1,5.3,13.6
					L55.6,73.7z M68.6,66.2l-11.5,0L56.9,66c-1-3-2.6-5.6-4.5-7.7c-2.5-2.7-5.6-4.7-9.2-5.7l-0.1,0l0-0.5l0.1,0
					c2.5-1,4.6-2.8,6.2-5.1l0.2-0.1l0.3,0c0.3,0,0.6,0,0.9,0h0c4.9,0,9.5,2,12.8,5.7c3.2,3.5,5,8.1,5.3,13.6L68.6,66.2z"/>
			</g>
		</g>
	</g>
</g>
<g id="ICONS_-_SKRILL_PURPLE">
	<g>
		<g>
			<g>
				<path fill="#811E68" d="M83.4,42.8l-6.3,0l-0.2-0.3v-6.4c0-0.7-0.5-1.2-1.2-1.2s-1.2,0.5-1.2,1.2l0,6.5l-0.3,0.2l-6.2,0
					c-0.7,0-1.2,0.5-1.2,1.2c0,0.7,0.5,1.2,1.2,1.2l6.3,0l0.2,0.3v6.4c0,0.7,0.5,1.2,1.2,1.2c0.7,0,1.2-0.5,1.2-1.2l0-6.5l0.3-0.2
					h6.2c0.7,0,1.2-0.5,1.2-1.2C84.6,43.3,84,42.8,83.4,42.8z"/>
				<path fill="#811E68" d="M56.2,45L56.2,45l-0.1-0.5l0.1,0c5.3-2.2,8.7-7.5,8.7-13.3c0-7.9-6.3-14.4-14.1-14.4
					c-5.1,0-9.8,2.8-12.3,7.4l-0.2,0.1c0,0-0.3,0-0.4,0c-7.8,0-14.1,6.5-14.1,14.4c0,5.9,3.4,11.1,8.7,13.3l0.1,0l0,0.5l-0.1,0
					c-3.5,1-6.7,3-9.2,5.7c-3.9,4.2-6,10.2-6,16.7c0,0.3,0.1,0.6,0.4,0.9c0.2,0.2,0.5,0.4,0.8,0.4h38.7c0.3,0,0.6-0.1,0.8-0.4
					c0.2-0.2,0.4-0.5,0.4-0.9c0-2-0.2-4-0.6-6l0.3-0.3h12.1c0.3,0,0.6-0.1,0.8-0.4c0.2-0.2,0.4-0.5,0.4-0.9c0-6.5-2.1-12.4-6-16.7
					C62.9,48,59.7,46,56.2,45z M42.5,22.7c2.2-2.3,5.1-3.5,8.3-3.5c3.1,0,6.1,1.2,8.3,3.5c2.2,2.3,3.4,5.3,3.4,8.4
					c0,3.2-1.2,6.2-3.4,8.4c-2,2-4.6,3.3-7.5,3.4l-0.2-0.3c0.4-1.3,0.6-2.7,0.6-4c0-6.5-4.3-12.3-10.6-14l-0.1-0.4
					C41.6,23.7,42.1,23.2,42.5,22.7z M29.6,47.1c-2.2-2.3-3.4-5.3-3.4-8.4c0-3.2,1.2-6.2,3.4-8.4c2.2-2.3,5.1-3.5,8.3-3.5
					c3.1,0,6.1,1.2,8.3,3.5c2.2,2.3,3.4,5.3,3.4,8.4c0,3.2-1.2,6.2-3.4,8.4c-2.2,2.3-5.1,3.5-8.3,3.5C34.7,50.6,31.8,49.4,29.6,47.1
					z M55.6,73.7l-35.7,0l-0.2-0.3c0.3-5.4,2.1-10,5.3-13.5c3.3-3.7,7.9-5.7,12.8-5.7c4.9,0,9.5,2,12.8,5.7c3.2,3.5,5,8.1,5.3,13.6
					L55.6,73.7z M68.6,66.2l-11.5,0L56.9,66c-1-3-2.6-5.6-4.5-7.7c-2.5-2.7-5.6-4.7-9.2-5.7l-0.1,0l0-0.5l0.1,0
					c2.5-1,4.6-2.8,6.2-5.1l0.2-0.1l0.3,0c0.3,0,0.6,0,0.9,0h0c4.9,0,9.5,2,12.8,5.7c3.2,3.5,5,8.1,5.3,13.6L68.6,66.2z"/>
			</g>
		</g>
	</g>
</g>
<g id="ICONS_-_WHITE" display="none">
	<g display="inline">
		<g>
			<g>
				<path fill="#FFFFFF" d="M83.4,42.8l-6.3,0l-0.2-0.3v-6.4c0-0.7-0.5-1.2-1.2-1.2s-1.2,0.5-1.2,1.2l0,6.5l-0.3,0.2l-6.2,0
					c-0.7,0-1.2,0.5-1.2,1.2c0,0.7,0.5,1.2,1.2,1.2l6.3,0l0.2,0.3v6.4c0,0.7,0.5,1.2,1.2,1.2c0.7,0,1.2-0.5,1.2-1.2l0-6.5l0.3-0.2
					h6.2c0.7,0,1.2-0.5,1.2-1.2C84.6,43.3,84,42.8,83.4,42.8z"/>
				<path fill="#FFFFFF" d="M56.2,45L56.2,45l-0.1-0.5l0.1,0c5.3-2.2,8.7-7.5,8.7-13.3c0-7.9-6.3-14.4-14.1-14.4
					c-5.1,0-9.8,2.8-12.3,7.4l-0.2,0.1c0,0-0.3,0-0.4,0c-7.8,0-14.1,6.5-14.1,14.4c0,5.9,3.4,11.1,8.7,13.3l0.1,0l0,0.5l-0.1,0
					c-3.5,1-6.7,3-9.2,5.7c-3.9,4.2-6,10.2-6,16.7c0,0.3,0.1,0.6,0.4,0.9c0.2,0.2,0.5,0.4,0.8,0.4h38.7c0.3,0,0.6-0.1,0.8-0.4
					c0.2-0.2,0.4-0.5,0.4-0.9c0-2-0.2-4-0.6-6l0.3-0.3h12.1c0.3,0,0.6-0.1,0.8-0.4c0.2-0.2,0.4-0.5,0.4-0.9c0-6.5-2.1-12.4-6-16.7
					C62.9,48,59.7,46,56.2,45z M42.5,22.7c2.2-2.3,5.1-3.5,8.3-3.5c3.1,0,6.1,1.2,8.3,3.5c2.2,2.3,3.4,5.3,3.4,8.4
					c0,3.2-1.2,6.2-3.4,8.4c-2,2-4.6,3.3-7.5,3.4l-0.2-0.3c0.4-1.3,0.6-2.7,0.6-4c0-6.5-4.3-12.3-10.6-14l-0.1-0.4
					C41.6,23.7,42.1,23.2,42.5,22.7z M29.6,47.1c-2.2-2.3-3.4-5.3-3.4-8.4c0-3.2,1.2-6.2,3.4-8.4c2.2-2.3,5.1-3.5,8.3-3.5
					c3.1,0,6.1,1.2,8.3,3.5c2.2,2.3,3.4,5.3,3.4,8.4c0,3.2-1.2,6.2-3.4,8.4c-2.2,2.3-5.1,3.5-8.3,3.5C34.7,50.6,31.8,49.4,29.6,47.1
					z M55.6,73.7l-35.7,0l-0.2-0.3c0.3-5.4,2.1-10,5.3-13.5c3.3-3.7,7.9-5.7,12.8-5.7c4.9,0,9.5,2,12.8,5.7c3.2,3.5,5,8.1,5.3,13.6
					L55.6,73.7z M68.6,66.2l-11.5,0L56.9,66c-1-3-2.6-5.6-4.5-7.7c-2.5-2.7-5.6-4.7-9.2-5.7l-0.1,0l0-0.5l0.1,0
					c2.5-1,4.6-2.8,6.2-5.1l0.2-0.1l0.3,0c0.3,0,0.6,0,0.9,0h0c4.9,0,9.5,2,12.8,5.7c3.2,3.5,5,8.1,5.3,13.6L68.6,66.2z"/>
			</g>
		</g>
	</g>
</g>
<g id="LABELS">
</g>
</svg>
