<?xml version="1.0" encoding="utf-8"?>
<!-- Generator: Adobe Illustrator 18.1.1, SVG Export Plug-In . SVG Version: 6.00 Build 0)  -->
<svg version="1.1" xmlns="http://www.w3.org/2000/svg" xmlns:xlink="http://www.w3.org/1999/xlink" x="0px" y="0px"
	 viewBox="0 0 100 100" enable-background="new 0 0 100 100" xml:space="preserve">
<g id="GUIDES">
</g>
<g id="ICONS_-_BLACK" display="none">
	<g display="inline">
		<g>
			<g>
				<path d="M25.9,59.3c-0.7,0-1.3,0.6-1.3,1.3c0,0.7,0.6,1.3,1.3,1.3h18.6c0.7,0,1.3-0.6,1.3-1.3c0-0.7-0.6-1.3-1.3-1.3H25.9z"/>
				<polygon points="16.1,42.6 80.4,42.5 16.1,42.5 				"/>
				<path d="M21.2,73l28.1,0L21.2,73c-4.2,0-7.5-3.4-7.5-7.6V36.5c0-4.2,3.4-7.5,7.5-7.5h54.6c4.2,0,7.5,3.4,7.5,7.5l0,9.5l0-9.5
					c0-4.2-3.4-7.6-7.6-7.6H21.2c-4.2,0-7.6,3.4-7.6,7.6v28.9C13.6,69.6,17,73,21.2,73z"/>
				<path d="M21.2,70.5l28.1,0L21.2,70.5c-2.8-0.1-5.1-2.3-5.1-5.1l0-22.8v22.8C16.1,68.2,18.4,70.5,21.2,70.5z"/>
				<path d="M75.9,31.4H21.2c-2.8,0-5.1,2.3-5.1,5.1v3.6h0v-3.6c0-2.8,2.3-5.1,5.1-5.1L75.9,31.4c2.8,0.1,5.1,2.3,5.1,5.1l0,3.6
					l-64.7,0H81v-3.6C81,33.7,78.7,31.4,75.9,31.4z"/>
				<polygon points="81,42.5 81,45.6 81,42.5 				"/>
				<polygon points="80.4,42.5 81,42.5 81,42.5 				"/>
				<polygon points="16.2,40.1 16.3,40.1 16.2,40.1 				"/>
				<polygon points="16.1,42.6 16.1,42.6 16.1,42.6 				"/>
				<path d="M75.9,29H21.2c-4.2,0-7.5,3.4-7.5,7.5v28.9c0,4.2,3.4,7.5,7.5,7.5l28.1,0c-0.7,0-1.2-0.6-1.2-1.2c0-0.7,0.5-1.2,1.2-1.2
					l-28.1,0c-2.8,0-5.1-2.3-5.1-5.1V42.6l0,0h0v0h64.3l0.6,0v0h0l0,3c0-0.7,0.5-0.9,1.2-0.9s1.2,0.7,1.2,1.4l0-9.5
					C83.4,32.3,80,29,75.9,29z M81,40.1H16.3l-0.2,0v0h0v-3.6c0-2.8,2.3-5.1,5.1-5.1h54.6c2.8,0,5.1,2.3,5.1,5.1V40.1z"/>
				<path d="M72.4,49.3c-10.4,0-18.9,8.5-18.9,18.9S62,87.1,72.4,87.1s18.9-8.5,18.9-18.9S82.9,49.3,72.4,49.3z M72.4,84.6
					c-9.1,0-16.4-7.4-16.4-16.4s7.4-16.4,16.4-16.4s16.4,7.4,16.4,16.4S81.5,84.6,72.4,84.6z"/>
				<path d="M80.5,61.3L67.9,73.9l-3.7-3.7c-0.5-0.5-1.3-0.5-1.8,0s-0.5,1.3,0,1.8l4.6,4.6c0.2,0.2,0.6,0.4,0.9,0.4
					c0.3,0,0.6-0.1,0.9-0.4l13.5-13.5c0.5-0.5,0.5-1.3,0-1.8S81,60.8,80.5,61.3z"/>
				<path d="M50.6,71.7c0-0.7-0.6-1.2-1.3-1.2l0,2.4C50,72.9,50.6,72.4,50.6,71.7z"/>
				<path d="M48.2,71.7c0,0.7,0.5,1.2,1.2,1.2l0-2.4C48.7,70.5,48.2,71,48.2,71.7z"/>
				<path d="M81,45.6c0,0.7,0.5,1.5,1.2,1.5s1.2-0.4,1.2-1.1c-0.1,0-0.2,0-0.3,0C82.4,45.8,81.7,45.7,81,45.6z"/>
				<path d="M81,45.6c0.7,0.1,1.4,0.2,2.1,0.4C82.5,45.7,81.7,45.7,81,45.6z"/>
				<path d="M82.2,44.6c-0.7,0-1.2,0.3-1.2,0.9c0.7,0.1,1.4,0.2,2.1,0.4c0.1,0,0.2,0,0.3,0C83.4,45.3,82.9,44.6,82.2,44.6z"/>
				<path d="M83.4,46c-0.1,0-0.2,0-0.3,0C83.2,46,83.4,46,83.4,46z"/>
			</g>
		</g>
	</g>
</g>
<g id="ICONS_-_DARK_PURPLE" display="none">
	<g display="inline">
		<g>
			<g>
				<path fill="#4F2556" d="M25.9,59.3c-0.7,0-1.3,0.6-1.3,1.3c0,0.7,0.6,1.3,1.3,1.3h18.6c0.7,0,1.3-0.6,1.3-1.3
					c0-0.7-0.6-1.3-1.3-1.3H25.9z"/>
				<polygon fill="#4F2556" points="16.1,42.6 80.4,42.5 16.1,42.5 				"/>
				<path fill="#4F2556" d="M21.2,73l28.1,0L21.2,73c-4.2,0-7.5-3.4-7.5-7.6V36.5c0-4.2,3.4-7.5,7.5-7.5h54.6c4.2,0,7.5,3.4,7.5,7.5
					l0,9.5l0-9.5c0-4.2-3.4-7.6-7.6-7.6H21.2c-4.2,0-7.6,3.4-7.6,7.6v28.9C13.6,69.6,17,73,21.2,73z"/>
				<path fill="#4F2556" d="M21.2,70.5l28.1,0L21.2,70.5c-2.8-0.1-5.1-2.3-5.1-5.1l0-22.8v22.8C16.1,68.2,18.4,70.5,21.2,70.5z"/>
				<path fill="#4F2556" d="M75.9,31.4H21.2c-2.8,0-5.1,2.3-5.1,5.1v3.6h0v-3.6c0-2.8,2.3-5.1,5.1-5.1L75.9,31.4
					c2.8,0.1,5.1,2.3,5.1,5.1l0,3.6l-64.7,0H81v-3.6C81,33.7,78.7,31.4,75.9,31.4z"/>
				<polygon fill="#4F2556" points="81,42.5 81,45.6 81,42.5 				"/>
				<polygon fill="#4F2556" points="80.4,42.5 81,42.5 81,42.5 				"/>
				<polygon fill="#4F2556" points="16.2,40.1 16.3,40.1 16.2,40.1 				"/>
				<polygon fill="#4F2556" points="16.1,42.6 16.1,42.6 16.1,42.6 				"/>
				<path fill="#4F2556" d="M75.9,29H21.2c-4.2,0-7.5,3.4-7.5,7.5v28.9c0,4.2,3.4,7.5,7.5,7.5l28.1,0c-0.7,0-1.2-0.6-1.2-1.2
					c0-0.7,0.5-1.2,1.2-1.2l-28.1,0c-2.8,0-5.1-2.3-5.1-5.1V42.6l0,0h0v0h64.3l0.6,0v0h0l0,3c0-0.7,0.5-0.9,1.2-0.9s1.2,0.7,1.2,1.4
					l0-9.5C83.4,32.3,80,29,75.9,29z M81,40.1H16.3l-0.2,0v0h0v-3.6c0-2.8,2.3-5.1,5.1-5.1h54.6c2.8,0,5.1,2.3,5.1,5.1V40.1z"/>
				<path fill="#4F2556" d="M72.4,49.3c-10.4,0-18.9,8.5-18.9,18.9S62,87.1,72.4,87.1s18.9-8.5,18.9-18.9S82.9,49.3,72.4,49.3z
					 M72.4,84.6c-9.1,0-16.4-7.4-16.4-16.4s7.4-16.4,16.4-16.4s16.4,7.4,16.4,16.4S81.5,84.6,72.4,84.6z"/>
				<path fill="#4F2556" d="M80.5,61.3L67.9,73.9l-3.7-3.7c-0.5-0.5-1.3-0.5-1.8,0s-0.5,1.3,0,1.8l4.6,4.6c0.2,0.2,0.6,0.4,0.9,0.4
					c0.3,0,0.6-0.1,0.9-0.4l13.5-13.5c0.5-0.5,0.5-1.3,0-1.8S81,60.8,80.5,61.3z"/>
				<path fill="#4F2556" d="M50.6,71.7c0-0.7-0.6-1.2-1.3-1.2l0,2.4C50,72.9,50.6,72.4,50.6,71.7z"/>
				<path fill="#4F2556" d="M48.2,71.7c0,0.7,0.5,1.2,1.2,1.2l0-2.4C48.7,70.5,48.2,71,48.2,71.7z"/>
				<path fill="#4F2556" d="M81,45.6c0,0.7,0.5,1.5,1.2,1.5s1.2-0.4,1.2-1.1c-0.1,0-0.2,0-0.3,0C82.4,45.8,81.7,45.7,81,45.6z"/>
				<path fill="#4F2556" d="M81,45.6c0.7,0.1,1.4,0.2,2.1,0.4C82.5,45.7,81.7,45.7,81,45.6z"/>
				<path fill="#4F2556" d="M82.2,44.6c-0.7,0-1.2,0.3-1.2,0.9c0.7,0.1,1.4,0.2,2.1,0.4c0.1,0,0.2,0,0.3,0
					C83.4,45.3,82.9,44.6,82.2,44.6z"/>
				<path fill="#4F2556" d="M83.4,46c-0.1,0-0.2,0-0.3,0C83.2,46,83.4,46,83.4,46z"/>
			</g>
		</g>
	</g>
</g>
<g id="ICONS_-_WARM_GREY" display="none">
	<g display="inline">
		<g>
			<g>
				<path fill="#534C63" d="M25.9,59.3c-0.7,0-1.3,0.6-1.3,1.3c0,0.7,0.6,1.3,1.3,1.3h18.6c0.7,0,1.3-0.6,1.3-1.3
					c0-0.7-0.6-1.3-1.3-1.3H25.9z"/>
				<polygon fill="#534C63" points="16.1,42.6 80.4,42.5 16.1,42.5 				"/>
				<path fill="#534C63" d="M21.2,73l28.1,0L21.2,73c-4.2,0-7.5-3.4-7.5-7.6V36.5c0-4.2,3.4-7.5,7.5-7.5h54.6c4.2,0,7.5,3.4,7.5,7.5
					l0,9.5l0-9.5c0-4.2-3.4-7.6-7.6-7.6H21.2c-4.2,0-7.6,3.4-7.6,7.6v28.9C13.6,69.6,17,73,21.2,73z"/>
				<path fill="#534C63" d="M21.2,70.5l28.1,0L21.2,70.5c-2.8-0.1-5.1-2.3-5.1-5.1l0-22.8v22.8C16.1,68.2,18.4,70.5,21.2,70.5z"/>
				<path fill="#534C63" d="M75.9,31.4H21.2c-2.8,0-5.1,2.3-5.1,5.1v3.6h0v-3.6c0-2.8,2.3-5.1,5.1-5.1L75.9,31.4
					c2.8,0.1,5.1,2.3,5.1,5.1l0,3.6l-64.7,0H81v-3.6C81,33.7,78.7,31.4,75.9,31.4z"/>
				<polygon fill="#534C63" points="81,42.5 81,45.6 81,42.5 				"/>
				<polygon fill="#534C63" points="80.4,42.5 81,42.5 81,42.5 				"/>
				<polygon fill="#534C63" points="16.2,40.1 16.3,40.1 16.2,40.1 				"/>
				<polygon fill="#534C63" points="16.1,42.6 16.1,42.6 16.1,42.6 				"/>
				<path fill="#534C63" d="M75.9,29H21.2c-4.2,0-7.5,3.4-7.5,7.5v28.9c0,4.2,3.4,7.5,7.5,7.5l28.1,0c-0.7,0-1.2-0.6-1.2-1.2
					c0-0.7,0.5-1.2,1.2-1.2l-28.1,0c-2.8,0-5.1-2.3-5.1-5.1V42.6l0,0h0v0h64.3l0.6,0v0h0l0,3c0-0.7,0.5-0.9,1.2-0.9s1.2,0.7,1.2,1.4
					l0-9.5C83.4,32.3,80,29,75.9,29z M81,40.1H16.3l-0.2,0v0h0v-3.6c0-2.8,2.3-5.1,5.1-5.1h54.6c2.8,0,5.1,2.3,5.1,5.1V40.1z"/>
				<path fill="#534C63" d="M72.4,49.3c-10.4,0-18.9,8.5-18.9,18.9S62,87.1,72.4,87.1s18.9-8.5,18.9-18.9S82.9,49.3,72.4,49.3z
					 M72.4,84.6c-9.1,0-16.4-7.4-16.4-16.4s7.4-16.4,16.4-16.4s16.4,7.4,16.4,16.4S81.5,84.6,72.4,84.6z"/>
				<path fill="#534C63" d="M80.5,61.3L67.9,73.9l-3.7-3.7c-0.5-0.5-1.3-0.5-1.8,0s-0.5,1.3,0,1.8l4.6,4.6c0.2,0.2,0.6,0.4,0.9,0.4
					c0.3,0,0.6-0.1,0.9-0.4l13.5-13.5c0.5-0.5,0.5-1.3,0-1.8S81,60.8,80.5,61.3z"/>
				<path fill="#534C63" d="M50.6,71.7c0-0.7-0.6-1.2-1.3-1.2l0,2.4C50,72.9,50.6,72.4,50.6,71.7z"/>
				<path fill="#534C63" d="M48.2,71.7c0,0.7,0.5,1.2,1.2,1.2l0-2.4C48.7,70.5,48.2,71,48.2,71.7z"/>
				<path fill="#534C63" d="M81,45.6c0,0.7,0.5,1.5,1.2,1.5s1.2-0.4,1.2-1.1c-0.1,0-0.2,0-0.3,0C82.4,45.8,81.7,45.7,81,45.6z"/>
				<path fill="#534C63" d="M81,45.6c0.7,0.1,1.4,0.2,2.1,0.4C82.5,45.7,81.7,45.7,81,45.6z"/>
				<path fill="#534C63" d="M82.2,44.6c-0.7,0-1.2,0.3-1.2,0.9c0.7,0.1,1.4,0.2,2.1,0.4c0.1,0,0.2,0,0.3,0
					C83.4,45.3,82.9,44.6,82.2,44.6z"/>
				<path fill="#534C63" d="M83.4,46c-0.1,0-0.2,0-0.3,0C83.2,46,83.4,46,83.4,46z"/>
			</g>
		</g>
	</g>
</g>
<g id="ICONS_-_SKRILL_TEAL" display="none">
	<g display="inline">
		<g>
			<g>
				<path fill="#41AEB5" d="M25.9,59.3c-0.7,0-1.3,0.6-1.3,1.3c0,0.7,0.6,1.3,1.3,1.3h18.6c0.7,0,1.3-0.6,1.3-1.3
					c0-0.7-0.6-1.3-1.3-1.3H25.9z"/>
				<polygon fill="#41AEB5" points="16.1,42.6 80.4,42.5 16.1,42.5 				"/>
				<path fill="#41AEB5" d="M21.2,73l28.1,0L21.2,73c-4.2,0-7.5-3.4-7.5-7.6V36.5c0-4.2,3.4-7.5,7.5-7.5h54.6c4.2,0,7.5,3.4,7.5,7.5
					l0,9.5l0-9.5c0-4.2-3.4-7.6-7.6-7.6H21.2c-4.2,0-7.6,3.4-7.6,7.6v28.9C13.6,69.6,17,73,21.2,73z"/>
				<path fill="#41AEB5" d="M21.2,70.5l28.1,0L21.2,70.5c-2.8-0.1-5.1-2.3-5.1-5.1l0-22.8v22.8C16.1,68.2,18.4,70.5,21.2,70.5z"/>
				<path fill="#41AEB5" d="M75.9,31.4H21.2c-2.8,0-5.1,2.3-5.1,5.1v3.6h0v-3.6c0-2.8,2.3-5.1,5.1-5.1L75.9,31.4
					c2.8,0.1,5.1,2.3,5.1,5.1l0,3.6l-64.7,0H81v-3.6C81,33.7,78.7,31.4,75.9,31.4z"/>
				<polygon fill="#41AEB5" points="81,42.5 81,45.6 81,42.5 				"/>
				<polygon fill="#41AEB5" points="80.4,42.5 81,42.5 81,42.5 				"/>
				<polygon fill="#41AEB5" points="16.2,40.1 16.3,40.1 16.2,40.1 				"/>
				<polygon fill="#41AEB5" points="16.1,42.6 16.1,42.6 16.1,42.6 				"/>
				<path fill="#41AEB5" d="M75.9,29H21.2c-4.2,0-7.5,3.4-7.5,7.5v28.9c0,4.2,3.4,7.5,7.5,7.5l28.1,0c-0.7,0-1.2-0.6-1.2-1.2
					c0-0.7,0.5-1.2,1.2-1.2l-28.1,0c-2.8,0-5.1-2.3-5.1-5.1V42.6l0,0h0v0h64.3l0.6,0v0h0l0,3c0-0.7,0.5-0.9,1.2-0.9s1.2,0.7,1.2,1.4
					l0-9.5C83.4,32.3,80,29,75.9,29z M81,40.1H16.3l-0.2,0v0h0v-3.6c0-2.8,2.3-5.1,5.1-5.1h54.6c2.8,0,5.1,2.3,5.1,5.1V40.1z"/>
				<path fill="#41AEB5" d="M72.4,49.3c-10.4,0-18.9,8.5-18.9,18.9S62,87.1,72.4,87.1s18.9-8.5,18.9-18.9S82.9,49.3,72.4,49.3z
					 M72.4,84.6c-9.1,0-16.4-7.4-16.4-16.4s7.4-16.4,16.4-16.4s16.4,7.4,16.4,16.4S81.5,84.6,72.4,84.6z"/>
				<path fill="#41AEB5" d="M80.5,61.3L67.9,73.9l-3.7-3.7c-0.5-0.5-1.3-0.5-1.8,0s-0.5,1.3,0,1.8l4.6,4.6c0.2,0.2,0.6,0.4,0.9,0.4
					c0.3,0,0.6-0.1,0.9-0.4l13.5-13.5c0.5-0.5,0.5-1.3,0-1.8S81,60.8,80.5,61.3z"/>
				<path fill="#41AEB5" d="M50.6,71.7c0-0.7-0.6-1.2-1.3-1.2l0,2.4C50,72.9,50.6,72.4,50.6,71.7z"/>
				<path fill="#41AEB5" d="M48.2,71.7c0,0.7,0.5,1.2,1.2,1.2l0-2.4C48.7,70.5,48.2,71,48.2,71.7z"/>
				<path fill="#41AEB5" d="M81,45.6c0,0.7,0.5,1.5,1.2,1.5s1.2-0.4,1.2-1.1c-0.1,0-0.2,0-0.3,0C82.4,45.8,81.7,45.7,81,45.6z"/>
				<path fill="#41AEB5" d="M81,45.6c0.7,0.1,1.4,0.2,2.1,0.4C82.5,45.7,81.7,45.7,81,45.6z"/>
				<path fill="#41AEB5" d="M82.2,44.6c-0.7,0-1.2,0.3-1.2,0.9c0.7,0.1,1.4,0.2,2.1,0.4c0.1,0,0.2,0,0.3,0
					C83.4,45.3,82.9,44.6,82.2,44.6z"/>
				<path fill="#41AEB5" d="M83.4,46c-0.1,0-0.2,0-0.3,0C83.2,46,83.4,46,83.4,46z"/>
			</g>
		</g>
	</g>
</g>
<g id="ICONS_-_SKRILL_PURPLE">
	<g>
		<g>
			<g>
				<path fill="#811E68" d="M25.9,59.3c-0.7,0-1.3,0.6-1.3,1.3c0,0.7,0.6,1.3,1.3,1.3h18.6c0.7,0,1.3-0.6,1.3-1.3
					c0-0.7-0.6-1.3-1.3-1.3H25.9z"/>
				<polygon fill="#811E68" points="16.1,42.6 80.4,42.5 16.1,42.5 				"/>
				<path fill="#811E68" d="M21.2,73l28.1,0L21.2,73c-4.2,0-7.5-3.4-7.5-7.6V36.5c0-4.2,3.4-7.5,7.5-7.5h54.6c4.2,0,7.5,3.4,7.5,7.5
					l0,9.5l0-9.5c0-4.2-3.4-7.6-7.6-7.6H21.2c-4.2,0-7.6,3.4-7.6,7.6v28.9C13.6,69.6,17,73,21.2,73z"/>
				<path fill="#811E68" d="M21.2,70.5l28.1,0L21.2,70.5c-2.8-0.1-5.1-2.3-5.1-5.1l0-22.8v22.8C16.1,68.2,18.4,70.5,21.2,70.5z"/>
				<path fill="#811E68" d="M75.9,31.4H21.2c-2.8,0-5.1,2.3-5.1,5.1v3.6h0v-3.6c0-2.8,2.3-5.1,5.1-5.1L75.9,31.4
					c2.8,0.1,5.1,2.3,5.1,5.1l0,3.6l-64.7,0H81v-3.6C81,33.7,78.7,31.4,75.9,31.4z"/>
				<polygon fill="#811E68" points="81,42.5 81,45.6 81,42.5 				"/>
				<polygon fill="#811E68" points="80.4,42.5 81,42.5 81,42.5 				"/>
				<polygon fill="#811E68" points="16.2,40.1 16.3,40.1 16.2,40.1 				"/>
				<polygon fill="#811E68" points="16.1,42.6 16.1,42.6 16.1,42.6 				"/>
				<path fill="#811E68" d="M75.9,29H21.2c-4.2,0-7.5,3.4-7.5,7.5v28.9c0,4.2,3.4,7.5,7.5,7.5l28.1,0c-0.7,0-1.2-0.6-1.2-1.2
					c0-0.7,0.5-1.2,1.2-1.2l-28.1,0c-2.8,0-5.1-2.3-5.1-5.1V42.6l0,0h0v0h64.3l0.6,0v0h0l0,3c0-0.7,0.5-0.9,1.2-0.9s1.2,0.7,1.2,1.4
					l0-9.5C83.4,32.3,80,29,75.9,29z M81,40.1H16.3l-0.2,0v0h0v-3.6c0-2.8,2.3-5.1,5.1-5.1h54.6c2.8,0,5.1,2.3,5.1,5.1V40.1z"/>
				<path fill="#811E68" d="M72.4,49.3c-10.4,0-18.9,8.5-18.9,18.9S62,87.1,72.4,87.1s18.9-8.5,18.9-18.9S82.9,49.3,72.4,49.3z
					 M72.4,84.6c-9.1,0-16.4-7.4-16.4-16.4s7.4-16.4,16.4-16.4s16.4,7.4,16.4,16.4S81.5,84.6,72.4,84.6z"/>
				<path fill="#811E68" d="M80.5,61.3L67.9,73.9l-3.7-3.7c-0.5-0.5-1.3-0.5-1.8,0s-0.5,1.3,0,1.8l4.6,4.6c0.2,0.2,0.6,0.4,0.9,0.4
					c0.3,0,0.6-0.1,0.9-0.4l13.5-13.5c0.5-0.5,0.5-1.3,0-1.8S81,60.8,80.5,61.3z"/>
				<path fill="#811E68" d="M50.6,71.7c0-0.7-0.6-1.2-1.3-1.2l0,2.4C50,72.9,50.6,72.4,50.6,71.7z"/>
				<path fill="#811E68" d="M48.2,71.7c0,0.7,0.5,1.2,1.2,1.2l0-2.4C48.7,70.5,48.2,71,48.2,71.7z"/>
				<path fill="#811E68" d="M81,45.6c0,0.7,0.5,1.5,1.2,1.5s1.2-0.4,1.2-1.1c-0.1,0-0.2,0-0.3,0C82.4,45.8,81.7,45.7,81,45.6z"/>
				<path fill="#811E68" d="M81,45.6c0.7,0.1,1.4,0.2,2.1,0.4C82.5,45.7,81.7,45.7,81,45.6z"/>
				<path fill="#811E68" d="M82.2,44.6c-0.7,0-1.2,0.3-1.2,0.9c0.7,0.1,1.4,0.2,2.1,0.4c0.1,0,0.2,0,0.3,0
					C83.4,45.3,82.9,44.6,82.2,44.6z"/>
				<path fill="#811E68" d="M83.4,46c-0.1,0-0.2,0-0.3,0C83.2,46,83.4,46,83.4,46z"/>
			</g>
		</g>
	</g>
</g>
<g id="ICONS_-_WHITE" display="none">
	<g display="inline">
		<g>
			<g>
				<path fill="#FFFFFF" d="M25.9,59.3c-0.7,0-1.3,0.6-1.3,1.3c0,0.7,0.6,1.3,1.3,1.3h18.6c0.7,0,1.3-0.6,1.3-1.3
					c0-0.7-0.6-1.3-1.3-1.3H25.9z"/>
				<polygon fill="#FFFFFF" points="16.1,42.6 80.4,42.5 16.1,42.5 				"/>
				<path fill="#FFFFFF" d="M21.2,73l28.1,0L21.2,73c-4.2,0-7.5-3.4-7.5-7.6V36.5c0-4.2,3.4-7.5,7.5-7.5h54.6c4.2,0,7.5,3.4,7.5,7.5
					l0,9.5l0-9.5c0-4.2-3.4-7.6-7.6-7.6H21.2c-4.2,0-7.6,3.4-7.6,7.6v28.9C13.6,69.6,17,73,21.2,73z"/>
				<path fill="#FFFFFF" d="M21.2,70.5l28.1,0L21.2,70.5c-2.8-0.1-5.1-2.3-5.1-5.1l0-22.8v22.8C16.1,68.2,18.4,70.5,21.2,70.5z"/>
				<path fill="#FFFFFF" d="M75.9,31.4H21.2c-2.8,0-5.1,2.3-5.1,5.1v3.6h0v-3.6c0-2.8,2.3-5.1,5.1-5.1L75.9,31.4
					c2.8,0.1,5.1,2.3,5.1,5.1l0,3.6l-64.7,0H81v-3.6C81,33.7,78.7,31.4,75.9,31.4z"/>
				<polygon fill="#FFFFFF" points="81,42.5 81,45.6 81,42.5 				"/>
				<polygon fill="#FFFFFF" points="80.4,42.5 81,42.5 81,42.5 				"/>
				<polygon fill="#FFFFFF" points="16.2,40.1 16.3,40.1 16.2,40.1 				"/>
				<polygon fill="#FFFFFF" points="16.1,42.6 16.1,42.6 16.1,42.6 				"/>
				<path fill="#FFFFFF" d="M75.9,29H21.2c-4.2,0-7.5,3.4-7.5,7.5v28.9c0,4.2,3.4,7.5,7.5,7.5l28.1,0c-0.7,0-1.2-0.6-1.2-1.2
					c0-0.7,0.5-1.2,1.2-1.2l-28.1,0c-2.8,0-5.1-2.3-5.1-5.1V42.6l0,0h0v0h64.3l0.6,0v0h0l0,3c0-0.7,0.5-0.9,1.2-0.9s1.2,0.7,1.2,1.4
					l0-9.5C83.4,32.3,80,29,75.9,29z M81,40.1H16.3l-0.2,0v0h0v-3.6c0-2.8,2.3-5.1,5.1-5.1h54.6c2.8,0,5.1,2.3,5.1,5.1V40.1z"/>
				<path fill="#FFFFFF" d="M72.4,49.3c-10.4,0-18.9,8.5-18.9,18.9S62,87.1,72.4,87.1s18.9-8.5,18.9-18.9S82.9,49.3,72.4,49.3z
					 M72.4,84.6c-9.1,0-16.4-7.4-16.4-16.4s7.4-16.4,16.4-16.4s16.4,7.4,16.4,16.4S81.5,84.6,72.4,84.6z"/>
				<path fill="#FFFFFF" d="M80.5,61.3L67.9,73.9l-3.7-3.7c-0.5-0.5-1.3-0.5-1.8,0s-0.5,1.3,0,1.8l4.6,4.6c0.2,0.2,0.6,0.4,0.9,0.4
					c0.3,0,0.6-0.1,0.9-0.4l13.5-13.5c0.5-0.5,0.5-1.3,0-1.8S81,60.8,80.5,61.3z"/>
				<path fill="#FFFFFF" d="M50.6,71.7c0-0.7-0.6-1.2-1.3-1.2l0,2.4C50,72.9,50.6,72.4,50.6,71.7z"/>
				<path fill="#FFFFFF" d="M48.2,71.7c0,0.7,0.5,1.2,1.2,1.2l0-2.4C48.7,70.5,48.2,71,48.2,71.7z"/>
				<path fill="#FFFFFF" d="M81,45.6c0,0.7,0.5,1.5,1.2,1.5s1.2-0.4,1.2-1.1c-0.1,0-0.2,0-0.3,0C82.4,45.8,81.7,45.7,81,45.6z"/>
				<path fill="#FFFFFF" d="M81,45.6c0.7,0.1,1.4,0.2,2.1,0.4C82.5,45.7,81.7,45.7,81,45.6z"/>
				<path fill="#FFFFFF" d="M82.2,44.6c-0.7,0-1.2,0.3-1.2,0.9c0.7,0.1,1.4,0.2,2.1,0.4c0.1,0,0.2,0,0.3,0
					C83.4,45.3,82.9,44.6,82.2,44.6z"/>
				<path fill="#FFFFFF" d="M83.4,46c-0.1,0-0.2,0-0.3,0C83.2,46,83.4,46,83.4,46z"/>
			</g>
		</g>
	</g>
</g>
<g id="LABELS">
</g>
</svg>
