<?xml version="1.0" encoding="utf-8"?>
<!-- Generator: Adobe Illustrator 18.1.1, SVG Export Plug-In . SVG Version: 6.00 Build 0)  -->
<svg version="1.1" xmlns="http://www.w3.org/2000/svg" xmlns:xlink="http://www.w3.org/1999/xlink" x="0px" y="0px"
	 viewBox="0 0 100 100" enable-background="new 0 0 100 100" xml:space="preserve">
<g id="GUIDES">
</g>
<g id="ICONS_-_BLACK" display="none">
	<g display="inline">
		<g>
			<g>
				<path d="M86.6,19.4c0-0.3-0.1-0.7-0.4-0.9l-4.4-4.4c-0.5-0.5-1.3-0.5-1.8,0l-8.3,8.3c-2.5-1.5-5.4-2.2-8.4-2.2
					c-4.5,0-8.7,1.7-11.8,4.9l-5.8,5.8c-0.5,0.5-0.5,1.3,0,1.8l21.9,21.9c0.2,0.2,0.6,0.4,0.9,0.4s0.7-0.1,0.9-0.4l5.8-5.8
					c5.4-5.4,6.4-13.7,2.7-20.2l8.3-8.3C86.5,20,86.6,19.7,86.6,19.4z M75.5,27.5c-0.4,0.4-0.5,1.1-0.2,1.6c3.7,5.6,3,13.1-1.8,17.9
					l-5,5L48.5,31.8l5-5c2.7-2.7,6.3-4.2,10.1-4.2c2.8,0,5.5,0.8,7.9,2.4c0.5,0.3,1.2,0.3,1.6-0.2l8.1-8.1l2.6,2.6L75.5,27.5z"/>
				<path d="M56,51l-8.6,8.6l-6.8-6.8l8.6-8.6c1.3-1.3,1.3-3.4,0-4.7c-1.3-1.3-3.8-1.6-5-0.3l-8.6,8.6l-2.4-2.4
					c-0.5-0.5-1.3-0.5-1.8,0l-5.8,5.8c-5.4,5.4-6.4,13.7-2.7,20.2l-8.3,8.3c-0.5,0.5-0.5,1.3,0,1.8l4.4,4.4c0.2,0.2,0.6,0.4,0.9,0.4
					s0.7-0.1,0.9-0.4l8.3-8.3c2.5,1.5,5.4,2.2,8.4,2.2h0c4.5,0,8.7-1.7,11.8-4.9L55,69c0.2-0.2,0.4-0.6,0.4-0.9s-0.1-0.7-0.4-0.9
					l-2.4-2.4l8.6-8.6c0.6-0.6,1-1.5,1-2.3c0-0.9-0.9-2.3-1.6-2.9C59.4,49.7,57.2,49.7,56,51z M59.5,54.5L59.5,54.5L59.5,54.5
					L59.5,54.5L50,64c-0.5,0.5-0.5,1.3,0,1.8l2.4,2.4l-5,5c-2.7,2.7-6.3,4.2-10.1,4.2h0c-2.8,0-5.5-0.8-7.9-2.4
					c-0.5-0.3-1.2-0.3-1.6,0.2l-8.1,8.1l-2.6-2.6l8.1-8.1c0.4-0.4,0.5-1.1,0.2-1.6c-3.7-5.6-3-13.1,1.8-17.9l5-5l2.2,2.2
					c0.5,0.5,1.3,0.5,1.8,0L46,41l0,0c0.4-0.4,1-0.3,1.4,0.1c0.4,0.4,0.4,1,0.1,1.4l0,0L38,52c-0.2,0.2-0.4,0.6-0.4,0.9
					s0.1,0.7,0.4,0.9l8.4,8.4c0.5,0.5,1.3,0.5,1.8,0l9.5-9.5c0.4-0.4,1.2-0.2,1.6,0.2C59.7,53.3,59.8,54,59.5,54.5z"/>
			</g>
		</g>
	</g>
</g>
<g id="ICONS_-_DARK_PURPLE" display="none">
	<g display="inline">
		<g>
			<g>
				<path fill="#4F2556" d="M86.6,19.4c0-0.3-0.1-0.7-0.4-0.9l-4.4-4.4c-0.5-0.5-1.3-0.5-1.8,0l-8.3,8.3c-2.5-1.5-5.4-2.2-8.4-2.2
					c-4.5,0-8.7,1.7-11.8,4.9l-5.8,5.8c-0.5,0.5-0.5,1.3,0,1.8l21.9,21.9c0.2,0.2,0.6,0.4,0.9,0.4s0.7-0.1,0.9-0.4l5.8-5.8
					c5.4-5.4,6.4-13.7,2.7-20.2l8.3-8.3C86.5,20,86.6,19.7,86.6,19.4z M75.5,27.5c-0.4,0.4-0.5,1.1-0.2,1.6c3.7,5.6,3,13.1-1.8,17.9
					l-5,5L48.5,31.8l5-5c2.7-2.7,6.3-4.2,10.1-4.2c2.8,0,5.5,0.8,7.9,2.4c0.5,0.3,1.2,0.3,1.6-0.2l8.1-8.1l2.6,2.6L75.5,27.5z"/>
				<path fill="#4F2556" d="M56,51l-8.6,8.6l-6.8-6.8l8.6-8.6c1.3-1.3,1.3-3.4,0-4.7c-1.3-1.3-3.8-1.6-5-0.3l-8.6,8.6l-2.4-2.4
					c-0.5-0.5-1.3-0.5-1.8,0l-5.8,5.8c-5.4,5.4-6.4,13.7-2.7,20.2l-8.3,8.3c-0.5,0.5-0.5,1.3,0,1.8l4.4,4.4c0.2,0.2,0.6,0.4,0.9,0.4
					s0.7-0.1,0.9-0.4l8.3-8.3c2.5,1.5,5.4,2.2,8.4,2.2h0c4.5,0,8.7-1.7,11.8-4.9L55,69c0.2-0.2,0.4-0.6,0.4-0.9s-0.1-0.7-0.4-0.9
					l-2.4-2.4l8.6-8.6c0.6-0.6,1-1.5,1-2.3c0-0.9-0.9-2.3-1.6-2.9C59.4,49.7,57.2,49.7,56,51z M59.5,54.5L59.5,54.5L59.5,54.5
					L59.5,54.5L50,64c-0.5,0.5-0.5,1.3,0,1.8l2.4,2.4l-5,5c-2.7,2.7-6.3,4.2-10.1,4.2h0c-2.8,0-5.5-0.8-7.9-2.4
					c-0.5-0.3-1.2-0.3-1.6,0.2l-8.1,8.1l-2.6-2.6l8.1-8.1c0.4-0.4,0.5-1.1,0.2-1.6c-3.7-5.6-3-13.1,1.8-17.9l5-5l2.2,2.2
					c0.5,0.5,1.3,0.5,1.8,0L46,41l0,0c0.4-0.4,1-0.3,1.4,0.1c0.4,0.4,0.4,1,0.1,1.4l0,0L38,52c-0.2,0.2-0.4,0.6-0.4,0.9
					s0.1,0.7,0.4,0.9l8.4,8.4c0.5,0.5,1.3,0.5,1.8,0l9.5-9.5c0.4-0.4,1.2-0.2,1.6,0.2C59.7,53.3,59.8,54,59.5,54.5z"/>
			</g>
		</g>
	</g>
</g>
<g id="ICONS_-_WARM_GREY" display="none">
	<g display="inline">
		<g>
			<g>
				<path fill="#534C63" d="M86.6,19.4c0-0.3-0.1-0.7-0.4-0.9l-4.4-4.4c-0.5-0.5-1.3-0.5-1.8,0l-8.3,8.3c-2.5-1.5-5.4-2.2-8.4-2.2
					c-4.5,0-8.7,1.7-11.8,4.9l-5.8,5.8c-0.5,0.5-0.5,1.3,0,1.8l21.9,21.9c0.2,0.2,0.6,0.4,0.9,0.4s0.7-0.1,0.9-0.4l5.8-5.8
					c5.4-5.4,6.4-13.7,2.7-20.2l8.3-8.3C86.5,20,86.6,19.7,86.6,19.4z M75.5,27.5c-0.4,0.4-0.5,1.1-0.2,1.6c3.7,5.6,3,13.1-1.8,17.9
					l-5,5L48.5,31.8l5-5c2.7-2.7,6.3-4.2,10.1-4.2c2.8,0,5.5,0.8,7.9,2.4c0.5,0.3,1.2,0.3,1.6-0.2l8.1-8.1l2.6,2.6L75.5,27.5z"/>
				<path fill="#534C63" d="M56,51l-8.6,8.6l-6.8-6.8l8.6-8.6c1.3-1.3,1.3-3.4,0-4.7c-1.3-1.3-3.8-1.6-5-0.3l-8.6,8.6l-2.4-2.4
					c-0.5-0.5-1.3-0.5-1.8,0l-5.8,5.8c-5.4,5.4-6.4,13.7-2.7,20.2l-8.3,8.3c-0.5,0.5-0.5,1.3,0,1.8l4.4,4.4c0.2,0.2,0.6,0.4,0.9,0.4
					s0.7-0.1,0.9-0.4l8.3-8.3c2.5,1.5,5.4,2.2,8.4,2.2h0c4.5,0,8.7-1.7,11.8-4.9L55,69c0.2-0.2,0.4-0.6,0.4-0.9s-0.1-0.7-0.4-0.9
					l-2.4-2.4l8.6-8.6c0.6-0.6,1-1.5,1-2.3c0-0.9-0.9-2.3-1.6-2.9C59.4,49.7,57.2,49.7,56,51z M59.5,54.5L59.5,54.5L59.5,54.5
					L59.5,54.5L50,64c-0.5,0.5-0.5,1.3,0,1.8l2.4,2.4l-5,5c-2.7,2.7-6.3,4.2-10.1,4.2h0c-2.8,0-5.5-0.8-7.9-2.4
					c-0.5-0.3-1.2-0.3-1.6,0.2l-8.1,8.1l-2.6-2.6l8.1-8.1c0.4-0.4,0.5-1.1,0.2-1.6c-3.7-5.6-3-13.1,1.8-17.9l5-5l2.2,2.2
					c0.5,0.5,1.3,0.5,1.8,0L46,41l0,0c0.4-0.4,1-0.3,1.4,0.1c0.4,0.4,0.4,1,0.1,1.4l0,0L38,52c-0.2,0.2-0.4,0.6-0.4,0.9
					s0.1,0.7,0.4,0.9l8.4,8.4c0.5,0.5,1.3,0.5,1.8,0l9.5-9.5c0.4-0.4,1.2-0.2,1.6,0.2C59.7,53.3,59.8,54,59.5,54.5z"/>
			</g>
		</g>
	</g>
</g>
<g id="ICONS_-_SKRILL_TEAL" display="none">
	<g display="inline">
		<g>
			<g>
				<path fill="#41AEB5" d="M86.6,19.4c0-0.3-0.1-0.7-0.4-0.9l-4.4-4.4c-0.5-0.5-1.3-0.5-1.8,0l-8.3,8.3c-2.5-1.5-5.4-2.2-8.4-2.2
					c-4.5,0-8.7,1.7-11.8,4.9l-5.8,5.8c-0.5,0.5-0.5,1.3,0,1.8l21.9,21.9c0.2,0.2,0.6,0.4,0.9,0.4s0.7-0.1,0.9-0.4l5.8-5.8
					c5.4-5.4,6.4-13.7,2.7-20.2l8.3-8.3C86.5,20,86.6,19.7,86.6,19.4z M75.5,27.5c-0.4,0.4-0.5,1.1-0.2,1.6c3.7,5.6,3,13.1-1.8,17.9
					l-5,5L48.5,31.8l5-5c2.7-2.7,6.3-4.2,10.1-4.2c2.8,0,5.5,0.8,7.9,2.4c0.5,0.3,1.2,0.3,1.6-0.2l8.1-8.1l2.6,2.6L75.5,27.5z"/>
				<path fill="#41AEB5" d="M56,51l-8.6,8.6l-6.8-6.8l8.6-8.6c1.3-1.3,1.3-3.4,0-4.7c-1.3-1.3-3.8-1.6-5-0.3l-8.6,8.6l-2.4-2.4
					c-0.5-0.5-1.3-0.5-1.8,0l-5.8,5.8c-5.4,5.4-6.4,13.7-2.7,20.2l-8.3,8.3c-0.5,0.5-0.5,1.3,0,1.8l4.4,4.4c0.2,0.2,0.6,0.4,0.9,0.4
					s0.7-0.1,0.9-0.4l8.3-8.3c2.5,1.5,5.4,2.2,8.4,2.2h0c4.5,0,8.7-1.7,11.8-4.9L55,69c0.2-0.2,0.4-0.6,0.4-0.9s-0.1-0.7-0.4-0.9
					l-2.4-2.4l8.6-8.6c0.6-0.6,1-1.5,1-2.3c0-0.9-0.9-2.3-1.6-2.9C59.4,49.7,57.2,49.7,56,51z M59.5,54.5L59.5,54.5L59.5,54.5
					L59.5,54.5L50,64c-0.5,0.5-0.5,1.3,0,1.8l2.4,2.4l-5,5c-2.7,2.7-6.3,4.2-10.1,4.2h0c-2.8,0-5.5-0.8-7.9-2.4
					c-0.5-0.3-1.2-0.3-1.6,0.2l-8.1,8.1l-2.6-2.6l8.1-8.1c0.4-0.4,0.5-1.1,0.2-1.6c-3.7-5.6-3-13.1,1.8-17.9l5-5l2.2,2.2
					c0.5,0.5,1.3,0.5,1.8,0L46,41l0,0c0.4-0.4,1-0.3,1.4,0.1c0.4,0.4,0.4,1,0.1,1.4l0,0L38,52c-0.2,0.2-0.4,0.6-0.4,0.9
					s0.1,0.7,0.4,0.9l8.4,8.4c0.5,0.5,1.3,0.5,1.8,0l9.5-9.5c0.4-0.4,1.2-0.2,1.6,0.2C59.7,53.3,59.8,54,59.5,54.5z"/>
			</g>
		</g>
	</g>
</g>
<g id="ICONS_-_SKRILL_PURPLE">
	<g>
		<g>
			<g>
				<path fill="#811E68" d="M86.6,19.4c0-0.3-0.1-0.7-0.4-0.9l-4.4-4.4c-0.5-0.5-1.3-0.5-1.8,0l-8.3,8.3c-2.5-1.5-5.4-2.2-8.4-2.2
					c-4.5,0-8.7,1.7-11.8,4.9l-5.8,5.8c-0.5,0.5-0.5,1.3,0,1.8l21.9,21.9c0.2,0.2,0.6,0.4,0.9,0.4s0.7-0.1,0.9-0.4l5.8-5.8
					c5.4-5.4,6.4-13.7,2.7-20.2l8.3-8.3C86.5,20,86.6,19.7,86.6,19.4z M75.5,27.5c-0.4,0.4-0.5,1.1-0.2,1.6c3.7,5.6,3,13.1-1.8,17.9
					l-5,5L48.5,31.8l5-5c2.7-2.7,6.3-4.2,10.1-4.2c2.8,0,5.5,0.8,7.9,2.4c0.5,0.3,1.2,0.3,1.6-0.2l8.1-8.1l2.6,2.6L75.5,27.5z"/>
				<path fill="#811E68" d="M56,51l-8.6,8.6l-6.8-6.8l8.6-8.6c1.3-1.3,1.3-3.4,0-4.7c-1.3-1.3-3.8-1.6-5-0.3l-8.6,8.6l-2.4-2.4
					c-0.5-0.5-1.3-0.5-1.8,0l-5.8,5.8c-5.4,5.4-6.4,13.7-2.7,20.2l-8.3,8.3c-0.5,0.5-0.5,1.3,0,1.8l4.4,4.4c0.2,0.2,0.6,0.4,0.9,0.4
					s0.7-0.1,0.9-0.4l8.3-8.3c2.5,1.5,5.4,2.2,8.4,2.2h0c4.5,0,8.7-1.7,11.8-4.9L55,69c0.2-0.2,0.4-0.6,0.4-0.9s-0.1-0.7-0.4-0.9
					l-2.4-2.4l8.6-8.6c0.6-0.6,1-1.5,1-2.3c0-0.9-0.9-2.3-1.6-2.9C59.4,49.7,57.2,49.7,56,51z M59.5,54.5L59.5,54.5L59.5,54.5
					L59.5,54.5L50,64c-0.5,0.5-0.5,1.3,0,1.8l2.4,2.4l-5,5c-2.7,2.7-6.3,4.2-10.1,4.2h0c-2.8,0-5.5-0.8-7.9-2.4
					c-0.5-0.3-1.2-0.3-1.6,0.2l-8.1,8.1l-2.6-2.6l8.1-8.1c0.4-0.4,0.5-1.1,0.2-1.6c-3.7-5.6-3-13.1,1.8-17.9l5-5l2.2,2.2
					c0.5,0.5,1.3,0.5,1.8,0L46,41l0,0c0.4-0.4,1-0.3,1.4,0.1c0.4,0.4,0.4,1,0.1,1.4l0,0L38,52c-0.2,0.2-0.4,0.6-0.4,0.9
					s0.1,0.7,0.4,0.9l8.4,8.4c0.5,0.5,1.3,0.5,1.8,0l9.5-9.5c0.4-0.4,1.2-0.2,1.6,0.2C59.7,53.3,59.8,54,59.5,54.5z"/>
			</g>
		</g>
	</g>
</g>
<g id="ICONS_-_WHITE" display="none">
	<g display="inline">
		<g>
			<g>
				<path fill="#FFFFFF" d="M86.6,19.4c0-0.3-0.1-0.7-0.4-0.9l-4.4-4.4c-0.5-0.5-1.3-0.5-1.8,0l-8.3,8.3c-2.5-1.5-5.4-2.2-8.4-2.2
					c-4.5,0-8.7,1.7-11.8,4.9l-5.8,5.8c-0.5,0.5-0.5,1.3,0,1.8l21.9,21.9c0.2,0.2,0.6,0.4,0.9,0.4s0.7-0.1,0.9-0.4l5.8-5.8
					c5.4-5.4,6.4-13.7,2.7-20.2l8.3-8.3C86.5,20,86.6,19.7,86.6,19.4z M75.5,27.5c-0.4,0.4-0.5,1.1-0.2,1.6c3.7,5.6,3,13.1-1.8,17.9
					l-5,5L48.5,31.8l5-5c2.7-2.7,6.3-4.2,10.1-4.2c2.8,0,5.5,0.8,7.9,2.4c0.5,0.3,1.2,0.3,1.6-0.2l8.1-8.1l2.6,2.6L75.5,27.5z"/>
				<path fill="#FFFFFF" d="M56,51l-8.6,8.6l-6.8-6.8l8.6-8.6c1.3-1.3,1.3-3.4,0-4.7c-1.3-1.3-3.8-1.6-5-0.3l-8.6,8.6l-2.4-2.4
					c-0.5-0.5-1.3-0.5-1.8,0l-5.8,5.8c-5.4,5.4-6.4,13.7-2.7,20.2l-8.3,8.3c-0.5,0.5-0.5,1.3,0,1.8l4.4,4.4c0.2,0.2,0.6,0.4,0.9,0.4
					s0.7-0.1,0.9-0.4l8.3-8.3c2.5,1.5,5.4,2.2,8.4,2.2h0c4.5,0,8.7-1.7,11.8-4.9L55,69c0.2-0.2,0.4-0.6,0.4-0.9s-0.1-0.7-0.4-0.9
					l-2.4-2.4l8.6-8.6c0.6-0.6,1-1.5,1-2.3c0-0.9-0.9-2.3-1.6-2.9C59.4,49.7,57.2,49.7,56,51z M59.5,54.5L59.5,54.5L59.5,54.5
					L59.5,54.5L50,64c-0.5,0.5-0.5,1.3,0,1.8l2.4,2.4l-5,5c-2.7,2.7-6.3,4.2-10.1,4.2h0c-2.8,0-5.5-0.8-7.9-2.4
					c-0.5-0.3-1.2-0.3-1.6,0.2l-8.1,8.1l-2.6-2.6l8.1-8.1c0.4-0.4,0.5-1.1,0.2-1.6c-3.7-5.6-3-13.1,1.8-17.9l5-5l2.2,2.2
					c0.5,0.5,1.3,0.5,1.8,0L46,41l0,0c0.4-0.4,1-0.3,1.4,0.1c0.4,0.4,0.4,1,0.1,1.4l0,0L38,52c-0.2,0.2-0.4,0.6-0.4,0.9
					s0.1,0.7,0.4,0.9l8.4,8.4c0.5,0.5,1.3,0.5,1.8,0l9.5-9.5c0.4-0.4,1.2-0.2,1.6,0.2C59.7,53.3,59.8,54,59.5,54.5z"/>
			</g>
		</g>
	</g>
</g>
<g id="LABELS">
</g>
</svg>
