<?xml version="1.0" encoding="utf-8"?>
<!-- Generator: Adobe Illustrator 18.1.1, SVG Export Plug-In . SVG Version: 6.00 Build 0)  -->
<svg version="1.1" xmlns="http://www.w3.org/2000/svg" xmlns:xlink="http://www.w3.org/1999/xlink" x="0px" y="0px"
	 viewBox="0 0 100 100" enable-background="new 0 0 100 100" xml:space="preserve">
<g id="GUIDES">
</g>
<g id="ICONS_-_BLACK" display="none">
	<g display="inline">
		<g>
			<path d="M67.6,58.7c-3.3-3.6-7.5-6.1-12.3-7.4l-2.1-0.6l2-0.8c7-2.9,11.6-9.7,11.6-17.3c0-10.3-8.4-18.7-18.7-18.7
				c-10.3,0-18.7,8.4-18.7,18.7c0,7.6,4.6,14.4,11.6,17.3l2,0.8l-2.1,0.6c-4.7,1.3-9,3.9-12.3,7.4c-5.2,5.5-8,13.3-8,21.9
				c0,0.3,0.1,0.7,0.4,0.9c0.2,0.2,0.6,0.4,0.9,0.4h52.4c0.3,0,0.7-0.1,0.9-0.4c0.2-0.2,0.4-0.6,0.4-0.9
				C75.6,72,72.8,64.2,67.6,58.7z M36.7,44c-3.1-3.1-4.7-7.1-4.7-11.4c0-4.3,1.7-8.4,4.7-11.4c3.1-3.1,7.1-4.7,11.4-4.7
				c4.3,0,8.4,1.7,11.4,4.7c3.1,3.1,4.7,7.1,4.7,11.4c0,4.3-1.7,8.4-4.7,11.4c-3.1,3.1-7.1,4.7-11.4,4.7C43.8,48.7,39.7,47,36.7,44z
				 M23.2,79.3l0-0.8c0.4-7.2,2.9-13.4,7.3-18.1c4.6-4.9,10.8-7.6,17.6-7.6c6.8,0,13,2.7,17.6,7.6c4.3,4.7,6.8,10.9,7.3,18.1l0,0.8
				H23.2z"/>
		</g>
	</g>
</g>
<g id="ICONS_-_DARK_PURPLE" display="none">
	<g display="inline">
		<g>
			<path fill="#4F2556" d="M67.6,58.7c-3.3-3.6-7.5-6.1-12.3-7.4l-2.1-0.6l2-0.8c7-2.9,11.6-9.7,11.6-17.3
				c0-10.3-8.4-18.7-18.7-18.7c-10.3,0-18.7,8.4-18.7,18.7c0,7.6,4.6,14.4,11.6,17.3l2,0.8l-2.1,0.6c-4.7,1.3-9,3.9-12.3,7.4
				c-5.2,5.5-8,13.3-8,21.9c0,0.3,0.1,0.7,0.4,0.9c0.2,0.2,0.6,0.4,0.9,0.4h52.4c0.3,0,0.7-0.1,0.9-0.4c0.2-0.2,0.4-0.6,0.4-0.9
				C75.6,72,72.8,64.2,67.6,58.7z M36.7,44c-3.1-3.1-4.7-7.1-4.7-11.4c0-4.3,1.7-8.4,4.7-11.4c3.1-3.1,7.1-4.7,11.4-4.7
				c4.3,0,8.4,1.7,11.4,4.7c3.1,3.1,4.7,7.1,4.7,11.4c0,4.3-1.7,8.4-4.7,11.4c-3.1,3.1-7.1,4.7-11.4,4.7C43.8,48.7,39.7,47,36.7,44z
				 M23.2,79.3l0-0.8c0.4-7.2,2.9-13.4,7.3-18.1c4.6-4.9,10.8-7.6,17.6-7.6c6.8,0,13,2.7,17.6,7.6c4.3,4.7,6.8,10.9,7.3,18.1l0,0.8
				H23.2z"/>
		</g>
	</g>
</g>
<g id="ICONS_-_WARM_GREY" display="none">
	<g display="inline">
		<g>
			<path fill="#534C63" d="M67.6,58.7c-3.3-3.6-7.5-6.1-12.3-7.4l-2.1-0.6l2-0.8c7-2.9,11.6-9.7,11.6-17.3
				c0-10.3-8.4-18.7-18.7-18.7c-10.3,0-18.7,8.4-18.7,18.7c0,7.6,4.6,14.4,11.6,17.3l2,0.8l-2.1,0.6c-4.7,1.3-9,3.9-12.3,7.4
				c-5.2,5.5-8,13.3-8,21.9c0,0.3,0.1,0.7,0.4,0.9c0.2,0.2,0.6,0.4,0.9,0.4h52.4c0.3,0,0.7-0.1,0.9-0.4c0.2-0.2,0.4-0.6,0.4-0.9
				C75.6,72,72.8,64.2,67.6,58.7z M36.7,44c-3.1-3.1-4.7-7.1-4.7-11.4c0-4.3,1.7-8.4,4.7-11.4c3.1-3.1,7.1-4.7,11.4-4.7
				c4.3,0,8.4,1.7,11.4,4.7c3.1,3.1,4.7,7.1,4.7,11.4c0,4.3-1.7,8.4-4.7,11.4c-3.1,3.1-7.1,4.7-11.4,4.7C43.8,48.7,39.7,47,36.7,44z
				 M23.2,79.3l0-0.8c0.4-7.2,2.9-13.4,7.3-18.1c4.6-4.9,10.8-7.6,17.6-7.6c6.8,0,13,2.7,17.6,7.6c4.3,4.7,6.8,10.9,7.3,18.1l0,0.8
				H23.2z"/>
		</g>
	</g>
</g>
<g id="ICONS_-_SKRILL_TEAL" display="none">
	<g display="inline">
		<g>
			<path fill="#41AEB5" d="M67.6,58.7c-3.3-3.6-7.5-6.1-12.3-7.4l-2.1-0.6l2-0.8c7-2.9,11.6-9.7,11.6-17.3
				c0-10.3-8.4-18.7-18.7-18.7c-10.3,0-18.7,8.4-18.7,18.7c0,7.6,4.6,14.4,11.6,17.3l2,0.8l-2.1,0.6c-4.7,1.3-9,3.9-12.3,7.4
				c-5.2,5.5-8,13.3-8,21.9c0,0.3,0.1,0.7,0.4,0.9c0.2,0.2,0.6,0.4,0.9,0.4h52.4c0.3,0,0.7-0.1,0.9-0.4c0.2-0.2,0.4-0.6,0.4-0.9
				C75.6,72,72.8,64.2,67.6,58.7z M36.7,44c-3.1-3.1-4.7-7.1-4.7-11.4c0-4.3,1.7-8.4,4.7-11.4c3.1-3.1,7.1-4.7,11.4-4.7
				c4.3,0,8.4,1.7,11.4,4.7c3.1,3.1,4.7,7.1,4.7,11.4c0,4.3-1.7,8.4-4.7,11.4c-3.1,3.1-7.1,4.7-11.4,4.7C43.8,48.7,39.7,47,36.7,44z
				 M23.2,79.3l0-0.8c0.4-7.2,2.9-13.4,7.3-18.1c4.6-4.9,10.8-7.6,17.6-7.6c6.8,0,13,2.7,17.6,7.6c4.3,4.7,6.8,10.9,7.3,18.1l0,0.8
				H23.2z"/>
		</g>
	</g>
</g>
<g id="ICONS_-_SKRILL_PURPLE">
	<g>
		<g>
			<path fill="#811E68" d="M67.6,58.7c-3.3-3.6-7.5-6.1-12.3-7.4l-2.1-0.6l2-0.8c7-2.9,11.6-9.7,11.6-17.3
				c0-10.3-8.4-18.7-18.7-18.7c-10.3,0-18.7,8.4-18.7,18.7c0,7.6,4.6,14.4,11.6,17.3l2,0.8l-2.1,0.6c-4.7,1.3-9,3.9-12.3,7.4
				c-5.2,5.5-8,13.3-8,21.9c0,0.3,0.1,0.7,0.4,0.9c0.2,0.2,0.6,0.4,0.9,0.4h52.4c0.3,0,0.7-0.1,0.9-0.4c0.2-0.2,0.4-0.6,0.4-0.9
				C75.6,72,72.8,64.2,67.6,58.7z M36.7,44c-3.1-3.1-4.7-7.1-4.7-11.4c0-4.3,1.7-8.4,4.7-11.4c3.1-3.1,7.1-4.7,11.4-4.7
				c4.3,0,8.4,1.7,11.4,4.7c3.1,3.1,4.7,7.1,4.7,11.4c0,4.3-1.7,8.4-4.7,11.4c-3.1,3.1-7.1,4.7-11.4,4.7C43.8,48.7,39.7,47,36.7,44z
				 M23.2,79.3l0-0.8c0.4-7.2,2.9-13.4,7.3-18.1c4.6-4.9,10.8-7.6,17.6-7.6c6.8,0,13,2.7,17.6,7.6c4.3,4.7,6.8,10.9,7.3,18.1l0,0.8
				H23.2z"/>
		</g>
	</g>
</g>
<g id="ICONS_-_WHITE" display="none">
	<g display="inline">
		<g>
			<path fill="#FFFFFF" d="M67.6,58.7c-3.3-3.6-7.5-6.1-12.3-7.4l-2.1-0.6l2-0.8c7-2.9,11.6-9.7,11.6-17.3
				c0-10.3-8.4-18.7-18.7-18.7c-10.3,0-18.7,8.4-18.7,18.7c0,7.6,4.6,14.4,11.6,17.3l2,0.8l-2.1,0.6c-4.7,1.3-9,3.9-12.3,7.4
				c-5.2,5.5-8,13.3-8,21.9c0,0.3,0.1,0.7,0.4,0.9c0.2,0.2,0.6,0.4,0.9,0.4h52.4c0.3,0,0.7-0.1,0.9-0.4c0.2-0.2,0.4-0.6,0.4-0.9
				C75.6,72,72.8,64.2,67.6,58.7z M36.7,44c-3.1-3.1-4.7-7.1-4.7-11.4c0-4.3,1.7-8.4,4.7-11.4c3.1-3.1,7.1-4.7,11.4-4.7
				c4.3,0,8.4,1.7,11.4,4.7c3.1,3.1,4.7,7.1,4.7,11.4c0,4.3-1.7,8.4-4.7,11.4c-3.1,3.1-7.1,4.7-11.4,4.7C43.8,48.7,39.7,47,36.7,44z
				 M23.2,79.3l0-0.8c0.4-7.2,2.9-13.4,7.3-18.1c4.6-4.9,10.8-7.6,17.6-7.6c6.8,0,13,2.7,17.6,7.6c4.3,4.7,6.8,10.9,7.3,18.1l0,0.8
				H23.2z"/>
		</g>
	</g>
</g>
<g id="LABELS">
</g>
</svg>
