<?xml version="1.0" encoding="utf-8"?>
<!-- Generator: Adobe Illustrator 18.1.1, SVG Export Plug-In . SVG Version: 6.00 Build 0)  -->
<svg version="1.1" xmlns="http://www.w3.org/2000/svg" xmlns:xlink="http://www.w3.org/1999/xlink" x="0px" y="0px"
	 viewBox="0 0 100 100" enable-background="new 0 0 100 100" xml:space="preserve">
<g id="GUIDES">
</g>
<g id="ICONS_-_BLACK" display="none">
	<g display="inline">
		<g>
			<g>
				<path d="M78.1,20.6H21.9c-0.7,0-1.3,0.6-1.3,1.3v56.2c0,0.7,0.6,1.3,0.9,1.3h41.8h3.3h11.5c0.7,0,1.3-0.6,1.3-1.3V21.9
					C79.4,21.2,78.8,20.6,78.1,20.6z M76.8,76.9h-6.2h-4.8H23.2V38.3h53.7V76.9z M76.8,35.7H23.2V23.2h53.7V35.7z"/>
				<circle cx="29.4" cy="29.4" r="2.9"/>
				<circle cx="37.7" cy="29.4" r="2.9"/>
				<path d="M45.9,32.3c1.6,0,2.9-1.3,2.9-2.8c0-1.6-1.3-2.9-2.9-2.9c-1.6,0-2.9,1.3-2.9,2.9C43,31,44.3,32.3,45.9,32.3z"/>
				<path d="M50.3,58.8c0.6,0,2.1,0.1,2.1,1.6c0,1.2-1.3,1.9-3.4,1.9c-2.3,0-4.6-0.6-5.9-1.1v4.7c2,0.5,4.3,0.8,7,0.8
					c5.8,0,8.4-3.3,8.4-6.5c0-3.7-2.9-6.1-7.8-6.4c-0.7,0-2.2-0.1-2.2-1.5c0-1.7,2.2-1.7,3.1-1.7c1.5,0,3.4,0.4,4.7,0.8
					c0,0,0.8,0.3,1.4,0.5l0.1,0v-0.1v-4.5l-0.1,0c-1.6-0.6-3.5-1.1-6.9-1.1c-6,0-8.1,3.5-8.1,6.4C42.8,54.3,43.5,58.3,50.3,58.8z"/>
			</g>
		</g>
	</g>
</g>
<g id="ICONS_-_DARK_PURPLE" display="none">
	<g display="inline">
		<g>
			<g>
				<path fill="#4F2556" d="M78.1,20.6H21.9c-0.7,0-1.3,0.6-1.3,1.3v56.2c0,0.7,0.6,1.3,0.9,1.3h41.8h3.3h11.5
					c0.7,0,1.3-0.6,1.3-1.3V21.9C79.4,21.2,78.8,20.6,78.1,20.6z M76.8,76.9h-6.2h-4.8H23.2V38.3h53.7V76.9z M76.8,35.7H23.2V23.2
					h53.7V35.7z"/>
				<circle fill="#4F2556" cx="29.4" cy="29.4" r="2.9"/>
				<circle fill="#4F2556" cx="37.7" cy="29.4" r="2.9"/>
				<path fill="#4F2556" d="M45.9,32.3c1.6,0,2.9-1.3,2.9-2.8c0-1.6-1.3-2.9-2.9-2.9c-1.6,0-2.9,1.3-2.9,2.9
					C43,31,44.3,32.3,45.9,32.3z"/>
				<path fill="#4F2556" d="M50.3,58.8c0.6,0,2.1,0.1,2.1,1.6c0,1.2-1.3,1.9-3.4,1.9c-2.3,0-4.6-0.6-5.9-1.1v4.7
					c2,0.5,4.3,0.8,7,0.8c5.8,0,8.4-3.3,8.4-6.5c0-3.7-2.9-6.1-7.8-6.4c-0.7,0-2.2-0.1-2.2-1.5c0-1.7,2.2-1.7,3.1-1.7
					c1.5,0,3.4,0.4,4.7,0.8c0,0,0.8,0.3,1.4,0.5l0.1,0v-0.1v-4.5l-0.1,0c-1.6-0.6-3.5-1.1-6.9-1.1c-6,0-8.1,3.5-8.1,6.4
					C42.8,54.3,43.5,58.3,50.3,58.8z"/>
			</g>
		</g>
	</g>
</g>
<g id="ICONS_-_WARM_GREY" display="none">
	<g display="inline">
		<g>
			<g>
				<path fill="#534C63" d="M78.1,20.6H21.9c-0.7,0-1.3,0.6-1.3,1.3v56.2c0,0.7,0.6,1.3,0.9,1.3h41.8h3.3h11.5
					c0.7,0,1.3-0.6,1.3-1.3V21.9C79.4,21.2,78.8,20.6,78.1,20.6z M76.8,76.9h-6.2h-4.8H23.2V38.3h53.7V76.9z M76.8,35.7H23.2V23.2
					h53.7V35.7z"/>
				<circle fill="#534C63" cx="29.4" cy="29.4" r="2.9"/>
				<circle fill="#534C63" cx="37.7" cy="29.4" r="2.9"/>
				<path fill="#534C63" d="M45.9,32.3c1.6,0,2.9-1.3,2.9-2.8c0-1.6-1.3-2.9-2.9-2.9c-1.6,0-2.9,1.3-2.9,2.9
					C43,31,44.3,32.3,45.9,32.3z"/>
				<path fill="#534C63" d="M50.3,58.8c0.6,0,2.1,0.1,2.1,1.6c0,1.2-1.3,1.9-3.4,1.9c-2.3,0-4.6-0.6-5.9-1.1v4.7
					c2,0.5,4.3,0.8,7,0.8c5.8,0,8.4-3.3,8.4-6.5c0-3.7-2.9-6.1-7.8-6.4c-0.7,0-2.2-0.1-2.2-1.5c0-1.7,2.2-1.7,3.1-1.7
					c1.5,0,3.4,0.4,4.7,0.8c0,0,0.8,0.3,1.4,0.5l0.1,0v-0.1v-4.5l-0.1,0c-1.6-0.6-3.5-1.1-6.9-1.1c-6,0-8.1,3.5-8.1,6.4
					C42.8,54.3,43.5,58.3,50.3,58.8z"/>
			</g>
		</g>
	</g>
</g>
<g id="ICONS_-_SKRILL_TEAL" display="none">
	<g display="inline">
		<g>
			<g>
				<path fill="#41AEB5" d="M78.1,20.6H21.9c-0.7,0-1.3,0.6-1.3,1.3v56.2c0,0.7,0.6,1.3,0.9,1.3h41.8h3.3h11.5
					c0.7,0,1.3-0.6,1.3-1.3V21.9C79.4,21.2,78.8,20.6,78.1,20.6z M76.8,76.9h-6.2h-4.8H23.2V38.3h53.7V76.9z M76.8,35.7H23.2V23.2
					h53.7V35.7z"/>
				<circle fill="#41AEB5" cx="29.4" cy="29.4" r="2.9"/>
				<circle fill="#41AEB5" cx="37.7" cy="29.4" r="2.9"/>
				<path fill="#41AEB5" d="M45.9,32.3c1.6,0,2.9-1.3,2.9-2.8c0-1.6-1.3-2.9-2.9-2.9c-1.6,0-2.9,1.3-2.9,2.9
					C43,31,44.3,32.3,45.9,32.3z"/>
				<path fill="#41AEB5" d="M50.3,58.8c0.6,0,2.1,0.1,2.1,1.6c0,1.2-1.3,1.9-3.4,1.9c-2.3,0-4.6-0.6-5.9-1.1v4.7
					c2,0.5,4.3,0.8,7,0.8c5.8,0,8.4-3.3,8.4-6.5c0-3.7-2.9-6.1-7.8-6.4c-0.7,0-2.2-0.1-2.2-1.5c0-1.7,2.2-1.7,3.1-1.7
					c1.5,0,3.4,0.4,4.7,0.8c0,0,0.8,0.3,1.4,0.5l0.1,0v-0.1v-4.5l-0.1,0c-1.6-0.6-3.5-1.1-6.9-1.1c-6,0-8.1,3.5-8.1,6.4
					C42.8,54.3,43.5,58.3,50.3,58.8z"/>
			</g>
		</g>
	</g>
</g>
<g id="ICONS_-_SKRILL_PURPLE">
	<g>
		<g>
			<g>
				<path fill="#811E68" d="M78.1,20.6H21.9c-0.7,0-1.3,0.6-1.3,1.3v56.2c0,0.7,0.6,1.3,0.9,1.3h41.8h3.3h11.5
					c0.7,0,1.3-0.6,1.3-1.3V21.9C79.4,21.2,78.8,20.6,78.1,20.6z M76.8,76.9h-6.2h-4.8H23.2V38.3h53.7V76.9z M76.8,35.7H23.2V23.2
					h53.7V35.7z"/>
				<circle fill="#811E68" cx="29.4" cy="29.4" r="2.9"/>
				<circle fill="#811E68" cx="37.7" cy="29.4" r="2.9"/>
				<path fill="#811E68" d="M45.9,32.3c1.6,0,2.9-1.3,2.9-2.8c0-1.6-1.3-2.9-2.9-2.9c-1.6,0-2.9,1.3-2.9,2.9
					C43,31,44.3,32.3,45.9,32.3z"/>
				<path fill="#811E68" d="M50.3,58.8c0.6,0,2.1,0.1,2.1,1.6c0,1.2-1.3,1.9-3.4,1.9c-2.3,0-4.6-0.6-5.9-1.1v4.7
					c2,0.5,4.3,0.8,7,0.8c5.8,0,8.4-3.3,8.4-6.5c0-3.7-2.9-6.1-7.8-6.4c-0.7,0-2.2-0.1-2.2-1.5c0-1.7,2.2-1.7,3.1-1.7
					c1.5,0,3.4,0.4,4.7,0.8c0,0,0.8,0.3,1.4,0.5l0.1,0v-0.1v-4.5l-0.1,0c-1.6-0.6-3.5-1.1-6.9-1.1c-6,0-8.1,3.5-8.1,6.4
					C42.8,54.3,43.5,58.3,50.3,58.8z"/>
			</g>
		</g>
	</g>
</g>
<g id="ICONS_-_WHITE" display="none">
	<g display="inline">
		<g>
			<g>
				<path fill="#FFFFFF" d="M78.1,20.6H21.9c-0.7,0-1.3,0.6-1.3,1.3v56.2c0,0.7,0.6,1.3,0.9,1.3h41.8h3.3h11.5
					c0.7,0,1.3-0.6,1.3-1.3V21.9C79.4,21.2,78.8,20.6,78.1,20.6z M76.8,76.9h-6.2h-4.8H23.2V38.3h53.7V76.9z M76.8,35.7H23.2V23.2
					h53.7V35.7z"/>
				<circle fill="#FFFFFF" cx="29.4" cy="29.4" r="2.9"/>
				<circle fill="#FFFFFF" cx="37.7" cy="29.4" r="2.9"/>
				<path fill="#FFFFFF" d="M45.9,32.3c1.6,0,2.9-1.3,2.9-2.8c0-1.6-1.3-2.9-2.9-2.9c-1.6,0-2.9,1.3-2.9,2.9
					C43,31,44.3,32.3,45.9,32.3z"/>
				<path fill="#FFFFFF" d="M50.3,58.8c0.6,0,2.1,0.1,2.1,1.6c0,1.2-1.3,1.9-3.4,1.9c-2.3,0-4.6-0.6-5.9-1.1v4.7
					c2,0.5,4.3,0.8,7,0.8c5.8,0,8.4-3.3,8.4-6.5c0-3.7-2.9-6.1-7.8-6.4c-0.7,0-2.2-0.1-2.2-1.5c0-1.7,2.2-1.7,3.1-1.7
					c1.5,0,3.4,0.4,4.7,0.8c0,0,0.8,0.3,1.4,0.5l0.1,0v-0.1v-4.5l-0.1,0c-1.6-0.6-3.5-1.1-6.9-1.1c-6,0-8.1,3.5-8.1,6.4
					C42.8,54.3,43.5,58.3,50.3,58.8z"/>
			</g>
		</g>
	</g>
</g>
<g id="LABELS">
</g>
</svg>
