<?xml version="1.0" encoding="utf-8"?>
<!-- Generator: Adobe Illustrator 18.1.1, SVG Export Plug-In . SVG Version: 6.00 Build 0)  -->
<svg version="1.1" xmlns="http://www.w3.org/2000/svg" xmlns:xlink="http://www.w3.org/1999/xlink" x="0px" y="0px"
	 viewBox="0 0 100 100" enable-background="new 0 0 100 100" xml:space="preserve">
<g id="GUIDES">
</g>
<g id="ICONS_-_BLACK" display="none">
	<g display="inline">
		<g>
			<g>
				<path d="M44.5,47.8c1-0.4,1.8-1,2.4-1.8c0.6-0.8,1.1-1.7,1.4-2.7c0.3-1,0.4-2.1,0.4-3.3c0-1-0.1-2-0.3-2.9
					c-0.2-1-0.6-1.9-1.1-2.7c-0.6-0.8-1.4-1.4-2.3-1.9c-1-0.4-2.1-0.7-3.5-0.7c-1.3,0-2.4,0.2-3.3,0.6c-1,0.4-1.8,1.1-2.4,1.8
					c-0.6,0.8-1,1.7-1.3,2.7c-0.3,1-0.4,2-0.4,3.2c0,1.1,0.1,2.2,0.3,3.1c0.2,1,0.6,1.9,1.2,2.7c0.6,0.8,1.4,1.4,2.4,1.8
					c0.9,0.4,2.1,0.6,3.4,0.6C42.4,48.5,43.5,48.3,44.5,47.8z M37.4,44.5c-0.4-0.5-0.6-1-0.7-1.7c-0.2-0.7-0.3-1.6-0.3-2.5
					c0-0.9,0.1-1.7,0.3-2.5c0.2-0.7,0.5-1.3,0.9-1.8c0.4-0.5,0.8-0.8,1.4-1.1c0.6-0.3,1.4-0.4,2.3-0.4c1,0,1.8,0.1,2.4,0.4
					c0.6,0.3,1,0.6,1.3,1.1c0.3,0.5,0.6,1,0.7,1.7c0.2,0.7,0.2,1.5,0.2,2.4c0,1-0.1,1.8-0.3,2.6c-0.2,0.7-0.5,1.3-0.9,1.7
					c-0.4,0.5-0.8,0.8-1.4,1.1c-0.6,0.3-1.4,0.4-2.3,0.4c-1,0-1.8-0.1-2.4-0.4C38.2,45.2,37.8,44.9,37.4,44.5z"/>
				<path d="M84.9,46.3l-2-1.2c-0.8-0.5-1.4-1.3-1.6-2.2c-0.2-0.9,0-1.9,0.5-2.7l1.3-2c1-1.5,1.2-3.1,0.6-4.3
					c-0.6-1.3-2-2.1-3.7-2.3l-2.3-0.2c-1-0.1-1.8-0.5-2.4-1.3c-0.6-0.7-0.8-1.7-0.7-2.6l0.3-2.3c0.2-1.5-0.1-2.8-0.9-3.7
					c-0.7-0.8-1.7-1.2-2.8-1.2c-0.6,0-1.3,0.1-1.9,0.4l-2.2,0.8c-0.4,0.1-0.8,0.2-1.2,0.2c-1.5,0-2.8-1-3.3-2.4l-0.7-2.2
					c-0.7-2-2.1-3.2-3.8-3.2c-1.2,0-2.3,0.6-3.3,1.6L53,17.1c-0.6,0.7-1.5,1.1-2.5,1.1s-1.9-0.4-2.5-1.1l-1.6-1.7
					c-1-1.1-2.1-1.6-3.3-1.6c-1.7,0-3.1,1.2-3.8,3.2l-0.7,2.2c-0.5,1.4-1.8,2.4-3.3,2.4c-0.4,0-0.8-0.1-1.2-0.2l-2.2-0.8
					c-0.7-0.2-1.3-0.4-1.9-0.4c-1.2,0-2.2,0.4-2.8,1.2c-0.8,0.9-1.1,2.2-0.9,3.7l0.3,2.3c0.1,1-0.1,1.9-0.7,2.6
					c-0.6,0.7-1.4,1.2-2.4,1.3l-2.3,0.2c-1.8,0.2-3.1,1-3.7,2.3c-0.6,1.3-0.4,2.9,0.6,4.3l1.3,2c0.5,0.8,0.7,1.8,0.5,2.7
					c-0.2,0.9-0.8,1.7-1.6,2.2l-2,1.2c-1.5,0.9-2.4,2.2-2.4,3.7s0.9,2.8,2.4,3.7l2,1.2c0.8,0.5,1.4,1.3,1.6,2.2
					c0.2,0.9,0,1.9-0.5,2.7l-1.3,2c-1,1.5-1.2,3.1-0.6,4.3c0.6,1.3,2,2.1,3.7,2.3l2.3,0.2c1,0.1,1.8,0.5,2.4,1.3
					c0.6,0.7,0.8,1.7,0.7,2.6l-0.3,2.3c-0.2,1.5,0.1,2.8,0.9,3.7c0.7,0.8,1.7,1.2,2.8,1.2c0.6,0,1.3-0.1,1.9-0.4l2.2-0.8
					c0.4-0.1,0.8-0.2,1.2-0.2c1.5,0,2.8,1,3.3,2.4l0.7,2.2c0.7,2,2.1,3.2,3.8,3.2c1.2,0,2.3-0.6,3.3-1.6l1.6-1.7
					c0.6-0.7,1.5-1.1,2.5-1.1s1.9,0.4,2.5,1.1l1.6,1.7c1,1.1,2.1,1.6,3.3,1.6c1.7,0,3.1-1.2,3.8-3.2l0.7-2.2
					c0.5-1.4,1.8-2.4,3.3-2.4c0.4,0,0.8,0.1,1.2,0.2l2.2,0.8c0.7,0.3,1.3,0.4,2,0.4c1.1,0,2.1-0.4,2.8-1.2c0.8-0.9,1.1-2.2,0.9-3.7
					l-0.3-2.3c-0.1-1,0.1-1.9,0.7-2.6c0.6-0.7,1.4-1.2,2.4-1.3l2.3-0.2c1.8-0.2,3.1-1,3.7-2.3c0.6-1.3,0.4-2.9-0.6-4.3l-1.3-2
					c-0.5-0.8-0.7-1.8-0.5-2.7c0.2-0.9,0.8-1.7,1.6-2.2l2-1.2c1.5-0.9,2.4-2.2,2.4-3.7C87.3,48.6,86.4,47.3,84.9,46.3z M83.6,51.4
					l-2,1.2c-1.4,0.9-2.4,2.2-2.8,3.8c-0.4,1.6-0.1,3.3,0.9,4.7l1.3,2c0.5,0.7,0.6,1.4,0.4,1.8c-0.2,0.4-0.8,0.7-1.6,0.8L77.4,66
					c-1.7,0.2-3.1,0.9-4.2,2.2c-1,1.3-1.5,2.9-1.2,4.6l0.3,2.3c0.1,0.7,0,1.3-0.3,1.7c-0.1,0.1-0.3,0.3-0.9,0.3
					c-0.3,0-0.7-0.1-1.1-0.2l-2.2-0.8c-0.7-0.3-1.4-0.4-2.1-0.4c-2.6,0-4.9,1.7-5.7,4.2l-0.7,2.2c-0.1,0.4-0.6,1.5-1.4,1.5
					c-0.4,0-1-0.3-1.5-0.8l-1.6-1.7c-1.2-1.2-2.7-1.9-4.3-1.9s-3.2,0.7-4.3,1.9l-1.6,1.7c-0.5,0.5-1,0.8-1.5,0.8
					c-0.8,0-1.2-1-1.4-1.5L41,79.9c-0.8-2.5-3.1-4.2-5.7-4.2c-0.7,0-1.5,0.1-2.1,0.4L31,76.9c-0.4,0.1-0.7,0.2-1.1,0.2
					c-0.6,0-0.8-0.3-0.9-0.3c-0.3-0.3-0.4-0.9-0.3-1.7l0.3-2.3c0.2-1.7-0.2-3.3-1.2-4.6c-1-1.3-2.5-2.1-4.2-2.2l-2.3-0.2
					c-0.8-0.1-1.4-0.4-1.6-0.8c-0.2-0.4-0.1-1.1,0.4-1.8l1.3-2c0.9-1.4,1.2-3.1,0.9-4.7c-0.4-1.6-1.4-3-2.8-3.8l-2-1.2
					c-0.7-0.4-1.1-1-1.1-1.4s0.4-1,1.1-1.4l2-1.2c1.4-0.9,2.4-2.2,2.8-3.8c0.4-1.6,0.1-3.3-0.9-4.7l-1.3-2c-0.5-0.7-0.6-1.4-0.4-1.8
					c0.2-0.4,0.8-0.7,1.6-0.8l2.3-0.2c1.7-0.2,3.1-0.9,4.2-2.2c1-1.3,1.5-2.9,1.2-4.6l-0.3-2.3c-0.1-0.7,0-1.3,0.3-1.7
					c0.1-0.1,0.3-0.3,0.9-0.3c0.3,0,0.7,0.1,1.1,0.2l2.2,0.8c0.7,0.3,1.4,0.4,2.1,0.4c2.6,0,4.9-1.7,5.7-4.2l0.7-2.2
					c0.1-0.4,0.6-1.5,1.4-1.5c0.4,0,1,0.3,1.5,0.8l1.6,1.7c1.2,1.2,2.7,1.9,4.3,1.9s3.2-0.7,4.3-1.9l1.6-1.7c0.5-0.5,1-0.8,1.5-0.8
					c0.8,0,1.2,1,1.4,1.5l0.7,2.2c0.8,2.5,3.1,4.2,5.7,4.2c0.7,0,1.4-0.1,2.1-0.4l2.2-0.8c0.4-0.1,0.7-0.2,1.1-0.2
					c0.6,0,0.8,0.3,0.9,0.3c0.3,0.3,0.4,0.9,0.3,1.7l-0.3,2.3c-0.2,1.7,0.2,3.3,1.2,4.6c1,1.3,2.5,2.1,4.2,2.2l2.3,0.2
					c0.8,0.1,1.4,0.4,1.6,0.8c0.2,0.4,0.1,1.1-0.4,1.8l-1.3,2c-0.9,1.4-1.2,3.1-0.9,4.7c0.4,1.6,1.4,3,2.8,3.8l2,1.2
					c0.7,0.4,1.1,1,1.1,1.4C84.7,50.5,84.3,51,83.6,51.4z"/>
				<path d="M67.1,52.5c-0.6-0.8-1.4-1.4-2.3-1.9c-1-0.4-2.1-0.7-3.5-0.7c-1.3,0-2.4,0.2-3.3,0.6c-1,0.4-1.8,1.1-2.4,1.8
					c-0.6,0.8-1,1.7-1.3,2.7c-0.3,1-0.4,2-0.4,3.2c0,1.1,0.1,2.2,0.3,3.1c0.2,1,0.6,1.9,1.2,2.7c0.6,0.8,1.4,1.4,2.4,1.8
					c0.9,0.4,2.1,0.6,3.4,0.6c1.3,0,2.4-0.2,3.3-0.6c1-0.4,1.8-1,2.4-1.8c0.6-0.8,1.1-1.7,1.4-2.7c0.3-1,0.4-2.1,0.4-3.3
					c0-1-0.1-2-0.3-2.9C68,54.2,67.6,53.3,67.1,52.5z M65.6,60.7c-0.2,0.7-0.5,1.3-0.9,1.7c-0.4,0.5-0.8,0.8-1.4,1.1
					c-0.6,0.3-1.4,0.4-2.3,0.4c-1,0-1.8-0.1-2.4-0.4c-0.6-0.3-1-0.6-1.4-1c-0.4-0.5-0.6-1-0.7-1.7c-0.2-0.8-0.3-1.6-0.3-2.5
					c0-0.9,0.1-1.7,0.3-2.5c0.2-0.7,0.5-1.3,0.9-1.8c0.4-0.5,0.8-0.8,1.4-1.1c0.6-0.3,1.4-0.4,2.3-0.4c1,0,1.8,0.1,2.4,0.4
					c0.6,0.3,1,0.6,1.3,1.1c0.3,0.5,0.6,1,0.7,1.7c0.2,0.7,0.2,1.5,0.2,2.4C65.9,59.1,65.8,59.9,65.6,60.7z"/>
				<path d="M62.5,33.5c-0.6-0.4-1.4-0.3-1.8,0.3L38.6,64.4c-0.4,0.6-0.3,1.4,0.3,1.8c0.6,0.4,1.4,0.3,1.8-0.3l22.1-30.6
					C63.2,34.8,63.1,34,62.5,33.5z"/>
			</g>
		</g>
	</g>
</g>
<g id="ICONS_-_DARK_PURPLE" display="none">
	<g display="inline">
		<g>
			<g>
				<path fill="#4F2556" d="M44.5,47.8c1-0.4,1.8-1,2.4-1.8c0.6-0.8,1.1-1.7,1.4-2.7c0.3-1,0.4-2.1,0.4-3.3c0-1-0.1-2-0.3-2.9
					c-0.2-1-0.6-1.9-1.1-2.7c-0.6-0.8-1.4-1.4-2.3-1.9c-1-0.4-2.1-0.7-3.5-0.7c-1.3,0-2.4,0.2-3.3,0.6c-1,0.4-1.8,1.1-2.4,1.8
					c-0.6,0.8-1,1.7-1.3,2.7c-0.3,1-0.4,2-0.4,3.2c0,1.1,0.1,2.2,0.3,3.1c0.2,1,0.6,1.9,1.2,2.7c0.6,0.8,1.4,1.4,2.4,1.8
					c0.9,0.4,2.1,0.6,3.4,0.6C42.4,48.5,43.5,48.3,44.5,47.8z M37.4,44.5c-0.4-0.5-0.6-1-0.7-1.7c-0.2-0.7-0.3-1.6-0.3-2.5
					c0-0.9,0.1-1.7,0.3-2.5c0.2-0.7,0.5-1.3,0.9-1.8c0.4-0.5,0.8-0.8,1.4-1.1c0.6-0.3,1.4-0.4,2.3-0.4c1,0,1.8,0.1,2.4,0.4
					c0.6,0.3,1,0.6,1.3,1.1c0.3,0.5,0.6,1,0.7,1.7c0.2,0.7,0.2,1.5,0.2,2.4c0,1-0.1,1.8-0.3,2.6c-0.2,0.7-0.5,1.3-0.9,1.7
					c-0.4,0.5-0.8,0.8-1.4,1.1c-0.6,0.3-1.4,0.4-2.3,0.4c-1,0-1.8-0.1-2.4-0.4C38.2,45.2,37.8,44.9,37.4,44.5z"/>
				<path fill="#4F2556" d="M84.9,46.3l-2-1.2c-0.8-0.5-1.4-1.3-1.6-2.2c-0.2-0.9,0-1.9,0.5-2.7l1.3-2c1-1.5,1.2-3.1,0.6-4.3
					c-0.6-1.3-2-2.1-3.7-2.3l-2.3-0.2c-1-0.1-1.8-0.5-2.4-1.3c-0.6-0.7-0.8-1.7-0.7-2.6l0.3-2.3c0.2-1.5-0.1-2.8-0.9-3.7
					c-0.7-0.8-1.7-1.2-2.8-1.2c-0.6,0-1.3,0.1-1.9,0.4l-2.2,0.8c-0.4,0.1-0.8,0.2-1.2,0.2c-1.5,0-2.8-1-3.3-2.4l-0.7-2.2
					c-0.7-2-2.1-3.2-3.8-3.2c-1.2,0-2.3,0.6-3.3,1.6L53,17.1c-0.6,0.7-1.5,1.1-2.5,1.1s-1.9-0.4-2.5-1.1l-1.6-1.7
					c-1-1.1-2.1-1.6-3.3-1.6c-1.7,0-3.1,1.2-3.8,3.2l-0.7,2.2c-0.5,1.4-1.8,2.4-3.3,2.4c-0.4,0-0.8-0.1-1.2-0.2l-2.2-0.8
					c-0.7-0.2-1.3-0.4-1.9-0.4c-1.2,0-2.2,0.4-2.8,1.2c-0.8,0.9-1.1,2.2-0.9,3.7l0.3,2.3c0.1,1-0.1,1.9-0.7,2.6
					c-0.6,0.7-1.4,1.2-2.4,1.3l-2.3,0.2c-1.8,0.2-3.1,1-3.7,2.3c-0.6,1.3-0.4,2.9,0.6,4.3l1.3,2c0.5,0.8,0.7,1.8,0.5,2.7
					c-0.2,0.9-0.8,1.7-1.6,2.2l-2,1.2c-1.5,0.9-2.4,2.2-2.4,3.7s0.9,2.8,2.4,3.7l2,1.2c0.8,0.5,1.4,1.3,1.6,2.2
					c0.2,0.9,0,1.9-0.5,2.7l-1.3,2c-1,1.5-1.2,3.1-0.6,4.3c0.6,1.3,2,2.1,3.7,2.3l2.3,0.2c1,0.1,1.8,0.5,2.4,1.3
					c0.6,0.7,0.8,1.7,0.7,2.6l-0.3,2.3c-0.2,1.5,0.1,2.8,0.9,3.7c0.7,0.8,1.7,1.2,2.8,1.2c0.6,0,1.3-0.1,1.9-0.4l2.2-0.8
					c0.4-0.1,0.8-0.2,1.2-0.2c1.5,0,2.8,1,3.3,2.4l0.7,2.2c0.7,2,2.1,3.2,3.8,3.2c1.2,0,2.3-0.6,3.3-1.6l1.6-1.7
					c0.6-0.7,1.5-1.1,2.5-1.1s1.9,0.4,2.5,1.1l1.6,1.7c1,1.1,2.1,1.6,3.3,1.6c1.7,0,3.1-1.2,3.8-3.2l0.7-2.2
					c0.5-1.4,1.8-2.4,3.3-2.4c0.4,0,0.8,0.1,1.2,0.2l2.2,0.8c0.7,0.3,1.3,0.4,2,0.4c1.1,0,2.1-0.4,2.8-1.2c0.8-0.9,1.1-2.2,0.9-3.7
					l-0.3-2.3c-0.1-1,0.1-1.9,0.7-2.6c0.6-0.7,1.4-1.2,2.4-1.3l2.3-0.2c1.8-0.2,3.1-1,3.7-2.3c0.6-1.3,0.4-2.9-0.6-4.3l-1.3-2
					c-0.5-0.8-0.7-1.8-0.5-2.7c0.2-0.9,0.8-1.7,1.6-2.2l2-1.2c1.5-0.9,2.4-2.2,2.4-3.7C87.3,48.6,86.4,47.3,84.9,46.3z M83.6,51.4
					l-2,1.2c-1.4,0.9-2.4,2.2-2.8,3.8c-0.4,1.6-0.1,3.3,0.9,4.7l1.3,2c0.5,0.7,0.6,1.4,0.4,1.8c-0.2,0.4-0.8,0.7-1.6,0.8L77.4,66
					c-1.7,0.2-3.1,0.9-4.2,2.2c-1,1.3-1.5,2.9-1.2,4.6l0.3,2.3c0.1,0.7,0,1.3-0.3,1.7c-0.1,0.1-0.3,0.3-0.9,0.3
					c-0.3,0-0.7-0.1-1.1-0.2l-2.2-0.8c-0.7-0.3-1.4-0.4-2.1-0.4c-2.6,0-4.9,1.7-5.7,4.2l-0.7,2.2c-0.1,0.4-0.6,1.5-1.4,1.5
					c-0.4,0-1-0.3-1.5-0.8l-1.6-1.7c-1.2-1.2-2.7-1.9-4.3-1.9s-3.2,0.7-4.3,1.9l-1.6,1.7c-0.5,0.5-1,0.8-1.5,0.8
					c-0.8,0-1.2-1-1.4-1.5L41,79.9c-0.8-2.5-3.1-4.2-5.7-4.2c-0.7,0-1.5,0.1-2.1,0.4L31,76.9c-0.4,0.1-0.7,0.2-1.1,0.2
					c-0.6,0-0.8-0.3-0.9-0.3c-0.3-0.3-0.4-0.9-0.3-1.7l0.3-2.3c0.2-1.7-0.2-3.3-1.2-4.6c-1-1.3-2.5-2.1-4.2-2.2l-2.3-0.2
					c-0.8-0.1-1.4-0.4-1.6-0.8c-0.2-0.4-0.1-1.1,0.4-1.8l1.3-2c0.9-1.4,1.2-3.1,0.9-4.7c-0.4-1.6-1.4-3-2.8-3.8l-2-1.2
					c-0.7-0.4-1.1-1-1.1-1.4s0.4-1,1.1-1.4l2-1.2c1.4-0.9,2.4-2.2,2.8-3.8c0.4-1.6,0.1-3.3-0.9-4.7l-1.3-2c-0.5-0.7-0.6-1.4-0.4-1.8
					c0.2-0.4,0.8-0.7,1.6-0.8l2.3-0.2c1.7-0.2,3.1-0.9,4.2-2.2c1-1.3,1.5-2.9,1.2-4.6l-0.3-2.3c-0.1-0.7,0-1.3,0.3-1.7
					c0.1-0.1,0.3-0.3,0.9-0.3c0.3,0,0.7,0.1,1.1,0.2l2.2,0.8c0.7,0.3,1.4,0.4,2.1,0.4c2.6,0,4.9-1.7,5.7-4.2l0.7-2.2
					c0.1-0.4,0.6-1.5,1.4-1.5c0.4,0,1,0.3,1.5,0.8l1.6,1.7c1.2,1.2,2.7,1.9,4.3,1.9s3.2-0.7,4.3-1.9l1.6-1.7c0.5-0.5,1-0.8,1.5-0.8
					c0.8,0,1.2,1,1.4,1.5l0.7,2.2c0.8,2.5,3.1,4.2,5.7,4.2c0.7,0,1.4-0.1,2.1-0.4l2.2-0.8c0.4-0.1,0.7-0.2,1.1-0.2
					c0.6,0,0.8,0.3,0.9,0.3c0.3,0.3,0.4,0.9,0.3,1.7l-0.3,2.3c-0.2,1.7,0.2,3.3,1.2,4.6c1,1.3,2.5,2.1,4.2,2.2l2.3,0.2
					c0.8,0.1,1.4,0.4,1.6,0.8c0.2,0.4,0.1,1.1-0.4,1.8l-1.3,2c-0.9,1.4-1.2,3.1-0.9,4.7c0.4,1.6,1.4,3,2.8,3.8l2,1.2
					c0.7,0.4,1.1,1,1.1,1.4C84.7,50.5,84.3,51,83.6,51.4z"/>
				<path fill="#4F2556" d="M67.1,52.5c-0.6-0.8-1.4-1.4-2.3-1.9c-1-0.4-2.1-0.7-3.5-0.7c-1.3,0-2.4,0.2-3.3,0.6
					c-1,0.4-1.8,1.1-2.4,1.8c-0.6,0.8-1,1.7-1.3,2.7c-0.3,1-0.4,2-0.4,3.2c0,1.1,0.1,2.2,0.3,3.1c0.2,1,0.6,1.9,1.2,2.7
					c0.6,0.8,1.4,1.4,2.4,1.8c0.9,0.4,2.1,0.6,3.4,0.6c1.3,0,2.4-0.2,3.3-0.6c1-0.4,1.8-1,2.4-1.8c0.6-0.8,1.1-1.7,1.4-2.7
					c0.3-1,0.4-2.1,0.4-3.3c0-1-0.1-2-0.3-2.9C68,54.2,67.6,53.3,67.1,52.5z M65.6,60.7c-0.2,0.7-0.5,1.3-0.9,1.7
					c-0.4,0.5-0.8,0.8-1.4,1.1c-0.6,0.3-1.4,0.4-2.3,0.4c-1,0-1.8-0.1-2.4-0.4c-0.6-0.3-1-0.6-1.4-1c-0.4-0.5-0.6-1-0.7-1.7
					c-0.2-0.8-0.3-1.6-0.3-2.5c0-0.9,0.1-1.7,0.3-2.5c0.2-0.7,0.5-1.3,0.9-1.8c0.4-0.5,0.8-0.8,1.4-1.1c0.6-0.3,1.4-0.4,2.3-0.4
					c1,0,1.8,0.1,2.4,0.4c0.6,0.3,1,0.6,1.3,1.1c0.3,0.5,0.6,1,0.7,1.7c0.2,0.7,0.2,1.5,0.2,2.4C65.9,59.1,65.8,59.9,65.6,60.7z"/>
				<path fill="#4F2556" d="M62.5,33.5c-0.6-0.4-1.4-0.3-1.8,0.3L38.6,64.4c-0.4,0.6-0.3,1.4,0.3,1.8c0.6,0.4,1.4,0.3,1.8-0.3
					l22.1-30.6C63.2,34.8,63.1,34,62.5,33.5z"/>
			</g>
		</g>
	</g>
</g>
<g id="ICONS_-_WARM_GREY" display="none">
	<g display="inline">
		<g>
			<g>
				<path fill="#534C63" d="M44.5,47.8c1-0.4,1.8-1,2.4-1.8c0.6-0.8,1.1-1.7,1.4-2.7c0.3-1,0.4-2.1,0.4-3.3c0-1-0.1-2-0.3-2.9
					c-0.2-1-0.6-1.9-1.1-2.7c-0.6-0.8-1.4-1.4-2.3-1.9c-1-0.4-2.1-0.7-3.5-0.7c-1.3,0-2.4,0.2-3.3,0.6c-1,0.4-1.8,1.1-2.4,1.8
					c-0.6,0.8-1,1.7-1.3,2.7c-0.3,1-0.4,2-0.4,3.2c0,1.1,0.1,2.2,0.3,3.1c0.2,1,0.6,1.9,1.2,2.7c0.6,0.8,1.4,1.4,2.4,1.8
					c0.9,0.4,2.1,0.6,3.4,0.6C42.4,48.5,43.5,48.3,44.5,47.8z M37.4,44.5c-0.4-0.5-0.6-1-0.7-1.7c-0.2-0.7-0.3-1.6-0.3-2.5
					c0-0.9,0.1-1.7,0.3-2.5c0.2-0.7,0.5-1.3,0.9-1.8c0.4-0.5,0.8-0.8,1.4-1.1c0.6-0.3,1.4-0.4,2.3-0.4c1,0,1.8,0.1,2.4,0.4
					c0.6,0.3,1,0.6,1.3,1.1c0.3,0.5,0.6,1,0.7,1.7c0.2,0.7,0.2,1.5,0.2,2.4c0,1-0.1,1.8-0.3,2.6c-0.2,0.7-0.5,1.3-0.9,1.7
					c-0.4,0.5-0.8,0.8-1.4,1.1c-0.6,0.3-1.4,0.4-2.3,0.4c-1,0-1.8-0.1-2.4-0.4C38.2,45.2,37.8,44.9,37.4,44.5z"/>
				<path fill="#534C63" d="M84.9,46.3l-2-1.2c-0.8-0.5-1.4-1.3-1.6-2.2c-0.2-0.9,0-1.9,0.5-2.7l1.3-2c1-1.5,1.2-3.1,0.6-4.3
					c-0.6-1.3-2-2.1-3.7-2.3l-2.3-0.2c-1-0.1-1.8-0.5-2.4-1.3c-0.6-0.7-0.8-1.7-0.7-2.6l0.3-2.3c0.2-1.5-0.1-2.8-0.9-3.7
					c-0.7-0.8-1.7-1.2-2.8-1.2c-0.6,0-1.3,0.1-1.9,0.4l-2.2,0.8c-0.4,0.1-0.8,0.2-1.2,0.2c-1.5,0-2.8-1-3.3-2.4l-0.7-2.2
					c-0.7-2-2.1-3.2-3.8-3.2c-1.2,0-2.3,0.6-3.3,1.6L53,17.1c-0.6,0.7-1.5,1.1-2.5,1.1s-1.9-0.4-2.5-1.1l-1.6-1.7
					c-1-1.1-2.1-1.6-3.3-1.6c-1.7,0-3.1,1.2-3.8,3.2l-0.7,2.2c-0.5,1.4-1.8,2.4-3.3,2.4c-0.4,0-0.8-0.1-1.2-0.2l-2.2-0.8
					c-0.7-0.2-1.3-0.4-1.9-0.4c-1.2,0-2.2,0.4-2.8,1.2c-0.8,0.9-1.1,2.2-0.9,3.7l0.3,2.3c0.1,1-0.1,1.9-0.7,2.6
					c-0.6,0.7-1.4,1.2-2.4,1.3l-2.3,0.2c-1.8,0.2-3.1,1-3.7,2.3c-0.6,1.3-0.4,2.9,0.6,4.3l1.3,2c0.5,0.8,0.7,1.8,0.5,2.7
					c-0.2,0.9-0.8,1.7-1.6,2.2l-2,1.2c-1.5,0.9-2.4,2.2-2.4,3.7s0.9,2.8,2.4,3.7l2,1.2c0.8,0.5,1.4,1.3,1.6,2.2
					c0.2,0.9,0,1.9-0.5,2.7l-1.3,2c-1,1.5-1.2,3.1-0.6,4.3c0.6,1.3,2,2.1,3.7,2.3l2.3,0.2c1,0.1,1.8,0.5,2.4,1.3
					c0.6,0.7,0.8,1.7,0.7,2.6l-0.3,2.3c-0.2,1.5,0.1,2.8,0.9,3.7c0.7,0.8,1.7,1.2,2.8,1.2c0.6,0,1.3-0.1,1.9-0.4l2.2-0.8
					c0.4-0.1,0.8-0.2,1.2-0.2c1.5,0,2.8,1,3.3,2.4l0.7,2.2c0.7,2,2.1,3.2,3.8,3.2c1.2,0,2.3-0.6,3.3-1.6l1.6-1.7
					c0.6-0.7,1.5-1.1,2.5-1.1s1.9,0.4,2.5,1.1l1.6,1.7c1,1.1,2.1,1.6,3.3,1.6c1.7,0,3.1-1.2,3.8-3.2l0.7-2.2
					c0.5-1.4,1.8-2.4,3.3-2.4c0.4,0,0.8,0.1,1.2,0.2l2.2,0.8c0.7,0.3,1.3,0.4,2,0.4c1.1,0,2.1-0.4,2.8-1.2c0.8-0.9,1.1-2.2,0.9-3.7
					l-0.3-2.3c-0.1-1,0.1-1.9,0.7-2.6c0.6-0.7,1.4-1.2,2.4-1.3l2.3-0.2c1.8-0.2,3.1-1,3.7-2.3c0.6-1.3,0.4-2.9-0.6-4.3l-1.3-2
					c-0.5-0.8-0.7-1.8-0.5-2.7c0.2-0.9,0.8-1.7,1.6-2.2l2-1.2c1.5-0.9,2.4-2.2,2.4-3.7C87.3,48.6,86.4,47.3,84.9,46.3z M83.6,51.4
					l-2,1.2c-1.4,0.9-2.4,2.2-2.8,3.8c-0.4,1.6-0.1,3.3,0.9,4.7l1.3,2c0.5,0.7,0.6,1.4,0.4,1.8c-0.2,0.4-0.8,0.7-1.6,0.8L77.4,66
					c-1.7,0.2-3.1,0.9-4.2,2.2c-1,1.3-1.5,2.9-1.2,4.6l0.3,2.3c0.1,0.7,0,1.3-0.3,1.7c-0.1,0.1-0.3,0.3-0.9,0.3
					c-0.3,0-0.7-0.1-1.1-0.2l-2.2-0.8c-0.7-0.3-1.4-0.4-2.1-0.4c-2.6,0-4.9,1.7-5.7,4.2l-0.7,2.2c-0.1,0.4-0.6,1.5-1.4,1.5
					c-0.4,0-1-0.3-1.5-0.8l-1.6-1.7c-1.2-1.2-2.7-1.9-4.3-1.9s-3.2,0.7-4.3,1.9l-1.6,1.7c-0.5,0.5-1,0.8-1.5,0.8
					c-0.8,0-1.2-1-1.4-1.5L41,79.9c-0.8-2.5-3.1-4.2-5.7-4.2c-0.7,0-1.5,0.1-2.1,0.4L31,76.9c-0.4,0.1-0.7,0.2-1.1,0.2
					c-0.6,0-0.8-0.3-0.9-0.3c-0.3-0.3-0.4-0.9-0.3-1.7l0.3-2.3c0.2-1.7-0.2-3.3-1.2-4.6c-1-1.3-2.5-2.1-4.2-2.2l-2.3-0.2
					c-0.8-0.1-1.4-0.4-1.6-0.8c-0.2-0.4-0.1-1.1,0.4-1.8l1.3-2c0.9-1.4,1.2-3.1,0.9-4.7c-0.4-1.6-1.4-3-2.8-3.8l-2-1.2
					c-0.7-0.4-1.1-1-1.1-1.4s0.4-1,1.1-1.4l2-1.2c1.4-0.9,2.4-2.2,2.8-3.8c0.4-1.6,0.1-3.3-0.9-4.7l-1.3-2c-0.5-0.7-0.6-1.4-0.4-1.8
					c0.2-0.4,0.8-0.7,1.6-0.8l2.3-0.2c1.7-0.2,3.1-0.9,4.2-2.2c1-1.3,1.5-2.9,1.2-4.6l-0.3-2.3c-0.1-0.7,0-1.3,0.3-1.7
					c0.1-0.1,0.3-0.3,0.9-0.3c0.3,0,0.7,0.1,1.1,0.2l2.2,0.8c0.7,0.3,1.4,0.4,2.1,0.4c2.6,0,4.9-1.7,5.7-4.2l0.7-2.2
					c0.1-0.4,0.6-1.5,1.4-1.5c0.4,0,1,0.3,1.5,0.8l1.6,1.7c1.2,1.2,2.7,1.9,4.3,1.9s3.2-0.7,4.3-1.9l1.6-1.7c0.5-0.5,1-0.8,1.5-0.8
					c0.8,0,1.2,1,1.4,1.5l0.7,2.2c0.8,2.5,3.1,4.2,5.7,4.2c0.7,0,1.4-0.1,2.1-0.4l2.2-0.8c0.4-0.1,0.7-0.2,1.1-0.2
					c0.6,0,0.8,0.3,0.9,0.3c0.3,0.3,0.4,0.9,0.3,1.7l-0.3,2.3c-0.2,1.7,0.2,3.3,1.2,4.6c1,1.3,2.5,2.1,4.2,2.2l2.3,0.2
					c0.8,0.1,1.4,0.4,1.6,0.8c0.2,0.4,0.1,1.1-0.4,1.8l-1.3,2c-0.9,1.4-1.2,3.1-0.9,4.7c0.4,1.6,1.4,3,2.8,3.8l2,1.2
					c0.7,0.4,1.1,1,1.1,1.4C84.7,50.5,84.3,51,83.6,51.4z"/>
				<path fill="#534C63" d="M67.1,52.5c-0.6-0.8-1.4-1.4-2.3-1.9c-1-0.4-2.1-0.7-3.5-0.7c-1.3,0-2.4,0.2-3.3,0.6
					c-1,0.4-1.8,1.1-2.4,1.8c-0.6,0.8-1,1.7-1.3,2.7c-0.3,1-0.4,2-0.4,3.2c0,1.1,0.1,2.2,0.3,3.1c0.2,1,0.6,1.9,1.2,2.7
					c0.6,0.8,1.4,1.4,2.4,1.8c0.9,0.4,2.1,0.6,3.4,0.6c1.3,0,2.4-0.2,3.3-0.6c1-0.4,1.8-1,2.4-1.8c0.6-0.8,1.1-1.7,1.4-2.7
					c0.3-1,0.4-2.1,0.4-3.3c0-1-0.1-2-0.3-2.9C68,54.2,67.6,53.3,67.1,52.5z M65.6,60.7c-0.2,0.7-0.5,1.3-0.9,1.7
					c-0.4,0.5-0.8,0.8-1.4,1.1c-0.6,0.3-1.4,0.4-2.3,0.4c-1,0-1.8-0.1-2.4-0.4c-0.6-0.3-1-0.6-1.4-1c-0.4-0.5-0.6-1-0.7-1.7
					c-0.2-0.8-0.3-1.6-0.3-2.5c0-0.9,0.1-1.7,0.3-2.5c0.2-0.7,0.5-1.3,0.9-1.8c0.4-0.5,0.8-0.8,1.4-1.1c0.6-0.3,1.4-0.4,2.3-0.4
					c1,0,1.8,0.1,2.4,0.4c0.6,0.3,1,0.6,1.3,1.1c0.3,0.5,0.6,1,0.7,1.7c0.2,0.7,0.2,1.5,0.2,2.4C65.9,59.1,65.8,59.9,65.6,60.7z"/>
				<path fill="#534C63" d="M62.5,33.5c-0.6-0.4-1.4-0.3-1.8,0.3L38.6,64.4c-0.4,0.6-0.3,1.4,0.3,1.8c0.6,0.4,1.4,0.3,1.8-0.3
					l22.1-30.6C63.2,34.8,63.1,34,62.5,33.5z"/>
			</g>
		</g>
	</g>
</g>
<g id="ICONS_-_SKRILL_TEAL" display="none">
	<g display="inline">
		<g>
			<g>
				<path fill="#41AEB5" d="M44.5,47.8c1-0.4,1.8-1,2.4-1.8c0.6-0.8,1.1-1.7,1.4-2.7c0.3-1,0.4-2.1,0.4-3.3c0-1-0.1-2-0.3-2.9
					c-0.2-1-0.6-1.9-1.1-2.7c-0.6-0.8-1.4-1.4-2.3-1.9c-1-0.4-2.1-0.7-3.5-0.7c-1.3,0-2.4,0.2-3.3,0.6c-1,0.4-1.8,1.1-2.4,1.8
					c-0.6,0.8-1,1.7-1.3,2.7c-0.3,1-0.4,2-0.4,3.2c0,1.1,0.1,2.2,0.3,3.1c0.2,1,0.6,1.9,1.2,2.7c0.6,0.8,1.4,1.4,2.4,1.8
					c0.9,0.4,2.1,0.6,3.4,0.6C42.4,48.5,43.5,48.3,44.5,47.8z M37.4,44.5c-0.4-0.5-0.6-1-0.7-1.7c-0.2-0.7-0.3-1.6-0.3-2.5
					c0-0.9,0.1-1.7,0.3-2.5c0.2-0.7,0.5-1.3,0.9-1.8c0.4-0.5,0.8-0.8,1.4-1.1c0.6-0.3,1.4-0.4,2.3-0.4c1,0,1.8,0.1,2.4,0.4
					c0.6,0.3,1,0.6,1.3,1.1c0.3,0.5,0.6,1,0.7,1.7c0.2,0.7,0.2,1.5,0.2,2.4c0,1-0.1,1.8-0.3,2.6c-0.2,0.7-0.5,1.3-0.9,1.7
					c-0.4,0.5-0.8,0.8-1.4,1.1c-0.6,0.3-1.4,0.4-2.3,0.4c-1,0-1.8-0.1-2.4-0.4C38.2,45.2,37.8,44.9,37.4,44.5z"/>
				<path fill="#41AEB5" d="M84.9,46.3l-2-1.2c-0.8-0.5-1.4-1.3-1.6-2.2c-0.2-0.9,0-1.9,0.5-2.7l1.3-2c1-1.5,1.2-3.1,0.6-4.3
					c-0.6-1.3-2-2.1-3.7-2.3l-2.3-0.2c-1-0.1-1.8-0.5-2.4-1.3c-0.6-0.7-0.8-1.7-0.7-2.6l0.3-2.3c0.2-1.5-0.1-2.8-0.9-3.7
					c-0.7-0.8-1.7-1.2-2.8-1.2c-0.6,0-1.3,0.1-1.9,0.4l-2.2,0.8c-0.4,0.1-0.8,0.2-1.2,0.2c-1.5,0-2.8-1-3.3-2.4l-0.7-2.2
					c-0.7-2-2.1-3.2-3.8-3.2c-1.2,0-2.3,0.6-3.3,1.6L53,17.1c-0.6,0.7-1.5,1.1-2.5,1.1s-1.9-0.4-2.5-1.1l-1.6-1.7
					c-1-1.1-2.1-1.6-3.3-1.6c-1.7,0-3.1,1.2-3.8,3.2l-0.7,2.2c-0.5,1.4-1.8,2.4-3.3,2.4c-0.4,0-0.8-0.1-1.2-0.2l-2.2-0.8
					c-0.7-0.2-1.3-0.4-1.9-0.4c-1.2,0-2.2,0.4-2.8,1.2c-0.8,0.9-1.1,2.2-0.9,3.7l0.3,2.3c0.1,1-0.1,1.9-0.7,2.6
					c-0.6,0.7-1.4,1.2-2.4,1.3l-2.3,0.2c-1.8,0.2-3.1,1-3.7,2.3c-0.6,1.3-0.4,2.9,0.6,4.3l1.3,2c0.5,0.8,0.7,1.8,0.5,2.7
					c-0.2,0.9-0.8,1.7-1.6,2.2l-2,1.2c-1.5,0.9-2.4,2.2-2.4,3.7s0.9,2.8,2.4,3.7l2,1.2c0.8,0.5,1.4,1.3,1.6,2.2
					c0.2,0.9,0,1.9-0.5,2.7l-1.3,2c-1,1.5-1.2,3.1-0.6,4.3c0.6,1.3,2,2.1,3.7,2.3l2.3,0.2c1,0.1,1.8,0.5,2.4,1.3
					c0.6,0.7,0.8,1.7,0.7,2.6l-0.3,2.3c-0.2,1.5,0.1,2.8,0.9,3.7c0.7,0.8,1.7,1.2,2.8,1.2c0.6,0,1.3-0.1,1.9-0.4l2.2-0.8
					c0.4-0.1,0.8-0.2,1.2-0.2c1.5,0,2.8,1,3.3,2.4l0.7,2.2c0.7,2,2.1,3.2,3.8,3.2c1.2,0,2.3-0.6,3.3-1.6l1.6-1.7
					c0.6-0.7,1.5-1.1,2.5-1.1s1.9,0.4,2.5,1.1l1.6,1.7c1,1.1,2.1,1.6,3.3,1.6c1.7,0,3.1-1.2,3.8-3.2l0.7-2.2
					c0.5-1.4,1.8-2.4,3.3-2.4c0.4,0,0.8,0.1,1.2,0.2l2.2,0.8c0.7,0.3,1.3,0.4,2,0.4c1.1,0,2.1-0.4,2.8-1.2c0.8-0.9,1.1-2.2,0.9-3.7
					l-0.3-2.3c-0.1-1,0.1-1.9,0.7-2.6c0.6-0.7,1.4-1.2,2.4-1.3l2.3-0.2c1.8-0.2,3.1-1,3.7-2.3c0.6-1.3,0.4-2.9-0.6-4.3l-1.3-2
					c-0.5-0.8-0.7-1.8-0.5-2.7c0.2-0.9,0.8-1.7,1.6-2.2l2-1.2c1.5-0.9,2.4-2.2,2.4-3.7C87.3,48.6,86.4,47.3,84.9,46.3z M83.6,51.4
					l-2,1.2c-1.4,0.9-2.4,2.2-2.8,3.8c-0.4,1.6-0.1,3.3,0.9,4.7l1.3,2c0.5,0.7,0.6,1.4,0.4,1.8c-0.2,0.4-0.8,0.7-1.6,0.8L77.4,66
					c-1.7,0.2-3.1,0.9-4.2,2.2c-1,1.3-1.5,2.9-1.2,4.6l0.3,2.3c0.1,0.7,0,1.3-0.3,1.7c-0.1,0.1-0.3,0.3-0.9,0.3
					c-0.3,0-0.7-0.1-1.1-0.2l-2.2-0.8c-0.7-0.3-1.4-0.4-2.1-0.4c-2.6,0-4.9,1.7-5.7,4.2l-0.7,2.2c-0.1,0.4-0.6,1.5-1.4,1.5
					c-0.4,0-1-0.3-1.5-0.8l-1.6-1.7c-1.2-1.2-2.7-1.9-4.3-1.9s-3.2,0.7-4.3,1.9l-1.6,1.7c-0.5,0.5-1,0.8-1.5,0.8
					c-0.8,0-1.2-1-1.4-1.5L41,79.9c-0.8-2.5-3.1-4.2-5.7-4.2c-0.7,0-1.5,0.1-2.1,0.4L31,76.9c-0.4,0.1-0.7,0.2-1.1,0.2
					c-0.6,0-0.8-0.3-0.9-0.3c-0.3-0.3-0.4-0.9-0.3-1.7l0.3-2.3c0.2-1.7-0.2-3.3-1.2-4.6c-1-1.3-2.5-2.1-4.2-2.2l-2.3-0.2
					c-0.8-0.1-1.4-0.4-1.6-0.8c-0.2-0.4-0.1-1.1,0.4-1.8l1.3-2c0.9-1.4,1.2-3.1,0.9-4.7c-0.4-1.6-1.4-3-2.8-3.8l-2-1.2
					c-0.7-0.4-1.1-1-1.1-1.4s0.4-1,1.1-1.4l2-1.2c1.4-0.9,2.4-2.2,2.8-3.8c0.4-1.6,0.1-3.3-0.9-4.7l-1.3-2c-0.5-0.7-0.6-1.4-0.4-1.8
					c0.2-0.4,0.8-0.7,1.6-0.8l2.3-0.2c1.7-0.2,3.1-0.9,4.2-2.2c1-1.3,1.5-2.9,1.2-4.6l-0.3-2.3c-0.1-0.7,0-1.3,0.3-1.7
					c0.1-0.1,0.3-0.3,0.9-0.3c0.3,0,0.7,0.1,1.1,0.2l2.2,0.8c0.7,0.3,1.4,0.4,2.1,0.4c2.6,0,4.9-1.7,5.7-4.2l0.7-2.2
					c0.1-0.4,0.6-1.5,1.4-1.5c0.4,0,1,0.3,1.5,0.8l1.6,1.7c1.2,1.2,2.7,1.9,4.3,1.9s3.2-0.7,4.3-1.9l1.6-1.7c0.5-0.5,1-0.8,1.5-0.8
					c0.8,0,1.2,1,1.4,1.5l0.7,2.2c0.8,2.5,3.1,4.2,5.7,4.2c0.7,0,1.4-0.1,2.1-0.4l2.2-0.8c0.4-0.1,0.7-0.2,1.1-0.2
					c0.6,0,0.8,0.3,0.9,0.3c0.3,0.3,0.4,0.9,0.3,1.7l-0.3,2.3c-0.2,1.7,0.2,3.3,1.2,4.6c1,1.3,2.5,2.1,4.2,2.2l2.3,0.2
					c0.8,0.1,1.4,0.4,1.6,0.8c0.2,0.4,0.1,1.1-0.4,1.8l-1.3,2c-0.9,1.4-1.2,3.1-0.9,4.7c0.4,1.6,1.4,3,2.8,3.8l2,1.2
					c0.7,0.4,1.1,1,1.1,1.4C84.7,50.5,84.3,51,83.6,51.4z"/>
				<path fill="#41AEB5" d="M67.1,52.5c-0.6-0.8-1.4-1.4-2.3-1.9c-1-0.4-2.1-0.7-3.5-0.7c-1.3,0-2.4,0.2-3.3,0.6
					c-1,0.4-1.8,1.1-2.4,1.8c-0.6,0.8-1,1.7-1.3,2.7c-0.3,1-0.4,2-0.4,3.2c0,1.1,0.1,2.2,0.3,3.1c0.2,1,0.6,1.9,1.2,2.7
					c0.6,0.8,1.4,1.4,2.4,1.8c0.9,0.4,2.1,0.6,3.4,0.6c1.3,0,2.4-0.2,3.3-0.6c1-0.4,1.8-1,2.4-1.8c0.6-0.8,1.1-1.7,1.4-2.7
					c0.3-1,0.4-2.1,0.4-3.3c0-1-0.1-2-0.3-2.9C68,54.2,67.6,53.3,67.1,52.5z M65.6,60.7c-0.2,0.7-0.5,1.3-0.9,1.7
					c-0.4,0.5-0.8,0.8-1.4,1.1c-0.6,0.3-1.4,0.4-2.3,0.4c-1,0-1.8-0.1-2.4-0.4c-0.6-0.3-1-0.6-1.4-1c-0.4-0.5-0.6-1-0.7-1.7
					c-0.2-0.8-0.3-1.6-0.3-2.5c0-0.9,0.1-1.7,0.3-2.5c0.2-0.7,0.5-1.3,0.9-1.8c0.4-0.5,0.8-0.8,1.4-1.1c0.6-0.3,1.4-0.4,2.3-0.4
					c1,0,1.8,0.1,2.4,0.4c0.6,0.3,1,0.6,1.3,1.1c0.3,0.5,0.6,1,0.7,1.7c0.2,0.7,0.2,1.5,0.2,2.4C65.9,59.1,65.8,59.9,65.6,60.7z"/>
				<path fill="#41AEB5" d="M62.5,33.5c-0.6-0.4-1.4-0.3-1.8,0.3L38.6,64.4c-0.4,0.6-0.3,1.4,0.3,1.8c0.6,0.4,1.4,0.3,1.8-0.3
					l22.1-30.6C63.2,34.8,63.1,34,62.5,33.5z"/>
			</g>
		</g>
	</g>
</g>
<g id="ICONS_-_SKRILL_PURPLE">
	<g>
		<g>
			<g>
				<path fill="#811E68" d="M44.5,47.8c1-0.4,1.8-1,2.4-1.8c0.6-0.8,1.1-1.7,1.4-2.7c0.3-1,0.4-2.1,0.4-3.3c0-1-0.1-2-0.3-2.9
					c-0.2-1-0.6-1.9-1.1-2.7c-0.6-0.8-1.4-1.4-2.3-1.9c-1-0.4-2.1-0.7-3.5-0.7c-1.3,0-2.4,0.2-3.3,0.6c-1,0.4-1.8,1.1-2.4,1.8
					c-0.6,0.8-1,1.7-1.3,2.7c-0.3,1-0.4,2-0.4,3.2c0,1.1,0.1,2.2,0.3,3.1c0.2,1,0.6,1.9,1.2,2.7c0.6,0.8,1.4,1.4,2.4,1.8
					c0.9,0.4,2.1,0.6,3.4,0.6C42.4,48.5,43.5,48.3,44.5,47.8z M37.4,44.5c-0.4-0.5-0.6-1-0.7-1.7c-0.2-0.7-0.3-1.6-0.3-2.5
					c0-0.9,0.1-1.7,0.3-2.5c0.2-0.7,0.5-1.3,0.9-1.8c0.4-0.5,0.8-0.8,1.4-1.1c0.6-0.3,1.4-0.4,2.3-0.4c1,0,1.8,0.1,2.4,0.4
					c0.6,0.3,1,0.6,1.3,1.1c0.3,0.5,0.6,1,0.7,1.7c0.2,0.7,0.2,1.5,0.2,2.4c0,1-0.1,1.8-0.3,2.6c-0.2,0.7-0.5,1.3-0.9,1.7
					c-0.4,0.5-0.8,0.8-1.4,1.1c-0.6,0.3-1.4,0.4-2.3,0.4c-1,0-1.8-0.1-2.4-0.4C38.2,45.2,37.8,44.9,37.4,44.5z"/>
				<path fill="#811E68" d="M84.9,46.3l-2-1.2c-0.8-0.5-1.4-1.3-1.6-2.2c-0.2-0.9,0-1.9,0.5-2.7l1.3-2c1-1.5,1.2-3.1,0.6-4.3
					c-0.6-1.3-2-2.1-3.7-2.3l-2.3-0.2c-1-0.1-1.8-0.5-2.4-1.3c-0.6-0.7-0.8-1.7-0.7-2.6l0.3-2.3c0.2-1.5-0.1-2.8-0.9-3.7
					c-0.7-0.8-1.7-1.2-2.8-1.2c-0.6,0-1.3,0.1-1.9,0.4l-2.2,0.8c-0.4,0.1-0.8,0.2-1.2,0.2c-1.5,0-2.8-1-3.3-2.4l-0.7-2.2
					c-0.7-2-2.1-3.2-3.8-3.2c-1.2,0-2.3,0.6-3.3,1.6L53,17.1c-0.6,0.7-1.5,1.1-2.5,1.1s-1.9-0.4-2.5-1.1l-1.6-1.7
					c-1-1.1-2.1-1.6-3.3-1.6c-1.7,0-3.1,1.2-3.8,3.2l-0.7,2.2c-0.5,1.4-1.8,2.4-3.3,2.4c-0.4,0-0.8-0.1-1.2-0.2l-2.2-0.8
					c-0.7-0.2-1.3-0.4-1.9-0.4c-1.2,0-2.2,0.4-2.8,1.2c-0.8,0.9-1.1,2.2-0.9,3.7l0.3,2.3c0.1,1-0.1,1.9-0.7,2.6
					c-0.6,0.7-1.4,1.2-2.4,1.3l-2.3,0.2c-1.8,0.2-3.1,1-3.7,2.3c-0.6,1.3-0.4,2.9,0.6,4.3l1.3,2c0.5,0.8,0.7,1.8,0.5,2.7
					c-0.2,0.9-0.8,1.7-1.6,2.2l-2,1.2c-1.5,0.9-2.4,2.2-2.4,3.7s0.9,2.8,2.4,3.7l2,1.2c0.8,0.5,1.4,1.3,1.6,2.2
					c0.2,0.9,0,1.9-0.5,2.7l-1.3,2c-1,1.5-1.2,3.1-0.6,4.3c0.6,1.3,2,2.1,3.7,2.3l2.3,0.2c1,0.1,1.8,0.5,2.4,1.3
					c0.6,0.7,0.8,1.7,0.7,2.6l-0.3,2.3c-0.2,1.5,0.1,2.8,0.9,3.7c0.7,0.8,1.7,1.2,2.8,1.2c0.6,0,1.3-0.1,1.9-0.4l2.2-0.8
					c0.4-0.1,0.8-0.2,1.2-0.2c1.5,0,2.8,1,3.3,2.4l0.7,2.2c0.7,2,2.1,3.2,3.8,3.2c1.2,0,2.3-0.6,3.3-1.6l1.6-1.7
					c0.6-0.7,1.5-1.1,2.5-1.1s1.9,0.4,2.5,1.1l1.6,1.7c1,1.1,2.1,1.6,3.3,1.6c1.7,0,3.1-1.2,3.8-3.2l0.7-2.2
					c0.5-1.4,1.8-2.4,3.3-2.4c0.4,0,0.8,0.1,1.2,0.2l2.2,0.8c0.7,0.3,1.3,0.4,2,0.4c1.1,0,2.1-0.4,2.8-1.2c0.8-0.9,1.1-2.2,0.9-3.7
					l-0.3-2.3c-0.1-1,0.1-1.9,0.7-2.6c0.6-0.7,1.4-1.2,2.4-1.3l2.3-0.2c1.8-0.2,3.1-1,3.7-2.3c0.6-1.3,0.4-2.9-0.6-4.3l-1.3-2
					c-0.5-0.8-0.7-1.8-0.5-2.7c0.2-0.9,0.8-1.7,1.6-2.2l2-1.2c1.5-0.9,2.4-2.2,2.4-3.7C87.3,48.6,86.4,47.3,84.9,46.3z M83.6,51.4
					l-2,1.2c-1.4,0.9-2.4,2.2-2.8,3.8c-0.4,1.6-0.1,3.3,0.9,4.7l1.3,2c0.5,0.7,0.6,1.4,0.4,1.8c-0.2,0.4-0.8,0.7-1.6,0.8L77.4,66
					c-1.7,0.2-3.1,0.9-4.2,2.2c-1,1.3-1.5,2.9-1.2,4.6l0.3,2.3c0.1,0.7,0,1.3-0.3,1.7c-0.1,0.1-0.3,0.3-0.9,0.3
					c-0.3,0-0.7-0.1-1.1-0.2l-2.2-0.8c-0.7-0.3-1.4-0.4-2.1-0.4c-2.6,0-4.9,1.7-5.7,4.2l-0.7,2.2c-0.1,0.4-0.6,1.5-1.4,1.5
					c-0.4,0-1-0.3-1.5-0.8l-1.6-1.7c-1.2-1.2-2.7-1.9-4.3-1.9s-3.2,0.7-4.3,1.9l-1.6,1.7c-0.5,0.5-1,0.8-1.5,0.8
					c-0.8,0-1.2-1-1.4-1.5L41,79.9c-0.8-2.5-3.1-4.2-5.7-4.2c-0.7,0-1.5,0.1-2.1,0.4L31,76.9c-0.4,0.1-0.7,0.2-1.1,0.2
					c-0.6,0-0.8-0.3-0.9-0.3c-0.3-0.3-0.4-0.9-0.3-1.7l0.3-2.3c0.2-1.7-0.2-3.3-1.2-4.6c-1-1.3-2.5-2.1-4.2-2.2l-2.3-0.2
					c-0.8-0.1-1.4-0.4-1.6-0.8c-0.2-0.4-0.1-1.1,0.4-1.8l1.3-2c0.9-1.4,1.2-3.1,0.9-4.7c-0.4-1.6-1.4-3-2.8-3.8l-2-1.2
					c-0.7-0.4-1.1-1-1.1-1.4s0.4-1,1.1-1.4l2-1.2c1.4-0.9,2.4-2.2,2.8-3.8c0.4-1.6,0.1-3.3-0.9-4.7l-1.3-2c-0.5-0.7-0.6-1.4-0.4-1.8
					c0.2-0.4,0.8-0.7,1.6-0.8l2.3-0.2c1.7-0.2,3.1-0.9,4.2-2.2c1-1.3,1.5-2.9,1.2-4.6l-0.3-2.3c-0.1-0.7,0-1.3,0.3-1.7
					c0.1-0.1,0.3-0.3,0.9-0.3c0.3,0,0.7,0.1,1.1,0.2l2.2,0.8c0.7,0.3,1.4,0.4,2.1,0.4c2.6,0,4.9-1.7,5.7-4.2l0.7-2.2
					c0.1-0.4,0.6-1.5,1.4-1.5c0.4,0,1,0.3,1.5,0.8l1.6,1.7c1.2,1.2,2.7,1.9,4.3,1.9s3.2-0.7,4.3-1.9l1.6-1.7c0.5-0.5,1-0.8,1.5-0.8
					c0.8,0,1.2,1,1.4,1.5l0.7,2.2c0.8,2.5,3.1,4.2,5.7,4.2c0.7,0,1.4-0.1,2.1-0.4l2.2-0.8c0.4-0.1,0.7-0.2,1.1-0.2
					c0.6,0,0.8,0.3,0.9,0.3c0.3,0.3,0.4,0.9,0.3,1.7l-0.3,2.3c-0.2,1.7,0.2,3.3,1.2,4.6c1,1.3,2.5,2.1,4.2,2.2l2.3,0.2
					c0.8,0.1,1.4,0.4,1.6,0.8c0.2,0.4,0.1,1.1-0.4,1.8l-1.3,2c-0.9,1.4-1.2,3.1-0.9,4.7c0.4,1.6,1.4,3,2.8,3.8l2,1.2
					c0.7,0.4,1.1,1,1.1,1.4C84.7,50.5,84.3,51,83.6,51.4z"/>
				<path fill="#811E68" d="M67.1,52.5c-0.6-0.8-1.4-1.4-2.3-1.9c-1-0.4-2.1-0.7-3.5-0.7c-1.3,0-2.4,0.2-3.3,0.6
					c-1,0.4-1.8,1.1-2.4,1.8c-0.6,0.8-1,1.7-1.3,2.7c-0.3,1-0.4,2-0.4,3.2c0,1.1,0.1,2.2,0.3,3.1c0.2,1,0.6,1.9,1.2,2.7
					c0.6,0.8,1.4,1.4,2.4,1.8c0.9,0.4,2.1,0.6,3.4,0.6c1.3,0,2.4-0.2,3.3-0.6c1-0.4,1.8-1,2.4-1.8c0.6-0.8,1.1-1.7,1.4-2.7
					c0.3-1,0.4-2.1,0.4-3.3c0-1-0.1-2-0.3-2.9C68,54.2,67.6,53.3,67.1,52.5z M65.6,60.7c-0.2,0.7-0.5,1.3-0.9,1.7
					c-0.4,0.5-0.8,0.8-1.4,1.1c-0.6,0.3-1.4,0.4-2.3,0.4c-1,0-1.8-0.1-2.4-0.4c-0.6-0.3-1-0.6-1.4-1c-0.4-0.5-0.6-1-0.7-1.7
					c-0.2-0.8-0.3-1.6-0.3-2.5c0-0.9,0.1-1.7,0.3-2.5c0.2-0.7,0.5-1.3,0.9-1.8c0.4-0.5,0.8-0.8,1.4-1.1c0.6-0.3,1.4-0.4,2.3-0.4
					c1,0,1.8,0.1,2.4,0.4c0.6,0.3,1,0.6,1.3,1.1c0.3,0.5,0.6,1,0.7,1.7c0.2,0.7,0.2,1.5,0.2,2.4C65.9,59.1,65.8,59.9,65.6,60.7z"/>
				<path fill="#811E68" d="M62.5,33.5c-0.6-0.4-1.4-0.3-1.8,0.3L38.6,64.4c-0.4,0.6-0.3,1.4,0.3,1.8c0.6,0.4,1.4,0.3,1.8-0.3
					l22.1-30.6C63.2,34.8,63.1,34,62.5,33.5z"/>
			</g>
		</g>
	</g>
</g>
<g id="ICONS_-_WHITE" display="none">
	<g display="inline">
		<g>
			<g>
				<path fill="#FFFFFF" d="M44.5,47.8c1-0.4,1.8-1,2.4-1.8c0.6-0.8,1.1-1.7,1.4-2.7c0.3-1,0.4-2.1,0.4-3.3c0-1-0.1-2-0.3-2.9
					c-0.2-1-0.6-1.9-1.1-2.7c-0.6-0.8-1.4-1.4-2.3-1.9c-1-0.4-2.1-0.7-3.5-0.7c-1.3,0-2.4,0.2-3.3,0.6c-1,0.4-1.8,1.1-2.4,1.8
					c-0.6,0.8-1,1.7-1.3,2.7c-0.3,1-0.4,2-0.4,3.2c0,1.1,0.1,2.2,0.3,3.1c0.2,1,0.6,1.9,1.2,2.7c0.6,0.8,1.4,1.4,2.4,1.8
					c0.9,0.4,2.1,0.6,3.4,0.6C42.4,48.5,43.5,48.3,44.5,47.8z M37.4,44.5c-0.4-0.5-0.6-1-0.7-1.7c-0.2-0.7-0.3-1.6-0.3-2.5
					c0-0.9,0.1-1.7,0.3-2.5c0.2-0.7,0.5-1.3,0.9-1.8c0.4-0.5,0.8-0.8,1.4-1.1c0.6-0.3,1.4-0.4,2.3-0.4c1,0,1.8,0.1,2.4,0.4
					c0.6,0.3,1,0.6,1.3,1.1c0.3,0.5,0.6,1,0.7,1.7c0.2,0.7,0.2,1.5,0.2,2.4c0,1-0.1,1.8-0.3,2.6c-0.2,0.7-0.5,1.3-0.9,1.7
					c-0.4,0.5-0.8,0.8-1.4,1.1c-0.6,0.3-1.4,0.4-2.3,0.4c-1,0-1.8-0.1-2.4-0.4C38.2,45.2,37.8,44.9,37.4,44.5z"/>
				<path fill="#FFFFFF" d="M84.9,46.3l-2-1.2c-0.8-0.5-1.4-1.3-1.6-2.2c-0.2-0.9,0-1.9,0.5-2.7l1.3-2c1-1.5,1.2-3.1,0.6-4.3
					c-0.6-1.3-2-2.1-3.7-2.3l-2.3-0.2c-1-0.1-1.8-0.5-2.4-1.3c-0.6-0.7-0.8-1.7-0.7-2.6l0.3-2.3c0.2-1.5-0.1-2.8-0.9-3.7
					c-0.7-0.8-1.7-1.2-2.8-1.2c-0.6,0-1.3,0.1-1.9,0.4l-2.2,0.8c-0.4,0.1-0.8,0.2-1.2,0.2c-1.5,0-2.8-1-3.3-2.4l-0.7-2.2
					c-0.7-2-2.1-3.2-3.8-3.2c-1.2,0-2.3,0.6-3.3,1.6L53,17.1c-0.6,0.7-1.5,1.1-2.5,1.1s-1.9-0.4-2.5-1.1l-1.6-1.7
					c-1-1.1-2.1-1.6-3.3-1.6c-1.7,0-3.1,1.2-3.8,3.2l-0.7,2.2c-0.5,1.4-1.8,2.4-3.3,2.4c-0.4,0-0.8-0.1-1.2-0.2l-2.2-0.8
					c-0.7-0.2-1.3-0.4-1.9-0.4c-1.2,0-2.2,0.4-2.8,1.2c-0.8,0.9-1.1,2.2-0.9,3.7l0.3,2.3c0.1,1-0.1,1.9-0.7,2.6
					c-0.6,0.7-1.4,1.2-2.4,1.3l-2.3,0.2c-1.8,0.2-3.1,1-3.7,2.3c-0.6,1.3-0.4,2.9,0.6,4.3l1.3,2c0.5,0.8,0.7,1.8,0.5,2.7
					c-0.2,0.9-0.8,1.7-1.6,2.2l-2,1.2c-1.5,0.9-2.4,2.2-2.4,3.7s0.9,2.8,2.4,3.7l2,1.2c0.8,0.5,1.4,1.3,1.6,2.2
					c0.2,0.9,0,1.9-0.5,2.7l-1.3,2c-1,1.5-1.2,3.1-0.6,4.3c0.6,1.3,2,2.1,3.7,2.3l2.3,0.2c1,0.1,1.8,0.5,2.4,1.3
					c0.6,0.7,0.8,1.7,0.7,2.6l-0.3,2.3c-0.2,1.5,0.1,2.8,0.9,3.7c0.7,0.8,1.7,1.2,2.8,1.2c0.6,0,1.3-0.1,1.9-0.4l2.2-0.8
					c0.4-0.1,0.8-0.2,1.2-0.2c1.5,0,2.8,1,3.3,2.4l0.7,2.2c0.7,2,2.1,3.2,3.8,3.2c1.2,0,2.3-0.6,3.3-1.6l1.6-1.7
					c0.6-0.7,1.5-1.1,2.5-1.1s1.9,0.4,2.5,1.1l1.6,1.7c1,1.1,2.1,1.6,3.3,1.6c1.7,0,3.1-1.2,3.8-3.2l0.7-2.2
					c0.5-1.4,1.8-2.4,3.3-2.4c0.4,0,0.8,0.1,1.2,0.2l2.2,0.8c0.7,0.3,1.3,0.4,2,0.4c1.1,0,2.1-0.4,2.8-1.2c0.8-0.9,1.1-2.2,0.9-3.7
					l-0.3-2.3c-0.1-1,0.1-1.9,0.7-2.6c0.6-0.7,1.4-1.2,2.4-1.3l2.3-0.2c1.8-0.2,3.1-1,3.7-2.3c0.6-1.3,0.4-2.9-0.6-4.3l-1.3-2
					c-0.5-0.8-0.7-1.8-0.5-2.7c0.2-0.9,0.8-1.7,1.6-2.2l2-1.2c1.5-0.9,2.4-2.2,2.4-3.7C87.3,48.6,86.4,47.3,84.9,46.3z M83.6,51.4
					l-2,1.2c-1.4,0.9-2.4,2.2-2.8,3.8c-0.4,1.6-0.1,3.3,0.9,4.7l1.3,2c0.5,0.7,0.6,1.4,0.4,1.8c-0.2,0.4-0.8,0.7-1.6,0.8L77.4,66
					c-1.7,0.2-3.1,0.9-4.2,2.2c-1,1.3-1.5,2.9-1.2,4.6l0.3,2.3c0.1,0.7,0,1.3-0.3,1.7c-0.1,0.1-0.3,0.3-0.9,0.3
					c-0.3,0-0.7-0.1-1.1-0.2l-2.2-0.8c-0.7-0.3-1.4-0.4-2.1-0.4c-2.6,0-4.9,1.7-5.7,4.2l-0.7,2.2c-0.1,0.4-0.6,1.5-1.4,1.5
					c-0.4,0-1-0.3-1.5-0.8l-1.6-1.7c-1.2-1.2-2.7-1.9-4.3-1.9s-3.2,0.7-4.3,1.9l-1.6,1.7c-0.5,0.5-1,0.8-1.5,0.8
					c-0.8,0-1.2-1-1.4-1.5L41,79.9c-0.8-2.5-3.1-4.2-5.7-4.2c-0.7,0-1.5,0.1-2.1,0.4L31,76.9c-0.4,0.1-0.7,0.2-1.1,0.2
					c-0.6,0-0.8-0.3-0.9-0.3c-0.3-0.3-0.4-0.9-0.3-1.7l0.3-2.3c0.2-1.7-0.2-3.3-1.2-4.6c-1-1.3-2.5-2.1-4.2-2.2l-2.3-0.2
					c-0.8-0.1-1.4-0.4-1.6-0.8c-0.2-0.4-0.1-1.1,0.4-1.8l1.3-2c0.9-1.4,1.2-3.1,0.9-4.7c-0.4-1.6-1.4-3-2.8-3.8l-2-1.2
					c-0.7-0.4-1.1-1-1.1-1.4s0.4-1,1.1-1.4l2-1.2c1.4-0.9,2.4-2.2,2.8-3.8c0.4-1.6,0.1-3.3-0.9-4.7l-1.3-2c-0.5-0.7-0.6-1.4-0.4-1.8
					c0.2-0.4,0.8-0.7,1.6-0.8l2.3-0.2c1.7-0.2,3.1-0.9,4.2-2.2c1-1.3,1.5-2.9,1.2-4.6l-0.3-2.3c-0.1-0.7,0-1.3,0.3-1.7
					c0.1-0.1,0.3-0.3,0.9-0.3c0.3,0,0.7,0.1,1.1,0.2l2.2,0.8c0.7,0.3,1.4,0.4,2.1,0.4c2.6,0,4.9-1.7,5.7-4.2l0.7-2.2
					c0.1-0.4,0.6-1.5,1.4-1.5c0.4,0,1,0.3,1.5,0.8l1.6,1.7c1.2,1.2,2.7,1.9,4.3,1.9s3.2-0.7,4.3-1.9l1.6-1.7c0.5-0.5,1-0.8,1.5-0.8
					c0.8,0,1.2,1,1.4,1.5l0.7,2.2c0.8,2.5,3.1,4.2,5.7,4.2c0.7,0,1.4-0.1,2.1-0.4l2.2-0.8c0.4-0.1,0.7-0.2,1.1-0.2
					c0.6,0,0.8,0.3,0.9,0.3c0.3,0.3,0.4,0.9,0.3,1.7l-0.3,2.3c-0.2,1.7,0.2,3.3,1.2,4.6c1,1.3,2.5,2.1,4.2,2.2l2.3,0.2
					c0.8,0.1,1.4,0.4,1.6,0.8c0.2,0.4,0.1,1.1-0.4,1.8l-1.3,2c-0.9,1.4-1.2,3.1-0.9,4.7c0.4,1.6,1.4,3,2.8,3.8l2,1.2
					c0.7,0.4,1.1,1,1.1,1.4C84.7,50.5,84.3,51,83.6,51.4z"/>
				<path fill="#FFFFFF" d="M67.1,52.5c-0.6-0.8-1.4-1.4-2.3-1.9c-1-0.4-2.1-0.7-3.5-0.7c-1.3,0-2.4,0.2-3.3,0.6
					c-1,0.4-1.8,1.1-2.4,1.8c-0.6,0.8-1,1.7-1.3,2.7c-0.3,1-0.4,2-0.4,3.2c0,1.1,0.1,2.2,0.3,3.1c0.2,1,0.6,1.9,1.2,2.7
					c0.6,0.8,1.4,1.4,2.4,1.8c0.9,0.4,2.1,0.6,3.4,0.6c1.3,0,2.4-0.2,3.3-0.6c1-0.4,1.8-1,2.4-1.8c0.6-0.8,1.1-1.7,1.4-2.7
					c0.3-1,0.4-2.1,0.4-3.3c0-1-0.1-2-0.3-2.9C68,54.2,67.6,53.3,67.1,52.5z M65.6,60.7c-0.2,0.7-0.5,1.3-0.9,1.7
					c-0.4,0.5-0.8,0.8-1.4,1.1c-0.6,0.3-1.4,0.4-2.3,0.4c-1,0-1.8-0.1-2.4-0.4c-0.6-0.3-1-0.6-1.4-1c-0.4-0.5-0.6-1-0.7-1.7
					c-0.2-0.8-0.3-1.6-0.3-2.5c0-0.9,0.1-1.7,0.3-2.5c0.2-0.7,0.5-1.3,0.9-1.8c0.4-0.5,0.8-0.8,1.4-1.1c0.6-0.3,1.4-0.4,2.3-0.4
					c1,0,1.8,0.1,2.4,0.4c0.6,0.3,1,0.6,1.3,1.1c0.3,0.5,0.6,1,0.7,1.7c0.2,0.7,0.2,1.5,0.2,2.4C65.9,59.1,65.8,59.9,65.6,60.7z"/>
				<path fill="#FFFFFF" d="M62.5,33.5c-0.6-0.4-1.4-0.3-1.8,0.3L38.6,64.4c-0.4,0.6-0.3,1.4,0.3,1.8c0.6,0.4,1.4,0.3,1.8-0.3
					l22.1-30.6C63.2,34.8,63.1,34,62.5,33.5z"/>
			</g>
		</g>
	</g>
</g>
<g id="LABELS">
</g>
</svg>
