<?xml version="1.0" encoding="utf-8"?>
<!-- Generator: Adobe Illustrator 18.1.1, SVG Export Plug-In . SVG Version: 6.00 Build 0)  -->
<svg version="1.1" xmlns="http://www.w3.org/2000/svg" xmlns:xlink="http://www.w3.org/1999/xlink" x="0px" y="0px"
	 viewBox="0 0 100 100" enable-background="new 0 0 100 100" xml:space="preserve">
<g id="GUIDES">
</g>
<g id="ICONS_-_BLACK" display="none">
	<g display="inline">
		<g>
			<g>
				<path d="M97.9,56.4L87.3,45.7c-0.2-0.2-0.5-0.3-0.8-0.3c-0.3,0-0.6,0.1-0.8,0.3c-0.2,0.2-0.3,0.5-0.3,0.8c0,0.3,0.1,0.6,0.3,0.8
					l8.5,8.6l-29.8,0c-0.7,0-1.2,0.5-1.2,1.2c0,0.7,0.5,1.2,1.2,1.2l29.8,0L85.7,67c-0.2,0.2-0.3,0.5-0.3,0.8s0.1,0.6,0.3,0.8
					c0.2,0.2,0.5,0.3,0.8,0.3c0.3,0,0.6-0.1,0.8-0.3L97.9,58c0.2-0.2,0.3-0.5,0.3-0.8C98.2,56.9,98.1,56.6,97.9,56.4z"/>
				<path d="M77.2,62.8c-0.7,0-1.3,0.6-1.3,1.2h0v0.1v15H27.3c-3.1,0-5.6-2.5-5.6-5.7V35l0.3,0.2c0.6,0.3,1.4,0.5,2.1,0.5h51.7v15.1
					c0,0.7,0.6,1.3,1.3,1.3c0.7,0,1.3-0.6,1.3-1.3V34.3c0-0.7-0.6-1.3-1.3-1.3h-3.5v-6.4c0-0.7-0.6-1.3-1.3-1.3h-2.8
					c0-0.6-0.1-1.2-0.2-1.8c-0.5-1.7-1.6-3.2-3.2-4.1l-13.4-7.7c-1.6-0.9-3.4-1.1-5.1-0.6c-1.7,0.5-3.2,1.6-4.1,3.2l-6.3,11.1h-13
					c-2.8,0-5.1,2.3-5.1,5.1v43c0,4.6,3.7,8.3,8.2,8.3h49.9c0.7,0,1.3-0.6,1.3-1.3V64.1V64h0C78.5,63.3,77.9,62.8,77.2,62.8z
					 M24.2,27.9h11.5l-0.3,0.5c-0.3,0.6-0.1,1.4,0.5,1.7c0.6,0.3,1.4,0.1,1.7-0.5l8.1-14.2c0.6-1,1.5-1.7,2.6-2
					c1.1-0.3,2.2-0.2,3.2,0.4l-8.4,14.4c-0.3,0.6-0.1,1.4,0.5,1.7c0.2,0.1,0.4,0.2,0.6,0.2c0.4,0,0.9-0.2,1.1-0.6l8.4-14.5l11.3,6.5
					c1,0.6,1.7,1.5,2,2.6c0.3,1.1,0.2,2.2-0.4,3.2l-1.1,2c-0.3,0.6-0.1,1.4,0.5,1.7c0.2,0.1,0.4,0.2,0.6,0.2c0.4,0,0.9-0.2,1.1-0.6
					l1.1-2c0.1-0.2,0.2-0.4,0.3-0.7h2.1v5H24.2c-1.4,0-2.5-1.1-2.5-2.6C21.7,29,22.8,27.9,24.2,27.9z"/>
			</g>
		</g>
	</g>
</g>
<g id="ICONS_-_DARK_PURPLE" display="none">
	<g display="inline">
		<g>
			<g>
				<path fill="#4F2556" d="M97.9,56.4L87.3,45.7c-0.2-0.2-0.5-0.3-0.8-0.3c-0.3,0-0.6,0.1-0.8,0.3c-0.2,0.2-0.3,0.5-0.3,0.8
					c0,0.3,0.1,0.6,0.3,0.8l8.5,8.6l-29.8,0c-0.7,0-1.2,0.5-1.2,1.2c0,0.7,0.5,1.2,1.2,1.2l29.8,0L85.7,67c-0.2,0.2-0.3,0.5-0.3,0.8
					s0.1,0.6,0.3,0.8c0.2,0.2,0.5,0.3,0.8,0.3c0.3,0,0.6-0.1,0.8-0.3L97.9,58c0.2-0.2,0.3-0.5,0.3-0.8
					C98.2,56.9,98.1,56.6,97.9,56.4z"/>
				<path fill="#4F2556" d="M77.2,62.8c-0.7,0-1.3,0.6-1.3,1.2h0v0.1v15H27.3c-3.1,0-5.6-2.5-5.6-5.7V35l0.3,0.2
					c0.6,0.3,1.4,0.5,2.1,0.5h51.7v15.1c0,0.7,0.6,1.3,1.3,1.3c0.7,0,1.3-0.6,1.3-1.3V34.3c0-0.7-0.6-1.3-1.3-1.3h-3.5v-6.4
					c0-0.7-0.6-1.3-1.3-1.3h-2.8c0-0.6-0.1-1.2-0.2-1.8c-0.5-1.7-1.6-3.2-3.2-4.1l-13.4-7.7c-1.6-0.9-3.4-1.1-5.1-0.6
					c-1.7,0.5-3.2,1.6-4.1,3.2l-6.3,11.1h-13c-2.8,0-5.1,2.3-5.1,5.1v43c0,4.6,3.7,8.3,8.2,8.3h49.9c0.7,0,1.3-0.6,1.3-1.3V64.1V64
					h0C78.5,63.3,77.9,62.8,77.2,62.8z M24.2,27.9h11.5l-0.3,0.5c-0.3,0.6-0.1,1.4,0.5,1.7c0.6,0.3,1.4,0.1,1.7-0.5l8.1-14.2
					c0.6-1,1.5-1.7,2.6-2c1.1-0.3,2.2-0.2,3.2,0.4l-8.4,14.4c-0.3,0.6-0.1,1.4,0.5,1.7c0.2,0.1,0.4,0.2,0.6,0.2
					c0.4,0,0.9-0.2,1.1-0.6l8.4-14.5l11.3,6.5c1,0.6,1.7,1.5,2,2.6c0.3,1.1,0.2,2.2-0.4,3.2l-1.1,2c-0.3,0.6-0.1,1.4,0.5,1.7
					c0.2,0.1,0.4,0.2,0.6,0.2c0.4,0,0.9-0.2,1.1-0.6l1.1-2c0.1-0.2,0.2-0.4,0.3-0.7h2.1v5H24.2c-1.4,0-2.5-1.1-2.5-2.6
					C21.7,29,22.8,27.9,24.2,27.9z"/>
			</g>
		</g>
	</g>
</g>
<g id="ICONS_-_WARM_GREY" display="none">
	<g display="inline">
		<g>
			<g>
				<path fill="#534C63" d="M97.9,56.4L87.3,45.7c-0.2-0.2-0.5-0.3-0.8-0.3c-0.3,0-0.6,0.1-0.8,0.3c-0.2,0.2-0.3,0.5-0.3,0.8
					c0,0.3,0.1,0.6,0.3,0.8l8.5,8.6l-29.8,0c-0.7,0-1.2,0.5-1.2,1.2c0,0.7,0.5,1.2,1.2,1.2l29.8,0L85.7,67c-0.2,0.2-0.3,0.5-0.3,0.8
					s0.1,0.6,0.3,0.8c0.2,0.2,0.5,0.3,0.8,0.3c0.3,0,0.6-0.1,0.8-0.3L97.9,58c0.2-0.2,0.3-0.5,0.3-0.8
					C98.2,56.9,98.1,56.6,97.9,56.4z"/>
				<path fill="#534C63" d="M77.2,62.8c-0.7,0-1.3,0.6-1.3,1.2h0v0.1v15H27.3c-3.1,0-5.6-2.5-5.6-5.7V35l0.3,0.2
					c0.6,0.3,1.4,0.5,2.1,0.5h51.7v15.1c0,0.7,0.6,1.3,1.3,1.3c0.7,0,1.3-0.6,1.3-1.3V34.3c0-0.7-0.6-1.3-1.3-1.3h-3.5v-6.4
					c0-0.7-0.6-1.3-1.3-1.3h-2.8c0-0.6-0.1-1.2-0.2-1.8c-0.5-1.7-1.6-3.2-3.2-4.1l-13.4-7.7c-1.6-0.9-3.4-1.1-5.1-0.6
					c-1.7,0.5-3.2,1.6-4.1,3.2l-6.3,11.1h-13c-2.8,0-5.1,2.3-5.1,5.1v43c0,4.6,3.7,8.3,8.2,8.3h49.9c0.7,0,1.3-0.6,1.3-1.3V64.1V64
					h0C78.5,63.3,77.9,62.8,77.2,62.8z M24.2,27.9h11.5l-0.3,0.5c-0.3,0.6-0.1,1.4,0.5,1.7c0.6,0.3,1.4,0.1,1.7-0.5l8.1-14.2
					c0.6-1,1.5-1.7,2.6-2c1.1-0.3,2.2-0.2,3.2,0.4l-8.4,14.4c-0.3,0.6-0.1,1.4,0.5,1.7c0.2,0.1,0.4,0.2,0.6,0.2
					c0.4,0,0.9-0.2,1.1-0.6l8.4-14.5l11.3,6.5c1,0.6,1.7,1.5,2,2.6c0.3,1.1,0.2,2.2-0.4,3.2l-1.1,2c-0.3,0.6-0.1,1.4,0.5,1.7
					c0.2,0.1,0.4,0.2,0.6,0.2c0.4,0,0.9-0.2,1.1-0.6l1.1-2c0.1-0.2,0.2-0.4,0.3-0.7h2.1v5H24.2c-1.4,0-2.5-1.1-2.5-2.6
					C21.7,29,22.8,27.9,24.2,27.9z"/>
			</g>
		</g>
	</g>
</g>
<g id="ICONS_-_SKRILL_TEAL" display="none">
	<g display="inline">
		<g>
			<g>
				<path fill="#41AEB5" d="M97.9,56.4L87.3,45.7c-0.2-0.2-0.5-0.3-0.8-0.3c-0.3,0-0.6,0.1-0.8,0.3c-0.2,0.2-0.3,0.5-0.3,0.8
					c0,0.3,0.1,0.6,0.3,0.8l8.5,8.6l-29.8,0c-0.7,0-1.2,0.5-1.2,1.2c0,0.7,0.5,1.2,1.2,1.2l29.8,0L85.7,67c-0.2,0.2-0.3,0.5-0.3,0.8
					s0.1,0.6,0.3,0.8c0.2,0.2,0.5,0.3,0.8,0.3c0.3,0,0.6-0.1,0.8-0.3L97.9,58c0.2-0.2,0.3-0.5,0.3-0.8
					C98.2,56.9,98.1,56.6,97.9,56.4z"/>
				<path fill="#41AEB5" d="M77.2,62.8c-0.7,0-1.3,0.6-1.3,1.2h0v0.1v15H27.3c-3.1,0-5.6-2.5-5.6-5.7V35l0.3,0.2
					c0.6,0.3,1.4,0.5,2.1,0.5h51.7v15.1c0,0.7,0.6,1.3,1.3,1.3c0.7,0,1.3-0.6,1.3-1.3V34.3c0-0.7-0.6-1.3-1.3-1.3h-3.5v-6.4
					c0-0.7-0.6-1.3-1.3-1.3h-2.8c0-0.6-0.1-1.2-0.2-1.8c-0.5-1.7-1.6-3.2-3.2-4.1l-13.4-7.7c-1.6-0.9-3.4-1.1-5.1-0.6
					c-1.7,0.5-3.2,1.6-4.1,3.2l-6.3,11.1h-13c-2.8,0-5.1,2.3-5.1,5.1v43c0,4.6,3.7,8.3,8.2,8.3h49.9c0.7,0,1.3-0.6,1.3-1.3V64.1V64
					h0C78.5,63.3,77.9,62.8,77.2,62.8z M24.2,27.9h11.5l-0.3,0.5c-0.3,0.6-0.1,1.4,0.5,1.7c0.6,0.3,1.4,0.1,1.7-0.5l8.1-14.2
					c0.6-1,1.5-1.7,2.6-2c1.1-0.3,2.2-0.2,3.2,0.4l-8.4,14.4c-0.3,0.6-0.1,1.4,0.5,1.7c0.2,0.1,0.4,0.2,0.6,0.2
					c0.4,0,0.9-0.2,1.1-0.6l8.4-14.5l11.3,6.5c1,0.6,1.7,1.5,2,2.6c0.3,1.1,0.2,2.2-0.4,3.2l-1.1,2c-0.3,0.6-0.1,1.4,0.5,1.7
					c0.2,0.1,0.4,0.2,0.6,0.2c0.4,0,0.9-0.2,1.1-0.6l1.1-2c0.1-0.2,0.2-0.4,0.3-0.7h2.1v5H24.2c-1.4,0-2.5-1.1-2.5-2.6
					C21.7,29,22.8,27.9,24.2,27.9z"/>
			</g>
		</g>
	</g>
</g>
<g id="ICONS_-_SKRILL_PURPLE">
	<g>
		<g>
			<g>
				<path fill="#811E68" d="M97.9,56.4L87.3,45.7c-0.2-0.2-0.5-0.3-0.8-0.3c-0.3,0-0.6,0.1-0.8,0.3c-0.2,0.2-0.3,0.5-0.3,0.8
					c0,0.3,0.1,0.6,0.3,0.8l8.5,8.6l-29.8,0c-0.7,0-1.2,0.5-1.2,1.2c0,0.7,0.5,1.2,1.2,1.2l29.8,0L85.7,67c-0.2,0.2-0.3,0.5-0.3,0.8
					s0.1,0.6,0.3,0.8c0.2,0.2,0.5,0.3,0.8,0.3c0.3,0,0.6-0.1,0.8-0.3L97.9,58c0.2-0.2,0.3-0.5,0.3-0.8
					C98.2,56.9,98.1,56.6,97.9,56.4z"/>
				<path fill="#811E68" d="M77.2,62.8c-0.7,0-1.3,0.6-1.3,1.2h0v0.1v15H27.3c-3.1,0-5.6-2.5-5.6-5.7V35l0.3,0.2
					c0.6,0.3,1.4,0.5,2.1,0.5h51.7v15.1c0,0.7,0.6,1.3,1.3,1.3c0.7,0,1.3-0.6,1.3-1.3V34.3c0-0.7-0.6-1.3-1.3-1.3h-3.5v-6.4
					c0-0.7-0.6-1.3-1.3-1.3h-2.8c0-0.6-0.1-1.2-0.2-1.8c-0.5-1.7-1.6-3.2-3.2-4.1l-13.4-7.7c-1.6-0.9-3.4-1.1-5.1-0.6
					c-1.7,0.5-3.2,1.6-4.1,3.2l-6.3,11.1h-13c-2.8,0-5.1,2.3-5.1,5.1v43c0,4.6,3.7,8.3,8.2,8.3h49.9c0.7,0,1.3-0.6,1.3-1.3V64.1V64
					h0C78.5,63.3,77.9,62.8,77.2,62.8z M24.2,27.9h11.5l-0.3,0.5c-0.3,0.6-0.1,1.4,0.5,1.7c0.6,0.3,1.4,0.1,1.7-0.5l8.1-14.2
					c0.6-1,1.5-1.7,2.6-2c1.1-0.3,2.2-0.2,3.2,0.4l-8.4,14.4c-0.3,0.6-0.1,1.4,0.5,1.7c0.2,0.1,0.4,0.2,0.6,0.2
					c0.4,0,0.9-0.2,1.1-0.6l8.4-14.5l11.3,6.5c1,0.6,1.7,1.5,2,2.6c0.3,1.1,0.2,2.2-0.4,3.2l-1.1,2c-0.3,0.6-0.1,1.4,0.5,1.7
					c0.2,0.1,0.4,0.2,0.6,0.2c0.4,0,0.9-0.2,1.1-0.6l1.1-2c0.1-0.2,0.2-0.4,0.3-0.7h2.1v5H24.2c-1.4,0-2.5-1.1-2.5-2.6
					C21.7,29,22.8,27.9,24.2,27.9z"/>
			</g>
		</g>
	</g>
</g>
<g id="ICONS_-_WHITE" display="none">
	<g display="inline">
		<g>
			<g>
				<path fill="#FFFFFF" d="M97.9,56.4L87.3,45.7c-0.2-0.2-0.5-0.3-0.8-0.3c-0.3,0-0.6,0.1-0.8,0.3c-0.2,0.2-0.3,0.5-0.3,0.8
					c0,0.3,0.1,0.6,0.3,0.8l8.5,8.6l-29.8,0c-0.7,0-1.2,0.5-1.2,1.2c0,0.7,0.5,1.2,1.2,1.2l29.8,0L85.7,67c-0.2,0.2-0.3,0.5-0.3,0.8
					s0.1,0.6,0.3,0.8c0.2,0.2,0.5,0.3,0.8,0.3c0.3,0,0.6-0.1,0.8-0.3L97.9,58c0.2-0.2,0.3-0.5,0.3-0.8
					C98.2,56.9,98.1,56.6,97.9,56.4z"/>
				<path fill="#FFFFFF" d="M77.2,62.8c-0.7,0-1.3,0.6-1.3,1.2h0v0.1v15H27.3c-3.1,0-5.6-2.5-5.6-5.7V35l0.3,0.2
					c0.6,0.3,1.4,0.5,2.1,0.5h51.7v15.1c0,0.7,0.6,1.3,1.3,1.3c0.7,0,1.3-0.6,1.3-1.3V34.3c0-0.7-0.6-1.3-1.3-1.3h-3.5v-6.4
					c0-0.7-0.6-1.3-1.3-1.3h-2.8c0-0.6-0.1-1.2-0.2-1.8c-0.5-1.7-1.6-3.2-3.2-4.1l-13.4-7.7c-1.6-0.9-3.4-1.1-5.1-0.6
					c-1.7,0.5-3.2,1.6-4.1,3.2l-6.3,11.1h-13c-2.8,0-5.1,2.3-5.1,5.1v43c0,4.6,3.7,8.3,8.2,8.3h49.9c0.7,0,1.3-0.6,1.3-1.3V64.1V64
					h0C78.5,63.3,77.9,62.8,77.2,62.8z M24.2,27.9h11.5l-0.3,0.5c-0.3,0.6-0.1,1.4,0.5,1.7c0.6,0.3,1.4,0.1,1.7-0.5l8.1-14.2
					c0.6-1,1.5-1.7,2.6-2c1.1-0.3,2.2-0.2,3.2,0.4l-8.4,14.4c-0.3,0.6-0.1,1.4,0.5,1.7c0.2,0.1,0.4,0.2,0.6,0.2
					c0.4,0,0.9-0.2,1.1-0.6l8.4-14.5l11.3,6.5c1,0.6,1.7,1.5,2,2.6c0.3,1.1,0.2,2.2-0.4,3.2l-1.1,2c-0.3,0.6-0.1,1.4,0.5,1.7
					c0.2,0.1,0.4,0.2,0.6,0.2c0.4,0,0.9-0.2,1.1-0.6l1.1-2c0.1-0.2,0.2-0.4,0.3-0.7h2.1v5H24.2c-1.4,0-2.5-1.1-2.5-2.6
					C21.7,29,22.8,27.9,24.2,27.9z"/>
			</g>
		</g>
	</g>
</g>
<g id="LABELS">
</g>
</svg>
