<?xml version="1.0" encoding="utf-8"?>
<!-- Generator: Adobe Illustrator 18.1.1, SVG Export Plug-In . SVG Version: 6.00 Build 0)  -->
<svg version="1.1" xmlns="http://www.w3.org/2000/svg" xmlns:xlink="http://www.w3.org/1999/xlink" x="0px" y="0px"
	 viewBox="0 0 100 100" enable-background="new 0 0 100 100" xml:space="preserve">
<g id="GUIDES">
</g>
<g id="ICONS_-_BLACK" display="none">
	<g display="inline">
		<g>
			<g>
				<path d="M98.6,56.9L88.1,46.2c-0.2-0.2-0.5-0.3-0.8-0.3c-0.3,0-0.6,0.1-0.8,0.3c-0.2,0.2-0.3,0.5-0.3,0.8c0,0.3,0.1,0.6,0.3,0.8
					l8.5,8.6l-29.8,0c-0.7,0-1.2,0.5-1.2,1.2c0,0.7,0.5,1.2,1.2,1.2l29.8,0l-8.5,8.6c-0.2,0.2-0.3,0.5-0.3,0.8s0.1,0.6,0.3,0.8
					c0.2,0.2,0.5,0.3,0.8,0.3c0.3,0,0.6-0.1,0.8-0.3l10.5-10.6c0.2-0.2,0.3-0.5,0.3-0.8C99,57.4,98.8,57.1,98.6,56.9z"/>
				<path d="M78,63.3c-0.7,0-1.3,0.6-1.3,1.2h0v0.1v15H28.1c-3.1,0-5.6-2.5-5.6-5.7V35.5l0.3,0.2c0.6,0.3,1.4,0.5,2.1,0.5h51.7v15.1
					c0,0.7,0.6,1.3,1.3,1.3s1.3-0.6,1.3-1.3V34.8c0-0.7-0.6-1.3-1.3-1.3h-3.5v-6.4c0-0.7-0.6-1.3-1.3-1.3H24.9
					c-2.8,0-5.1,2.3-5.1,5.1v43c0,4.6,3.7,8.3,8.2,8.3H78c0.7,0,1.3-0.6,1.3-1.3V64.6v-0.1h0C79.2,63.8,78.7,63.3,78,63.3z
					 M24.9,28.4h46.9v5H24.9c-1.4,0-2.5-1.1-2.5-2.6C22.5,29.5,23.6,28.4,24.9,28.4z"/>
			</g>
		</g>
	</g>
</g>
<g id="ICONS_-_DARK_PURPLE" display="none">
	<g display="inline">
		<g>
			<g>
				<path fill="#4F2556" d="M98.6,56.9L88.1,46.2c-0.2-0.2-0.5-0.3-0.8-0.3c-0.3,0-0.6,0.1-0.8,0.3c-0.2,0.2-0.3,0.5-0.3,0.8
					c0,0.3,0.1,0.6,0.3,0.8l8.5,8.6l-29.8,0c-0.7,0-1.2,0.5-1.2,1.2c0,0.7,0.5,1.2,1.2,1.2l29.8,0l-8.5,8.6
					c-0.2,0.2-0.3,0.5-0.3,0.8s0.1,0.6,0.3,0.8c0.2,0.2,0.5,0.3,0.8,0.3c0.3,0,0.6-0.1,0.8-0.3l10.5-10.6c0.2-0.2,0.3-0.5,0.3-0.8
					C99,57.4,98.8,57.1,98.6,56.9z"/>
				<path fill="#4F2556" d="M78,63.3c-0.7,0-1.3,0.6-1.3,1.2h0v0.1v15H28.1c-3.1,0-5.6-2.5-5.6-5.7V35.5l0.3,0.2
					c0.6,0.3,1.4,0.5,2.1,0.5h51.7v15.1c0,0.7,0.6,1.3,1.3,1.3s1.3-0.6,1.3-1.3V34.8c0-0.7-0.6-1.3-1.3-1.3h-3.5v-6.4
					c0-0.7-0.6-1.3-1.3-1.3H24.9c-2.8,0-5.1,2.3-5.1,5.1v43c0,4.6,3.7,8.3,8.2,8.3H78c0.7,0,1.3-0.6,1.3-1.3V64.6v-0.1h0
					C79.2,63.8,78.7,63.3,78,63.3z M24.9,28.4h46.9v5H24.9c-1.4,0-2.5-1.1-2.5-2.6C22.5,29.5,23.6,28.4,24.9,28.4z"/>
			</g>
		</g>
	</g>
</g>
<g id="ICONS_-_WARM_GREY" display="none">
	<g display="inline">
		<g>
			<g>
				<path fill="#534C63" d="M98.6,56.9L88.1,46.2c-0.2-0.2-0.5-0.3-0.8-0.3c-0.3,0-0.6,0.1-0.8,0.3c-0.2,0.2-0.3,0.5-0.3,0.8
					c0,0.3,0.1,0.6,0.3,0.8l8.5,8.6l-29.8,0c-0.7,0-1.2,0.5-1.2,1.2c0,0.7,0.5,1.2,1.2,1.2l29.8,0l-8.5,8.6
					c-0.2,0.2-0.3,0.5-0.3,0.8s0.1,0.6,0.3,0.8c0.2,0.2,0.5,0.3,0.8,0.3c0.3,0,0.6-0.1,0.8-0.3l10.5-10.6c0.2-0.2,0.3-0.5,0.3-0.8
					C99,57.4,98.8,57.1,98.6,56.9z"/>
				<path fill="#534C63" d="M78,63.3c-0.7,0-1.3,0.6-1.3,1.2h0v0.1v15H28.1c-3.1,0-5.6-2.5-5.6-5.7V35.5l0.3,0.2
					c0.6,0.3,1.4,0.5,2.1,0.5h51.7v15.1c0,0.7,0.6,1.3,1.3,1.3s1.3-0.6,1.3-1.3V34.8c0-0.7-0.6-1.3-1.3-1.3h-3.5v-6.4
					c0-0.7-0.6-1.3-1.3-1.3H24.9c-2.8,0-5.1,2.3-5.1,5.1v43c0,4.6,3.7,8.3,8.2,8.3H78c0.7,0,1.3-0.6,1.3-1.3V64.6v-0.1h0
					C79.2,63.8,78.7,63.3,78,63.3z M24.9,28.4h46.9v5H24.9c-1.4,0-2.5-1.1-2.5-2.6C22.5,29.5,23.6,28.4,24.9,28.4z"/>
			</g>
		</g>
	</g>
</g>
<g id="ICONS_-_SKRILL_TEAL" display="none">
	<g display="inline">
		<g>
			<g>
				<path fill="#41AEB5" d="M98.6,56.9L88.1,46.2c-0.2-0.2-0.5-0.3-0.8-0.3c-0.3,0-0.6,0.1-0.8,0.3c-0.2,0.2-0.3,0.5-0.3,0.8
					c0,0.3,0.1,0.6,0.3,0.8l8.5,8.6l-29.8,0c-0.7,0-1.2,0.5-1.2,1.2c0,0.7,0.5,1.2,1.2,1.2l29.8,0l-8.5,8.6
					c-0.2,0.2-0.3,0.5-0.3,0.8s0.1,0.6,0.3,0.8c0.2,0.2,0.5,0.3,0.8,0.3c0.3,0,0.6-0.1,0.8-0.3l10.5-10.6c0.2-0.2,0.3-0.5,0.3-0.8
					C99,57.4,98.8,57.1,98.6,56.9z"/>
				<path fill="#41AEB5" d="M78,63.3c-0.7,0-1.3,0.6-1.3,1.2h0v0.1v15H28.1c-3.1,0-5.6-2.5-5.6-5.7V35.5l0.3,0.2
					c0.6,0.3,1.4,0.5,2.1,0.5h51.7v15.1c0,0.7,0.6,1.3,1.3,1.3s1.3-0.6,1.3-1.3V34.8c0-0.7-0.6-1.3-1.3-1.3h-3.5v-6.4
					c0-0.7-0.6-1.3-1.3-1.3H24.9c-2.8,0-5.1,2.3-5.1,5.1v43c0,4.6,3.7,8.3,8.2,8.3H78c0.7,0,1.3-0.6,1.3-1.3V64.6v-0.1h0
					C79.2,63.8,78.7,63.3,78,63.3z M24.9,28.4h46.9v5H24.9c-1.4,0-2.5-1.1-2.5-2.6C22.5,29.5,23.6,28.4,24.9,28.4z"/>
			</g>
		</g>
	</g>
</g>
<g id="ICONS_-_SKRILL_PURPLE">
	<g>
		<g>
			<g>
				<path fill="#811E68" d="M97.6,55.9L87.1,45.2c-0.2-0.2-0.5-0.3-0.8-0.3c-0.3,0-0.6,0.1-0.8,0.3c-0.2,0.2-0.3,0.5-0.3,0.8
					c0,0.3,0.1,0.6,0.3,0.8l8.5,8.6l-29.8,0c-0.7,0-1.2,0.5-1.2,1.2c0,0.7,0.5,1.2,1.2,1.2l29.8,0l-8.5,8.6
					c-0.2,0.2-0.3,0.5-0.3,0.8s0.1,0.6,0.3,0.8c0.2,0.2,0.5,0.3,0.8,0.3c0.3,0,0.6-0.1,0.8-0.3l10.5-10.6c0.2-0.2,0.3-0.5,0.3-0.8
					C98,56.4,97.8,56.1,97.6,55.9z"/>
				<path fill="#811E68" d="M77,62.3c-0.7,0-1.3,0.6-1.3,1.2h0v0.1v15H27.1c-3.1,0-5.6-2.5-5.6-5.7V34.5l0.3,0.2
					c0.6,0.3,1.4,0.5,2.1,0.5h51.7v15.1c0,0.7,0.6,1.3,1.3,1.3s1.3-0.6,1.3-1.3V33.8c0-0.7-0.6-1.3-1.3-1.3h-3.5v-6.4
					c0-0.7-0.6-1.3-1.3-1.3H23.9c-2.8,0-5.1,2.3-5.1,5.1v43c0,4.6,3.7,8.3,8.2,8.3H77c0.7,0,1.3-0.6,1.3-1.3V63.6v-0.1h0
					C78.2,62.8,77.7,62.3,77,62.3z M23.9,27.4h46.9v5H23.9c-1.4,0-2.5-1.1-2.5-2.6C21.5,28.5,22.6,27.4,23.9,27.4z"/>
			</g>
		</g>
	</g>
</g>
<g id="ICONS_-_WHITE" display="none">
	<g display="inline">
		<g>
			<g>
				<path fill="#FFFFFF" d="M98.6,56.9L88.1,46.2c-0.2-0.2-0.5-0.3-0.8-0.3c-0.3,0-0.6,0.1-0.8,0.3c-0.2,0.2-0.3,0.5-0.3,0.8
					c0,0.3,0.1,0.6,0.3,0.8l8.5,8.6l-29.8,0c-0.7,0-1.2,0.5-1.2,1.2c0,0.7,0.5,1.2,1.2,1.2l29.8,0l-8.5,8.6
					c-0.2,0.2-0.3,0.5-0.3,0.8s0.1,0.6,0.3,0.8c0.2,0.2,0.5,0.3,0.8,0.3c0.3,0,0.6-0.1,0.8-0.3l10.5-10.6c0.2-0.2,0.3-0.5,0.3-0.8
					C99,57.4,98.8,57.1,98.6,56.9z"/>
				<path fill="#FFFFFF" d="M78,63.3c-0.7,0-1.3,0.6-1.3,1.2h0v0.1v15H28.1c-3.1,0-5.6-2.5-5.6-5.7V35.5l0.3,0.2
					c0.6,0.3,1.4,0.5,2.1,0.5h51.7v15.1c0,0.7,0.6,1.3,1.3,1.3s1.3-0.6,1.3-1.3V34.8c0-0.7-0.6-1.3-1.3-1.3h-3.5v-6.4
					c0-0.7-0.6-1.3-1.3-1.3H24.9c-2.8,0-5.1,2.3-5.1,5.1v43c0,4.6,3.7,8.3,8.2,8.3H78c0.7,0,1.3-0.6,1.3-1.3V64.6v-0.1h0
					C79.2,63.8,78.7,63.3,78,63.3z M24.9,28.4h46.9v5H24.9c-1.4,0-2.5-1.1-2.5-2.6C22.5,29.5,23.6,28.4,24.9,28.4z"/>
			</g>
		</g>
	</g>
</g>
<g id="LABELS">
</g>
</svg>
