<?xml version="1.0" encoding="utf-8"?>
<!-- Generator: Adobe Illustrator 18.1.1, SVG Export Plug-In . SVG Version: 6.00 Build 0)  -->
<svg version="1.1" xmlns="http://www.w3.org/2000/svg" xmlns:xlink="http://www.w3.org/1999/xlink" x="0px" y="0px"
	 viewBox="0 0 100 100" enable-background="new 0 0 100 100" xml:space="preserve">
<g id="GUIDES">
</g>
<g id="ICONS_-_BLACK" display="none">
	<g display="inline">
		<g>
			<g>
				<path d="M18.5,73.2c-2.2,0-3.3,1.3-3.3,3.5v0.8h2.1v-0.9c0-1,0.4-1.4,1.1-1.4s1.1,0.3,1.1,1.6v0.8c0,1.1-0.5,1.5-1.3,1.5h-0.9v2
					h0.7c1,0,1.4,0.5,1.4,1.8v1.1c0,1.2-0.4,1.6-1.1,1.6s-1.1-0.4-1.1-1.4v-1.3h-2.1V84c0,2.2,1.1,3.5,3.3,3.5
					c2.2,0,3.3-1.3,3.3-3.5v-1.1c0-1.4-0.4-2.5-1.5-2.9c1.1-0.4,1.5-1.4,1.5-2.9v-0.4C21.8,74.5,20.7,73.2,18.5,73.2z"/>
				<path d="M27.4,78.2c-1,0-1.7,0.4-2,1.2v-2.6c0-1.3,0.4-1.7,1.2-1.7c0.7,0,1.1,0.4,1.1,1.4v0.5h2.1v-0.4c0-2.2-1.1-3.5-3.3-3.5
					c-2.3,0-3.4,1.3-3.4,3.6V84c0,2.2,1.2,3.5,3.3,3.5s3.3-1.3,3.3-3.5v-2.6C29.8,79.4,29,78.2,27.4,78.2z M27.6,84.1
					c0,1-0.4,1.4-1.1,1.4c-0.7,0-1.1-0.4-1.1-1.4v-2.5c0-1,0.4-1.4,1.1-1.4c0.7,0,1.1,0.4,1.1,1.4V84.1z"/>
				<polygon points="31.2,87.4 32,87.4 31.5,89.4 32.4,89.4 33.3,87.1 33.3,85.2 31.2,85.2 				"/>
				<path d="M38.1,73.2c-2.2,0-3.3,1.3-3.3,3.5V84c0,2.2,1.2,3.5,3.3,3.5s3.3-1.3,3.3-3.5v-7.3C41.4,74.5,40.2,73.2,38.1,73.2z
					 M39.2,84.1c0,1-0.4,1.4-1.1,1.4c-0.7,0-1.1-0.4-1.1-1.4v-7.6c0-1,0.4-1.4,1.1-1.4c0.7,0,1.1,0.4,1.1,1.4V84.1z"/>
				<path d="M46,73.2c-2.2,0-3.3,1.3-3.3,3.5V84c0,2.2,1.2,3.5,3.3,3.5s3.3-1.3,3.3-3.5v-7.3C49.4,74.5,48.2,73.2,46,73.2z
					 M47.2,84.1c0,1-0.4,1.4-1.1,1.4c-0.7,0-1.1-0.4-1.1-1.4v-7.6c0-1,0.4-1.4,1.1-1.4c0.7,0,1.1,0.4,1.1,1.4V84.1z"/>
				<path d="M53.9,73.2c-2.2,0-3.3,1.3-3.3,3.5V84c0,2.2,1.2,3.5,3.3,3.5s3.3-1.3,3.3-3.5v-7.3C57.3,74.5,56.1,73.2,53.9,73.2z
					 M55.1,84.1c0,1-0.4,1.4-1.1,1.4c-0.7,0-1.1-0.4-1.1-1.4v-7.6c0-1,0.4-1.4,1.1-1.4c0.7,0,1.1,0.4,1.1,1.4V84.1z"/>
				<polygon points="58.7,87.4 59.5,87.4 58.9,89.4 59.8,89.4 60.8,87.1 60.8,85.2 58.7,85.2 				"/>
				<path d="M65.6,73.2c-2.2,0-3.3,1.3-3.3,3.5V84c0,2.2,1.2,3.5,3.3,3.5c2.2,0,3.3-1.3,3.3-3.5v-7.3C68.9,74.5,67.7,73.2,65.6,73.2
					z M66.7,84.1c0,1-0.4,1.4-1.1,1.4c-0.7,0-1.1-0.4-1.1-1.4v-7.6c0-1,0.4-1.4,1.1-1.4c0.7,0,1.1,0.4,1.1,1.4V84.1z"/>
				<path d="M73.5,73.2c-2.2,0-3.3,1.3-3.3,3.5V84c0,2.2,1.2,3.5,3.3,3.5c2.2,0,3.3-1.3,3.3-3.5v-7.3C76.8,74.5,75.7,73.2,73.5,73.2
					z M74.6,84.1c0,1-0.4,1.4-1.1,1.4c-0.7,0-1.1-0.4-1.1-1.4v-7.6c0-1,0.4-1.4,1.1-1.4c0.7,0,1.1,0.4,1.1,1.4V84.1z"/>
				<path d="M81.4,73.2c-2.2,0-3.3,1.3-3.3,3.5V84c0,2.2,1.2,3.5,3.3,3.5c2.2,0,3.3-1.3,3.3-3.5v-7.3C84.8,74.5,83.6,73.2,81.4,73.2
					z M82.5,84.1c0,1-0.4,1.4-1.1,1.4c-0.7,0-1.1-0.4-1.1-1.4v-7.6c0-1,0.4-1.4,1.1-1.4c0.7,0,1.1,0.4,1.1,1.4V84.1z"/>
				<g>
					<path d="M58.5,66.4c0-1.6-0.5-3.1-1.5-4.1c-0.6-0.7-1.4-1.2-2.3-1.4l-0.1,0l0.1-0.1c1.3-0.6,2.2-1.8,2.2-3.3
						c0-2-1.6-3.6-3.6-3.6c-1.3,0-2.5,0.7-3.1,1.8l0,0l-0.1,0c-0.1,0-0.1,0-0.2,0l-0.1,0l0,0C49.2,54.7,48,54,46.7,54
						c-2,0-3.6,1.6-3.6,3.6c0,1.4,0.9,2.7,2.2,3.3l0.1,0.1l-0.1,0c-0.9,0.2-1.7,0.7-2.3,1.4c-1,1-1.5,2.5-1.5,4.1
						c0,0.1,0,0.2,0.1,0.2c0.1,0.1,0.1,0.1,0.2,0.1h3.2l0,0.1c-0.1,0.5-0.2,1-0.2,1.5c0,0.1,0,0.2,0.1,0.2c0.1,0.1,0.1,0.1,0.2,0.1
						h9.7c0.1,0,0.2,0,0.2-0.1c0.1-0.1,0.1-0.1,0.1-0.2c0-0.5-0.1-1-0.2-1.5l0-0.1h3.1c0.1,0,0.2,0,0.2-0.1
						C58.5,66.6,58.5,66.5,58.5,66.4z M50.9,55.9c0.1-0.1,0.2-0.3,0.3-0.4c0.5-0.5,1.3-0.9,2.1-0.9c0.8,0,1.5,0.3,2.1,0.9
						c0.5,0.5,0.9,1.3,0.9,2.1c0,0.8-0.3,1.5-0.9,2.1c-0.5,0.5-1.1,0.8-1.8,0.8l-0.1,0l0-0.1c0.1-0.3,0.1-0.7,0.1-1
						C53.6,57.7,52.5,56.3,50.9,55.9L50.9,55.9L50.9,55.9z M50.1,56.5c0.8,0,1.5,0.3,2.1,0.9c0.5,0.5,0.9,1.3,0.9,2.1
						c0,0.8-0.3,1.5-0.9,2.1c-0.5,0.5-1.3,0.9-2.1,0.9c-0.8,0-1.5-0.3-2.1-0.9c-0.5-0.5-0.9-1.3-0.9-2.1c0-0.8,0.3-1.5,0.9-2.1
						C48.6,56.8,49.3,56.5,50.1,56.5z M44.6,59.6c-0.5-0.5-0.9-1.3-0.9-2.1c0-0.8,0.3-1.5,0.9-2.1c0.5-0.5,1.3-0.9,2.1-0.9
						c0.8,0,1.5,0.3,2.1,0.9c0.1,0.1,0.2,0.3,0.3,0.4l0,0.1l-0.1,0c-1.5,0.4-2.5,1.8-2.5,3.4c0,0.3,0,0.7,0.1,1l0,0.1l-0.1,0
						C45.9,60.4,45.2,60.1,44.6,59.6z M45.2,66.1h-3.1l0,0c0.1-1.3,0.5-2.4,1.3-3.3c0.8-0.9,2-1.4,3.2-1.4c0.1,0,0.3,0,0.4,0l0,0
						l0,0c0.4,0.6,0.9,1,1.6,1.2l0.1,0.1l-0.1,0c-0.9,0.2-1.7,0.7-2.3,1.4C45.9,64.7,45.5,65.3,45.2,66.1L45.2,66.1z M45.6,67.9
						L45.6,67.9c0.1-1.4,0.5-2.5,1.3-3.3c0.8-0.9,2-1.4,3.2-1.4c1.2,0,2.4,0.5,3.2,1.4c0.8,0.8,1.2,2,1.3,3.3l0,0H45.6z M54.9,66.1
						L54.9,66.1c-0.3-0.8-0.7-1.4-1.2-1.9c-0.6-0.7-1.4-1.2-2.3-1.4l-0.1,0l0.1-0.1c0.6-0.3,1.2-0.7,1.6-1.3l0,0l0.1,0
						c0.1,0,0.2,0,0.2,0c1.2,0,2.4,0.5,3.2,1.4c0.8,0.8,1.2,2,1.3,3.3l0,0H54.9z"/>
				</g>
				<g>
					<path d="M41.8,23.7h2.8l0.1-0.6c0.7-2.5,2.7-3.5,3.4-3.8c0.2,0.1,0.3,0.2,0.5,0.3l0.1,0.1l-0.1,0c-0.9,0.2-1.7,0.7-2.3,1.4
						c-0.5,0.5-0.9,1.2-1.1,1.9l0,0l-0.2,0.7l0,0.1c-0.1,0.5-0.2,1-0.2,1.5c0,0.1,0,0.2,0.1,0.2c0.1,0.1,0.1,0.1,0.2,0.1h9.7
						c0.1,0,0.2,0,0.2-0.1c0.1-0.1,0.1-0.1,0.1-0.2c0-0.5-0.1-1-0.2-1.5l0-0.1L54.9,23l0,0c-0.3-0.7-0.6-1.4-1.1-1.9
						c-0.6-0.7-1.4-1.2-2.3-1.4l-0.1,0l0.1-0.1c0.2-0.1,0.4-0.2,0.5-0.3c0.7,0.3,2.7,1.3,3.4,3.7c0,0.1,0,0.1,0,0.2l0.1,0.5h2.6
						c0.1,0,0.2,0,0.2-0.1c0.1-0.1,0.1-0.1,0.1-0.2c0-1.6-0.5-3.1-1.5-4.1c-0.6-0.7-1.4-1.2-2.3-1.4l-0.1,0l0.1-0.1
						c1.3-0.6,2.2-1.8,2.2-3.3c0-2-1.6-3.6-3.6-3.6c-1.3,0-2.5,0.7-3.1,1.8l0,0l-0.1,0c-0.1,0-0.1,0-0.2,0l-0.1,0l0,0
						c-0.6-1.1-1.8-1.8-3.1-1.8c-2,0-3.6,1.6-3.6,3.6c0,1.4,0.9,2.7,2.2,3.3l0.1,0.1l-0.1,0c-0.9,0.2-1.7,0.7-2.3,1.4
						c-1,1-1.5,2.5-1.5,4.1c0,0.1,0,0.2,0.1,0.2C41.7,23.7,41.7,23.7,41.8,23.7z M51.5,20.4l-0.6,4.5h-1.6l-0.6-4.5
						c0.2-0.1,0.4-0.1,0.7-0.2l0.4,0.7l-0.4,1.7l0.8,1.3l0-0.1l0,0l0,0.1l0.8-1.3L50.5,21l0.4-0.7C51.1,20.3,51.3,20.3,51.5,20.4z
						 M50.9,12.8c0.1-0.1,0.2-0.3,0.3-0.4c0.5-0.5,1.3-0.9,2.1-0.9c0.8,0,1.5,0.3,2.1,0.9c0.5,0.5,0.9,1.3,0.9,2.1
						c0,0.8-0.3,1.5-0.9,2.1c-0.5,0.5-1.1,0.8-1.8,0.8l-0.1,0l0-0.1c0.1-0.3,0.1-0.7,0.1-1C53.6,14.7,52.5,13.3,50.9,12.8L50.9,12.8
						L50.9,12.8z M50.1,13.4c0.8,0,1.5,0.3,2.1,0.9c0.5,0.5,0.9,1.3,0.9,2.1c0,0.8-0.3,1.5-0.9,2.1c-0.5,0.5-1.3,0.9-2.1,0.9
						c-0.8,0-1.5-0.3-2.1-0.9c-0.5-0.5-0.9-1.3-0.9-2.1c0-0.8,0.3-1.5,0.9-2.1C48.6,13.7,49.3,13.4,50.1,13.4z M44.6,16.5
						c-0.5-0.5-0.9-1.3-0.9-2.1c0-0.8,0.3-1.5,0.9-2.1c0.5-0.5,1.3-0.9,2.1-0.9c0.8,0,1.5,0.3,2.1,0.9c0.1,0.1,0.2,0.3,0.3,0.4
						l0,0.1l-0.1,0c-1.5,0.4-2.5,1.8-2.5,3.4c0,0.3,0,0.7,0.1,1l0,0.1l-0.1,0C45.9,17.4,45.2,17.1,44.6,16.5z"/>
				</g>
				<path d="M26.5,44.3h2.2v-14h-1.5c-0.3,0.9-0.7,1.8-2.4,1.8v1.6h1.7V44.3z"/>
				<path d="M36.9,40.9v-3.1c0-2.1-0.8-3.2-2.4-3.2c-0.9,0-1.5,0.4-1.9,1l0.2-3.3h3.8v-2h-5.8l-0.4,8.1h2.1V38c0-1,0.4-1.4,1.1-1.4
					s1.1,0.4,1.1,1.4V41c0,1-0.4,1.4-1.1,1.4S32.4,42,32.4,41v-1.3h-2.1v1.2c0,2.2,1.1,3.5,3.3,3.5C35.7,44.4,36.9,43.2,36.9,40.9z"
					/>
				<path d="M44.9,40.9v-2.6c0-2.1-0.8-3.2-2.4-3.2c-1,0-1.7,0.4-2,1.2v-2.6c0-1.3,0.4-1.7,1.2-1.7c0.7,0,1.1,0.4,1.1,1.4V34h2.1
					v-0.4c0-2.2-1.1-3.5-3.3-3.5c-2.3,0-3.4,1.3-3.4,3.6v7.2c0,2.2,1.2,3.5,3.3,3.5C43.7,44.4,44.9,43.2,44.9,40.9z M42.7,41
					c0,1-0.4,1.4-1.1,1.4S40.4,42,40.4,41v-2.5c0-1,0.4-1.4,1.1-1.4s1.1,0.4,1.1,1.4V41z"/>
				<polygon points="47.4,46.3 48.4,44.1 48.4,42.2 46.2,42.2 46.2,44.3 47.1,44.3 46.5,46.3 				"/>
				<path d="M53.1,30.1c-2.2,0-3.3,1.3-3.3,3.5v7.3c0,2.2,1.2,3.5,3.3,3.5c2.2,0,3.3-1.3,3.3-3.5v-7.3
					C56.5,31.4,55.3,30.1,53.1,30.1z M54.3,41c0,1-0.4,1.4-1.1,1.4S52,42,52,41v-7.6c0-1,0.4-1.4,1.1-1.4s1.1,0.4,1.1,1.4V41z"/>
				<path d="M64.4,40.9v-7.3c0-2.2-1.2-3.5-3.3-3.5c-2.2,0-3.3,1.3-3.3,3.5v7.3c0,2.2,1.2,3.5,3.3,3.5
					C63.2,44.4,64.4,43.2,64.4,40.9z M62.2,41c0,1-0.4,1.4-1.1,1.4S59.9,42,59.9,41v-7.6c0-1,0.4-1.4,1.1-1.4s1.1,0.4,1.1,1.4V41z"
					/>
				<path d="M72.3,40.9v-7.3c0-2.2-1.2-3.5-3.3-3.5c-2.2,0-3.3,1.3-3.3,3.5v7.3c0,2.2,1.2,3.5,3.3,3.5
					C71.1,44.4,72.3,43.2,72.3,40.9z M70.1,41c0,1-0.4,1.4-1.1,1.4S67.8,42,67.8,41v-7.6c0-1,0.4-1.4,1.1-1.4s1.1,0.4,1.1,1.4V41z"
					/>
			</g>
		</g>
	</g>
</g>
<g id="ICONS_-_DARK_PURPLE" display="none">
	<g display="inline">
		<g>
			<g>
				<path fill="#4F2556" d="M18.5,73.2c-2.2,0-3.3,1.3-3.3,3.5v0.8h2.1v-0.9c0-1,0.4-1.4,1.1-1.4s1.1,0.3,1.1,1.6v0.8
					c0,1.1-0.5,1.5-1.3,1.5h-0.9v2h0.7c1,0,1.4,0.5,1.4,1.8v1.1c0,1.2-0.4,1.6-1.1,1.6s-1.1-0.4-1.1-1.4v-1.3h-2.1V84
					c0,2.2,1.1,3.5,3.3,3.5c2.2,0,3.3-1.3,3.3-3.5v-1.1c0-1.4-0.4-2.5-1.5-2.9c1.1-0.4,1.5-1.4,1.5-2.9v-0.4
					C21.8,74.5,20.7,73.2,18.5,73.2z"/>
				<path fill="#4F2556" d="M27.4,78.2c-1,0-1.7,0.4-2,1.2v-2.6c0-1.3,0.4-1.7,1.2-1.7c0.7,0,1.1,0.4,1.1,1.4v0.5h2.1v-0.4
					c0-2.2-1.1-3.5-3.3-3.5c-2.3,0-3.4,1.3-3.4,3.6V84c0,2.2,1.2,3.5,3.3,3.5s3.3-1.3,3.3-3.5v-2.6C29.8,79.4,29,78.2,27.4,78.2z
					 M27.6,84.1c0,1-0.4,1.4-1.1,1.4c-0.7,0-1.1-0.4-1.1-1.4v-2.5c0-1,0.4-1.4,1.1-1.4c0.7,0,1.1,0.4,1.1,1.4V84.1z"/>
				<polygon fill="#4F2556" points="31.2,87.4 32,87.4 31.5,89.4 32.4,89.4 33.3,87.1 33.3,85.2 31.2,85.2 				"/>
				<path fill="#4F2556" d="M38.1,73.2c-2.2,0-3.3,1.3-3.3,3.5V84c0,2.2,1.2,3.5,3.3,3.5s3.3-1.3,3.3-3.5v-7.3
					C41.4,74.5,40.2,73.2,38.1,73.2z M39.2,84.1c0,1-0.4,1.4-1.1,1.4c-0.7,0-1.1-0.4-1.1-1.4v-7.6c0-1,0.4-1.4,1.1-1.4
					c0.7,0,1.1,0.4,1.1,1.4V84.1z"/>
				<path fill="#4F2556" d="M46,73.2c-2.2,0-3.3,1.3-3.3,3.5V84c0,2.2,1.2,3.5,3.3,3.5s3.3-1.3,3.3-3.5v-7.3
					C49.4,74.5,48.2,73.2,46,73.2z M47.2,84.1c0,1-0.4,1.4-1.1,1.4c-0.7,0-1.1-0.4-1.1-1.4v-7.6c0-1,0.4-1.4,1.1-1.4
					c0.7,0,1.1,0.4,1.1,1.4V84.1z"/>
				<path fill="#4F2556" d="M53.9,73.2c-2.2,0-3.3,1.3-3.3,3.5V84c0,2.2,1.2,3.5,3.3,3.5s3.3-1.3,3.3-3.5v-7.3
					C57.3,74.5,56.1,73.2,53.9,73.2z M55.1,84.1c0,1-0.4,1.4-1.1,1.4c-0.7,0-1.1-0.4-1.1-1.4v-7.6c0-1,0.4-1.4,1.1-1.4
					c0.7,0,1.1,0.4,1.1,1.4V84.1z"/>
				<polygon fill="#4F2556" points="58.7,87.4 59.5,87.4 58.9,89.4 59.8,89.4 60.8,87.1 60.8,85.2 58.7,85.2 				"/>
				<path fill="#4F2556" d="M65.6,73.2c-2.2,0-3.3,1.3-3.3,3.5V84c0,2.2,1.2,3.5,3.3,3.5c2.2,0,3.3-1.3,3.3-3.5v-7.3
					C68.9,74.5,67.7,73.2,65.6,73.2z M66.7,84.1c0,1-0.4,1.4-1.1,1.4c-0.7,0-1.1-0.4-1.1-1.4v-7.6c0-1,0.4-1.4,1.1-1.4
					c0.7,0,1.1,0.4,1.1,1.4V84.1z"/>
				<path fill="#4F2556" d="M73.5,73.2c-2.2,0-3.3,1.3-3.3,3.5V84c0,2.2,1.2,3.5,3.3,3.5c2.2,0,3.3-1.3,3.3-3.5v-7.3
					C76.8,74.5,75.7,73.2,73.5,73.2z M74.6,84.1c0,1-0.4,1.4-1.1,1.4c-0.7,0-1.1-0.4-1.1-1.4v-7.6c0-1,0.4-1.4,1.1-1.4
					c0.7,0,1.1,0.4,1.1,1.4V84.1z"/>
				<path fill="#4F2556" d="M81.4,73.2c-2.2,0-3.3,1.3-3.3,3.5V84c0,2.2,1.2,3.5,3.3,3.5c2.2,0,3.3-1.3,3.3-3.5v-7.3
					C84.8,74.5,83.6,73.2,81.4,73.2z M82.5,84.1c0,1-0.4,1.4-1.1,1.4c-0.7,0-1.1-0.4-1.1-1.4v-7.6c0-1,0.4-1.4,1.1-1.4
					c0.7,0,1.1,0.4,1.1,1.4V84.1z"/>
				<g>
					<path fill="#4F2556" d="M58.5,66.4c0-1.6-0.5-3.1-1.5-4.1c-0.6-0.7-1.4-1.2-2.3-1.4l-0.1,0l0.1-0.1c1.3-0.6,2.2-1.8,2.2-3.3
						c0-2-1.6-3.6-3.6-3.6c-1.3,0-2.5,0.7-3.1,1.8l0,0l-0.1,0c-0.1,0-0.1,0-0.2,0l-0.1,0l0,0C49.2,54.7,48,54,46.7,54
						c-2,0-3.6,1.6-3.6,3.6c0,1.4,0.9,2.7,2.2,3.3l0.1,0.1l-0.1,0c-0.9,0.2-1.7,0.7-2.3,1.4c-1,1-1.5,2.5-1.5,4.1
						c0,0.1,0,0.2,0.1,0.2c0.1,0.1,0.1,0.1,0.2,0.1h3.2l0,0.1c-0.1,0.5-0.2,1-0.2,1.5c0,0.1,0,0.2,0.1,0.2c0.1,0.1,0.1,0.1,0.2,0.1
						h9.7c0.1,0,0.2,0,0.2-0.1c0.1-0.1,0.1-0.1,0.1-0.2c0-0.5-0.1-1-0.2-1.5l0-0.1h3.1c0.1,0,0.2,0,0.2-0.1
						C58.5,66.6,58.5,66.5,58.5,66.4z M50.9,55.9c0.1-0.1,0.2-0.3,0.3-0.4c0.5-0.5,1.3-0.9,2.1-0.9c0.8,0,1.5,0.3,2.1,0.9
						c0.5,0.5,0.9,1.3,0.9,2.1c0,0.8-0.3,1.5-0.9,2.1c-0.5,0.5-1.1,0.8-1.8,0.8l-0.1,0l0-0.1c0.1-0.3,0.1-0.7,0.1-1
						C53.6,57.7,52.5,56.3,50.9,55.9L50.9,55.9L50.9,55.9z M50.1,56.5c0.8,0,1.5,0.3,2.1,0.9c0.5,0.5,0.9,1.3,0.9,2.1
						c0,0.8-0.3,1.5-0.9,2.1c-0.5,0.5-1.3,0.9-2.1,0.9c-0.8,0-1.5-0.3-2.1-0.9c-0.5-0.5-0.9-1.3-0.9-2.1c0-0.8,0.3-1.5,0.9-2.1
						C48.6,56.8,49.3,56.5,50.1,56.5z M44.6,59.6c-0.5-0.5-0.9-1.3-0.9-2.1c0-0.8,0.3-1.5,0.9-2.1c0.5-0.5,1.3-0.9,2.1-0.9
						c0.8,0,1.5,0.3,2.1,0.9c0.1,0.1,0.2,0.3,0.3,0.4l0,0.1l-0.1,0c-1.5,0.4-2.5,1.8-2.5,3.4c0,0.3,0,0.7,0.1,1l0,0.1l-0.1,0
						C45.9,60.4,45.2,60.1,44.6,59.6z M45.2,66.1h-3.1l0,0c0.1-1.3,0.5-2.4,1.3-3.3c0.8-0.9,2-1.4,3.2-1.4c0.1,0,0.3,0,0.4,0l0,0
						l0,0c0.4,0.6,0.9,1,1.6,1.2l0.1,0.1l-0.1,0c-0.9,0.2-1.7,0.7-2.3,1.4C45.9,64.7,45.5,65.3,45.2,66.1L45.2,66.1z M45.6,67.9
						L45.6,67.9c0.1-1.4,0.5-2.5,1.3-3.3c0.8-0.9,2-1.4,3.2-1.4c1.2,0,2.4,0.5,3.2,1.4c0.8,0.8,1.2,2,1.3,3.3l0,0H45.6z M54.9,66.1
						L54.9,66.1c-0.3-0.8-0.7-1.4-1.2-1.9c-0.6-0.7-1.4-1.2-2.3-1.4l-0.1,0l0.1-0.1c0.6-0.3,1.2-0.7,1.6-1.3l0,0l0.1,0
						c0.1,0,0.2,0,0.2,0c1.2,0,2.4,0.5,3.2,1.4c0.8,0.8,1.2,2,1.3,3.3l0,0H54.9z"/>
				</g>
				<g>
					<path fill="#4F2556" d="M41.8,23.7h2.8l0.1-0.6c0.7-2.5,2.7-3.5,3.4-3.8c0.2,0.1,0.3,0.2,0.5,0.3l0.1,0.1l-0.1,0
						c-0.9,0.2-1.7,0.7-2.3,1.4c-0.5,0.5-0.9,1.2-1.1,1.9l0,0l-0.2,0.7l0,0.1c-0.1,0.5-0.2,1-0.2,1.5c0,0.1,0,0.2,0.1,0.2
						c0.1,0.1,0.1,0.1,0.2,0.1h9.7c0.1,0,0.2,0,0.2-0.1c0.1-0.1,0.1-0.1,0.1-0.2c0-0.5-0.1-1-0.2-1.5l0-0.1L54.9,23l0,0
						c-0.3-0.7-0.6-1.4-1.1-1.9c-0.6-0.7-1.4-1.2-2.3-1.4l-0.1,0l0.1-0.1c0.2-0.1,0.4-0.2,0.5-0.3c0.7,0.3,2.7,1.3,3.4,3.7
						c0,0.1,0,0.1,0,0.2l0.1,0.5h2.6c0.1,0,0.2,0,0.2-0.1c0.1-0.1,0.1-0.1,0.1-0.2c0-1.6-0.5-3.1-1.5-4.1c-0.6-0.7-1.4-1.2-2.3-1.4
						l-0.1,0l0.1-0.1c1.3-0.6,2.2-1.8,2.2-3.3c0-2-1.6-3.6-3.6-3.6c-1.3,0-2.5,0.7-3.1,1.8l0,0l-0.1,0c-0.1,0-0.1,0-0.2,0l-0.1,0
						l0,0c-0.6-1.1-1.8-1.8-3.1-1.8c-2,0-3.6,1.6-3.6,3.6c0,1.4,0.9,2.7,2.2,3.3l0.1,0.1l-0.1,0c-0.9,0.2-1.7,0.7-2.3,1.4
						c-1,1-1.5,2.5-1.5,4.1c0,0.1,0,0.2,0.1,0.2C41.7,23.7,41.7,23.7,41.8,23.7z M51.5,20.4l-0.6,4.5h-1.6l-0.6-4.5
						c0.2-0.1,0.4-0.1,0.7-0.2l0.4,0.7l-0.4,1.7l0.8,1.3l0-0.1l0,0l0,0.1l0.8-1.3L50.5,21l0.4-0.7C51.1,20.3,51.3,20.3,51.5,20.4z
						 M50.9,12.8c0.1-0.1,0.2-0.3,0.3-0.4c0.5-0.5,1.3-0.9,2.1-0.9c0.8,0,1.5,0.3,2.1,0.9c0.5,0.5,0.9,1.3,0.9,2.1
						c0,0.8-0.3,1.5-0.9,2.1c-0.5,0.5-1.1,0.8-1.8,0.8l-0.1,0l0-0.1c0.1-0.3,0.1-0.7,0.1-1C53.6,14.7,52.5,13.3,50.9,12.8L50.9,12.8
						L50.9,12.8z M50.1,13.4c0.8,0,1.5,0.3,2.1,0.9c0.5,0.5,0.9,1.3,0.9,2.1c0,0.8-0.3,1.5-0.9,2.1c-0.5,0.5-1.3,0.9-2.1,0.9
						c-0.8,0-1.5-0.3-2.1-0.9c-0.5-0.5-0.9-1.3-0.9-2.1c0-0.8,0.3-1.5,0.9-2.1C48.6,13.7,49.3,13.4,50.1,13.4z M44.6,16.5
						c-0.5-0.5-0.9-1.3-0.9-2.1c0-0.8,0.3-1.5,0.9-2.1c0.5-0.5,1.3-0.9,2.1-0.9c0.8,0,1.5,0.3,2.1,0.9c0.1,0.1,0.2,0.3,0.3,0.4
						l0,0.1l-0.1,0c-1.5,0.4-2.5,1.8-2.5,3.4c0,0.3,0,0.7,0.1,1l0,0.1l-0.1,0C45.9,17.4,45.2,17.1,44.6,16.5z"/>
				</g>
				<path fill="#4F2556" d="M26.5,44.3h2.2v-14h-1.5c-0.3,0.9-0.7,1.8-2.4,1.8v1.6h1.7V44.3z"/>
				<path fill="#4F2556" d="M36.9,40.9v-3.1c0-2.1-0.8-3.2-2.4-3.2c-0.9,0-1.5,0.4-1.9,1l0.2-3.3h3.8v-2h-5.8l-0.4,8.1h2.1V38
					c0-1,0.4-1.4,1.1-1.4s1.1,0.4,1.1,1.4V41c0,1-0.4,1.4-1.1,1.4S32.4,42,32.4,41v-1.3h-2.1v1.2c0,2.2,1.1,3.5,3.3,3.5
					C35.7,44.4,36.9,43.2,36.9,40.9z"/>
				<path fill="#4F2556" d="M44.9,40.9v-2.6c0-2.1-0.8-3.2-2.4-3.2c-1,0-1.7,0.4-2,1.2v-2.6c0-1.3,0.4-1.7,1.2-1.7
					c0.7,0,1.1,0.4,1.1,1.4V34h2.1v-0.4c0-2.2-1.1-3.5-3.3-3.5c-2.3,0-3.4,1.3-3.4,3.6v7.2c0,2.2,1.2,3.5,3.3,3.5
					C43.7,44.4,44.9,43.2,44.9,40.9z M42.7,41c0,1-0.4,1.4-1.1,1.4S40.4,42,40.4,41v-2.5c0-1,0.4-1.4,1.1-1.4s1.1,0.4,1.1,1.4V41z"
					/>
				<polygon fill="#4F2556" points="47.4,46.3 48.4,44.1 48.4,42.2 46.2,42.2 46.2,44.3 47.1,44.3 46.5,46.3 				"/>
				<path fill="#4F2556" d="M53.1,30.1c-2.2,0-3.3,1.3-3.3,3.5v7.3c0,2.2,1.2,3.5,3.3,3.5c2.2,0,3.3-1.3,3.3-3.5v-7.3
					C56.5,31.4,55.3,30.1,53.1,30.1z M54.3,41c0,1-0.4,1.4-1.1,1.4S52,42,52,41v-7.6c0-1,0.4-1.4,1.1-1.4s1.1,0.4,1.1,1.4V41z"/>
				<path fill="#4F2556" d="M64.4,40.9v-7.3c0-2.2-1.2-3.5-3.3-3.5c-2.2,0-3.3,1.3-3.3,3.5v7.3c0,2.2,1.2,3.5,3.3,3.5
					C63.2,44.4,64.4,43.2,64.4,40.9z M62.2,41c0,1-0.4,1.4-1.1,1.4S59.9,42,59.9,41v-7.6c0-1,0.4-1.4,1.1-1.4s1.1,0.4,1.1,1.4V41z"
					/>
				<path fill="#4F2556" d="M72.3,40.9v-7.3c0-2.2-1.2-3.5-3.3-3.5c-2.2,0-3.3,1.3-3.3,3.5v7.3c0,2.2,1.2,3.5,3.3,3.5
					C71.1,44.4,72.3,43.2,72.3,40.9z M70.1,41c0,1-0.4,1.4-1.1,1.4S67.8,42,67.8,41v-7.6c0-1,0.4-1.4,1.1-1.4s1.1,0.4,1.1,1.4V41z"
					/>
			</g>
		</g>
	</g>
</g>
<g id="ICONS_-_WARM_GREY" display="none">
	<g display="inline">
		<g>
			<g>
				<path fill="#534C63" d="M18.5,73.2c-2.2,0-3.3,1.3-3.3,3.5v0.8h2.1v-0.9c0-1,0.4-1.4,1.1-1.4s1.1,0.3,1.1,1.6v0.8
					c0,1.1-0.5,1.5-1.3,1.5h-0.9v2h0.7c1,0,1.4,0.5,1.4,1.8v1.1c0,1.2-0.4,1.6-1.1,1.6s-1.1-0.4-1.1-1.4v-1.3h-2.1V84
					c0,2.2,1.1,3.5,3.3,3.5c2.2,0,3.3-1.3,3.3-3.5v-1.1c0-1.4-0.4-2.5-1.5-2.9c1.1-0.4,1.5-1.4,1.5-2.9v-0.4
					C21.8,74.5,20.7,73.2,18.5,73.2z"/>
				<path fill="#534C63" d="M27.4,78.2c-1,0-1.7,0.4-2,1.2v-2.6c0-1.3,0.4-1.7,1.2-1.7c0.7,0,1.1,0.4,1.1,1.4v0.5h2.1v-0.4
					c0-2.2-1.1-3.5-3.3-3.5c-2.3,0-3.4,1.3-3.4,3.6V84c0,2.2,1.2,3.5,3.3,3.5s3.3-1.3,3.3-3.5v-2.6C29.8,79.4,29,78.2,27.4,78.2z
					 M27.6,84.1c0,1-0.4,1.4-1.1,1.4c-0.7,0-1.1-0.4-1.1-1.4v-2.5c0-1,0.4-1.4,1.1-1.4c0.7,0,1.1,0.4,1.1,1.4V84.1z"/>
				<polygon fill="#534C63" points="31.2,87.4 32,87.4 31.5,89.4 32.4,89.4 33.3,87.1 33.3,85.2 31.2,85.2 				"/>
				<path fill="#534C63" d="M38.1,73.2c-2.2,0-3.3,1.3-3.3,3.5V84c0,2.2,1.2,3.5,3.3,3.5s3.3-1.3,3.3-3.5v-7.3
					C41.4,74.5,40.2,73.2,38.1,73.2z M39.2,84.1c0,1-0.4,1.4-1.1,1.4c-0.7,0-1.1-0.4-1.1-1.4v-7.6c0-1,0.4-1.4,1.1-1.4
					c0.7,0,1.1,0.4,1.1,1.4V84.1z"/>
				<path fill="#534C63" d="M46,73.2c-2.2,0-3.3,1.3-3.3,3.5V84c0,2.2,1.2,3.5,3.3,3.5s3.3-1.3,3.3-3.5v-7.3
					C49.4,74.5,48.2,73.2,46,73.2z M47.2,84.1c0,1-0.4,1.4-1.1,1.4c-0.7,0-1.1-0.4-1.1-1.4v-7.6c0-1,0.4-1.4,1.1-1.4
					c0.7,0,1.1,0.4,1.1,1.4V84.1z"/>
				<path fill="#534C63" d="M53.9,73.2c-2.2,0-3.3,1.3-3.3,3.5V84c0,2.2,1.2,3.5,3.3,3.5s3.3-1.3,3.3-3.5v-7.3
					C57.3,74.5,56.1,73.2,53.9,73.2z M55.1,84.1c0,1-0.4,1.4-1.1,1.4c-0.7,0-1.1-0.4-1.1-1.4v-7.6c0-1,0.4-1.4,1.1-1.4
					c0.7,0,1.1,0.4,1.1,1.4V84.1z"/>
				<polygon fill="#534C63" points="58.7,87.4 59.5,87.4 58.9,89.4 59.8,89.4 60.8,87.1 60.8,85.2 58.7,85.2 				"/>
				<path fill="#534C63" d="M65.6,73.2c-2.2,0-3.3,1.3-3.3,3.5V84c0,2.2,1.2,3.5,3.3,3.5c2.2,0,3.3-1.3,3.3-3.5v-7.3
					C68.9,74.5,67.7,73.2,65.6,73.2z M66.7,84.1c0,1-0.4,1.4-1.1,1.4c-0.7,0-1.1-0.4-1.1-1.4v-7.6c0-1,0.4-1.4,1.1-1.4
					c0.7,0,1.1,0.4,1.1,1.4V84.1z"/>
				<path fill="#534C63" d="M73.5,73.2c-2.2,0-3.3,1.3-3.3,3.5V84c0,2.2,1.2,3.5,3.3,3.5c2.2,0,3.3-1.3,3.3-3.5v-7.3
					C76.8,74.5,75.7,73.2,73.5,73.2z M74.6,84.1c0,1-0.4,1.4-1.1,1.4c-0.7,0-1.1-0.4-1.1-1.4v-7.6c0-1,0.4-1.4,1.1-1.4
					c0.7,0,1.1,0.4,1.1,1.4V84.1z"/>
				<path fill="#534C63" d="M81.4,73.2c-2.2,0-3.3,1.3-3.3,3.5V84c0,2.2,1.2,3.5,3.3,3.5c2.2,0,3.3-1.3,3.3-3.5v-7.3
					C84.8,74.5,83.6,73.2,81.4,73.2z M82.5,84.1c0,1-0.4,1.4-1.1,1.4c-0.7,0-1.1-0.4-1.1-1.4v-7.6c0-1,0.4-1.4,1.1-1.4
					c0.7,0,1.1,0.4,1.1,1.4V84.1z"/>
				<g>
					<path fill="#534C63" d="M58.5,66.4c0-1.6-0.5-3.1-1.5-4.1c-0.6-0.7-1.4-1.2-2.3-1.4l-0.1,0l0.1-0.1c1.3-0.6,2.2-1.8,2.2-3.3
						c0-2-1.6-3.6-3.6-3.6c-1.3,0-2.5,0.7-3.1,1.8l0,0l-0.1,0c-0.1,0-0.1,0-0.2,0l-0.1,0l0,0C49.2,54.7,48,54,46.7,54
						c-2,0-3.6,1.6-3.6,3.6c0,1.4,0.9,2.7,2.2,3.3l0.1,0.1l-0.1,0c-0.9,0.2-1.7,0.7-2.3,1.4c-1,1-1.5,2.5-1.5,4.1
						c0,0.1,0,0.2,0.1,0.2c0.1,0.1,0.1,0.1,0.2,0.1h3.2l0,0.1c-0.1,0.5-0.2,1-0.2,1.5c0,0.1,0,0.2,0.1,0.2c0.1,0.1,0.1,0.1,0.2,0.1
						h9.7c0.1,0,0.2,0,0.2-0.1c0.1-0.1,0.1-0.1,0.1-0.2c0-0.5-0.1-1-0.2-1.5l0-0.1h3.1c0.1,0,0.2,0,0.2-0.1
						C58.5,66.6,58.5,66.5,58.5,66.4z M50.9,55.9c0.1-0.1,0.2-0.3,0.3-0.4c0.5-0.5,1.3-0.9,2.1-0.9c0.8,0,1.5,0.3,2.1,0.9
						c0.5,0.5,0.9,1.3,0.9,2.1c0,0.8-0.3,1.5-0.9,2.1c-0.5,0.5-1.1,0.8-1.8,0.8l-0.1,0l0-0.1c0.1-0.3,0.1-0.7,0.1-1
						C53.6,57.7,52.5,56.3,50.9,55.9L50.9,55.9L50.9,55.9z M50.1,56.5c0.8,0,1.5,0.3,2.1,0.9c0.5,0.5,0.9,1.3,0.9,2.1
						c0,0.8-0.3,1.5-0.9,2.1c-0.5,0.5-1.3,0.9-2.1,0.9c-0.8,0-1.5-0.3-2.1-0.9c-0.5-0.5-0.9-1.3-0.9-2.1c0-0.8,0.3-1.5,0.9-2.1
						C48.6,56.8,49.3,56.5,50.1,56.5z M44.6,59.6c-0.5-0.5-0.9-1.3-0.9-2.1c0-0.8,0.3-1.5,0.9-2.1c0.5-0.5,1.3-0.9,2.1-0.9
						c0.8,0,1.5,0.3,2.1,0.9c0.1,0.1,0.2,0.3,0.3,0.4l0,0.1l-0.1,0c-1.5,0.4-2.5,1.8-2.5,3.4c0,0.3,0,0.7,0.1,1l0,0.1l-0.1,0
						C45.9,60.4,45.2,60.1,44.6,59.6z M45.2,66.1h-3.1l0,0c0.1-1.3,0.5-2.4,1.3-3.3c0.8-0.9,2-1.4,3.2-1.4c0.1,0,0.3,0,0.4,0l0,0
						l0,0c0.4,0.6,0.9,1,1.6,1.2l0.1,0.1l-0.1,0c-0.9,0.2-1.7,0.7-2.3,1.4C45.9,64.7,45.5,65.3,45.2,66.1L45.2,66.1z M45.6,67.9
						L45.6,67.9c0.1-1.4,0.5-2.5,1.3-3.3c0.8-0.9,2-1.4,3.2-1.4c1.2,0,2.4,0.5,3.2,1.4c0.8,0.8,1.2,2,1.3,3.3l0,0H45.6z M54.9,66.1
						L54.9,66.1c-0.3-0.8-0.7-1.4-1.2-1.9c-0.6-0.7-1.4-1.2-2.3-1.4l-0.1,0l0.1-0.1c0.6-0.3,1.2-0.7,1.6-1.3l0,0l0.1,0
						c0.1,0,0.2,0,0.2,0c1.2,0,2.4,0.5,3.2,1.4c0.8,0.8,1.2,2,1.3,3.3l0,0H54.9z"/>
				</g>
				<g>
					<path fill="#534C63" d="M41.8,23.7h2.8l0.1-0.6c0.7-2.5,2.7-3.5,3.4-3.8c0.2,0.1,0.3,0.2,0.5,0.3l0.1,0.1l-0.1,0
						c-0.9,0.2-1.7,0.7-2.3,1.4c-0.5,0.5-0.9,1.2-1.1,1.9l0,0l-0.2,0.7l0,0.1c-0.1,0.5-0.2,1-0.2,1.5c0,0.1,0,0.2,0.1,0.2
						c0.1,0.1,0.1,0.1,0.2,0.1h9.7c0.1,0,0.2,0,0.2-0.1c0.1-0.1,0.1-0.1,0.1-0.2c0-0.5-0.1-1-0.2-1.5l0-0.1L54.9,23l0,0
						c-0.3-0.7-0.6-1.4-1.1-1.9c-0.6-0.7-1.4-1.2-2.3-1.4l-0.1,0l0.1-0.1c0.2-0.1,0.4-0.2,0.5-0.3c0.7,0.3,2.7,1.3,3.4,3.7
						c0,0.1,0,0.1,0,0.2l0.1,0.5h2.6c0.1,0,0.2,0,0.2-0.1c0.1-0.1,0.1-0.1,0.1-0.2c0-1.6-0.5-3.1-1.5-4.1c-0.6-0.7-1.4-1.2-2.3-1.4
						l-0.1,0l0.1-0.1c1.3-0.6,2.2-1.8,2.2-3.3c0-2-1.6-3.6-3.6-3.6c-1.3,0-2.5,0.7-3.1,1.8l0,0l-0.1,0c-0.1,0-0.1,0-0.2,0l-0.1,0
						l0,0c-0.6-1.1-1.8-1.8-3.1-1.8c-2,0-3.6,1.6-3.6,3.6c0,1.4,0.9,2.7,2.2,3.3l0.1,0.1l-0.1,0c-0.9,0.2-1.7,0.7-2.3,1.4
						c-1,1-1.5,2.5-1.5,4.1c0,0.1,0,0.2,0.1,0.2C41.7,23.7,41.7,23.7,41.8,23.7z M51.5,20.4l-0.6,4.5h-1.6l-0.6-4.5
						c0.2-0.1,0.4-0.1,0.7-0.2l0.4,0.7l-0.4,1.7l0.8,1.3l0-0.1l0,0l0,0.1l0.8-1.3L50.5,21l0.4-0.7C51.1,20.3,51.3,20.3,51.5,20.4z
						 M50.9,12.8c0.1-0.1,0.2-0.3,0.3-0.4c0.5-0.5,1.3-0.9,2.1-0.9c0.8,0,1.5,0.3,2.1,0.9c0.5,0.5,0.9,1.3,0.9,2.1
						c0,0.8-0.3,1.5-0.9,2.1c-0.5,0.5-1.1,0.8-1.8,0.8l-0.1,0l0-0.1c0.1-0.3,0.1-0.7,0.1-1C53.6,14.7,52.5,13.3,50.9,12.8L50.9,12.8
						L50.9,12.8z M50.1,13.4c0.8,0,1.5,0.3,2.1,0.9c0.5,0.5,0.9,1.3,0.9,2.1c0,0.8-0.3,1.5-0.9,2.1c-0.5,0.5-1.3,0.9-2.1,0.9
						c-0.8,0-1.5-0.3-2.1-0.9c-0.5-0.5-0.9-1.3-0.9-2.1c0-0.8,0.3-1.5,0.9-2.1C48.6,13.7,49.3,13.4,50.1,13.4z M44.6,16.5
						c-0.5-0.5-0.9-1.3-0.9-2.1c0-0.8,0.3-1.5,0.9-2.1c0.5-0.5,1.3-0.9,2.1-0.9c0.8,0,1.5,0.3,2.1,0.9c0.1,0.1,0.2,0.3,0.3,0.4
						l0,0.1l-0.1,0c-1.5,0.4-2.5,1.8-2.5,3.4c0,0.3,0,0.7,0.1,1l0,0.1l-0.1,0C45.9,17.4,45.2,17.1,44.6,16.5z"/>
				</g>
				<path fill="#534C63" d="M26.5,44.3h2.2v-14h-1.5c-0.3,0.9-0.7,1.8-2.4,1.8v1.6h1.7V44.3z"/>
				<path fill="#534C63" d="M36.9,40.9v-3.1c0-2.1-0.8-3.2-2.4-3.2c-0.9,0-1.5,0.4-1.9,1l0.2-3.3h3.8v-2h-5.8l-0.4,8.1h2.1V38
					c0-1,0.4-1.4,1.1-1.4s1.1,0.4,1.1,1.4V41c0,1-0.4,1.4-1.1,1.4S32.4,42,32.4,41v-1.3h-2.1v1.2c0,2.2,1.1,3.5,3.3,3.5
					C35.7,44.4,36.9,43.2,36.9,40.9z"/>
				<path fill="#534C63" d="M44.9,40.9v-2.6c0-2.1-0.8-3.2-2.4-3.2c-1,0-1.7,0.4-2,1.2v-2.6c0-1.3,0.4-1.7,1.2-1.7
					c0.7,0,1.1,0.4,1.1,1.4V34h2.1v-0.4c0-2.2-1.1-3.5-3.3-3.5c-2.3,0-3.4,1.3-3.4,3.6v7.2c0,2.2,1.2,3.5,3.3,3.5
					C43.7,44.4,44.9,43.2,44.9,40.9z M42.7,41c0,1-0.4,1.4-1.1,1.4S40.4,42,40.4,41v-2.5c0-1,0.4-1.4,1.1-1.4s1.1,0.4,1.1,1.4V41z"
					/>
				<polygon fill="#534C63" points="47.4,46.3 48.4,44.1 48.4,42.2 46.2,42.2 46.2,44.3 47.1,44.3 46.5,46.3 				"/>
				<path fill="#534C63" d="M53.1,30.1c-2.2,0-3.3,1.3-3.3,3.5v7.3c0,2.2,1.2,3.5,3.3,3.5c2.2,0,3.3-1.3,3.3-3.5v-7.3
					C56.5,31.4,55.3,30.1,53.1,30.1z M54.3,41c0,1-0.4,1.4-1.1,1.4S52,42,52,41v-7.6c0-1,0.4-1.4,1.1-1.4s1.1,0.4,1.1,1.4V41z"/>
				<path fill="#534C63" d="M64.4,40.9v-7.3c0-2.2-1.2-3.5-3.3-3.5c-2.2,0-3.3,1.3-3.3,3.5v7.3c0,2.2,1.2,3.5,3.3,3.5
					C63.2,44.4,64.4,43.2,64.4,40.9z M62.2,41c0,1-0.4,1.4-1.1,1.4S59.9,42,59.9,41v-7.6c0-1,0.4-1.4,1.1-1.4s1.1,0.4,1.1,1.4V41z"
					/>
				<path fill="#534C63" d="M72.3,40.9v-7.3c0-2.2-1.2-3.5-3.3-3.5c-2.2,0-3.3,1.3-3.3,3.5v7.3c0,2.2,1.2,3.5,3.3,3.5
					C71.1,44.4,72.3,43.2,72.3,40.9z M70.1,41c0,1-0.4,1.4-1.1,1.4S67.8,42,67.8,41v-7.6c0-1,0.4-1.4,1.1-1.4s1.1,0.4,1.1,1.4V41z"
					/>
			</g>
		</g>
	</g>
</g>
<g id="ICONS_-_SKRILL_TEAL" display="none">
	<g display="inline">
		<g>
			<g>
				<path fill="#41AEB5" d="M18.5,73.2c-2.2,0-3.3,1.3-3.3,3.5v0.8h2.1v-0.9c0-1,0.4-1.4,1.1-1.4s1.1,0.3,1.1,1.6v0.8
					c0,1.1-0.5,1.5-1.3,1.5h-0.9v2h0.7c1,0,1.4,0.5,1.4,1.8v1.1c0,1.2-0.4,1.6-1.1,1.6s-1.1-0.4-1.1-1.4v-1.3h-2.1V84
					c0,2.2,1.1,3.5,3.3,3.5c2.2,0,3.3-1.3,3.3-3.5v-1.1c0-1.4-0.4-2.5-1.5-2.9c1.1-0.4,1.5-1.4,1.5-2.9v-0.4
					C21.8,74.5,20.7,73.2,18.5,73.2z"/>
				<path fill="#41AEB5" d="M27.4,78.2c-1,0-1.7,0.4-2,1.2v-2.6c0-1.3,0.4-1.7,1.2-1.7c0.7,0,1.1,0.4,1.1,1.4v0.5h2.1v-0.4
					c0-2.2-1.1-3.5-3.3-3.5c-2.3,0-3.4,1.3-3.4,3.6V84c0,2.2,1.2,3.5,3.3,3.5s3.3-1.3,3.3-3.5v-2.6C29.8,79.4,29,78.2,27.4,78.2z
					 M27.6,84.1c0,1-0.4,1.4-1.1,1.4c-0.7,0-1.1-0.4-1.1-1.4v-2.5c0-1,0.4-1.4,1.1-1.4c0.7,0,1.1,0.4,1.1,1.4V84.1z"/>
				<polygon fill="#41AEB5" points="31.2,87.4 32,87.4 31.5,89.4 32.4,89.4 33.3,87.1 33.3,85.2 31.2,85.2 				"/>
				<path fill="#41AEB5" d="M38.1,73.2c-2.2,0-3.3,1.3-3.3,3.5V84c0,2.2,1.2,3.5,3.3,3.5s3.3-1.3,3.3-3.5v-7.3
					C41.4,74.5,40.2,73.2,38.1,73.2z M39.2,84.1c0,1-0.4,1.4-1.1,1.4c-0.7,0-1.1-0.4-1.1-1.4v-7.6c0-1,0.4-1.4,1.1-1.4
					c0.7,0,1.1,0.4,1.1,1.4V84.1z"/>
				<path fill="#41AEB5" d="M46,73.2c-2.2,0-3.3,1.3-3.3,3.5V84c0,2.2,1.2,3.5,3.3,3.5s3.3-1.3,3.3-3.5v-7.3
					C49.4,74.5,48.2,73.2,46,73.2z M47.2,84.1c0,1-0.4,1.4-1.1,1.4c-0.7,0-1.1-0.4-1.1-1.4v-7.6c0-1,0.4-1.4,1.1-1.4
					c0.7,0,1.1,0.4,1.1,1.4V84.1z"/>
				<path fill="#41AEB5" d="M53.9,73.2c-2.2,0-3.3,1.3-3.3,3.5V84c0,2.2,1.2,3.5,3.3,3.5s3.3-1.3,3.3-3.5v-7.3
					C57.3,74.5,56.1,73.2,53.9,73.2z M55.1,84.1c0,1-0.4,1.4-1.1,1.4c-0.7,0-1.1-0.4-1.1-1.4v-7.6c0-1,0.4-1.4,1.1-1.4
					c0.7,0,1.1,0.4,1.1,1.4V84.1z"/>
				<polygon fill="#41AEB5" points="58.7,87.4 59.5,87.4 58.9,89.4 59.8,89.4 60.8,87.1 60.8,85.2 58.7,85.2 				"/>
				<path fill="#41AEB5" d="M65.6,73.2c-2.2,0-3.3,1.3-3.3,3.5V84c0,2.2,1.2,3.5,3.3,3.5c2.2,0,3.3-1.3,3.3-3.5v-7.3
					C68.9,74.5,67.7,73.2,65.6,73.2z M66.7,84.1c0,1-0.4,1.4-1.1,1.4c-0.7,0-1.1-0.4-1.1-1.4v-7.6c0-1,0.4-1.4,1.1-1.4
					c0.7,0,1.1,0.4,1.1,1.4V84.1z"/>
				<path fill="#41AEB5" d="M73.5,73.2c-2.2,0-3.3,1.3-3.3,3.5V84c0,2.2,1.2,3.5,3.3,3.5c2.2,0,3.3-1.3,3.3-3.5v-7.3
					C76.8,74.5,75.7,73.2,73.5,73.2z M74.6,84.1c0,1-0.4,1.4-1.1,1.4c-0.7,0-1.1-0.4-1.1-1.4v-7.6c0-1,0.4-1.4,1.1-1.4
					c0.7,0,1.1,0.4,1.1,1.4V84.1z"/>
				<path fill="#41AEB5" d="M81.4,73.2c-2.2,0-3.3,1.3-3.3,3.5V84c0,2.2,1.2,3.5,3.3,3.5c2.2,0,3.3-1.3,3.3-3.5v-7.3
					C84.8,74.5,83.6,73.2,81.4,73.2z M82.5,84.1c0,1-0.4,1.4-1.1,1.4c-0.7,0-1.1-0.4-1.1-1.4v-7.6c0-1,0.4-1.4,1.1-1.4
					c0.7,0,1.1,0.4,1.1,1.4V84.1z"/>
				<g>
					<path fill="#41AEB5" d="M58.5,66.4c0-1.6-0.5-3.1-1.5-4.1c-0.6-0.7-1.4-1.2-2.3-1.4l-0.1,0l0.1-0.1c1.3-0.6,2.2-1.8,2.2-3.3
						c0-2-1.6-3.6-3.6-3.6c-1.3,0-2.5,0.7-3.1,1.8l0,0l-0.1,0c-0.1,0-0.1,0-0.2,0l-0.1,0l0,0C49.2,54.7,48,54,46.7,54
						c-2,0-3.6,1.6-3.6,3.6c0,1.4,0.9,2.7,2.2,3.3l0.1,0.1l-0.1,0c-0.9,0.2-1.7,0.7-2.3,1.4c-1,1-1.5,2.5-1.5,4.1
						c0,0.1,0,0.2,0.1,0.2c0.1,0.1,0.1,0.1,0.2,0.1h3.2l0,0.1c-0.1,0.5-0.2,1-0.2,1.5c0,0.1,0,0.2,0.1,0.2c0.1,0.1,0.1,0.1,0.2,0.1
						h9.7c0.1,0,0.2,0,0.2-0.1c0.1-0.1,0.1-0.1,0.1-0.2c0-0.5-0.1-1-0.2-1.5l0-0.1h3.1c0.1,0,0.2,0,0.2-0.1
						C58.5,66.6,58.5,66.5,58.5,66.4z M50.9,55.9c0.1-0.1,0.2-0.3,0.3-0.4c0.5-0.5,1.3-0.9,2.1-0.9c0.8,0,1.5,0.3,2.1,0.9
						c0.5,0.5,0.9,1.3,0.9,2.1c0,0.8-0.3,1.5-0.9,2.1c-0.5,0.5-1.1,0.8-1.8,0.8l-0.1,0l0-0.1c0.1-0.3,0.1-0.7,0.1-1
						C53.6,57.7,52.5,56.3,50.9,55.9L50.9,55.9L50.9,55.9z M50.1,56.5c0.8,0,1.5,0.3,2.1,0.9c0.5,0.5,0.9,1.3,0.9,2.1
						c0,0.8-0.3,1.5-0.9,2.1c-0.5,0.5-1.3,0.9-2.1,0.9c-0.8,0-1.5-0.3-2.1-0.9c-0.5-0.5-0.9-1.3-0.9-2.1c0-0.8,0.3-1.5,0.9-2.1
						C48.6,56.8,49.3,56.5,50.1,56.5z M44.6,59.6c-0.5-0.5-0.9-1.3-0.9-2.1c0-0.8,0.3-1.5,0.9-2.1c0.5-0.5,1.3-0.9,2.1-0.9
						c0.8,0,1.5,0.3,2.1,0.9c0.1,0.1,0.2,0.3,0.3,0.4l0,0.1l-0.1,0c-1.5,0.4-2.5,1.8-2.5,3.4c0,0.3,0,0.7,0.1,1l0,0.1l-0.1,0
						C45.9,60.4,45.2,60.1,44.6,59.6z M45.2,66.1h-3.1l0,0c0.1-1.3,0.5-2.4,1.3-3.3c0.8-0.9,2-1.4,3.2-1.4c0.1,0,0.3,0,0.4,0l0,0
						l0,0c0.4,0.6,0.9,1,1.6,1.2l0.1,0.1l-0.1,0c-0.9,0.2-1.7,0.7-2.3,1.4C45.9,64.7,45.5,65.3,45.2,66.1L45.2,66.1z M45.6,67.9
						L45.6,67.9c0.1-1.4,0.5-2.5,1.3-3.3c0.8-0.9,2-1.4,3.2-1.4c1.2,0,2.4,0.5,3.2,1.4c0.8,0.8,1.2,2,1.3,3.3l0,0H45.6z M54.9,66.1
						L54.9,66.1c-0.3-0.8-0.7-1.4-1.2-1.9c-0.6-0.7-1.4-1.2-2.3-1.4l-0.1,0l0.1-0.1c0.6-0.3,1.2-0.7,1.6-1.3l0,0l0.1,0
						c0.1,0,0.2,0,0.2,0c1.2,0,2.4,0.5,3.2,1.4c0.8,0.8,1.2,2,1.3,3.3l0,0H54.9z"/>
				</g>
				<g>
					<path fill="#41AEB5" d="M41.8,23.7h2.8l0.1-0.6c0.7-2.5,2.7-3.5,3.4-3.8c0.2,0.1,0.3,0.2,0.5,0.3l0.1,0.1l-0.1,0
						c-0.9,0.2-1.7,0.7-2.3,1.4c-0.5,0.5-0.9,1.2-1.1,1.9l0,0l-0.2,0.7l0,0.1c-0.1,0.5-0.2,1-0.2,1.5c0,0.1,0,0.2,0.1,0.2
						c0.1,0.1,0.1,0.1,0.2,0.1h9.7c0.1,0,0.2,0,0.2-0.1c0.1-0.1,0.1-0.1,0.1-0.2c0-0.5-0.1-1-0.2-1.5l0-0.1L54.9,23l0,0
						c-0.3-0.7-0.6-1.4-1.1-1.9c-0.6-0.7-1.4-1.2-2.3-1.4l-0.1,0l0.1-0.1c0.2-0.1,0.4-0.2,0.5-0.3c0.7,0.3,2.7,1.3,3.4,3.7
						c0,0.1,0,0.1,0,0.2l0.1,0.5h2.6c0.1,0,0.2,0,0.2-0.1c0.1-0.1,0.1-0.1,0.1-0.2c0-1.6-0.5-3.1-1.5-4.1c-0.6-0.7-1.4-1.2-2.3-1.4
						l-0.1,0l0.1-0.1c1.3-0.6,2.2-1.8,2.2-3.3c0-2-1.6-3.6-3.6-3.6c-1.3,0-2.5,0.7-3.1,1.8l0,0l-0.1,0c-0.1,0-0.1,0-0.2,0l-0.1,0
						l0,0c-0.6-1.1-1.8-1.8-3.1-1.8c-2,0-3.6,1.6-3.6,3.6c0,1.4,0.9,2.7,2.2,3.3l0.1,0.1l-0.1,0c-0.9,0.2-1.7,0.7-2.3,1.4
						c-1,1-1.5,2.5-1.5,4.1c0,0.1,0,0.2,0.1,0.2C41.7,23.7,41.7,23.7,41.8,23.7z M51.5,20.4l-0.6,4.5h-1.6l-0.6-4.5
						c0.2-0.1,0.4-0.1,0.7-0.2l0.4,0.7l-0.4,1.7l0.8,1.3l0-0.1l0,0l0,0.1l0.8-1.3L50.5,21l0.4-0.7C51.1,20.3,51.3,20.3,51.5,20.4z
						 M50.9,12.8c0.1-0.1,0.2-0.3,0.3-0.4c0.5-0.5,1.3-0.9,2.1-0.9c0.8,0,1.5,0.3,2.1,0.9c0.5,0.5,0.9,1.3,0.9,2.1
						c0,0.8-0.3,1.5-0.9,2.1c-0.5,0.5-1.1,0.8-1.8,0.8l-0.1,0l0-0.1c0.1-0.3,0.1-0.7,0.1-1C53.6,14.7,52.5,13.3,50.9,12.8L50.9,12.8
						L50.9,12.8z M50.1,13.4c0.8,0,1.5,0.3,2.1,0.9c0.5,0.5,0.9,1.3,0.9,2.1c0,0.8-0.3,1.5-0.9,2.1c-0.5,0.5-1.3,0.9-2.1,0.9
						c-0.8,0-1.5-0.3-2.1-0.9c-0.5-0.5-0.9-1.3-0.9-2.1c0-0.8,0.3-1.5,0.9-2.1C48.6,13.7,49.3,13.4,50.1,13.4z M44.6,16.5
						c-0.5-0.5-0.9-1.3-0.9-2.1c0-0.8,0.3-1.5,0.9-2.1c0.5-0.5,1.3-0.9,2.1-0.9c0.8,0,1.5,0.3,2.1,0.9c0.1,0.1,0.2,0.3,0.3,0.4
						l0,0.1l-0.1,0c-1.5,0.4-2.5,1.8-2.5,3.4c0,0.3,0,0.7,0.1,1l0,0.1l-0.1,0C45.9,17.4,45.2,17.1,44.6,16.5z"/>
				</g>
				<path fill="#41AEB5" d="M26.5,44.3h2.2v-14h-1.5c-0.3,0.9-0.7,1.8-2.4,1.8v1.6h1.7V44.3z"/>
				<path fill="#41AEB5" d="M36.9,40.9v-3.1c0-2.1-0.8-3.2-2.4-3.2c-0.9,0-1.5,0.4-1.9,1l0.2-3.3h3.8v-2h-5.8l-0.4,8.1h2.1V38
					c0-1,0.4-1.4,1.1-1.4s1.1,0.4,1.1,1.4V41c0,1-0.4,1.4-1.1,1.4S32.4,42,32.4,41v-1.3h-2.1v1.2c0,2.2,1.1,3.5,3.3,3.5
					C35.7,44.4,36.9,43.2,36.9,40.9z"/>
				<path fill="#41AEB5" d="M44.9,40.9v-2.6c0-2.1-0.8-3.2-2.4-3.2c-1,0-1.7,0.4-2,1.2v-2.6c0-1.3,0.4-1.7,1.2-1.7
					c0.7,0,1.1,0.4,1.1,1.4V34h2.1v-0.4c0-2.2-1.1-3.5-3.3-3.5c-2.3,0-3.4,1.3-3.4,3.6v7.2c0,2.2,1.2,3.5,3.3,3.5
					C43.7,44.4,44.9,43.2,44.9,40.9z M42.7,41c0,1-0.4,1.4-1.1,1.4S40.4,42,40.4,41v-2.5c0-1,0.4-1.4,1.1-1.4s1.1,0.4,1.1,1.4V41z"
					/>
				<polygon fill="#41AEB5" points="47.4,46.3 48.4,44.1 48.4,42.2 46.2,42.2 46.2,44.3 47.1,44.3 46.5,46.3 				"/>
				<path fill="#41AEB5" d="M53.1,30.1c-2.2,0-3.3,1.3-3.3,3.5v7.3c0,2.2,1.2,3.5,3.3,3.5c2.2,0,3.3-1.3,3.3-3.5v-7.3
					C56.5,31.4,55.3,30.1,53.1,30.1z M54.3,41c0,1-0.4,1.4-1.1,1.4S52,42,52,41v-7.6c0-1,0.4-1.4,1.1-1.4s1.1,0.4,1.1,1.4V41z"/>
				<path fill="#41AEB5" d="M64.4,40.9v-7.3c0-2.2-1.2-3.5-3.3-3.5c-2.2,0-3.3,1.3-3.3,3.5v7.3c0,2.2,1.2,3.5,3.3,3.5
					C63.2,44.4,64.4,43.2,64.4,40.9z M62.2,41c0,1-0.4,1.4-1.1,1.4S59.9,42,59.9,41v-7.6c0-1,0.4-1.4,1.1-1.4s1.1,0.4,1.1,1.4V41z"
					/>
				<path fill="#41AEB5" d="M72.3,40.9v-7.3c0-2.2-1.2-3.5-3.3-3.5c-2.2,0-3.3,1.3-3.3,3.5v7.3c0,2.2,1.2,3.5,3.3,3.5
					C71.1,44.4,72.3,43.2,72.3,40.9z M70.1,41c0,1-0.4,1.4-1.1,1.4S67.8,42,67.8,41v-7.6c0-1,0.4-1.4,1.1-1.4s1.1,0.4,1.1,1.4V41z"
					/>
			</g>
		</g>
	</g>
</g>
<g id="ICONS_-_SKRILL_PURPLE">
	<g>
		<g>
			<g>
				<path fill="#811E68" d="M18.5,73.2c-2.2,0-3.3,1.3-3.3,3.5v0.8h2.1v-0.9c0-1,0.4-1.4,1.1-1.4s1.1,0.3,1.1,1.6v0.8
					c0,1.1-0.5,1.5-1.3,1.5h-0.9v2h0.7c1,0,1.4,0.5,1.4,1.8v1.1c0,1.2-0.4,1.6-1.1,1.6s-1.1-0.4-1.1-1.4v-1.3h-2.1V84
					c0,2.2,1.1,3.5,3.3,3.5c2.2,0,3.3-1.3,3.3-3.5v-1.1c0-1.4-0.4-2.5-1.5-2.9c1.1-0.4,1.5-1.4,1.5-2.9v-0.4
					C21.8,74.5,20.7,73.2,18.5,73.2z"/>
				<path fill="#811E68" d="M27.4,78.2c-1,0-1.7,0.4-2,1.2v-2.6c0-1.3,0.4-1.7,1.2-1.7c0.7,0,1.1,0.4,1.1,1.4v0.5h2.1v-0.4
					c0-2.2-1.1-3.5-3.3-3.5c-2.3,0-3.4,1.3-3.4,3.6V84c0,2.2,1.2,3.5,3.3,3.5s3.3-1.3,3.3-3.5v-2.6C29.8,79.4,29,78.2,27.4,78.2z
					 M27.6,84.1c0,1-0.4,1.4-1.1,1.4c-0.7,0-1.1-0.4-1.1-1.4v-2.5c0-1,0.4-1.4,1.1-1.4c0.7,0,1.1,0.4,1.1,1.4V84.1z"/>
				<polygon fill="#811E68" points="31.2,87.4 32,87.4 31.5,89.4 32.4,89.4 33.3,87.1 33.3,85.2 31.2,85.2 				"/>
				<path fill="#811E68" d="M38.1,73.2c-2.2,0-3.3,1.3-3.3,3.5V84c0,2.2,1.2,3.5,3.3,3.5s3.3-1.3,3.3-3.5v-7.3
					C41.4,74.5,40.2,73.2,38.1,73.2z M39.2,84.1c0,1-0.4,1.4-1.1,1.4c-0.7,0-1.1-0.4-1.1-1.4v-7.6c0-1,0.4-1.4,1.1-1.4
					c0.7,0,1.1,0.4,1.1,1.4V84.1z"/>
				<path fill="#811E68" d="M46,73.2c-2.2,0-3.3,1.3-3.3,3.5V84c0,2.2,1.2,3.5,3.3,3.5s3.3-1.3,3.3-3.5v-7.3
					C49.4,74.5,48.2,73.2,46,73.2z M47.2,84.1c0,1-0.4,1.4-1.1,1.4c-0.7,0-1.1-0.4-1.1-1.4v-7.6c0-1,0.4-1.4,1.1-1.4
					c0.7,0,1.1,0.4,1.1,1.4V84.1z"/>
				<path fill="#811E68" d="M53.9,73.2c-2.2,0-3.3,1.3-3.3,3.5V84c0,2.2,1.2,3.5,3.3,3.5s3.3-1.3,3.3-3.5v-7.3
					C57.3,74.5,56.1,73.2,53.9,73.2z M55.1,84.1c0,1-0.4,1.4-1.1,1.4c-0.7,0-1.1-0.4-1.1-1.4v-7.6c0-1,0.4-1.4,1.1-1.4
					c0.7,0,1.1,0.4,1.1,1.4V84.1z"/>
				<polygon fill="#811E68" points="58.7,87.4 59.5,87.4 58.9,89.4 59.8,89.4 60.8,87.1 60.8,85.2 58.7,85.2 				"/>
				<path fill="#811E68" d="M65.6,73.2c-2.2,0-3.3,1.3-3.3,3.5V84c0,2.2,1.2,3.5,3.3,3.5c2.2,0,3.3-1.3,3.3-3.5v-7.3
					C68.9,74.5,67.7,73.2,65.6,73.2z M66.7,84.1c0,1-0.4,1.4-1.1,1.4c-0.7,0-1.1-0.4-1.1-1.4v-7.6c0-1,0.4-1.4,1.1-1.4
					c0.7,0,1.1,0.4,1.1,1.4V84.1z"/>
				<path fill="#811E68" d="M73.5,73.2c-2.2,0-3.3,1.3-3.3,3.5V84c0,2.2,1.2,3.5,3.3,3.5c2.2,0,3.3-1.3,3.3-3.5v-7.3
					C76.8,74.5,75.7,73.2,73.5,73.2z M74.6,84.1c0,1-0.4,1.4-1.1,1.4c-0.7,0-1.1-0.4-1.1-1.4v-7.6c0-1,0.4-1.4,1.1-1.4
					c0.7,0,1.1,0.4,1.1,1.4V84.1z"/>
				<path fill="#811E68" d="M81.4,73.2c-2.2,0-3.3,1.3-3.3,3.5V84c0,2.2,1.2,3.5,3.3,3.5c2.2,0,3.3-1.3,3.3-3.5v-7.3
					C84.8,74.5,83.6,73.2,81.4,73.2z M82.5,84.1c0,1-0.4,1.4-1.1,1.4c-0.7,0-1.1-0.4-1.1-1.4v-7.6c0-1,0.4-1.4,1.1-1.4
					c0.7,0,1.1,0.4,1.1,1.4V84.1z"/>
				<g>
					<path fill="#811E68" d="M58.5,66.4c0-1.6-0.5-3.1-1.5-4.1c-0.6-0.7-1.4-1.2-2.3-1.4l-0.1,0l0.1-0.1c1.3-0.6,2.2-1.8,2.2-3.3
						c0-2-1.6-3.6-3.6-3.6c-1.3,0-2.5,0.7-3.1,1.8l0,0l-0.1,0c-0.1,0-0.1,0-0.2,0l-0.1,0l0,0C49.2,54.7,48,54,46.7,54
						c-2,0-3.6,1.6-3.6,3.6c0,1.4,0.9,2.7,2.2,3.3l0.1,0.1l-0.1,0c-0.9,0.2-1.7,0.7-2.3,1.4c-1,1-1.5,2.5-1.5,4.1
						c0,0.1,0,0.2,0.1,0.2c0.1,0.1,0.1,0.1,0.2,0.1h3.2l0,0.1c-0.1,0.5-0.2,1-0.2,1.5c0,0.1,0,0.2,0.1,0.2c0.1,0.1,0.1,0.1,0.2,0.1
						h9.7c0.1,0,0.2,0,0.2-0.1c0.1-0.1,0.1-0.1,0.1-0.2c0-0.5-0.1-1-0.2-1.5l0-0.1h3.1c0.1,0,0.2,0,0.2-0.1
						C58.5,66.6,58.5,66.5,58.5,66.4z M50.9,55.9c0.1-0.1,0.2-0.3,0.3-0.4c0.5-0.5,1.3-0.9,2.1-0.9c0.8,0,1.5,0.3,2.1,0.9
						c0.5,0.5,0.9,1.3,0.9,2.1c0,0.8-0.3,1.5-0.9,2.1c-0.5,0.5-1.1,0.8-1.8,0.8l-0.1,0l0-0.1c0.1-0.3,0.1-0.7,0.1-1
						C53.6,57.7,52.5,56.3,50.9,55.9L50.9,55.9L50.9,55.9z M50.1,56.5c0.8,0,1.5,0.3,2.1,0.9c0.5,0.5,0.9,1.3,0.9,2.1
						c0,0.8-0.3,1.5-0.9,2.1c-0.5,0.5-1.3,0.9-2.1,0.9c-0.8,0-1.5-0.3-2.1-0.9c-0.5-0.5-0.9-1.3-0.9-2.1c0-0.8,0.3-1.5,0.9-2.1
						C48.6,56.8,49.3,56.5,50.1,56.5z M44.6,59.6c-0.5-0.5-0.9-1.3-0.9-2.1c0-0.8,0.3-1.5,0.9-2.1c0.5-0.5,1.3-0.9,2.1-0.9
						c0.8,0,1.5,0.3,2.1,0.9c0.1,0.1,0.2,0.3,0.3,0.4l0,0.1l-0.1,0c-1.5,0.4-2.5,1.8-2.5,3.4c0,0.3,0,0.7,0.1,1l0,0.1l-0.1,0
						C45.9,60.4,45.2,60.1,44.6,59.6z M45.2,66.1h-3.1l0,0c0.1-1.3,0.5-2.4,1.3-3.3c0.8-0.9,2-1.4,3.2-1.4c0.1,0,0.3,0,0.4,0l0,0
						l0,0c0.4,0.6,0.9,1,1.6,1.2l0.1,0.1l-0.1,0c-0.9,0.2-1.7,0.7-2.3,1.4C45.9,64.7,45.5,65.3,45.2,66.1L45.2,66.1z M45.6,67.9
						L45.6,67.9c0.1-1.4,0.5-2.5,1.3-3.3c0.8-0.9,2-1.4,3.2-1.4c1.2,0,2.4,0.5,3.2,1.4c0.8,0.8,1.2,2,1.3,3.3l0,0H45.6z M54.9,66.1
						L54.9,66.1c-0.3-0.8-0.7-1.4-1.2-1.9c-0.6-0.7-1.4-1.2-2.3-1.4l-0.1,0l0.1-0.1c0.6-0.3,1.2-0.7,1.6-1.3l0,0l0.1,0
						c0.1,0,0.2,0,0.2,0c1.2,0,2.4,0.5,3.2,1.4c0.8,0.8,1.2,2,1.3,3.3l0,0H54.9z"/>
				</g>
				<g>
					<path fill="#811E68" d="M41.8,23.7h2.8l0.1-0.6c0.7-2.5,2.7-3.5,3.4-3.8c0.2,0.1,0.3,0.2,0.5,0.3l0.1,0.1l-0.1,0
						c-0.9,0.2-1.7,0.7-2.3,1.4c-0.5,0.5-0.9,1.2-1.1,1.9l0,0l-0.2,0.7l0,0.1c-0.1,0.5-0.2,1-0.2,1.5c0,0.1,0,0.2,0.1,0.2
						c0.1,0.1,0.1,0.1,0.2,0.1h9.7c0.1,0,0.2,0,0.2-0.1c0.1-0.1,0.1-0.1,0.1-0.2c0-0.5-0.1-1-0.2-1.5l0-0.1L54.9,23l0,0
						c-0.3-0.7-0.6-1.4-1.1-1.9c-0.6-0.7-1.4-1.2-2.3-1.4l-0.1,0l0.1-0.1c0.2-0.1,0.4-0.2,0.5-0.3c0.7,0.3,2.7,1.3,3.4,3.7
						c0,0.1,0,0.1,0,0.2l0.1,0.5h2.6c0.1,0,0.2,0,0.2-0.1c0.1-0.1,0.1-0.1,0.1-0.2c0-1.6-0.5-3.1-1.5-4.1c-0.6-0.7-1.4-1.2-2.3-1.4
						l-0.1,0l0.1-0.1c1.3-0.6,2.2-1.8,2.2-3.3c0-2-1.6-3.6-3.6-3.6c-1.3,0-2.5,0.7-3.1,1.8l0,0l-0.1,0c-0.1,0-0.1,0-0.2,0l-0.1,0
						l0,0c-0.6-1.1-1.8-1.8-3.1-1.8c-2,0-3.6,1.6-3.6,3.6c0,1.4,0.9,2.7,2.2,3.3l0.1,0.1l-0.1,0c-0.9,0.2-1.7,0.7-2.3,1.4
						c-1,1-1.5,2.5-1.5,4.1c0,0.1,0,0.2,0.1,0.2C41.7,23.7,41.7,23.7,41.8,23.7z M51.5,20.4l-0.6,4.5h-1.6l-0.6-4.5
						c0.2-0.1,0.4-0.1,0.7-0.2l0.4,0.7l-0.4,1.7l0.8,1.3l0-0.1l0,0l0,0.1l0.8-1.3L50.5,21l0.4-0.7C51.1,20.3,51.3,20.3,51.5,20.4z
						 M50.9,12.8c0.1-0.1,0.2-0.3,0.3-0.4c0.5-0.5,1.3-0.9,2.1-0.9c0.8,0,1.5,0.3,2.1,0.9c0.5,0.5,0.9,1.3,0.9,2.1
						c0,0.8-0.3,1.5-0.9,2.1c-0.5,0.5-1.1,0.8-1.8,0.8l-0.1,0l0-0.1c0.1-0.3,0.1-0.7,0.1-1C53.6,14.7,52.5,13.3,50.9,12.8L50.9,12.8
						L50.9,12.8z M50.1,13.4c0.8,0,1.5,0.3,2.1,0.9c0.5,0.5,0.9,1.3,0.9,2.1c0,0.8-0.3,1.5-0.9,2.1c-0.5,0.5-1.3,0.9-2.1,0.9
						c-0.8,0-1.5-0.3-2.1-0.9c-0.5-0.5-0.9-1.3-0.9-2.1c0-0.8,0.3-1.5,0.9-2.1C48.6,13.7,49.3,13.4,50.1,13.4z M44.6,16.5
						c-0.5-0.5-0.9-1.3-0.9-2.1c0-0.8,0.3-1.5,0.9-2.1c0.5-0.5,1.3-0.9,2.1-0.9c0.8,0,1.5,0.3,2.1,0.9c0.1,0.1,0.2,0.3,0.3,0.4
						l0,0.1l-0.1,0c-1.5,0.4-2.5,1.8-2.5,3.4c0,0.3,0,0.7,0.1,1l0,0.1l-0.1,0C45.9,17.4,45.2,17.1,44.6,16.5z"/>
				</g>
				<g>
					<path fill="#811E68" d="M28,44.3h2.2v-14h-1.5C28.3,31.2,28,32,26.3,32v1.6H28V44.3z"/>
					<path fill="#811E68" d="M38.3,40.9v-3.1c0-2.1-0.8-3.2-2.4-3.2c-0.9,0-1.5,0.4-1.9,1l0.2-3.3h3.8v-2h-5.8l-0.4,8.1h2.1V38
						c0-1,0.4-1.4,1.1-1.4s1.1,0.4,1.1,1.4V41c0,1-0.4,1.4-1.1,1.4S33.8,42,33.8,41v-1.3h-2.1v1.2c0,2.2,1.1,3.5,3.3,3.5
						C37.2,44.4,38.3,43.2,38.3,40.9z"/>
					<path fill="#811E68" d="M46.3,40.9v-2.6c0-2.1-0.8-3.2-2.4-3.2c-1,0-1.7,0.4-2,1.2v-2.6c0-1.3,0.4-1.7,1.2-1.7
						c0.7,0,1.1,0.4,1.1,1.4V34h2.1v-0.4c0-2.2-1.1-3.5-3.3-3.5c-2.3,0-3.4,1.3-3.4,3.6v7.2c0,2.2,1.2,3.5,3.3,3.5
						C45.1,44.4,46.3,43.2,46.3,40.9z M44.1,41c0,1-0.4,1.4-1.1,1.4S41.8,42,41.8,41v-2.5c0-1,0.4-1.4,1.1-1.4s1.1,0.4,1.1,1.4V41z"
						/>
					<polygon fill="#811E68" points="48.8,46.3 49.8,44.1 49.8,42.2 47.7,42.2 47.7,44.3 48.5,44.3 47.9,46.3 					"/>
					<path fill="#811E68" d="M54.5,30.1c-2.2,0-3.3,1.3-3.3,3.5v7.3c0,2.2,1.2,3.5,3.3,3.5c2.2,0,3.3-1.3,3.3-3.5v-7.3
						C57.9,31.4,56.7,30.1,54.5,30.1z M55.7,41c0,1-0.4,1.4-1.1,1.4S53.4,42,53.4,41v-7.6c0-1,0.4-1.4,1.1-1.4s1.1,0.4,1.1,1.4V41z"
						/>
					<path fill="#811E68" d="M65.8,40.9v-7.3c0-2.2-1.2-3.5-3.3-3.5c-2.2,0-3.3,1.3-3.3,3.5v7.3c0,2.2,1.2,3.5,3.3,3.5
						C64.6,44.4,65.8,43.2,65.8,40.9z M63.6,41c0,1-0.4,1.4-1.1,1.4S61.3,42,61.3,41v-7.6c0-1,0.4-1.4,1.1-1.4s1.1,0.4,1.1,1.4V41z"
						/>
					<path fill="#811E68" d="M73.7,40.9v-7.3c0-2.2-1.2-3.5-3.3-3.5c-2.2,0-3.3,1.3-3.3,3.5v7.3c0,2.2,1.2,3.5,3.3,3.5
						C72.5,44.4,73.7,43.2,73.7,40.9z M71.5,41c0,1-0.4,1.4-1.1,1.4S69.2,42,69.2,41v-7.6c0-1,0.4-1.4,1.1-1.4s1.1,0.4,1.1,1.4V41z"
						/>
				</g>
			</g>
		</g>
	</g>
</g>
<g id="ICONS_-_WHITE" display="none">
	<g display="inline">
		<g>
			<g>
				<path fill="#FFFFFF" d="M18.5,73.2c-2.2,0-3.3,1.3-3.3,3.5v0.8h2.1v-0.9c0-1,0.4-1.4,1.1-1.4s1.1,0.3,1.1,1.6v0.8
					c0,1.1-0.5,1.5-1.3,1.5h-0.9v2h0.7c1,0,1.4,0.5,1.4,1.8v1.1c0,1.2-0.4,1.6-1.1,1.6s-1.1-0.4-1.1-1.4v-1.3h-2.1V84
					c0,2.2,1.1,3.5,3.3,3.5c2.2,0,3.3-1.3,3.3-3.5v-1.1c0-1.4-0.4-2.5-1.5-2.9c1.1-0.4,1.5-1.4,1.5-2.9v-0.4
					C21.8,74.5,20.7,73.2,18.5,73.2z"/>
				<path fill="#FFFFFF" d="M27.4,78.2c-1,0-1.7,0.4-2,1.2v-2.6c0-1.3,0.4-1.7,1.2-1.7c0.7,0,1.1,0.4,1.1,1.4v0.5h2.1v-0.4
					c0-2.2-1.1-3.5-3.3-3.5c-2.3,0-3.4,1.3-3.4,3.6V84c0,2.2,1.2,3.5,3.3,3.5s3.3-1.3,3.3-3.5v-2.6C29.8,79.4,29,78.2,27.4,78.2z
					 M27.6,84.1c0,1-0.4,1.4-1.1,1.4c-0.7,0-1.1-0.4-1.1-1.4v-2.5c0-1,0.4-1.4,1.1-1.4c0.7,0,1.1,0.4,1.1,1.4V84.1z"/>
				<polygon fill="#FFFFFF" points="31.2,87.4 32,87.4 31.5,89.4 32.4,89.4 33.3,87.1 33.3,85.2 31.2,85.2 				"/>
				<path fill="#FFFFFF" d="M38.1,73.2c-2.2,0-3.3,1.3-3.3,3.5V84c0,2.2,1.2,3.5,3.3,3.5s3.3-1.3,3.3-3.5v-7.3
					C41.4,74.5,40.2,73.2,38.1,73.2z M39.2,84.1c0,1-0.4,1.4-1.1,1.4c-0.7,0-1.1-0.4-1.1-1.4v-7.6c0-1,0.4-1.4,1.1-1.4
					c0.7,0,1.1,0.4,1.1,1.4V84.1z"/>
				<path fill="#FFFFFF" d="M46,73.2c-2.2,0-3.3,1.3-3.3,3.5V84c0,2.2,1.2,3.5,3.3,3.5s3.3-1.3,3.3-3.5v-7.3
					C49.4,74.5,48.2,73.2,46,73.2z M47.2,84.1c0,1-0.4,1.4-1.1,1.4c-0.7,0-1.1-0.4-1.1-1.4v-7.6c0-1,0.4-1.4,1.1-1.4
					c0.7,0,1.1,0.4,1.1,1.4V84.1z"/>
				<path fill="#FFFFFF" d="M53.9,73.2c-2.2,0-3.3,1.3-3.3,3.5V84c0,2.2,1.2,3.5,3.3,3.5s3.3-1.3,3.3-3.5v-7.3
					C57.3,74.5,56.1,73.2,53.9,73.2z M55.1,84.1c0,1-0.4,1.4-1.1,1.4c-0.7,0-1.1-0.4-1.1-1.4v-7.6c0-1,0.4-1.4,1.1-1.4
					c0.7,0,1.1,0.4,1.1,1.4V84.1z"/>
				<polygon fill="#FFFFFF" points="58.7,87.4 59.5,87.4 58.9,89.4 59.8,89.4 60.8,87.1 60.8,85.2 58.7,85.2 				"/>
				<path fill="#FFFFFF" d="M65.6,73.2c-2.2,0-3.3,1.3-3.3,3.5V84c0,2.2,1.2,3.5,3.3,3.5c2.2,0,3.3-1.3,3.3-3.5v-7.3
					C68.9,74.5,67.7,73.2,65.6,73.2z M66.7,84.1c0,1-0.4,1.4-1.1,1.4c-0.7,0-1.1-0.4-1.1-1.4v-7.6c0-1,0.4-1.4,1.1-1.4
					c0.7,0,1.1,0.4,1.1,1.4V84.1z"/>
				<path fill="#FFFFFF" d="M73.5,73.2c-2.2,0-3.3,1.3-3.3,3.5V84c0,2.2,1.2,3.5,3.3,3.5c2.2,0,3.3-1.3,3.3-3.5v-7.3
					C76.8,74.5,75.7,73.2,73.5,73.2z M74.6,84.1c0,1-0.4,1.4-1.1,1.4c-0.7,0-1.1-0.4-1.1-1.4v-7.6c0-1,0.4-1.4,1.1-1.4
					c0.7,0,1.1,0.4,1.1,1.4V84.1z"/>
				<path fill="#FFFFFF" d="M81.4,73.2c-2.2,0-3.3,1.3-3.3,3.5V84c0,2.2,1.2,3.5,3.3,3.5c2.2,0,3.3-1.3,3.3-3.5v-7.3
					C84.8,74.5,83.6,73.2,81.4,73.2z M82.5,84.1c0,1-0.4,1.4-1.1,1.4c-0.7,0-1.1-0.4-1.1-1.4v-7.6c0-1,0.4-1.4,1.1-1.4
					c0.7,0,1.1,0.4,1.1,1.4V84.1z"/>
				<g>
					<path fill="#FFFFFF" d="M58.5,66.4c0-1.6-0.5-3.1-1.5-4.1c-0.6-0.7-1.4-1.2-2.3-1.4l-0.1,0l0.1-0.1c1.3-0.6,2.2-1.8,2.2-3.3
						c0-2-1.6-3.6-3.6-3.6c-1.3,0-2.5,0.7-3.1,1.8l0,0l-0.1,0c-0.1,0-0.1,0-0.2,0l-0.1,0l0,0C49.2,54.7,48,54,46.7,54
						c-2,0-3.6,1.6-3.6,3.6c0,1.4,0.9,2.7,2.2,3.3l0.1,0.1l-0.1,0c-0.9,0.2-1.7,0.7-2.3,1.4c-1,1-1.5,2.5-1.5,4.1
						c0,0.1,0,0.2,0.1,0.2c0.1,0.1,0.1,0.1,0.2,0.1h3.2l0,0.1c-0.1,0.5-0.2,1-0.2,1.5c0,0.1,0,0.2,0.1,0.2c0.1,0.1,0.1,0.1,0.2,0.1
						h9.7c0.1,0,0.2,0,0.2-0.1c0.1-0.1,0.1-0.1,0.1-0.2c0-0.5-0.1-1-0.2-1.5l0-0.1h3.1c0.1,0,0.2,0,0.2-0.1
						C58.5,66.6,58.5,66.5,58.5,66.4z M50.9,55.9c0.1-0.1,0.2-0.3,0.3-0.4c0.5-0.5,1.3-0.9,2.1-0.9c0.8,0,1.5,0.3,2.1,0.9
						c0.5,0.5,0.9,1.3,0.9,2.1c0,0.8-0.3,1.5-0.9,2.1c-0.5,0.5-1.1,0.8-1.8,0.8l-0.1,0l0-0.1c0.1-0.3,0.1-0.7,0.1-1
						C53.6,57.7,52.5,56.3,50.9,55.9L50.9,55.9L50.9,55.9z M50.1,56.5c0.8,0,1.5,0.3,2.1,0.9c0.5,0.5,0.9,1.3,0.9,2.1
						c0,0.8-0.3,1.5-0.9,2.1c-0.5,0.5-1.3,0.9-2.1,0.9c-0.8,0-1.5-0.3-2.1-0.9c-0.5-0.5-0.9-1.3-0.9-2.1c0-0.8,0.3-1.5,0.9-2.1
						C48.6,56.8,49.3,56.5,50.1,56.5z M44.6,59.6c-0.5-0.5-0.9-1.3-0.9-2.1c0-0.8,0.3-1.5,0.9-2.1c0.5-0.5,1.3-0.9,2.1-0.9
						c0.8,0,1.5,0.3,2.1,0.9c0.1,0.1,0.2,0.3,0.3,0.4l0,0.1l-0.1,0c-1.5,0.4-2.5,1.8-2.5,3.4c0,0.3,0,0.7,0.1,1l0,0.1l-0.1,0
						C45.9,60.4,45.2,60.1,44.6,59.6z M45.2,66.1h-3.1l0,0c0.1-1.3,0.5-2.4,1.3-3.3c0.8-0.9,2-1.4,3.2-1.4c0.1,0,0.3,0,0.4,0l0,0
						l0,0c0.4,0.6,0.9,1,1.6,1.2l0.1,0.1l-0.1,0c-0.9,0.2-1.7,0.7-2.3,1.4C45.9,64.7,45.5,65.3,45.2,66.1L45.2,66.1z M45.6,67.9
						L45.6,67.9c0.1-1.4,0.5-2.5,1.3-3.3c0.8-0.9,2-1.4,3.2-1.4c1.2,0,2.4,0.5,3.2,1.4c0.8,0.8,1.2,2,1.3,3.3l0,0H45.6z M54.9,66.1
						L54.9,66.1c-0.3-0.8-0.7-1.4-1.2-1.9c-0.6-0.7-1.4-1.2-2.3-1.4l-0.1,0l0.1-0.1c0.6-0.3,1.2-0.7,1.6-1.3l0,0l0.1,0
						c0.1,0,0.2,0,0.2,0c1.2,0,2.4,0.5,3.2,1.4c0.8,0.8,1.2,2,1.3,3.3l0,0H54.9z"/>
				</g>
				<g>
					<path fill="#FFFFFF" d="M41.8,23.7h2.8l0.1-0.6c0.7-2.5,2.7-3.5,3.4-3.8c0.2,0.1,0.3,0.2,0.5,0.3l0.1,0.1l-0.1,0
						c-0.9,0.2-1.7,0.7-2.3,1.4c-0.5,0.5-0.9,1.2-1.1,1.9l0,0l-0.2,0.7l0,0.1c-0.1,0.5-0.2,1-0.2,1.5c0,0.1,0,0.2,0.1,0.2
						c0.1,0.1,0.1,0.1,0.2,0.1h9.7c0.1,0,0.2,0,0.2-0.1c0.1-0.1,0.1-0.1,0.1-0.2c0-0.5-0.1-1-0.2-1.5l0-0.1L54.9,23l0,0
						c-0.3-0.7-0.6-1.4-1.1-1.9c-0.6-0.7-1.4-1.2-2.3-1.4l-0.1,0l0.1-0.1c0.2-0.1,0.4-0.2,0.5-0.3c0.7,0.3,2.7,1.3,3.4,3.7
						c0,0.1,0,0.1,0,0.2l0.1,0.5h2.6c0.1,0,0.2,0,0.2-0.1c0.1-0.1,0.1-0.1,0.1-0.2c0-1.6-0.5-3.1-1.5-4.1c-0.6-0.7-1.4-1.2-2.3-1.4
						l-0.1,0l0.1-0.1c1.3-0.6,2.2-1.8,2.2-3.3c0-2-1.6-3.6-3.6-3.6c-1.3,0-2.5,0.7-3.1,1.8l0,0l-0.1,0c-0.1,0-0.1,0-0.2,0l-0.1,0
						l0,0c-0.6-1.1-1.8-1.8-3.1-1.8c-2,0-3.6,1.6-3.6,3.6c0,1.4,0.9,2.7,2.2,3.3l0.1,0.1l-0.1,0c-0.9,0.2-1.7,0.7-2.3,1.4
						c-1,1-1.5,2.5-1.5,4.1c0,0.1,0,0.2,0.1,0.2C41.7,23.7,41.7,23.7,41.8,23.7z M51.5,20.4l-0.6,4.5h-1.6l-0.6-4.5
						c0.2-0.1,0.4-0.1,0.7-0.2l0.4,0.7l-0.4,1.7l0.8,1.3l0-0.1l0,0l0,0.1l0.8-1.3L50.5,21l0.4-0.7C51.1,20.3,51.3,20.3,51.5,20.4z
						 M50.9,12.8c0.1-0.1,0.2-0.3,0.3-0.4c0.5-0.5,1.3-0.9,2.1-0.9c0.8,0,1.5,0.3,2.1,0.9c0.5,0.5,0.9,1.3,0.9,2.1
						c0,0.8-0.3,1.5-0.9,2.1c-0.5,0.5-1.1,0.8-1.8,0.8l-0.1,0l0-0.1c0.1-0.3,0.1-0.7,0.1-1C53.6,14.7,52.5,13.3,50.9,12.8L50.9,12.8
						L50.9,12.8z M50.1,13.4c0.8,0,1.5,0.3,2.1,0.9c0.5,0.5,0.9,1.3,0.9,2.1c0,0.8-0.3,1.5-0.9,2.1c-0.5,0.5-1.3,0.9-2.1,0.9
						c-0.8,0-1.5-0.3-2.1-0.9c-0.5-0.5-0.9-1.3-0.9-2.1c0-0.8,0.3-1.5,0.9-2.1C48.6,13.7,49.3,13.4,50.1,13.4z M44.6,16.5
						c-0.5-0.5-0.9-1.3-0.9-2.1c0-0.8,0.3-1.5,0.9-2.1c0.5-0.5,1.3-0.9,2.1-0.9c0.8,0,1.5,0.3,2.1,0.9c0.1,0.1,0.2,0.3,0.3,0.4
						l0,0.1l-0.1,0c-1.5,0.4-2.5,1.8-2.5,3.4c0,0.3,0,0.7,0.1,1l0,0.1l-0.1,0C45.9,17.4,45.2,17.1,44.6,16.5z"/>
				</g>
				<path fill="#FFFFFF" d="M26.5,44.3h2.2v-14h-1.5c-0.3,0.9-0.7,1.8-2.4,1.8v1.6h1.7V44.3z"/>
				<path fill="#FFFFFF" d="M36.9,40.9v-3.1c0-2.1-0.8-3.2-2.4-3.2c-0.9,0-1.5,0.4-1.9,1l0.2-3.3h3.8v-2h-5.8l-0.4,8.1h2.1V38
					c0-1,0.4-1.4,1.1-1.4s1.1,0.4,1.1,1.4V41c0,1-0.4,1.4-1.1,1.4S32.4,42,32.4,41v-1.3h-2.1v1.2c0,2.2,1.1,3.5,3.3,3.5
					C35.7,44.4,36.9,43.2,36.9,40.9z"/>
				<path fill="#FFFFFF" d="M44.9,40.9v-2.6c0-2.1-0.8-3.2-2.4-3.2c-1,0-1.7,0.4-2,1.2v-2.6c0-1.3,0.4-1.7,1.2-1.7
					c0.7,0,1.1,0.4,1.1,1.4V34h2.1v-0.4c0-2.2-1.1-3.5-3.3-3.5c-2.3,0-3.4,1.3-3.4,3.6v7.2c0,2.2,1.2,3.5,3.3,3.5
					C43.7,44.4,44.9,43.2,44.9,40.9z M42.7,41c0,1-0.4,1.4-1.1,1.4S40.4,42,40.4,41v-2.5c0-1,0.4-1.4,1.1-1.4s1.1,0.4,1.1,1.4V41z"
					/>
				<polygon fill="#FFFFFF" points="47.4,46.3 48.4,44.1 48.4,42.2 46.2,42.2 46.2,44.3 47.1,44.3 46.5,46.3 				"/>
				<path fill="#FFFFFF" d="M53.1,30.1c-2.2,0-3.3,1.3-3.3,3.5v7.3c0,2.2,1.2,3.5,3.3,3.5c2.2,0,3.3-1.3,3.3-3.5v-7.3
					C56.5,31.4,55.3,30.1,53.1,30.1z M54.3,41c0,1-0.4,1.4-1.1,1.4S52,42,52,41v-7.6c0-1,0.4-1.4,1.1-1.4s1.1,0.4,1.1,1.4V41z"/>
				<path fill="#FFFFFF" d="M64.4,40.9v-7.3c0-2.2-1.2-3.5-3.3-3.5c-2.2,0-3.3,1.3-3.3,3.5v7.3c0,2.2,1.2,3.5,3.3,3.5
					C63.2,44.4,64.4,43.2,64.4,40.9z M62.2,41c0,1-0.4,1.4-1.1,1.4S59.9,42,59.9,41v-7.6c0-1,0.4-1.4,1.1-1.4s1.1,0.4,1.1,1.4V41z"
					/>
				<path fill="#FFFFFF" d="M72.3,40.9v-7.3c0-2.2-1.2-3.5-3.3-3.5c-2.2,0-3.3,1.3-3.3,3.5v7.3c0,2.2,1.2,3.5,3.3,3.5
					C71.1,44.4,72.3,43.2,72.3,40.9z M70.1,41c0,1-0.4,1.4-1.1,1.4S67.8,42,67.8,41v-7.6c0-1,0.4-1.4,1.1-1.4s1.1,0.4,1.1,1.4V41z"
					/>
			</g>
		</g>
	</g>
</g>
<g id="LABELS">
</g>
</svg>
