<?xml version="1.0" encoding="utf-8"?>
<!-- Generator: Adobe Illustrator 18.1.1, SVG Export Plug-In . SVG Version: 6.00 Build 0)  -->
<svg version="1.1" xmlns="http://www.w3.org/2000/svg" xmlns:xlink="http://www.w3.org/1999/xlink" x="0px" y="0px"
	 viewBox="0 0 100 100" enable-background="new 0 0 100 100" xml:space="preserve">
<g id="GUIDES">
</g>
<g id="ICONS_-_BLACK" display="none">
	<g display="inline">
		<g>
			<g>
				<path d="M51.7,15.1l0-1.6c0-0.6-0.5-1.2-1.1-1.2c-0.6,0-1.1,0.5-1.1,1.2v1.6l0,9.3v9.1L42,25.9c-0.4-0.4-1.1-0.4-1.6,0
					c-0.2,0.2-0.3,0.5-0.3,0.8c0,0.3,0.1,0.6,0.3,0.8l9.4,9.6c0.4,0.4,1.2,0.4,1.6,0l9.4-9.6c0.4-0.4,0.4-1.2,0-1.6
					c-0.4-0.4-1.2-0.4-1.6,0l-7.5,7.7l0-9.1L51.7,15.1z"/>
				<path d="M36,49.1h-6.8c-0.7,0-1.2,0.6-1.2,1.2s0.6,1.2,1.2,1.2H36c0.7,0,1.2-0.6,1.2-1.2S36.7,49.1,36,49.1z"/>
				<path d="M36,66.7h-6.8c-0.7,0-1.2,0.6-1.2,1.2s0.6,1.2,1.2,1.2H36c0.7,0,1.2-0.6,1.2-1.2S36.7,66.7,36,66.7z"/>
				<path d="M72.5,50.3c0-0.7-0.6-1.2-1.2-1.2h-6.8c-0.7,0-1.2,0.6-1.2,1.2s0.6,1.2,1.2,1.2h6.8C72,51.6,72.5,51,72.5,50.3z"/>
				<path d="M63.2,67.9c0,0.7,0.6,1.2,1.2,1.2h6.8c0.7,0,1.2-0.6,1.2-1.2s-0.6-1.2-1.2-1.2h-6.8C63.7,66.7,63.2,67.3,63.2,67.9z"/>
				<path d="M22.7,69.8c0.6,0,1.1-0.5,1.1-1.2l0-23.2h52.4v24.1h0c0,0,0,0,0,0c0,0.6,0.5,1.2,1.2,1.2s1.1-0.5,1.1-1.2l0-25.2
					c0-0.6-0.5-1.1-1.2-1.1H22.7c-0.6,0-1.2,0.5-1.2,1.1l0,24.3C21.5,69.3,22,69.8,22.7,69.8z"/>
				<path d="M77.3,66.3c-0.6,0-1.2,0.5-1.2,1.2c0,0,0,0,0,0h0v4.9H23.8l0-6c0-0.6-0.5-1.2-1.2-1.2c-0.6,0-1.2,0.5-1.2,1.2v7.2v11.6
					c0,0.6,0.5,1.1,1.2,1.1h54.7c0.6,0,1.2-0.5,1.2-1.1V73.5l0-6C78.5,66.9,78,66.3,77.3,66.3z M76.2,84.1H23.8v-3.3h52.3
					c0,0,0.1,0,0.1,0V84.1z M76.2,78.5c0,0-0.1,0-0.1,0H23.8v-3.8h52.4V78.5z"/>
				<path d="M49.7,69.2c0,0.5,0.4,1,1,1s1-0.4,1-1v-2v0c2.6-0.3,4.2-2,4.2-4.5c0-2.6-2.5-3.7-4.2-4.3v0v-4.6
					c1.5,0.4,1.8,1.7,1.8,1.8c0.1,0.5,0.5,0.8,0.9,0.8l0.1,0c0.3,0,0.5-0.2,0.6-0.4s0.2-0.5,0.2-0.7c0,0-0.5-3-3.7-3.5v0v-1.9
					c0-0.5-0.4-1-1-1s-1,0.4-1,1v1.9v0.1c-2.8,0.4-3.6,2.5-3.6,3.8c0,1.8,1.2,3.1,3.6,4.2v5.5c-1.6-0.4-2.2-1.8-2.2-2.1
					c0-0.5-0.4-1-1-1s-1,0.4-1,1c0,1.2,1.4,3.6,4.2,4v0.1V69.2z M51.6,65.2v-4.8c1.4,0.6,2.3,1.2,2.3,2.3
					C53.8,64.4,52.6,65,51.6,65.2z M49.7,53.6v3.9C48.2,56.8,48,56,48,55.5C48,55.2,48.1,54,49.7,53.6z"/>
			</g>
		</g>
	</g>
</g>
<g id="ICONS_-_DARK_PURPLE" display="none">
	<g display="inline">
		<g>
			<g>
				<path fill="#4F2556" d="M51.7,15.1l0-1.6c0-0.6-0.5-1.2-1.1-1.2c-0.6,0-1.1,0.5-1.1,1.2v1.6l0,9.3v9.1L42,25.9
					c-0.4-0.4-1.1-0.4-1.6,0c-0.2,0.2-0.3,0.5-0.3,0.8c0,0.3,0.1,0.6,0.3,0.8l9.4,9.6c0.4,0.4,1.2,0.4,1.6,0l9.4-9.6
					c0.4-0.4,0.4-1.2,0-1.6c-0.4-0.4-1.2-0.4-1.6,0l-7.5,7.7l0-9.1L51.7,15.1z"/>
				<path fill="#4F2556" d="M36,49.1h-6.8c-0.7,0-1.2,0.6-1.2,1.2s0.6,1.2,1.2,1.2H36c0.7,0,1.2-0.6,1.2-1.2S36.7,49.1,36,49.1z"/>
				<path fill="#4F2556" d="M36,66.7h-6.8c-0.7,0-1.2,0.6-1.2,1.2s0.6,1.2,1.2,1.2H36c0.7,0,1.2-0.6,1.2-1.2S36.7,66.7,36,66.7z"/>
				<path fill="#4F2556" d="M72.5,50.3c0-0.7-0.6-1.2-1.2-1.2h-6.8c-0.7,0-1.2,0.6-1.2,1.2s0.6,1.2,1.2,1.2h6.8
					C72,51.6,72.5,51,72.5,50.3z"/>
				<path fill="#4F2556" d="M63.2,67.9c0,0.7,0.6,1.2,1.2,1.2h6.8c0.7,0,1.2-0.6,1.2-1.2s-0.6-1.2-1.2-1.2h-6.8
					C63.7,66.7,63.2,67.3,63.2,67.9z"/>
				<path fill="#4F2556" d="M22.7,69.8c0.6,0,1.1-0.5,1.1-1.2l0-23.2h52.4v24.1h0c0,0,0,0,0,0c0,0.6,0.5,1.2,1.2,1.2
					s1.1-0.5,1.1-1.2l0-25.2c0-0.6-0.5-1.1-1.2-1.1H22.7c-0.6,0-1.2,0.5-1.2,1.1l0,24.3C21.5,69.3,22,69.8,22.7,69.8z"/>
				<path fill="#4F2556" d="M77.3,66.3c-0.6,0-1.2,0.5-1.2,1.2c0,0,0,0,0,0h0v4.9H23.8l0-6c0-0.6-0.5-1.2-1.2-1.2
					c-0.6,0-1.2,0.5-1.2,1.2v7.2v11.6c0,0.6,0.5,1.1,1.2,1.1h54.7c0.6,0,1.2-0.5,1.2-1.1V73.5l0-6C78.5,66.9,78,66.3,77.3,66.3z
					 M76.2,84.1H23.8v-3.3h52.3c0,0,0.1,0,0.1,0V84.1z M76.2,78.5c0,0-0.1,0-0.1,0H23.8v-3.8h52.4V78.5z"/>
				<path fill="#4F2556" d="M49.7,69.2c0,0.5,0.4,1,1,1s1-0.4,1-1v-2v0c2.6-0.3,4.2-2,4.2-4.5c0-2.6-2.5-3.7-4.2-4.3v0v-4.6
					c1.5,0.4,1.8,1.7,1.8,1.8c0.1,0.5,0.5,0.8,0.9,0.8l0.1,0c0.3,0,0.5-0.2,0.6-0.4s0.2-0.5,0.2-0.7c0,0-0.5-3-3.7-3.5v0v-1.9
					c0-0.5-0.4-1-1-1s-1,0.4-1,1v1.9v0.1c-2.8,0.4-3.6,2.5-3.6,3.8c0,1.8,1.2,3.1,3.6,4.2v5.5c-1.6-0.4-2.2-1.8-2.2-2.1
					c0-0.5-0.4-1-1-1s-1,0.4-1,1c0,1.2,1.4,3.6,4.2,4v0.1V69.2z M51.6,65.2v-4.8c1.4,0.6,2.3,1.2,2.3,2.3
					C53.8,64.4,52.6,65,51.6,65.2z M49.7,53.6v3.9C48.2,56.8,48,56,48,55.5C48,55.2,48.1,54,49.7,53.6z"/>
			</g>
		</g>
	</g>
</g>
<g id="ICONS_-_WARM_GREY" display="none">
	<g display="inline">
		<g>
			<g>
				<path fill="#534C63" d="M51.7,15.1l0-1.6c0-0.6-0.5-1.2-1.1-1.2c-0.6,0-1.1,0.5-1.1,1.2v1.6l0,9.3v9.1L42,25.9
					c-0.4-0.4-1.1-0.4-1.6,0c-0.2,0.2-0.3,0.5-0.3,0.8c0,0.3,0.1,0.6,0.3,0.8l9.4,9.6c0.4,0.4,1.2,0.4,1.6,0l9.4-9.6
					c0.4-0.4,0.4-1.2,0-1.6c-0.4-0.4-1.2-0.4-1.6,0l-7.5,7.7l0-9.1L51.7,15.1z"/>
				<path fill="#534C63" d="M36,49.1h-6.8c-0.7,0-1.2,0.6-1.2,1.2s0.6,1.2,1.2,1.2H36c0.7,0,1.2-0.6,1.2-1.2S36.7,49.1,36,49.1z"/>
				<path fill="#534C63" d="M36,66.7h-6.8c-0.7,0-1.2,0.6-1.2,1.2s0.6,1.2,1.2,1.2H36c0.7,0,1.2-0.6,1.2-1.2S36.7,66.7,36,66.7z"/>
				<path fill="#534C63" d="M72.5,50.3c0-0.7-0.6-1.2-1.2-1.2h-6.8c-0.7,0-1.2,0.6-1.2,1.2s0.6,1.2,1.2,1.2h6.8
					C72,51.6,72.5,51,72.5,50.3z"/>
				<path fill="#534C63" d="M63.2,67.9c0,0.7,0.6,1.2,1.2,1.2h6.8c0.7,0,1.2-0.6,1.2-1.2s-0.6-1.2-1.2-1.2h-6.8
					C63.7,66.7,63.2,67.3,63.2,67.9z"/>
				<path fill="#534C63" d="M22.7,69.8c0.6,0,1.1-0.5,1.1-1.2l0-23.2h52.4v24.1h0c0,0,0,0,0,0c0,0.6,0.5,1.2,1.2,1.2
					s1.1-0.5,1.1-1.2l0-25.2c0-0.6-0.5-1.1-1.2-1.1H22.7c-0.6,0-1.2,0.5-1.2,1.1l0,24.3C21.5,69.3,22,69.8,22.7,69.8z"/>
				<path fill="#534C63" d="M77.3,66.3c-0.6,0-1.2,0.5-1.2,1.2c0,0,0,0,0,0h0v4.9H23.8l0-6c0-0.6-0.5-1.2-1.2-1.2
					c-0.6,0-1.2,0.5-1.2,1.2v7.2v11.6c0,0.6,0.5,1.1,1.2,1.1h54.7c0.6,0,1.2-0.5,1.2-1.1V73.5l0-6C78.5,66.9,78,66.3,77.3,66.3z
					 M76.2,84.1H23.8v-3.3h52.3c0,0,0.1,0,0.1,0V84.1z M76.2,78.5c0,0-0.1,0-0.1,0H23.8v-3.8h52.4V78.5z"/>
				<path fill="#534C63" d="M49.7,69.2c0,0.5,0.4,1,1,1s1-0.4,1-1v-2v0c2.6-0.3,4.2-2,4.2-4.5c0-2.6-2.5-3.7-4.2-4.3v0v-4.6
					c1.5,0.4,1.8,1.7,1.8,1.8c0.1,0.5,0.5,0.8,0.9,0.8l0.1,0c0.3,0,0.5-0.2,0.6-0.4s0.2-0.5,0.2-0.7c0,0-0.5-3-3.7-3.5v0v-1.9
					c0-0.5-0.4-1-1-1s-1,0.4-1,1v1.9v0.1c-2.8,0.4-3.6,2.5-3.6,3.8c0,1.8,1.2,3.1,3.6,4.2v5.5c-1.6-0.4-2.2-1.8-2.2-2.1
					c0-0.5-0.4-1-1-1s-1,0.4-1,1c0,1.2,1.4,3.6,4.2,4v0.1V69.2z M51.6,65.2v-4.8c1.4,0.6,2.3,1.2,2.3,2.3
					C53.8,64.4,52.6,65,51.6,65.2z M49.7,53.6v3.9C48.2,56.8,48,56,48,55.5C48,55.2,48.1,54,49.7,53.6z"/>
			</g>
		</g>
	</g>
</g>
<g id="ICONS_-_SKRILL_TEAL" display="none">
	<g display="inline">
		<g>
			<g>
				<path fill="#41AEB5" d="M51.7,15.1l0-1.6c0-0.6-0.5-1.2-1.1-1.2c-0.6,0-1.1,0.5-1.1,1.2v1.6l0,9.3v9.1L42,25.9
					c-0.4-0.4-1.1-0.4-1.6,0c-0.2,0.2-0.3,0.5-0.3,0.8c0,0.3,0.1,0.6,0.3,0.8l9.4,9.6c0.4,0.4,1.2,0.4,1.6,0l9.4-9.6
					c0.4-0.4,0.4-1.2,0-1.6c-0.4-0.4-1.2-0.4-1.6,0l-7.5,7.7l0-9.1L51.7,15.1z"/>
				<path fill="#41AEB5" d="M36,49.1h-6.8c-0.7,0-1.2,0.6-1.2,1.2s0.6,1.2,1.2,1.2H36c0.7,0,1.2-0.6,1.2-1.2S36.7,49.1,36,49.1z"/>
				<path fill="#41AEB5" d="M36,66.7h-6.8c-0.7,0-1.2,0.6-1.2,1.2s0.6,1.2,1.2,1.2H36c0.7,0,1.2-0.6,1.2-1.2S36.7,66.7,36,66.7z"/>
				<path fill="#41AEB5" d="M72.5,50.3c0-0.7-0.6-1.2-1.2-1.2h-6.8c-0.7,0-1.2,0.6-1.2,1.2s0.6,1.2,1.2,1.2h6.8
					C72,51.6,72.5,51,72.5,50.3z"/>
				<path fill="#41AEB5" d="M63.2,67.9c0,0.7,0.6,1.2,1.2,1.2h6.8c0.7,0,1.2-0.6,1.2-1.2s-0.6-1.2-1.2-1.2h-6.8
					C63.7,66.7,63.2,67.3,63.2,67.9z"/>
				<path fill="#41AEB5" d="M22.7,69.8c0.6,0,1.1-0.5,1.1-1.2l0-23.2h52.4v24.1h0c0,0,0,0,0,0c0,0.6,0.5,1.2,1.2,1.2
					s1.1-0.5,1.1-1.2l0-25.2c0-0.6-0.5-1.1-1.2-1.1H22.7c-0.6,0-1.2,0.5-1.2,1.1l0,24.3C21.5,69.3,22,69.8,22.7,69.8z"/>
				<path fill="#41AEB5" d="M77.3,66.3c-0.6,0-1.2,0.5-1.2,1.2c0,0,0,0,0,0h0v4.9H23.8l0-6c0-0.6-0.5-1.2-1.2-1.2
					c-0.6,0-1.2,0.5-1.2,1.2v7.2v11.6c0,0.6,0.5,1.1,1.2,1.1h54.7c0.6,0,1.2-0.5,1.2-1.1V73.5l0-6C78.5,66.9,78,66.3,77.3,66.3z
					 M76.2,84.1H23.8v-3.3h52.3c0,0,0.1,0,0.1,0V84.1z M76.2,78.5c0,0-0.1,0-0.1,0H23.8v-3.8h52.4V78.5z"/>
				<path fill="#41AEB5" d="M49.7,69.2c0,0.5,0.4,1,1,1s1-0.4,1-1v-2v0c2.6-0.3,4.2-2,4.2-4.5c0-2.6-2.5-3.7-4.2-4.3v0v-4.6
					c1.5,0.4,1.8,1.7,1.8,1.8c0.1,0.5,0.5,0.8,0.9,0.8l0.1,0c0.3,0,0.5-0.2,0.6-0.4s0.2-0.5,0.2-0.7c0,0-0.5-3-3.7-3.5v0v-1.9
					c0-0.5-0.4-1-1-1s-1,0.4-1,1v1.9v0.1c-2.8,0.4-3.6,2.5-3.6,3.8c0,1.8,1.2,3.1,3.6,4.2v5.5c-1.6-0.4-2.2-1.8-2.2-2.1
					c0-0.5-0.4-1-1-1s-1,0.4-1,1c0,1.2,1.4,3.6,4.2,4v0.1V69.2z M51.6,65.2v-4.8c1.4,0.6,2.3,1.2,2.3,2.3
					C53.8,64.4,52.6,65,51.6,65.2z M49.7,53.6v3.9C48.2,56.8,48,56,48,55.5C48,55.2,48.1,54,49.7,53.6z"/>
			</g>
		</g>
	</g>
</g>
<g id="ICONS_-_SKRILL_PURPLE">
	<g>
		<g>
			<g>
				<path fill="#811E68" d="M51.7,15.1l0-1.6c0-0.6-0.5-1.2-1.1-1.2c-0.6,0-1.1,0.5-1.1,1.2v1.6l0,9.3v9.1L42,25.9
					c-0.4-0.4-1.1-0.4-1.6,0c-0.2,0.2-0.3,0.5-0.3,0.8c0,0.3,0.1,0.6,0.3,0.8l9.4,9.6c0.4,0.4,1.2,0.4,1.6,0l9.4-9.6
					c0.4-0.4,0.4-1.2,0-1.6c-0.4-0.4-1.2-0.4-1.6,0l-7.5,7.7l0-9.1L51.7,15.1z"/>
				<path fill="#811E68" d="M36,49.1h-6.8c-0.7,0-1.2,0.6-1.2,1.2s0.6,1.2,1.2,1.2H36c0.7,0,1.2-0.6,1.2-1.2S36.7,49.1,36,49.1z"/>
				<path fill="#811E68" d="M36,66.7h-6.8c-0.7,0-1.2,0.6-1.2,1.2s0.6,1.2,1.2,1.2H36c0.7,0,1.2-0.6,1.2-1.2S36.7,66.7,36,66.7z"/>
				<path fill="#811E68" d="M72.5,50.3c0-0.7-0.6-1.2-1.2-1.2h-6.8c-0.7,0-1.2,0.6-1.2,1.2s0.6,1.2,1.2,1.2h6.8
					C72,51.6,72.5,51,72.5,50.3z"/>
				<path fill="#811E68" d="M63.2,67.9c0,0.7,0.6,1.2,1.2,1.2h6.8c0.7,0,1.2-0.6,1.2-1.2s-0.6-1.2-1.2-1.2h-6.8
					C63.7,66.7,63.2,67.3,63.2,67.9z"/>
				<path fill="#811E68" d="M22.7,69.8c0.6,0,1.1-0.5,1.1-1.2l0-23.2h52.4v24.1h0c0,0,0,0,0,0c0,0.6,0.5,1.2,1.2,1.2
					s1.1-0.5,1.1-1.2l0-25.2c0-0.6-0.5-1.1-1.2-1.1H22.7c-0.6,0-1.2,0.5-1.2,1.1l0,24.3C21.5,69.3,22,69.8,22.7,69.8z"/>
				<path fill="#811E68" d="M77.3,66.3c-0.6,0-1.2,0.5-1.2,1.2c0,0,0,0,0,0h0v4.9H23.8l0-6c0-0.6-0.5-1.2-1.2-1.2
					c-0.6,0-1.2,0.5-1.2,1.2v7.2v11.6c0,0.6,0.5,1.1,1.2,1.1h54.7c0.6,0,1.2-0.5,1.2-1.1V73.5l0-6C78.5,66.9,78,66.3,77.3,66.3z
					 M76.2,84.1H23.8v-3.3h52.3c0,0,0.1,0,0.1,0V84.1z M76.2,78.5c0,0-0.1,0-0.1,0H23.8v-3.8h52.4V78.5z"/>
				<path fill="#811E68" d="M49.7,69.2c0,0.5,0.4,1,1,1s1-0.4,1-1v-2v0c2.6-0.3,4.2-2,4.2-4.5c0-2.6-2.5-3.7-4.2-4.3v0v-4.6
					c1.5,0.4,1.8,1.7,1.8,1.8c0.1,0.5,0.5,0.8,0.9,0.8l0.1,0c0.3,0,0.5-0.2,0.6-0.4s0.2-0.5,0.2-0.7c0,0-0.5-3-3.7-3.5v0v-1.9
					c0-0.5-0.4-1-1-1s-1,0.4-1,1v1.9v0.1c-2.8,0.4-3.6,2.5-3.6,3.8c0,1.8,1.2,3.1,3.6,4.2v5.5c-1.6-0.4-2.2-1.8-2.2-2.1
					c0-0.5-0.4-1-1-1s-1,0.4-1,1c0,1.2,1.4,3.6,4.2,4v0.1V69.2z M51.6,65.2v-4.8c1.4,0.6,2.3,1.2,2.3,2.3
					C53.8,64.4,52.6,65,51.6,65.2z M49.7,53.6v3.9C48.2,56.8,48,56,48,55.5C48,55.2,48.1,54,49.7,53.6z"/>
			</g>
		</g>
	</g>
</g>
<g id="ICONS_-_WHITE" display="none">
	<g display="inline">
		<g>
			<g>
				<path fill="#FFFFFF" d="M51.7,15.1l0-1.6c0-0.6-0.5-1.2-1.1-1.2c-0.6,0-1.1,0.5-1.1,1.2v1.6l0,9.3v9.1L42,25.9
					c-0.4-0.4-1.1-0.4-1.6,0c-0.2,0.2-0.3,0.5-0.3,0.8c0,0.3,0.1,0.6,0.3,0.8l9.4,9.6c0.4,0.4,1.2,0.4,1.6,0l9.4-9.6
					c0.4-0.4,0.4-1.2,0-1.6c-0.4-0.4-1.2-0.4-1.6,0l-7.5,7.7l0-9.1L51.7,15.1z"/>
				<path fill="#FFFFFF" d="M36,49.1h-6.8c-0.7,0-1.2,0.6-1.2,1.2s0.6,1.2,1.2,1.2H36c0.7,0,1.2-0.6,1.2-1.2S36.7,49.1,36,49.1z"/>
				<path fill="#FFFFFF" d="M36,66.7h-6.8c-0.7,0-1.2,0.6-1.2,1.2s0.6,1.2,1.2,1.2H36c0.7,0,1.2-0.6,1.2-1.2S36.7,66.7,36,66.7z"/>
				<path fill="#FFFFFF" d="M72.5,50.3c0-0.7-0.6-1.2-1.2-1.2h-6.8c-0.7,0-1.2,0.6-1.2,1.2s0.6,1.2,1.2,1.2h6.8
					C72,51.6,72.5,51,72.5,50.3z"/>
				<path fill="#FFFFFF" d="M63.2,67.9c0,0.7,0.6,1.2,1.2,1.2h6.8c0.7,0,1.2-0.6,1.2-1.2s-0.6-1.2-1.2-1.2h-6.8
					C63.7,66.7,63.2,67.3,63.2,67.9z"/>
				<path fill="#FFFFFF" d="M22.7,69.8c0.6,0,1.1-0.5,1.1-1.2l0-23.2h52.4v24.1h0c0,0,0,0,0,0c0,0.6,0.5,1.2,1.2,1.2
					s1.1-0.5,1.1-1.2l0-25.2c0-0.6-0.5-1.1-1.2-1.1H22.7c-0.6,0-1.2,0.5-1.2,1.1l0,24.3C21.5,69.3,22,69.8,22.7,69.8z"/>
				<path fill="#FFFFFF" d="M77.3,66.3c-0.6,0-1.2,0.5-1.2,1.2c0,0,0,0,0,0h0v4.9H23.8l0-6c0-0.6-0.5-1.2-1.2-1.2
					c-0.6,0-1.2,0.5-1.2,1.2v7.2v11.6c0,0.6,0.5,1.1,1.2,1.1h54.7c0.6,0,1.2-0.5,1.2-1.1V73.5l0-6C78.5,66.9,78,66.3,77.3,66.3z
					 M76.2,84.1H23.8v-3.3h52.3c0,0,0.1,0,0.1,0V84.1z M76.2,78.5c0,0-0.1,0-0.1,0H23.8v-3.8h52.4V78.5z"/>
				<path fill="#FFFFFF" d="M49.7,69.2c0,0.5,0.4,1,1,1s1-0.4,1-1v-2v0c2.6-0.3,4.2-2,4.2-4.5c0-2.6-2.5-3.7-4.2-4.3v0v-4.6
					c1.5,0.4,1.8,1.7,1.8,1.8c0.1,0.5,0.5,0.8,0.9,0.8l0.1,0c0.3,0,0.5-0.2,0.6-0.4s0.2-0.5,0.2-0.7c0,0-0.5-3-3.7-3.5v0v-1.9
					c0-0.5-0.4-1-1-1s-1,0.4-1,1v1.9v0.1c-2.8,0.4-3.6,2.5-3.6,3.8c0,1.8,1.2,3.1,3.6,4.2v5.5c-1.6-0.4-2.2-1.8-2.2-2.1
					c0-0.5-0.4-1-1-1s-1,0.4-1,1c0,1.2,1.4,3.6,4.2,4v0.1V69.2z M51.6,65.2v-4.8c1.4,0.6,2.3,1.2,2.3,2.3
					C53.8,64.4,52.6,65,51.6,65.2z M49.7,53.6v3.9C48.2,56.8,48,56,48,55.5C48,55.2,48.1,54,49.7,53.6z"/>
			</g>
		</g>
	</g>
</g>
<g id="LABELS">
</g>
</svg>
