<?xml version="1.0" encoding="utf-8"?>
<!-- Generator: Adobe Illustrator 18.1.1, SVG Export Plug-In . SVG Version: 6.00 Build 0)  -->
<svg version="1.1" xmlns="http://www.w3.org/2000/svg" xmlns:xlink="http://www.w3.org/1999/xlink" x="0px" y="0px"
	 viewBox="0 0 100 100" enable-background="new 0 0 100 100" xml:space="preserve">
<g id="GUIDES">
</g>
<g id="ICONS_-_BLACK" display="none">
	<g display="inline">
		<g>
			<g>
				<path d="M79.9,29.3c-0.1-1.3-1.1-2.3-2.3-2.4c-4.9-0.5-11-2.8-12.3-11.2c-0.2-1.2-1.1-2.1-2.3-2.2C59.1,13.2,54.7,13,50,13
					c-4.7,0-9.1,0.2-12.9,0.6c-1.2,0.1-2.1,1-2.3,2.2c-1.3,8.4-7.4,10.7-12.3,11.2c-1.3,0.1-2.3,1.1-2.3,2.4
					c-0.4,5.7-0.3,13.8,0.1,18.8C22.2,69.7,40.9,85.7,50,85.8H50c9-0.1,27.8-16,29.7-37.6C80.2,43.1,80.2,35,79.9,29.3z M77.3,47.9
					C76.2,60.1,69.6,69,65.8,73.2C60.6,79.1,54,83.3,50,83.3c-4,0-10.6-4.2-15.8-10.1C30.4,69,23.8,60.1,22.7,47.9
					c-0.4-4.8-0.5-12.9-0.1-18.3l0-0.2l0.2,0c3.8-0.4,7-1.7,9.4-3.8c2.6-2.3,4.3-5.4,4.9-9.4l0-0.2l0.2,0c3.7-0.4,8.1-0.6,12.6-0.6
					c4.5,0,8.9,0.2,12.6,0.6l0.2,0l0,0.2c0.6,4,2.3,7.1,4.9,9.4c2.4,2.1,5.7,3.4,9.4,3.8l0.2,0l0,0.2C77.8,35.1,77.7,43.1,77.3,47.9
					z"/>
				<path d="M65.7,42.2l-10.1,0l-3.1-9.6c-0.3-1.1-1.3-1.8-2.5-1.8c-1.1,0-2.1,0.7-2.5,1.8l-3.2,9.6l-10.1,0c-1.1,0-2.1,0.7-2.5,1.8
					c-0.4,1.1,0,2.2,0.9,2.9l8.2,6l-3.1,9.6c-0.3,1.1,0,2.2,0.9,2.9c0.4,0.3,1,0.5,1.5,0.5c0.6,0,1.1-0.2,1.5-0.5l8.2-5.9l8.2,6
					c0.4,0.3,1,0.5,1.5,0.5c0.6,0,1.1-0.2,1.5-0.5c0.9-0.7,1.3-1.8,1-2.9l-3.1-9.6l8.2-5.9c0.9-0.7,1.3-1.8,0.9-2.9
					C67.9,42.9,66.9,42.2,65.7,42.2z M56.2,51.9l3.8,11.7l-10-7.2l-10,7.2l3.8-11.7l-9.9-7.3l12.3,0L50,32.9l3.8,11.7l12.3,0
					L56.2,51.9z"/>
			</g>
		</g>
	</g>
</g>
<g id="ICONS_-_DARK_PURPLE" display="none">
	<g display="inline">
		<g>
			<g>
				<path fill="#4F2556" d="M79.9,29.3c-0.1-1.3-1.1-2.3-2.3-2.4c-4.9-0.5-11-2.8-12.3-11.2c-0.2-1.2-1.1-2.1-2.3-2.2
					C59.1,13.2,54.7,13,50,13c-4.7,0-9.1,0.2-12.9,0.6c-1.2,0.1-2.1,1-2.3,2.2c-1.3,8.4-7.4,10.7-12.3,11.2
					c-1.3,0.1-2.3,1.1-2.3,2.4c-0.4,5.7-0.3,13.8,0.1,18.8C22.2,69.7,40.9,85.7,50,85.8H50c9-0.1,27.8-16,29.7-37.6
					C80.2,43.1,80.2,35,79.9,29.3z M77.3,47.9C76.2,60.1,69.6,69,65.8,73.2C60.6,79.1,54,83.3,50,83.3c-4,0-10.6-4.2-15.8-10.1
					C30.4,69,23.8,60.1,22.7,47.9c-0.4-4.8-0.5-12.9-0.1-18.3l0-0.2l0.2,0c3.8-0.4,7-1.7,9.4-3.8c2.6-2.3,4.3-5.4,4.9-9.4l0-0.2
					l0.2,0c3.7-0.4,8.1-0.6,12.6-0.6c4.5,0,8.9,0.2,12.6,0.6l0.2,0l0,0.2c0.6,4,2.3,7.1,4.9,9.4c2.4,2.1,5.7,3.4,9.4,3.8l0.2,0
					l0,0.2C77.8,35.1,77.7,43.1,77.3,47.9z"/>
				<path fill="#4F2556" d="M65.7,42.2l-10.1,0l-3.1-9.6c-0.3-1.1-1.3-1.8-2.5-1.8c-1.1,0-2.1,0.7-2.5,1.8l-3.2,9.6l-10.1,0
					c-1.1,0-2.1,0.7-2.5,1.8c-0.4,1.1,0,2.2,0.9,2.9l8.2,6l-3.1,9.6c-0.3,1.1,0,2.2,0.9,2.9c0.4,0.3,1,0.5,1.5,0.5
					c0.6,0,1.1-0.2,1.5-0.5l8.2-5.9l8.2,6c0.4,0.3,1,0.5,1.5,0.5c0.6,0,1.1-0.2,1.5-0.5c0.9-0.7,1.3-1.8,1-2.9l-3.1-9.6l8.2-5.9
					c0.9-0.7,1.3-1.8,0.9-2.9C67.9,42.9,66.9,42.2,65.7,42.2z M56.2,51.9l3.8,11.7l-10-7.2l-10,7.2l3.8-11.7l-9.9-7.3l12.3,0
					L50,32.9l3.8,11.7l12.3,0L56.2,51.9z"/>
			</g>
		</g>
	</g>
</g>
<g id="ICONS_-_WARM_GREY" display="none">
	<g display="inline">
		<g>
			<g>
				<path fill="#534C63" d="M79.9,29.3c-0.1-1.3-1.1-2.3-2.3-2.4c-4.9-0.5-11-2.8-12.3-11.2c-0.2-1.2-1.1-2.1-2.3-2.2
					C59.1,13.2,54.7,13,50,13c-4.7,0-9.1,0.2-12.9,0.6c-1.2,0.1-2.1,1-2.3,2.2c-1.3,8.4-7.4,10.7-12.3,11.2
					c-1.3,0.1-2.3,1.1-2.3,2.4c-0.4,5.7-0.3,13.8,0.1,18.8C22.2,69.7,40.9,85.7,50,85.8H50c9-0.1,27.8-16,29.7-37.6
					C80.2,43.1,80.2,35,79.9,29.3z M77.3,47.9C76.2,60.1,69.6,69,65.8,73.2C60.6,79.1,54,83.3,50,83.3c-4,0-10.6-4.2-15.8-10.1
					C30.4,69,23.8,60.1,22.7,47.9c-0.4-4.8-0.5-12.9-0.1-18.3l0-0.2l0.2,0c3.8-0.4,7-1.7,9.4-3.8c2.6-2.3,4.3-5.4,4.9-9.4l0-0.2
					l0.2,0c3.7-0.4,8.1-0.6,12.6-0.6c4.5,0,8.9,0.2,12.6,0.6l0.2,0l0,0.2c0.6,4,2.3,7.1,4.9,9.4c2.4,2.1,5.7,3.4,9.4,3.8l0.2,0
					l0,0.2C77.8,35.1,77.7,43.1,77.3,47.9z"/>
				<path fill="#534C63" d="M65.7,42.2l-10.1,0l-3.1-9.6c-0.3-1.1-1.3-1.8-2.5-1.8c-1.1,0-2.1,0.7-2.5,1.8l-3.2,9.6l-10.1,0
					c-1.1,0-2.1,0.7-2.5,1.8c-0.4,1.1,0,2.2,0.9,2.9l8.2,6l-3.1,9.6c-0.3,1.1,0,2.2,0.9,2.9c0.4,0.3,1,0.5,1.5,0.5
					c0.6,0,1.1-0.2,1.5-0.5l8.2-5.9l8.2,6c0.4,0.3,1,0.5,1.5,0.5c0.6,0,1.1-0.2,1.5-0.5c0.9-0.7,1.3-1.8,1-2.9l-3.1-9.6l8.2-5.9
					c0.9-0.7,1.3-1.8,0.9-2.9C67.9,42.9,66.9,42.2,65.7,42.2z M56.2,51.9l3.8,11.7l-10-7.2l-10,7.2l3.8-11.7l-9.9-7.3l12.3,0
					L50,32.9l3.8,11.7l12.3,0L56.2,51.9z"/>
			</g>
		</g>
	</g>
</g>
<g id="ICONS_-_SKRILL_TEAL" display="none">
	<g display="inline">
		<g>
			<g>
				<path fill="#41AEB5" d="M79.9,29.3c-0.1-1.3-1.1-2.3-2.3-2.4c-4.9-0.5-11-2.8-12.3-11.2c-0.2-1.2-1.1-2.1-2.3-2.2
					C59.1,13.2,54.7,13,50,13c-4.7,0-9.1,0.2-12.9,0.6c-1.2,0.1-2.1,1-2.3,2.2c-1.3,8.4-7.4,10.7-12.3,11.2
					c-1.3,0.1-2.3,1.1-2.3,2.4c-0.4,5.7-0.3,13.8,0.1,18.8C22.2,69.7,40.9,85.7,50,85.8H50c9-0.1,27.8-16,29.7-37.6
					C80.2,43.1,80.2,35,79.9,29.3z M77.3,47.9C76.2,60.1,69.6,69,65.8,73.2C60.6,79.1,54,83.3,50,83.3c-4,0-10.6-4.2-15.8-10.1
					C30.4,69,23.8,60.1,22.7,47.9c-0.4-4.8-0.5-12.9-0.1-18.3l0-0.2l0.2,0c3.8-0.4,7-1.7,9.4-3.8c2.6-2.3,4.3-5.4,4.9-9.4l0-0.2
					l0.2,0c3.7-0.4,8.1-0.6,12.6-0.6c4.5,0,8.9,0.2,12.6,0.6l0.2,0l0,0.2c0.6,4,2.3,7.1,4.9,9.4c2.4,2.1,5.7,3.4,9.4,3.8l0.2,0
					l0,0.2C77.8,35.1,77.7,43.1,77.3,47.9z"/>
				<path fill="#41AEB5" d="M65.7,42.2l-10.1,0l-3.1-9.6c-0.3-1.1-1.3-1.8-2.5-1.8c-1.1,0-2.1,0.7-2.5,1.8l-3.2,9.6l-10.1,0
					c-1.1,0-2.1,0.7-2.5,1.8c-0.4,1.1,0,2.2,0.9,2.9l8.2,6l-3.1,9.6c-0.3,1.1,0,2.2,0.9,2.9c0.4,0.3,1,0.5,1.5,0.5
					c0.6,0,1.1-0.2,1.5-0.5l8.2-5.9l8.2,6c0.4,0.3,1,0.5,1.5,0.5c0.6,0,1.1-0.2,1.5-0.5c0.9-0.7,1.3-1.8,1-2.9l-3.1-9.6l8.2-5.9
					c0.9-0.7,1.3-1.8,0.9-2.9C67.9,42.9,66.9,42.2,65.7,42.2z M56.2,51.9l3.8,11.7l-10-7.2l-10,7.2l3.8-11.7l-9.9-7.3l12.3,0
					L50,32.9l3.8,11.7l12.3,0L56.2,51.9z"/>
			</g>
		</g>
	</g>
</g>
<g id="ICONS_-_SKRILL_PURPLE">
	<g>
		<g>
			<g>
				<path fill="#811E68" d="M79.9,29.3c-0.1-1.3-1.1-2.3-2.3-2.4c-4.9-0.5-11-2.8-12.3-11.2c-0.2-1.2-1.1-2.1-2.3-2.2
					C59.1,13.2,54.7,13,50,13c-4.7,0-9.1,0.2-12.9,0.6c-1.2,0.1-2.1,1-2.3,2.2c-1.3,8.4-7.4,10.7-12.3,11.2
					c-1.3,0.1-2.3,1.1-2.3,2.4c-0.4,5.7-0.3,13.8,0.1,18.8C22.2,69.7,40.9,85.7,50,85.8H50c9-0.1,27.8-16,29.7-37.6
					C80.2,43.1,80.2,35,79.9,29.3z M77.3,47.9C76.2,60.1,69.6,69,65.8,73.2C60.6,79.1,54,83.3,50,83.3c-4,0-10.6-4.2-15.8-10.1
					C30.4,69,23.8,60.1,22.7,47.9c-0.4-4.8-0.5-12.9-0.1-18.3l0-0.2l0.2,0c3.8-0.4,7-1.7,9.4-3.8c2.6-2.3,4.3-5.4,4.9-9.4l0-0.2
					l0.2,0c3.7-0.4,8.1-0.6,12.6-0.6c4.5,0,8.9,0.2,12.6,0.6l0.2,0l0,0.2c0.6,4,2.3,7.1,4.9,9.4c2.4,2.1,5.7,3.4,9.4,3.8l0.2,0
					l0,0.2C77.8,35.1,77.7,43.1,77.3,47.9z"/>
				<path fill="#811E68" d="M65.7,42.2l-10.1,0l-3.1-9.6c-0.3-1.1-1.3-1.8-2.5-1.8c-1.1,0-2.1,0.7-2.5,1.8l-3.2,9.6l-10.1,0
					c-1.1,0-2.1,0.7-2.5,1.8c-0.4,1.1,0,2.2,0.9,2.9l8.2,6l-3.1,9.6c-0.3,1.1,0,2.2,0.9,2.9c0.4,0.3,1,0.5,1.5,0.5
					c0.6,0,1.1-0.2,1.5-0.5l8.2-5.9l8.2,6c0.4,0.3,1,0.5,1.5,0.5c0.6,0,1.1-0.2,1.5-0.5c0.9-0.7,1.3-1.8,1-2.9l-3.1-9.6l8.2-5.9
					c0.9-0.7,1.3-1.8,0.9-2.9C67.9,42.9,66.9,42.2,65.7,42.2z M56.2,51.9l3.8,11.7l-10-7.2l-10,7.2l3.8-11.7l-9.9-7.3l12.3,0
					L50,32.9l3.8,11.7l12.3,0L56.2,51.9z"/>
			</g>
		</g>
	</g>
</g>
<g id="ICONS_-_WHITE" display="none">
	<g display="inline">
		<g>
			<g>
				<path fill="#FFFFFF" d="M79.9,29.3c-0.1-1.3-1.1-2.3-2.3-2.4c-4.9-0.5-11-2.8-12.3-11.2c-0.2-1.2-1.1-2.1-2.3-2.2
					C59.1,13.2,54.7,13,50,13c-4.7,0-9.1,0.2-12.9,0.6c-1.2,0.1-2.1,1-2.3,2.2c-1.3,8.4-7.4,10.7-12.3,11.2
					c-1.3,0.1-2.3,1.1-2.3,2.4c-0.4,5.7-0.3,13.8,0.1,18.8C22.2,69.7,40.9,85.7,50,85.8H50c9-0.1,27.8-16,29.7-37.6
					C80.2,43.1,80.2,35,79.9,29.3z M77.3,47.9C76.2,60.1,69.6,69,65.8,73.2C60.6,79.1,54,83.3,50,83.3c-4,0-10.6-4.2-15.8-10.1
					C30.4,69,23.8,60.1,22.7,47.9c-0.4-4.8-0.5-12.9-0.1-18.3l0-0.2l0.2,0c3.8-0.4,7-1.7,9.4-3.8c2.6-2.3,4.3-5.4,4.9-9.4l0-0.2
					l0.2,0c3.7-0.4,8.1-0.6,12.6-0.6c4.5,0,8.9,0.2,12.6,0.6l0.2,0l0,0.2c0.6,4,2.3,7.1,4.9,9.4c2.4,2.1,5.7,3.4,9.4,3.8l0.2,0
					l0,0.2C77.8,35.1,77.7,43.1,77.3,47.9z"/>
				<path fill="#FFFFFF" d="M65.7,42.2l-10.1,0l-3.1-9.6c-0.3-1.1-1.3-1.8-2.5-1.8c-1.1,0-2.1,0.7-2.5,1.8l-3.2,9.6l-10.1,0
					c-1.1,0-2.1,0.7-2.5,1.8c-0.4,1.1,0,2.2,0.9,2.9l8.2,6l-3.1,9.6c-0.3,1.1,0,2.2,0.9,2.9c0.4,0.3,1,0.5,1.5,0.5
					c0.6,0,1.1-0.2,1.5-0.5l8.2-5.9l8.2,6c0.4,0.3,1,0.5,1.5,0.5c0.6,0,1.1-0.2,1.5-0.5c0.9-0.7,1.3-1.8,1-2.9l-3.1-9.6l8.2-5.9
					c0.9-0.7,1.3-1.8,0.9-2.9C67.9,42.9,66.9,42.2,65.7,42.2z M56.2,51.9l3.8,11.7l-10-7.2l-10,7.2l3.8-11.7l-9.9-7.3l12.3,0
					L50,32.9l3.8,11.7l12.3,0L56.2,51.9z"/>
			</g>
		</g>
	</g>
</g>
<g id="LABELS">
</g>
</svg>
