<?xml version="1.0" encoding="utf-8"?>
<!-- Generator: Adobe Illustrator 18.1.1, SVG Export Plug-In . SVG Version: 6.00 Build 0)  -->
<svg version="1.1" xmlns="http://www.w3.org/2000/svg" xmlns:xlink="http://www.w3.org/1999/xlink" x="0px" y="0px"
	 viewBox="0 0 100 100" enable-background="new 0 0 100 100" xml:space="preserve">
<g id="GUIDES">
</g>
<g id="ICONS_-_BLACK" display="none">
	<g display="inline">
		<g>
			<g>
				<path d="M84.6,80.4H15.9c-0.7,0-1.2,0.6-1.2,1.2s0.6,1.2,1.2,1.2h68.7c0.7,0,1.2-0.6,1.2-1.2S85.3,80.4,84.6,80.4z"/>
				<path d="M70.4,47.9v25.6c0,0.7,0.6,1.2,1.2,1.2h9.2c0.7,0,1.2-0.6,1.2-1.2V47.9c0-0.7-0.6-1.2-1.2-1.2h-9.2
					C71,46.7,70.4,47.2,70.4,47.9z M72.9,49.5l0.3-0.3h6.1l0.3,0.3v22.5l-0.3,0.3h-6.1l-0.3-0.3V49.5z"/>
				<path d="M54.3,31.8c-0.7,0-1.2,0.6-1.2,1.2v40.4c0,0.7,0.6,1.2,1.2,1.2h9.2c0.7,0,1.2-0.6,1.2-1.2V33.1c0-0.7-0.6-1.2-1.2-1.2
					H54.3z M62.3,71.9l-0.3,0.3h-6.1l-0.3-0.3V34.6l0.3-0.3h6.1l0.3,0.3V71.9z"/>
				<path d="M37,39.9c-0.7,0-1.2,0.6-1.2,1.2v32.4c0,0.7,0.6,1.2,1.2,1.2h9.2c0.7,0,1.2-0.6,1.2-1.2V41.1c0-0.7-0.6-1.2-1.2-1.2H37z
					 M44.9,71.9l-0.3,0.3h-6.1l-0.3-0.3V42.7l0.3-0.3h6.1l0.3,0.3V71.9z"/>
				<path d="M19.6,17.6c-0.7,0-1.2,0.6-1.2,1.2v54.7c0,0.7,0.6,1.2,1.2,1.2h9.2c0.7,0,1.2-0.6,1.2-1.2V18.8c0-0.7-0.6-1.2-1.2-1.2
					H19.6z M27.6,71.9l-0.3,0.3h-6.1l-0.3-0.3V20.4l0.3-0.3h6.1l0.3,0.3V71.9z"/>
			</g>
		</g>
	</g>
</g>
<g id="ICONS_-_DARK_PURPLE" display="none">
	<g display="inline">
		<g>
			<g>
				<path fill="#4F2556" d="M84.6,80.4H15.9c-0.7,0-1.2,0.6-1.2,1.2s0.6,1.2,1.2,1.2h68.7c0.7,0,1.2-0.6,1.2-1.2
					S85.3,80.4,84.6,80.4z"/>
				<path fill="#4F2556" d="M70.4,47.9v25.6c0,0.7,0.6,1.2,1.2,1.2h9.2c0.7,0,1.2-0.6,1.2-1.2V47.9c0-0.7-0.6-1.2-1.2-1.2h-9.2
					C71,46.7,70.4,47.2,70.4,47.9z M72.9,49.5l0.3-0.3h6.1l0.3,0.3v22.5l-0.3,0.3h-6.1l-0.3-0.3V49.5z"/>
				<path fill="#4F2556" d="M54.3,31.8c-0.7,0-1.2,0.6-1.2,1.2v40.4c0,0.7,0.6,1.2,1.2,1.2h9.2c0.7,0,1.2-0.6,1.2-1.2V33.1
					c0-0.7-0.6-1.2-1.2-1.2H54.3z M62.3,71.9l-0.3,0.3h-6.1l-0.3-0.3V34.6l0.3-0.3h6.1l0.3,0.3V71.9z"/>
				<path fill="#4F2556" d="M37,39.9c-0.7,0-1.2,0.6-1.2,1.2v32.4c0,0.7,0.6,1.2,1.2,1.2h9.2c0.7,0,1.2-0.6,1.2-1.2V41.1
					c0-0.7-0.6-1.2-1.2-1.2H37z M44.9,71.9l-0.3,0.3h-6.1l-0.3-0.3V42.7l0.3-0.3h6.1l0.3,0.3V71.9z"/>
				<path fill="#4F2556" d="M19.6,17.6c-0.7,0-1.2,0.6-1.2,1.2v54.7c0,0.7,0.6,1.2,1.2,1.2h9.2c0.7,0,1.2-0.6,1.2-1.2V18.8
					c0-0.7-0.6-1.2-1.2-1.2H19.6z M27.6,71.9l-0.3,0.3h-6.1l-0.3-0.3V20.4l0.3-0.3h6.1l0.3,0.3V71.9z"/>
			</g>
		</g>
	</g>
</g>
<g id="ICONS_-_WARM_GREY" display="none">
	<g display="inline">
		<g>
			<g>
				<path fill="#534C63" d="M84.6,80.4H15.9c-0.7,0-1.2,0.6-1.2,1.2s0.6,1.2,1.2,1.2h68.7c0.7,0,1.2-0.6,1.2-1.2
					S85.3,80.4,84.6,80.4z"/>
				<path fill="#534C63" d="M70.4,47.9v25.6c0,0.7,0.6,1.2,1.2,1.2h9.2c0.7,0,1.2-0.6,1.2-1.2V47.9c0-0.7-0.6-1.2-1.2-1.2h-9.2
					C71,46.7,70.4,47.2,70.4,47.9z M72.9,49.5l0.3-0.3h6.1l0.3,0.3v22.5l-0.3,0.3h-6.1l-0.3-0.3V49.5z"/>
				<path fill="#534C63" d="M54.3,31.8c-0.7,0-1.2,0.6-1.2,1.2v40.4c0,0.7,0.6,1.2,1.2,1.2h9.2c0.7,0,1.2-0.6,1.2-1.2V33.1
					c0-0.7-0.6-1.2-1.2-1.2H54.3z M62.3,71.9l-0.3,0.3h-6.1l-0.3-0.3V34.6l0.3-0.3h6.1l0.3,0.3V71.9z"/>
				<path fill="#534C63" d="M37,39.9c-0.7,0-1.2,0.6-1.2,1.2v32.4c0,0.7,0.6,1.2,1.2,1.2h9.2c0.7,0,1.2-0.6,1.2-1.2V41.1
					c0-0.7-0.6-1.2-1.2-1.2H37z M44.9,71.9l-0.3,0.3h-6.1l-0.3-0.3V42.7l0.3-0.3h6.1l0.3,0.3V71.9z"/>
				<path fill="#534C63" d="M19.6,17.6c-0.7,0-1.2,0.6-1.2,1.2v54.7c0,0.7,0.6,1.2,1.2,1.2h9.2c0.7,0,1.2-0.6,1.2-1.2V18.8
					c0-0.7-0.6-1.2-1.2-1.2H19.6z M27.6,71.9l-0.3,0.3h-6.1l-0.3-0.3V20.4l0.3-0.3h6.1l0.3,0.3V71.9z"/>
			</g>
		</g>
	</g>
</g>
<g id="ICONS_-_SKRILL_TEAL" display="none">
	<g display="inline">
		<g>
			<g>
				<path fill="#41AEB5" d="M84.6,80.4H15.9c-0.7,0-1.2,0.6-1.2,1.2s0.6,1.2,1.2,1.2h68.7c0.7,0,1.2-0.6,1.2-1.2
					S85.3,80.4,84.6,80.4z"/>
				<path fill="#41AEB5" d="M70.4,47.9v25.6c0,0.7,0.6,1.2,1.2,1.2h9.2c0.7,0,1.2-0.6,1.2-1.2V47.9c0-0.7-0.6-1.2-1.2-1.2h-9.2
					C71,46.7,70.4,47.2,70.4,47.9z M72.9,49.5l0.3-0.3h6.1l0.3,0.3v22.5l-0.3,0.3h-6.1l-0.3-0.3V49.5z"/>
				<path fill="#41AEB5" d="M54.3,31.8c-0.7,0-1.2,0.6-1.2,1.2v40.4c0,0.7,0.6,1.2,1.2,1.2h9.2c0.7,0,1.2-0.6,1.2-1.2V33.1
					c0-0.7-0.6-1.2-1.2-1.2H54.3z M62.3,71.9l-0.3,0.3h-6.1l-0.3-0.3V34.6l0.3-0.3h6.1l0.3,0.3V71.9z"/>
				<path fill="#41AEB5" d="M37,39.9c-0.7,0-1.2,0.6-1.2,1.2v32.4c0,0.7,0.6,1.2,1.2,1.2h9.2c0.7,0,1.2-0.6,1.2-1.2V41.1
					c0-0.7-0.6-1.2-1.2-1.2H37z M44.9,71.9l-0.3,0.3h-6.1l-0.3-0.3V42.7l0.3-0.3h6.1l0.3,0.3V71.9z"/>
				<path fill="#41AEB5" d="M19.6,17.6c-0.7,0-1.2,0.6-1.2,1.2v54.7c0,0.7,0.6,1.2,1.2,1.2h9.2c0.7,0,1.2-0.6,1.2-1.2V18.8
					c0-0.7-0.6-1.2-1.2-1.2H19.6z M27.6,71.9l-0.3,0.3h-6.1l-0.3-0.3V20.4l0.3-0.3h6.1l0.3,0.3V71.9z"/>
			</g>
		</g>
	</g>
</g>
<g id="ICONS_-_SKRILL_PURPLE">
	<g>
		<g>
			<g>
				<path fill="#811E68" d="M84.6,80.4H15.9c-0.7,0-1.2,0.6-1.2,1.2s0.6,1.2,1.2,1.2h68.7c0.7,0,1.2-0.6,1.2-1.2
					S85.3,80.4,84.6,80.4z"/>
				<path fill="#811E68" d="M70.4,47.9v25.6c0,0.7,0.6,1.2,1.2,1.2h9.2c0.7,0,1.2-0.6,1.2-1.2V47.9c0-0.7-0.6-1.2-1.2-1.2h-9.2
					C71,46.7,70.4,47.2,70.4,47.9z M72.9,49.5l0.3-0.3h6.1l0.3,0.3v22.5l-0.3,0.3h-6.1l-0.3-0.3V49.5z"/>
				<path fill="#811E68" d="M54.3,31.8c-0.7,0-1.2,0.6-1.2,1.2v40.4c0,0.7,0.6,1.2,1.2,1.2h9.2c0.7,0,1.2-0.6,1.2-1.2V33.1
					c0-0.7-0.6-1.2-1.2-1.2H54.3z M62.3,71.9l-0.3,0.3h-6.1l-0.3-0.3V34.6l0.3-0.3h6.1l0.3,0.3V71.9z"/>
				<path fill="#811E68" d="M37,39.9c-0.7,0-1.2,0.6-1.2,1.2v32.4c0,0.7,0.6,1.2,1.2,1.2h9.2c0.7,0,1.2-0.6,1.2-1.2V41.1
					c0-0.7-0.6-1.2-1.2-1.2H37z M44.9,71.9l-0.3,0.3h-6.1l-0.3-0.3V42.7l0.3-0.3h6.1l0.3,0.3V71.9z"/>
				<path fill="#811E68" d="M19.6,17.6c-0.7,0-1.2,0.6-1.2,1.2v54.7c0,0.7,0.6,1.2,1.2,1.2h9.2c0.7,0,1.2-0.6,1.2-1.2V18.8
					c0-0.7-0.6-1.2-1.2-1.2H19.6z M27.6,71.9l-0.3,0.3h-6.1l-0.3-0.3V20.4l0.3-0.3h6.1l0.3,0.3V71.9z"/>
			</g>
		</g>
	</g>
</g>
<g id="ICONS_-_WHITE" display="none">
	<g display="inline">
		<g>
			<g>
				<path fill="#FFFFFF" d="M84.6,80.4H15.9c-0.7,0-1.2,0.6-1.2,1.2s0.6,1.2,1.2,1.2h68.7c0.7,0,1.2-0.6,1.2-1.2
					S85.3,80.4,84.6,80.4z"/>
				<path fill="#FFFFFF" d="M70.4,47.9v25.6c0,0.7,0.6,1.2,1.2,1.2h9.2c0.7,0,1.2-0.6,1.2-1.2V47.9c0-0.7-0.6-1.2-1.2-1.2h-9.2
					C71,46.7,70.4,47.2,70.4,47.9z M72.9,49.5l0.3-0.3h6.1l0.3,0.3v22.5l-0.3,0.3h-6.1l-0.3-0.3V49.5z"/>
				<path fill="#FFFFFF" d="M54.3,31.8c-0.7,0-1.2,0.6-1.2,1.2v40.4c0,0.7,0.6,1.2,1.2,1.2h9.2c0.7,0,1.2-0.6,1.2-1.2V33.1
					c0-0.7-0.6-1.2-1.2-1.2H54.3z M62.3,71.9l-0.3,0.3h-6.1l-0.3-0.3V34.6l0.3-0.3h6.1l0.3,0.3V71.9z"/>
				<path fill="#FFFFFF" d="M37,39.9c-0.7,0-1.2,0.6-1.2,1.2v32.4c0,0.7,0.6,1.2,1.2,1.2h9.2c0.7,0,1.2-0.6,1.2-1.2V41.1
					c0-0.7-0.6-1.2-1.2-1.2H37z M44.9,71.9l-0.3,0.3h-6.1l-0.3-0.3V42.7l0.3-0.3h6.1l0.3,0.3V71.9z"/>
				<path fill="#FFFFFF" d="M19.6,17.6c-0.7,0-1.2,0.6-1.2,1.2v54.7c0,0.7,0.6,1.2,1.2,1.2h9.2c0.7,0,1.2-0.6,1.2-1.2V18.8
					c0-0.7-0.6-1.2-1.2-1.2H19.6z M27.6,71.9l-0.3,0.3h-6.1l-0.3-0.3V20.4l0.3-0.3h6.1l0.3,0.3V71.9z"/>
			</g>
		</g>
	</g>
</g>
<g id="LABELS">
</g>
</svg>
