<?xml version="1.0" encoding="utf-8"?>
<!-- Generator: Adobe Illustrator 18.1.1, SVG Export Plug-In . SVG Version: 6.00 Build 0)  -->
<svg version="1.1" xmlns="http://www.w3.org/2000/svg" xmlns:xlink="http://www.w3.org/1999/xlink" x="0px" y="0px"
	 viewBox="0 0 100 100" enable-background="new 0 0 100 100" xml:space="preserve">
<g id="GUIDES">
</g>
<g id="ICONS_-_BLACK" display="none">
	<g display="inline">
		<g>
			<g>
				<path d="M78.1,20.6H21.9c-0.7,0-1.3,0.6-1.3,1.3v56.2c0,0.7,0.6,1.3,0.9,1.3h41.8h3.3h11.5c0.7,0,1.3-0.6,1.3-1.3V21.9
					C79.4,21.2,78.8,20.6,78.1,20.6z M57.3,76.9H42.7c-0.1-0.5-0.2-1-0.2-1.5c0-4.1,3.3-7.4,7.4-7.4c4.1,0,7.4,3.3,7.4,7.4
					C57.4,75.9,57.4,76.4,57.3,76.9z M70.3,76.9h-4.6h-5.8c0.1-0.5,0.1-1,0.1-1.5c0-5.6-4.5-10.1-10-10.1c-5.5,0-10,4.5-10,10.1
					c0,0.5,0,0.9,0.1,1.5H29.7c0-0.5-0.1-1-0.1-1.5c0-1.1,0.1-2.1,0.3-3l4.4-0.4c0.5-0.1,1-0.4,1.1-0.9c0.3-1,0.7-2,1.2-2.9
					c0.3-0.5,0.2-1-0.1-1.5l-2.8-3.5c0.6-0.8,1.2-1.6,1.9-2.3c0.7-0.7,1.5-1.4,2.3-2l3.4,2.8c0.4,0.3,1,0.4,1.5,0.1
					c0.9-0.5,1.9-0.9,2.9-1.2c0.5-0.2,0.9-0.6,0.9-1.1l0.4-4.4c1-0.2,2-0.3,3-0.3c1.1,0,2,0.1,3,0.3l0.4,4.4c0.1,0.5,0.4,1,0.9,1.1
					c1,0.3,2,0.7,2.9,1.2c0.5,0.2,1.1,0.2,1.5-0.1l3.4-2.8c0.8,0.6,1.6,1.2,2.3,1.9c0.7,0.7,1.4,1.5,1.9,2.4l-2.8,3.4
					c-0.3,0.4-0.4,1-0.1,1.5c0.5,0.9,0.9,1.9,1.2,2.9c0.2,0.5,0.6,0.9,1.1,0.9l4.4,0.5c0.2,1,0.3,2,0.3,3
					C70.4,75.9,70.4,76.4,70.3,76.9z M76.8,76.9H73c0-0.5,0.1-1,0.1-1.5c0-1.5-0.2-3.1-0.5-4.5c-0.1-0.6-0.6-1-1.2-1l-4.5-0.5
					c-0.2-0.5-0.4-1-0.7-1.7l2.9-3.5c0.4-0.4,0.4-1.1,0.1-1.5c-0.8-1.3-1.8-2.5-2.8-3.6c-1.1-1.1-2.3-2-3.6-2.8
					c-0.5-0.3-1.1-0.2-1.5,0.1l-3.5,2.9c-0.6-0.3-1.2-0.5-1.7-0.7L55.5,54c-0.1-0.6-0.5-1-1-1.2c-2.9-0.7-6.1-0.7-9.1,0
					c-0.5,0.1-1,0.6-1,1.2L44,58.5c-0.6,0.2-1.2,0.5-1.7,0.7l-3.5-2.9c-0.4-0.4-1.1-0.4-1.5-0.1C36,57,34.8,58,33.7,59.1
					c-1.1,1.1-2,2.3-2.8,3.6c-0.3,0.5-0.3,1.1,0.1,1.5l2.9,3.5c-0.2,0.5-0.5,1-0.7,1.7l-4.5,0.4c-0.6,0.1-1,0.5-1.2,1
					c-0.3,1.5-0.5,3-0.5,4.5c0,0.4,0,0.9,0,1.5h-3.9V38.3h53.7V76.9z M76.8,35.7H23.2V23.2h53.7V35.7z"/>
				<circle cx="29.4" cy="29.4" r="2.9"/>
				<circle cx="37.7" cy="29.4" r="2.9"/>
				<path d="M45.9,32.3c1.6,0,2.9-1.3,2.9-2.8c0-1.6-1.3-2.9-2.9-2.9c-1.6,0-2.9,1.3-2.9,2.9C43,31,44.3,32.3,45.9,32.3z"/>
			</g>
		</g>
	</g>
</g>
<g id="ICONS_-_DARK_PURPLE" display="none">
	<g display="inline">
		<g>
			<g>
				<path fill="#4F2556" d="M78.1,20.6H21.9c-0.7,0-1.3,0.6-1.3,1.3v56.2c0,0.7,0.6,1.3,0.9,1.3h41.8h3.3h11.5
					c0.7,0,1.3-0.6,1.3-1.3V21.9C79.4,21.2,78.8,20.6,78.1,20.6z M57.3,76.9H42.7c-0.1-0.5-0.2-1-0.2-1.5c0-4.1,3.3-7.4,7.4-7.4
					c4.1,0,7.4,3.3,7.4,7.4C57.4,75.9,57.4,76.4,57.3,76.9z M70.3,76.9h-4.6h-5.8c0.1-0.5,0.1-1,0.1-1.5c0-5.6-4.5-10.1-10-10.1
					c-5.5,0-10,4.5-10,10.1c0,0.5,0,0.9,0.1,1.5H29.7c0-0.5-0.1-1-0.1-1.5c0-1.1,0.1-2.1,0.3-3l4.4-0.4c0.5-0.1,1-0.4,1.1-0.9
					c0.3-1,0.7-2,1.2-2.9c0.3-0.5,0.2-1-0.1-1.5l-2.8-3.5c0.6-0.8,1.2-1.6,1.9-2.3c0.7-0.7,1.5-1.4,2.3-2l3.4,2.8
					c0.4,0.3,1,0.4,1.5,0.1c0.9-0.5,1.9-0.9,2.9-1.2c0.5-0.2,0.9-0.6,0.9-1.1l0.4-4.4c1-0.2,2-0.3,3-0.3c1.1,0,2,0.1,3,0.3l0.4,4.4
					c0.1,0.5,0.4,1,0.9,1.1c1,0.3,2,0.7,2.9,1.2c0.5,0.2,1.1,0.2,1.5-0.1l3.4-2.8c0.8,0.6,1.6,1.2,2.3,1.9c0.7,0.7,1.4,1.5,1.9,2.4
					l-2.8,3.4c-0.3,0.4-0.4,1-0.1,1.5c0.5,0.9,0.9,1.9,1.2,2.9c0.2,0.5,0.6,0.9,1.1,0.9l4.4,0.5c0.2,1,0.3,2,0.3,3
					C70.4,75.9,70.4,76.4,70.3,76.9z M76.8,76.9H73c0-0.5,0.1-1,0.1-1.5c0-1.5-0.2-3.1-0.5-4.5c-0.1-0.6-0.6-1-1.2-1l-4.5-0.5
					c-0.2-0.5-0.4-1-0.7-1.7l2.9-3.5c0.4-0.4,0.4-1.1,0.1-1.5c-0.8-1.3-1.8-2.5-2.8-3.6c-1.1-1.1-2.3-2-3.6-2.8
					c-0.5-0.3-1.1-0.2-1.5,0.1l-3.5,2.9c-0.6-0.3-1.2-0.5-1.7-0.7L55.5,54c-0.1-0.6-0.5-1-1-1.2c-2.9-0.7-6.1-0.7-9.1,0
					c-0.5,0.1-1,0.6-1,1.2L44,58.5c-0.6,0.2-1.2,0.5-1.7,0.7l-3.5-2.9c-0.4-0.4-1.1-0.4-1.5-0.1C36,57,34.8,58,33.7,59.1
					c-1.1,1.1-2,2.3-2.8,3.6c-0.3,0.5-0.3,1.1,0.1,1.5l2.9,3.5c-0.2,0.5-0.5,1-0.7,1.7l-4.5,0.4c-0.6,0.1-1,0.5-1.2,1
					c-0.3,1.5-0.5,3-0.5,4.5c0,0.4,0,0.9,0,1.5h-3.9V38.3h53.7V76.9z M76.8,35.7H23.2V23.2h53.7V35.7z"/>
				<circle fill="#4F2556" cx="29.4" cy="29.4" r="2.9"/>
				<circle fill="#4F2556" cx="37.7" cy="29.4" r="2.9"/>
				<path fill="#4F2556" d="M45.9,32.3c1.6,0,2.9-1.3,2.9-2.8c0-1.6-1.3-2.9-2.9-2.9c-1.6,0-2.9,1.3-2.9,2.9
					C43,31,44.3,32.3,45.9,32.3z"/>
			</g>
		</g>
	</g>
</g>
<g id="ICONS_-_WARM_GREY" display="none">
	<g display="inline">
		<g>
			<g>
				<path fill="#534C63" d="M78.1,20.6H21.9c-0.7,0-1.3,0.6-1.3,1.3v56.2c0,0.7,0.6,1.3,0.9,1.3h41.8h3.3h11.5
					c0.7,0,1.3-0.6,1.3-1.3V21.9C79.4,21.2,78.8,20.6,78.1,20.6z M57.3,76.9H42.7c-0.1-0.5-0.2-1-0.2-1.5c0-4.1,3.3-7.4,7.4-7.4
					c4.1,0,7.4,3.3,7.4,7.4C57.4,75.9,57.4,76.4,57.3,76.9z M70.3,76.9h-4.6h-5.8c0.1-0.5,0.1-1,0.1-1.5c0-5.6-4.5-10.1-10-10.1
					c-5.5,0-10,4.5-10,10.1c0,0.5,0,0.9,0.1,1.5H29.7c0-0.5-0.1-1-0.1-1.5c0-1.1,0.1-2.1,0.3-3l4.4-0.4c0.5-0.1,1-0.4,1.1-0.9
					c0.3-1,0.7-2,1.2-2.9c0.3-0.5,0.2-1-0.1-1.5l-2.8-3.5c0.6-0.8,1.2-1.6,1.9-2.3c0.7-0.7,1.5-1.4,2.3-2l3.4,2.8
					c0.4,0.3,1,0.4,1.5,0.1c0.9-0.5,1.9-0.9,2.9-1.2c0.5-0.2,0.9-0.6,0.9-1.1l0.4-4.4c1-0.2,2-0.3,3-0.3c1.1,0,2,0.1,3,0.3l0.4,4.4
					c0.1,0.5,0.4,1,0.9,1.1c1,0.3,2,0.7,2.9,1.2c0.5,0.2,1.1,0.2,1.5-0.1l3.4-2.8c0.8,0.6,1.6,1.2,2.3,1.9c0.7,0.7,1.4,1.5,1.9,2.4
					l-2.8,3.4c-0.3,0.4-0.4,1-0.1,1.5c0.5,0.9,0.9,1.9,1.2,2.9c0.2,0.5,0.6,0.9,1.1,0.9l4.4,0.5c0.2,1,0.3,2,0.3,3
					C70.4,75.9,70.4,76.4,70.3,76.9z M76.8,76.9H73c0-0.5,0.1-1,0.1-1.5c0-1.5-0.2-3.1-0.5-4.5c-0.1-0.6-0.6-1-1.2-1l-4.5-0.5
					c-0.2-0.5-0.4-1-0.7-1.7l2.9-3.5c0.4-0.4,0.4-1.1,0.1-1.5c-0.8-1.3-1.8-2.5-2.8-3.6c-1.1-1.1-2.3-2-3.6-2.8
					c-0.5-0.3-1.1-0.2-1.5,0.1l-3.5,2.9c-0.6-0.3-1.2-0.5-1.7-0.7L55.5,54c-0.1-0.6-0.5-1-1-1.2c-2.9-0.7-6.1-0.7-9.1,0
					c-0.5,0.1-1,0.6-1,1.2L44,58.5c-0.6,0.2-1.2,0.5-1.7,0.7l-3.5-2.9c-0.4-0.4-1.1-0.4-1.5-0.1C36,57,34.8,58,33.7,59.1
					c-1.1,1.1-2,2.3-2.8,3.6c-0.3,0.5-0.3,1.1,0.1,1.5l2.9,3.5c-0.2,0.5-0.5,1-0.7,1.7l-4.5,0.4c-0.6,0.1-1,0.5-1.2,1
					c-0.3,1.5-0.5,3-0.5,4.5c0,0.4,0,0.9,0,1.5h-3.9V38.3h53.7V76.9z M76.8,35.7H23.2V23.2h53.7V35.7z"/>
				<circle fill="#534C63" cx="29.4" cy="29.4" r="2.9"/>
				<circle fill="#534C63" cx="37.7" cy="29.4" r="2.9"/>
				<path fill="#534C63" d="M45.9,32.3c1.6,0,2.9-1.3,2.9-2.8c0-1.6-1.3-2.9-2.9-2.9c-1.6,0-2.9,1.3-2.9,2.9
					C43,31,44.3,32.3,45.9,32.3z"/>
			</g>
		</g>
	</g>
</g>
<g id="ICONS_-_SKRILL_TEAL" display="none">
	<g display="inline">
		<g>
			<g>
				<path fill="#41AEB5" d="M78.1,20.6H21.9c-0.7,0-1.3,0.6-1.3,1.3v56.2c0,0.7,0.6,1.3,0.9,1.3h41.8h3.3h11.5
					c0.7,0,1.3-0.6,1.3-1.3V21.9C79.4,21.2,78.8,20.6,78.1,20.6z M57.3,76.9H42.7c-0.1-0.5-0.2-1-0.2-1.5c0-4.1,3.3-7.4,7.4-7.4
					c4.1,0,7.4,3.3,7.4,7.4C57.4,75.9,57.4,76.4,57.3,76.9z M70.3,76.9h-4.6h-5.8c0.1-0.5,0.1-1,0.1-1.5c0-5.6-4.5-10.1-10-10.1
					c-5.5,0-10,4.5-10,10.1c0,0.5,0,0.9,0.1,1.5H29.7c0-0.5-0.1-1-0.1-1.5c0-1.1,0.1-2.1,0.3-3l4.4-0.4c0.5-0.1,1-0.4,1.1-0.9
					c0.3-1,0.7-2,1.2-2.9c0.3-0.5,0.2-1-0.1-1.5l-2.8-3.5c0.6-0.8,1.2-1.6,1.9-2.3c0.7-0.7,1.5-1.4,2.3-2l3.4,2.8
					c0.4,0.3,1,0.4,1.5,0.1c0.9-0.5,1.9-0.9,2.9-1.2c0.5-0.2,0.9-0.6,0.9-1.1l0.4-4.4c1-0.2,2-0.3,3-0.3c1.1,0,2,0.1,3,0.3l0.4,4.4
					c0.1,0.5,0.4,1,0.9,1.1c1,0.3,2,0.7,2.9,1.2c0.5,0.2,1.1,0.2,1.5-0.1l3.4-2.8c0.8,0.6,1.6,1.2,2.3,1.9c0.7,0.7,1.4,1.5,1.9,2.4
					l-2.8,3.4c-0.3,0.4-0.4,1-0.1,1.5c0.5,0.9,0.9,1.9,1.2,2.9c0.2,0.5,0.6,0.9,1.1,0.9l4.4,0.5c0.2,1,0.3,2,0.3,3
					C70.4,75.9,70.4,76.4,70.3,76.9z M76.8,76.9H73c0-0.5,0.1-1,0.1-1.5c0-1.5-0.2-3.1-0.5-4.5c-0.1-0.6-0.6-1-1.2-1l-4.5-0.5
					c-0.2-0.5-0.4-1-0.7-1.7l2.9-3.5c0.4-0.4,0.4-1.1,0.1-1.5c-0.8-1.3-1.8-2.5-2.8-3.6c-1.1-1.1-2.3-2-3.6-2.8
					c-0.5-0.3-1.1-0.2-1.5,0.1l-3.5,2.9c-0.6-0.3-1.2-0.5-1.7-0.7L55.5,54c-0.1-0.6-0.5-1-1-1.2c-2.9-0.7-6.1-0.7-9.1,0
					c-0.5,0.1-1,0.6-1,1.2L44,58.5c-0.6,0.2-1.2,0.5-1.7,0.7l-3.5-2.9c-0.4-0.4-1.1-0.4-1.5-0.1C36,57,34.8,58,33.7,59.1
					c-1.1,1.1-2,2.3-2.8,3.6c-0.3,0.5-0.3,1.1,0.1,1.5l2.9,3.5c-0.2,0.5-0.5,1-0.7,1.7l-4.5,0.4c-0.6,0.1-1,0.5-1.2,1
					c-0.3,1.5-0.5,3-0.5,4.5c0,0.4,0,0.9,0,1.5h-3.9V38.3h53.7V76.9z M76.8,35.7H23.2V23.2h53.7V35.7z"/>
				<circle fill="#41AEB5" cx="29.4" cy="29.4" r="2.9"/>
				<circle fill="#41AEB5" cx="37.7" cy="29.4" r="2.9"/>
				<path fill="#41AEB5" d="M45.9,32.3c1.6,0,2.9-1.3,2.9-2.8c0-1.6-1.3-2.9-2.9-2.9c-1.6,0-2.9,1.3-2.9,2.9
					C43,31,44.3,32.3,45.9,32.3z"/>
			</g>
		</g>
	</g>
</g>
<g id="ICONS_-_SKRILL_PURPLE">
	<g>
		<g>
			<g>
				<path fill="#811E68" d="M78.1,20.6H21.9c-0.7,0-1.3,0.6-1.3,1.3v56.2c0,0.7,0.6,1.3,0.9,1.3h41.8h3.3h11.5
					c0.7,0,1.3-0.6,1.3-1.3V21.9C79.4,21.2,78.8,20.6,78.1,20.6z M57.3,76.9H42.7c-0.1-0.5-0.2-1-0.2-1.5c0-4.1,3.3-7.4,7.4-7.4
					c4.1,0,7.4,3.3,7.4,7.4C57.4,75.9,57.4,76.4,57.3,76.9z M70.3,76.9h-4.6h-5.8c0.1-0.5,0.1-1,0.1-1.5c0-5.6-4.5-10.1-10-10.1
					c-5.5,0-10,4.5-10,10.1c0,0.5,0,0.9,0.1,1.5H29.7c0-0.5-0.1-1-0.1-1.5c0-1.1,0.1-2.1,0.3-3l4.4-0.4c0.5-0.1,1-0.4,1.1-0.9
					c0.3-1,0.7-2,1.2-2.9c0.3-0.5,0.2-1-0.1-1.5l-2.8-3.5c0.6-0.8,1.2-1.6,1.9-2.3c0.7-0.7,1.5-1.4,2.3-2l3.4,2.8
					c0.4,0.3,1,0.4,1.5,0.1c0.9-0.5,1.9-0.9,2.9-1.2c0.5-0.2,0.9-0.6,0.9-1.1l0.4-4.4c1-0.2,2-0.3,3-0.3c1.1,0,2,0.1,3,0.3l0.4,4.4
					c0.1,0.5,0.4,1,0.9,1.1c1,0.3,2,0.7,2.9,1.2c0.5,0.2,1.1,0.2,1.5-0.1l3.4-2.8c0.8,0.6,1.6,1.2,2.3,1.9c0.7,0.7,1.4,1.5,1.9,2.4
					l-2.8,3.4c-0.3,0.4-0.4,1-0.1,1.5c0.5,0.9,0.9,1.9,1.2,2.9c0.2,0.5,0.6,0.9,1.1,0.9l4.4,0.5c0.2,1,0.3,2,0.3,3
					C70.4,75.9,70.4,76.4,70.3,76.9z M76.8,76.9H73c0-0.5,0.1-1,0.1-1.5c0-1.5-0.2-3.1-0.5-4.5c-0.1-0.6-0.6-1-1.2-1l-4.5-0.5
					c-0.2-0.5-0.4-1-0.7-1.7l2.9-3.5c0.4-0.4,0.4-1.1,0.1-1.5c-0.8-1.3-1.8-2.5-2.8-3.6c-1.1-1.1-2.3-2-3.6-2.8
					c-0.5-0.3-1.1-0.2-1.5,0.1l-3.5,2.9c-0.6-0.3-1.2-0.5-1.7-0.7L55.5,54c-0.1-0.6-0.5-1-1-1.2c-2.9-0.7-6.1-0.7-9.1,0
					c-0.5,0.1-1,0.6-1,1.2L44,58.5c-0.6,0.2-1.2,0.5-1.7,0.7l-3.5-2.9c-0.4-0.4-1.1-0.4-1.5-0.1C36,57,34.8,58,33.7,59.1
					c-1.1,1.1-2,2.3-2.8,3.6c-0.3,0.5-0.3,1.1,0.1,1.5l2.9,3.5c-0.2,0.5-0.5,1-0.7,1.7l-4.5,0.4c-0.6,0.1-1,0.5-1.2,1
					c-0.3,1.5-0.5,3-0.5,4.5c0,0.4,0,0.9,0,1.5h-3.9V38.3h53.7V76.9z M76.8,35.7H23.2V23.2h53.7V35.7z"/>
				<circle fill="#811E68" cx="29.4" cy="29.4" r="2.9"/>
				<circle fill="#811E68" cx="37.7" cy="29.4" r="2.9"/>
				<path fill="#811E68" d="M45.9,32.3c1.6,0,2.9-1.3,2.9-2.8c0-1.6-1.3-2.9-2.9-2.9c-1.6,0-2.9,1.3-2.9,2.9
					C43,31,44.3,32.3,45.9,32.3z"/>
			</g>
		</g>
	</g>
</g>
<g id="ICONS_-_WHITE" display="none">
	<g display="inline">
		<g>
			<g>
				<path fill="#FFFFFF" d="M78.1,20.6H21.9c-0.7,0-1.3,0.6-1.3,1.3v56.2c0,0.7,0.6,1.3,0.9,1.3h41.8h3.3h11.5
					c0.7,0,1.3-0.6,1.3-1.3V21.9C79.4,21.2,78.8,20.6,78.1,20.6z M57.3,76.9H42.7c-0.1-0.5-0.2-1-0.2-1.5c0-4.1,3.3-7.4,7.4-7.4
					c4.1,0,7.4,3.3,7.4,7.4C57.4,75.9,57.4,76.4,57.3,76.9z M70.3,76.9h-4.6h-5.8c0.1-0.5,0.1-1,0.1-1.5c0-5.6-4.5-10.1-10-10.1
					c-5.5,0-10,4.5-10,10.1c0,0.5,0,0.9,0.1,1.5H29.7c0-0.5-0.1-1-0.1-1.5c0-1.1,0.1-2.1,0.3-3l4.4-0.4c0.5-0.1,1-0.4,1.1-0.9
					c0.3-1,0.7-2,1.2-2.9c0.3-0.5,0.2-1-0.1-1.5l-2.8-3.5c0.6-0.8,1.2-1.6,1.9-2.3c0.7-0.7,1.5-1.4,2.3-2l3.4,2.8
					c0.4,0.3,1,0.4,1.5,0.1c0.9-0.5,1.9-0.9,2.9-1.2c0.5-0.2,0.9-0.6,0.9-1.1l0.4-4.4c1-0.2,2-0.3,3-0.3c1.1,0,2,0.1,3,0.3l0.4,4.4
					c0.1,0.5,0.4,1,0.9,1.1c1,0.3,2,0.7,2.9,1.2c0.5,0.2,1.1,0.2,1.5-0.1l3.4-2.8c0.8,0.6,1.6,1.2,2.3,1.9c0.7,0.7,1.4,1.5,1.9,2.4
					l-2.8,3.4c-0.3,0.4-0.4,1-0.1,1.5c0.5,0.9,0.9,1.9,1.2,2.9c0.2,0.5,0.6,0.9,1.1,0.9l4.4,0.5c0.2,1,0.3,2,0.3,3
					C70.4,75.9,70.4,76.4,70.3,76.9z M76.8,76.9H73c0-0.5,0.1-1,0.1-1.5c0-1.5-0.2-3.1-0.5-4.5c-0.1-0.6-0.6-1-1.2-1l-4.5-0.5
					c-0.2-0.5-0.4-1-0.7-1.7l2.9-3.5c0.4-0.4,0.4-1.1,0.1-1.5c-0.8-1.3-1.8-2.5-2.8-3.6c-1.1-1.1-2.3-2-3.6-2.8
					c-0.5-0.3-1.1-0.2-1.5,0.1l-3.5,2.9c-0.6-0.3-1.2-0.5-1.7-0.7L55.5,54c-0.1-0.6-0.5-1-1-1.2c-2.9-0.7-6.1-0.7-9.1,0
					c-0.5,0.1-1,0.6-1,1.2L44,58.5c-0.6,0.2-1.2,0.5-1.7,0.7l-3.5-2.9c-0.4-0.4-1.1-0.4-1.5-0.1C36,57,34.8,58,33.7,59.1
					c-1.1,1.1-2,2.3-2.8,3.6c-0.3,0.5-0.3,1.1,0.1,1.5l2.9,3.5c-0.2,0.5-0.5,1-0.7,1.7l-4.5,0.4c-0.6,0.1-1,0.5-1.2,1
					c-0.3,1.5-0.5,3-0.5,4.5c0,0.4,0,0.9,0,1.5h-3.9V38.3h53.7V76.9z M76.8,35.7H23.2V23.2h53.7V35.7z"/>
				<circle fill="#FFFFFF" cx="29.4" cy="29.4" r="2.9"/>
				<circle fill="#FFFFFF" cx="37.7" cy="29.4" r="2.9"/>
				<path fill="#FFFFFF" d="M45.9,32.3c1.6,0,2.9-1.3,2.9-2.8c0-1.6-1.3-2.9-2.9-2.9c-1.6,0-2.9,1.3-2.9,2.9
					C43,31,44.3,32.3,45.9,32.3z"/>
			</g>
		</g>
	</g>
</g>
<g id="LABELS">
</g>
</svg>
