<?xml version="1.0" encoding="utf-8"?>
<!-- Generator: Adobe Illustrator 18.1.1, SVG Export Plug-In . SVG Version: 6.00 Build 0)  -->
<svg version="1.1" xmlns="http://www.w3.org/2000/svg" xmlns:xlink="http://www.w3.org/1999/xlink" x="0px" y="0px"
	 viewBox="0 0 100 100" enable-background="new 0 0 100 100" xml:space="preserve">
<g id="GUIDES">
</g>
<g id="ICONS_-_BLACK" display="none">
	<g display="inline">
		<g>
			<g>
				<path d="M76.9,23.6H20.7c-0.7,0-1.3,0.6-1.3,1.3v56.2c0,0.7,0.6,1.3,0.9,1.3h41.8h3.3h11.5c0.7,0,1.3-0.6,1.3-1.3V24.9
					C78.2,24.2,77.6,23.6,76.9,23.6z M75.6,79.9h-6.2h-4.8H22V41.3h53.7V79.9z M75.6,38.7H22V26.2h53.7V38.7z"/>
				<circle cx="28.2" cy="32.4" r="2.9"/>
				<circle cx="36.4" cy="32.4" r="2.9"/>
				<path d="M44.6,35.3c1.6,0,2.9-1.3,2.9-2.8c0-1.6-1.3-2.9-2.9-2.9c-1.6,0-2.9,1.3-2.9,2.9C41.8,34,43.1,35.3,44.6,35.3z"/>
				<path d="M34,68.1c-2.4-1.7-3.9-4.4-3.9-7.3c0-2.9,1.5-5.6,3.9-7.3h-2.9c-1.8,2-2.9,4.5-2.9,7.3c0,2.8,1.1,5.3,2.9,7.3H34z"/>
				<path d="M42.2,68.1H45c-2.4-1.7-3.9-4.4-3.9-7.3c0-2.9,1.5-5.6,3.9-7.3h-2.9c-1.8,2-2.9,4.5-2.9,7.3
					C39.3,63.5,40.4,66.1,42.2,68.1z"/>
				<path d="M62.8,68.1c3.8,0,7-3.3,7-7.3c0-4-3.1-7.3-7-7.3c-3.8,0-7,3.3-7,7.3C55.9,64.8,59,68.1,62.8,68.1z M62.8,55.4
					c2.8,0,5.1,2.4,5.1,5.3s-2.3,5.3-5.1,5.3c-2.8,0-5.1-2.4-5.1-5.3S60,55.4,62.8,55.4z"/>
				<path d="M53.2,68.1h2.9c-2.4-1.7-3.9-4.4-3.9-7.3c0-2.9,1.5-5.6,3.9-7.3h-2.9c-1.8,2-2.9,4.5-2.9,7.3
					C50.3,63.5,51.4,66.1,53.2,68.1z"/>
				<path d="M47.7,68.1h2.9c-2.4-1.7-3.9-4.4-3.9-7.3c0-2.9,1.5-5.6,3.9-7.3h-2.9c-1.8,2-2.9,4.5-2.9,7.3
					C44.8,63.5,45.9,66.1,47.7,68.1z"/>
				<path d="M36.7,68.1h2.9c-2.4-1.7-3.9-4.4-3.9-7.3c0-2.9,1.5-5.6,3.9-7.3h-2.9c-1.8,2-2.9,4.5-2.9,7.3
					C33.7,63.5,34.8,66.1,36.7,68.1z"/>
			</g>
		</g>
	</g>
</g>
<g id="ICONS_-_DARK_PURPLE" display="none">
	<g display="inline">
		<g>
			<g>
				<path fill="#4F2556" d="M76.9,23.6H20.7c-0.7,0-1.3,0.6-1.3,1.3v56.2c0,0.7,0.6,1.3,0.9,1.3h41.8h3.3h11.5
					c0.7,0,1.3-0.6,1.3-1.3V24.9C78.2,24.2,77.6,23.6,76.9,23.6z M75.6,79.9h-6.2h-4.8H22V41.3h53.7V79.9z M75.6,38.7H22V26.2h53.7
					V38.7z"/>
				<circle fill="#4F2556" cx="28.2" cy="32.4" r="2.9"/>
				<circle fill="#4F2556" cx="36.4" cy="32.4" r="2.9"/>
				<path fill="#4F2556" d="M44.6,35.3c1.6,0,2.9-1.3,2.9-2.8c0-1.6-1.3-2.9-2.9-2.9c-1.6,0-2.9,1.3-2.9,2.9
					C41.8,34,43.1,35.3,44.6,35.3z"/>
				<path fill="#4F2556" d="M34,68.1c-2.4-1.7-3.9-4.4-3.9-7.3c0-2.9,1.5-5.6,3.9-7.3h-2.9c-1.8,2-2.9,4.5-2.9,7.3
					c0,2.8,1.1,5.3,2.9,7.3H34z"/>
				<path fill="#4F2556" d="M42.2,68.1H45c-2.4-1.7-3.9-4.4-3.9-7.3c0-2.9,1.5-5.6,3.9-7.3h-2.9c-1.8,2-2.9,4.5-2.9,7.3
					C39.3,63.5,40.4,66.1,42.2,68.1z"/>
				<path fill="#4F2556" d="M62.8,68.1c3.8,0,7-3.3,7-7.3c0-4-3.1-7.3-7-7.3c-3.8,0-7,3.3-7,7.3C55.9,64.8,59,68.1,62.8,68.1z
					 M62.8,55.4c2.8,0,5.1,2.4,5.1,5.3s-2.3,5.3-5.1,5.3c-2.8,0-5.1-2.4-5.1-5.3S60,55.4,62.8,55.4z"/>
				<path fill="#4F2556" d="M53.2,68.1h2.9c-2.4-1.7-3.9-4.4-3.9-7.3c0-2.9,1.5-5.6,3.9-7.3h-2.9c-1.8,2-2.9,4.5-2.9,7.3
					C50.3,63.5,51.4,66.1,53.2,68.1z"/>
				<path fill="#4F2556" d="M47.7,68.1h2.9c-2.4-1.7-3.9-4.4-3.9-7.3c0-2.9,1.5-5.6,3.9-7.3h-2.9c-1.8,2-2.9,4.5-2.9,7.3
					C44.8,63.5,45.9,66.1,47.7,68.1z"/>
				<path fill="#4F2556" d="M36.7,68.1h2.9c-2.4-1.7-3.9-4.4-3.9-7.3c0-2.9,1.5-5.6,3.9-7.3h-2.9c-1.8,2-2.9,4.5-2.9,7.3
					C33.7,63.5,34.8,66.1,36.7,68.1z"/>
			</g>
		</g>
	</g>
</g>
<g id="ICONS_-_WARM_GREY" display="none">
	<g display="inline">
		<g>
			<g>
				<path fill="#534C63" d="M76.9,23.6H20.7c-0.7,0-1.3,0.6-1.3,1.3v56.2c0,0.7,0.6,1.3,0.9,1.3h41.8h3.3h11.5
					c0.7,0,1.3-0.6,1.3-1.3V24.9C78.2,24.2,77.6,23.6,76.9,23.6z M75.6,79.9h-6.2h-4.8H22V41.3h53.7V79.9z M75.6,38.7H22V26.2h53.7
					V38.7z"/>
				<circle fill="#534C63" cx="28.2" cy="32.4" r="2.9"/>
				<circle fill="#534C63" cx="36.4" cy="32.4" r="2.9"/>
				<path fill="#534C63" d="M44.6,35.3c1.6,0,2.9-1.3,2.9-2.8c0-1.6-1.3-2.9-2.9-2.9c-1.6,0-2.9,1.3-2.9,2.9
					C41.8,34,43.1,35.3,44.6,35.3z"/>
				<path fill="#534C63" d="M34,68.1c-2.4-1.7-3.9-4.4-3.9-7.3c0-2.9,1.5-5.6,3.9-7.3h-2.9c-1.8,2-2.9,4.5-2.9,7.3
					c0,2.8,1.1,5.3,2.9,7.3H34z"/>
				<path fill="#534C63" d="M42.2,68.1H45c-2.4-1.7-3.9-4.4-3.9-7.3c0-2.9,1.5-5.6,3.9-7.3h-2.9c-1.8,2-2.9,4.5-2.9,7.3
					C39.3,63.5,40.4,66.1,42.2,68.1z"/>
				<path fill="#534C63" d="M62.8,68.1c3.8,0,7-3.3,7-7.3c0-4-3.1-7.3-7-7.3c-3.8,0-7,3.3-7,7.3C55.9,64.8,59,68.1,62.8,68.1z
					 M62.8,55.4c2.8,0,5.1,2.4,5.1,5.3s-2.3,5.3-5.1,5.3c-2.8,0-5.1-2.4-5.1-5.3S60,55.4,62.8,55.4z"/>
				<path fill="#534C63" d="M53.2,68.1h2.9c-2.4-1.7-3.9-4.4-3.9-7.3c0-2.9,1.5-5.6,3.9-7.3h-2.9c-1.8,2-2.9,4.5-2.9,7.3
					C50.3,63.5,51.4,66.1,53.2,68.1z"/>
				<path fill="#534C63" d="M47.7,68.1h2.9c-2.4-1.7-3.9-4.4-3.9-7.3c0-2.9,1.5-5.6,3.9-7.3h-2.9c-1.8,2-2.9,4.5-2.9,7.3
					C44.8,63.5,45.9,66.1,47.7,68.1z"/>
				<path fill="#534C63" d="M36.7,68.1h2.9c-2.4-1.7-3.9-4.4-3.9-7.3c0-2.9,1.5-5.6,3.9-7.3h-2.9c-1.8,2-2.9,4.5-2.9,7.3
					C33.7,63.5,34.8,66.1,36.7,68.1z"/>
			</g>
		</g>
	</g>
</g>
<g id="ICONS_-_SKRILL_TEAL" display="none">
	<g display="inline">
		<g>
			<g>
				<path fill="#41AEB5" d="M76.9,23.6H20.7c-0.7,0-1.3,0.6-1.3,1.3v56.2c0,0.7,0.6,1.3,0.9,1.3h41.8h3.3h11.5
					c0.7,0,1.3-0.6,1.3-1.3V24.9C78.2,24.2,77.6,23.6,76.9,23.6z M75.6,79.9h-6.2h-4.8H22V41.3h53.7V79.9z M75.6,38.7H22V26.2h53.7
					V38.7z"/>
				<circle fill="#41AEB5" cx="28.2" cy="32.4" r="2.9"/>
				<circle fill="#41AEB5" cx="36.4" cy="32.4" r="2.9"/>
				<path fill="#41AEB5" d="M44.6,35.3c1.6,0,2.9-1.3,2.9-2.8c0-1.6-1.3-2.9-2.9-2.9c-1.6,0-2.9,1.3-2.9,2.9
					C41.8,34,43.1,35.3,44.6,35.3z"/>
				<path fill="#41AEB5" d="M34,68.1c-2.4-1.7-3.9-4.4-3.9-7.3c0-2.9,1.5-5.6,3.9-7.3h-2.9c-1.8,2-2.9,4.5-2.9,7.3
					c0,2.8,1.1,5.3,2.9,7.3H34z"/>
				<path fill="#41AEB5" d="M42.2,68.1H45c-2.4-1.7-3.9-4.4-3.9-7.3c0-2.9,1.5-5.6,3.9-7.3h-2.9c-1.8,2-2.9,4.5-2.9,7.3
					C39.3,63.5,40.4,66.1,42.2,68.1z"/>
				<path fill="#41AEB5" d="M62.8,68.1c3.8,0,7-3.3,7-7.3c0-4-3.1-7.3-7-7.3c-3.8,0-7,3.3-7,7.3C55.9,64.8,59,68.1,62.8,68.1z
					 M62.8,55.4c2.8,0,5.1,2.4,5.1,5.3s-2.3,5.3-5.1,5.3c-2.8,0-5.1-2.4-5.1-5.3S60,55.4,62.8,55.4z"/>
				<path fill="#41AEB5" d="M53.2,68.1h2.9c-2.4-1.7-3.9-4.4-3.9-7.3c0-2.9,1.5-5.6,3.9-7.3h-2.9c-1.8,2-2.9,4.5-2.9,7.3
					C50.3,63.5,51.4,66.1,53.2,68.1z"/>
				<path fill="#41AEB5" d="M47.7,68.1h2.9c-2.4-1.7-3.9-4.4-3.9-7.3c0-2.9,1.5-5.6,3.9-7.3h-2.9c-1.8,2-2.9,4.5-2.9,7.3
					C44.8,63.5,45.9,66.1,47.7,68.1z"/>
				<path fill="#41AEB5" d="M36.7,68.1h2.9c-2.4-1.7-3.9-4.4-3.9-7.3c0-2.9,1.5-5.6,3.9-7.3h-2.9c-1.8,2-2.9,4.5-2.9,7.3
					C33.7,63.5,34.8,66.1,36.7,68.1z"/>
			</g>
		</g>
	</g>
</g>
<g id="ICONS_-_SKRILL_PURPLE">
	<g>
		<g>
			<g>
				<path fill="#811E68" d="M76.9,23.6H20.7c-0.7,0-1.3,0.6-1.3,1.3v56.2c0,0.7,0.6,1.3,0.9,1.3h41.8h3.3h11.5
					c0.7,0,1.3-0.6,1.3-1.3V24.9C78.2,24.2,77.6,23.6,76.9,23.6z M75.6,79.9h-6.2h-4.8H22V41.3h53.7V79.9z M75.6,38.7H22V26.2h53.7
					V38.7z"/>
				<circle fill="#811E68" cx="28.2" cy="32.4" r="2.9"/>
				<circle fill="#811E68" cx="36.4" cy="32.4" r="2.9"/>
				<path fill="#811E68" d="M44.6,35.3c1.6,0,2.9-1.3,2.9-2.8c0-1.6-1.3-2.9-2.9-2.9c-1.6,0-2.9,1.3-2.9,2.9
					C41.8,34,43.1,35.3,44.6,35.3z"/>
				<path fill="#811E68" d="M34,68.1c-2.4-1.7-3.9-4.4-3.9-7.3c0-2.9,1.5-5.6,3.9-7.3h-2.9c-1.8,2-2.9,4.5-2.9,7.3
					c0,2.8,1.1,5.3,2.9,7.3H34z"/>
				<path fill="#811E68" d="M42.2,68.1H45c-2.4-1.7-3.9-4.4-3.9-7.3c0-2.9,1.5-5.6,3.9-7.3h-2.9c-1.8,2-2.9,4.5-2.9,7.3
					C39.3,63.5,40.4,66.1,42.2,68.1z"/>
				<path fill="#811E68" d="M62.8,68.1c3.8,0,7-3.3,7-7.3c0-4-3.1-7.3-7-7.3c-3.8,0-7,3.3-7,7.3C55.9,64.8,59,68.1,62.8,68.1z
					 M62.8,55.4c2.8,0,5.1,2.4,5.1,5.3s-2.3,5.3-5.1,5.3c-2.8,0-5.1-2.4-5.1-5.3S60,55.4,62.8,55.4z"/>
				<path fill="#811E68" d="M53.2,68.1h2.9c-2.4-1.7-3.9-4.4-3.9-7.3c0-2.9,1.5-5.6,3.9-7.3h-2.9c-1.8,2-2.9,4.5-2.9,7.3
					C50.3,63.5,51.4,66.1,53.2,68.1z"/>
				<path fill="#811E68" d="M47.7,68.1h2.9c-2.4-1.7-3.9-4.4-3.9-7.3c0-2.9,1.5-5.6,3.9-7.3h-2.9c-1.8,2-2.9,4.5-2.9,7.3
					C44.8,63.5,45.9,66.1,47.7,68.1z"/>
				<path fill="#811E68" d="M36.7,68.1h2.9c-2.4-1.7-3.9-4.4-3.9-7.3c0-2.9,1.5-5.6,3.9-7.3h-2.9c-1.8,2-2.9,4.5-2.9,7.3
					C33.7,63.5,34.8,66.1,36.7,68.1z"/>
			</g>
		</g>
	</g>
</g>
<g id="ICONS_-_WHITE" display="none">
	<g display="inline">
		<g>
			<g>
				<path fill="#FFFFFF" d="M76.9,23.6H20.7c-0.7,0-1.3,0.6-1.3,1.3v56.2c0,0.7,0.6,1.3,0.9,1.3h41.8h3.3h11.5
					c0.7,0,1.3-0.6,1.3-1.3V24.9C78.2,24.2,77.6,23.6,76.9,23.6z M75.6,79.9h-6.2h-4.8H22V41.3h53.7V79.9z M75.6,38.7H22V26.2h53.7
					V38.7z"/>
				<circle fill="#FFFFFF" cx="28.2" cy="32.4" r="2.9"/>
				<circle fill="#FFFFFF" cx="36.4" cy="32.4" r="2.9"/>
				<path fill="#FFFFFF" d="M44.6,35.3c1.6,0,2.9-1.3,2.9-2.8c0-1.6-1.3-2.9-2.9-2.9c-1.6,0-2.9,1.3-2.9,2.9
					C41.8,34,43.1,35.3,44.6,35.3z"/>
				<path fill="#FFFFFF" d="M34,68.1c-2.4-1.7-3.9-4.4-3.9-7.3c0-2.9,1.5-5.6,3.9-7.3h-2.9c-1.8,2-2.9,4.5-2.9,7.3
					c0,2.8,1.1,5.3,2.9,7.3H34z"/>
				<path fill="#FFFFFF" d="M42.2,68.1H45c-2.4-1.7-3.9-4.4-3.9-7.3c0-2.9,1.5-5.6,3.9-7.3h-2.9c-1.8,2-2.9,4.5-2.9,7.3
					C39.3,63.5,40.4,66.1,42.2,68.1z"/>
				<path fill="#FFFFFF" d="M62.8,68.1c3.8,0,7-3.3,7-7.3c0-4-3.1-7.3-7-7.3c-3.8,0-7,3.3-7,7.3C55.9,64.8,59,68.1,62.8,68.1z
					 M62.8,55.4c2.8,0,5.1,2.4,5.1,5.3s-2.3,5.3-5.1,5.3c-2.8,0-5.1-2.4-5.1-5.3S60,55.4,62.8,55.4z"/>
				<path fill="#FFFFFF" d="M53.2,68.1h2.9c-2.4-1.7-3.9-4.4-3.9-7.3c0-2.9,1.5-5.6,3.9-7.3h-2.9c-1.8,2-2.9,4.5-2.9,7.3
					C50.3,63.5,51.4,66.1,53.2,68.1z"/>
				<path fill="#FFFFFF" d="M47.7,68.1h2.9c-2.4-1.7-3.9-4.4-3.9-7.3c0-2.9,1.5-5.6,3.9-7.3h-2.9c-1.8,2-2.9,4.5-2.9,7.3
					C44.8,63.5,45.9,66.1,47.7,68.1z"/>
				<path fill="#FFFFFF" d="M36.7,68.1h2.9c-2.4-1.7-3.9-4.4-3.9-7.3c0-2.9,1.5-5.6,3.9-7.3h-2.9c-1.8,2-2.9,4.5-2.9,7.3
					C33.7,63.5,34.8,66.1,36.7,68.1z"/>
			</g>
		</g>
	</g>
</g>
<g id="LABELS">
</g>
</svg>
