<?xml version="1.0" encoding="utf-8"?>
<!-- Generator: Adobe Illustrator 18.1.1, SVG Export Plug-In . SVG Version: 6.00 Build 0)  -->
<svg version="1.1" xmlns="http://www.w3.org/2000/svg" xmlns:xlink="http://www.w3.org/1999/xlink" x="0px" y="0px"
	 viewBox="0 0 100 100" enable-background="new 0 0 100 100" xml:space="preserve">
<g id="GUIDES">
</g>
<g id="ICONS_-_BLACK" display="none">
	<g display="inline">
		<g>
			<g>
				<path d="M79.5,53.3c1.3-1.6,2.1-3.5,2.1-5.5c0-4.7-3.8-8.5-8.5-8.5l-1.3,0c-8,0-13-1-13.7-1.9l-0.1-0.2c0-0.8,0-1.8,0.1-3
					c0.1-0.5,0.1-1,0.2-1.5c0.1-0.8,0.2-1.6,0.3-2.3c0.5-5.6-0.6-10.1-2.8-12.6c-0.9-1-2-1.6-3.1-1.6c0,0-3.7,0-5.4,1.8
					c-0.6,0.7-0.8,1.5-0.7,2.3c0.1,0.6,0.6,6.4-0.7,11c-2,3.7-7.7,10.1-11.8,13.9c-1.1-1.4-2.8-2-4.3-1.6l-8.3,2.2
					c-1,0.3-1.8,0.9-2.3,1.7c-0.5,0.9-0.6,1.9-0.4,2.8l7.1,26.7c0.4,1.6,1.9,2.8,3.6,2.8c0.3,0,0.7,0,1-0.1l8.3-2.2
					c1.8-0.5,3-2.2,3.1-4.3l0-0.2L41.4,72l0.1-0.2c2.3-0.3,5.1-0.3,8.2,0l4.8,0.4c3.3,0.3,6.2,0.5,8.1,0.8c0.8,0.1,1.6,0.2,2.3,0.2
					c3.8,0,6.3-1.3,7.2-3.5c0.1-0.4,0.2-0.7,0.3-1.1l0.2-0.2c2.4-1.2,3.9-3.5,4.1-6.1c0-0.2,0-0.5,0-0.7l0.1-0.3
					c1.6-1.3,2.7-3.2,2.8-5.3c0.1-0.8,0-1.6-0.2-2.3L79.5,53.3z M38,75.2l-8.3,2.2c-0.7,0.2-1.4-0.2-1.5-0.9L21,49.9
					c-0.1-0.3,0-0.7,0.1-0.9c0.2-0.3,0.4-0.5,0.8-0.6l8.3-2.2c0.1,0,0.2,0,0.3,0c0.6,0,1.2,0.4,1.6,1.1l7.1,26.3
					C39.2,74.2,38.8,75,38,75.2z M77,52.1c-0.4,0.4-0.5,1-0.3,1.5c0.3,0.7,0.4,1.4,0.4,2.2c-0.1,1.6-1,3-2.3,3.8
					c-0.5,0.3-0.7,0.8-0.6,1.4c0.1,0.4,0.1,0.7,0.1,1.1c-0.1,1.9-1.4,3.6-3.2,4.2c-0.5,0.2-0.8,0.6-0.9,1.1c0,0.5-0.2,0.9-0.3,1.4
					c-0.6,1.6-3.5,1.8-4.7,1.8c-0.6,0-1.2,0-2-0.1c-1.9-0.2-4.8-0.5-8.2-0.8L50,69.2c-1.7-0.2-3.3-0.2-4.8-0.2
					c-1.7,0-3.2,0.1-4.5,0.3l0,0L35,47.9c4.5-4,10.8-11.1,13.2-15.4c1.6-5.1,1.1-11.1,0.9-12.3l0-0.2c0.3-0.6,2.4-1.1,3.5-1.1
					c0.5,0,1,0.5,1.2,0.7c1.3,1.5,2.6,5,2.2,10.6c-0.1,0.7-0.2,1.3-0.3,2.2l0,0.3c-0.1,0.4-0.1,0.8-0.2,1.3
					c-0.1,1.2-0.1,2.3-0.2,3.2c0,0.5,0.1,1.3,0.8,2C57.8,41,63.4,42,71.7,42c0.8,0,1.2,0,1.4,0c3.2,0,5.9,2.6,5.9,5.9
					C78.9,49.5,78.2,51,77,52.1z"/>
			</g>
		</g>
	</g>
</g>
<g id="ICONS_-_DARK_PURPLE" display="none">
	<g display="inline">
		<g>
			<g>
				<path fill="#4F2556" d="M79.5,53.3c1.3-1.6,2.1-3.5,2.1-5.5c0-4.7-3.8-8.5-8.5-8.5l-1.3,0c-8,0-13-1-13.7-1.9l-0.1-0.2
					c0-0.8,0-1.8,0.1-3c0.1-0.5,0.1-1,0.2-1.5c0.1-0.8,0.2-1.6,0.3-2.3c0.5-5.6-0.6-10.1-2.8-12.6c-0.9-1-2-1.6-3.1-1.6
					c0,0-3.7,0-5.4,1.8c-0.6,0.7-0.8,1.5-0.7,2.3c0.1,0.6,0.6,6.4-0.7,11c-2,3.7-7.7,10.1-11.8,13.9c-1.1-1.4-2.8-2-4.3-1.6
					l-8.3,2.2c-1,0.3-1.8,0.9-2.3,1.7c-0.5,0.9-0.6,1.9-0.4,2.8l7.1,26.7c0.4,1.6,1.9,2.8,3.6,2.8c0.3,0,0.7,0,1-0.1l8.3-2.2
					c1.8-0.5,3-2.2,3.1-4.3l0-0.2L41.4,72l0.1-0.2c2.3-0.3,5.1-0.3,8.2,0l4.8,0.4c3.3,0.3,6.2,0.5,8.1,0.8c0.8,0.1,1.6,0.2,2.3,0.2
					c3.8,0,6.3-1.3,7.2-3.5c0.1-0.4,0.2-0.7,0.3-1.1l0.2-0.2c2.4-1.2,3.9-3.5,4.1-6.1c0-0.2,0-0.5,0-0.7l0.1-0.3
					c1.6-1.3,2.7-3.2,2.8-5.3c0.1-0.8,0-1.6-0.2-2.3L79.5,53.3z M38,75.2l-8.3,2.2c-0.7,0.2-1.4-0.2-1.5-0.9L21,49.9
					c-0.1-0.3,0-0.7,0.1-0.9c0.2-0.3,0.4-0.5,0.8-0.6l8.3-2.2c0.1,0,0.2,0,0.3,0c0.6,0,1.2,0.4,1.6,1.1l7.1,26.3
					C39.2,74.2,38.8,75,38,75.2z M77,52.1c-0.4,0.4-0.5,1-0.3,1.5c0.3,0.7,0.4,1.4,0.4,2.2c-0.1,1.6-1,3-2.3,3.8
					c-0.5,0.3-0.7,0.8-0.6,1.4c0.1,0.4,0.1,0.7,0.1,1.1c-0.1,1.9-1.4,3.6-3.2,4.2c-0.5,0.2-0.8,0.6-0.9,1.1c0,0.5-0.2,0.9-0.3,1.4
					c-0.6,1.6-3.5,1.8-4.7,1.8c-0.6,0-1.2,0-2-0.1c-1.9-0.2-4.8-0.5-8.2-0.8L50,69.2c-1.7-0.2-3.3-0.2-4.8-0.2
					c-1.7,0-3.2,0.1-4.5,0.3l0,0L35,47.9c4.5-4,10.8-11.1,13.2-15.4c1.6-5.1,1.1-11.1,0.9-12.3l0-0.2c0.3-0.6,2.4-1.1,3.5-1.1
					c0.5,0,1,0.5,1.2,0.7c1.3,1.5,2.6,5,2.2,10.6c-0.1,0.7-0.2,1.3-0.3,2.2l0,0.3c-0.1,0.4-0.1,0.8-0.2,1.3
					c-0.1,1.2-0.1,2.3-0.2,3.2c0,0.5,0.1,1.3,0.8,2C57.8,41,63.4,42,71.7,42c0.8,0,1.2,0,1.4,0c3.2,0,5.9,2.6,5.9,5.9
					C78.9,49.5,78.2,51,77,52.1z"/>
			</g>
		</g>
	</g>
</g>
<g id="ICONS_-_WARM_GREY" display="none">
	<g display="inline">
		<g>
			<g>
				<path fill="#534C63" d="M79.5,53.3c1.3-1.6,2.1-3.5,2.1-5.5c0-4.7-3.8-8.5-8.5-8.5l-1.3,0c-8,0-13-1-13.7-1.9l-0.1-0.2
					c0-0.8,0-1.8,0.1-3c0.1-0.5,0.1-1,0.2-1.5c0.1-0.8,0.2-1.6,0.3-2.3c0.5-5.6-0.6-10.1-2.8-12.6c-0.9-1-2-1.6-3.1-1.6
					c0,0-3.7,0-5.4,1.8c-0.6,0.7-0.8,1.5-0.7,2.3c0.1,0.6,0.6,6.4-0.7,11c-2,3.7-7.7,10.1-11.8,13.9c-1.1-1.4-2.8-2-4.3-1.6
					l-8.3,2.2c-1,0.3-1.8,0.9-2.3,1.7c-0.5,0.9-0.6,1.9-0.4,2.8l7.1,26.7c0.4,1.6,1.9,2.8,3.6,2.8c0.3,0,0.7,0,1-0.1l8.3-2.2
					c1.8-0.5,3-2.2,3.1-4.3l0-0.2L41.4,72l0.1-0.2c2.3-0.3,5.1-0.3,8.2,0l4.8,0.4c3.3,0.3,6.2,0.5,8.1,0.8c0.8,0.1,1.6,0.2,2.3,0.2
					c3.8,0,6.3-1.3,7.2-3.5c0.1-0.4,0.2-0.7,0.3-1.1l0.2-0.2c2.4-1.2,3.9-3.5,4.1-6.1c0-0.2,0-0.5,0-0.7l0.1-0.3
					c1.6-1.3,2.7-3.2,2.8-5.3c0.1-0.8,0-1.6-0.2-2.3L79.5,53.3z M38,75.2l-8.3,2.2c-0.7,0.2-1.4-0.2-1.5-0.9L21,49.9
					c-0.1-0.3,0-0.7,0.1-0.9c0.2-0.3,0.4-0.5,0.8-0.6l8.3-2.2c0.1,0,0.2,0,0.3,0c0.6,0,1.2,0.4,1.6,1.1l7.1,26.3
					C39.2,74.2,38.8,75,38,75.2z M77,52.1c-0.4,0.4-0.5,1-0.3,1.5c0.3,0.7,0.4,1.4,0.4,2.2c-0.1,1.6-1,3-2.3,3.8
					c-0.5,0.3-0.7,0.8-0.6,1.4c0.1,0.4,0.1,0.7,0.1,1.1c-0.1,1.9-1.4,3.6-3.2,4.2c-0.5,0.2-0.8,0.6-0.9,1.1c0,0.5-0.2,0.9-0.3,1.4
					c-0.6,1.6-3.5,1.8-4.7,1.8c-0.6,0-1.2,0-2-0.1c-1.9-0.2-4.8-0.5-8.2-0.8L50,69.2c-1.7-0.2-3.3-0.2-4.8-0.2
					c-1.7,0-3.2,0.1-4.5,0.3l0,0L35,47.9c4.5-4,10.8-11.1,13.2-15.4c1.6-5.1,1.1-11.1,0.9-12.3l0-0.2c0.3-0.6,2.4-1.1,3.5-1.1
					c0.5,0,1,0.5,1.2,0.7c1.3,1.5,2.6,5,2.2,10.6c-0.1,0.7-0.2,1.3-0.3,2.2l0,0.3c-0.1,0.4-0.1,0.8-0.2,1.3
					c-0.1,1.2-0.1,2.3-0.2,3.2c0,0.5,0.1,1.3,0.8,2C57.8,41,63.4,42,71.7,42c0.8,0,1.2,0,1.4,0c3.2,0,5.9,2.6,5.9,5.9
					C78.9,49.5,78.2,51,77,52.1z"/>
			</g>
		</g>
	</g>
</g>
<g id="ICONS_-_SKRILL_TEAL" display="none">
	<g display="inline">
		<g>
			<g>
				<path fill="#41AEB5" d="M79.5,53.3c1.3-1.6,2.1-3.5,2.1-5.5c0-4.7-3.8-8.5-8.5-8.5l-1.3,0c-8,0-13-1-13.7-1.9l-0.1-0.2
					c0-0.8,0-1.8,0.1-3c0.1-0.5,0.1-1,0.2-1.5c0.1-0.8,0.2-1.6,0.3-2.3c0.5-5.6-0.6-10.1-2.8-12.6c-0.9-1-2-1.6-3.1-1.6
					c0,0-3.7,0-5.4,1.8c-0.6,0.7-0.8,1.5-0.7,2.3c0.1,0.6,0.6,6.4-0.7,11c-2,3.7-7.7,10.1-11.8,13.9c-1.1-1.4-2.8-2-4.3-1.6
					l-8.3,2.2c-1,0.3-1.8,0.9-2.3,1.7c-0.5,0.9-0.6,1.9-0.4,2.8l7.1,26.7c0.4,1.6,1.9,2.8,3.6,2.8c0.3,0,0.7,0,1-0.1l8.3-2.2
					c1.8-0.5,3-2.2,3.1-4.3l0-0.2L41.4,72l0.1-0.2c2.3-0.3,5.1-0.3,8.2,0l4.8,0.4c3.3,0.3,6.2,0.5,8.1,0.8c0.8,0.1,1.6,0.2,2.3,0.2
					c3.8,0,6.3-1.3,7.2-3.5c0.1-0.4,0.2-0.7,0.3-1.1l0.2-0.2c2.4-1.2,3.9-3.5,4.1-6.1c0-0.2,0-0.5,0-0.7l0.1-0.3
					c1.6-1.3,2.7-3.2,2.8-5.3c0.1-0.8,0-1.6-0.2-2.3L79.5,53.3z M38,75.2l-8.3,2.2c-0.7,0.2-1.4-0.2-1.5-0.9L21,49.9
					c-0.1-0.3,0-0.7,0.1-0.9c0.2-0.3,0.4-0.5,0.8-0.6l8.3-2.2c0.1,0,0.2,0,0.3,0c0.6,0,1.2,0.4,1.6,1.1l7.1,26.3
					C39.2,74.2,38.8,75,38,75.2z M77,52.1c-0.4,0.4-0.5,1-0.3,1.5c0.3,0.7,0.4,1.4,0.4,2.2c-0.1,1.6-1,3-2.3,3.8
					c-0.5,0.3-0.7,0.8-0.6,1.4c0.1,0.4,0.1,0.7,0.1,1.1c-0.1,1.9-1.4,3.6-3.2,4.2c-0.5,0.2-0.8,0.6-0.9,1.1c0,0.5-0.2,0.9-0.3,1.4
					c-0.6,1.6-3.5,1.8-4.7,1.8c-0.6,0-1.2,0-2-0.1c-1.9-0.2-4.8-0.5-8.2-0.8L50,69.2c-1.7-0.2-3.3-0.2-4.8-0.2
					c-1.7,0-3.2,0.1-4.5,0.3l0,0L35,47.9c4.5-4,10.8-11.1,13.2-15.4c1.6-5.1,1.1-11.1,0.9-12.3l0-0.2c0.3-0.6,2.4-1.1,3.5-1.1
					c0.5,0,1,0.5,1.2,0.7c1.3,1.5,2.6,5,2.2,10.6c-0.1,0.7-0.2,1.3-0.3,2.2l0,0.3c-0.1,0.4-0.1,0.8-0.2,1.3
					c-0.1,1.2-0.1,2.3-0.2,3.2c0,0.5,0.1,1.3,0.8,2C57.8,41,63.4,42,71.7,42c0.8,0,1.2,0,1.4,0c3.2,0,5.9,2.6,5.9,5.9
					C78.9,49.5,78.2,51,77,52.1z"/>
			</g>
		</g>
	</g>
</g>
<g id="ICONS_-_SKRILL_PURPLE">
	<g>
		<g>
			<g>
				<path fill="#811E68" d="M79.5,53.3c1.3-1.6,2.1-3.5,2.1-5.5c0-4.7-3.8-8.5-8.5-8.5l-1.3,0c-8,0-13-1-13.7-1.9l-0.1-0.2
					c0-0.8,0-1.8,0.1-3c0.1-0.5,0.1-1,0.2-1.5c0.1-0.8,0.2-1.6,0.3-2.3c0.5-5.6-0.6-10.1-2.8-12.6c-0.9-1-2-1.6-3.1-1.6
					c0,0-3.7,0-5.4,1.8c-0.6,0.7-0.8,1.5-0.7,2.3c0.1,0.6,0.6,6.4-0.7,11c-2,3.7-7.7,10.1-11.8,13.9c-1.1-1.4-2.8-2-4.3-1.6
					l-8.3,2.2c-1,0.3-1.8,0.9-2.3,1.7c-0.5,0.9-0.6,1.9-0.4,2.8l7.1,26.7c0.4,1.6,1.9,2.8,3.6,2.8c0.3,0,0.7,0,1-0.1l8.3-2.2
					c1.8-0.5,3-2.2,3.1-4.3l0-0.2L41.4,72l0.1-0.2c2.3-0.3,5.1-0.3,8.2,0l4.8,0.4c3.3,0.3,6.2,0.5,8.1,0.8c0.8,0.1,1.6,0.2,2.3,0.2
					c3.8,0,6.3-1.3,7.2-3.5c0.1-0.4,0.2-0.7,0.3-1.1l0.2-0.2c2.4-1.2,3.9-3.5,4.1-6.1c0-0.2,0-0.5,0-0.7l0.1-0.3
					c1.6-1.3,2.7-3.2,2.8-5.3c0.1-0.8,0-1.6-0.2-2.3L79.5,53.3z M38,75.2l-8.3,2.2c-0.7,0.2-1.4-0.2-1.5-0.9L21,49.9
					c-0.1-0.3,0-0.7,0.1-0.9c0.2-0.3,0.4-0.5,0.8-0.6l8.3-2.2c0.1,0,0.2,0,0.3,0c0.6,0,1.2,0.4,1.6,1.1l7.1,26.3
					C39.2,74.2,38.8,75,38,75.2z M77,52.1c-0.4,0.4-0.5,1-0.3,1.5c0.3,0.7,0.4,1.4,0.4,2.2c-0.1,1.6-1,3-2.3,3.8
					c-0.5,0.3-0.7,0.8-0.6,1.4c0.1,0.4,0.1,0.7,0.1,1.1c-0.1,1.9-1.4,3.6-3.2,4.2c-0.5,0.2-0.8,0.6-0.9,1.1c0,0.5-0.2,0.9-0.3,1.4
					c-0.6,1.6-3.5,1.8-4.7,1.8c-0.6,0-1.2,0-2-0.1c-1.9-0.2-4.8-0.5-8.2-0.8L50,69.2c-1.7-0.2-3.3-0.2-4.8-0.2
					c-1.7,0-3.2,0.1-4.5,0.3l0,0L35,47.9c4.5-4,10.8-11.1,13.2-15.4c1.6-5.1,1.1-11.1,0.9-12.3l0-0.2c0.3-0.6,2.4-1.1,3.5-1.1
					c0.5,0,1,0.5,1.2,0.7c1.3,1.5,2.6,5,2.2,10.6c-0.1,0.7-0.2,1.3-0.3,2.2l0,0.3c-0.1,0.4-0.1,0.8-0.2,1.3
					c-0.1,1.2-0.1,2.3-0.2,3.2c0,0.5,0.1,1.3,0.8,2C57.8,41,63.4,42,71.7,42c0.8,0,1.2,0,1.4,0c3.2,0,5.9,2.6,5.9,5.9
					C78.9,49.5,78.2,51,77,52.1z"/>
			</g>
		</g>
	</g>
</g>
<g id="ICONS_-_WHITE" display="none">
	<g display="inline">
		<g>
			<g>
				<path fill="#FFFFFF" d="M79.5,53.3c1.3-1.6,2.1-3.5,2.1-5.5c0-4.7-3.8-8.5-8.5-8.5l-1.3,0c-8,0-13-1-13.7-1.9l-0.1-0.2
					c0-0.8,0-1.8,0.1-3c0.1-0.5,0.1-1,0.2-1.5c0.1-0.8,0.2-1.6,0.3-2.3c0.5-5.6-0.6-10.1-2.8-12.6c-0.9-1-2-1.6-3.1-1.6
					c0,0-3.7,0-5.4,1.8c-0.6,0.7-0.8,1.5-0.7,2.3c0.1,0.6,0.6,6.4-0.7,11c-2,3.7-7.7,10.1-11.8,13.9c-1.1-1.4-2.8-2-4.3-1.6
					l-8.3,2.2c-1,0.3-1.8,0.9-2.3,1.7c-0.5,0.9-0.6,1.9-0.4,2.8l7.1,26.7c0.4,1.6,1.9,2.8,3.6,2.8c0.3,0,0.7,0,1-0.1l8.3-2.2
					c1.8-0.5,3-2.2,3.1-4.3l0-0.2L41.4,72l0.1-0.2c2.3-0.3,5.1-0.3,8.2,0l4.8,0.4c3.3,0.3,6.2,0.5,8.1,0.8c0.8,0.1,1.6,0.2,2.3,0.2
					c3.8,0,6.3-1.3,7.2-3.5c0.1-0.4,0.2-0.7,0.3-1.1l0.2-0.2c2.4-1.2,3.9-3.5,4.1-6.1c0-0.2,0-0.5,0-0.7l0.1-0.3
					c1.6-1.3,2.7-3.2,2.8-5.3c0.1-0.8,0-1.6-0.2-2.3L79.5,53.3z M38,75.2l-8.3,2.2c-0.7,0.2-1.4-0.2-1.5-0.9L21,49.9
					c-0.1-0.3,0-0.7,0.1-0.9c0.2-0.3,0.4-0.5,0.8-0.6l8.3-2.2c0.1,0,0.2,0,0.3,0c0.6,0,1.2,0.4,1.6,1.1l7.1,26.3
					C39.2,74.2,38.8,75,38,75.2z M77,52.1c-0.4,0.4-0.5,1-0.3,1.5c0.3,0.7,0.4,1.4,0.4,2.2c-0.1,1.6-1,3-2.3,3.8
					c-0.5,0.3-0.7,0.8-0.6,1.4c0.1,0.4,0.1,0.7,0.1,1.1c-0.1,1.9-1.4,3.6-3.2,4.2c-0.5,0.2-0.8,0.6-0.9,1.1c0,0.5-0.2,0.9-0.3,1.4
					c-0.6,1.6-3.5,1.8-4.7,1.8c-0.6,0-1.2,0-2-0.1c-1.9-0.2-4.8-0.5-8.2-0.8L50,69.2c-1.7-0.2-3.3-0.2-4.8-0.2
					c-1.7,0-3.2,0.1-4.5,0.3l0,0L35,47.9c4.5-4,10.8-11.1,13.2-15.4c1.6-5.1,1.1-11.1,0.9-12.3l0-0.2c0.3-0.6,2.4-1.1,3.5-1.1
					c0.5,0,1,0.5,1.2,0.7c1.3,1.5,2.6,5,2.2,10.6c-0.1,0.7-0.2,1.3-0.3,2.2l0,0.3c-0.1,0.4-0.1,0.8-0.2,1.3
					c-0.1,1.2-0.1,2.3-0.2,3.2c0,0.5,0.1,1.3,0.8,2C57.8,41,63.4,42,71.7,42c0.8,0,1.2,0,1.4,0c3.2,0,5.9,2.6,5.9,5.9
					C78.9,49.5,78.2,51,77,52.1z"/>
			</g>
		</g>
	</g>
</g>
<g id="LABELS">
</g>
</svg>
