<?xml version="1.0" encoding="utf-8"?>
<!-- Generator: Adobe Illustrator 18.1.1, SVG Export Plug-In . SVG Version: 6.00 Build 0)  -->
<svg version="1.1" xmlns="http://www.w3.org/2000/svg" xmlns:xlink="http://www.w3.org/1999/xlink" x="0px" y="0px"
	 viewBox="0 0 100 100" enable-background="new 0 0 100 100" xml:space="preserve">
<g id="GUIDES">
</g>
<g id="ICONS_-_BLACK" display="none">
	<g display="inline">
		<g>
			<path d="M52,45.7V23.6c9.4,1.1,10.8,8.9,10.8,9.3c0.2,1.1,1.2,1.9,2.3,1.7c0.5-0.1,1-0.4,1.3-0.8c0.3-0.4,0.5-1,0.4-1.5
				c0-0.1-1.9-11.6-14.8-12.8V10c0-1.1-0.9-2-2-2s-2,0.9-2,2v9.5c-11.4,0.8-14.4,8.9-14.4,13.6c0,6.6,4.7,11.7,14.4,15.5V74
				c-8.7-1-12.6-8.3-12.6-10.5c0-1.1-0.9-2-2-2c-1.1,0-2,0.9-2,2c0,4.5,5.9,13.6,16.7,14.6v9.7c0,1.1,0.9,2,2,2s2-0.9,2-2v-9.7
				c10.3-0.8,16.7-7,16.7-16.3C68.7,52,58.5,48,52,45.7z M52,50c7.8,3,12.6,6.1,12.6,11.7c0,7.2-4.6,11.6-12.6,12.3V50z M37.6,33.1
				c0-0.9,0.3-8.6,10.4-9.5v20.6C40.9,41.1,37.6,37.6,37.6,33.1z"/>
		</g>
	</g>
</g>
<g id="ICONS_-_DARK_PURPLE" display="none">
	<g display="inline">
		<g>
			<path fill="#4F2556" d="M52,45.7V23.6c9.4,1.1,10.8,8.9,10.8,9.3c0.2,1.1,1.2,1.9,2.3,1.7c0.5-0.1,1-0.4,1.3-0.8
				c0.3-0.4,0.5-1,0.4-1.5c0-0.1-1.9-11.6-14.8-12.8V10c0-1.1-0.9-2-2-2s-2,0.9-2,2v9.5c-11.4,0.8-14.4,8.9-14.4,13.6
				c0,6.6,4.7,11.7,14.4,15.5V74c-8.7-1-12.6-8.3-12.6-10.5c0-1.1-0.9-2-2-2c-1.1,0-2,0.9-2,2c0,4.5,5.9,13.6,16.7,14.6v9.7
				c0,1.1,0.9,2,2,2s2-0.9,2-2v-9.7c10.3-0.8,16.7-7,16.7-16.3C68.7,52,58.5,48,52,45.7z M52,50c7.8,3,12.6,6.1,12.6,11.7
				c0,7.2-4.6,11.6-12.6,12.3V50z M37.6,33.1c0-0.9,0.3-8.6,10.4-9.5v20.6C40.9,41.1,37.6,37.6,37.6,33.1z"/>
		</g>
	</g>
</g>
<g id="ICONS_-_WARM_GREY" display="none">
	<g display="inline">
		<g>
			<path fill="#534C63" d="M52,45.7V23.6c9.4,1.1,10.8,8.9,10.8,9.3c0.2,1.1,1.2,1.9,2.3,1.7c0.5-0.1,1-0.4,1.3-0.8
				c0.3-0.4,0.5-1,0.4-1.5c0-0.1-1.9-11.6-14.8-12.8V10c0-1.1-0.9-2-2-2s-2,0.9-2,2v9.5c-11.4,0.8-14.4,8.9-14.4,13.6
				c0,6.6,4.7,11.7,14.4,15.5V74c-8.7-1-12.6-8.3-12.6-10.5c0-1.1-0.9-2-2-2c-1.1,0-2,0.9-2,2c0,4.5,5.9,13.6,16.7,14.6v9.7
				c0,1.1,0.9,2,2,2s2-0.9,2-2v-9.7c10.3-0.8,16.7-7,16.7-16.3C68.7,52,58.5,48,52,45.7z M52,50c7.8,3,12.6,6.1,12.6,11.7
				c0,7.2-4.6,11.6-12.6,12.3V50z M37.6,33.1c0-0.9,0.3-8.6,10.4-9.5v20.6C40.9,41.1,37.6,37.6,37.6,33.1z"/>
		</g>
	</g>
</g>
<g id="ICONS_-_SKRILL_TEAL" display="none">
	<g display="inline">
		<g>
			<path fill="#41AEB5" d="M52,45.7V23.6c9.4,1.1,10.8,8.9,10.8,9.3c0.2,1.1,1.2,1.9,2.3,1.7c0.5-0.1,1-0.4,1.3-0.8
				c0.3-0.4,0.5-1,0.4-1.5c0-0.1-1.9-11.6-14.8-12.8V10c0-1.1-0.9-2-2-2s-2,0.9-2,2v9.5c-11.4,0.8-14.4,8.9-14.4,13.6
				c0,6.6,4.7,11.7,14.4,15.5V74c-8.7-1-12.6-8.3-12.6-10.5c0-1.1-0.9-2-2-2c-1.1,0-2,0.9-2,2c0,4.5,5.9,13.6,16.7,14.6v9.7
				c0,1.1,0.9,2,2,2s2-0.9,2-2v-9.7c10.3-0.8,16.7-7,16.7-16.3C68.7,52,58.5,48,52,45.7z M52,50c7.8,3,12.6,6.1,12.6,11.7
				c0,7.2-4.6,11.6-12.6,12.3V50z M37.6,33.1c0-0.9,0.3-8.6,10.4-9.5v20.6C40.9,41.1,37.6,37.6,37.6,33.1z"/>
		</g>
	</g>
</g>
<g id="ICONS_-_SKRILL_PURPLE">
	<g>
		<g>
			<path fill="#811E68" d="M52,45.7V23.6c9.4,1.1,10.8,8.9,10.8,9.3c0.2,1.1,1.2,1.9,2.3,1.7c0.5-0.1,1-0.4,1.3-0.8
				c0.3-0.4,0.5-1,0.4-1.5c0-0.1-1.9-11.6-14.8-12.8V10c0-1.1-0.9-2-2-2s-2,0.9-2,2v9.5c-11.4,0.8-14.4,8.9-14.4,13.6
				c0,6.6,4.7,11.7,14.4,15.5V74c-8.7-1-12.6-8.3-12.6-10.5c0-1.1-0.9-2-2-2c-1.1,0-2,0.9-2,2c0,4.5,5.9,13.6,16.7,14.6v9.7
				c0,1.1,0.9,2,2,2s2-0.9,2-2v-9.7c10.3-0.8,16.7-7,16.7-16.3C68.7,52,58.5,48,52,45.7z M52,50c7.8,3,12.6,6.1,12.6,11.7
				c0,7.2-4.6,11.6-12.6,12.3V50z M37.6,33.1c0-0.9,0.3-8.6,10.4-9.5v20.6C40.9,41.1,37.6,37.6,37.6,33.1z"/>
		</g>
	</g>
</g>
<g id="ICONS_-_WHITE" display="none">
	<g display="inline">
		<g>
			<path fill="#FFFFFF" d="M52,45.7V23.6c9.4,1.1,10.8,8.9,10.8,9.3c0.2,1.1,1.2,1.9,2.3,1.7c0.5-0.1,1-0.4,1.3-0.8
				c0.3-0.4,0.5-1,0.4-1.5c0-0.1-1.9-11.6-14.8-12.8V10c0-1.1-0.9-2-2-2s-2,0.9-2,2v9.5c-11.4,0.8-14.4,8.9-14.4,13.6
				c0,6.6,4.7,11.7,14.4,15.5V74c-8.7-1-12.6-8.3-12.6-10.5c0-1.1-0.9-2-2-2c-1.1,0-2,0.9-2,2c0,4.5,5.9,13.6,16.7,14.6v9.7
				c0,1.1,0.9,2,2,2s2-0.9,2-2v-9.7c10.3-0.8,16.7-7,16.7-16.3C68.7,52,58.5,48,52,45.7z M52,50c7.8,3,12.6,6.1,12.6,11.7
				c0,7.2-4.6,11.6-12.6,12.3V50z M37.6,33.1c0-0.9,0.3-8.6,10.4-9.5v20.6C40.9,41.1,37.6,37.6,37.6,33.1z"/>
		</g>
	</g>
</g>
<g id="LABELS">
</g>
</svg>
