<?xml version="1.0" encoding="utf-8"?>
<!-- Generator: Adobe Illustrator 18.1.1, SVG Export Plug-In . SVG Version: 6.00 Build 0)  -->
<svg version="1.1" xmlns="http://www.w3.org/2000/svg" xmlns:xlink="http://www.w3.org/1999/xlink" x="0px" y="0px"
	 viewBox="0 0 100 100" enable-background="new 0 0 100 100" xml:space="preserve">
<g id="GUIDES">
</g>
<g id="ICONS_-_BLACK" display="none">
	<g display="inline">
		<g>
			<g>
				<path d="M32.6,52.2V22.7c0-1.3-1.1-2.4-2.4-2.4H14.3c-1.3,0-2.4,1.1-2.4,2.4v29.5c0,1.3,1.1,2.4,2.4,2.4h15.9
					C31.6,54.6,32.6,53.5,32.6,52.2z M30.2,52.1H14.4V49h15.7V52.1z M30.2,46.5H14.4V22.8h15.7V46.5z"/>
				<path d="M85.7,45.3H62.9c-1.3,0-2.4,1.1-2.4,2.4v29.5c0,1.3,1.1,2.4,2.4,2.4h22.7c1.3,0,2.4-1.1,2.4-2.4V47.7
					C88,46.4,87,45.3,85.7,45.3z M85.6,77.1H63v-3.7h22.5V77.1z M85.6,70.9H63V47.8h22.5V70.9z"/>
				<path d="M56.5,63.6l-32.4,0l0-5.1c0-0.7-0.6-1.2-1.3-1.2s-1.2,0.6-1.2,1.2l0,7.4l0.1,0.2h34.7h0.1l0,0c0.6,0,1.2-0.6,1.2-1.2
					C57.7,64.1,57.2,63.6,56.5,63.6z"/>
				<path d="M35.8,31.8l38.1,0.1l0,10c0,0.7,0.6,1.2,1.3,1.2s1.2-0.5,1.2-1.1l0.1-12.4l-0.1-0.2l-40.5,0c-0.7,0-1.3,0.5-1.3,1.2
					C34.6,31.3,35.1,31.8,35.8,31.8z"/>
				<path d="M56.4,68c-0.1,0-0.1,0-0.1,0l-37,0c-0.7,0-1.2,0.6-1.2,1.2c0,0.7,0.6,1.2,1.2,1.2h37.1c0,0,0,0,0,0s0,0,0,0h0.1l0,0
					c0.7,0,1.2-0.6,1.2-1.2C57.7,68.6,57.1,68,56.4,68z"/>
			</g>
		</g>
	</g>
</g>
<g id="ICONS_-_DARK_PURPLE" display="none">
	<g display="inline">
		<g>
			<g>
				<path fill="#4F2556" d="M32.6,52.2V22.7c0-1.3-1.1-2.4-2.4-2.4H14.3c-1.3,0-2.4,1.1-2.4,2.4v29.5c0,1.3,1.1,2.4,2.4,2.4h15.9
					C31.6,54.6,32.6,53.5,32.6,52.2z M30.2,52.1H14.4V49h15.7V52.1z M30.2,46.5H14.4V22.8h15.7V46.5z"/>
				<path fill="#4F2556" d="M85.7,45.3H62.9c-1.3,0-2.4,1.1-2.4,2.4v29.5c0,1.3,1.1,2.4,2.4,2.4h22.7c1.3,0,2.4-1.1,2.4-2.4V47.7
					C88,46.4,87,45.3,85.7,45.3z M85.6,77.1H63v-3.7h22.5V77.1z M85.6,70.9H63V47.8h22.5V70.9z"/>
				<path fill="#4F2556" d="M56.5,63.6l-32.4,0l0-5.1c0-0.7-0.6-1.2-1.3-1.2s-1.2,0.6-1.2,1.2l0,7.4l0.1,0.2h34.7h0.1l0,0
					c0.6,0,1.2-0.6,1.2-1.2C57.7,64.1,57.2,63.6,56.5,63.6z"/>
				<path fill="#4F2556" d="M35.8,31.8l38.1,0.1l0,10c0,0.7,0.6,1.2,1.3,1.2s1.2-0.5,1.2-1.1l0.1-12.4l-0.1-0.2l-40.5,0
					c-0.7,0-1.3,0.5-1.3,1.2C34.6,31.3,35.1,31.8,35.8,31.8z"/>
				<path fill="#4F2556" d="M56.4,68c-0.1,0-0.1,0-0.1,0l-37,0c-0.7,0-1.2,0.6-1.2,1.2c0,0.7,0.6,1.2,1.2,1.2h37.1c0,0,0,0,0,0
					s0,0,0,0h0.1l0,0c0.7,0,1.2-0.6,1.2-1.2C57.7,68.6,57.1,68,56.4,68z"/>
			</g>
		</g>
	</g>
</g>
<g id="ICONS_-_WARM_GREY" display="none">
	<g display="inline">
		<g>
			<g>
				<path fill="#534C63" d="M32.6,52.2V22.7c0-1.3-1.1-2.4-2.4-2.4H14.3c-1.3,0-2.4,1.1-2.4,2.4v29.5c0,1.3,1.1,2.4,2.4,2.4h15.9
					C31.6,54.6,32.6,53.5,32.6,52.2z M30.2,52.1H14.4V49h15.7V52.1z M30.2,46.5H14.4V22.8h15.7V46.5z"/>
				<path fill="#534C63" d="M85.7,45.3H62.9c-1.3,0-2.4,1.1-2.4,2.4v29.5c0,1.3,1.1,2.4,2.4,2.4h22.7c1.3,0,2.4-1.1,2.4-2.4V47.7
					C88,46.4,87,45.3,85.7,45.3z M85.6,77.1H63v-3.7h22.5V77.1z M85.6,70.9H63V47.8h22.5V70.9z"/>
				<path fill="#534C63" d="M56.5,63.6l-32.4,0l0-5.1c0-0.7-0.6-1.2-1.3-1.2s-1.2,0.6-1.2,1.2l0,7.4l0.1,0.2h34.7h0.1l0,0
					c0.6,0,1.2-0.6,1.2-1.2C57.7,64.1,57.2,63.6,56.5,63.6z"/>
				<path fill="#534C63" d="M35.8,31.8l38.1,0.1l0,10c0,0.7,0.6,1.2,1.3,1.2s1.2-0.5,1.2-1.1l0.1-12.4l-0.1-0.2l-40.5,0
					c-0.7,0-1.3,0.5-1.3,1.2C34.6,31.3,35.1,31.8,35.8,31.8z"/>
				<path fill="#534C63" d="M56.4,68c-0.1,0-0.1,0-0.1,0l-37,0c-0.7,0-1.2,0.6-1.2,1.2c0,0.7,0.6,1.2,1.2,1.2h37.1c0,0,0,0,0,0
					s0,0,0,0h0.1l0,0c0.7,0,1.2-0.6,1.2-1.2C57.7,68.6,57.1,68,56.4,68z"/>
			</g>
		</g>
	</g>
</g>
<g id="ICONS_-_SKRILL_TEAL" display="none">
	<g display="inline">
		<g>
			<g>
				<path fill="#41AEB5" d="M32.6,52.2V22.7c0-1.3-1.1-2.4-2.4-2.4H14.3c-1.3,0-2.4,1.1-2.4,2.4v29.5c0,1.3,1.1,2.4,2.4,2.4h15.9
					C31.6,54.6,32.6,53.5,32.6,52.2z M30.2,52.1H14.4V49h15.7V52.1z M30.2,46.5H14.4V22.8h15.7V46.5z"/>
				<path fill="#41AEB5" d="M85.7,45.3H62.9c-1.3,0-2.4,1.1-2.4,2.4v29.5c0,1.3,1.1,2.4,2.4,2.4h22.7c1.3,0,2.4-1.1,2.4-2.4V47.7
					C88,46.4,87,45.3,85.7,45.3z M85.6,77.1H63v-3.7h22.5V77.1z M85.6,70.9H63V47.8h22.5V70.9z"/>
				<path fill="#41AEB5" d="M56.5,63.6l-32.4,0l0-5.1c0-0.7-0.6-1.2-1.3-1.2s-1.2,0.6-1.2,1.2l0,7.4l0.1,0.2h34.7h0.1l0,0
					c0.6,0,1.2-0.6,1.2-1.2C57.7,64.1,57.2,63.6,56.5,63.6z"/>
				<path fill="#41AEB5" d="M35.8,31.8l38.1,0.1l0,10c0,0.7,0.6,1.2,1.3,1.2s1.2-0.5,1.2-1.1l0.1-12.4l-0.1-0.2l-40.5,0
					c-0.7,0-1.3,0.5-1.3,1.2C34.6,31.3,35.1,31.8,35.8,31.8z"/>
				<path fill="#41AEB5" d="M56.4,68c-0.1,0-0.1,0-0.1,0l-37,0c-0.7,0-1.2,0.6-1.2,1.2c0,0.7,0.6,1.2,1.2,1.2h37.1c0,0,0,0,0,0
					s0,0,0,0h0.1l0,0c0.7,0,1.2-0.6,1.2-1.2C57.7,68.6,57.1,68,56.4,68z"/>
			</g>
		</g>
	</g>
</g>
<g id="ICONS_-_SKRILL_PURPLE">
	<g>
		<g>
			<g>
				<path fill="#811E68" d="M32.6,52.2V22.7c0-1.3-1.1-2.4-2.4-2.4H14.3c-1.3,0-2.4,1.1-2.4,2.4v29.5c0,1.3,1.1,2.4,2.4,2.4h15.9
					C31.6,54.6,32.6,53.5,32.6,52.2z M30.2,52.1H14.4V49h15.7V52.1z M30.2,46.5H14.4V22.8h15.7V46.5z"/>
				<path fill="#811E68" d="M85.7,45.3H62.9c-1.3,0-2.4,1.1-2.4,2.4v29.5c0,1.3,1.1,2.4,2.4,2.4h22.7c1.3,0,2.4-1.1,2.4-2.4V47.7
					C88,46.4,87,45.3,85.7,45.3z M85.6,77.1H63v-3.7h22.5V77.1z M85.6,70.9H63V47.8h22.5V70.9z"/>
				<path fill="#811E68" d="M56.5,63.6l-32.4,0l0-5.1c0-0.7-0.6-1.2-1.3-1.2s-1.2,0.6-1.2,1.2l0,7.4l0.1,0.2h34.7h0.1l0,0
					c0.6,0,1.2-0.6,1.2-1.2C57.7,64.1,57.2,63.6,56.5,63.6z"/>
				<path fill="#811E68" d="M35.8,31.8l38.1,0.1l0,10c0,0.7,0.6,1.2,1.3,1.2s1.2-0.5,1.2-1.1l0.1-12.4l-0.1-0.2l-40.5,0
					c-0.7,0-1.3,0.5-1.3,1.2C34.6,31.3,35.1,31.8,35.8,31.8z"/>
				<path fill="#811E68" d="M56.4,68c-0.1,0-0.1,0-0.1,0l-37,0c-0.7,0-1.2,0.6-1.2,1.2c0,0.7,0.6,1.2,1.2,1.2h37.1c0,0,0,0,0,0
					s0,0,0,0h0.1l0,0c0.7,0,1.2-0.6,1.2-1.2C57.7,68.6,57.1,68,56.4,68z"/>
			</g>
		</g>
	</g>
</g>
<g id="ICONS_-_WHITE" display="none">
	<g display="inline">
		<g>
			<g>
				<path fill="#FFFFFF" d="M32.6,52.2V22.7c0-1.3-1.1-2.4-2.4-2.4H14.3c-1.3,0-2.4,1.1-2.4,2.4v29.5c0,1.3,1.1,2.4,2.4,2.4h15.9
					C31.6,54.6,32.6,53.5,32.6,52.2z M30.2,52.1H14.4V49h15.7V52.1z M30.2,46.5H14.4V22.8h15.7V46.5z"/>
				<path fill="#FFFFFF" d="M85.7,45.3H62.9c-1.3,0-2.4,1.1-2.4,2.4v29.5c0,1.3,1.1,2.4,2.4,2.4h22.7c1.3,0,2.4-1.1,2.4-2.4V47.7
					C88,46.4,87,45.3,85.7,45.3z M85.6,77.1H63v-3.7h22.5V77.1z M85.6,70.9H63V47.8h22.5V70.9z"/>
				<path fill="#FFFFFF" d="M56.5,63.6l-32.4,0l0-5.1c0-0.7-0.6-1.2-1.3-1.2s-1.2,0.6-1.2,1.2l0,7.4l0.1,0.2h34.7h0.1l0,0
					c0.6,0,1.2-0.6,1.2-1.2C57.7,64.1,57.2,63.6,56.5,63.6z"/>
				<path fill="#FFFFFF" d="M35.8,31.8l38.1,0.1l0,10c0,0.7,0.6,1.2,1.3,1.2s1.2-0.5,1.2-1.1l0.1-12.4l-0.1-0.2l-40.5,0
					c-0.7,0-1.3,0.5-1.3,1.2C34.6,31.3,35.1,31.8,35.8,31.8z"/>
				<path fill="#FFFFFF" d="M56.4,68c-0.1,0-0.1,0-0.1,0l-37,0c-0.7,0-1.2,0.6-1.2,1.2c0,0.7,0.6,1.2,1.2,1.2h37.1c0,0,0,0,0,0
					s0,0,0,0h0.1l0,0c0.7,0,1.2-0.6,1.2-1.2C57.7,68.6,57.1,68,56.4,68z"/>
			</g>
		</g>
	</g>
</g>
<g id="LABELS">
</g>
</svg>
