<?xml version="1.0" encoding="utf-8"?>
<!-- Generator: Adobe Illustrator 18.1.1, SVG Export Plug-In . SVG Version: 6.00 Build 0)  -->
<svg version="1.1" xmlns="http://www.w3.org/2000/svg" xmlns:xlink="http://www.w3.org/1999/xlink" x="0px" y="0px"
	 viewBox="0 0 100 100" enable-background="new 0 0 100 100" xml:space="preserve">
<g id="GUIDES">
</g>
<g id="ICONS_-_BLACK" display="none">
	<g display="inline">
		<g>
			<g>
				<path d="M91.6,55.6l-4.3-23.5c-0.4-2.1-2.3-3.7-4.4-3.7c-0.3,0-0.5,0-0.8,0.1l-6.4,1.2c-2.2,0.4-3.7,2.4-3.7,4.5l-19.7-4.1
					L52,30c-0.7,0-6.1,0.1-9.2,2.3l-13.1,0.9c-0.4-1.7-1.7-3.2-3.6-3.5l-6.4-1.2c-0.3-0.1-0.5-0.1-0.8-0.1c-2.2,0-4,1.6-4.4,3.7
					l-4.3,23.5c-0.5,2.4,1.2,4.8,3.6,5.3l6.4,1.2c0.3,0.1,0.5,0.1,0.8,0.1c1.4,0,2.6-0.6,3.5-1.6c4.4,3.2,18.1,13.1,18.2,13.1
					c1.6,1.2,3.9,1.9,5.9,1.9c1.8,0,3.3-0.5,4.6-1.4c0.7,0.3,1.5,0.5,2.3,0.5c1.9,0,3.9-0.9,4.9-2.5c2.6,0.8,5.1,0,6.5-2
					c0.2-0.3,0.4-0.6,0.5-1c0.2,0,0.5,0.1,0.7,0.1c2.1,0,4.4-1.5,5.2-3.6c0.6-1.4,0.5-2.9-0.4-4.2l1.9-1.6l1.7-1.3
					c0.4,2.1,2.3,3.6,4.4,3.6c0.3,0,0.5,0,0.8-0.1l6.4-1.2c1.2-0.2,2.2-0.9,2.9-1.9S91.8,56.8,91.6,55.6z M22.9,57.9
					c-0.1,0.3-0.2,0.6-0.3,0.8c-0.4,0.6-1.2,1-2,0.8l-6.4-1.2c-1.1-0.2-1.8-1.3-1.6-2.3l4.3-23.5c0.2-1,1-1.6,2-1.6
					c0.1,0,0.2,0,0.4,0l6.4,1.2c0.8,0.2,1.4,0.8,1.6,1.5c0,0,0,0.1,0,0.2c0,0.2,0,0.4,0,0.6L22.9,57.9z M70.8,64.5
					c-0.5,1.1-1.8,2.1-3,2.1c-0.4,0-0.7-0.1-0.9-0.4c-0.4-0.4-1.1-0.5-1.6-0.2c-0.5,0.3-0.7,1-0.5,1.5c0.1,0.1,0,0.5-0.3,1
					c-0.2,0.4-1,1.2-2.4,1.2c-0.7,0-1.4-0.2-2.2-0.6c-0.4-0.2-0.8-0.2-1.2,0c-0.4,0.2-0.6,0.6-0.6,1c-0.1,1.1-1.6,1.8-2.9,1.8
					c-0.7,0-1.2-0.2-1.6-0.5c-0.5-0.4-1.2-0.3-1.6,0.1c-1.2,1.1-2.6,1.3-3.6,1.3c-1.6,0-3.3-0.5-4.5-1.4
					c-0.1-0.1-14.7-10.6-18.6-13.4l4.1-22.4L40.4,35c-1.7,2.8-5.7,9.9-3.5,12.3c1,1.1,2.9,1.8,4.8,1.8c2.4,0,4.5-1.1,5.9-3
					c1.4-2.1,2.8-2.9,3.5-3.2l1,1.2l18.4,18.4C71,63.1,71.2,63.8,70.8,64.5z M75.5,55.8l-0.1-0.4c-0.3,0-0.5,0.1-0.8,0.3L71.5,58
					c-0.4,0.3-0.6,0.7-0.6,1.1L52.1,40.4l-0.1-0.1l-0.6,0.1c-0.2,0-0.9,0.1-2,0.7c-1.1,0.6-2.4,1.7-3.8,3.7c-1.1,1.6-2.7,2-3.8,2
					c-1.3,0-2.5-0.5-2.9-1c-0.5-1,1.6-6.2,4.4-10.5c0.1-0.2,0.3-0.3,0.4-0.5c0.6-0.5,1.4-1,2.3-1.3c2.1-0.7,4.6-0.9,5.9-0.9
					l20.5,4.3l3.4,18.5c0,0,0,0,0,0L75.5,55.8z M88.8,57.5c-0.3,0.4-0.8,0.7-1.3,0.8l-6.4,1.2c-1.1,0.2-2.1-0.5-2.3-1.6l-4.3-23.5
					c-0.2-1.1,0.5-2.1,1.6-2.3l6.4-1.2c0.1,0,0.2,0,0.4,0c1,0,1.8,0.7,2,1.6L89.1,56C89.2,56.6,89.1,57.1,88.8,57.5z"/>
			</g>
		</g>
	</g>
</g>
<g id="ICONS_-_DARK_PURPLE" display="none">
	<g display="inline">
		<g>
			<g>
				<path fill="#4F2556" d="M91.6,55.6l-4.3-23.5c-0.4-2.1-2.3-3.7-4.4-3.7c-0.3,0-0.5,0-0.8,0.1l-6.4,1.2c-2.2,0.4-3.7,2.4-3.7,4.5
					l-19.7-4.1L52,30c-0.7,0-6.1,0.1-9.2,2.3l-13.1,0.9c-0.4-1.7-1.7-3.2-3.6-3.5l-6.4-1.2c-0.3-0.1-0.5-0.1-0.8-0.1
					c-2.2,0-4,1.6-4.4,3.7l-4.3,23.5c-0.5,2.4,1.2,4.8,3.6,5.3l6.4,1.2c0.3,0.1,0.5,0.1,0.8,0.1c1.4,0,2.6-0.6,3.5-1.6
					c4.4,3.2,18.1,13.1,18.2,13.1c1.6,1.2,3.9,1.9,5.9,1.9c1.8,0,3.3-0.5,4.6-1.4c0.7,0.3,1.5,0.5,2.3,0.5c1.9,0,3.9-0.9,4.9-2.5
					c2.6,0.8,5.1,0,6.5-2c0.2-0.3,0.4-0.6,0.5-1c0.2,0,0.5,0.1,0.7,0.1c2.1,0,4.4-1.5,5.2-3.6c0.6-1.4,0.5-2.9-0.4-4.2l1.9-1.6
					l1.7-1.3c0.4,2.1,2.3,3.6,4.4,3.6c0.3,0,0.5,0,0.8-0.1l6.4-1.2c1.2-0.2,2.2-0.9,2.9-1.9S91.8,56.8,91.6,55.6z M22.9,57.9
					c-0.1,0.3-0.2,0.6-0.3,0.8c-0.4,0.6-1.2,1-2,0.8l-6.4-1.2c-1.1-0.2-1.8-1.3-1.6-2.3l4.3-23.5c0.2-1,1-1.6,2-1.6
					c0.1,0,0.2,0,0.4,0l6.4,1.2c0.8,0.2,1.4,0.8,1.6,1.5c0,0,0,0.1,0,0.2c0,0.2,0,0.4,0,0.6L22.9,57.9z M70.8,64.5
					c-0.5,1.1-1.8,2.1-3,2.1c-0.4,0-0.7-0.1-0.9-0.4c-0.4-0.4-1.1-0.5-1.6-0.2c-0.5,0.3-0.7,1-0.5,1.5c0.1,0.1,0,0.5-0.3,1
					c-0.2,0.4-1,1.2-2.4,1.2c-0.7,0-1.4-0.2-2.2-0.6c-0.4-0.2-0.8-0.2-1.2,0c-0.4,0.2-0.6,0.6-0.6,1c-0.1,1.1-1.6,1.8-2.9,1.8
					c-0.7,0-1.2-0.2-1.6-0.5c-0.5-0.4-1.2-0.3-1.6,0.1c-1.2,1.1-2.6,1.3-3.6,1.3c-1.6,0-3.3-0.5-4.5-1.4
					c-0.1-0.1-14.7-10.6-18.6-13.4l4.1-22.4L40.4,35c-1.7,2.8-5.7,9.9-3.5,12.3c1,1.1,2.9,1.8,4.8,1.8c2.4,0,4.5-1.1,5.9-3
					c1.4-2.1,2.8-2.9,3.5-3.2l1,1.2l18.4,18.4C71,63.1,71.2,63.8,70.8,64.5z M75.5,55.8l-0.1-0.4c-0.3,0-0.5,0.1-0.8,0.3L71.5,58
					c-0.4,0.3-0.6,0.7-0.6,1.1L52.1,40.4l-0.1-0.1l-0.6,0.1c-0.2,0-0.9,0.1-2,0.7c-1.1,0.6-2.4,1.7-3.8,3.7c-1.1,1.6-2.7,2-3.8,2
					c-1.3,0-2.5-0.5-2.9-1c-0.5-1,1.6-6.2,4.4-10.5c0.1-0.2,0.3-0.3,0.4-0.5c0.6-0.5,1.4-1,2.3-1.3c2.1-0.7,4.6-0.9,5.9-0.9
					l20.5,4.3l3.4,18.5c0,0,0,0,0,0L75.5,55.8z M88.8,57.5c-0.3,0.4-0.8,0.7-1.3,0.8l-6.4,1.2c-1.1,0.2-2.1-0.5-2.3-1.6l-4.3-23.5
					c-0.2-1.1,0.5-2.1,1.6-2.3l6.4-1.2c0.1,0,0.2,0,0.4,0c1,0,1.8,0.7,2,1.6L89.1,56C89.2,56.6,89.1,57.1,88.8,57.5z"/>
			</g>
		</g>
	</g>
</g>
<g id="ICONS_-_WARM_GREY" display="none">
	<g display="inline">
		<g>
			<g>
				<path fill="#534C63" d="M91.6,55.6l-4.3-23.5c-0.4-2.1-2.3-3.7-4.4-3.7c-0.3,0-0.5,0-0.8,0.1l-6.4,1.2c-2.2,0.4-3.7,2.4-3.7,4.5
					l-19.7-4.1L52,30c-0.7,0-6.1,0.1-9.2,2.3l-13.1,0.9c-0.4-1.7-1.7-3.2-3.6-3.5l-6.4-1.2c-0.3-0.1-0.5-0.1-0.8-0.1
					c-2.2,0-4,1.6-4.4,3.7l-4.3,23.5c-0.5,2.4,1.2,4.8,3.6,5.3l6.4,1.2c0.3,0.1,0.5,0.1,0.8,0.1c1.4,0,2.6-0.6,3.5-1.6
					c4.4,3.2,18.1,13.1,18.2,13.1c1.6,1.2,3.9,1.9,5.9,1.9c1.8,0,3.3-0.5,4.6-1.4c0.7,0.3,1.5,0.5,2.3,0.5c1.9,0,3.9-0.9,4.9-2.5
					c2.6,0.8,5.1,0,6.5-2c0.2-0.3,0.4-0.6,0.5-1c0.2,0,0.5,0.1,0.7,0.1c2.1,0,4.4-1.5,5.2-3.6c0.6-1.4,0.5-2.9-0.4-4.2l1.9-1.6
					l1.7-1.3c0.4,2.1,2.3,3.6,4.4,3.6c0.3,0,0.5,0,0.8-0.1l6.4-1.2c1.2-0.2,2.2-0.9,2.9-1.9S91.8,56.8,91.6,55.6z M22.9,57.9
					c-0.1,0.3-0.2,0.6-0.3,0.8c-0.4,0.6-1.2,1-2,0.8l-6.4-1.2c-1.1-0.2-1.8-1.3-1.6-2.3l4.3-23.5c0.2-1,1-1.6,2-1.6
					c0.1,0,0.2,0,0.4,0l6.4,1.2c0.8,0.2,1.4,0.8,1.6,1.5c0,0,0,0.1,0,0.2c0,0.2,0,0.4,0,0.6L22.9,57.9z M70.8,64.5
					c-0.5,1.1-1.8,2.1-3,2.1c-0.4,0-0.7-0.1-0.9-0.4c-0.4-0.4-1.1-0.5-1.6-0.2c-0.5,0.3-0.7,1-0.5,1.5c0.1,0.1,0,0.5-0.3,1
					c-0.2,0.4-1,1.2-2.4,1.2c-0.7,0-1.4-0.2-2.2-0.6c-0.4-0.2-0.8-0.2-1.2,0c-0.4,0.2-0.6,0.6-0.6,1c-0.1,1.1-1.6,1.8-2.9,1.8
					c-0.7,0-1.2-0.2-1.6-0.5c-0.5-0.4-1.2-0.3-1.6,0.1c-1.2,1.1-2.6,1.3-3.6,1.3c-1.6,0-3.3-0.5-4.5-1.4
					c-0.1-0.1-14.7-10.6-18.6-13.4l4.1-22.4L40.4,35c-1.7,2.8-5.7,9.9-3.5,12.3c1,1.1,2.9,1.8,4.8,1.8c2.4,0,4.5-1.1,5.9-3
					c1.4-2.1,2.8-2.9,3.5-3.2l1,1.2l18.4,18.4C71,63.1,71.2,63.8,70.8,64.5z M75.5,55.8l-0.1-0.4c-0.3,0-0.5,0.1-0.8,0.3L71.5,58
					c-0.4,0.3-0.6,0.7-0.6,1.1L52.1,40.4l-0.1-0.1l-0.6,0.1c-0.2,0-0.9,0.1-2,0.7c-1.1,0.6-2.4,1.7-3.8,3.7c-1.1,1.6-2.7,2-3.8,2
					c-1.3,0-2.5-0.5-2.9-1c-0.5-1,1.6-6.2,4.4-10.5c0.1-0.2,0.3-0.3,0.4-0.5c0.6-0.5,1.4-1,2.3-1.3c2.1-0.7,4.6-0.9,5.9-0.9
					l20.5,4.3l3.4,18.5c0,0,0,0,0,0L75.5,55.8z M88.8,57.5c-0.3,0.4-0.8,0.7-1.3,0.8l-6.4,1.2c-1.1,0.2-2.1-0.5-2.3-1.6l-4.3-23.5
					c-0.2-1.1,0.5-2.1,1.6-2.3l6.4-1.2c0.1,0,0.2,0,0.4,0c1,0,1.8,0.7,2,1.6L89.1,56C89.2,56.6,89.1,57.1,88.8,57.5z"/>
			</g>
		</g>
	</g>
</g>
<g id="ICONS_-_SKRILL_TEAL" display="none">
	<g display="inline">
		<g>
			<g>
				<path fill="#41AEB5" d="M91.6,55.6l-4.3-23.5c-0.4-2.1-2.3-3.7-4.4-3.7c-0.3,0-0.5,0-0.8,0.1l-6.4,1.2c-2.2,0.4-3.7,2.4-3.7,4.5
					l-19.7-4.1L52,30c-0.7,0-6.1,0.1-9.2,2.3l-13.1,0.9c-0.4-1.7-1.7-3.2-3.6-3.5l-6.4-1.2c-0.3-0.1-0.5-0.1-0.8-0.1
					c-2.2,0-4,1.6-4.4,3.7l-4.3,23.5c-0.5,2.4,1.2,4.8,3.6,5.3l6.4,1.2c0.3,0.1,0.5,0.1,0.8,0.1c1.4,0,2.6-0.6,3.5-1.6
					c4.4,3.2,18.1,13.1,18.2,13.1c1.6,1.2,3.9,1.9,5.9,1.9c1.8,0,3.3-0.5,4.6-1.4c0.7,0.3,1.5,0.5,2.3,0.5c1.9,0,3.9-0.9,4.9-2.5
					c2.6,0.8,5.1,0,6.5-2c0.2-0.3,0.4-0.6,0.5-1c0.2,0,0.5,0.1,0.7,0.1c2.1,0,4.4-1.5,5.2-3.6c0.6-1.4,0.5-2.9-0.4-4.2l1.9-1.6
					l1.7-1.3c0.4,2.1,2.3,3.6,4.4,3.6c0.3,0,0.5,0,0.8-0.1l6.4-1.2c1.2-0.2,2.2-0.9,2.9-1.9S91.8,56.8,91.6,55.6z M22.9,57.9
					c-0.1,0.3-0.2,0.6-0.3,0.8c-0.4,0.6-1.2,1-2,0.8l-6.4-1.2c-1.1-0.2-1.8-1.3-1.6-2.3l4.3-23.5c0.2-1,1-1.6,2-1.6
					c0.1,0,0.2,0,0.4,0l6.4,1.2c0.8,0.2,1.4,0.8,1.6,1.5c0,0,0,0.1,0,0.2c0,0.2,0,0.4,0,0.6L22.9,57.9z M70.8,64.5
					c-0.5,1.1-1.8,2.1-3,2.1c-0.4,0-0.7-0.1-0.9-0.4c-0.4-0.4-1.1-0.5-1.6-0.2c-0.5,0.3-0.7,1-0.5,1.5c0.1,0.1,0,0.5-0.3,1
					c-0.2,0.4-1,1.2-2.4,1.2c-0.7,0-1.4-0.2-2.2-0.6c-0.4-0.2-0.8-0.2-1.2,0c-0.4,0.2-0.6,0.6-0.6,1c-0.1,1.1-1.6,1.8-2.9,1.8
					c-0.7,0-1.2-0.2-1.6-0.5c-0.5-0.4-1.2-0.3-1.6,0.1c-1.2,1.1-2.6,1.3-3.6,1.3c-1.6,0-3.3-0.5-4.5-1.4
					c-0.1-0.1-14.7-10.6-18.6-13.4l4.1-22.4L40.4,35c-1.7,2.8-5.7,9.9-3.5,12.3c1,1.1,2.9,1.8,4.8,1.8c2.4,0,4.5-1.1,5.9-3
					c1.4-2.1,2.8-2.9,3.5-3.2l1,1.2l18.4,18.4C71,63.1,71.2,63.8,70.8,64.5z M75.5,55.8l-0.1-0.4c-0.3,0-0.5,0.1-0.8,0.3L71.5,58
					c-0.4,0.3-0.6,0.7-0.6,1.1L52.1,40.4l-0.1-0.1l-0.6,0.1c-0.2,0-0.9,0.1-2,0.7c-1.1,0.6-2.4,1.7-3.8,3.7c-1.1,1.6-2.7,2-3.8,2
					c-1.3,0-2.5-0.5-2.9-1c-0.5-1,1.6-6.2,4.4-10.5c0.1-0.2,0.3-0.3,0.4-0.5c0.6-0.5,1.4-1,2.3-1.3c2.1-0.7,4.6-0.9,5.9-0.9
					l20.5,4.3l3.4,18.5c0,0,0,0,0,0L75.5,55.8z M88.8,57.5c-0.3,0.4-0.8,0.7-1.3,0.8l-6.4,1.2c-1.1,0.2-2.1-0.5-2.3-1.6l-4.3-23.5
					c-0.2-1.1,0.5-2.1,1.6-2.3l6.4-1.2c0.1,0,0.2,0,0.4,0c1,0,1.8,0.7,2,1.6L89.1,56C89.2,56.6,89.1,57.1,88.8,57.5z"/>
			</g>
		</g>
	</g>
</g>
<g id="ICONS_-_SKRILL_PURPLE">
	<g>
		<g>
			<g>
				<path fill="#811E68" d="M91.6,55.6l-4.3-23.5c-0.4-2.1-2.3-3.7-4.4-3.7c-0.3,0-0.5,0-0.8,0.1l-6.4,1.2c-2.2,0.4-3.7,2.4-3.7,4.5
					l-19.7-4.1L52,30c-0.7,0-6.1,0.1-9.2,2.3l-13.1,0.9c-0.4-1.7-1.7-3.2-3.6-3.5l-6.4-1.2c-0.3-0.1-0.5-0.1-0.8-0.1
					c-2.2,0-4,1.6-4.4,3.7l-4.3,23.5c-0.5,2.4,1.2,4.8,3.6,5.3l6.4,1.2c0.3,0.1,0.5,0.1,0.8,0.1c1.4,0,2.6-0.6,3.5-1.6
					c4.4,3.2,18.1,13.1,18.2,13.1c1.6,1.2,3.9,1.9,5.9,1.9c1.8,0,3.3-0.5,4.6-1.4c0.7,0.3,1.5,0.5,2.3,0.5c1.9,0,3.9-0.9,4.9-2.5
					c2.6,0.8,5.1,0,6.5-2c0.2-0.3,0.4-0.6,0.5-1c0.2,0,0.5,0.1,0.7,0.1c2.1,0,4.4-1.5,5.2-3.6c0.6-1.4,0.5-2.9-0.4-4.2l1.9-1.6
					l1.7-1.3c0.4,2.1,2.3,3.6,4.4,3.6c0.3,0,0.5,0,0.8-0.1l6.4-1.2c1.2-0.2,2.2-0.9,2.9-1.9S91.8,56.8,91.6,55.6z M22.9,57.9
					c-0.1,0.3-0.2,0.6-0.3,0.8c-0.4,0.6-1.2,1-2,0.8l-6.4-1.2c-1.1-0.2-1.8-1.3-1.6-2.3l4.3-23.5c0.2-1,1-1.6,2-1.6
					c0.1,0,0.2,0,0.4,0l6.4,1.2c0.8,0.2,1.4,0.8,1.6,1.5c0,0,0,0.1,0,0.2c0,0.2,0,0.4,0,0.6L22.9,57.9z M70.8,64.5
					c-0.5,1.1-1.8,2.1-3,2.1c-0.4,0-0.7-0.1-0.9-0.4c-0.4-0.4-1.1-0.5-1.6-0.2c-0.5,0.3-0.7,1-0.5,1.5c0.1,0.1,0,0.5-0.3,1
					c-0.2,0.4-1,1.2-2.4,1.2c-0.7,0-1.4-0.2-2.2-0.6c-0.4-0.2-0.8-0.2-1.2,0c-0.4,0.2-0.6,0.6-0.6,1c-0.1,1.1-1.6,1.8-2.9,1.8
					c-0.7,0-1.2-0.2-1.6-0.5c-0.5-0.4-1.2-0.3-1.6,0.1c-1.2,1.1-2.6,1.3-3.6,1.3c-1.6,0-3.3-0.5-4.5-1.4
					c-0.1-0.1-14.7-10.6-18.6-13.4l4.1-22.4L40.4,35c-1.7,2.8-5.7,9.9-3.5,12.3c1,1.1,2.9,1.8,4.8,1.8c2.4,0,4.5-1.1,5.9-3
					c1.4-2.1,2.8-2.9,3.5-3.2l1,1.2l18.4,18.4C71,63.1,71.2,63.8,70.8,64.5z M75.5,55.8l-0.1-0.4c-0.3,0-0.5,0.1-0.8,0.3L71.5,58
					c-0.4,0.3-0.6,0.7-0.6,1.1L52.1,40.4l-0.1-0.1l-0.6,0.1c-0.2,0-0.9,0.1-2,0.7c-1.1,0.6-2.4,1.7-3.8,3.7c-1.1,1.6-2.7,2-3.8,2
					c-1.3,0-2.5-0.5-2.9-1c-0.5-1,1.6-6.2,4.4-10.5c0.1-0.2,0.3-0.3,0.4-0.5c0.6-0.5,1.4-1,2.3-1.3c2.1-0.7,4.6-0.9,5.9-0.9
					l20.5,4.3l3.4,18.5c0,0,0,0,0,0L75.5,55.8z M88.8,57.5c-0.3,0.4-0.8,0.7-1.3,0.8l-6.4,1.2c-1.1,0.2-2.1-0.5-2.3-1.6l-4.3-23.5
					c-0.2-1.1,0.5-2.1,1.6-2.3l6.4-1.2c0.1,0,0.2,0,0.4,0c1,0,1.8,0.7,2,1.6L89.1,56C89.2,56.6,89.1,57.1,88.8,57.5z"/>
			</g>
		</g>
	</g>
</g>
<g id="ICONS_-_WHITE" display="none">
	<g display="inline">
		<g>
			<g>
				<path fill="#FFFFFF" d="M91.6,55.6l-4.3-23.5c-0.4-2.1-2.3-3.7-4.4-3.7c-0.3,0-0.5,0-0.8,0.1l-6.4,1.2c-2.2,0.4-3.7,2.4-3.7,4.5
					l-19.7-4.1L52,30c-0.7,0-6.1,0.1-9.2,2.3l-13.1,0.9c-0.4-1.7-1.7-3.2-3.6-3.5l-6.4-1.2c-0.3-0.1-0.5-0.1-0.8-0.1
					c-2.2,0-4,1.6-4.4,3.7l-4.3,23.5c-0.5,2.4,1.2,4.8,3.6,5.3l6.4,1.2c0.3,0.1,0.5,0.1,0.8,0.1c1.4,0,2.6-0.6,3.5-1.6
					c4.4,3.2,18.1,13.1,18.2,13.1c1.6,1.2,3.9,1.9,5.9,1.9c1.8,0,3.3-0.5,4.6-1.4c0.7,0.3,1.5,0.5,2.3,0.5c1.9,0,3.9-0.9,4.9-2.5
					c2.6,0.8,5.1,0,6.5-2c0.2-0.3,0.4-0.6,0.5-1c0.2,0,0.5,0.1,0.7,0.1c2.1,0,4.4-1.5,5.2-3.6c0.6-1.4,0.5-2.9-0.4-4.2l1.9-1.6
					l1.7-1.3c0.4,2.1,2.3,3.6,4.4,3.6c0.3,0,0.5,0,0.8-0.1l6.4-1.2c1.2-0.2,2.2-0.9,2.9-1.9S91.8,56.8,91.6,55.6z M22.9,57.9
					c-0.1,0.3-0.2,0.6-0.3,0.8c-0.4,0.6-1.2,1-2,0.8l-6.4-1.2c-1.1-0.2-1.8-1.3-1.6-2.3l4.3-23.5c0.2-1,1-1.6,2-1.6
					c0.1,0,0.2,0,0.4,0l6.4,1.2c0.8,0.2,1.4,0.8,1.6,1.5c0,0,0,0.1,0,0.2c0,0.2,0,0.4,0,0.6L22.9,57.9z M70.8,64.5
					c-0.5,1.1-1.8,2.1-3,2.1c-0.4,0-0.7-0.1-0.9-0.4c-0.4-0.4-1.1-0.5-1.6-0.2c-0.5,0.3-0.7,1-0.5,1.5c0.1,0.1,0,0.5-0.3,1
					c-0.2,0.4-1,1.2-2.4,1.2c-0.7,0-1.4-0.2-2.2-0.6c-0.4-0.2-0.8-0.2-1.2,0c-0.4,0.2-0.6,0.6-0.6,1c-0.1,1.1-1.6,1.8-2.9,1.8
					c-0.7,0-1.2-0.2-1.6-0.5c-0.5-0.4-1.2-0.3-1.6,0.1c-1.2,1.1-2.6,1.3-3.6,1.3c-1.6,0-3.3-0.5-4.5-1.4
					c-0.1-0.1-14.7-10.6-18.6-13.4l4.1-22.4L40.4,35c-1.7,2.8-5.7,9.9-3.5,12.3c1,1.1,2.9,1.8,4.8,1.8c2.4,0,4.5-1.1,5.9-3
					c1.4-2.1,2.8-2.9,3.5-3.2l1,1.2l18.4,18.4C71,63.1,71.2,63.8,70.8,64.5z M75.5,55.8l-0.1-0.4c-0.3,0-0.5,0.1-0.8,0.3L71.5,58
					c-0.4,0.3-0.6,0.7-0.6,1.1L52.1,40.4l-0.1-0.1l-0.6,0.1c-0.2,0-0.9,0.1-2,0.7c-1.1,0.6-2.4,1.7-3.8,3.7c-1.1,1.6-2.7,2-3.8,2
					c-1.3,0-2.5-0.5-2.9-1c-0.5-1,1.6-6.2,4.4-10.5c0.1-0.2,0.3-0.3,0.4-0.5c0.6-0.5,1.4-1,2.3-1.3c2.1-0.7,4.6-0.9,5.9-0.9
					l20.5,4.3l3.4,18.5c0,0,0,0,0,0L75.5,55.8z M88.8,57.5c-0.3,0.4-0.8,0.7-1.3,0.8l-6.4,1.2c-1.1,0.2-2.1-0.5-2.3-1.6l-4.3-23.5
					c-0.2-1.1,0.5-2.1,1.6-2.3l6.4-1.2c0.1,0,0.2,0,0.4,0c1,0,1.8,0.7,2,1.6L89.1,56C89.2,56.6,89.1,57.1,88.8,57.5z"/>
			</g>
		</g>
	</g>
</g>
<g id="LABELS">
</g>
</svg>
