<?xml version="1.0" encoding="utf-8"?>
<!-- Generator: Adobe Illustrator 18.1.1, SVG Export Plug-In . SVG Version: 6.00 Build 0)  -->
<svg version="1.1" xmlns="http://www.w3.org/2000/svg" xmlns:xlink="http://www.w3.org/1999/xlink" x="0px" y="0px"
	 viewBox="0 0 100 100" enable-background="new 0 0 100 100" xml:space="preserve">
<g id="GUIDES">
</g>
<g id="ICONS_-_BLACK" display="none">
	<g display="inline">
		<g>
			<g>
				<path d="M90,45.5h-7.6v-7.6c0-0.6-0.5-1.2-1.2-1.2c-0.6,0-1.2,0.5-1.2,1.2v7.6l-7.6,0c-0.6,0-1.2,0.5-1.2,1.2
					c0,0.6,0.5,1.2,1.2,1.2h7.6v7.6c0,0.6,0.5,1.2,1.2,1.2c0.6,0,1.2-0.5,1.2-1.2v-7.6H90c0.6,0,1.2-0.5,1.2-1.2
					C91.2,46,90.6,45.5,90,45.5z"/>
			</g>
		</g>
	</g>
	<g display="inline">
		<path d="M55.3,50.7l-2-0.6l1.9-0.9c6.4-2.9,10.6-9.3,10.6-16.3c0-9.9-8-17.9-17.9-17.9c-9.9,0-17.9,8-17.9,17.9
			c0,7,4.2,13.4,10.6,16.3l1.9,0.9l-2,0.6c-4.3,1.3-8.1,3.7-11.2,6.9c-4.9,5.3-7.6,12.7-7.6,20.8c0,0.4,0.1,0.7,0.4,0.9
			c0.2,0.2,0.6,0.4,0.9,0.4h49.7c0.3,0,0.7-0.1,0.9-0.4c0.2-0.3,0.4-0.6,0.4-0.9c0-8.1-2.7-15.5-7.6-20.8
			C63.5,54.4,59.6,52,55.3,50.7z M37.2,43.7c-2.9-2.9-4.5-6.7-4.5-10.8c0-4.1,1.6-7.9,4.5-10.8c2.9-2.9,6.7-4.5,10.8-4.5
			c4.1,0,7.9,1.6,10.8,4.5c2.9,2.9,4.5,6.7,4.5,10.8c0,4.1-1.6,7.9-4.5,10.8c-2.9,2.9-6.7,4.5-10.8,4.5S40.1,46.6,37.2,43.7z
			 M71.4,77.1h-47l0.1-0.8c0.4-6.7,2.8-12.5,6.8-16.8c4.3-4.6,10.2-7.2,16.6-7.2h0c6.4,0,12.3,2.6,16.6,7.2c4,4.3,6.4,10.2,6.8,16.8
			L71.4,77.1z"/>
	</g>
</g>
<g id="ICONS_-_DARK_PURPLE" display="none">
	<g display="inline">
		<g>
			<g>
				<path fill="#4F2556" d="M90,45.5h-7.6v-7.6c0-0.6-0.5-1.2-1.2-1.2c-0.6,0-1.2,0.5-1.2,1.2v7.6l-7.6,0c-0.6,0-1.2,0.5-1.2,1.2
					c0,0.6,0.5,1.2,1.2,1.2h7.6v7.6c0,0.6,0.5,1.2,1.2,1.2c0.6,0,1.2-0.5,1.2-1.2v-7.6H90c0.6,0,1.2-0.5,1.2-1.2
					C91.2,46,90.6,45.5,90,45.5z"/>
			</g>
		</g>
	</g>
	<g display="inline">
		<path fill="#4F2556" d="M55.3,50.7l-2-0.6l1.9-0.9c6.4-2.9,10.6-9.3,10.6-16.3c0-9.9-8-17.9-17.9-17.9c-9.9,0-17.9,8-17.9,17.9
			c0,7,4.2,13.4,10.6,16.3l1.9,0.9l-2,0.6c-4.3,1.3-8.1,3.7-11.2,6.9c-4.9,5.3-7.6,12.7-7.6,20.8c0,0.4,0.1,0.7,0.4,0.9
			c0.2,0.2,0.6,0.4,0.9,0.4h49.7c0.3,0,0.7-0.1,0.9-0.4c0.2-0.3,0.4-0.6,0.4-0.9c0-8.1-2.7-15.5-7.6-20.8
			C63.5,54.4,59.6,52,55.3,50.7z M37.2,43.7c-2.9-2.9-4.5-6.7-4.5-10.8c0-4.1,1.6-7.9,4.5-10.8c2.9-2.9,6.7-4.5,10.8-4.5
			c4.1,0,7.9,1.6,10.8,4.5c2.9,2.9,4.5,6.7,4.5,10.8c0,4.1-1.6,7.9-4.5,10.8c-2.9,2.9-6.7,4.5-10.8,4.5S40.1,46.6,37.2,43.7z
			 M71.4,77.1h-47l0.1-0.8c0.4-6.7,2.8-12.5,6.8-16.8c4.3-4.6,10.2-7.2,16.6-7.2h0c6.4,0,12.3,2.6,16.6,7.2c4,4.3,6.4,10.2,6.8,16.8
			L71.4,77.1z"/>
	</g>
</g>
<g id="ICONS_-_WARM_GREY" display="none">
	<g display="inline">
		<g>
			<g>
				<path fill="#534C63" d="M90,45.5h-7.6v-7.6c0-0.6-0.5-1.2-1.2-1.2c-0.6,0-1.2,0.5-1.2,1.2v7.6l-7.6,0c-0.6,0-1.2,0.5-1.2,1.2
					c0,0.6,0.5,1.2,1.2,1.2h7.6v7.6c0,0.6,0.5,1.2,1.2,1.2c0.6,0,1.2-0.5,1.2-1.2v-7.6H90c0.6,0,1.2-0.5,1.2-1.2
					C91.2,46,90.6,45.5,90,45.5z"/>
			</g>
		</g>
	</g>
	<g display="inline">
		<path fill="#534C63" d="M55.3,50.7l-2-0.6l1.9-0.9c6.4-2.9,10.6-9.3,10.6-16.3c0-9.9-8-17.9-17.9-17.9c-9.9,0-17.9,8-17.9,17.9
			c0,7,4.2,13.4,10.6,16.3l1.9,0.9l-2,0.6c-4.3,1.3-8.1,3.7-11.2,6.9c-4.9,5.3-7.6,12.7-7.6,20.8c0,0.4,0.1,0.7,0.4,0.9
			c0.2,0.2,0.6,0.4,0.9,0.4h49.7c0.3,0,0.7-0.1,0.9-0.4c0.2-0.3,0.4-0.6,0.4-0.9c0-8.1-2.7-15.5-7.6-20.8
			C63.5,54.4,59.6,52,55.3,50.7z M37.2,43.7c-2.9-2.9-4.5-6.7-4.5-10.8c0-4.1,1.6-7.9,4.5-10.8c2.9-2.9,6.7-4.5,10.8-4.5
			c4.1,0,7.9,1.6,10.8,4.5c2.9,2.9,4.5,6.7,4.5,10.8c0,4.1-1.6,7.9-4.5,10.8c-2.9,2.9-6.7,4.5-10.8,4.5S40.1,46.6,37.2,43.7z
			 M71.4,77.1h-47l0.1-0.8c0.4-6.7,2.8-12.5,6.8-16.8c4.3-4.6,10.2-7.2,16.6-7.2h0c6.4,0,12.3,2.6,16.6,7.2c4,4.3,6.4,10.2,6.8,16.8
			L71.4,77.1z"/>
	</g>
</g>
<g id="ICONS_-_SKRILL_TEAL" display="none">
	<g display="inline">
		<g>
			<g>
				<path fill="#41AEB5" d="M90,45.5h-7.6v-7.6c0-0.6-0.5-1.2-1.2-1.2c-0.6,0-1.2,0.5-1.2,1.2v7.6l-7.6,0c-0.6,0-1.2,0.5-1.2,1.2
					c0,0.6,0.5,1.2,1.2,1.2h7.6v7.6c0,0.6,0.5,1.2,1.2,1.2c0.6,0,1.2-0.5,1.2-1.2v-7.6H90c0.6,0,1.2-0.5,1.2-1.2
					C91.2,46,90.6,45.5,90,45.5z"/>
			</g>
		</g>
	</g>
	<g display="inline">
		<path fill="#41AEB5" d="M55.3,50.7l-2-0.6l1.9-0.9c6.4-2.9,10.6-9.3,10.6-16.3c0-9.9-8-17.9-17.9-17.9c-9.9,0-17.9,8-17.9,17.9
			c0,7,4.2,13.4,10.6,16.3l1.9,0.9l-2,0.6c-4.3,1.3-8.1,3.7-11.2,6.9c-4.9,5.3-7.6,12.7-7.6,20.8c0,0.4,0.1,0.7,0.4,0.9
			c0.2,0.2,0.6,0.4,0.9,0.4h49.7c0.3,0,0.7-0.1,0.9-0.4c0.2-0.3,0.4-0.6,0.4-0.9c0-8.1-2.7-15.5-7.6-20.8
			C63.5,54.4,59.6,52,55.3,50.7z M37.2,43.7c-2.9-2.9-4.5-6.7-4.5-10.8c0-4.1,1.6-7.9,4.5-10.8c2.9-2.9,6.7-4.5,10.8-4.5
			c4.1,0,7.9,1.6,10.8,4.5c2.9,2.9,4.5,6.7,4.5,10.8c0,4.1-1.6,7.9-4.5,10.8c-2.9,2.9-6.7,4.5-10.8,4.5S40.1,46.6,37.2,43.7z
			 M71.4,77.1h-47l0.1-0.8c0.4-6.7,2.8-12.5,6.8-16.8c4.3-4.6,10.2-7.2,16.6-7.2h0c6.4,0,12.3,2.6,16.6,7.2c4,4.3,6.4,10.2,6.8,16.8
			L71.4,77.1z"/>
	</g>
</g>
<g id="ICONS_-_SKRILL_PURPLE">
	<g>
		<g>
			<g>
				<path fill="#811E68" d="M90,45.5h-7.6v-7.6c0-0.6-0.5-1.2-1.2-1.2c-0.6,0-1.2,0.5-1.2,1.2v7.6l-7.6,0c-0.6,0-1.2,0.5-1.2,1.2
					c0,0.6,0.5,1.2,1.2,1.2h7.6v7.6c0,0.6,0.5,1.2,1.2,1.2c0.6,0,1.2-0.5,1.2-1.2v-7.6H90c0.6,0,1.2-0.5,1.2-1.2
					C91.2,46,90.6,45.5,90,45.5z"/>
			</g>
		</g>
	</g>
	<g>
		<path fill="#811E68" d="M55.3,50.7l-2-0.6l1.9-0.9c6.4-2.9,10.6-9.3,10.6-16.3c0-9.9-8-17.9-17.9-17.9c-9.9,0-17.9,8-17.9,17.9
			c0,7,4.2,13.4,10.6,16.3l1.9,0.9l-2,0.6c-4.3,1.3-8.1,3.7-11.2,6.9c-4.9,5.3-7.6,12.7-7.6,20.8c0,0.4,0.1,0.7,0.4,0.9
			c0.2,0.2,0.6,0.4,0.9,0.4h49.7c0.3,0,0.7-0.1,0.9-0.4c0.2-0.3,0.4-0.6,0.4-0.9c0-8.1-2.7-15.5-7.6-20.8
			C63.5,54.4,59.6,52,55.3,50.7z M37.2,43.7c-2.9-2.9-4.5-6.7-4.5-10.8c0-4.1,1.6-7.9,4.5-10.8c2.9-2.9,6.7-4.5,10.8-4.5
			c4.1,0,7.9,1.6,10.8,4.5c2.9,2.9,4.5,6.7,4.5,10.8c0,4.1-1.6,7.9-4.5,10.8c-2.9,2.9-6.7,4.5-10.8,4.5S40.1,46.6,37.2,43.7z
			 M71.4,77.1h-47l0.1-0.8c0.4-6.7,2.8-12.5,6.8-16.8c4.3-4.6,10.2-7.2,16.6-7.2h0c6.4,0,12.3,2.6,16.6,7.2c4,4.3,6.4,10.2,6.8,16.8
			L71.4,77.1z"/>
	</g>
</g>
<g id="ICONS_-_WHITE" display="none">
	<g display="inline">
		<g>
			<g>
				<path fill="#FFFFFF" d="M90,45.5h-7.6v-7.6c0-0.6-0.5-1.2-1.2-1.2c-0.6,0-1.2,0.5-1.2,1.2v7.6l-7.6,0c-0.6,0-1.2,0.5-1.2,1.2
					c0,0.6,0.5,1.2,1.2,1.2h7.6v7.6c0,0.6,0.5,1.2,1.2,1.2c0.6,0,1.2-0.5,1.2-1.2v-7.6H90c0.6,0,1.2-0.5,1.2-1.2
					C91.2,46,90.6,45.5,90,45.5z"/>
			</g>
		</g>
	</g>
	<g display="inline">
		<path fill="#FFFFFF" d="M55.3,50.7l-2-0.6l1.9-0.9c6.4-2.9,10.6-9.3,10.6-16.3c0-9.9-8-17.9-17.9-17.9c-9.9,0-17.9,8-17.9,17.9
			c0,7,4.2,13.4,10.6,16.3l1.9,0.9l-2,0.6c-4.3,1.3-8.1,3.7-11.2,6.9c-4.9,5.3-7.6,12.7-7.6,20.8c0,0.4,0.1,0.7,0.4,0.9
			c0.2,0.2,0.6,0.4,0.9,0.4h49.7c0.3,0,0.7-0.1,0.9-0.4c0.2-0.3,0.4-0.6,0.4-0.9c0-8.1-2.7-15.5-7.6-20.8
			C63.5,54.4,59.6,52,55.3,50.7z M37.2,43.7c-2.9-2.9-4.5-6.7-4.5-10.8c0-4.1,1.6-7.9,4.5-10.8c2.9-2.9,6.7-4.5,10.8-4.5
			c4.1,0,7.9,1.6,10.8,4.5c2.9,2.9,4.5,6.7,4.5,10.8c0,4.1-1.6,7.9-4.5,10.8c-2.9,2.9-6.7,4.5-10.8,4.5S40.1,46.6,37.2,43.7z
			 M71.4,77.1h-47l0.1-0.8c0.4-6.7,2.8-12.5,6.8-16.8c4.3-4.6,10.2-7.2,16.6-7.2h0c6.4,0,12.3,2.6,16.6,7.2c4,4.3,6.4,10.2,6.8,16.8
			L71.4,77.1z"/>
	</g>
</g>
<g id="LABELS">
</g>
</svg>
