<?xml version="1.0" encoding="utf-8"?>
<!-- Generator: Adobe Illustrator 18.1.1, SVG Export Plug-In . SVG Version: 6.00 Build 0)  -->
<svg version="1.1" xmlns="http://www.w3.org/2000/svg" xmlns:xlink="http://www.w3.org/1999/xlink" x="0px" y="0px"
	 viewBox="0 0 100 100" enable-background="new 0 0 100 100" xml:space="preserve">
<g id="GUIDES">
</g>
<g id="ICONS_-_BLACK" display="none">
	<g display="inline">
		<g>
			<g>
				<path d="M16,33.1l21.1,0l0.2,0.1l5.3,8.7c0.2,0.4,0.6,0.6,1.1,0.6c0.2,0,0.4-0.1,0.6-0.2c0.6-0.4,0.8-1.1,0.4-1.7L39,31.2
					c-0.2-0.4-0.6-0.6-1.1-0.6H16c-0.7,0-1.2,0.6-1.2,1.2S15.3,33.1,16,33.1z"/>
				<path d="M59.6,33.1h20.1L69.8,43c-0.2,0.2-0.4,0.5-0.4,0.9s0.1,0.6,0.4,0.9c0.2,0.2,0.5,0.4,0.9,0.4s0.6-0.1,0.9-0.4l11.9-11.9
					c0.2-0.2,0.4-0.5,0.4-0.9c0-0.3-0.1-0.6-0.4-0.9L71.5,19.2c-0.2-0.2-0.5-0.4-0.9-0.4s-0.6,0.1-0.9,0.4c-0.2,0.2-0.4,0.5-0.4,0.9
					s0.1,0.6,0.4,0.9l9.7,9.7H58.7c-0.4,0-0.8,0.2-1.1,0.6L37.3,65.1l-0.2,0.1H16c-0.7,0-1.2,0.6-1.2,1.2s0.6,1.2,1.2,1.2H38
					c0.4,0,0.8-0.2,1.1-0.6l20.3-33.8L59.6,33.1z"/>
				<path d="M83.4,65.5L71.5,53.6c-0.2-0.2-0.5-0.4-0.9-0.4c-0.3,0-0.6,0.1-0.9,0.4c-0.2,0.2-0.4,0.5-0.4,0.9c0,0.3,0.1,0.6,0.4,0.9
					l9.8,9.9l-20.1,0L59.3,65l-5.5-8.5c-0.2-0.3-0.6-0.6-1-0.6c-0.2,0-0.5,0.1-0.7,0.2c-0.3,0.2-0.5,0.5-0.5,0.8
					c-0.1,0.3,0,0.7,0.2,0.9l6,9.1c0.2,0.3,0.6,0.6,1,0.6h20.8l-9.7,9.7c-0.2,0.2-0.4,0.5-0.4,0.9c0,0.3,0.1,0.6,0.4,0.9
					c0.2,0.2,0.5,0.4,0.9,0.4s0.6-0.1,0.9-0.4l11.9-11.9c0.2-0.2,0.4-0.5,0.4-0.9S83.7,65.7,83.4,65.5z"/>
			</g>
		</g>
	</g>
</g>
<g id="ICONS_-_DARK_PURPLE" display="none">
	<g display="inline">
		<g>
			<g>
				<path fill="#4F2556" d="M16,33.1l21.1,0l0.2,0.1l5.3,8.7c0.2,0.4,0.6,0.6,1.1,0.6c0.2,0,0.4-0.1,0.6-0.2
					c0.6-0.4,0.8-1.1,0.4-1.7L39,31.2c-0.2-0.4-0.6-0.6-1.1-0.6H16c-0.7,0-1.2,0.6-1.2,1.2S15.3,33.1,16,33.1z"/>
				<path fill="#4F2556" d="M59.6,33.1h20.1L69.8,43c-0.2,0.2-0.4,0.5-0.4,0.9s0.1,0.6,0.4,0.9c0.2,0.2,0.5,0.4,0.9,0.4
					s0.6-0.1,0.9-0.4l11.9-11.9c0.2-0.2,0.4-0.5,0.4-0.9c0-0.3-0.1-0.6-0.4-0.9L71.5,19.2c-0.2-0.2-0.5-0.4-0.9-0.4
					s-0.6,0.1-0.9,0.4c-0.2,0.2-0.4,0.5-0.4,0.9s0.1,0.6,0.4,0.9l9.7,9.7H58.7c-0.4,0-0.8,0.2-1.1,0.6L37.3,65.1l-0.2,0.1H16
					c-0.7,0-1.2,0.6-1.2,1.2s0.6,1.2,1.2,1.2H38c0.4,0,0.8-0.2,1.1-0.6l20.3-33.8L59.6,33.1z"/>
				<path fill="#4F2556" d="M83.4,65.5L71.5,53.6c-0.2-0.2-0.5-0.4-0.9-0.4c-0.3,0-0.6,0.1-0.9,0.4c-0.2,0.2-0.4,0.5-0.4,0.9
					c0,0.3,0.1,0.6,0.4,0.9l9.8,9.9l-20.1,0L59.3,65l-5.5-8.5c-0.2-0.3-0.6-0.6-1-0.6c-0.2,0-0.5,0.1-0.7,0.2
					c-0.3,0.2-0.5,0.5-0.5,0.8c-0.1,0.3,0,0.7,0.2,0.9l6,9.1c0.2,0.3,0.6,0.6,1,0.6h20.8l-9.7,9.7c-0.2,0.2-0.4,0.5-0.4,0.9
					c0,0.3,0.1,0.6,0.4,0.9c0.2,0.2,0.5,0.4,0.9,0.4s0.6-0.1,0.9-0.4l11.9-11.9c0.2-0.2,0.4-0.5,0.4-0.9S83.7,65.7,83.4,65.5z"/>
			</g>
		</g>
	</g>
</g>
<g id="ICONS_-_WARM_GREY" display="none">
	<g display="inline">
		<g>
			<g>
				<path fill="#534C63" d="M16,33.1l21.1,0l0.2,0.1l5.3,8.7c0.2,0.4,0.6,0.6,1.1,0.6c0.2,0,0.4-0.1,0.6-0.2
					c0.6-0.4,0.8-1.1,0.4-1.7L39,31.2c-0.2-0.4-0.6-0.6-1.1-0.6H16c-0.7,0-1.2,0.6-1.2,1.2S15.3,33.1,16,33.1z"/>
				<path fill="#534C63" d="M59.6,33.1h20.1L69.8,43c-0.2,0.2-0.4,0.5-0.4,0.9s0.1,0.6,0.4,0.9c0.2,0.2,0.5,0.4,0.9,0.4
					s0.6-0.1,0.9-0.4l11.9-11.9c0.2-0.2,0.4-0.5,0.4-0.9c0-0.3-0.1-0.6-0.4-0.9L71.5,19.2c-0.2-0.2-0.5-0.4-0.9-0.4
					s-0.6,0.1-0.9,0.4c-0.2,0.2-0.4,0.5-0.4,0.9s0.1,0.6,0.4,0.9l9.7,9.7H58.7c-0.4,0-0.8,0.2-1.1,0.6L37.3,65.1l-0.2,0.1H16
					c-0.7,0-1.2,0.6-1.2,1.2s0.6,1.2,1.2,1.2H38c0.4,0,0.8-0.2,1.1-0.6l20.3-33.8L59.6,33.1z"/>
				<path fill="#534C63" d="M83.4,65.5L71.5,53.6c-0.2-0.2-0.5-0.4-0.9-0.4c-0.3,0-0.6,0.1-0.9,0.4c-0.2,0.2-0.4,0.5-0.4,0.9
					c0,0.3,0.1,0.6,0.4,0.9l9.8,9.9l-20.1,0L59.3,65l-5.5-8.5c-0.2-0.3-0.6-0.6-1-0.6c-0.2,0-0.5,0.1-0.7,0.2
					c-0.3,0.2-0.5,0.5-0.5,0.8c-0.1,0.3,0,0.7,0.2,0.9l6,9.1c0.2,0.3,0.6,0.6,1,0.6h20.8l-9.7,9.7c-0.2,0.2-0.4,0.5-0.4,0.9
					c0,0.3,0.1,0.6,0.4,0.9c0.2,0.2,0.5,0.4,0.9,0.4s0.6-0.1,0.9-0.4l11.9-11.9c0.2-0.2,0.4-0.5,0.4-0.9S83.7,65.7,83.4,65.5z"/>
			</g>
		</g>
	</g>
</g>
<g id="ICONS_-_SKRILL_TEAL" display="none">
	<g display="inline">
		<g>
			<g>
				<path fill="#41AEB5" d="M16,33.1l21.1,0l0.2,0.1l5.3,8.7c0.2,0.4,0.6,0.6,1.1,0.6c0.2,0,0.4-0.1,0.6-0.2
					c0.6-0.4,0.8-1.1,0.4-1.7L39,31.2c-0.2-0.4-0.6-0.6-1.1-0.6H16c-0.7,0-1.2,0.6-1.2,1.2S15.3,33.1,16,33.1z"/>
				<path fill="#41AEB5" d="M59.6,33.1h20.1L69.8,43c-0.2,0.2-0.4,0.5-0.4,0.9s0.1,0.6,0.4,0.9c0.2,0.2,0.5,0.4,0.9,0.4
					s0.6-0.1,0.9-0.4l11.9-11.9c0.2-0.2,0.4-0.5,0.4-0.9c0-0.3-0.1-0.6-0.4-0.9L71.5,19.2c-0.2-0.2-0.5-0.4-0.9-0.4
					s-0.6,0.1-0.9,0.4c-0.2,0.2-0.4,0.5-0.4,0.9s0.1,0.6,0.4,0.9l9.7,9.7H58.7c-0.4,0-0.8,0.2-1.1,0.6L37.3,65.1l-0.2,0.1H16
					c-0.7,0-1.2,0.6-1.2,1.2s0.6,1.2,1.2,1.2H38c0.4,0,0.8-0.2,1.1-0.6l20.3-33.8L59.6,33.1z"/>
				<path fill="#41AEB5" d="M83.4,65.5L71.5,53.6c-0.2-0.2-0.5-0.4-0.9-0.4c-0.3,0-0.6,0.1-0.9,0.4c-0.2,0.2-0.4,0.5-0.4,0.9
					c0,0.3,0.1,0.6,0.4,0.9l9.8,9.9l-20.1,0L59.3,65l-5.5-8.5c-0.2-0.3-0.6-0.6-1-0.6c-0.2,0-0.5,0.1-0.7,0.2
					c-0.3,0.2-0.5,0.5-0.5,0.8c-0.1,0.3,0,0.7,0.2,0.9l6,9.1c0.2,0.3,0.6,0.6,1,0.6h20.8l-9.7,9.7c-0.2,0.2-0.4,0.5-0.4,0.9
					c0,0.3,0.1,0.6,0.4,0.9c0.2,0.2,0.5,0.4,0.9,0.4s0.6-0.1,0.9-0.4l11.9-11.9c0.2-0.2,0.4-0.5,0.4-0.9S83.7,65.7,83.4,65.5z"/>
			</g>
		</g>
	</g>
</g>
<g id="ICONS_-_SKRILL_PURPLE">
	<g>
		<g>
			<g>
				<path fill="#811E68" d="M16,33.1l21.1,0l0.2,0.1l5.3,8.7c0.2,0.4,0.6,0.6,1.1,0.6c0.2,0,0.4-0.1,0.6-0.2
					c0.6-0.4,0.8-1.1,0.4-1.7L39,31.2c-0.2-0.4-0.6-0.6-1.1-0.6H16c-0.7,0-1.2,0.6-1.2,1.2S15.3,33.1,16,33.1z"/>
				<path fill="#811E68" d="M59.6,33.1h20.1L69.8,43c-0.2,0.2-0.4,0.5-0.4,0.9s0.1,0.6,0.4,0.9c0.2,0.2,0.5,0.4,0.9,0.4
					s0.6-0.1,0.9-0.4l11.9-11.9c0.2-0.2,0.4-0.5,0.4-0.9c0-0.3-0.1-0.6-0.4-0.9L71.5,19.2c-0.2-0.2-0.5-0.4-0.9-0.4
					s-0.6,0.1-0.9,0.4c-0.2,0.2-0.4,0.5-0.4,0.9s0.1,0.6,0.4,0.9l9.7,9.7H58.7c-0.4,0-0.8,0.2-1.1,0.6L37.3,65.1l-0.2,0.1H16
					c-0.7,0-1.2,0.6-1.2,1.2s0.6,1.2,1.2,1.2H38c0.4,0,0.8-0.2,1.1-0.6l20.3-33.8L59.6,33.1z"/>
				<path fill="#811E68" d="M83.4,65.5L71.5,53.6c-0.2-0.2-0.5-0.4-0.9-0.4c-0.3,0-0.6,0.1-0.9,0.4c-0.2,0.2-0.4,0.5-0.4,0.9
					c0,0.3,0.1,0.6,0.4,0.9l9.8,9.9l-20.1,0L59.3,65l-5.5-8.5c-0.2-0.3-0.6-0.6-1-0.6c-0.2,0-0.5,0.1-0.7,0.2
					c-0.3,0.2-0.5,0.5-0.5,0.8c-0.1,0.3,0,0.7,0.2,0.9l6,9.1c0.2,0.3,0.6,0.6,1,0.6h20.8l-9.7,9.7c-0.2,0.2-0.4,0.5-0.4,0.9
					c0,0.3,0.1,0.6,0.4,0.9c0.2,0.2,0.5,0.4,0.9,0.4s0.6-0.1,0.9-0.4l11.9-11.9c0.2-0.2,0.4-0.5,0.4-0.9S83.7,65.7,83.4,65.5z"/>
			</g>
		</g>
	</g>
</g>
<g id="ICONS_-_WHITE" display="none">
	<g display="inline">
		<g>
			<g>
				<path fill="#FFFFFF" d="M16,33.1l21.1,0l0.2,0.1l5.3,8.7c0.2,0.4,0.6,0.6,1.1,0.6c0.2,0,0.4-0.1,0.6-0.2
					c0.6-0.4,0.8-1.1,0.4-1.7L39,31.2c-0.2-0.4-0.6-0.6-1.1-0.6H16c-0.7,0-1.2,0.6-1.2,1.2S15.3,33.1,16,33.1z"/>
				<path fill="#FFFFFF" d="M59.6,33.1h20.1L69.8,43c-0.2,0.2-0.4,0.5-0.4,0.9s0.1,0.6,0.4,0.9c0.2,0.2,0.5,0.4,0.9,0.4
					s0.6-0.1,0.9-0.4l11.9-11.9c0.2-0.2,0.4-0.5,0.4-0.9c0-0.3-0.1-0.6-0.4-0.9L71.5,19.2c-0.2-0.2-0.5-0.4-0.9-0.4
					s-0.6,0.1-0.9,0.4c-0.2,0.2-0.4,0.5-0.4,0.9s0.1,0.6,0.4,0.9l9.7,9.7H58.7c-0.4,0-0.8,0.2-1.1,0.6L37.3,65.1l-0.2,0.1H16
					c-0.7,0-1.2,0.6-1.2,1.2s0.6,1.2,1.2,1.2H38c0.4,0,0.8-0.2,1.1-0.6l20.3-33.8L59.6,33.1z"/>
				<path fill="#FFFFFF" d="M83.4,65.5L71.5,53.6c-0.2-0.2-0.5-0.4-0.9-0.4c-0.3,0-0.6,0.1-0.9,0.4c-0.2,0.2-0.4,0.5-0.4,0.9
					c0,0.3,0.1,0.6,0.4,0.9l9.8,9.9l-20.1,0L59.3,65l-5.5-8.5c-0.2-0.3-0.6-0.6-1-0.6c-0.2,0-0.5,0.1-0.7,0.2
					c-0.3,0.2-0.5,0.5-0.5,0.8c-0.1,0.3,0,0.7,0.2,0.9l6,9.1c0.2,0.3,0.6,0.6,1,0.6h20.8l-9.7,9.7c-0.2,0.2-0.4,0.5-0.4,0.9
					c0,0.3,0.1,0.6,0.4,0.9c0.2,0.2,0.5,0.4,0.9,0.4s0.6-0.1,0.9-0.4l11.9-11.9c0.2-0.2,0.4-0.5,0.4-0.9S83.7,65.7,83.4,65.5z"/>
			</g>
		</g>
	</g>
</g>
<g id="LABELS">
</g>
</svg>
