<?xml version="1.0" encoding="utf-8"?>
<!-- Generator: Adobe Illustrator 18.1.1, SVG Export Plug-In . SVG Version: 6.00 Build 0)  -->
<svg version="1.1" xmlns="http://www.w3.org/2000/svg" xmlns:xlink="http://www.w3.org/1999/xlink" x="0px" y="0px"
	 viewBox="0 0 100 100" enable-background="new 0 0 100 100" xml:space="preserve">
<g id="GUIDES">
</g>
<g id="ICONS_-_BLACK" display="none">
	<g display="inline">
		<g>
			<g>
				<path d="M92.9,55.8l-9.7-9.7c-0.2-0.2-0.5-0.4-0.9-0.4c-0.3,0-0.6,0.1-0.9,0.4c-0.2,0.2-0.4,0.5-0.4,0.9c0,0.3,0.1,0.6,0.4,0.9
					l7.6,7.6l-24.6,0c-0.7,0-1.2,0.6-1.2,1.2c0,0.7,0.6,1.2,1.2,1.2l24.6,0l-7.6,7.6c-0.2,0.2-0.4,0.5-0.4,0.9
					c0,0.3,0.1,0.6,0.4,0.9c0.2,0.2,0.5,0.4,0.9,0.4c0.3,0,0.6-0.1,0.9-0.4l9.7-9.7c0.2-0.2,0.4-0.5,0.4-0.9S93.2,56,92.9,55.8z"/>
				<path d="M9.7,68.1l24.6,0c0.7,0,1.2-0.6,1.2-1.2s-0.6-1.2-1.2-1.2l-24.6,0l7.6-7.6c0.2-0.2,0.4-0.5,0.4-0.9
					c0-0.3-0.1-0.6-0.4-0.9c-0.2-0.2-0.5-0.4-0.9-0.4c-0.3,0-0.7,0.1-0.9,0.4L5.9,66c-0.2,0.2-0.4,0.5-0.4,0.9s0.1,0.6,0.4,0.9
					l9.7,9.7c0.2,0.2,0.5,0.4,0.9,0.4c0.3,0,0.6-0.1,0.9-0.4c0.2-0.2,0.4-0.5,0.4-0.9c0-0.3-0.1-0.6-0.4-0.9L9.7,68.1z"/>
				<path d="M24,60.7c0.7,0,1.3-0.6,1.3-1.3V43.2l0-0.4l0.1,0.1c0.6,0.3,1.4,0.5,2.1,0.5h47.6l0,6c0,0.7,0.6,1.3,1.3,1.3
					s1.3-0.6,1.3-1.3l0-7.3c0-0.7-0.6-1.3-1.3-1.3h-3.2v-5.8c0-0.9-0.2-1.3-0.6-1.3h-4.8l0.3-0.6l0.3-0.6c0,0,0-0.1,0-0.1
					c0.1-0.3,0.2-0.7,0.2-0.9c-0.1-0.3-0.3-0.6-0.6-0.8L44.6,18.4c-0.2-0.1-0.4-0.2-0.6-0.2c-0.4,0-0.8,0.2-1,0.6l-8.6,15h-5.5
					c-4.2,0-6,2.4-6,4.7v0c-0.1,0.1-0.1,0.3-0.1,0.4v20.4C22.7,60.1,23.3,60.7,24,60.7z M27.5,36.3h5.3l0,0.1l0,0l-0.4,0.7
					c-0.3,0.6-0.1,1.4,0.5,1.7c0.2,0.1,0.4,0.2,0.6,0.2c0.4,0,0.9-0.2,1.1-0.6l9.8-17.2l21.3,11.1l-2.7,5c-0.3,0.6-0.1,1.4,0.5,1.7
					c0.2,0.1,0.4,0.1,0.6,0.1c0.4,0,0.9-0.2,1.1-0.7l1.1-2.1h4.3v4.5H27.5c-1.2,0-2.2-1-2.2-2.3C25.3,37.3,26.3,36.3,27.5,36.3z"/>
				<path d="M76.4,62.6c-0.7,0-1.3,0.6-1.3,1.3l0,15.9H30.4c-2.8,0-5.1-2.3-5.2-5.2l0-0.6c0-0.7-0.6-1.4-1.3-1.4s-1.3,0.6-1.3,1.4
					v0.7c0,4.2,3.5,7.6,7.7,7.6h46c0.7,0,1.3-0.6,1.3-1.3l0-17.2C77.7,63.2,77.1,62.6,76.4,62.6z"/>
			</g>
		</g>
	</g>
</g>
<g id="ICONS_-_DARK_PURPLE" display="none">
	<g display="inline">
		<g>
			<g>
				<path fill="#4F2556" d="M92.9,55.8l-9.7-9.7c-0.2-0.2-0.5-0.4-0.9-0.4c-0.3,0-0.6,0.1-0.9,0.4c-0.2,0.2-0.4,0.5-0.4,0.9
					c0,0.3,0.1,0.6,0.4,0.9l7.6,7.6l-24.6,0c-0.7,0-1.2,0.6-1.2,1.2c0,0.7,0.6,1.2,1.2,1.2l24.6,0l-7.6,7.6
					c-0.2,0.2-0.4,0.5-0.4,0.9c0,0.3,0.1,0.6,0.4,0.9c0.2,0.2,0.5,0.4,0.9,0.4c0.3,0,0.6-0.1,0.9-0.4l9.7-9.7
					c0.2-0.2,0.4-0.5,0.4-0.9S93.2,56,92.9,55.8z"/>
				<path fill="#4F2556" d="M9.7,68.1l24.6,0c0.7,0,1.2-0.6,1.2-1.2s-0.6-1.2-1.2-1.2l-24.6,0l7.6-7.6c0.2-0.2,0.4-0.5,0.4-0.9
					c0-0.3-0.1-0.6-0.4-0.9c-0.2-0.2-0.5-0.4-0.9-0.4c-0.3,0-0.7,0.1-0.9,0.4L5.9,66c-0.2,0.2-0.4,0.5-0.4,0.9s0.1,0.6,0.4,0.9
					l9.7,9.7c0.2,0.2,0.5,0.4,0.9,0.4c0.3,0,0.6-0.1,0.9-0.4c0.2-0.2,0.4-0.5,0.4-0.9c0-0.3-0.1-0.6-0.4-0.9L9.7,68.1z"/>
				<path fill="#4F2556" d="M24,60.7c0.7,0,1.3-0.6,1.3-1.3V43.2l0-0.4l0.1,0.1c0.6,0.3,1.4,0.5,2.1,0.5h47.6l0,6
					c0,0.7,0.6,1.3,1.3,1.3s1.3-0.6,1.3-1.3l0-7.3c0-0.7-0.6-1.3-1.3-1.3h-3.2v-5.8c0-0.9-0.2-1.3-0.6-1.3h-4.8l0.3-0.6l0.3-0.6
					c0,0,0-0.1,0-0.1c0.1-0.3,0.2-0.7,0.2-0.9c-0.1-0.3-0.3-0.6-0.6-0.8L44.6,18.4c-0.2-0.1-0.4-0.2-0.6-0.2c-0.4,0-0.8,0.2-1,0.6
					l-8.6,15h-5.5c-4.2,0-6,2.4-6,4.7v0c-0.1,0.1-0.1,0.3-0.1,0.4v20.4C22.7,60.1,23.3,60.7,24,60.7z M27.5,36.3h5.3l0,0.1l0,0
					l-0.4,0.7c-0.3,0.6-0.1,1.4,0.5,1.7c0.2,0.1,0.4,0.2,0.6,0.2c0.4,0,0.9-0.2,1.1-0.6l9.8-17.2l21.3,11.1l-2.7,5
					c-0.3,0.6-0.1,1.4,0.5,1.7c0.2,0.1,0.4,0.1,0.6,0.1c0.4,0,0.9-0.2,1.1-0.7l1.1-2.1h4.3v4.5H27.5c-1.2,0-2.2-1-2.2-2.3
					C25.3,37.3,26.3,36.3,27.5,36.3z"/>
				<path fill="#4F2556" d="M76.4,62.6c-0.7,0-1.3,0.6-1.3,1.3l0,15.9H30.4c-2.8,0-5.1-2.3-5.2-5.2l0-0.6c0-0.7-0.6-1.4-1.3-1.4
					s-1.3,0.6-1.3,1.4v0.7c0,4.2,3.5,7.6,7.7,7.6h46c0.7,0,1.3-0.6,1.3-1.3l0-17.2C77.7,63.2,77.1,62.6,76.4,62.6z"/>
			</g>
		</g>
	</g>
</g>
<g id="ICONS_-_WARM_GREY" display="none">
	<g display="inline">
		<g>
			<g>
				<path fill="#534C63" d="M92.9,55.8l-9.7-9.7c-0.2-0.2-0.5-0.4-0.9-0.4c-0.3,0-0.6,0.1-0.9,0.4c-0.2,0.2-0.4,0.5-0.4,0.9
					c0,0.3,0.1,0.6,0.4,0.9l7.6,7.6l-24.6,0c-0.7,0-1.2,0.6-1.2,1.2c0,0.7,0.6,1.2,1.2,1.2l24.6,0l-7.6,7.6
					c-0.2,0.2-0.4,0.5-0.4,0.9c0,0.3,0.1,0.6,0.4,0.9c0.2,0.2,0.5,0.4,0.9,0.4c0.3,0,0.6-0.1,0.9-0.4l9.7-9.7
					c0.2-0.2,0.4-0.5,0.4-0.9S93.2,56,92.9,55.8z"/>
				<path fill="#534C63" d="M9.7,68.1l24.6,0c0.7,0,1.2-0.6,1.2-1.2s-0.6-1.2-1.2-1.2l-24.6,0l7.6-7.6c0.2-0.2,0.4-0.5,0.4-0.9
					c0-0.3-0.1-0.6-0.4-0.9c-0.2-0.2-0.5-0.4-0.9-0.4c-0.3,0-0.7,0.1-0.9,0.4L5.9,66c-0.2,0.2-0.4,0.5-0.4,0.9s0.1,0.6,0.4,0.9
					l9.7,9.7c0.2,0.2,0.5,0.4,0.9,0.4c0.3,0,0.6-0.1,0.9-0.4c0.2-0.2,0.4-0.5,0.4-0.9c0-0.3-0.1-0.6-0.4-0.9L9.7,68.1z"/>
				<path fill="#534C63" d="M24,60.7c0.7,0,1.3-0.6,1.3-1.3V43.2l0-0.4l0.1,0.1c0.6,0.3,1.4,0.5,2.1,0.5h47.6l0,6
					c0,0.7,0.6,1.3,1.3,1.3s1.3-0.6,1.3-1.3l0-7.3c0-0.7-0.6-1.3-1.3-1.3h-3.2v-5.8c0-0.9-0.2-1.3-0.6-1.3h-4.8l0.3-0.6l0.3-0.6
					c0,0,0-0.1,0-0.1c0.1-0.3,0.2-0.7,0.2-0.9c-0.1-0.3-0.3-0.6-0.6-0.8L44.6,18.4c-0.2-0.1-0.4-0.2-0.6-0.2c-0.4,0-0.8,0.2-1,0.6
					l-8.6,15h-5.5c-4.2,0-6,2.4-6,4.7v0c-0.1,0.1-0.1,0.3-0.1,0.4v20.4C22.7,60.1,23.3,60.7,24,60.7z M27.5,36.3h5.3l0,0.1l0,0
					l-0.4,0.7c-0.3,0.6-0.1,1.4,0.5,1.7c0.2,0.1,0.4,0.2,0.6,0.2c0.4,0,0.9-0.2,1.1-0.6l9.8-17.2l21.3,11.1l-2.7,5
					c-0.3,0.6-0.1,1.4,0.5,1.7c0.2,0.1,0.4,0.1,0.6,0.1c0.4,0,0.9-0.2,1.1-0.7l1.1-2.1h4.3v4.5H27.5c-1.2,0-2.2-1-2.2-2.3
					C25.3,37.3,26.3,36.3,27.5,36.3z"/>
				<path fill="#534C63" d="M76.4,62.6c-0.7,0-1.3,0.6-1.3,1.3l0,15.9H30.4c-2.8,0-5.1-2.3-5.2-5.2l0-0.6c0-0.7-0.6-1.4-1.3-1.4
					s-1.3,0.6-1.3,1.4v0.7c0,4.2,3.5,7.6,7.7,7.6h46c0.7,0,1.3-0.6,1.3-1.3l0-17.2C77.7,63.2,77.1,62.6,76.4,62.6z"/>
			</g>
		</g>
	</g>
</g>
<g id="ICONS_-_SKRILL_TEAL" display="none">
	<g display="inline">
		<g>
			<g>
				<path fill="#41AEB5" d="M92.9,55.8l-9.7-9.7c-0.2-0.2-0.5-0.4-0.9-0.4c-0.3,0-0.6,0.1-0.9,0.4c-0.2,0.2-0.4,0.5-0.4,0.9
					c0,0.3,0.1,0.6,0.4,0.9l7.6,7.6l-24.6,0c-0.7,0-1.2,0.6-1.2,1.2c0,0.7,0.6,1.2,1.2,1.2l24.6,0l-7.6,7.6
					c-0.2,0.2-0.4,0.5-0.4,0.9c0,0.3,0.1,0.6,0.4,0.9c0.2,0.2,0.5,0.4,0.9,0.4c0.3,0,0.6-0.1,0.9-0.4l9.7-9.7
					c0.2-0.2,0.4-0.5,0.4-0.9S93.2,56,92.9,55.8z"/>
				<path fill="#41AEB5" d="M9.7,68.1l24.6,0c0.7,0,1.2-0.6,1.2-1.2s-0.6-1.2-1.2-1.2l-24.6,0l7.6-7.6c0.2-0.2,0.4-0.5,0.4-0.9
					c0-0.3-0.1-0.6-0.4-0.9c-0.2-0.2-0.5-0.4-0.9-0.4c-0.3,0-0.7,0.1-0.9,0.4L5.9,66c-0.2,0.2-0.4,0.5-0.4,0.9s0.1,0.6,0.4,0.9
					l9.7,9.7c0.2,0.2,0.5,0.4,0.9,0.4c0.3,0,0.6-0.1,0.9-0.4c0.2-0.2,0.4-0.5,0.4-0.9c0-0.3-0.1-0.6-0.4-0.9L9.7,68.1z"/>
				<path fill="#41AEB5" d="M24,60.7c0.7,0,1.3-0.6,1.3-1.3V43.2l0-0.4l0.1,0.1c0.6,0.3,1.4,0.5,2.1,0.5h47.6l0,6
					c0,0.7,0.6,1.3,1.3,1.3s1.3-0.6,1.3-1.3l0-7.3c0-0.7-0.6-1.3-1.3-1.3h-3.2v-5.8c0-0.9-0.2-1.3-0.6-1.3h-4.8l0.3-0.6l0.3-0.6
					c0,0,0-0.1,0-0.1c0.1-0.3,0.2-0.7,0.2-0.9c-0.1-0.3-0.3-0.6-0.6-0.8L44.6,18.4c-0.2-0.1-0.4-0.2-0.6-0.2c-0.4,0-0.8,0.2-1,0.6
					l-8.6,15h-5.5c-4.2,0-6,2.4-6,4.7v0c-0.1,0.1-0.1,0.3-0.1,0.4v20.4C22.7,60.1,23.3,60.7,24,60.7z M27.5,36.3h5.3l0,0.1l0,0
					l-0.4,0.7c-0.3,0.6-0.1,1.4,0.5,1.7c0.2,0.1,0.4,0.2,0.6,0.2c0.4,0,0.9-0.2,1.1-0.6l9.8-17.2l21.3,11.1l-2.7,5
					c-0.3,0.6-0.1,1.4,0.5,1.7c0.2,0.1,0.4,0.1,0.6,0.1c0.4,0,0.9-0.2,1.1-0.7l1.1-2.1h4.3v4.5H27.5c-1.2,0-2.2-1-2.2-2.3
					C25.3,37.3,26.3,36.3,27.5,36.3z"/>
				<path fill="#41AEB5" d="M76.4,62.6c-0.7,0-1.3,0.6-1.3,1.3l0,15.9H30.4c-2.8,0-5.1-2.3-5.2-5.2l0-0.6c0-0.7-0.6-1.4-1.3-1.4
					s-1.3,0.6-1.3,1.4v0.7c0,4.2,3.5,7.6,7.7,7.6h46c0.7,0,1.3-0.6,1.3-1.3l0-17.2C77.7,63.2,77.1,62.6,76.4,62.6z"/>
			</g>
		</g>
	</g>
</g>
<g id="ICONS_-_SKRILL_PURPLE">
	<g>
		<g>
			<g>
				<path fill="#811E68" d="M92.9,55.8l-9.7-9.7c-0.2-0.2-0.5-0.4-0.9-0.4c-0.3,0-0.6,0.1-0.9,0.4c-0.2,0.2-0.4,0.5-0.4,0.9
					c0,0.3,0.1,0.6,0.4,0.9l7.6,7.6l-24.6,0c-0.7,0-1.2,0.6-1.2,1.2c0,0.7,0.6,1.2,1.2,1.2l24.6,0l-7.6,7.6
					c-0.2,0.2-0.4,0.5-0.4,0.9c0,0.3,0.1,0.6,0.4,0.9c0.2,0.2,0.5,0.4,0.9,0.4c0.3,0,0.6-0.1,0.9-0.4l9.7-9.7
					c0.2-0.2,0.4-0.5,0.4-0.9S93.2,56,92.9,55.8z"/>
				<path fill="#811E68" d="M9.7,68.1l24.6,0c0.7,0,1.2-0.6,1.2-1.2s-0.6-1.2-1.2-1.2l-24.6,0l7.6-7.6c0.2-0.2,0.4-0.5,0.4-0.9
					c0-0.3-0.1-0.6-0.4-0.9c-0.2-0.2-0.5-0.4-0.9-0.4c-0.3,0-0.7,0.1-0.9,0.4L5.9,66c-0.2,0.2-0.4,0.5-0.4,0.9s0.1,0.6,0.4,0.9
					l9.7,9.7c0.2,0.2,0.5,0.4,0.9,0.4c0.3,0,0.6-0.1,0.9-0.4c0.2-0.2,0.4-0.5,0.4-0.9c0-0.3-0.1-0.6-0.4-0.9L9.7,68.1z"/>
				<path fill="#811E68" d="M24,60.7c0.7,0,1.3-0.6,1.3-1.3V43.2l0-0.4l0.1,0.1c0.6,0.3,1.4,0.5,2.1,0.5h47.6l0,6
					c0,0.7,0.6,1.3,1.3,1.3s1.3-0.6,1.3-1.3l0-7.3c0-0.7-0.6-1.3-1.3-1.3h-3.2v-5.8c0-0.9-0.2-1.3-0.6-1.3h-4.8l0.3-0.6l0.3-0.6
					c0,0,0-0.1,0-0.1c0.1-0.3,0.2-0.7,0.2-0.9c-0.1-0.3-0.3-0.6-0.6-0.8L44.6,18.4c-0.2-0.1-0.4-0.2-0.6-0.2c-0.4,0-0.8,0.2-1,0.6
					l-8.6,15h-5.5c-4.2,0-6,2.4-6,4.7v0c-0.1,0.1-0.1,0.3-0.1,0.4v20.4C22.7,60.1,23.3,60.7,24,60.7z M27.5,36.3h5.3l0,0.1l0,0
					l-0.4,0.7c-0.3,0.6-0.1,1.4,0.5,1.7c0.2,0.1,0.4,0.2,0.6,0.2c0.4,0,0.9-0.2,1.1-0.6l9.8-17.2l21.3,11.1l-2.7,5
					c-0.3,0.6-0.1,1.4,0.5,1.7c0.2,0.1,0.4,0.1,0.6,0.1c0.4,0,0.9-0.2,1.1-0.7l1.1-2.1h4.3v4.5H27.5c-1.2,0-2.2-1-2.2-2.3
					C25.3,37.3,26.3,36.3,27.5,36.3z"/>
				<path fill="#811E68" d="M76.4,62.6c-0.7,0-1.3,0.6-1.3,1.3l0,15.9H30.4c-2.8,0-5.1-2.3-5.2-5.2l0-0.6c0-0.7-0.6-1.4-1.3-1.4
					s-1.3,0.6-1.3,1.4v0.7c0,4.2,3.5,7.6,7.7,7.6h46c0.7,0,1.3-0.6,1.3-1.3l0-17.2C77.7,63.2,77.1,62.6,76.4,62.6z"/>
			</g>
		</g>
	</g>
</g>
<g id="ICONS_-_WHITE" display="none">
	<g display="inline">
		<g>
			<g>
				<path fill="#FFFFFF" d="M92.9,55.8l-9.7-9.7c-0.2-0.2-0.5-0.4-0.9-0.4c-0.3,0-0.6,0.1-0.9,0.4c-0.2,0.2-0.4,0.5-0.4,0.9
					c0,0.3,0.1,0.6,0.4,0.9l7.6,7.6l-24.6,0c-0.7,0-1.2,0.6-1.2,1.2c0,0.7,0.6,1.2,1.2,1.2l24.6,0l-7.6,7.6
					c-0.2,0.2-0.4,0.5-0.4,0.9c0,0.3,0.1,0.6,0.4,0.9c0.2,0.2,0.5,0.4,0.9,0.4c0.3,0,0.6-0.1,0.9-0.4l9.7-9.7
					c0.2-0.2,0.4-0.5,0.4-0.9S93.2,56,92.9,55.8z"/>
				<path fill="#FFFFFF" d="M9.7,68.1l24.6,0c0.7,0,1.2-0.6,1.2-1.2s-0.6-1.2-1.2-1.2l-24.6,0l7.6-7.6c0.2-0.2,0.4-0.5,0.4-0.9
					c0-0.3-0.1-0.6-0.4-0.9c-0.2-0.2-0.5-0.4-0.9-0.4c-0.3,0-0.7,0.1-0.9,0.4L5.9,66c-0.2,0.2-0.4,0.5-0.4,0.9s0.1,0.6,0.4,0.9
					l9.7,9.7c0.2,0.2,0.5,0.4,0.9,0.4c0.3,0,0.6-0.1,0.9-0.4c0.2-0.2,0.4-0.5,0.4-0.9c0-0.3-0.1-0.6-0.4-0.9L9.7,68.1z"/>
				<path fill="#FFFFFF" d="M24,60.7c0.7,0,1.3-0.6,1.3-1.3V43.2l0-0.4l0.1,0.1c0.6,0.3,1.4,0.5,2.1,0.5h47.6l0,6
					c0,0.7,0.6,1.3,1.3,1.3s1.3-0.6,1.3-1.3l0-7.3c0-0.7-0.6-1.3-1.3-1.3h-3.2v-5.8c0-0.9-0.2-1.3-0.6-1.3h-4.8l0.3-0.6l0.3-0.6
					c0,0,0-0.1,0-0.1c0.1-0.3,0.2-0.7,0.2-0.9c-0.1-0.3-0.3-0.6-0.6-0.8L44.6,18.4c-0.2-0.1-0.4-0.2-0.6-0.2c-0.4,0-0.8,0.2-1,0.6
					l-8.6,15h-5.5c-4.2,0-6,2.4-6,4.7v0c-0.1,0.1-0.1,0.3-0.1,0.4v20.4C22.7,60.1,23.3,60.7,24,60.7z M27.5,36.3h5.3l0,0.1l0,0
					l-0.4,0.7c-0.3,0.6-0.1,1.4,0.5,1.7c0.2,0.1,0.4,0.2,0.6,0.2c0.4,0,0.9-0.2,1.1-0.6l9.8-17.2l21.3,11.1l-2.7,5
					c-0.3,0.6-0.1,1.4,0.5,1.7c0.2,0.1,0.4,0.1,0.6,0.1c0.4,0,0.9-0.2,1.1-0.7l1.1-2.1h4.3v4.5H27.5c-1.2,0-2.2-1-2.2-2.3
					C25.3,37.3,26.3,36.3,27.5,36.3z"/>
				<path fill="#FFFFFF" d="M76.4,62.6c-0.7,0-1.3,0.6-1.3,1.3l0,15.9H30.4c-2.8,0-5.1-2.3-5.2-5.2l0-0.6c0-0.7-0.6-1.4-1.3-1.4
					s-1.3,0.6-1.3,1.4v0.7c0,4.2,3.5,7.6,7.7,7.6h46c0.7,0,1.3-0.6,1.3-1.3l0-17.2C77.7,63.2,77.1,62.6,76.4,62.6z"/>
			</g>
		</g>
	</g>
</g>
<g id="LABELS">
</g>
</svg>
