<?xml version="1.0" encoding="utf-8"?>
<!-- Generator: Adobe Illustrator 18.1.1, SVG Export Plug-In . SVG Version: 6.00 Build 0)  -->
<svg version="1.1" xmlns="http://www.w3.org/2000/svg" xmlns:xlink="http://www.w3.org/1999/xlink" x="0px" y="0px"
	 viewBox="0 0 100 100" enable-background="new 0 0 100 100" xml:space="preserve">
<g id="GUIDES">
</g>
<g id="ICONS_-_BLACK" display="none">
	<g display="inline">
		<g>
			<path d="M50,82.9c-13.3,0-23.7-4.5-23.7-10.1v-9.1c0-1.5,0.7-3,2.2-4.4l0.2-0.2l-0.2-0.2c-1.4-1.3-2.2-2.8-2.2-4.3v-9.1
				c0-1.5,0.7-3,2.2-4.4l0.2-0.2l-0.2-0.2c-1.4-1.3-2.2-2.8-2.2-4.3v-9.1c0-5.8,10.2-10.1,23.7-10.1c13.5,0,23.7,4.4,23.7,10.1v9.1
				c0,1.5-0.7,2.9-2.2,4.3l-0.2,0.2l0.2,0.2c1.4,1.4,2.2,2.8,2.2,4.4v9.1c0,1.5-0.7,2.9-2.2,4.3l-0.2,0.2l0.2,0.2
				c1.4,1.4,2.2,2.8,2.2,4.4v9.1C73.7,78.4,63.3,82.9,50,82.9z M57.7,73.3c-2,0.3-4.2,0.4-6.3,0.5l-0.3,0v6.9l0.3,0
				c2.2-0.1,4.4-0.2,6.4-0.5l0.3,0v-6.9L57.7,73.3z M42,80.2l0.3,0c2,0.3,4.1,0.5,6.4,0.5l0.3,0v-6.9l-0.3,0c-2.2,0-4.3-0.2-6.3-0.5
				l-0.3,0V80.2z M66.7,71c-1.8,0.8-4,1.4-6.3,1.8l-0.2,0v6.9l0.4-0.1c2.5-0.5,4.6-1.2,6.4-2.1l0.2-0.1l0-6.7L66.7,71z M32.9,77.3
				l0,0.2l0.2,0.1c1.8,0.9,4,1.6,6.4,2.1l0.4,0.1v-6.9l-0.2,0c-2.3-0.5-4.5-1.1-6.3-1.8l-0.4-0.2V77.3z M71.1,68.4
				c-0.5,0.4-1.1,0.9-1.8,1.3l-0.2,0.1l0,0.2l0,6.3l0.5-0.4c1.3-1,1.9-2.1,1.9-3.1V68L71.1,68.4z M28.4,72.7c0,1,0.7,2.1,1.9,3.1
				l0.5,0.4V70l0-0.2l-0.1-0.2c-0.7-0.4-1.3-0.8-1.8-1.3L28.4,68V72.7z M30.3,60.5c-1.2,1-1.9,2.1-1.9,3.2c0,3.9,8.7,8,21.6,8
				c12.9,0,21.6-4.1,21.6-8c0-1-0.7-2.1-1.9-3.2l-0.2-0.1l-0.2,0.1c-4.5,2.7-11.5,4.2-19.4,4.2s-14.9-1.5-19.4-4.2l-0.2-0.1
				L30.3,60.5z M46.5,62.5l0.3,0c1,0.1,2.1,0.1,3.2,0.1c1.1,0,2.2,0,3.2-0.1l0.4,0l-0.1-0.4c0-0.1,0-0.2,0-0.3v-6.3l-0.3,0
				c-1,0.1-2.1,0.1-3.2,0.1c-1.1,0-2.1,0-3.2-0.1l-0.3,0V62.5z M37.5,61.1l0.2,0.1c1.9,0.5,4.1,0.9,6.4,1.2l0.3,0v-6.9l-0.3,0
				c-2.2-0.2-4.4-0.6-6.3-1.1l-0.4-0.1V61.1z M62.2,54.3c-1.9,0.5-4.1,0.8-6.3,1.1l-0.3,0v6.5l0,0.4l0.3,0.1
				c2.3-0.2,4.5-0.6,6.4-1.2l0.2-0.1v-6.9L62.2,54.3z M71.1,50.3c-1.5,1.3-3.6,2.4-6.3,3.3l-0.2,0.1v6.8l0.4-0.2
				c4-1.5,6.5-3.7,6.5-5.6v-4.7L71.1,50.3z M28.4,54.6c0,1.9,2.5,4.1,6.5,5.6l0.4,0.2v-6.8l-0.2-0.1c-2.6-0.9-4.7-2-6.3-3.3
				l-0.5-0.4V54.6z M30.3,42.4c-1.2,1-1.9,2.1-1.9,3.2c0,3.9,8.7,8,21.6,8c12.9,0,21.6-4.1,21.6-8c0-1-0.7-2.1-1.9-3.2l-0.2-0.1
				l-0.2,0.1C64.9,45,57.8,46.6,50,46.6S35.1,45,30.6,42.3l-0.2-0.1L30.3,42.4z M57.7,37c-2,0.3-4.2,0.4-6.3,0.5l-0.3,0v6.9l0.3,0
				c2.2-0.1,4.4-0.2,6.4-0.5l0.3,0V37L57.7,37z M42,43.9l0.3,0c2,0.3,4.1,0.5,6.4,0.5l0.3,0v-6.9l-0.3,0c-2.2,0-4.3-0.2-6.3-0.5
				L42,37V43.9z M66.7,34.7c-1.8,0.8-4,1.4-6.3,1.8l-0.2,0v6.9l0.4-0.1c2.5-0.5,4.6-1.2,6.4-2.1l0.2-0.1l0-6.7L66.7,34.7z M32.9,41
				l0,0.2l0.2,0.1c1.8,0.9,4,1.6,6.4,2.1l0.4,0.1v-6.9l-0.2,0c-2.3-0.5-4.5-1.1-6.3-1.8l-0.4-0.2V41z M71.1,32.1
				c-0.5,0.4-1.1,0.9-1.8,1.3l-0.2,0.1l0,0.2l0,6.3l0.5-0.4c1.3-1,1.9-2.1,1.9-3.1v-4.7L71.1,32.1z M28.4,36.4c0,1,0.7,2.1,1.9,3.1
				l0.5,0.4v-6.2l0-0.2l-0.1-0.2c-0.7-0.4-1.3-0.8-1.8-1.3l-0.5-0.4V36.4z M50,19.4c-12.9,0-21.6,4.1-21.6,8s8.7,8,21.6,8
				c12.9,0,21.6-4.1,21.6-8S62.9,19.4,50,19.4z"/>
		</g>
	</g>
</g>
<g id="ICONS_-_DARK_PURPLE" display="none">
	<g display="inline">
		<g>
			<path fill="#4F2556" d="M50,82.9c-13.3,0-23.7-4.5-23.7-10.1v-9.1c0-1.5,0.7-3,2.2-4.4l0.2-0.2l-0.2-0.2
				c-1.4-1.3-2.2-2.8-2.2-4.3v-9.1c0-1.5,0.7-3,2.2-4.4l0.2-0.2l-0.2-0.2c-1.4-1.3-2.2-2.8-2.2-4.3v-9.1c0-5.8,10.2-10.1,23.7-10.1
				c13.5,0,23.7,4.4,23.7,10.1v9.1c0,1.5-0.7,2.9-2.2,4.3l-0.2,0.2l0.2,0.2c1.4,1.4,2.2,2.8,2.2,4.4v9.1c0,1.5-0.7,2.9-2.2,4.3
				l-0.2,0.2l0.2,0.2c1.4,1.4,2.2,2.8,2.2,4.4v9.1C73.7,78.4,63.3,82.9,50,82.9z M57.7,73.3c-2,0.3-4.2,0.4-6.3,0.5l-0.3,0v6.9
				l0.3,0c2.2-0.1,4.4-0.2,6.4-0.5l0.3,0v-6.9L57.7,73.3z M42,80.2l0.3,0c2,0.3,4.1,0.5,6.4,0.5l0.3,0v-6.9l-0.3,0
				c-2.2,0-4.3-0.2-6.3-0.5l-0.3,0V80.2z M66.7,71c-1.8,0.8-4,1.4-6.3,1.8l-0.2,0v6.9l0.4-0.1c2.5-0.5,4.6-1.2,6.4-2.1l0.2-0.1
				l0-6.7L66.7,71z M32.9,77.3l0,0.2l0.2,0.1c1.8,0.9,4,1.6,6.4,2.1l0.4,0.1v-6.9l-0.2,0c-2.3-0.5-4.5-1.1-6.3-1.8l-0.4-0.2V77.3z
				 M71.1,68.4c-0.5,0.4-1.1,0.9-1.8,1.3l-0.2,0.1l0,0.2l0,6.3l0.5-0.4c1.3-1,1.9-2.1,1.9-3.1V68L71.1,68.4z M28.4,72.7
				c0,1,0.7,2.1,1.9,3.1l0.5,0.4V70l0-0.2l-0.1-0.2c-0.7-0.4-1.3-0.8-1.8-1.3L28.4,68V72.7z M30.3,60.5c-1.2,1-1.9,2.1-1.9,3.2
				c0,3.9,8.7,8,21.6,8c12.9,0,21.6-4.1,21.6-8c0-1-0.7-2.1-1.9-3.2l-0.2-0.1l-0.2,0.1c-4.5,2.7-11.5,4.2-19.4,4.2
				s-14.9-1.5-19.4-4.2l-0.2-0.1L30.3,60.5z M46.5,62.5l0.3,0c1,0.1,2.1,0.1,3.2,0.1c1.1,0,2.2,0,3.2-0.1l0.4,0l-0.1-0.4
				c0-0.1,0-0.2,0-0.3v-6.3l-0.3,0c-1,0.1-2.1,0.1-3.2,0.1c-1.1,0-2.1,0-3.2-0.1l-0.3,0V62.5z M37.5,61.1l0.2,0.1
				c1.9,0.5,4.1,0.9,6.4,1.2l0.3,0v-6.9l-0.3,0c-2.2-0.2-4.4-0.6-6.3-1.1l-0.4-0.1V61.1z M62.2,54.3c-1.9,0.5-4.1,0.8-6.3,1.1
				l-0.3,0v6.5l0,0.4l0.3,0.1c2.3-0.2,4.5-0.6,6.4-1.2l0.2-0.1v-6.9L62.2,54.3z M71.1,50.3c-1.5,1.3-3.6,2.4-6.3,3.3l-0.2,0.1v6.8
				l0.4-0.2c4-1.5,6.5-3.7,6.5-5.6v-4.7L71.1,50.3z M28.4,54.6c0,1.9,2.5,4.1,6.5,5.6l0.4,0.2v-6.8l-0.2-0.1c-2.6-0.9-4.7-2-6.3-3.3
				l-0.5-0.4V54.6z M30.3,42.4c-1.2,1-1.9,2.1-1.9,3.2c0,3.9,8.7,8,21.6,8c12.9,0,21.6-4.1,21.6-8c0-1-0.7-2.1-1.9-3.2l-0.2-0.1
				l-0.2,0.1C64.9,45,57.8,46.6,50,46.6S35.1,45,30.6,42.3l-0.2-0.1L30.3,42.4z M57.7,37c-2,0.3-4.2,0.4-6.3,0.5l-0.3,0v6.9l0.3,0
				c2.2-0.1,4.4-0.2,6.4-0.5l0.3,0V37L57.7,37z M42,43.9l0.3,0c2,0.3,4.1,0.5,6.4,0.5l0.3,0v-6.9l-0.3,0c-2.2,0-4.3-0.2-6.3-0.5
				L42,37V43.9z M66.7,34.7c-1.8,0.8-4,1.4-6.3,1.8l-0.2,0v6.9l0.4-0.1c2.5-0.5,4.6-1.2,6.4-2.1l0.2-0.1l0-6.7L66.7,34.7z M32.9,41
				l0,0.2l0.2,0.1c1.8,0.9,4,1.6,6.4,2.1l0.4,0.1v-6.9l-0.2,0c-2.3-0.5-4.5-1.1-6.3-1.8l-0.4-0.2V41z M71.1,32.1
				c-0.5,0.4-1.1,0.9-1.8,1.3l-0.2,0.1l0,0.2l0,6.3l0.5-0.4c1.3-1,1.9-2.1,1.9-3.1v-4.7L71.1,32.1z M28.4,36.4c0,1,0.7,2.1,1.9,3.1
				l0.5,0.4v-6.2l0-0.2l-0.1-0.2c-0.7-0.4-1.3-0.8-1.8-1.3l-0.5-0.4V36.4z M50,19.4c-12.9,0-21.6,4.1-21.6,8s8.7,8,21.6,8
				c12.9,0,21.6-4.1,21.6-8S62.9,19.4,50,19.4z"/>
		</g>
	</g>
</g>
<g id="ICONS_-_WARM_GREY" display="none">
	<g display="inline">
		<g>
			<path fill="#534C63" d="M50,82.9c-13.3,0-23.7-4.5-23.7-10.1v-9.1c0-1.5,0.7-3,2.2-4.4l0.2-0.2l-0.2-0.2
				c-1.4-1.3-2.2-2.8-2.2-4.3v-9.1c0-1.5,0.7-3,2.2-4.4l0.2-0.2l-0.2-0.2c-1.4-1.3-2.2-2.8-2.2-4.3v-9.1c0-5.8,10.2-10.1,23.7-10.1
				c13.5,0,23.7,4.4,23.7,10.1v9.1c0,1.5-0.7,2.9-2.2,4.3l-0.2,0.2l0.2,0.2c1.4,1.4,2.2,2.8,2.2,4.4v9.1c0,1.5-0.7,2.9-2.2,4.3
				l-0.2,0.2l0.2,0.2c1.4,1.4,2.2,2.8,2.2,4.4v9.1C73.7,78.4,63.3,82.9,50,82.9z M57.7,73.3c-2,0.3-4.2,0.4-6.3,0.5l-0.3,0v6.9
				l0.3,0c2.2-0.1,4.4-0.2,6.4-0.5l0.3,0v-6.9L57.7,73.3z M42,80.2l0.3,0c2,0.3,4.1,0.5,6.4,0.5l0.3,0v-6.9l-0.3,0
				c-2.2,0-4.3-0.2-6.3-0.5l-0.3,0V80.2z M66.7,71c-1.8,0.8-4,1.4-6.3,1.8l-0.2,0v6.9l0.4-0.1c2.5-0.5,4.6-1.2,6.4-2.1l0.2-0.1
				l0-6.7L66.7,71z M32.9,77.3l0,0.2l0.2,0.1c1.8,0.9,4,1.6,6.4,2.1l0.4,0.1v-6.9l-0.2,0c-2.3-0.5-4.5-1.1-6.3-1.8l-0.4-0.2V77.3z
				 M71.1,68.4c-0.5,0.4-1.1,0.9-1.8,1.3l-0.2,0.1l0,0.2l0,6.3l0.5-0.4c1.3-1,1.9-2.1,1.9-3.1V68L71.1,68.4z M28.4,72.7
				c0,1,0.7,2.1,1.9,3.1l0.5,0.4V70l0-0.2l-0.1-0.2c-0.7-0.4-1.3-0.8-1.8-1.3L28.4,68V72.7z M30.3,60.5c-1.2,1-1.9,2.1-1.9,3.2
				c0,3.9,8.7,8,21.6,8c12.9,0,21.6-4.1,21.6-8c0-1-0.7-2.1-1.9-3.2l-0.2-0.1l-0.2,0.1c-4.5,2.7-11.5,4.2-19.4,4.2
				s-14.9-1.5-19.4-4.2l-0.2-0.1L30.3,60.5z M46.5,62.5l0.3,0c1,0.1,2.1,0.1,3.2,0.1c1.1,0,2.2,0,3.2-0.1l0.4,0l-0.1-0.4
				c0-0.1,0-0.2,0-0.3v-6.3l-0.3,0c-1,0.1-2.1,0.1-3.2,0.1c-1.1,0-2.1,0-3.2-0.1l-0.3,0V62.5z M37.5,61.1l0.2,0.1
				c1.9,0.5,4.1,0.9,6.4,1.2l0.3,0v-6.9l-0.3,0c-2.2-0.2-4.4-0.6-6.3-1.1l-0.4-0.1V61.1z M62.2,54.3c-1.9,0.5-4.1,0.8-6.3,1.1
				l-0.3,0v6.5l0,0.4l0.3,0.1c2.3-0.2,4.5-0.6,6.4-1.2l0.2-0.1v-6.9L62.2,54.3z M71.1,50.3c-1.5,1.3-3.6,2.4-6.3,3.3l-0.2,0.1v6.8
				l0.4-0.2c4-1.5,6.5-3.7,6.5-5.6v-4.7L71.1,50.3z M28.4,54.6c0,1.9,2.5,4.1,6.5,5.6l0.4,0.2v-6.8l-0.2-0.1c-2.6-0.9-4.7-2-6.3-3.3
				l-0.5-0.4V54.6z M30.3,42.4c-1.2,1-1.9,2.1-1.9,3.2c0,3.9,8.7,8,21.6,8c12.9,0,21.6-4.1,21.6-8c0-1-0.7-2.1-1.9-3.2l-0.2-0.1
				l-0.2,0.1C64.9,45,57.8,46.6,50,46.6S35.1,45,30.6,42.3l-0.2-0.1L30.3,42.4z M57.7,37c-2,0.3-4.2,0.4-6.3,0.5l-0.3,0v6.9l0.3,0
				c2.2-0.1,4.4-0.2,6.4-0.5l0.3,0V37L57.7,37z M42,43.9l0.3,0c2,0.3,4.1,0.5,6.4,0.5l0.3,0v-6.9l-0.3,0c-2.2,0-4.3-0.2-6.3-0.5
				L42,37V43.9z M66.7,34.7c-1.8,0.8-4,1.4-6.3,1.8l-0.2,0v6.9l0.4-0.1c2.5-0.5,4.6-1.2,6.4-2.1l0.2-0.1l0-6.7L66.7,34.7z M32.9,41
				l0,0.2l0.2,0.1c1.8,0.9,4,1.6,6.4,2.1l0.4,0.1v-6.9l-0.2,0c-2.3-0.5-4.5-1.1-6.3-1.8l-0.4-0.2V41z M71.1,32.1
				c-0.5,0.4-1.1,0.9-1.8,1.3l-0.2,0.1l0,0.2l0,6.3l0.5-0.4c1.3-1,1.9-2.1,1.9-3.1v-4.7L71.1,32.1z M28.4,36.4c0,1,0.7,2.1,1.9,3.1
				l0.5,0.4v-6.2l0-0.2l-0.1-0.2c-0.7-0.4-1.3-0.8-1.8-1.3l-0.5-0.4V36.4z M50,19.4c-12.9,0-21.6,4.1-21.6,8s8.7,8,21.6,8
				c12.9,0,21.6-4.1,21.6-8S62.9,19.4,50,19.4z"/>
		</g>
	</g>
</g>
<g id="ICONS_-_SKRILL_TEAL" display="none">
	<g display="inline">
		<g>
			<path fill="#41AEB5" d="M50,82.9c-13.3,0-23.7-4.5-23.7-10.1v-9.1c0-1.5,0.7-3,2.2-4.4l0.2-0.2l-0.2-0.2
				c-1.4-1.3-2.2-2.8-2.2-4.3v-9.1c0-1.5,0.7-3,2.2-4.4l0.2-0.2l-0.2-0.2c-1.4-1.3-2.2-2.8-2.2-4.3v-9.1c0-5.8,10.2-10.1,23.7-10.1
				c13.5,0,23.7,4.4,23.7,10.1v9.1c0,1.5-0.7,2.9-2.2,4.3l-0.2,0.2l0.2,0.2c1.4,1.4,2.2,2.8,2.2,4.4v9.1c0,1.5-0.7,2.9-2.2,4.3
				l-0.2,0.2l0.2,0.2c1.4,1.4,2.2,2.8,2.2,4.4v9.1C73.7,78.4,63.3,82.9,50,82.9z M57.7,73.3c-2,0.3-4.2,0.4-6.3,0.5l-0.3,0v6.9
				l0.3,0c2.2-0.1,4.4-0.2,6.4-0.5l0.3,0v-6.9L57.7,73.3z M42,80.2l0.3,0c2,0.3,4.1,0.5,6.4,0.5l0.3,0v-6.9l-0.3,0
				c-2.2,0-4.3-0.2-6.3-0.5l-0.3,0V80.2z M66.7,71c-1.8,0.8-4,1.4-6.3,1.8l-0.2,0v6.9l0.4-0.1c2.5-0.5,4.6-1.2,6.4-2.1l0.2-0.1
				l0-6.7L66.7,71z M32.9,77.3l0,0.2l0.2,0.1c1.8,0.9,4,1.6,6.4,2.1l0.4,0.1v-6.9l-0.2,0c-2.3-0.5-4.5-1.1-6.3-1.8l-0.4-0.2V77.3z
				 M71.1,68.4c-0.5,0.4-1.1,0.9-1.8,1.3l-0.2,0.1l0,0.2l0,6.3l0.5-0.4c1.3-1,1.9-2.1,1.9-3.1V68L71.1,68.4z M28.4,72.7
				c0,1,0.7,2.1,1.9,3.1l0.5,0.4V70l0-0.2l-0.1-0.2c-0.7-0.4-1.3-0.8-1.8-1.3L28.4,68V72.7z M30.3,60.5c-1.2,1-1.9,2.1-1.9,3.2
				c0,3.9,8.7,8,21.6,8c12.9,0,21.6-4.1,21.6-8c0-1-0.7-2.1-1.9-3.2l-0.2-0.1l-0.2,0.1c-4.5,2.7-11.5,4.2-19.4,4.2
				s-14.9-1.5-19.4-4.2l-0.2-0.1L30.3,60.5z M46.5,62.5l0.3,0c1,0.1,2.1,0.1,3.2,0.1c1.1,0,2.2,0,3.2-0.1l0.4,0l-0.1-0.4
				c0-0.1,0-0.2,0-0.3v-6.3l-0.3,0c-1,0.1-2.1,0.1-3.2,0.1c-1.1,0-2.1,0-3.2-0.1l-0.3,0V62.5z M37.5,61.1l0.2,0.1
				c1.9,0.5,4.1,0.9,6.4,1.2l0.3,0v-6.9l-0.3,0c-2.2-0.2-4.4-0.6-6.3-1.1l-0.4-0.1V61.1z M62.2,54.3c-1.9,0.5-4.1,0.8-6.3,1.1
				l-0.3,0v6.5l0,0.4l0.3,0.1c2.3-0.2,4.5-0.6,6.4-1.2l0.2-0.1v-6.9L62.2,54.3z M71.1,50.3c-1.5,1.3-3.6,2.4-6.3,3.3l-0.2,0.1v6.8
				l0.4-0.2c4-1.5,6.5-3.7,6.5-5.6v-4.7L71.1,50.3z M28.4,54.6c0,1.9,2.5,4.1,6.5,5.6l0.4,0.2v-6.8l-0.2-0.1c-2.6-0.9-4.7-2-6.3-3.3
				l-0.5-0.4V54.6z M30.3,42.4c-1.2,1-1.9,2.1-1.9,3.2c0,3.9,8.7,8,21.6,8c12.9,0,21.6-4.1,21.6-8c0-1-0.7-2.1-1.9-3.2l-0.2-0.1
				l-0.2,0.1C64.9,45,57.8,46.6,50,46.6S35.1,45,30.6,42.3l-0.2-0.1L30.3,42.4z M57.7,37c-2,0.3-4.2,0.4-6.3,0.5l-0.3,0v6.9l0.3,0
				c2.2-0.1,4.4-0.2,6.4-0.5l0.3,0V37L57.7,37z M42,43.9l0.3,0c2,0.3,4.1,0.5,6.4,0.5l0.3,0v-6.9l-0.3,0c-2.2,0-4.3-0.2-6.3-0.5
				L42,37V43.9z M66.7,34.7c-1.8,0.8-4,1.4-6.3,1.8l-0.2,0v6.9l0.4-0.1c2.5-0.5,4.6-1.2,6.4-2.1l0.2-0.1l0-6.7L66.7,34.7z M32.9,41
				l0,0.2l0.2,0.1c1.8,0.9,4,1.6,6.4,2.1l0.4,0.1v-6.9l-0.2,0c-2.3-0.5-4.5-1.1-6.3-1.8l-0.4-0.2V41z M71.1,32.1
				c-0.5,0.4-1.1,0.9-1.8,1.3l-0.2,0.1l0,0.2l0,6.3l0.5-0.4c1.3-1,1.9-2.1,1.9-3.1v-4.7L71.1,32.1z M28.4,36.4c0,1,0.7,2.1,1.9,3.1
				l0.5,0.4v-6.2l0-0.2l-0.1-0.2c-0.7-0.4-1.3-0.8-1.8-1.3l-0.5-0.4V36.4z M50,19.4c-12.9,0-21.6,4.1-21.6,8s8.7,8,21.6,8
				c12.9,0,21.6-4.1,21.6-8S62.9,19.4,50,19.4z"/>
		</g>
	</g>
</g>
<g id="ICONS_-_SKRILL_PURPLE">
	<g>
		<g>
			<path fill="#811E68" d="M50,82.9c-13.3,0-23.7-4.5-23.7-10.1v-9.1c0-1.5,0.7-3,2.2-4.4l0.2-0.2l-0.2-0.2
				c-1.4-1.3-2.2-2.8-2.2-4.3v-9.1c0-1.5,0.7-3,2.2-4.4l0.2-0.2l-0.2-0.2c-1.4-1.3-2.2-2.8-2.2-4.3v-9.1c0-5.8,10.2-10.1,23.7-10.1
				c13.5,0,23.7,4.4,23.7,10.1v9.1c0,1.5-0.7,2.9-2.2,4.3l-0.2,0.2l0.2,0.2c1.4,1.4,2.2,2.8,2.2,4.4v9.1c0,1.5-0.7,2.9-2.2,4.3
				l-0.2,0.2l0.2,0.2c1.4,1.4,2.2,2.8,2.2,4.4v9.1C73.7,78.4,63.3,82.9,50,82.9z M57.7,73.3c-2,0.3-4.2,0.4-6.3,0.5l-0.3,0v6.9
				l0.3,0c2.2-0.1,4.4-0.2,6.4-0.5l0.3,0v-6.9L57.7,73.3z M42,80.2l0.3,0c2,0.3,4.1,0.5,6.4,0.5l0.3,0v-6.9l-0.3,0
				c-2.2,0-4.3-0.2-6.3-0.5l-0.3,0V80.2z M66.7,71c-1.8,0.8-4,1.4-6.3,1.8l-0.2,0v6.9l0.4-0.1c2.5-0.5,4.6-1.2,6.4-2.1l0.2-0.1
				l0-6.7L66.7,71z M32.9,77.3l0,0.2l0.2,0.1c1.8,0.9,4,1.6,6.4,2.1l0.4,0.1v-6.9l-0.2,0c-2.3-0.5-4.5-1.1-6.3-1.8l-0.4-0.2V77.3z
				 M71.1,68.4c-0.5,0.4-1.1,0.9-1.8,1.3l-0.2,0.1l0,0.2l0,6.3l0.5-0.4c1.3-1,1.9-2.1,1.9-3.1V68L71.1,68.4z M28.4,72.7
				c0,1,0.7,2.1,1.9,3.1l0.5,0.4V70l0-0.2l-0.1-0.2c-0.7-0.4-1.3-0.8-1.8-1.3L28.4,68V72.7z M30.3,60.5c-1.2,1-1.9,2.1-1.9,3.2
				c0,3.9,8.7,8,21.6,8c12.9,0,21.6-4.1,21.6-8c0-1-0.7-2.1-1.9-3.2l-0.2-0.1l-0.2,0.1c-4.5,2.7-11.5,4.2-19.4,4.2
				s-14.9-1.5-19.4-4.2l-0.2-0.1L30.3,60.5z M46.5,62.5l0.3,0c1,0.1,2.1,0.1,3.2,0.1c1.1,0,2.2,0,3.2-0.1l0.4,0l-0.1-0.4
				c0-0.1,0-0.2,0-0.3v-6.3l-0.3,0c-1,0.1-2.1,0.1-3.2,0.1c-1.1,0-2.1,0-3.2-0.1l-0.3,0V62.5z M37.5,61.1l0.2,0.1
				c1.9,0.5,4.1,0.9,6.4,1.2l0.3,0v-6.9l-0.3,0c-2.2-0.2-4.4-0.6-6.3-1.1l-0.4-0.1V61.1z M62.2,54.3c-1.9,0.5-4.1,0.8-6.3,1.1
				l-0.3,0v6.5l0,0.4l0.3,0.1c2.3-0.2,4.5-0.6,6.4-1.2l0.2-0.1v-6.9L62.2,54.3z M71.1,50.3c-1.5,1.3-3.6,2.4-6.3,3.3l-0.2,0.1v6.8
				l0.4-0.2c4-1.5,6.5-3.7,6.5-5.6v-4.7L71.1,50.3z M28.4,54.6c0,1.9,2.5,4.1,6.5,5.6l0.4,0.2v-6.8l-0.2-0.1c-2.6-0.9-4.7-2-6.3-3.3
				l-0.5-0.4V54.6z M30.3,42.4c-1.2,1-1.9,2.1-1.9,3.2c0,3.9,8.7,8,21.6,8c12.9,0,21.6-4.1,21.6-8c0-1-0.7-2.1-1.9-3.2l-0.2-0.1
				l-0.2,0.1C64.9,45,57.8,46.6,50,46.6S35.1,45,30.6,42.3l-0.2-0.1L30.3,42.4z M57.7,37c-2,0.3-4.2,0.4-6.3,0.5l-0.3,0v6.9l0.3,0
				c2.2-0.1,4.4-0.2,6.4-0.5l0.3,0V37L57.7,37z M42,43.9l0.3,0c2,0.3,4.1,0.5,6.4,0.5l0.3,0v-6.9l-0.3,0c-2.2,0-4.3-0.2-6.3-0.5
				L42,37V43.9z M66.7,34.7c-1.8,0.8-4,1.4-6.3,1.8l-0.2,0v6.9l0.4-0.1c2.5-0.5,4.6-1.2,6.4-2.1l0.2-0.1l0-6.7L66.7,34.7z M32.9,41
				l0,0.2l0.2,0.1c1.8,0.9,4,1.6,6.4,2.1l0.4,0.1v-6.9l-0.2,0c-2.3-0.5-4.5-1.1-6.3-1.8l-0.4-0.2V41z M71.1,32.1
				c-0.5,0.4-1.1,0.9-1.8,1.3l-0.2,0.1l0,0.2l0,6.3l0.5-0.4c1.3-1,1.9-2.1,1.9-3.1v-4.7L71.1,32.1z M28.4,36.4c0,1,0.7,2.1,1.9,3.1
				l0.5,0.4v-6.2l0-0.2l-0.1-0.2c-0.7-0.4-1.3-0.8-1.8-1.3l-0.5-0.4V36.4z M50,19.4c-12.9,0-21.6,4.1-21.6,8s8.7,8,21.6,8
				c12.9,0,21.6-4.1,21.6-8S62.9,19.4,50,19.4z"/>
		</g>
	</g>
</g>
<g id="ICONS_-_WHITE" display="none">
	<g display="inline">
		<g>
			<path fill="#FFFFFF" d="M50,82.9c-13.3,0-23.7-4.5-23.7-10.1v-9.1c0-1.5,0.7-3,2.2-4.4l0.2-0.2l-0.2-0.2
				c-1.4-1.3-2.2-2.8-2.2-4.3v-9.1c0-1.5,0.7-3,2.2-4.4l0.2-0.2l-0.2-0.2c-1.4-1.3-2.2-2.8-2.2-4.3v-9.1c0-5.8,10.2-10.1,23.7-10.1
				c13.5,0,23.7,4.4,23.7,10.1v9.1c0,1.5-0.7,2.9-2.2,4.3l-0.2,0.2l0.2,0.2c1.4,1.4,2.2,2.8,2.2,4.4v9.1c0,1.5-0.7,2.9-2.2,4.3
				l-0.2,0.2l0.2,0.2c1.4,1.4,2.2,2.8,2.2,4.4v9.1C73.7,78.4,63.3,82.9,50,82.9z M57.7,73.3c-2,0.3-4.2,0.4-6.3,0.5l-0.3,0v6.9
				l0.3,0c2.2-0.1,4.4-0.2,6.4-0.5l0.3,0v-6.9L57.7,73.3z M42,80.2l0.3,0c2,0.3,4.1,0.5,6.4,0.5l0.3,0v-6.9l-0.3,0
				c-2.2,0-4.3-0.2-6.3-0.5l-0.3,0V80.2z M66.7,71c-1.8,0.8-4,1.4-6.3,1.8l-0.2,0v6.9l0.4-0.1c2.5-0.5,4.6-1.2,6.4-2.1l0.2-0.1
				l0-6.7L66.7,71z M32.9,77.3l0,0.2l0.2,0.1c1.8,0.9,4,1.6,6.4,2.1l0.4,0.1v-6.9l-0.2,0c-2.3-0.5-4.5-1.1-6.3-1.8l-0.4-0.2V77.3z
				 M71.1,68.4c-0.5,0.4-1.1,0.9-1.8,1.3l-0.2,0.1l0,0.2l0,6.3l0.5-0.4c1.3-1,1.9-2.1,1.9-3.1V68L71.1,68.4z M28.4,72.7
				c0,1,0.7,2.1,1.9,3.1l0.5,0.4V70l0-0.2l-0.1-0.2c-0.7-0.4-1.3-0.8-1.8-1.3L28.4,68V72.7z M30.3,60.5c-1.2,1-1.9,2.1-1.9,3.2
				c0,3.9,8.7,8,21.6,8c12.9,0,21.6-4.1,21.6-8c0-1-0.7-2.1-1.9-3.2l-0.2-0.1l-0.2,0.1c-4.5,2.7-11.5,4.2-19.4,4.2
				s-14.9-1.5-19.4-4.2l-0.2-0.1L30.3,60.5z M46.5,62.5l0.3,0c1,0.1,2.1,0.1,3.2,0.1c1.1,0,2.2,0,3.2-0.1l0.4,0l-0.1-0.4
				c0-0.1,0-0.2,0-0.3v-6.3l-0.3,0c-1,0.1-2.1,0.1-3.2,0.1c-1.1,0-2.1,0-3.2-0.1l-0.3,0V62.5z M37.5,61.1l0.2,0.1
				c1.9,0.5,4.1,0.9,6.4,1.2l0.3,0v-6.9l-0.3,0c-2.2-0.2-4.4-0.6-6.3-1.1l-0.4-0.1V61.1z M62.2,54.3c-1.9,0.5-4.1,0.8-6.3,1.1
				l-0.3,0v6.5l0,0.4l0.3,0.1c2.3-0.2,4.5-0.6,6.4-1.2l0.2-0.1v-6.9L62.2,54.3z M71.1,50.3c-1.5,1.3-3.6,2.4-6.3,3.3l-0.2,0.1v6.8
				l0.4-0.2c4-1.5,6.5-3.7,6.5-5.6v-4.7L71.1,50.3z M28.4,54.6c0,1.9,2.5,4.1,6.5,5.6l0.4,0.2v-6.8l-0.2-0.1c-2.6-0.9-4.7-2-6.3-3.3
				l-0.5-0.4V54.6z M30.3,42.4c-1.2,1-1.9,2.1-1.9,3.2c0,3.9,8.7,8,21.6,8c12.9,0,21.6-4.1,21.6-8c0-1-0.7-2.1-1.9-3.2l-0.2-0.1
				l-0.2,0.1C64.9,45,57.8,46.6,50,46.6S35.1,45,30.6,42.3l-0.2-0.1L30.3,42.4z M57.7,37c-2,0.3-4.2,0.4-6.3,0.5l-0.3,0v6.9l0.3,0
				c2.2-0.1,4.4-0.2,6.4-0.5l0.3,0V37L57.7,37z M42,43.9l0.3,0c2,0.3,4.1,0.5,6.4,0.5l0.3,0v-6.9l-0.3,0c-2.2,0-4.3-0.2-6.3-0.5
				L42,37V43.9z M66.7,34.7c-1.8,0.8-4,1.4-6.3,1.8l-0.2,0v6.9l0.4-0.1c2.5-0.5,4.6-1.2,6.4-2.1l0.2-0.1l0-6.7L66.7,34.7z M32.9,41
				l0,0.2l0.2,0.1c1.8,0.9,4,1.6,6.4,2.1l0.4,0.1v-6.9l-0.2,0c-2.3-0.5-4.5-1.1-6.3-1.8l-0.4-0.2V41z M71.1,32.1
				c-0.5,0.4-1.1,0.9-1.8,1.3l-0.2,0.1l0,0.2l0,6.3l0.5-0.4c1.3-1,1.9-2.1,1.9-3.1v-4.7L71.1,32.1z M28.4,36.4c0,1,0.7,2.1,1.9,3.1
				l0.5,0.4v-6.2l0-0.2l-0.1-0.2c-0.7-0.4-1.3-0.8-1.8-1.3l-0.5-0.4V36.4z M50,19.4c-12.9,0-21.6,4.1-21.6,8s8.7,8,21.6,8
				c12.9,0,21.6-4.1,21.6-8S62.9,19.4,50,19.4z"/>
		</g>
	</g>
</g>
<g id="LABELS">
</g>
</svg>
