<?xml version="1.0" encoding="utf-8"?>
<!-- Generator: Adobe Illustrator 18.1.1, SVG Export Plug-In . SVG Version: 6.00 Build 0)  -->
<svg version="1.1" xmlns="http://www.w3.org/2000/svg" xmlns:xlink="http://www.w3.org/1999/xlink" x="0px" y="0px"
	 viewBox="0 0 100 100" enable-background="new 0 0 100 100" xml:space="preserve">
<g id="GUIDES">
</g>
<g id="ICONS_-_BLACK" display="none">
	<g display="inline">
		<g>
			<g>
				<path d="M77.6,17c-0.1-0.7-0.7-1.2-1.4-1.2c-0.7,0-1.2,0.5-1.3,1.2h0l-0.4,0.7c-0.7,1.2-1.5,2.2-3.1,2.2c-1.5,0-2.9-0.9-3.7-2.2
					l-0.4-0.6h0c-0.1-0.7-0.7-1.2-1.4-1.2s-1.3,0.5-1.4,1.2h0l-0.4,0.7c-0.7,1.4-2.1,2.2-3.7,2.2c-1.5,0-2.9-0.9-3.7-2.2l-0.4-0.7h0
					c-0.1-0.7-0.7-1.2-1.4-1.2c-0.7,0-1.3,0.5-1.4,1.2h0l-0.3,0.7c-0.7,1.4-2.1,2.2-3.7,2.2c-1.5,0-2.9-0.9-3.7-2.2l-0.3-0.7h0
					c-0.1-0.7-0.7-1.2-1.4-1.2c-0.7,0-1.3,0.5-1.5,1.2h0l-0.4,0.6c-0.7,1.4-2.1,2.2-3.7,2.2c-1.5,0-2.9-0.9-3.7-2.2l-0.4-0.6h0
					c-0.1-0.7-0.7-1.2-1.4-1.2s-1.3,0.5-1.4,1.2h0l-0.3,0.7c-0.7,1.4-2.1,2.2-3.7,2.2c-1.5,0-3.2-1.3-3.9-2.7l0,0
					c-0.1-0.7-0.7-1.4-1.4-1.4c-0.7,0-1.3,0.5-1.4,1.2l0,0v0.2v64.4v0.1h0c0,0.7,0.6,1.3,1.4,1.3c0.7,0,1.2-0.5,1.3-1.3h0l0.3-0.7
					c0.7-1.5,2.1-2.4,3.7-2.4c1.6,0,3,0.9,3.7,2.4l0.3,0.7h0c0,0.8,0.6,1.4,1.4,1.4s1.4-0.6,1.4-1.4h0l0.3-0.7
					c0.7-1.5,2.1-2.4,3.7-2.4c1.6,0,3,0.9,3.7,2.4l0.3,0.7h0c0,0.8,0.7,1.4,1.4,1.4c0.8,0,1.3-0.6,1.4-1.4h0l0.3-0.7
					c0.7-1.5,2.1-2.4,3.7-2.4c1.6,0,3,0.9,3.7,2.4l0.3,0.7h0c0,0.8,0.6,1.4,1.4,1.4c0.8,0,1.4-0.6,1.4-1.4h0l0.3-0.7
					c0.7-1.5,2.1-2.4,3.7-2.4c1.6,0,3,0.9,3.7,2.4l0.3,0.7h0c0,0.8,0.6,1.4,1.4,1.4c0.8,0,1.5-0.7,1.5-1.5c0,0,0,0,0-0.1l0.3-0.6
					c0.7-1.5,2.1-2.4,3.7-2.4c1.7,0,2.6,1,3.2,2.4l0.3,0.7h0c0,0.7,0.6,1.3,1.3,1.3c0.7,0,1.3-0.5,1.4-1.3h0v-0.1V17.3L77.6,17
					L77.6,17z M74.8,77.5c-1.3-0.9-1.9-1.4-3.4-1.4c-2.1,0-4.1,1-5.4,2.6l-0.1,0.2l-0.1-0.2C64.5,77,62.6,76,60.5,76
					c-2.1,0-4.1,1-5.4,2.6L55,78.8l-0.1-0.2C53.6,77,51.6,76,49.5,76c-2.1,0-4.1,1-5.4,2.6l-0.1,0.2l-0.1-0.2
					C42.7,77,40.7,76,38.6,76c-2.1,0-4.1,1-5.4,2.6l-0.1,0.2L33,78.7C31.7,77,29.8,76,27.6,76c-1.4,0-2.8,0.4-3.9,1.3l-0.2,0.2V21.1
					l0.2,0.2c1.2,0.8,2.5,1.3,3.9,1.3c2.1,0,4.1-1,5.4-2.6l0.1-0.2l0.1,0.2c1.3,1.7,3.2,2.6,5.4,2.6c2.1,0,4.1-1,5.4-2.6l0.1-0.2
					l0.1,0.2c1.3,1.7,3.2,2.6,5.4,2.6s4.1-1,5.4-2.6l0.1-0.2l0.1,0.2c1.3,1.7,3.2,2.6,5.4,2.6s4.1-1,5.4-2.6l0.1-0.2l0.1,0.2
					c1.3,1.7,3.2,2.6,5.4,2.6c1.5,0,2.1-0.5,3.4-1.4L75,21v56.6L74.8,77.5z"/>
				<path d="M50,47.4H30.5c-0.7,0-1.3,0.6-1.3,1.3c0,0.7,0.6,1.3,1.3,1.3H50c0.7,0,1.3-0.6,1.3-1.3C51.3,48,50.7,47.4,50,47.4z"/>
				<path d="M50,40.1H30.5c-0.7,0-1.3,0.6-1.3,1.3c0,0.7,0.6,1.3,1.3,1.3H50c0.7,0,1.3-0.6,1.3-1.3C51.3,40.7,50.7,40.1,50,40.1z"/>
				<path d="M50,32.9H30.5c-0.7,0-1.3,0.6-1.3,1.3c0,0.7,0.6,1.3,1.3,1.3H50c0.7,0,1.3-0.6,1.3-1.3C51.3,33.5,50.7,32.9,50,32.9z"/>
				<path d="M67.6,47.4h-8.9c-0.7,0-1.3,0.6-1.3,1.3c0,0.7,0.6,1.3,1.3,1.3h8.9c0.7,0,1.3-0.6,1.3-1.3C68.9,48,68.4,47.4,67.6,47.4z
					"/>
				<path d="M67.6,60.4h-8.9c-0.7,0-1.3,0.6-1.3,1.3c0,0.7,0.6,1.3,1.3,1.3h8.9c0.7,0,1.3-0.6,1.3-1.3C68.9,61,68.4,60.4,67.6,60.4z
					"/>
				<path d="M67.6,40.1h-8.9c-0.7,0-1.3,0.6-1.3,1.3c0,0.7,0.6,1.3,1.3,1.3h8.9c0.7,0,1.3-0.6,1.3-1.3
					C68.9,40.7,68.4,40.1,67.6,40.1z"/>
				<path d="M67.6,32.9h-8.9c-0.7,0-1.3,0.6-1.3,1.3c0,0.7,0.6,1.3,1.3,1.3h8.9c0.7,0,1.3-0.6,1.3-1.3
					C68.9,33.5,68.4,32.9,67.6,32.9z"/>
			</g>
		</g>
	</g>
</g>
<g id="ICONS_-_DARK_PURPLE" display="none">
	<g display="inline">
		<g>
			<g>
				<path fill="#4F2556" d="M77.6,17c-0.1-0.7-0.7-1.2-1.4-1.2c-0.7,0-1.2,0.5-1.3,1.2h0l-0.4,0.7c-0.7,1.2-1.5,2.2-3.1,2.2
					c-1.5,0-2.9-0.9-3.7-2.2l-0.4-0.6h0c-0.1-0.7-0.7-1.2-1.4-1.2s-1.3,0.5-1.4,1.2h0l-0.4,0.7c-0.7,1.4-2.1,2.2-3.7,2.2
					c-1.5,0-2.9-0.9-3.7-2.2l-0.4-0.7h0c-0.1-0.7-0.7-1.2-1.4-1.2c-0.7,0-1.3,0.5-1.4,1.2h0l-0.3,0.7c-0.7,1.4-2.1,2.2-3.7,2.2
					c-1.5,0-2.9-0.9-3.7-2.2l-0.3-0.7h0c-0.1-0.7-0.7-1.2-1.4-1.2c-0.7,0-1.3,0.5-1.5,1.2h0l-0.4,0.6c-0.7,1.4-2.1,2.2-3.7,2.2
					c-1.5,0-2.9-0.9-3.7-2.2l-0.4-0.6h0c-0.1-0.7-0.7-1.2-1.4-1.2s-1.3,0.5-1.4,1.2h0l-0.3,0.7c-0.7,1.4-2.1,2.2-3.7,2.2
					c-1.5,0-3.2-1.3-3.9-2.7l0,0c-0.1-0.7-0.7-1.4-1.4-1.4c-0.7,0-1.3,0.5-1.4,1.2l0,0v0.2v64.4v0.1h0c0,0.7,0.6,1.3,1.4,1.3
					c0.7,0,1.2-0.5,1.3-1.3h0l0.3-0.7c0.7-1.5,2.1-2.4,3.7-2.4c1.6,0,3,0.9,3.7,2.4l0.3,0.7h0c0,0.8,0.6,1.4,1.4,1.4
					s1.4-0.6,1.4-1.4h0l0.3-0.7c0.7-1.5,2.1-2.4,3.7-2.4c1.6,0,3,0.9,3.7,2.4l0.3,0.7h0c0,0.8,0.7,1.4,1.4,1.4
					c0.8,0,1.3-0.6,1.4-1.4h0l0.3-0.7c0.7-1.5,2.1-2.4,3.7-2.4c1.6,0,3,0.9,3.7,2.4l0.3,0.7h0c0,0.8,0.6,1.4,1.4,1.4
					c0.8,0,1.4-0.6,1.4-1.4h0l0.3-0.7c0.7-1.5,2.1-2.4,3.7-2.4c1.6,0,3,0.9,3.7,2.4l0.3,0.7h0c0,0.8,0.6,1.4,1.4,1.4
					c0.8,0,1.5-0.7,1.5-1.5c0,0,0,0,0-0.1l0.3-0.6c0.7-1.5,2.1-2.4,3.7-2.4c1.7,0,2.6,1,3.2,2.4l0.3,0.7h0c0,0.7,0.6,1.3,1.3,1.3
					c0.7,0,1.3-0.5,1.4-1.3h0v-0.1V17.3L77.6,17L77.6,17z M74.8,77.5c-1.3-0.9-1.9-1.4-3.4-1.4c-2.1,0-4.1,1-5.4,2.6l-0.1,0.2
					l-0.1-0.2C64.5,77,62.6,76,60.5,76c-2.1,0-4.1,1-5.4,2.6L55,78.8l-0.1-0.2C53.6,77,51.6,76,49.5,76c-2.1,0-4.1,1-5.4,2.6
					l-0.1,0.2l-0.1-0.2C42.7,77,40.7,76,38.6,76c-2.1,0-4.1,1-5.4,2.6l-0.1,0.2L33,78.7C31.7,77,29.8,76,27.6,76
					c-1.4,0-2.8,0.4-3.9,1.3l-0.2,0.2V21.1l0.2,0.2c1.2,0.8,2.5,1.3,3.9,1.3c2.1,0,4.1-1,5.4-2.6l0.1-0.2l0.1,0.2
					c1.3,1.7,3.2,2.6,5.4,2.6c2.1,0,4.1-1,5.4-2.6l0.1-0.2l0.1,0.2c1.3,1.7,3.2,2.6,5.4,2.6s4.1-1,5.4-2.6l0.1-0.2l0.1,0.2
					c1.3,1.7,3.2,2.6,5.4,2.6s4.1-1,5.4-2.6l0.1-0.2l0.1,0.2c1.3,1.7,3.2,2.6,5.4,2.6c1.5,0,2.1-0.5,3.4-1.4L75,21v56.6L74.8,77.5z"
					/>
				<path fill="#4F2556" d="M50,47.4H30.5c-0.7,0-1.3,0.6-1.3,1.3c0,0.7,0.6,1.3,1.3,1.3H50c0.7,0,1.3-0.6,1.3-1.3
					C51.3,48,50.7,47.4,50,47.4z"/>
				<path fill="#4F2556" d="M50,40.1H30.5c-0.7,0-1.3,0.6-1.3,1.3c0,0.7,0.6,1.3,1.3,1.3H50c0.7,0,1.3-0.6,1.3-1.3
					C51.3,40.7,50.7,40.1,50,40.1z"/>
				<path fill="#4F2556" d="M50,32.9H30.5c-0.7,0-1.3,0.6-1.3,1.3c0,0.7,0.6,1.3,1.3,1.3H50c0.7,0,1.3-0.6,1.3-1.3
					C51.3,33.5,50.7,32.9,50,32.9z"/>
				<path fill="#4F2556" d="M67.6,47.4h-8.9c-0.7,0-1.3,0.6-1.3,1.3c0,0.7,0.6,1.3,1.3,1.3h8.9c0.7,0,1.3-0.6,1.3-1.3
					C68.9,48,68.4,47.4,67.6,47.4z"/>
				<path fill="#4F2556" d="M67.6,60.4h-8.9c-0.7,0-1.3,0.6-1.3,1.3c0,0.7,0.6,1.3,1.3,1.3h8.9c0.7,0,1.3-0.6,1.3-1.3
					C68.9,61,68.4,60.4,67.6,60.4z"/>
				<path fill="#4F2556" d="M67.6,40.1h-8.9c-0.7,0-1.3,0.6-1.3,1.3c0,0.7,0.6,1.3,1.3,1.3h8.9c0.7,0,1.3-0.6,1.3-1.3
					C68.9,40.7,68.4,40.1,67.6,40.1z"/>
				<path fill="#4F2556" d="M67.6,32.9h-8.9c-0.7,0-1.3,0.6-1.3,1.3c0,0.7,0.6,1.3,1.3,1.3h8.9c0.7,0,1.3-0.6,1.3-1.3
					C68.9,33.5,68.4,32.9,67.6,32.9z"/>
			</g>
		</g>
	</g>
</g>
<g id="ICONS_-_WARM_GREY" display="none">
	<g display="inline">
		<g>
			<g>
				<path fill="#534C63" d="M77.6,17c-0.1-0.7-0.7-1.2-1.4-1.2c-0.7,0-1.2,0.5-1.3,1.2h0l-0.4,0.7c-0.7,1.2-1.5,2.2-3.1,2.2
					c-1.5,0-2.9-0.9-3.7-2.2l-0.4-0.6h0c-0.1-0.7-0.7-1.2-1.4-1.2s-1.3,0.5-1.4,1.2h0l-0.4,0.7c-0.7,1.4-2.1,2.2-3.7,2.2
					c-1.5,0-2.9-0.9-3.7-2.2l-0.4-0.7h0c-0.1-0.7-0.7-1.2-1.4-1.2c-0.7,0-1.3,0.5-1.4,1.2h0l-0.3,0.7c-0.7,1.4-2.1,2.2-3.7,2.2
					c-1.5,0-2.9-0.9-3.7-2.2l-0.3-0.7h0c-0.1-0.7-0.7-1.2-1.4-1.2c-0.7,0-1.3,0.5-1.5,1.2h0l-0.4,0.6c-0.7,1.4-2.1,2.2-3.7,2.2
					c-1.5,0-2.9-0.9-3.7-2.2l-0.4-0.6h0c-0.1-0.7-0.7-1.2-1.4-1.2s-1.3,0.5-1.4,1.2h0l-0.3,0.7c-0.7,1.4-2.1,2.2-3.7,2.2
					c-1.5,0-3.2-1.3-3.9-2.7l0,0c-0.1-0.7-0.7-1.4-1.4-1.4c-0.7,0-1.3,0.5-1.4,1.2l0,0v0.2v64.4v0.1h0c0,0.7,0.6,1.3,1.4,1.3
					c0.7,0,1.2-0.5,1.3-1.3h0l0.3-0.7c0.7-1.5,2.1-2.4,3.7-2.4c1.6,0,3,0.9,3.7,2.4l0.3,0.7h0c0,0.8,0.6,1.4,1.4,1.4
					s1.4-0.6,1.4-1.4h0l0.3-0.7c0.7-1.5,2.1-2.4,3.7-2.4c1.6,0,3,0.9,3.7,2.4l0.3,0.7h0c0,0.8,0.7,1.4,1.4,1.4
					c0.8,0,1.3-0.6,1.4-1.4h0l0.3-0.7c0.7-1.5,2.1-2.4,3.7-2.4c1.6,0,3,0.9,3.7,2.4l0.3,0.7h0c0,0.8,0.6,1.4,1.4,1.4
					c0.8,0,1.4-0.6,1.4-1.4h0l0.3-0.7c0.7-1.5,2.1-2.4,3.7-2.4c1.6,0,3,0.9,3.7,2.4l0.3,0.7h0c0,0.8,0.6,1.4,1.4,1.4
					c0.8,0,1.5-0.7,1.5-1.5c0,0,0,0,0-0.1l0.3-0.6c0.7-1.5,2.1-2.4,3.7-2.4c1.7,0,2.6,1,3.2,2.4l0.3,0.7h0c0,0.7,0.6,1.3,1.3,1.3
					c0.7,0,1.3-0.5,1.4-1.3h0v-0.1V17.3L77.6,17L77.6,17z M74.8,77.5c-1.3-0.9-1.9-1.4-3.4-1.4c-2.1,0-4.1,1-5.4,2.6l-0.1,0.2
					l-0.1-0.2C64.5,77,62.6,76,60.5,76c-2.1,0-4.1,1-5.4,2.6L55,78.8l-0.1-0.2C53.6,77,51.6,76,49.5,76c-2.1,0-4.1,1-5.4,2.6
					l-0.1,0.2l-0.1-0.2C42.7,77,40.7,76,38.6,76c-2.1,0-4.1,1-5.4,2.6l-0.1,0.2L33,78.7C31.7,77,29.8,76,27.6,76
					c-1.4,0-2.8,0.4-3.9,1.3l-0.2,0.2V21.1l0.2,0.2c1.2,0.8,2.5,1.3,3.9,1.3c2.1,0,4.1-1,5.4-2.6l0.1-0.2l0.1,0.2
					c1.3,1.7,3.2,2.6,5.4,2.6c2.1,0,4.1-1,5.4-2.6l0.1-0.2l0.1,0.2c1.3,1.7,3.2,2.6,5.4,2.6s4.1-1,5.4-2.6l0.1-0.2l0.1,0.2
					c1.3,1.7,3.2,2.6,5.4,2.6s4.1-1,5.4-2.6l0.1-0.2l0.1,0.2c1.3,1.7,3.2,2.6,5.4,2.6c1.5,0,2.1-0.5,3.4-1.4L75,21v56.6L74.8,77.5z"
					/>
				<path fill="#534C63" d="M50,47.4H30.5c-0.7,0-1.3,0.6-1.3,1.3c0,0.7,0.6,1.3,1.3,1.3H50c0.7,0,1.3-0.6,1.3-1.3
					C51.3,48,50.7,47.4,50,47.4z"/>
				<path fill="#534C63" d="M50,40.1H30.5c-0.7,0-1.3,0.6-1.3,1.3c0,0.7,0.6,1.3,1.3,1.3H50c0.7,0,1.3-0.6,1.3-1.3
					C51.3,40.7,50.7,40.1,50,40.1z"/>
				<path fill="#534C63" d="M50,32.9H30.5c-0.7,0-1.3,0.6-1.3,1.3c0,0.7,0.6,1.3,1.3,1.3H50c0.7,0,1.3-0.6,1.3-1.3
					C51.3,33.5,50.7,32.9,50,32.9z"/>
				<path fill="#534C63" d="M67.6,47.4h-8.9c-0.7,0-1.3,0.6-1.3,1.3c0,0.7,0.6,1.3,1.3,1.3h8.9c0.7,0,1.3-0.6,1.3-1.3
					C68.9,48,68.4,47.4,67.6,47.4z"/>
				<path fill="#534C63" d="M67.6,60.4h-8.9c-0.7,0-1.3,0.6-1.3,1.3c0,0.7,0.6,1.3,1.3,1.3h8.9c0.7,0,1.3-0.6,1.3-1.3
					C68.9,61,68.4,60.4,67.6,60.4z"/>
				<path fill="#534C63" d="M67.6,40.1h-8.9c-0.7,0-1.3,0.6-1.3,1.3c0,0.7,0.6,1.3,1.3,1.3h8.9c0.7,0,1.3-0.6,1.3-1.3
					C68.9,40.7,68.4,40.1,67.6,40.1z"/>
				<path fill="#534C63" d="M67.6,32.9h-8.9c-0.7,0-1.3,0.6-1.3,1.3c0,0.7,0.6,1.3,1.3,1.3h8.9c0.7,0,1.3-0.6,1.3-1.3
					C68.9,33.5,68.4,32.9,67.6,32.9z"/>
			</g>
		</g>
	</g>
</g>
<g id="ICONS_-_SKRILL_TEAL" display="none">
	<g display="inline">
		<g>
			<g>
				<path fill="#41AEB5" d="M77.6,17c-0.1-0.7-0.7-1.2-1.4-1.2c-0.7,0-1.2,0.5-1.3,1.2h0l-0.4,0.7c-0.7,1.2-1.5,2.2-3.1,2.2
					c-1.5,0-2.9-0.9-3.7-2.2l-0.4-0.6h0c-0.1-0.7-0.7-1.2-1.4-1.2s-1.3,0.5-1.4,1.2h0l-0.4,0.7c-0.7,1.4-2.1,2.2-3.7,2.2
					c-1.5,0-2.9-0.9-3.7-2.2l-0.4-0.7h0c-0.1-0.7-0.7-1.2-1.4-1.2c-0.7,0-1.3,0.5-1.4,1.2h0l-0.3,0.7c-0.7,1.4-2.1,2.2-3.7,2.2
					c-1.5,0-2.9-0.9-3.7-2.2l-0.3-0.7h0c-0.1-0.7-0.7-1.2-1.4-1.2c-0.7,0-1.3,0.5-1.5,1.2h0l-0.4,0.6c-0.7,1.4-2.1,2.2-3.7,2.2
					c-1.5,0-2.9-0.9-3.7-2.2l-0.4-0.6h0c-0.1-0.7-0.7-1.2-1.4-1.2s-1.3,0.5-1.4,1.2h0l-0.3,0.7c-0.7,1.4-2.1,2.2-3.7,2.2
					c-1.5,0-3.2-1.3-3.9-2.7l0,0c-0.1-0.7-0.7-1.4-1.4-1.4c-0.7,0-1.3,0.5-1.4,1.2l0,0v0.2v64.4v0.1h0c0,0.7,0.6,1.3,1.4,1.3
					c0.7,0,1.2-0.5,1.3-1.3h0l0.3-0.7c0.7-1.5,2.1-2.4,3.7-2.4c1.6,0,3,0.9,3.7,2.4l0.3,0.7h0c0,0.8,0.6,1.4,1.4,1.4
					s1.4-0.6,1.4-1.4h0l0.3-0.7c0.7-1.5,2.1-2.4,3.7-2.4c1.6,0,3,0.9,3.7,2.4l0.3,0.7h0c0,0.8,0.7,1.4,1.4,1.4
					c0.8,0,1.3-0.6,1.4-1.4h0l0.3-0.7c0.7-1.5,2.1-2.4,3.7-2.4c1.6,0,3,0.9,3.7,2.4l0.3,0.7h0c0,0.8,0.6,1.4,1.4,1.4
					c0.8,0,1.4-0.6,1.4-1.4h0l0.3-0.7c0.7-1.5,2.1-2.4,3.7-2.4c1.6,0,3,0.9,3.7,2.4l0.3,0.7h0c0,0.8,0.6,1.4,1.4,1.4
					c0.8,0,1.5-0.7,1.5-1.5c0,0,0,0,0-0.1l0.3-0.6c0.7-1.5,2.1-2.4,3.7-2.4c1.7,0,2.6,1,3.2,2.4l0.3,0.7h0c0,0.7,0.6,1.3,1.3,1.3
					c0.7,0,1.3-0.5,1.4-1.3h0v-0.1V17.3L77.6,17L77.6,17z M74.8,77.5c-1.3-0.9-1.9-1.4-3.4-1.4c-2.1,0-4.1,1-5.4,2.6l-0.1,0.2
					l-0.1-0.2C64.5,77,62.6,76,60.5,76c-2.1,0-4.1,1-5.4,2.6L55,78.8l-0.1-0.2C53.6,77,51.6,76,49.5,76c-2.1,0-4.1,1-5.4,2.6
					l-0.1,0.2l-0.1-0.2C42.7,77,40.7,76,38.6,76c-2.1,0-4.1,1-5.4,2.6l-0.1,0.2L33,78.7C31.7,77,29.8,76,27.6,76
					c-1.4,0-2.8,0.4-3.9,1.3l-0.2,0.2V21.1l0.2,0.2c1.2,0.8,2.5,1.3,3.9,1.3c2.1,0,4.1-1,5.4-2.6l0.1-0.2l0.1,0.2
					c1.3,1.7,3.2,2.6,5.4,2.6c2.1,0,4.1-1,5.4-2.6l0.1-0.2l0.1,0.2c1.3,1.7,3.2,2.6,5.4,2.6s4.1-1,5.4-2.6l0.1-0.2l0.1,0.2
					c1.3,1.7,3.2,2.6,5.4,2.6s4.1-1,5.4-2.6l0.1-0.2l0.1,0.2c1.3,1.7,3.2,2.6,5.4,2.6c1.5,0,2.1-0.5,3.4-1.4L75,21v56.6L74.8,77.5z"
					/>
				<path fill="#41AEB5" d="M50,47.4H30.5c-0.7,0-1.3,0.6-1.3,1.3c0,0.7,0.6,1.3,1.3,1.3H50c0.7,0,1.3-0.6,1.3-1.3
					C51.3,48,50.7,47.4,50,47.4z"/>
				<path fill="#41AEB5" d="M50,40.1H30.5c-0.7,0-1.3,0.6-1.3,1.3c0,0.7,0.6,1.3,1.3,1.3H50c0.7,0,1.3-0.6,1.3-1.3
					C51.3,40.7,50.7,40.1,50,40.1z"/>
				<path fill="#41AEB5" d="M50,32.9H30.5c-0.7,0-1.3,0.6-1.3,1.3c0,0.7,0.6,1.3,1.3,1.3H50c0.7,0,1.3-0.6,1.3-1.3
					C51.3,33.5,50.7,32.9,50,32.9z"/>
				<path fill="#41AEB5" d="M67.6,47.4h-8.9c-0.7,0-1.3,0.6-1.3,1.3c0,0.7,0.6,1.3,1.3,1.3h8.9c0.7,0,1.3-0.6,1.3-1.3
					C68.9,48,68.4,47.4,67.6,47.4z"/>
				<path fill="#41AEB5" d="M67.6,60.4h-8.9c-0.7,0-1.3,0.6-1.3,1.3c0,0.7,0.6,1.3,1.3,1.3h8.9c0.7,0,1.3-0.6,1.3-1.3
					C68.9,61,68.4,60.4,67.6,60.4z"/>
				<path fill="#41AEB5" d="M67.6,40.1h-8.9c-0.7,0-1.3,0.6-1.3,1.3c0,0.7,0.6,1.3,1.3,1.3h8.9c0.7,0,1.3-0.6,1.3-1.3
					C68.9,40.7,68.4,40.1,67.6,40.1z"/>
				<path fill="#41AEB5" d="M67.6,32.9h-8.9c-0.7,0-1.3,0.6-1.3,1.3c0,0.7,0.6,1.3,1.3,1.3h8.9c0.7,0,1.3-0.6,1.3-1.3
					C68.9,33.5,68.4,32.9,67.6,32.9z"/>
			</g>
		</g>
	</g>
</g>
<g id="ICONS_-_SKRILL_PURPLE">
	<g>
		<g>
			<g>
				<path fill="#811E68" d="M77.6,17c-0.1-0.7-0.7-1.2-1.4-1.2c-0.7,0-1.2,0.5-1.3,1.2h0l-0.4,0.7c-0.7,1.2-1.5,2.2-3.1,2.2
					c-1.5,0-2.9-0.9-3.7-2.2l-0.4-0.6h0c-0.1-0.7-0.7-1.2-1.4-1.2s-1.3,0.5-1.4,1.2h0l-0.4,0.7c-0.7,1.4-2.1,2.2-3.7,2.2
					c-1.5,0-2.9-0.9-3.7-2.2l-0.4-0.7h0c-0.1-0.7-0.7-1.2-1.4-1.2c-0.7,0-1.3,0.5-1.4,1.2h0l-0.3,0.7c-0.7,1.4-2.1,2.2-3.7,2.2
					c-1.5,0-2.9-0.9-3.7-2.2l-0.3-0.7h0c-0.1-0.7-0.7-1.2-1.4-1.2c-0.7,0-1.3,0.5-1.5,1.2h0l-0.4,0.6c-0.7,1.4-2.1,2.2-3.7,2.2
					c-1.5,0-2.9-0.9-3.7-2.2l-0.4-0.6h0c-0.1-0.7-0.7-1.2-1.4-1.2s-1.3,0.5-1.4,1.2h0l-0.3,0.7c-0.7,1.4-2.1,2.2-3.7,2.2
					c-1.5,0-3.2-1.3-3.9-2.7l0,0c-0.1-0.7-0.7-1.4-1.4-1.4c-0.7,0-1.3,0.5-1.4,1.2l0,0v0.2v64.4v0.1h0c0,0.7,0.6,1.3,1.4,1.3
					c0.7,0,1.2-0.5,1.3-1.3h0l0.3-0.7c0.7-1.5,2.1-2.4,3.7-2.4c1.6,0,3,0.9,3.7,2.4l0.3,0.7h0c0,0.8,0.6,1.4,1.4,1.4
					s1.4-0.6,1.4-1.4h0l0.3-0.7c0.7-1.5,2.1-2.4,3.7-2.4c1.6,0,3,0.9,3.7,2.4l0.3,0.7h0c0,0.8,0.7,1.4,1.4,1.4
					c0.8,0,1.3-0.6,1.4-1.4h0l0.3-0.7c0.7-1.5,2.1-2.4,3.7-2.4c1.6,0,3,0.9,3.7,2.4l0.3,0.7h0c0,0.8,0.6,1.4,1.4,1.4
					c0.8,0,1.4-0.6,1.4-1.4h0l0.3-0.7c0.7-1.5,2.1-2.4,3.7-2.4c1.6,0,3,0.9,3.7,2.4l0.3,0.7h0c0,0.8,0.6,1.4,1.4,1.4
					c0.8,0,1.5-0.7,1.5-1.5c0,0,0,0,0-0.1l0.3-0.6c0.7-1.5,2.1-2.4,3.7-2.4c1.7,0,2.6,1,3.2,2.4l0.3,0.7h0c0,0.7,0.6,1.3,1.3,1.3
					c0.7,0,1.3-0.5,1.4-1.3h0v-0.1V17.3L77.6,17L77.6,17z M74.8,77.5c-1.3-0.9-1.9-1.4-3.4-1.4c-2.1,0-4.1,1-5.4,2.6l-0.1,0.2
					l-0.1-0.2C64.5,77,62.6,76,60.5,76c-2.1,0-4.1,1-5.4,2.6L55,78.8l-0.1-0.2C53.6,77,51.6,76,49.5,76c-2.1,0-4.1,1-5.4,2.6
					l-0.1,0.2l-0.1-0.2C42.7,77,40.7,76,38.6,76c-2.1,0-4.1,1-5.4,2.6l-0.1,0.2L33,78.7C31.7,77,29.8,76,27.6,76
					c-1.4,0-2.8,0.4-3.9,1.3l-0.2,0.2V21.1l0.2,0.2c1.2,0.8,2.5,1.3,3.9,1.3c2.1,0,4.1-1,5.4-2.6l0.1-0.2l0.1,0.2
					c1.3,1.7,3.2,2.6,5.4,2.6c2.1,0,4.1-1,5.4-2.6l0.1-0.2l0.1,0.2c1.3,1.7,3.2,2.6,5.4,2.6s4.1-1,5.4-2.6l0.1-0.2l0.1,0.2
					c1.3,1.7,3.2,2.6,5.4,2.6s4.1-1,5.4-2.6l0.1-0.2l0.1,0.2c1.3,1.7,3.2,2.6,5.4,2.6c1.5,0,2.1-0.5,3.4-1.4L75,21v56.6L74.8,77.5z"
					/>
				<path fill="#811E68" d="M50,47.4H30.5c-0.7,0-1.3,0.6-1.3,1.3c0,0.7,0.6,1.3,1.3,1.3H50c0.7,0,1.3-0.6,1.3-1.3
					C51.3,48,50.7,47.4,50,47.4z"/>
				<path fill="#811E68" d="M50,40.1H30.5c-0.7,0-1.3,0.6-1.3,1.3c0,0.7,0.6,1.3,1.3,1.3H50c0.7,0,1.3-0.6,1.3-1.3
					C51.3,40.7,50.7,40.1,50,40.1z"/>
				<path fill="#811E68" d="M50,32.9H30.5c-0.7,0-1.3,0.6-1.3,1.3c0,0.7,0.6,1.3,1.3,1.3H50c0.7,0,1.3-0.6,1.3-1.3
					C51.3,33.5,50.7,32.9,50,32.9z"/>
				<path fill="#811E68" d="M67.6,47.4h-8.9c-0.7,0-1.3,0.6-1.3,1.3c0,0.7,0.6,1.3,1.3,1.3h8.9c0.7,0,1.3-0.6,1.3-1.3
					C68.9,48,68.4,47.4,67.6,47.4z"/>
				<path fill="#811E68" d="M67.6,60.4h-8.9c-0.7,0-1.3,0.6-1.3,1.3c0,0.7,0.6,1.3,1.3,1.3h8.9c0.7,0,1.3-0.6,1.3-1.3
					C68.9,61,68.4,60.4,67.6,60.4z"/>
				<path fill="#811E68" d="M67.6,40.1h-8.9c-0.7,0-1.3,0.6-1.3,1.3c0,0.7,0.6,1.3,1.3,1.3h8.9c0.7,0,1.3-0.6,1.3-1.3
					C68.9,40.7,68.4,40.1,67.6,40.1z"/>
				<path fill="#811E68" d="M67.6,32.9h-8.9c-0.7,0-1.3,0.6-1.3,1.3c0,0.7,0.6,1.3,1.3,1.3h8.9c0.7,0,1.3-0.6,1.3-1.3
					C68.9,33.5,68.4,32.9,67.6,32.9z"/>
			</g>
		</g>
	</g>
</g>
<g id="ICONS_-_WHITE" display="none">
	<g display="inline">
		<g>
			<g>
				<path fill="#FFFFFF" d="M77.6,17c-0.1-0.7-0.7-1.2-1.4-1.2c-0.7,0-1.2,0.5-1.3,1.2h0l-0.4,0.7c-0.7,1.2-1.5,2.2-3.1,2.2
					c-1.5,0-2.9-0.9-3.7-2.2l-0.4-0.6h0c-0.1-0.7-0.7-1.2-1.4-1.2s-1.3,0.5-1.4,1.2h0l-0.4,0.7c-0.7,1.4-2.1,2.2-3.7,2.2
					c-1.5,0-2.9-0.9-3.7-2.2l-0.4-0.7h0c-0.1-0.7-0.7-1.2-1.4-1.2c-0.7,0-1.3,0.5-1.4,1.2h0l-0.3,0.7c-0.7,1.4-2.1,2.2-3.7,2.2
					c-1.5,0-2.9-0.9-3.7-2.2l-0.3-0.7h0c-0.1-0.7-0.7-1.2-1.4-1.2c-0.7,0-1.3,0.5-1.5,1.2h0l-0.4,0.6c-0.7,1.4-2.1,2.2-3.7,2.2
					c-1.5,0-2.9-0.9-3.7-2.2l-0.4-0.6h0c-0.1-0.7-0.7-1.2-1.4-1.2s-1.3,0.5-1.4,1.2h0l-0.3,0.7c-0.7,1.4-2.1,2.2-3.7,2.2
					c-1.5,0-3.2-1.3-3.9-2.7l0,0c-0.1-0.7-0.7-1.4-1.4-1.4c-0.7,0-1.3,0.5-1.4,1.2l0,0v0.2v64.4v0.1h0c0,0.7,0.6,1.3,1.4,1.3
					c0.7,0,1.2-0.5,1.3-1.3h0l0.3-0.7c0.7-1.5,2.1-2.4,3.7-2.4c1.6,0,3,0.9,3.7,2.4l0.3,0.7h0c0,0.8,0.6,1.4,1.4,1.4
					s1.4-0.6,1.4-1.4h0l0.3-0.7c0.7-1.5,2.1-2.4,3.7-2.4c1.6,0,3,0.9,3.7,2.4l0.3,0.7h0c0,0.8,0.7,1.4,1.4,1.4
					c0.8,0,1.3-0.6,1.4-1.4h0l0.3-0.7c0.7-1.5,2.1-2.4,3.7-2.4c1.6,0,3,0.9,3.7,2.4l0.3,0.7h0c0,0.8,0.6,1.4,1.4,1.4
					c0.8,0,1.4-0.6,1.4-1.4h0l0.3-0.7c0.7-1.5,2.1-2.4,3.7-2.4c1.6,0,3,0.9,3.7,2.4l0.3,0.7h0c0,0.8,0.6,1.4,1.4,1.4
					c0.8,0,1.5-0.7,1.5-1.5c0,0,0,0,0-0.1l0.3-0.6c0.7-1.5,2.1-2.4,3.7-2.4c1.7,0,2.6,1,3.2,2.4l0.3,0.7h0c0,0.7,0.6,1.3,1.3,1.3
					c0.7,0,1.3-0.5,1.4-1.3h0v-0.1V17.3L77.6,17L77.6,17z M74.8,77.5c-1.3-0.9-1.9-1.4-3.4-1.4c-2.1,0-4.1,1-5.4,2.6l-0.1,0.2
					l-0.1-0.2C64.5,77,62.6,76,60.5,76c-2.1,0-4.1,1-5.4,2.6L55,78.8l-0.1-0.2C53.6,77,51.6,76,49.5,76c-2.1,0-4.1,1-5.4,2.6
					l-0.1,0.2l-0.1-0.2C42.7,77,40.7,76,38.6,76c-2.1,0-4.1,1-5.4,2.6l-0.1,0.2L33,78.7C31.7,77,29.8,76,27.6,76
					c-1.4,0-2.8,0.4-3.9,1.3l-0.2,0.2V21.1l0.2,0.2c1.2,0.8,2.5,1.3,3.9,1.3c2.1,0,4.1-1,5.4-2.6l0.1-0.2l0.1,0.2
					c1.3,1.7,3.2,2.6,5.4,2.6c2.1,0,4.1-1,5.4-2.6l0.1-0.2l0.1,0.2c1.3,1.7,3.2,2.6,5.4,2.6s4.1-1,5.4-2.6l0.1-0.2l0.1,0.2
					c1.3,1.7,3.2,2.6,5.4,2.6s4.1-1,5.4-2.6l0.1-0.2l0.1,0.2c1.3,1.7,3.2,2.6,5.4,2.6c1.5,0,2.1-0.5,3.4-1.4L75,21v56.6L74.8,77.5z"
					/>
				<path fill="#FFFFFF" d="M50,47.4H30.5c-0.7,0-1.3,0.6-1.3,1.3c0,0.7,0.6,1.3,1.3,1.3H50c0.7,0,1.3-0.6,1.3-1.3
					C51.3,48,50.7,47.4,50,47.4z"/>
				<path fill="#FFFFFF" d="M50,40.1H30.5c-0.7,0-1.3,0.6-1.3,1.3c0,0.7,0.6,1.3,1.3,1.3H50c0.7,0,1.3-0.6,1.3-1.3
					C51.3,40.7,50.7,40.1,50,40.1z"/>
				<path fill="#FFFFFF" d="M50,32.9H30.5c-0.7,0-1.3,0.6-1.3,1.3c0,0.7,0.6,1.3,1.3,1.3H50c0.7,0,1.3-0.6,1.3-1.3
					C51.3,33.5,50.7,32.9,50,32.9z"/>
				<path fill="#FFFFFF" d="M67.6,47.4h-8.9c-0.7,0-1.3,0.6-1.3,1.3c0,0.7,0.6,1.3,1.3,1.3h8.9c0.7,0,1.3-0.6,1.3-1.3
					C68.9,48,68.4,47.4,67.6,47.4z"/>
				<path fill="#FFFFFF" d="M67.6,60.4h-8.9c-0.7,0-1.3,0.6-1.3,1.3c0,0.7,0.6,1.3,1.3,1.3h8.9c0.7,0,1.3-0.6,1.3-1.3
					C68.9,61,68.4,60.4,67.6,60.4z"/>
				<path fill="#FFFFFF" d="M67.6,40.1h-8.9c-0.7,0-1.3,0.6-1.3,1.3c0,0.7,0.6,1.3,1.3,1.3h8.9c0.7,0,1.3-0.6,1.3-1.3
					C68.9,40.7,68.4,40.1,67.6,40.1z"/>
				<path fill="#FFFFFF" d="M67.6,32.9h-8.9c-0.7,0-1.3,0.6-1.3,1.3c0,0.7,0.6,1.3,1.3,1.3h8.9c0.7,0,1.3-0.6,1.3-1.3
					C68.9,33.5,68.4,32.9,67.6,32.9z"/>
			</g>
		</g>
	</g>
</g>
<g id="LABELS">
</g>
</svg>
