<?xml version="1.0" encoding="utf-8"?>
<!-- Generator: Adobe Illustrator 18.1.1, SVG Export Plug-In . SVG Version: 6.00 Build 0)  -->
<svg version="1.1" xmlns="http://www.w3.org/2000/svg" xmlns:xlink="http://www.w3.org/1999/xlink" x="0px" y="0px"
	 viewBox="0 0 100 100" enable-background="new 0 0 100 100" xml:space="preserve">
<g id="GUIDES">
</g>
<g id="ICONS_-_BLACK" display="none">
	<g display="inline">
		<g>
			<g>
				<path d="M45.7,74.2c0,2.5,2.1,4.6,4.6,4.6c2.5,0,4.6-2,4.6-4.6s-2-4.6-4.6-4.6C47.7,69.6,45.7,71.7,45.7,74.2z M52.7,74.2
					c0,1.4-1.1,2.5-2.5,2.5c-1.4,0-2.5-1.1-2.5-2.5s1.1-2.5,2.5-2.5C51.6,71.7,52.7,72.8,52.7,74.2z"/>
				<path d="M93.1,54.6l-7.7-14.1c-0.9-1.6-2.6-2.6-4.4-2.6c-1,0-2,0.3-2.8,0.8c-0.8,0.5-1.4,1.2-1.9,2l0,0.1l-0.1,0
					c-0.7-0.3-1.4-0.5-2.2-0.5c-0.5,0-0.9,0.1-1.3,0.2l-0.1,0V17.3c0-0.7-0.6-1.3-1.3-1.3H29.4c-0.7,0-1.3,0.6-1.3,1.3v65.5
					c0,0.7,0.6,1.3,1.3,1.3h41.7c0.7,0,1.3-0.6,1.3-1.3v-6.4l1,0.5c2,0.9,4,1.4,6.1,1.4c5.2,0,10.2-3.1,13.1-8
					C95.5,65.3,95.7,59.4,93.1,54.6z M30.7,18.6h39.1v7H30.7V18.6z M30.7,28.2h39.1l0,13.8c-0.3,0.3-0.4,0.6-0.6,0.9l0,0.1L69,43
					c-0.7-0.3-1.5-0.5-2.3-0.5c-1,0-2,0.3-2.8,0.8c-0.4,0.3-0.8,0.6-1.1,1l-0.1,0.1l-4.4-7.1c-1-1.6-2.6-2.5-4.5-2.5
					c-1,0-1.9,0.3-2.8,0.8c-2.5,1.5-3.2,4.8-1.7,7.2l9.8,15.9L59,58.5c-1-0.4-2.3-0.5-3.1-0.5c-2.1,0-4.4,0.5-5.8,1.4
					c-0.2,0.1-0.4,0.3-0.5,0.5c-0.5,1.1-0.6,2.4-0.3,3.7l0,0.1H30.7V28.2z M69.8,81.5H30.7V66.2l20.5,0c0.3,0.2,0.6,0.4,1,0.6
					l17.7,8.3V81.5z M90.4,69c-2.5,4.2-6.7,6.7-10.9,6.7c-1.7,0-3.4-0.4-5-1.2l-21.2-10c-1.2-0.6-1.8-2-1.4-3.3c1-0.5,2.6-0.8,4-0.8
					c0.9,0,1.7,0.1,2.2,0.4l4,1.9c0.2,0.1,0.3,0.1,0.5,0.1c0.4,0,0.7-0.2,1-0.4c0.4-0.4,0.4-1,0.1-1.5L51.6,41.3
					c-0.8-1.3-0.4-3,0.9-3.7c0.4-0.3,0.9-0.4,1.4-0.4c1,0,1.8,0.5,2.3,1.3l5.6,9c0.2,0.4,0.6,0.6,1.1,0.6c0.1,0,0.1,0,0.2,0
					c0.5-0.1,0.9-0.5,1-1c0.2-0.7,0.6-1.4,1.2-1.7c0.4-0.2,0.9-0.4,1.4-0.4c0.9,0,1.7,0.3,2.1,0.9c0.2,0.3,0.6,0.5,1,0.5
					c0.1,0,0.3,0,0.4-0.1c0.5-0.2,0.8-0.6,0.9-1.1c0.1-0.9,0.5-1.7,1.3-2.1c0.4-0.2,0.9-0.4,1.4-0.4c0.9,0,1.7,0.3,2.1,0.9
					c0.2,0.3,0.6,0.4,1,0.4c0.1,0,0.3,0,0.4-0.1c0.5-0.2,0.8-0.6,0.9-1.1c0.1-0.9,0.5-1.7,1.3-2.1c0.4-0.3,1-0.4,1.5-0.4
					c1,0,1.8,0.5,2.2,1.2l7.7,14.1C93.1,59.8,92.9,64.8,90.4,69z"/>
			</g>
		</g>
	</g>
</g>
<g id="ICONS_-_DARK_PURPLE" display="none">
	<g display="inline">
		<g>
			<g>
				<path fill="#4F2556" d="M45.7,74.2c0,2.5,2.1,4.6,4.6,4.6c2.5,0,4.6-2,4.6-4.6s-2-4.6-4.6-4.6C47.7,69.6,45.7,71.7,45.7,74.2z
					 M52.7,74.2c0,1.4-1.1,2.5-2.5,2.5c-1.4,0-2.5-1.1-2.5-2.5s1.1-2.5,2.5-2.5C51.6,71.7,52.7,72.8,52.7,74.2z"/>
				<path fill="#4F2556" d="M93.1,54.6l-7.7-14.1c-0.9-1.6-2.6-2.6-4.4-2.6c-1,0-2,0.3-2.8,0.8c-0.8,0.5-1.4,1.2-1.9,2l0,0.1l-0.1,0
					c-0.7-0.3-1.4-0.5-2.2-0.5c-0.5,0-0.9,0.1-1.3,0.2l-0.1,0V17.3c0-0.7-0.6-1.3-1.3-1.3H29.4c-0.7,0-1.3,0.6-1.3,1.3v65.5
					c0,0.7,0.6,1.3,1.3,1.3h41.7c0.7,0,1.3-0.6,1.3-1.3v-6.4l1,0.5c2,0.9,4,1.4,6.1,1.4c5.2,0,10.2-3.1,13.1-8
					C95.5,65.3,95.7,59.4,93.1,54.6z M30.7,18.6h39.1v7H30.7V18.6z M30.7,28.2h39.1l0,13.8c-0.3,0.3-0.4,0.6-0.6,0.9l0,0.1L69,43
					c-0.7-0.3-1.5-0.5-2.3-0.5c-1,0-2,0.3-2.8,0.8c-0.4,0.3-0.8,0.6-1.1,1l-0.1,0.1l-4.4-7.1c-1-1.6-2.6-2.5-4.5-2.5
					c-1,0-1.9,0.3-2.8,0.8c-2.5,1.5-3.2,4.8-1.7,7.2l9.8,15.9L59,58.5c-1-0.4-2.3-0.5-3.1-0.5c-2.1,0-4.4,0.5-5.8,1.4
					c-0.2,0.1-0.4,0.3-0.5,0.5c-0.5,1.1-0.6,2.4-0.3,3.7l0,0.1H30.7V28.2z M69.8,81.5H30.7V66.2l20.5,0c0.3,0.2,0.6,0.4,1,0.6
					l17.7,8.3V81.5z M90.4,69c-2.5,4.2-6.7,6.7-10.9,6.7c-1.7,0-3.4-0.4-5-1.2l-21.2-10c-1.2-0.6-1.8-2-1.4-3.3c1-0.5,2.6-0.8,4-0.8
					c0.9,0,1.7,0.1,2.2,0.4l4,1.9c0.2,0.1,0.3,0.1,0.5,0.1c0.4,0,0.7-0.2,1-0.4c0.4-0.4,0.4-1,0.1-1.5L51.6,41.3
					c-0.8-1.3-0.4-3,0.9-3.7c0.4-0.3,0.9-0.4,1.4-0.4c1,0,1.8,0.5,2.3,1.3l5.6,9c0.2,0.4,0.6,0.6,1.1,0.6c0.1,0,0.1,0,0.2,0
					c0.5-0.1,0.9-0.5,1-1c0.2-0.7,0.6-1.4,1.2-1.7c0.4-0.2,0.9-0.4,1.4-0.4c0.9,0,1.7,0.3,2.1,0.9c0.2,0.3,0.6,0.5,1,0.5
					c0.1,0,0.3,0,0.4-0.1c0.5-0.2,0.8-0.6,0.9-1.1c0.1-0.9,0.5-1.7,1.3-2.1c0.4-0.2,0.9-0.4,1.4-0.4c0.9,0,1.7,0.3,2.1,0.9
					c0.2,0.3,0.6,0.4,1,0.4c0.1,0,0.3,0,0.4-0.1c0.5-0.2,0.8-0.6,0.9-1.1c0.1-0.9,0.5-1.7,1.3-2.1c0.4-0.3,1-0.4,1.5-0.4
					c1,0,1.8,0.5,2.2,1.2l7.7,14.1C93.1,59.8,92.9,64.8,90.4,69z"/>
			</g>
		</g>
	</g>
</g>
<g id="ICONS_-_WARM_GREY" display="none">
	<g display="inline">
		<g>
			<g>
				<path fill="#534C63" d="M45.7,74.2c0,2.5,2.1,4.6,4.6,4.6c2.5,0,4.6-2,4.6-4.6s-2-4.6-4.6-4.6C47.7,69.6,45.7,71.7,45.7,74.2z
					 M52.7,74.2c0,1.4-1.1,2.5-2.5,2.5c-1.4,0-2.5-1.1-2.5-2.5s1.1-2.5,2.5-2.5C51.6,71.7,52.7,72.8,52.7,74.2z"/>
				<path fill="#534C63" d="M93.1,54.6l-7.7-14.1c-0.9-1.6-2.6-2.6-4.4-2.6c-1,0-2,0.3-2.8,0.8c-0.8,0.5-1.4,1.2-1.9,2l0,0.1l-0.1,0
					c-0.7-0.3-1.4-0.5-2.2-0.5c-0.5,0-0.9,0.1-1.3,0.2l-0.1,0V17.3c0-0.7-0.6-1.3-1.3-1.3H29.4c-0.7,0-1.3,0.6-1.3,1.3v65.5
					c0,0.7,0.6,1.3,1.3,1.3h41.7c0.7,0,1.3-0.6,1.3-1.3v-6.4l1,0.5c2,0.9,4,1.4,6.1,1.4c5.2,0,10.2-3.1,13.1-8
					C95.5,65.3,95.7,59.4,93.1,54.6z M30.7,18.6h39.1v7H30.7V18.6z M30.7,28.2h39.1l0,13.8c-0.3,0.3-0.4,0.6-0.6,0.9l0,0.1L69,43
					c-0.7-0.3-1.5-0.5-2.3-0.5c-1,0-2,0.3-2.8,0.8c-0.4,0.3-0.8,0.6-1.1,1l-0.1,0.1l-4.4-7.1c-1-1.6-2.6-2.5-4.5-2.5
					c-1,0-1.9,0.3-2.8,0.8c-2.5,1.5-3.2,4.8-1.7,7.2l9.8,15.9L59,58.5c-1-0.4-2.3-0.5-3.1-0.5c-2.1,0-4.4,0.5-5.8,1.4
					c-0.2,0.1-0.4,0.3-0.5,0.5c-0.5,1.1-0.6,2.4-0.3,3.7l0,0.1H30.7V28.2z M69.8,81.5H30.7V66.2l20.5,0c0.3,0.2,0.6,0.4,1,0.6
					l17.7,8.3V81.5z M90.4,69c-2.5,4.2-6.7,6.7-10.9,6.7c-1.7,0-3.4-0.4-5-1.2l-21.2-10c-1.2-0.6-1.8-2-1.4-3.3c1-0.5,2.6-0.8,4-0.8
					c0.9,0,1.7,0.1,2.2,0.4l4,1.9c0.2,0.1,0.3,0.1,0.5,0.1c0.4,0,0.7-0.2,1-0.4c0.4-0.4,0.4-1,0.1-1.5L51.6,41.3
					c-0.8-1.3-0.4-3,0.9-3.7c0.4-0.3,0.9-0.4,1.4-0.4c1,0,1.8,0.5,2.3,1.3l5.6,9c0.2,0.4,0.6,0.6,1.1,0.6c0.1,0,0.1,0,0.2,0
					c0.5-0.1,0.9-0.5,1-1c0.2-0.7,0.6-1.4,1.2-1.7c0.4-0.2,0.9-0.4,1.4-0.4c0.9,0,1.7,0.3,2.1,0.9c0.2,0.3,0.6,0.5,1,0.5
					c0.1,0,0.3,0,0.4-0.1c0.5-0.2,0.8-0.6,0.9-1.1c0.1-0.9,0.5-1.7,1.3-2.1c0.4-0.2,0.9-0.4,1.4-0.4c0.9,0,1.7,0.3,2.1,0.9
					c0.2,0.3,0.6,0.4,1,0.4c0.1,0,0.3,0,0.4-0.1c0.5-0.2,0.8-0.6,0.9-1.1c0.1-0.9,0.5-1.7,1.3-2.1c0.4-0.3,1-0.4,1.5-0.4
					c1,0,1.8,0.5,2.2,1.2l7.7,14.1C93.1,59.8,92.9,64.8,90.4,69z"/>
			</g>
		</g>
	</g>
</g>
<g id="ICONS_-_SKRILL_TEAL" display="none">
	<g display="inline">
		<g>
			<g>
				<path fill="#41AEB5" d="M45.7,74.2c0,2.5,2.1,4.6,4.6,4.6c2.5,0,4.6-2,4.6-4.6s-2-4.6-4.6-4.6C47.7,69.6,45.7,71.7,45.7,74.2z
					 M52.7,74.2c0,1.4-1.1,2.5-2.5,2.5c-1.4,0-2.5-1.1-2.5-2.5s1.1-2.5,2.5-2.5C51.6,71.7,52.7,72.8,52.7,74.2z"/>
				<path fill="#41AEB5" d="M93.1,54.6l-7.7-14.1c-0.9-1.6-2.6-2.6-4.4-2.6c-1,0-2,0.3-2.8,0.8c-0.8,0.5-1.4,1.2-1.9,2l0,0.1l-0.1,0
					c-0.7-0.3-1.4-0.5-2.2-0.5c-0.5,0-0.9,0.1-1.3,0.2l-0.1,0V17.3c0-0.7-0.6-1.3-1.3-1.3H29.4c-0.7,0-1.3,0.6-1.3,1.3v65.5
					c0,0.7,0.6,1.3,1.3,1.3h41.7c0.7,0,1.3-0.6,1.3-1.3v-6.4l1,0.5c2,0.9,4,1.4,6.1,1.4c5.2,0,10.2-3.1,13.1-8
					C95.5,65.3,95.7,59.4,93.1,54.6z M30.7,18.6h39.1v7H30.7V18.6z M30.7,28.2h39.1l0,13.8c-0.3,0.3-0.4,0.6-0.6,0.9l0,0.1L69,43
					c-0.7-0.3-1.5-0.5-2.3-0.5c-1,0-2,0.3-2.8,0.8c-0.4,0.3-0.8,0.6-1.1,1l-0.1,0.1l-4.4-7.1c-1-1.6-2.6-2.5-4.5-2.5
					c-1,0-1.9,0.3-2.8,0.8c-2.5,1.5-3.2,4.8-1.7,7.2l9.8,15.9L59,58.5c-1-0.4-2.3-0.5-3.1-0.5c-2.1,0-4.4,0.5-5.8,1.4
					c-0.2,0.1-0.4,0.3-0.5,0.5c-0.5,1.1-0.6,2.4-0.3,3.7l0,0.1H30.7V28.2z M69.8,81.5H30.7V66.2l20.5,0c0.3,0.2,0.6,0.4,1,0.6
					l17.7,8.3V81.5z M90.4,69c-2.5,4.2-6.7,6.7-10.9,6.7c-1.7,0-3.4-0.4-5-1.2l-21.2-10c-1.2-0.6-1.8-2-1.4-3.3c1-0.5,2.6-0.8,4-0.8
					c0.9,0,1.7,0.1,2.2,0.4l4,1.9c0.2,0.1,0.3,0.1,0.5,0.1c0.4,0,0.7-0.2,1-0.4c0.4-0.4,0.4-1,0.1-1.5L51.6,41.3
					c-0.8-1.3-0.4-3,0.9-3.7c0.4-0.3,0.9-0.4,1.4-0.4c1,0,1.8,0.5,2.3,1.3l5.6,9c0.2,0.4,0.6,0.6,1.1,0.6c0.1,0,0.1,0,0.2,0
					c0.5-0.1,0.9-0.5,1-1c0.2-0.7,0.6-1.4,1.2-1.7c0.4-0.2,0.9-0.4,1.4-0.4c0.9,0,1.7,0.3,2.1,0.9c0.2,0.3,0.6,0.5,1,0.5
					c0.1,0,0.3,0,0.4-0.1c0.5-0.2,0.8-0.6,0.9-1.1c0.1-0.9,0.5-1.7,1.3-2.1c0.4-0.2,0.9-0.4,1.4-0.4c0.9,0,1.7,0.3,2.1,0.9
					c0.2,0.3,0.6,0.4,1,0.4c0.1,0,0.3,0,0.4-0.1c0.5-0.2,0.8-0.6,0.9-1.1c0.1-0.9,0.5-1.7,1.3-2.1c0.4-0.3,1-0.4,1.5-0.4
					c1,0,1.8,0.5,2.2,1.2l7.7,14.1C93.1,59.8,92.9,64.8,90.4,69z"/>
			</g>
		</g>
	</g>
</g>
<g id="ICONS_-_SKRILL_PURPLE">
	<g>
		<g>
			<g>
				<path fill="#811E68" d="M45.7,74.2c0,2.5,2.1,4.6,4.6,4.6c2.5,0,4.6-2,4.6-4.6s-2-4.6-4.6-4.6C47.7,69.6,45.7,71.7,45.7,74.2z
					 M52.7,74.2c0,1.4-1.1,2.5-2.5,2.5c-1.4,0-2.5-1.1-2.5-2.5s1.1-2.5,2.5-2.5C51.6,71.7,52.7,72.8,52.7,74.2z"/>
				<path fill="#811E68" d="M93.1,54.6l-7.7-14.1c-0.9-1.6-2.6-2.6-4.4-2.6c-1,0-2,0.3-2.8,0.8c-0.8,0.5-1.4,1.2-1.9,2l0,0.1l-0.1,0
					c-0.7-0.3-1.4-0.5-2.2-0.5c-0.5,0-0.9,0.1-1.3,0.2l-0.1,0V17.3c0-0.7-0.6-1.3-1.3-1.3H29.4c-0.7,0-1.3,0.6-1.3,1.3v65.5
					c0,0.7,0.6,1.3,1.3,1.3h41.7c0.7,0,1.3-0.6,1.3-1.3v-6.4l1,0.5c2,0.9,4,1.4,6.1,1.4c5.2,0,10.2-3.1,13.1-8
					C95.5,65.3,95.7,59.4,93.1,54.6z M30.7,18.6h39.1v7H30.7V18.6z M30.7,28.2h39.1l0,13.8c-0.3,0.3-0.4,0.6-0.6,0.9l0,0.1L69,43
					c-0.7-0.3-1.5-0.5-2.3-0.5c-1,0-2,0.3-2.8,0.8c-0.4,0.3-0.8,0.6-1.1,1l-0.1,0.1l-4.4-7.1c-1-1.6-2.6-2.5-4.5-2.5
					c-1,0-1.9,0.3-2.8,0.8c-2.5,1.5-3.2,4.8-1.7,7.2l9.8,15.9L59,58.5c-1-0.4-2.3-0.5-3.1-0.5c-2.1,0-4.4,0.5-5.8,1.4
					c-0.2,0.1-0.4,0.3-0.5,0.5c-0.5,1.1-0.6,2.4-0.3,3.7l0,0.1H30.7V28.2z M69.8,81.5H30.7V66.2l20.5,0c0.3,0.2,0.6,0.4,1,0.6
					l17.7,8.3V81.5z M90.4,69c-2.5,4.2-6.7,6.7-10.9,6.7c-1.7,0-3.4-0.4-5-1.2l-21.2-10c-1.2-0.6-1.8-2-1.4-3.3c1-0.5,2.6-0.8,4-0.8
					c0.9,0,1.7,0.1,2.2,0.4l4,1.9c0.2,0.1,0.3,0.1,0.5,0.1c0.4,0,0.7-0.2,1-0.4c0.4-0.4,0.4-1,0.1-1.5L51.6,41.3
					c-0.8-1.3-0.4-3,0.9-3.7c0.4-0.3,0.9-0.4,1.4-0.4c1,0,1.8,0.5,2.3,1.3l5.6,9c0.2,0.4,0.6,0.6,1.1,0.6c0.1,0,0.1,0,0.2,0
					c0.5-0.1,0.9-0.5,1-1c0.2-0.7,0.6-1.4,1.2-1.7c0.4-0.2,0.9-0.4,1.4-0.4c0.9,0,1.7,0.3,2.1,0.9c0.2,0.3,0.6,0.5,1,0.5
					c0.1,0,0.3,0,0.4-0.1c0.5-0.2,0.8-0.6,0.9-1.1c0.1-0.9,0.5-1.7,1.3-2.1c0.4-0.2,0.9-0.4,1.4-0.4c0.9,0,1.7,0.3,2.1,0.9
					c0.2,0.3,0.6,0.4,1,0.4c0.1,0,0.3,0,0.4-0.1c0.5-0.2,0.8-0.6,0.9-1.1c0.1-0.9,0.5-1.7,1.3-2.1c0.4-0.3,1-0.4,1.5-0.4
					c1,0,1.8,0.5,2.2,1.2l7.7,14.1C93.1,59.8,92.9,64.8,90.4,69z"/>
			</g>
		</g>
	</g>
</g>
<g id="ICONS_-_WHITE" display="none">
	<g display="inline">
		<g>
			<g>
				<path fill="#FFFFFF" d="M45.7,74.2c0,2.5,2.1,4.6,4.6,4.6c2.5,0,4.6-2,4.6-4.6s-2-4.6-4.6-4.6C47.7,69.6,45.7,71.7,45.7,74.2z
					 M52.7,74.2c0,1.4-1.1,2.5-2.5,2.5c-1.4,0-2.5-1.1-2.5-2.5s1.1-2.5,2.5-2.5C51.6,71.7,52.7,72.8,52.7,74.2z"/>
				<path fill="#FFFFFF" d="M93.1,54.6l-7.7-14.1c-0.9-1.6-2.6-2.6-4.4-2.6c-1,0-2,0.3-2.8,0.8c-0.8,0.5-1.4,1.2-1.9,2l0,0.1l-0.1,0
					c-0.7-0.3-1.4-0.5-2.2-0.5c-0.5,0-0.9,0.1-1.3,0.2l-0.1,0V17.3c0-0.7-0.6-1.3-1.3-1.3H29.4c-0.7,0-1.3,0.6-1.3,1.3v65.5
					c0,0.7,0.6,1.3,1.3,1.3h41.7c0.7,0,1.3-0.6,1.3-1.3v-6.4l1,0.5c2,0.9,4,1.4,6.1,1.4c5.2,0,10.2-3.1,13.1-8
					C95.5,65.3,95.7,59.4,93.1,54.6z M30.7,18.6h39.1v7H30.7V18.6z M30.7,28.2h39.1l0,13.8c-0.3,0.3-0.4,0.6-0.6,0.9l0,0.1L69,43
					c-0.7-0.3-1.5-0.5-2.3-0.5c-1,0-2,0.3-2.8,0.8c-0.4,0.3-0.8,0.6-1.1,1l-0.1,0.1l-4.4-7.1c-1-1.6-2.6-2.5-4.5-2.5
					c-1,0-1.9,0.3-2.8,0.8c-2.5,1.5-3.2,4.8-1.7,7.2l9.8,15.9L59,58.5c-1-0.4-2.3-0.5-3.1-0.5c-2.1,0-4.4,0.5-5.8,1.4
					c-0.2,0.1-0.4,0.3-0.5,0.5c-0.5,1.1-0.6,2.4-0.3,3.7l0,0.1H30.7V28.2z M69.8,81.5H30.7V66.2l20.5,0c0.3,0.2,0.6,0.4,1,0.6
					l17.7,8.3V81.5z M90.4,69c-2.5,4.2-6.7,6.7-10.9,6.7c-1.7,0-3.4-0.4-5-1.2l-21.2-10c-1.2-0.6-1.8-2-1.4-3.3c1-0.5,2.6-0.8,4-0.8
					c0.9,0,1.7,0.1,2.2,0.4l4,1.9c0.2,0.1,0.3,0.1,0.5,0.1c0.4,0,0.7-0.2,1-0.4c0.4-0.4,0.4-1,0.1-1.5L51.6,41.3
					c-0.8-1.3-0.4-3,0.9-3.7c0.4-0.3,0.9-0.4,1.4-0.4c1,0,1.8,0.5,2.3,1.3l5.6,9c0.2,0.4,0.6,0.6,1.1,0.6c0.1,0,0.1,0,0.2,0
					c0.5-0.1,0.9-0.5,1-1c0.2-0.7,0.6-1.4,1.2-1.7c0.4-0.2,0.9-0.4,1.4-0.4c0.9,0,1.7,0.3,2.1,0.9c0.2,0.3,0.6,0.5,1,0.5
					c0.1,0,0.3,0,0.4-0.1c0.5-0.2,0.8-0.6,0.9-1.1c0.1-0.9,0.5-1.7,1.3-2.1c0.4-0.2,0.9-0.4,1.4-0.4c0.9,0,1.7,0.3,2.1,0.9
					c0.2,0.3,0.6,0.4,1,0.4c0.1,0,0.3,0,0.4-0.1c0.5-0.2,0.8-0.6,0.9-1.1c0.1-0.9,0.5-1.7,1.3-2.1c0.4-0.3,1-0.4,1.5-0.4
					c1,0,1.8,0.5,2.2,1.2l7.7,14.1C93.1,59.8,92.9,64.8,90.4,69z"/>
			</g>
		</g>
	</g>
</g>
<g id="LABELS">
</g>
</svg>
