<?xml version="1.0" encoding="utf-8"?>
<!-- Generator: Adobe Illustrator 18.1.1, SVG Export Plug-In . SVG Version: 6.00 Build 0)  -->
<svg version="1.1" xmlns="http://www.w3.org/2000/svg" xmlns:xlink="http://www.w3.org/1999/xlink" x="0px" y="0px"
	 viewBox="0 0 100 100" enable-background="new 0 0 100 100" xml:space="preserve">
<g id="GUIDES">
</g>
<g id="ICONS_-_BLACK" display="none">
	<g display="inline">
		<g>
			<g>
				<path d="M86.3,28.4c-1.5-1.8-3.9-2.8-6.4-2.8c-4.9,0-9.1,3.6-9.5,8.3c-0.2,2.8,0.6,5.2,2.2,6.7l0.1,0.1l-0.3,0.6
					c-4.2,8.2-5.3,10-7.3,10c-0.2,0-0.4,0-0.6,0c-2.2-0.2-3.1-0.3-9.3-14.6l0-0.1l0.1,0c2.1-1.7,3.4-4.1,3.4-6.7
					c0.1-2.2-0.8-4.4-2.4-6C54.4,22,51.9,21,49.4,21v0c0,0,0,0-0.1,0c0,0,0,0-0.1,0v0c-2.6,0-5,1.1-6.8,2.8c-1.6,1.6-2.5,3.8-2.4,6
					c0.1,2.6,1.3,5,3.4,6.7l0.1,0l0,0.1C37.2,51,36.4,51,34.2,51.3c-0.2,0-0.5,0-0.6,0c-2,0-3.1-1.8-7.3-10l-0.3-0.6l0.1-0.1
					c1.6-1.6,2.4-3.9,2.2-6.7c-0.4-4.6-4.5-8.3-9.5-8.3c-2.5,0-4.9,1-6.4,2.8c-1.5,1.7-2.1,3.8-1.8,6.1c0.5,3.7,2.8,6.7,6.1,7.7
					l0.1,0l4.1,22.6l0,0c-2,1.9-2.8,4.8-2,8c0.8,3.7,3.3,6.1,6.1,6.1h24.5h24.5c2.8,0,5.3-2.5,6.1-6.1c0.7-3.1,0-6.1-2-8l0,0
					l4.1-22.6l0.1,0c3.3-1.1,5.6-4,6.1-7.7C88.4,32.3,87.8,30.1,86.3,28.4z M85.7,34.2c-0.4,3.3-2.7,5.7-5.7,6l-0.1,0l-4.7,25.7
					l0.1,0.1c2.4,1.3,2.7,4.2,2.2,6.3c-0.6,2.5-2.1,4.2-3.8,4.2H49.3H24.8c-1.6,0-3.2-1.7-3.8-4.2c-0.5-2.1-0.2-5,2.2-6.3l0.1-0.1
					l-4.7-25.7l-0.1,0c-3-0.3-5.3-2.7-5.7-6c-0.2-1.5,0.2-3,1.2-4.1c1.1-1.2,2.7-1.9,4.6-1.9c3.6,0,6.8,2.7,7.1,6.1
					c0.2,2.7-0.8,4.8-2.8,5.6l-0.2,0.1l1.4,2.6c4.4,8.4,5.8,11.3,9.5,11.3c0.3,0,0.6,0,0.9-0.1c3.9-0.4,5.1-1.8,12.1-17.9l0.1-0.2
					l-0.2-0.1c-2.3-1.1-3.9-3.3-4-5.7c0-1.6,0.6-3.1,1.7-4.3c1.3-1.3,3.1-2.1,5.1-2.1c2,0,3.8,0.8,5.1,2.1c1.1,1.2,1.7,2.7,1.7,4.3
					c-0.1,2.4-1.6,4.7-4,5.7l-0.2,0.1l0.1,0.2c7,16.2,8.3,17.5,12.1,17.9c0.3,0,0.6,0.1,0.9,0.1c3.7,0,5.1-2.8,9.5-11.3l1.4-2.6
					l-0.2-0.1c-2-0.8-3-2.9-2.8-5.6c0.3-3.3,3.4-6.1,7.1-6.1c1.8,0,3.5,0.7,4.6,1.9C85.5,31.2,85.9,32.6,85.7,34.2z"/>
			</g>
		</g>
	</g>
</g>
<g id="ICONS_-_DARK_PURPLE" display="none">
	<g display="inline">
		<g>
			<g>
				<path fill="#4F2556" d="M86.3,28.4c-1.5-1.8-3.9-2.8-6.4-2.8c-4.9,0-9.1,3.6-9.5,8.3c-0.2,2.8,0.6,5.2,2.2,6.7l0.1,0.1l-0.3,0.6
					c-4.2,8.2-5.3,10-7.3,10c-0.2,0-0.4,0-0.6,0c-2.2-0.2-3.1-0.3-9.3-14.6l0-0.1l0.1,0c2.1-1.7,3.4-4.1,3.4-6.7
					c0.1-2.2-0.8-4.4-2.4-6C54.4,22,51.9,21,49.4,21v0c0,0,0,0-0.1,0c0,0,0,0-0.1,0v0c-2.6,0-5,1.1-6.8,2.8c-1.6,1.6-2.5,3.8-2.4,6
					c0.1,2.6,1.3,5,3.4,6.7l0.1,0l0,0.1C37.2,51,36.4,51,34.2,51.3c-0.2,0-0.5,0-0.6,0c-2,0-3.1-1.8-7.3-10l-0.3-0.6l0.1-0.1
					c1.6-1.6,2.4-3.9,2.2-6.7c-0.4-4.6-4.5-8.3-9.5-8.3c-2.5,0-4.9,1-6.4,2.8c-1.5,1.7-2.1,3.8-1.8,6.1c0.5,3.7,2.8,6.7,6.1,7.7
					l0.1,0l4.1,22.6l0,0c-2,1.9-2.8,4.8-2,8c0.8,3.7,3.3,6.1,6.1,6.1h24.5h24.5c2.8,0,5.3-2.5,6.1-6.1c0.7-3.1,0-6.1-2-8l0,0
					l4.1-22.6l0.1,0c3.3-1.1,5.6-4,6.1-7.7C88.4,32.3,87.8,30.1,86.3,28.4z M85.7,34.2c-0.4,3.3-2.7,5.7-5.7,6l-0.1,0l-4.7,25.7
					l0.1,0.1c2.4,1.3,2.7,4.2,2.2,6.3c-0.6,2.5-2.1,4.2-3.8,4.2H49.3H24.8c-1.6,0-3.2-1.7-3.8-4.2c-0.5-2.1-0.2-5,2.2-6.3l0.1-0.1
					l-4.7-25.7l-0.1,0c-3-0.3-5.3-2.7-5.7-6c-0.2-1.5,0.2-3,1.2-4.1c1.1-1.2,2.7-1.9,4.6-1.9c3.6,0,6.8,2.7,7.1,6.1
					c0.2,2.7-0.8,4.8-2.8,5.6l-0.2,0.1l1.4,2.6c4.4,8.4,5.8,11.3,9.5,11.3c0.3,0,0.6,0,0.9-0.1c3.9-0.4,5.1-1.8,12.1-17.9l0.1-0.2
					l-0.2-0.1c-2.3-1.1-3.9-3.3-4-5.7c0-1.6,0.6-3.1,1.7-4.3c1.3-1.3,3.1-2.1,5.1-2.1c2,0,3.8,0.8,5.1,2.1c1.1,1.2,1.7,2.7,1.7,4.3
					c-0.1,2.4-1.6,4.7-4,5.7l-0.2,0.1l0.1,0.2c7,16.2,8.3,17.5,12.1,17.9c0.3,0,0.6,0.1,0.9,0.1c3.7,0,5.1-2.8,9.5-11.3l1.4-2.6
					l-0.2-0.1c-2-0.8-3-2.9-2.8-5.6c0.3-3.3,3.4-6.1,7.1-6.1c1.8,0,3.5,0.7,4.6,1.9C85.5,31.2,85.9,32.6,85.7,34.2z"/>
			</g>
		</g>
	</g>
</g>
<g id="ICONS_-_WARM_GREY" display="none">
	<g display="inline">
		<g>
			<g>
				<path fill="#534C63" d="M86.3,28.4c-1.5-1.8-3.9-2.8-6.4-2.8c-4.9,0-9.1,3.6-9.5,8.3c-0.2,2.8,0.6,5.2,2.2,6.7l0.1,0.1l-0.3,0.6
					c-4.2,8.2-5.3,10-7.3,10c-0.2,0-0.4,0-0.6,0c-2.2-0.2-3.1-0.3-9.3-14.6l0-0.1l0.1,0c2.1-1.7,3.4-4.1,3.4-6.7
					c0.1-2.2-0.8-4.4-2.4-6C54.4,22,51.9,21,49.4,21v0c0,0,0,0-0.1,0c0,0,0,0-0.1,0v0c-2.6,0-5,1.1-6.8,2.8c-1.6,1.6-2.5,3.8-2.4,6
					c0.1,2.6,1.3,5,3.4,6.7l0.1,0l0,0.1C37.2,51,36.4,51,34.2,51.3c-0.2,0-0.5,0-0.6,0c-2,0-3.1-1.8-7.3-10l-0.3-0.6l0.1-0.1
					c1.6-1.6,2.4-3.9,2.2-6.7c-0.4-4.6-4.5-8.3-9.5-8.3c-2.5,0-4.9,1-6.4,2.8c-1.5,1.7-2.1,3.8-1.8,6.1c0.5,3.7,2.8,6.7,6.1,7.7
					l0.1,0l4.1,22.6l0,0c-2,1.9-2.8,4.8-2,8c0.8,3.7,3.3,6.1,6.1,6.1h24.5h24.5c2.8,0,5.3-2.5,6.1-6.1c0.7-3.1,0-6.1-2-8l0,0
					l4.1-22.6l0.1,0c3.3-1.1,5.6-4,6.1-7.7C88.4,32.3,87.8,30.1,86.3,28.4z M85.7,34.2c-0.4,3.3-2.7,5.7-5.7,6l-0.1,0l-4.7,25.7
					l0.1,0.1c2.4,1.3,2.7,4.2,2.2,6.3c-0.6,2.5-2.1,4.2-3.8,4.2H49.3H24.8c-1.6,0-3.2-1.7-3.8-4.2c-0.5-2.1-0.2-5,2.2-6.3l0.1-0.1
					l-4.7-25.7l-0.1,0c-3-0.3-5.3-2.7-5.7-6c-0.2-1.5,0.2-3,1.2-4.1c1.1-1.2,2.7-1.9,4.6-1.9c3.6,0,6.8,2.7,7.1,6.1
					c0.2,2.7-0.8,4.8-2.8,5.6l-0.2,0.1l1.4,2.6c4.4,8.4,5.8,11.3,9.5,11.3c0.3,0,0.6,0,0.9-0.1c3.9-0.4,5.1-1.8,12.1-17.9l0.1-0.2
					l-0.2-0.1c-2.3-1.1-3.9-3.3-4-5.7c0-1.6,0.6-3.1,1.7-4.3c1.3-1.3,3.1-2.1,5.1-2.1c2,0,3.8,0.8,5.1,2.1c1.1,1.2,1.7,2.7,1.7,4.3
					c-0.1,2.4-1.6,4.7-4,5.7l-0.2,0.1l0.1,0.2c7,16.2,8.3,17.5,12.1,17.9c0.3,0,0.6,0.1,0.9,0.1c3.7,0,5.1-2.8,9.5-11.3l1.4-2.6
					l-0.2-0.1c-2-0.8-3-2.9-2.8-5.6c0.3-3.3,3.4-6.1,7.1-6.1c1.8,0,3.5,0.7,4.6,1.9C85.5,31.2,85.9,32.6,85.7,34.2z"/>
			</g>
		</g>
	</g>
</g>
<g id="ICONS_-_SKRILL_TEAL" display="none">
	<g display="inline">
		<g>
			<g>
				<path fill="#41AEB5" d="M86.3,28.4c-1.5-1.8-3.9-2.8-6.4-2.8c-4.9,0-9.1,3.6-9.5,8.3c-0.2,2.8,0.6,5.2,2.2,6.7l0.1,0.1l-0.3,0.6
					c-4.2,8.2-5.3,10-7.3,10c-0.2,0-0.4,0-0.6,0c-2.2-0.2-3.1-0.3-9.3-14.6l0-0.1l0.1,0c2.1-1.7,3.4-4.1,3.4-6.7
					c0.1-2.2-0.8-4.4-2.4-6C54.4,22,51.9,21,49.4,21v0c0,0,0,0-0.1,0c0,0,0,0-0.1,0v0c-2.6,0-5,1.1-6.8,2.8c-1.6,1.6-2.5,3.8-2.4,6
					c0.1,2.6,1.3,5,3.4,6.7l0.1,0l0,0.1C37.2,51,36.4,51,34.2,51.3c-0.2,0-0.5,0-0.6,0c-2,0-3.1-1.8-7.3-10l-0.3-0.6l0.1-0.1
					c1.6-1.6,2.4-3.9,2.2-6.7c-0.4-4.6-4.5-8.3-9.5-8.3c-2.5,0-4.9,1-6.4,2.8c-1.5,1.7-2.1,3.8-1.8,6.1c0.5,3.7,2.8,6.7,6.1,7.7
					l0.1,0l4.1,22.6l0,0c-2,1.9-2.8,4.8-2,8c0.8,3.7,3.3,6.1,6.1,6.1h24.5h24.5c2.8,0,5.3-2.5,6.1-6.1c0.7-3.1,0-6.1-2-8l0,0
					l4.1-22.6l0.1,0c3.3-1.1,5.6-4,6.1-7.7C88.4,32.3,87.8,30.1,86.3,28.4z M85.7,34.2c-0.4,3.3-2.7,5.7-5.7,6l-0.1,0l-4.7,25.7
					l0.1,0.1c2.4,1.3,2.7,4.2,2.2,6.3c-0.6,2.5-2.1,4.2-3.8,4.2H49.3H24.8c-1.6,0-3.2-1.7-3.8-4.2c-0.5-2.1-0.2-5,2.2-6.3l0.1-0.1
					l-4.7-25.7l-0.1,0c-3-0.3-5.3-2.7-5.7-6c-0.2-1.5,0.2-3,1.2-4.1c1.1-1.2,2.7-1.9,4.6-1.9c3.6,0,6.8,2.7,7.1,6.1
					c0.2,2.7-0.8,4.8-2.8,5.6l-0.2,0.1l1.4,2.6c4.4,8.4,5.8,11.3,9.5,11.3c0.3,0,0.6,0,0.9-0.1c3.9-0.4,5.1-1.8,12.1-17.9l0.1-0.2
					l-0.2-0.1c-2.3-1.1-3.9-3.3-4-5.7c0-1.6,0.6-3.1,1.7-4.3c1.3-1.3,3.1-2.1,5.1-2.1c2,0,3.8,0.8,5.1,2.1c1.1,1.2,1.7,2.7,1.7,4.3
					c-0.1,2.4-1.6,4.7-4,5.7l-0.2,0.1l0.1,0.2c7,16.2,8.3,17.5,12.1,17.9c0.3,0,0.6,0.1,0.9,0.1c3.7,0,5.1-2.8,9.5-11.3l1.4-2.6
					l-0.2-0.1c-2-0.8-3-2.9-2.8-5.6c0.3-3.3,3.4-6.1,7.1-6.1c1.8,0,3.5,0.7,4.6,1.9C85.5,31.2,85.9,32.6,85.7,34.2z"/>
			</g>
		</g>
	</g>
</g>
<g id="ICONS_-_SKRILL_PURPLE">
	<g>
		<g>
			<g>
				<path fill="#811E68" d="M86.3,28.4c-1.5-1.8-3.9-2.8-6.4-2.8c-4.9,0-9.1,3.6-9.5,8.3c-0.2,2.8,0.6,5.2,2.2,6.7l0.1,0.1l-0.3,0.6
					c-4.2,8.2-5.3,10-7.3,10c-0.2,0-0.4,0-0.6,0c-2.2-0.2-3.1-0.3-9.3-14.6l0-0.1l0.1,0c2.1-1.7,3.4-4.1,3.4-6.7
					c0.1-2.2-0.8-4.4-2.4-6C54.4,22,51.9,21,49.4,21v0c0,0,0,0-0.1,0c0,0,0,0-0.1,0v0c-2.6,0-5,1.1-6.8,2.8c-1.6,1.6-2.5,3.8-2.4,6
					c0.1,2.6,1.3,5,3.4,6.7l0.1,0l0,0.1C37.2,51,36.4,51,34.2,51.3c-0.2,0-0.5,0-0.6,0c-2,0-3.1-1.8-7.3-10l-0.3-0.6l0.1-0.1
					c1.6-1.6,2.4-3.9,2.2-6.7c-0.4-4.6-4.5-8.3-9.5-8.3c-2.5,0-4.9,1-6.4,2.8c-1.5,1.7-2.1,3.8-1.8,6.1c0.5,3.7,2.8,6.7,6.1,7.7
					l0.1,0l4.1,22.6l0,0c-2,1.9-2.8,4.8-2,8c0.8,3.7,3.3,6.1,6.1,6.1h24.5h24.5c2.8,0,5.3-2.5,6.1-6.1c0.7-3.1,0-6.1-2-8l0,0
					l4.1-22.6l0.1,0c3.3-1.1,5.6-4,6.1-7.7C88.4,32.3,87.8,30.1,86.3,28.4z M85.7,34.2c-0.4,3.3-2.7,5.7-5.7,6l-0.1,0l-4.7,25.7
					l0.1,0.1c2.4,1.3,2.7,4.2,2.2,6.3c-0.6,2.5-2.1,4.2-3.8,4.2H49.3H24.8c-1.6,0-3.2-1.7-3.8-4.2c-0.5-2.1-0.2-5,2.2-6.3l0.1-0.1
					l-4.7-25.7l-0.1,0c-3-0.3-5.3-2.7-5.7-6c-0.2-1.5,0.2-3,1.2-4.1c1.1-1.2,2.7-1.9,4.6-1.9c3.6,0,6.8,2.7,7.1,6.1
					c0.2,2.7-0.8,4.8-2.8,5.6l-0.2,0.1l1.4,2.6c4.4,8.4,5.8,11.3,9.5,11.3c0.3,0,0.6,0,0.9-0.1c3.9-0.4,5.1-1.8,12.1-17.9l0.1-0.2
					l-0.2-0.1c-2.3-1.1-3.9-3.3-4-5.7c0-1.6,0.6-3.1,1.7-4.3c1.3-1.3,3.1-2.1,5.1-2.1c2,0,3.8,0.8,5.1,2.1c1.1,1.2,1.7,2.7,1.7,4.3
					c-0.1,2.4-1.6,4.7-4,5.7l-0.2,0.1l0.1,0.2c7,16.2,8.3,17.5,12.1,17.9c0.3,0,0.6,0.1,0.9,0.1c3.7,0,5.1-2.8,9.5-11.3l1.4-2.6
					l-0.2-0.1c-2-0.8-3-2.9-2.8-5.6c0.3-3.3,3.4-6.1,7.1-6.1c1.8,0,3.5,0.7,4.6,1.9C85.5,31.2,85.9,32.6,85.7,34.2z"/>
			</g>
		</g>
	</g>
</g>
<g id="ICONS_-_WHITE" display="none">
	<g display="inline">
		<g>
			<g>
				<path fill="#FFFFFF" d="M86.3,28.4c-1.5-1.8-3.9-2.8-6.4-2.8c-4.9,0-9.1,3.6-9.5,8.3c-0.2,2.8,0.6,5.2,2.2,6.7l0.1,0.1l-0.3,0.6
					c-4.2,8.2-5.3,10-7.3,10c-0.2,0-0.4,0-0.6,0c-2.2-0.2-3.1-0.3-9.3-14.6l0-0.1l0.1,0c2.1-1.7,3.4-4.1,3.4-6.7
					c0.1-2.2-0.8-4.4-2.4-6C54.4,22,51.9,21,49.4,21v0c0,0,0,0-0.1,0c0,0,0,0-0.1,0v0c-2.6,0-5,1.1-6.8,2.8c-1.6,1.6-2.5,3.8-2.4,6
					c0.1,2.6,1.3,5,3.4,6.7l0.1,0l0,0.1C37.2,51,36.4,51,34.2,51.3c-0.2,0-0.5,0-0.6,0c-2,0-3.1-1.8-7.3-10l-0.3-0.6l0.1-0.1
					c1.6-1.6,2.4-3.9,2.2-6.7c-0.4-4.6-4.5-8.3-9.5-8.3c-2.5,0-4.9,1-6.4,2.8c-1.5,1.7-2.1,3.8-1.8,6.1c0.5,3.7,2.8,6.7,6.1,7.7
					l0.1,0l4.1,22.6l0,0c-2,1.9-2.8,4.8-2,8c0.8,3.7,3.3,6.1,6.1,6.1h24.5h24.5c2.8,0,5.3-2.5,6.1-6.1c0.7-3.1,0-6.1-2-8l0,0
					l4.1-22.6l0.1,0c3.3-1.1,5.6-4,6.1-7.7C88.4,32.3,87.8,30.1,86.3,28.4z M85.7,34.2c-0.4,3.3-2.7,5.7-5.7,6l-0.1,0l-4.7,25.7
					l0.1,0.1c2.4,1.3,2.7,4.2,2.2,6.3c-0.6,2.5-2.1,4.2-3.8,4.2H49.3H24.8c-1.6,0-3.2-1.7-3.8-4.2c-0.5-2.1-0.2-5,2.2-6.3l0.1-0.1
					l-4.7-25.7l-0.1,0c-3-0.3-5.3-2.7-5.7-6c-0.2-1.5,0.2-3,1.2-4.1c1.1-1.2,2.7-1.9,4.6-1.9c3.6,0,6.8,2.7,7.1,6.1
					c0.2,2.7-0.8,4.8-2.8,5.6l-0.2,0.1l1.4,2.6c4.4,8.4,5.8,11.3,9.5,11.3c0.3,0,0.6,0,0.9-0.1c3.9-0.4,5.1-1.8,12.1-17.9l0.1-0.2
					l-0.2-0.1c-2.3-1.1-3.9-3.3-4-5.7c0-1.6,0.6-3.1,1.7-4.3c1.3-1.3,3.1-2.1,5.1-2.1c2,0,3.8,0.8,5.1,2.1c1.1,1.2,1.7,2.7,1.7,4.3
					c-0.1,2.4-1.6,4.7-4,5.7l-0.2,0.1l0.1,0.2c7,16.2,8.3,17.5,12.1,17.9c0.3,0,0.6,0.1,0.9,0.1c3.7,0,5.1-2.8,9.5-11.3l1.4-2.6
					l-0.2-0.1c-2-0.8-3-2.9-2.8-5.6c0.3-3.3,3.4-6.1,7.1-6.1c1.8,0,3.5,0.7,4.6,1.9C85.5,31.2,85.9,32.6,85.7,34.2z"/>
			</g>
		</g>
	</g>
</g>
<g id="LABELS">
</g>
</svg>
