<?xml version="1.0" encoding="utf-8"?>
<!-- Generator: Adobe Illustrator 18.1.1, SVG Export Plug-In . SVG Version: 6.00 Build 0)  -->
<svg version="1.1" xmlns="http://www.w3.org/2000/svg" xmlns:xlink="http://www.w3.org/1999/xlink" x="0px" y="0px"
	 viewBox="0 0 100 100" enable-background="new 0 0 100 100" xml:space="preserve">
<g id="GUIDES">
</g>
<g id="ICONS_-_BLACK" display="none">
	<g display="inline">
		<g>
			<g>
				<path d="M78.1,18.9H21.9c-0.7,0-1.3,0.6-1.3,1.3v56.2c0,0.7,0.6,1.3,0.9,1.3h12.1c0.7,0,1.3-0.6,1.3-1.3s-0.6-1.3-1.3-1.3H23.2
					V36.6h53.7v38.6H66.8c-0.7,0-1.3,0.6-1.3,1.3s0.6,1.3,1.3,1.3h11.4c0.7,0,1.3-0.6,1.3-1.3V20.2C79.4,19.5,78.8,18.9,78.1,18.9z
					 M76.8,34H23.2V21.5h53.7V34z"/>
				<circle cx="29.4" cy="27.7" r="2.9"/>
				<circle cx="37.7" cy="27.7" r="2.9"/>
				<path d="M45.9,30.6c1.6,0,2.9-1.3,2.9-2.8c0-1.6-1.3-2.9-2.9-2.9c-1.6,0-2.9,1.3-2.9,2.9C43,29.3,44.3,30.6,45.9,30.6z"/>
				<path d="M68.6,59c0.1-0.9,0.1-1.8,0.1-2.7c0-3.1-0.4-6.5-1.2-10.2l-0.2-0.7c-0.1-0.6-0.6-1-1.2-1c-0.1,0-0.2,0-0.2,0l-0.1,0
					c-0.4,0.1-2.7,0.4-5.6,0.4c-2.7,0-6.6-0.3-9.6-2c-0.2-0.1-0.4-0.2-0.6-0.2s-0.4,0.1-0.6,0.2c-3,1.6-6.9,2-9.7,2h0
					c-1.7,0-3.1-0.1-4-0.2c-0.5-0.1-0.9-0.1-1.2-0.2l-0.4-0.1c-0.1,0-0.2,0-0.2,0c-0.6,0-1.1,0.4-1.2,1c-0.9,3.9-1.3,7.6-1.3,10.9
					c0,4.6,0.8,8.7,2.5,12.2c1.1,2.4,2.7,4.6,4.7,6.5c1.2,1.2,2.6,2.3,4.2,3.3c1.2,0.8,2.3,1.4,3.3,2l0.8,0.5
					c1.3,0.7,1.9,1.2,2.1,1.5c0.2,0.3,0.6,0.5,1,0.5c0.4,0,0.8-0.2,1-0.5c0.1-0.1,0.5-0.5,1.1-0.9c0.5-0.3,1.1-0.7,1.8-1.1
					c0.8-0.4,1.7-0.9,2.6-1.5c2.3-1.4,5.6-3.7,8.1-7.5C66.8,67.8,68.2,63.7,68.6,59L68.6,59z M33.8,56.3c0-2.8,0.3-5.9,1-9.2
					c1.1,0.1,2.9,0.3,4.8,0.3c4.1,0,7.6-0.7,10.3-2c2.7,1.3,6.2,2,10.3,2c0.5,0,1,0,1.5,0L34.4,62.2C34,60.4,33.8,58.4,33.8,56.3z
					 M63.9,67.3c-2.2,4.6-5.6,7.2-8,8.8c-1.1,0.7-2.2,1.4-3.2,1.9l-0.9,0.5c-0.7,0.4-1.2,0.7-1.7,1.1c-0.2-0.2-0.5-0.3-0.7-0.5
					c-0.6-0.4-1.2-0.7-1.9-1.1c-0.8-0.4-1.6-0.9-2.4-1.4c-1.2-0.8-2.3-1.5-3.3-2.3l24.2-13.1C65.4,63.4,64.8,65.5,63.9,67.3z
					 M66.1,58.1L39.7,72.4c-0.8-0.8-1.5-1.7-2.1-2.7c-1-1.5-1.8-3.2-2.4-5l30.3-16.5c0.5,2.8,0.8,5.5,0.8,8
					C66.2,56.9,66.1,57.5,66.1,58.1z"/>
			</g>
		</g>
	</g>
</g>
<g id="ICONS_-_DARK_PURPLE" display="none">
	<g display="inline">
		<g>
			<g>
				<path fill="#4F2556" d="M78.1,18.9H21.9c-0.7,0-1.3,0.6-1.3,1.3v56.2c0,0.7,0.6,1.3,0.9,1.3h12.1c0.7,0,1.3-0.6,1.3-1.3
					s-0.6-1.3-1.3-1.3H23.2V36.6h53.7v38.6H66.8c-0.7,0-1.3,0.6-1.3,1.3s0.6,1.3,1.3,1.3h11.4c0.7,0,1.3-0.6,1.3-1.3V20.2
					C79.4,19.5,78.8,18.9,78.1,18.9z M76.8,34H23.2V21.5h53.7V34z"/>
				<circle fill="#4F2556" cx="29.4" cy="27.7" r="2.9"/>
				<circle fill="#4F2556" cx="37.7" cy="27.7" r="2.9"/>
				<path fill="#4F2556" d="M45.9,30.6c1.6,0,2.9-1.3,2.9-2.8c0-1.6-1.3-2.9-2.9-2.9c-1.6,0-2.9,1.3-2.9,2.9
					C43,29.3,44.3,30.6,45.9,30.6z"/>
				<path fill="#4F2556" d="M68.6,59c0.1-0.9,0.1-1.8,0.1-2.7c0-3.1-0.4-6.5-1.2-10.2l-0.2-0.7c-0.1-0.6-0.6-1-1.2-1
					c-0.1,0-0.2,0-0.2,0l-0.1,0c-0.4,0.1-2.7,0.4-5.6,0.4c-2.7,0-6.6-0.3-9.6-2c-0.2-0.1-0.4-0.2-0.6-0.2s-0.4,0.1-0.6,0.2
					c-3,1.6-6.9,2-9.7,2h0c-1.7,0-3.1-0.1-4-0.2c-0.5-0.1-0.9-0.1-1.2-0.2l-0.4-0.1c-0.1,0-0.2,0-0.2,0c-0.6,0-1.1,0.4-1.2,1
					c-0.9,3.9-1.3,7.6-1.3,10.9c0,4.6,0.8,8.7,2.5,12.2c1.1,2.4,2.7,4.6,4.7,6.5c1.2,1.2,2.6,2.3,4.2,3.3c1.2,0.8,2.3,1.4,3.3,2
					l0.8,0.5c1.3,0.7,1.9,1.2,2.1,1.5c0.2,0.3,0.6,0.5,1,0.5c0.4,0,0.8-0.2,1-0.5c0.1-0.1,0.5-0.5,1.1-0.9c0.5-0.3,1.1-0.7,1.8-1.1
					c0.8-0.4,1.7-0.9,2.6-1.5c2.3-1.4,5.6-3.7,8.1-7.5C66.8,67.8,68.2,63.7,68.6,59L68.6,59z M33.8,56.3c0-2.8,0.3-5.9,1-9.2
					c1.1,0.1,2.9,0.3,4.8,0.3c4.1,0,7.6-0.7,10.3-2c2.7,1.3,6.2,2,10.3,2c0.5,0,1,0,1.5,0L34.4,62.2C34,60.4,33.8,58.4,33.8,56.3z
					 M63.9,67.3c-2.2,4.6-5.6,7.2-8,8.8c-1.1,0.7-2.2,1.4-3.2,1.9l-0.9,0.5c-0.7,0.4-1.2,0.7-1.7,1.1c-0.2-0.2-0.5-0.3-0.7-0.5
					c-0.6-0.4-1.2-0.7-1.9-1.1c-0.8-0.4-1.6-0.9-2.4-1.4c-1.2-0.8-2.3-1.5-3.3-2.3l24.2-13.1C65.4,63.4,64.8,65.5,63.9,67.3z
					 M66.1,58.1L39.7,72.4c-0.8-0.8-1.5-1.7-2.1-2.7c-1-1.5-1.8-3.2-2.4-5l30.3-16.5c0.5,2.8,0.8,5.5,0.8,8
					C66.2,56.9,66.1,57.5,66.1,58.1z"/>
			</g>
		</g>
	</g>
</g>
<g id="ICONS_-_WARM_GREY" display="none">
	<g display="inline">
		<g>
			<g>
				<path fill="#534C63" d="M78.1,18.9H21.9c-0.7,0-1.3,0.6-1.3,1.3v56.2c0,0.7,0.6,1.3,0.9,1.3h12.1c0.7,0,1.3-0.6,1.3-1.3
					s-0.6-1.3-1.3-1.3H23.2V36.6h53.7v38.6H66.8c-0.7,0-1.3,0.6-1.3,1.3s0.6,1.3,1.3,1.3h11.4c0.7,0,1.3-0.6,1.3-1.3V20.2
					C79.4,19.5,78.8,18.9,78.1,18.9z M76.8,34H23.2V21.5h53.7V34z"/>
				<circle fill="#534C63" cx="29.4" cy="27.7" r="2.9"/>
				<circle fill="#534C63" cx="37.7" cy="27.7" r="2.9"/>
				<path fill="#534C63" d="M45.9,30.6c1.6,0,2.9-1.3,2.9-2.8c0-1.6-1.3-2.9-2.9-2.9c-1.6,0-2.9,1.3-2.9,2.9
					C43,29.3,44.3,30.6,45.9,30.6z"/>
				<path fill="#534C63" d="M68.6,59c0.1-0.9,0.1-1.8,0.1-2.7c0-3.1-0.4-6.5-1.2-10.2l-0.2-0.7c-0.1-0.6-0.6-1-1.2-1
					c-0.1,0-0.2,0-0.2,0l-0.1,0c-0.4,0.1-2.7,0.4-5.6,0.4c-2.7,0-6.6-0.3-9.6-2c-0.2-0.1-0.4-0.2-0.6-0.2s-0.4,0.1-0.6,0.2
					c-3,1.6-6.9,2-9.7,2h0c-1.7,0-3.1-0.1-4-0.2c-0.5-0.1-0.9-0.1-1.2-0.2l-0.4-0.1c-0.1,0-0.2,0-0.2,0c-0.6,0-1.1,0.4-1.2,1
					c-0.9,3.9-1.3,7.6-1.3,10.9c0,4.6,0.8,8.7,2.5,12.2c1.1,2.4,2.7,4.6,4.7,6.5c1.2,1.2,2.6,2.3,4.2,3.3c1.2,0.8,2.3,1.4,3.3,2
					l0.8,0.5c1.3,0.7,1.9,1.2,2.1,1.5c0.2,0.3,0.6,0.5,1,0.5c0.4,0,0.8-0.2,1-0.5c0.1-0.1,0.5-0.5,1.1-0.9c0.5-0.3,1.1-0.7,1.8-1.1
					c0.8-0.4,1.7-0.9,2.6-1.5c2.3-1.4,5.6-3.7,8.1-7.5C66.8,67.8,68.2,63.7,68.6,59L68.6,59z M33.8,56.3c0-2.8,0.3-5.9,1-9.2
					c1.1,0.1,2.9,0.3,4.8,0.3c4.1,0,7.6-0.7,10.3-2c2.7,1.3,6.2,2,10.3,2c0.5,0,1,0,1.5,0L34.4,62.2C34,60.4,33.8,58.4,33.8,56.3z
					 M63.9,67.3c-2.2,4.6-5.6,7.2-8,8.8c-1.1,0.7-2.2,1.4-3.2,1.9l-0.9,0.5c-0.7,0.4-1.2,0.7-1.7,1.1c-0.2-0.2-0.5-0.3-0.7-0.5
					c-0.6-0.4-1.2-0.7-1.9-1.1c-0.8-0.4-1.6-0.9-2.4-1.4c-1.2-0.8-2.3-1.5-3.3-2.3l24.2-13.1C65.4,63.4,64.8,65.5,63.9,67.3z
					 M66.1,58.1L39.7,72.4c-0.8-0.8-1.5-1.7-2.1-2.7c-1-1.5-1.8-3.2-2.4-5l30.3-16.5c0.5,2.8,0.8,5.5,0.8,8
					C66.2,56.9,66.1,57.5,66.1,58.1z"/>
			</g>
		</g>
	</g>
</g>
<g id="ICONS_-_SKRILL_TEAL" display="none">
	<g display="inline">
		<g>
			<g>
				<path fill="#41AEB5" d="M78.1,18.9H21.9c-0.7,0-1.3,0.6-1.3,1.3v56.2c0,0.7,0.6,1.3,0.9,1.3h12.1c0.7,0,1.3-0.6,1.3-1.3
					s-0.6-1.3-1.3-1.3H23.2V36.6h53.7v38.6H66.8c-0.7,0-1.3,0.6-1.3,1.3s0.6,1.3,1.3,1.3h11.4c0.7,0,1.3-0.6,1.3-1.3V20.2
					C79.4,19.5,78.8,18.9,78.1,18.9z M76.8,34H23.2V21.5h53.7V34z"/>
				<circle fill="#41AEB5" cx="29.4" cy="27.7" r="2.9"/>
				<circle fill="#41AEB5" cx="37.7" cy="27.7" r="2.9"/>
				<path fill="#41AEB5" d="M45.9,30.6c1.6,0,2.9-1.3,2.9-2.8c0-1.6-1.3-2.9-2.9-2.9c-1.6,0-2.9,1.3-2.9,2.9
					C43,29.3,44.3,30.6,45.9,30.6z"/>
				<path fill="#41AEB5" d="M68.6,59c0.1-0.9,0.1-1.8,0.1-2.7c0-3.1-0.4-6.5-1.2-10.2l-0.2-0.7c-0.1-0.6-0.6-1-1.2-1
					c-0.1,0-0.2,0-0.2,0l-0.1,0c-0.4,0.1-2.7,0.4-5.6,0.4c-2.7,0-6.6-0.3-9.6-2c-0.2-0.1-0.4-0.2-0.6-0.2s-0.4,0.1-0.6,0.2
					c-3,1.6-6.9,2-9.7,2h0c-1.7,0-3.1-0.1-4-0.2c-0.5-0.1-0.9-0.1-1.2-0.2l-0.4-0.1c-0.1,0-0.2,0-0.2,0c-0.6,0-1.1,0.4-1.2,1
					c-0.9,3.9-1.3,7.6-1.3,10.9c0,4.6,0.8,8.7,2.5,12.2c1.1,2.4,2.7,4.6,4.7,6.5c1.2,1.2,2.6,2.3,4.2,3.3c1.2,0.8,2.3,1.4,3.3,2
					l0.8,0.5c1.3,0.7,1.9,1.2,2.1,1.5c0.2,0.3,0.6,0.5,1,0.5c0.4,0,0.8-0.2,1-0.5c0.1-0.1,0.5-0.5,1.1-0.9c0.5-0.3,1.1-0.7,1.8-1.1
					c0.8-0.4,1.7-0.9,2.6-1.5c2.3-1.4,5.6-3.7,8.1-7.5C66.8,67.8,68.2,63.7,68.6,59L68.6,59z M33.8,56.3c0-2.8,0.3-5.9,1-9.2
					c1.1,0.1,2.9,0.3,4.8,0.3c4.1,0,7.6-0.7,10.3-2c2.7,1.3,6.2,2,10.3,2c0.5,0,1,0,1.5,0L34.4,62.2C34,60.4,33.8,58.4,33.8,56.3z
					 M63.9,67.3c-2.2,4.6-5.6,7.2-8,8.8c-1.1,0.7-2.2,1.4-3.2,1.9l-0.9,0.5c-0.7,0.4-1.2,0.7-1.7,1.1c-0.2-0.2-0.5-0.3-0.7-0.5
					c-0.6-0.4-1.2-0.7-1.9-1.1c-0.8-0.4-1.6-0.9-2.4-1.4c-1.2-0.8-2.3-1.5-3.3-2.3l24.2-13.1C65.4,63.4,64.8,65.5,63.9,67.3z
					 M66.1,58.1L39.7,72.4c-0.8-0.8-1.5-1.7-2.1-2.7c-1-1.5-1.8-3.2-2.4-5l30.3-16.5c0.5,2.8,0.8,5.5,0.8,8
					C66.2,56.9,66.1,57.5,66.1,58.1z"/>
			</g>
		</g>
	</g>
</g>
<g id="ICONS_-_SKRILL_PURPLE">
	<g>
		<g>
			<g>
				<path fill="#811E68" d="M78.1,18.9H21.9c-0.7,0-1.3,0.6-1.3,1.3v56.2c0,0.7,0.6,1.3,0.9,1.3h12.1c0.7,0,1.3-0.6,1.3-1.3
					s-0.6-1.3-1.3-1.3H23.2V36.6h53.7v38.6H66.8c-0.7,0-1.3,0.6-1.3,1.3s0.6,1.3,1.3,1.3h11.4c0.7,0,1.3-0.6,1.3-1.3V20.2
					C79.4,19.5,78.8,18.9,78.1,18.9z M76.8,34H23.2V21.5h53.7V34z"/>
				<circle fill="#811E68" cx="29.4" cy="27.7" r="2.9"/>
				<circle fill="#811E68" cx="37.7" cy="27.7" r="2.9"/>
				<path fill="#811E68" d="M45.9,30.6c1.6,0,2.9-1.3,2.9-2.8c0-1.6-1.3-2.9-2.9-2.9c-1.6,0-2.9,1.3-2.9,2.9
					C43,29.3,44.3,30.6,45.9,30.6z"/>
				<path fill="#811E68" d="M68.6,59c0.1-0.9,0.1-1.8,0.1-2.7c0-3.1-0.4-6.5-1.2-10.2l-0.2-0.7c-0.1-0.6-0.6-1-1.2-1
					c-0.1,0-0.2,0-0.2,0l-0.1,0c-0.4,0.1-2.7,0.4-5.6,0.4c-2.7,0-6.6-0.3-9.6-2c-0.2-0.1-0.4-0.2-0.6-0.2s-0.4,0.1-0.6,0.2
					c-3,1.6-6.9,2-9.7,2h0c-1.7,0-3.1-0.1-4-0.2c-0.5-0.1-0.9-0.1-1.2-0.2l-0.4-0.1c-0.1,0-0.2,0-0.2,0c-0.6,0-1.1,0.4-1.2,1
					c-0.9,3.9-1.3,7.6-1.3,10.9c0,4.6,0.8,8.7,2.5,12.2c1.1,2.4,2.7,4.6,4.7,6.5c1.2,1.2,2.6,2.3,4.2,3.3c1.2,0.8,2.3,1.4,3.3,2
					l0.8,0.5c1.3,0.7,1.9,1.2,2.1,1.5c0.2,0.3,0.6,0.5,1,0.5c0.4,0,0.8-0.2,1-0.5c0.1-0.1,0.5-0.5,1.1-0.9c0.5-0.3,1.1-0.7,1.8-1.1
					c0.8-0.4,1.7-0.9,2.6-1.5c2.3-1.4,5.6-3.7,8.1-7.5C66.8,67.8,68.2,63.7,68.6,59L68.6,59z M33.8,56.3c0-2.8,0.3-5.9,1-9.2
					c1.1,0.1,2.9,0.3,4.8,0.3c4.1,0,7.6-0.7,10.3-2c2.7,1.3,6.2,2,10.3,2c0.5,0,1,0,1.5,0L34.4,62.2C34,60.4,33.8,58.4,33.8,56.3z
					 M63.9,67.3c-2.2,4.6-5.6,7.2-8,8.8c-1.1,0.7-2.2,1.4-3.2,1.9l-0.9,0.5c-0.7,0.4-1.2,0.7-1.7,1.1c-0.2-0.2-0.5-0.3-0.7-0.5
					c-0.6-0.4-1.2-0.7-1.9-1.1c-0.8-0.4-1.6-0.9-2.4-1.4c-1.2-0.8-2.3-1.5-3.3-2.3l24.2-13.1C65.4,63.4,64.8,65.5,63.9,67.3z
					 M66.1,58.1L39.7,72.4c-0.8-0.8-1.5-1.7-2.1-2.7c-1-1.5-1.8-3.2-2.4-5l30.3-16.5c0.5,2.8,0.8,5.5,0.8,8
					C66.2,56.9,66.1,57.5,66.1,58.1z"/>
			</g>
		</g>
	</g>
</g>
<g id="ICONS_-_WHITE" display="none">
	<g display="inline">
		<g>
			<g>
				<path fill="#FFFFFF" d="M78.1,18.9H21.9c-0.7,0-1.3,0.6-1.3,1.3v56.2c0,0.7,0.6,1.3,0.9,1.3h12.1c0.7,0,1.3-0.6,1.3-1.3
					s-0.6-1.3-1.3-1.3H23.2V36.6h53.7v38.6H66.8c-0.7,0-1.3,0.6-1.3,1.3s0.6,1.3,1.3,1.3h11.4c0.7,0,1.3-0.6,1.3-1.3V20.2
					C79.4,19.5,78.8,18.9,78.1,18.9z M76.8,34H23.2V21.5h53.7V34z"/>
				<circle fill="#FFFFFF" cx="29.4" cy="27.7" r="2.9"/>
				<circle fill="#FFFFFF" cx="37.7" cy="27.7" r="2.9"/>
				<path fill="#FFFFFF" d="M45.9,30.6c1.6,0,2.9-1.3,2.9-2.8c0-1.6-1.3-2.9-2.9-2.9c-1.6,0-2.9,1.3-2.9,2.9
					C43,29.3,44.3,30.6,45.9,30.6z"/>
				<path fill="#FFFFFF" d="M68.6,59c0.1-0.9,0.1-1.8,0.1-2.7c0-3.1-0.4-6.5-1.2-10.2l-0.2-0.7c-0.1-0.6-0.6-1-1.2-1
					c-0.1,0-0.2,0-0.2,0l-0.1,0c-0.4,0.1-2.7,0.4-5.6,0.4c-2.7,0-6.6-0.3-9.6-2c-0.2-0.1-0.4-0.2-0.6-0.2s-0.4,0.1-0.6,0.2
					c-3,1.6-6.9,2-9.7,2h0c-1.7,0-3.1-0.1-4-0.2c-0.5-0.1-0.9-0.1-1.2-0.2l-0.4-0.1c-0.1,0-0.2,0-0.2,0c-0.6,0-1.1,0.4-1.2,1
					c-0.9,3.9-1.3,7.6-1.3,10.9c0,4.6,0.8,8.7,2.5,12.2c1.1,2.4,2.7,4.6,4.7,6.5c1.2,1.2,2.6,2.3,4.2,3.3c1.2,0.8,2.3,1.4,3.3,2
					l0.8,0.5c1.3,0.7,1.9,1.2,2.1,1.5c0.2,0.3,0.6,0.5,1,0.5c0.4,0,0.8-0.2,1-0.5c0.1-0.1,0.5-0.5,1.1-0.9c0.5-0.3,1.1-0.7,1.8-1.1
					c0.8-0.4,1.7-0.9,2.6-1.5c2.3-1.4,5.6-3.7,8.1-7.5C66.8,67.8,68.2,63.7,68.6,59L68.6,59z M33.8,56.3c0-2.8,0.3-5.9,1-9.2
					c1.1,0.1,2.9,0.3,4.8,0.3c4.1,0,7.6-0.7,10.3-2c2.7,1.3,6.2,2,10.3,2c0.5,0,1,0,1.5,0L34.4,62.2C34,60.4,33.8,58.4,33.8,56.3z
					 M63.9,67.3c-2.2,4.6-5.6,7.2-8,8.8c-1.1,0.7-2.2,1.4-3.2,1.9l-0.9,0.5c-0.7,0.4-1.2,0.7-1.7,1.1c-0.2-0.2-0.5-0.3-0.7-0.5
					c-0.6-0.4-1.2-0.7-1.9-1.1c-0.8-0.4-1.6-0.9-2.4-1.4c-1.2-0.8-2.3-1.5-3.3-2.3l24.2-13.1C65.4,63.4,64.8,65.5,63.9,67.3z
					 M66.1,58.1L39.7,72.4c-0.8-0.8-1.5-1.7-2.1-2.7c-1-1.5-1.8-3.2-2.4-5l30.3-16.5c0.5,2.8,0.8,5.5,0.8,8
					C66.2,56.9,66.1,57.5,66.1,58.1z"/>
			</g>
		</g>
	</g>
</g>
<g id="LABELS">
</g>
</svg>
