<?xml version="1.0" encoding="utf-8"?>
<!-- Generator: Adobe Illustrator 18.1.1, SVG Export Plug-In . SVG Version: 6.00 Build 0)  -->
<svg version="1.1" xmlns="http://www.w3.org/2000/svg" xmlns:xlink="http://www.w3.org/1999/xlink" x="0px" y="0px"
	 viewBox="0 0 100 100" enable-background="new 0 0 100 100" xml:space="preserve">
<g id="GUIDES">
</g>
<g id="ICONS_-_BLACK" display="none">
	<g display="inline">
		<g>
			<path d="M60.1,49.7h-2l0-0.1c-0.2-1.2-0.7-2.4-1.4-3.4l0-0.1l1.4-1.4c0.2-0.2,0.4-0.6,0.4-0.9s-0.1-0.7-0.4-0.9
				c-0.2-0.2-0.6-0.4-0.9-0.4s-0.7,0.1-0.9,0.4l-1.4,1.4l-0.1,0c-1-0.7-2.2-1.2-3.4-1.4l-0.1,0v-2c0-0.7-0.6-1.3-1.3-1.3
				s-1.3,0.6-1.3,1.3v2l-0.1,0c-1.2,0.2-2.4,0.7-3.4,1.4l-0.1,0l-1.4-1.4c-0.2-0.2-0.6-0.4-0.9-0.4c-0.3,0-0.7,0.1-0.9,0.4
				c-0.2,0.2-0.4,0.6-0.4,0.9s0.1,0.7,0.4,0.9l1.4,1.4l0,0.1c-0.7,1-1.2,2.2-1.4,3.4l0,0.1h-2c-0.7,0-1.3,0.6-1.3,1.3
				s0.6,1.3,1.3,1.3h2l0,0.1c0.2,1.2,0.7,2.4,1.4,3.4l0,0.1l-1.4,1.4c-0.2,0.2-0.4,0.6-0.4,0.9s0.1,0.7,0.4,0.9
				c0.2,0.2,0.6,0.4,0.9,0.4s0.7-0.1,0.9-0.4l1.4-1.4l0.1,0c1,0.7,2.2,1.2,3.4,1.4l0.1,0l0,2c0,0.3,0.1,0.7,0.4,0.9
				c0.2,0.2,0.6,0.4,0.9,0.4h0c0.7,0,1.3-0.6,1.3-1.3l0-2l0.1,0c1.2-0.2,2.4-0.7,3.4-1.4l0.1,0l1.4,1.4c0.2,0.2,0.6,0.4,0.9,0.4
				c0.3,0,0.7-0.1,0.9-0.4c0.5-0.5,0.5-1.3,0-1.8l-1.4-1.4l0-0.1c0.7-1,1.2-2.2,1.4-3.4l0-0.1h2c0.7,0,1.3-0.6,1.3-1.3
				S60.9,49.7,60.1,49.7z M54.1,54.9c0,0-0.1,0.1-0.1,0.1c0,0-0.1,0.1-0.1,0.1c-1,0.9-2.3,1.5-3.7,1.5c-0.1,0-0.1,0-0.2,0
				c-0.1,0-0.1,0-0.2,0c-1.4,0-2.7-0.6-3.7-1.6c0,0,0-0.1-0.1-0.1c0,0-0.1,0-0.1-0.1c-0.9-1-1.5-2.3-1.5-3.6c0-0.1,0-0.2,0-0.2
				c0-0.1,0-0.2,0-0.3c0.1-3,2.6-5.4,5.6-5.4c3.1,0,5.7,2.5,5.7,5.7C55.7,52.4,55.1,53.8,54.1,54.9z"/>
			<path d="M28.1,63.7c0.1,0,0.3,0,0.4-0.1l0.1,0V72c0,0.7,0.6,1.3,1.3,1.3h41.9c0.7,0,1.3-0.6,1.3-1.3V30.1c0-0.7-0.6-1.3-1.3-1.3
				H30c-0.7,0-1.3,0.6-1.3,1.3v8.3l-0.1,0c-0.1-0.1-0.3-0.1-0.4-0.1c-0.7,0-1.3,0.6-1.3,1.3V43c0,0.7,0.6,1.3,1.3,1.3
				c0.1,0,0.3,0,0.4-0.1l0.1,0v13.8l-0.1,0c-0.1-0.1-0.3-0.1-0.4-0.1c-0.7,0-1.3,0.6-1.3,1.3v3.4C26.8,63.2,27.4,63.7,28.1,63.7z
				 M31.2,31.3h39.3v39.3H31.2V31.3z"/>
			<path d="M79.7,20H20.3c-0.7,0-1.3,0.6-1.3,1.3v59.4c0,0.7,0.6,1.3,1.3,1.3h59.5c0.7,0,1.3-0.6,1.3-1.3V21.3
				C81,20.6,80.4,20,79.7,20z M78.4,79.4H21.6V22.6h56.9V79.4z"/>
		</g>
	</g>
</g>
<g id="ICONS_-_DARK_PURPLE" display="none">
	<g display="inline">
		<g>
			<path fill="#4F2556" d="M60.1,49.7h-2l0-0.1c-0.2-1.2-0.7-2.4-1.4-3.4l0-0.1l1.4-1.4c0.2-0.2,0.4-0.6,0.4-0.9s-0.1-0.7-0.4-0.9
				c-0.2-0.2-0.6-0.4-0.9-0.4s-0.7,0.1-0.9,0.4l-1.4,1.4l-0.1,0c-1-0.7-2.2-1.2-3.4-1.4l-0.1,0v-2c0-0.7-0.6-1.3-1.3-1.3
				s-1.3,0.6-1.3,1.3v2l-0.1,0c-1.2,0.2-2.4,0.7-3.4,1.4l-0.1,0l-1.4-1.4c-0.2-0.2-0.6-0.4-0.9-0.4c-0.3,0-0.7,0.1-0.9,0.4
				c-0.2,0.2-0.4,0.6-0.4,0.9s0.1,0.7,0.4,0.9l1.4,1.4l0,0.1c-0.7,1-1.2,2.2-1.4,3.4l0,0.1h-2c-0.7,0-1.3,0.6-1.3,1.3
				s0.6,1.3,1.3,1.3h2l0,0.1c0.2,1.2,0.7,2.4,1.4,3.4l0,0.1l-1.4,1.4c-0.2,0.2-0.4,0.6-0.4,0.9s0.1,0.7,0.4,0.9
				c0.2,0.2,0.6,0.4,0.9,0.4s0.7-0.1,0.9-0.4l1.4-1.4l0.1,0c1,0.7,2.2,1.2,3.4,1.4l0.1,0l0,2c0,0.3,0.1,0.7,0.4,0.9
				c0.2,0.2,0.6,0.4,0.9,0.4h0c0.7,0,1.3-0.6,1.3-1.3l0-2l0.1,0c1.2-0.2,2.4-0.7,3.4-1.4l0.1,0l1.4,1.4c0.2,0.2,0.6,0.4,0.9,0.4
				c0.3,0,0.7-0.1,0.9-0.4c0.5-0.5,0.5-1.3,0-1.8l-1.4-1.4l0-0.1c0.7-1,1.2-2.2,1.4-3.4l0-0.1h2c0.7,0,1.3-0.6,1.3-1.3
				S60.9,49.7,60.1,49.7z M54.1,54.9c0,0-0.1,0.1-0.1,0.1c0,0-0.1,0.1-0.1,0.1c-1,0.9-2.3,1.5-3.7,1.5c-0.1,0-0.1,0-0.2,0
				c-0.1,0-0.1,0-0.2,0c-1.4,0-2.7-0.6-3.7-1.6c0,0,0-0.1-0.1-0.1c0,0-0.1,0-0.1-0.1c-0.9-1-1.5-2.3-1.5-3.6c0-0.1,0-0.2,0-0.2
				c0-0.1,0-0.2,0-0.3c0.1-3,2.6-5.4,5.6-5.4c3.1,0,5.7,2.5,5.7,5.7C55.7,52.4,55.1,53.8,54.1,54.9z"/>
			<path fill="#4F2556" d="M28.1,63.7c0.1,0,0.3,0,0.4-0.1l0.1,0V72c0,0.7,0.6,1.3,1.3,1.3h41.9c0.7,0,1.3-0.6,1.3-1.3V30.1
				c0-0.7-0.6-1.3-1.3-1.3H30c-0.7,0-1.3,0.6-1.3,1.3v8.3l-0.1,0c-0.1-0.1-0.3-0.1-0.4-0.1c-0.7,0-1.3,0.6-1.3,1.3V43
				c0,0.7,0.6,1.3,1.3,1.3c0.1,0,0.3,0,0.4-0.1l0.1,0v13.8l-0.1,0c-0.1-0.1-0.3-0.1-0.4-0.1c-0.7,0-1.3,0.6-1.3,1.3v3.4
				C26.8,63.2,27.4,63.7,28.1,63.7z M31.2,31.3h39.3v39.3H31.2V31.3z"/>
			<path fill="#4F2556" d="M79.7,20H20.3c-0.7,0-1.3,0.6-1.3,1.3v59.4c0,0.7,0.6,1.3,1.3,1.3h59.5c0.7,0,1.3-0.6,1.3-1.3V21.3
				C81,20.6,80.4,20,79.7,20z M78.4,79.4H21.6V22.6h56.9V79.4z"/>
		</g>
	</g>
</g>
<g id="ICONS_-_WARM_GREY" display="none">
	<g display="inline">
		<g>
			<path fill="#534C63" d="M60.1,49.7h-2l0-0.1c-0.2-1.2-0.7-2.4-1.4-3.4l0-0.1l1.4-1.4c0.2-0.2,0.4-0.6,0.4-0.9s-0.1-0.7-0.4-0.9
				c-0.2-0.2-0.6-0.4-0.9-0.4s-0.7,0.1-0.9,0.4l-1.4,1.4l-0.1,0c-1-0.7-2.2-1.2-3.4-1.4l-0.1,0v-2c0-0.7-0.6-1.3-1.3-1.3
				s-1.3,0.6-1.3,1.3v2l-0.1,0c-1.2,0.2-2.4,0.7-3.4,1.4l-0.1,0l-1.4-1.4c-0.2-0.2-0.6-0.4-0.9-0.4c-0.3,0-0.7,0.1-0.9,0.4
				c-0.2,0.2-0.4,0.6-0.4,0.9s0.1,0.7,0.4,0.9l1.4,1.4l0,0.1c-0.7,1-1.2,2.2-1.4,3.4l0,0.1h-2c-0.7,0-1.3,0.6-1.3,1.3
				s0.6,1.3,1.3,1.3h2l0,0.1c0.2,1.2,0.7,2.4,1.4,3.4l0,0.1l-1.4,1.4c-0.2,0.2-0.4,0.6-0.4,0.9s0.1,0.7,0.4,0.9
				c0.2,0.2,0.6,0.4,0.9,0.4s0.7-0.1,0.9-0.4l1.4-1.4l0.1,0c1,0.7,2.2,1.2,3.4,1.4l0.1,0l0,2c0,0.3,0.1,0.7,0.4,0.9
				c0.2,0.2,0.6,0.4,0.9,0.4h0c0.7,0,1.3-0.6,1.3-1.3l0-2l0.1,0c1.2-0.2,2.4-0.7,3.4-1.4l0.1,0l1.4,1.4c0.2,0.2,0.6,0.4,0.9,0.4
				c0.3,0,0.7-0.1,0.9-0.4c0.5-0.5,0.5-1.3,0-1.8l-1.4-1.4l0-0.1c0.7-1,1.2-2.2,1.4-3.4l0-0.1h2c0.7,0,1.3-0.6,1.3-1.3
				S60.9,49.7,60.1,49.7z M54.1,54.9c0,0-0.1,0.1-0.1,0.1c0,0-0.1,0.1-0.1,0.1c-1,0.9-2.3,1.5-3.7,1.5c-0.1,0-0.1,0-0.2,0
				c-0.1,0-0.1,0-0.2,0c-1.4,0-2.7-0.6-3.7-1.6c0,0,0-0.1-0.1-0.1c0,0-0.1,0-0.1-0.1c-0.9-1-1.5-2.3-1.5-3.6c0-0.1,0-0.2,0-0.2
				c0-0.1,0-0.2,0-0.3c0.1-3,2.6-5.4,5.6-5.4c3.1,0,5.7,2.5,5.7,5.7C55.7,52.4,55.1,53.8,54.1,54.9z"/>
			<path fill="#534C63" d="M28.1,63.7c0.1,0,0.3,0,0.4-0.1l0.1,0V72c0,0.7,0.6,1.3,1.3,1.3h41.9c0.7,0,1.3-0.6,1.3-1.3V30.1
				c0-0.7-0.6-1.3-1.3-1.3H30c-0.7,0-1.3,0.6-1.3,1.3v8.3l-0.1,0c-0.1-0.1-0.3-0.1-0.4-0.1c-0.7,0-1.3,0.6-1.3,1.3V43
				c0,0.7,0.6,1.3,1.3,1.3c0.1,0,0.3,0,0.4-0.1l0.1,0v13.8l-0.1,0c-0.1-0.1-0.3-0.1-0.4-0.1c-0.7,0-1.3,0.6-1.3,1.3v3.4
				C26.8,63.2,27.4,63.7,28.1,63.7z M31.2,31.3h39.3v39.3H31.2V31.3z"/>
			<path fill="#534C63" d="M79.7,20H20.3c-0.7,0-1.3,0.6-1.3,1.3v59.4c0,0.7,0.6,1.3,1.3,1.3h59.5c0.7,0,1.3-0.6,1.3-1.3V21.3
				C81,20.6,80.4,20,79.7,20z M78.4,79.4H21.6V22.6h56.9V79.4z"/>
		</g>
	</g>
</g>
<g id="ICONS_-_SKRILL_TEAL" display="none">
	<g display="inline">
		<g>
			<path fill="#41AEB5" d="M60.1,49.7h-2l0-0.1c-0.2-1.2-0.7-2.4-1.4-3.4l0-0.1l1.4-1.4c0.2-0.2,0.4-0.6,0.4-0.9s-0.1-0.7-0.4-0.9
				c-0.2-0.2-0.6-0.4-0.9-0.4s-0.7,0.1-0.9,0.4l-1.4,1.4l-0.1,0c-1-0.7-2.2-1.2-3.4-1.4l-0.1,0v-2c0-0.7-0.6-1.3-1.3-1.3
				s-1.3,0.6-1.3,1.3v2l-0.1,0c-1.2,0.2-2.4,0.7-3.4,1.4l-0.1,0l-1.4-1.4c-0.2-0.2-0.6-0.4-0.9-0.4c-0.3,0-0.7,0.1-0.9,0.4
				c-0.2,0.2-0.4,0.6-0.4,0.9s0.1,0.7,0.4,0.9l1.4,1.4l0,0.1c-0.7,1-1.2,2.2-1.4,3.4l0,0.1h-2c-0.7,0-1.3,0.6-1.3,1.3
				s0.6,1.3,1.3,1.3h2l0,0.1c0.2,1.2,0.7,2.4,1.4,3.4l0,0.1l-1.4,1.4c-0.2,0.2-0.4,0.6-0.4,0.9s0.1,0.7,0.4,0.9
				c0.2,0.2,0.6,0.4,0.9,0.4s0.7-0.1,0.9-0.4l1.4-1.4l0.1,0c1,0.7,2.2,1.2,3.4,1.4l0.1,0l0,2c0,0.3,0.1,0.7,0.4,0.9
				c0.2,0.2,0.6,0.4,0.9,0.4h0c0.7,0,1.3-0.6,1.3-1.3l0-2l0.1,0c1.2-0.2,2.4-0.7,3.4-1.4l0.1,0l1.4,1.4c0.2,0.2,0.6,0.4,0.9,0.4
				c0.3,0,0.7-0.1,0.9-0.4c0.5-0.5,0.5-1.3,0-1.8l-1.4-1.4l0-0.1c0.7-1,1.2-2.2,1.4-3.4l0-0.1h2c0.7,0,1.3-0.6,1.3-1.3
				S60.9,49.7,60.1,49.7z M54.1,54.9c0,0-0.1,0.1-0.1,0.1c0,0-0.1,0.1-0.1,0.1c-1,0.9-2.3,1.5-3.7,1.5c-0.1,0-0.1,0-0.2,0
				c-0.1,0-0.1,0-0.2,0c-1.4,0-2.7-0.6-3.7-1.6c0,0,0-0.1-0.1-0.1c0,0-0.1,0-0.1-0.1c-0.9-1-1.5-2.3-1.5-3.6c0-0.1,0-0.2,0-0.2
				c0-0.1,0-0.2,0-0.3c0.1-3,2.6-5.4,5.6-5.4c3.1,0,5.7,2.5,5.7,5.7C55.7,52.4,55.1,53.8,54.1,54.9z"/>
			<path fill="#41AEB5" d="M28.1,63.7c0.1,0,0.3,0,0.4-0.1l0.1,0V72c0,0.7,0.6,1.3,1.3,1.3h41.9c0.7,0,1.3-0.6,1.3-1.3V30.1
				c0-0.7-0.6-1.3-1.3-1.3H30c-0.7,0-1.3,0.6-1.3,1.3v8.3l-0.1,0c-0.1-0.1-0.3-0.1-0.4-0.1c-0.7,0-1.3,0.6-1.3,1.3V43
				c0,0.7,0.6,1.3,1.3,1.3c0.1,0,0.3,0,0.4-0.1l0.1,0v13.8l-0.1,0c-0.1-0.1-0.3-0.1-0.4-0.1c-0.7,0-1.3,0.6-1.3,1.3v3.4
				C26.8,63.2,27.4,63.7,28.1,63.7z M31.2,31.3h39.3v39.3H31.2V31.3z"/>
			<path fill="#41AEB5" d="M79.7,20H20.3c-0.7,0-1.3,0.6-1.3,1.3v59.4c0,0.7,0.6,1.3,1.3,1.3h59.5c0.7,0,1.3-0.6,1.3-1.3V21.3
				C81,20.6,80.4,20,79.7,20z M78.4,79.4H21.6V22.6h56.9V79.4z"/>
		</g>
	</g>
</g>
<g id="ICONS_-_SKRILL_PURPLE">
	<g>
		<g>
			<path fill="#811E68" d="M60.1,49.7h-2l0-0.1c-0.2-1.2-0.7-2.4-1.4-3.4l0-0.1l1.4-1.4c0.2-0.2,0.4-0.6,0.4-0.9s-0.1-0.7-0.4-0.9
				c-0.2-0.2-0.6-0.4-0.9-0.4s-0.7,0.1-0.9,0.4l-1.4,1.4l-0.1,0c-1-0.7-2.2-1.2-3.4-1.4l-0.1,0v-2c0-0.7-0.6-1.3-1.3-1.3
				s-1.3,0.6-1.3,1.3v2l-0.1,0c-1.2,0.2-2.4,0.7-3.4,1.4l-0.1,0l-1.4-1.4c-0.2-0.2-0.6-0.4-0.9-0.4c-0.3,0-0.7,0.1-0.9,0.4
				c-0.2,0.2-0.4,0.6-0.4,0.9s0.1,0.7,0.4,0.9l1.4,1.4l0,0.1c-0.7,1-1.2,2.2-1.4,3.4l0,0.1h-2c-0.7,0-1.3,0.6-1.3,1.3
				s0.6,1.3,1.3,1.3h2l0,0.1c0.2,1.2,0.7,2.4,1.4,3.4l0,0.1l-1.4,1.4c-0.2,0.2-0.4,0.6-0.4,0.9s0.1,0.7,0.4,0.9
				c0.2,0.2,0.6,0.4,0.9,0.4s0.7-0.1,0.9-0.4l1.4-1.4l0.1,0c1,0.7,2.2,1.2,3.4,1.4l0.1,0l0,2c0,0.3,0.1,0.7,0.4,0.9
				c0.2,0.2,0.6,0.4,0.9,0.4h0c0.7,0,1.3-0.6,1.3-1.3l0-2l0.1,0c1.2-0.2,2.4-0.7,3.4-1.4l0.1,0l1.4,1.4c0.2,0.2,0.6,0.4,0.9,0.4
				c0.3,0,0.7-0.1,0.9-0.4c0.5-0.5,0.5-1.3,0-1.8l-1.4-1.4l0-0.1c0.7-1,1.2-2.2,1.4-3.4l0-0.1h2c0.7,0,1.3-0.6,1.3-1.3
				S60.9,49.7,60.1,49.7z M54.1,54.9c0,0-0.1,0.1-0.1,0.1c0,0-0.1,0.1-0.1,0.1c-1,0.9-2.3,1.5-3.7,1.5c-0.1,0-0.1,0-0.2,0
				c-0.1,0-0.1,0-0.2,0c-1.4,0-2.7-0.6-3.7-1.6c0,0,0-0.1-0.1-0.1c0,0-0.1,0-0.1-0.1c-0.9-1-1.5-2.3-1.5-3.6c0-0.1,0-0.2,0-0.2
				c0-0.1,0-0.2,0-0.3c0.1-3,2.6-5.4,5.6-5.4c3.1,0,5.7,2.5,5.7,5.7C55.7,52.4,55.1,53.8,54.1,54.9z"/>
			<path fill="#811E68" d="M28.1,63.7c0.1,0,0.3,0,0.4-0.1l0.1,0V72c0,0.7,0.6,1.3,1.3,1.3h41.9c0.7,0,1.3-0.6,1.3-1.3V30.1
				c0-0.7-0.6-1.3-1.3-1.3H30c-0.7,0-1.3,0.6-1.3,1.3v8.3l-0.1,0c-0.1-0.1-0.3-0.1-0.4-0.1c-0.7,0-1.3,0.6-1.3,1.3V43
				c0,0.7,0.6,1.3,1.3,1.3c0.1,0,0.3,0,0.4-0.1l0.1,0v13.8l-0.1,0c-0.1-0.1-0.3-0.1-0.4-0.1c-0.7,0-1.3,0.6-1.3,1.3v3.4
				C26.8,63.2,27.4,63.7,28.1,63.7z M31.2,31.3h39.3v39.3H31.2V31.3z"/>
			<path fill="#811E68" d="M79.7,20H20.3c-0.7,0-1.3,0.6-1.3,1.3v59.4c0,0.7,0.6,1.3,1.3,1.3h59.5c0.7,0,1.3-0.6,1.3-1.3V21.3
				C81,20.6,80.4,20,79.7,20z M78.4,79.4H21.6V22.6h56.9V79.4z"/>
		</g>
	</g>
</g>
<g id="ICONS_-_WHITE" display="none">
	<g display="inline">
		<g>
			<path fill="#FFFFFF" d="M60.1,49.7h-2l0-0.1c-0.2-1.2-0.7-2.4-1.4-3.4l0-0.1l1.4-1.4c0.2-0.2,0.4-0.6,0.4-0.9s-0.1-0.7-0.4-0.9
				c-0.2-0.2-0.6-0.4-0.9-0.4s-0.7,0.1-0.9,0.4l-1.4,1.4l-0.1,0c-1-0.7-2.2-1.2-3.4-1.4l-0.1,0v-2c0-0.7-0.6-1.3-1.3-1.3
				s-1.3,0.6-1.3,1.3v2l-0.1,0c-1.2,0.2-2.4,0.7-3.4,1.4l-0.1,0l-1.4-1.4c-0.2-0.2-0.6-0.4-0.9-0.4c-0.3,0-0.7,0.1-0.9,0.4
				c-0.2,0.2-0.4,0.6-0.4,0.9s0.1,0.7,0.4,0.9l1.4,1.4l0,0.1c-0.7,1-1.2,2.2-1.4,3.4l0,0.1h-2c-0.7,0-1.3,0.6-1.3,1.3
				s0.6,1.3,1.3,1.3h2l0,0.1c0.2,1.2,0.7,2.4,1.4,3.4l0,0.1l-1.4,1.4c-0.2,0.2-0.4,0.6-0.4,0.9s0.1,0.7,0.4,0.9
				c0.2,0.2,0.6,0.4,0.9,0.4s0.7-0.1,0.9-0.4l1.4-1.4l0.1,0c1,0.7,2.2,1.2,3.4,1.4l0.1,0l0,2c0,0.3,0.1,0.7,0.4,0.9
				c0.2,0.2,0.6,0.4,0.9,0.4h0c0.7,0,1.3-0.6,1.3-1.3l0-2l0.1,0c1.2-0.2,2.4-0.7,3.4-1.4l0.1,0l1.4,1.4c0.2,0.2,0.6,0.4,0.9,0.4
				c0.3,0,0.7-0.1,0.9-0.4c0.5-0.5,0.5-1.3,0-1.8l-1.4-1.4l0-0.1c0.7-1,1.2-2.2,1.4-3.4l0-0.1h2c0.7,0,1.3-0.6,1.3-1.3
				S60.9,49.7,60.1,49.7z M54.1,54.9c0,0-0.1,0.1-0.1,0.1c0,0-0.1,0.1-0.1,0.1c-1,0.9-2.3,1.5-3.7,1.5c-0.1,0-0.1,0-0.2,0
				c-0.1,0-0.1,0-0.2,0c-1.4,0-2.7-0.6-3.7-1.6c0,0,0-0.1-0.1-0.1c0,0-0.1,0-0.1-0.1c-0.9-1-1.5-2.3-1.5-3.6c0-0.1,0-0.2,0-0.2
				c0-0.1,0-0.2,0-0.3c0.1-3,2.6-5.4,5.6-5.4c3.1,0,5.7,2.5,5.7,5.7C55.7,52.4,55.1,53.8,54.1,54.9z"/>
			<path fill="#FFFFFF" d="M28.1,63.7c0.1,0,0.3,0,0.4-0.1l0.1,0V72c0,0.7,0.6,1.3,1.3,1.3h41.9c0.7,0,1.3-0.6,1.3-1.3V30.1
				c0-0.7-0.6-1.3-1.3-1.3H30c-0.7,0-1.3,0.6-1.3,1.3v8.3l-0.1,0c-0.1-0.1-0.3-0.1-0.4-0.1c-0.7,0-1.3,0.6-1.3,1.3V43
				c0,0.7,0.6,1.3,1.3,1.3c0.1,0,0.3,0,0.4-0.1l0.1,0v13.8l-0.1,0c-0.1-0.1-0.3-0.1-0.4-0.1c-0.7,0-1.3,0.6-1.3,1.3v3.4
				C26.8,63.2,27.4,63.7,28.1,63.7z M31.2,31.3h39.3v39.3H31.2V31.3z"/>
			<path fill="#FFFFFF" d="M79.7,20H20.3c-0.7,0-1.3,0.6-1.3,1.3v59.4c0,0.7,0.6,1.3,1.3,1.3h59.5c0.7,0,1.3-0.6,1.3-1.3V21.3
				C81,20.6,80.4,20,79.7,20z M78.4,79.4H21.6V22.6h56.9V79.4z"/>
		</g>
	</g>
</g>
<g id="LABELS">
</g>
</svg>
