<?xml version="1.0" encoding="utf-8"?>
<!-- Generator: Adobe Illustrator 18.1.1, SVG Export Plug-In . SVG Version: 6.00 Build 0)  -->
<svg version="1.1" xmlns="http://www.w3.org/2000/svg" xmlns:xlink="http://www.w3.org/1999/xlink" x="0px" y="0px"
	 viewBox="0 0 100 100" enable-background="new 0 0 100 100" xml:space="preserve">
<g id="GUIDES">
</g>
<g id="ICONS_-_BLACK" display="none">
	<g display="inline">
		<g>
			<g>
				<path d="M78.1,20.5H21.9c-0.7,0-1.3,0.6-1.3,1.3V78c0,0.7,0.6,1.3,1.3,1.3h37.4h5.2h13.7c0.7,0,1.3-0.6,1.3-1.3V21.8
					C79.4,21.1,78.8,20.5,78.1,20.5z M76.8,76.7H64.4h-5.2H23.2V38.1h53.7V76.7z M76.8,35.6H23.2V23.1h53.7V35.6z"/>
				<circle cx="29.4" cy="29.3" r="2.9"/>
				<circle cx="37.7" cy="29.3" r="2.9"/>
				<path d="M45.9,32.2c1.6,0,2.9-1.3,2.9-2.8c0-1.6-1.3-2.9-2.9-2.9c-1.6,0-2.9,1.3-2.9,2.9C43,30.9,44.3,32.2,45.9,32.2z"/>
				<path d="M32.4,59.3c0.2,0.1,0.4,0.2,0.6,0.2l20.3,0l10.3,0.1L55,68.2c-0.5,0.5-0.5,1.3,0,1.8c0.2,0.2,0.5,0.4,0.9,0.4
					c0.3,0,0.6-0.1,0.9-0.4l10.8-10.8c0.5-0.5,0.5-1.3,0-1.8L56.7,46.5c-0.2-0.2-0.5-0.4-0.9-0.4s-0.6,0.1-0.9,0.4
					c-0.5,0.5-0.5,1.3,0,1.8l8.6,8.7L33,57c-0.2,0-0.4,0.1-0.6,0.2c-0.4,0.2-0.6,0.6-0.6,1.1C31.8,58.6,32,59,32.4,59.3z"/>
			</g>
		</g>
	</g>
</g>
<g id="ICONS_-_DARK_PURPLE" display="none">
	<g display="inline">
		<g>
			<g>
				<path fill="#4F2556" d="M78.1,20.5H21.9c-0.7,0-1.3,0.6-1.3,1.3V78c0,0.7,0.6,1.3,1.3,1.3h37.4h5.2h13.7c0.7,0,1.3-0.6,1.3-1.3
					V21.8C79.4,21.1,78.8,20.5,78.1,20.5z M76.8,76.7H64.4h-5.2H23.2V38.1h53.7V76.7z M76.8,35.6H23.2V23.1h53.7V35.6z"/>
				<circle fill="#4F2556" cx="29.4" cy="29.3" r="2.9"/>
				<circle fill="#4F2556" cx="37.7" cy="29.3" r="2.9"/>
				<path fill="#4F2556" d="M45.9,32.2c1.6,0,2.9-1.3,2.9-2.8c0-1.6-1.3-2.9-2.9-2.9c-1.6,0-2.9,1.3-2.9,2.9
					C43,30.9,44.3,32.2,45.9,32.2z"/>
				<path fill="#4F2556" d="M32.4,59.3c0.2,0.1,0.4,0.2,0.6,0.2l20.3,0l10.3,0.1L55,68.2c-0.5,0.5-0.5,1.3,0,1.8
					c0.2,0.2,0.5,0.4,0.9,0.4c0.3,0,0.6-0.1,0.9-0.4l10.8-10.8c0.5-0.5,0.5-1.3,0-1.8L56.7,46.5c-0.2-0.2-0.5-0.4-0.9-0.4
					s-0.6,0.1-0.9,0.4c-0.5,0.5-0.5,1.3,0,1.8l8.6,8.7L33,57c-0.2,0-0.4,0.1-0.6,0.2c-0.4,0.2-0.6,0.6-0.6,1.1
					C31.8,58.6,32,59,32.4,59.3z"/>
			</g>
		</g>
	</g>
</g>
<g id="ICONS_-_WARM_GREY" display="none">
	<g display="inline">
		<g>
			<g>
				<path fill="#534C63" d="M78.1,20.5H21.9c-0.7,0-1.3,0.6-1.3,1.3V78c0,0.7,0.6,1.3,1.3,1.3h37.4h5.2h13.7c0.7,0,1.3-0.6,1.3-1.3
					V21.8C79.4,21.1,78.8,20.5,78.1,20.5z M76.8,76.7H64.4h-5.2H23.2V38.1h53.7V76.7z M76.8,35.6H23.2V23.1h53.7V35.6z"/>
				<circle fill="#534C63" cx="29.4" cy="29.3" r="2.9"/>
				<circle fill="#534C63" cx="37.7" cy="29.3" r="2.9"/>
				<path fill="#534C63" d="M45.9,32.2c1.6,0,2.9-1.3,2.9-2.8c0-1.6-1.3-2.9-2.9-2.9c-1.6,0-2.9,1.3-2.9,2.9
					C43,30.9,44.3,32.2,45.9,32.2z"/>
				<path fill="#534C63" d="M32.4,59.3c0.2,0.1,0.4,0.2,0.6,0.2l20.3,0l10.3,0.1L55,68.2c-0.5,0.5-0.5,1.3,0,1.8
					c0.2,0.2,0.5,0.4,0.9,0.4c0.3,0,0.6-0.1,0.9-0.4l10.8-10.8c0.5-0.5,0.5-1.3,0-1.8L56.7,46.5c-0.2-0.2-0.5-0.4-0.9-0.4
					s-0.6,0.1-0.9,0.4c-0.5,0.5-0.5,1.3,0,1.8l8.6,8.7L33,57c-0.2,0-0.4,0.1-0.6,0.2c-0.4,0.2-0.6,0.6-0.6,1.1
					C31.8,58.6,32,59,32.4,59.3z"/>
			</g>
		</g>
	</g>
</g>
<g id="ICONS_-_SKRILL_TEAL" display="none">
	<g display="inline">
		<g>
			<g>
				<path fill="#41AEB5" d="M78.1,20.5H21.9c-0.7,0-1.3,0.6-1.3,1.3V78c0,0.7,0.6,1.3,1.3,1.3h37.4h5.2h13.7c0.7,0,1.3-0.6,1.3-1.3
					V21.8C79.4,21.1,78.8,20.5,78.1,20.5z M76.8,76.7H64.4h-5.2H23.2V38.1h53.7V76.7z M76.8,35.6H23.2V23.1h53.7V35.6z"/>
				<circle fill="#41AEB5" cx="29.4" cy="29.3" r="2.9"/>
				<circle fill="#41AEB5" cx="37.7" cy="29.3" r="2.9"/>
				<path fill="#41AEB5" d="M45.9,32.2c1.6,0,2.9-1.3,2.9-2.8c0-1.6-1.3-2.9-2.9-2.9c-1.6,0-2.9,1.3-2.9,2.9
					C43,30.9,44.3,32.2,45.9,32.2z"/>
				<path fill="#41AEB5" d="M32.4,59.3c0.2,0.1,0.4,0.2,0.6,0.2l20.3,0l10.3,0.1L55,68.2c-0.5,0.5-0.5,1.3,0,1.8
					c0.2,0.2,0.5,0.4,0.9,0.4c0.3,0,0.6-0.1,0.9-0.4l10.8-10.8c0.5-0.5,0.5-1.3,0-1.8L56.7,46.5c-0.2-0.2-0.5-0.4-0.9-0.4
					s-0.6,0.1-0.9,0.4c-0.5,0.5-0.5,1.3,0,1.8l8.6,8.7L33,57c-0.2,0-0.4,0.1-0.6,0.2c-0.4,0.2-0.6,0.6-0.6,1.1
					C31.8,58.6,32,59,32.4,59.3z"/>
			</g>
		</g>
	</g>
</g>
<g id="ICONS_-_SKRILL_PURPLE">
	<g>
		<g>
			<g>
				<path fill="#811E68" d="M78.1,20.5H21.9c-0.7,0-1.3,0.6-1.3,1.3V78c0,0.7,0.6,1.3,1.3,1.3h37.4h5.2h13.7c0.7,0,1.3-0.6,1.3-1.3
					V21.8C79.4,21.1,78.8,20.5,78.1,20.5z M76.8,76.7H64.4h-5.2H23.2V38.1h53.7V76.7z M76.8,35.6H23.2V23.1h53.7V35.6z"/>
				<circle fill="#811E68" cx="29.4" cy="29.3" r="2.9"/>
				<circle fill="#811E68" cx="37.7" cy="29.3" r="2.9"/>
				<path fill="#811E68" d="M45.9,32.2c1.6,0,2.9-1.3,2.9-2.8c0-1.6-1.3-2.9-2.9-2.9c-1.6,0-2.9,1.3-2.9,2.9
					C43,30.9,44.3,32.2,45.9,32.2z"/>
				<path fill="#811E68" d="M32.4,59.3c0.2,0.1,0.4,0.2,0.6,0.2l20.3,0l10.3,0.1L55,68.2c-0.5,0.5-0.5,1.3,0,1.8
					c0.2,0.2,0.5,0.4,0.9,0.4c0.3,0,0.6-0.1,0.9-0.4l10.8-10.8c0.5-0.5,0.5-1.3,0-1.8L56.7,46.5c-0.2-0.2-0.5-0.4-0.9-0.4
					s-0.6,0.1-0.9,0.4c-0.5,0.5-0.5,1.3,0,1.8l8.6,8.7L33,57c-0.2,0-0.4,0.1-0.6,0.2c-0.4,0.2-0.6,0.6-0.6,1.1
					C31.8,58.6,32,59,32.4,59.3z"/>
			</g>
		</g>
	</g>
</g>
<g id="ICONS_-_WHITE" display="none">
	<g display="inline">
		<g>
			<g>
				<path fill="#FFFFFF" d="M78.1,20.5H21.9c-0.7,0-1.3,0.6-1.3,1.3V78c0,0.7,0.6,1.3,1.3,1.3h37.4h5.2h13.7c0.7,0,1.3-0.6,1.3-1.3
					V21.8C79.4,21.1,78.8,20.5,78.1,20.5z M76.8,76.7H64.4h-5.2H23.2V38.1h53.7V76.7z M76.8,35.6H23.2V23.1h53.7V35.6z"/>
				<circle fill="#FFFFFF" cx="29.4" cy="29.3" r="2.9"/>
				<circle fill="#FFFFFF" cx="37.7" cy="29.3" r="2.9"/>
				<path fill="#FFFFFF" d="M45.9,32.2c1.6,0,2.9-1.3,2.9-2.8c0-1.6-1.3-2.9-2.9-2.9c-1.6,0-2.9,1.3-2.9,2.9
					C43,30.9,44.3,32.2,45.9,32.2z"/>
				<path fill="#FFFFFF" d="M32.4,59.3c0.2,0.1,0.4,0.2,0.6,0.2l20.3,0l10.3,0.1L55,68.2c-0.5,0.5-0.5,1.3,0,1.8
					c0.2,0.2,0.5,0.4,0.9,0.4c0.3,0,0.6-0.1,0.9-0.4l10.8-10.8c0.5-0.5,0.5-1.3,0-1.8L56.7,46.5c-0.2-0.2-0.5-0.4-0.9-0.4
					s-0.6,0.1-0.9,0.4c-0.5,0.5-0.5,1.3,0,1.8l8.6,8.7L33,57c-0.2,0-0.4,0.1-0.6,0.2c-0.4,0.2-0.6,0.6-0.6,1.1
					C31.8,58.6,32,59,32.4,59.3z"/>
			</g>
		</g>
	</g>
</g>
<g id="LABELS">
</g>
</svg>
