<?xml version="1.0" encoding="utf-8"?>
<!-- Generator: Adobe Illustrator 18.1.1, SVG Export Plug-In . SVG Version: 6.00 Build 0)  -->
<svg version="1.1" xmlns="http://www.w3.org/2000/svg" xmlns:xlink="http://www.w3.org/1999/xlink" x="0px" y="0px"
	 viewBox="0 0 100 100" enable-background="new 0 0 100 100" xml:space="preserve">
<g id="GUIDES">
</g>
<g id="ICONS_-_BLACK" display="none">
	<g display="inline">
		<g>
			<g>
				<path d="M35.7,62.3h5.5c-4.6-3.2-7.5-8-7.5-13.4c0-5.4,2.9-10.2,7.5-13.4h-5.5c-3.5,3.6-5.6,8.3-5.6,13.4
					C30,54,32.1,58.7,35.7,62.3z"/>
				<path d="M44.3,48.9c0-5.4,2.9-10.2,7.5-13.4h-5.5c-3.5,3.6-5.6,8.3-5.6,13.4c0,5.1,2.1,9.8,5.6,13.4h5.5
					C47.2,59.1,44.3,54.3,44.3,48.9z"/>
				<path d="M25,62.3h5.5c-4.6-3.2-7.5-8-7.5-13.4c0-5.4,2.9-10.2,7.5-13.4H25c-3.5,3.6-5.6,8.3-5.6,13.4C19.4,54,21.5,58.7,25,62.3
					z"/>
				<path d="M88.8,48.9c0-7.4-6-13.4-13.4-13.4c-7.4,0-13.4,6-13.4,13.4c0,7.4,6,13.4,13.4,13.4C82.8,62.3,88.8,56.3,88.8,48.9z
					 M75.4,58.7c-5.4,0-9.8-4.4-9.8-9.8c0-5.4,4.4-9.8,9.8-9.8c5.4,0,9.8,4.4,9.8,9.8C85.2,54.3,80.8,58.7,75.4,58.7z"/>
				<path d="M56.9,62.3h5.5c-4.6-3.2-7.5-8-7.5-13.4c0-5.4,2.9-10.2,7.5-13.4h-5.5c-3.5,3.6-5.6,8.3-5.6,13.4
					C51.3,54,53.4,58.7,56.9,62.3z"/>
				<path d="M19.9,62.3c-4.6-3.2-7.5-8-7.5-13.4c0-5.4,2.9-10.2,7.5-13.4h-5.5c-3.5,3.6-5.6,8.3-5.6,13.4c0,5.1,2.1,9.8,5.6,13.4
					H19.9z"/>
				<path d="M14.2,67.6c-0.3,0-0.6,0.1-0.8,0.2c-0.2,0.1-0.4,0.3-0.6,0.5h0c-0.2-0.4-0.6-0.7-1.2-0.7c-0.7,0-1.1,0.4-1.3,0.7h0
					l-0.1-0.6H9.2c0,0.4,0,0.8,0,1.4v2.9h1.3v-2.5c0-0.1,0-0.2,0.1-0.3c0.1-0.2,0.3-0.5,0.6-0.5c0.4,0,0.6,0.4,0.6,0.9v2.4h1.3v-2.5
					c0-0.1,0-0.2,0-0.3c0.1-0.3,0.3-0.5,0.6-0.5c0.4,0,0.6,0.4,0.6,1v2.3h1.3v-2.5C15.7,68.1,15.1,67.6,14.2,67.6z"/>
				<path d="M19,67.6c-1.4,0-2.3,0.9-2.3,2.3c0,1.4,1,2.2,2.2,2.2c1.1,0,2.2-0.7,2.2-2.3C21.1,68.5,20.2,67.6,19,67.6z M18.9,71
					c-0.6,0-0.9-0.5-0.9-1.3c0-0.6,0.2-1.3,0.9-1.3c0.6,0,0.8,0.6,0.8,1.3C19.8,70.5,19.4,71,18.9,71z"/>
				<path d="M24.6,67.6c-0.7,0-1.1,0.4-1.3,0.7h0l-0.1-0.6h-1.1c0,0.4,0,0.8,0,1.4v2.9h1.3v-2.4c0-0.1,0-0.2,0-0.3
					c0.1-0.2,0.3-0.5,0.7-0.5c0.5,0,0.7,0.4,0.7,0.9v2.3h1.3v-2.5C26.2,68.1,25.5,67.6,24.6,67.6z"/>
				<path d="M29.3,67.6c-1.5,0-2.1,1.2-2.1,2.3c0,1.3,0.8,2.2,2.3,2.2c0.6,0,1.1-0.1,1.5-0.3l-0.2-0.9c-0.4,0.1-0.7,0.2-1.2,0.2
					c-0.6,0-1.2-0.3-1.2-0.8h2.7c0-0.1,0-0.3,0-0.5C31.2,68.6,30.7,67.6,29.3,67.6z M28.4,69.3c0-0.3,0.3-0.9,0.8-0.9
					c0.6,0,0.7,0.5,0.7,0.9H28.4z"/>
				<path d="M34.2,69.7c-0.1,0.3-0.1,0.6-0.2,0.8h0c-0.1-0.2-0.1-0.5-0.2-0.8l-0.6-2.1h-1.5l1.6,3.9c0,0.1,0.1,0.2,0.1,0.2
					c0,0.1,0,0.1-0.1,0.2c-0.1,0.2-0.3,0.4-0.5,0.5c-0.2,0.1-0.4,0.2-0.6,0.2l0.3,1.1c0.3,0,0.8-0.2,1.3-0.6
					c0.5-0.4,0.9-1.1,1.5-2.8l1-2.8h-1.4L34.2,69.7z"/>
				<path d="M39.5,67.6c-0.6,0-1,0.2-1.3,0.6h0v-2.4h-1.3v4.9c0,0.5,0,1,0,1.3H38l0.1-0.6h0c0.3,0.5,0.8,0.7,1.3,0.7
					c1,0,1.9-0.8,1.9-2.3C41.3,68.4,40.5,67.6,39.5,67.6z M39,71c-0.4,0-0.7-0.3-0.8-0.6c0-0.1,0-0.1,0-0.2v-0.6c0-0.1,0-0.2,0-0.2
					c0.1-0.4,0.4-0.6,0.8-0.6c0.6,0,0.9,0.5,0.9,1.2C39.9,70.5,39.6,71,39,71z"/>
				<path d="M44.4,67.6c-1.4,0-2.3,0.9-2.3,2.3c0,1.4,1,2.2,2.2,2.2c1.1,0,2.2-0.7,2.2-2.3C46.5,68.5,45.7,67.6,44.4,67.6z M44.3,71
					c-0.6,0-0.9-0.5-0.9-1.3c0-0.6,0.2-1.3,0.9-1.3c0.6,0,0.8,0.6,0.8,1.3C45.2,70.5,44.8,71,44.3,71z"/>
				<path d="M49.6,67.6c-1.4,0-2.3,0.9-2.3,2.3c0,1.4,1,2.2,2.2,2.2c1.1,0,2.2-0.7,2.2-2.3C51.8,68.5,50.9,67.6,49.6,67.6z M49.6,71
					c-0.6,0-0.9-0.5-0.9-1.3c0-0.6,0.2-1.3,0.9-1.3c0.6,0,0.8,0.6,0.8,1.3C50.4,70.5,50.1,71,49.6,71z"/>
				<path d="M56.9,67.7h-1.6l-0.9,1.3c-0.1,0.2-0.2,0.3-0.3,0.5h0v-3.7h-1.3v6.1h1.3v-1.3l0.3-0.4l1,1.7h1.6l-1.7-2.5L56.9,67.7z"/>
				<path d="M59.5,67.6c-1.5,0-2.1,1.2-2.1,2.3c0,1.3,0.8,2.2,2.3,2.2c0.6,0,1.1-0.1,1.5-0.3L61,70.8c-0.4,0.1-0.7,0.2-1.2,0.2
					c-0.6,0-1.2-0.3-1.2-0.8h2.7c0-0.1,0-0.3,0-0.5C61.4,68.6,60.8,67.6,59.5,67.6z M58.6,69.3c0-0.3,0.3-0.9,0.8-0.9
					c0.6,0,0.7,0.5,0.7,0.9H58.6z"/>
				<path d="M63.5,68.4L63.5,68.4l-0.1-0.8h-1.1c0,0.4,0,0.8,0,1.4v2.8h1.3v-2.1c0-0.1,0-0.2,0-0.3c0.1-0.4,0.4-0.7,0.9-0.7
					c0.1,0,0.3,0,0.4,0v-1.2c-0.1,0-0.2,0-0.3,0C64.3,67.6,63.8,67.8,63.5,68.4z"/>
				<path d="M67.7,69.3C67.2,69.1,67,69,67,68.8c0-0.2,0.2-0.3,0.5-0.3c0.4,0,0.7,0.1,0.9,0.2l0.2-0.9c-0.3-0.1-0.7-0.3-1.2-0.3
					c-1,0-1.7,0.6-1.7,1.4c0,0.5,0.3,1,1.2,1.3c0.5,0.2,0.6,0.3,0.6,0.5c0,0.2-0.2,0.3-0.6,0.3c-0.4,0-0.9-0.2-1.1-0.3l-0.2,0.9
					C66,71.9,66.5,72,67,72c1.2,0,1.8-0.6,1.8-1.4C68.8,70,68.5,69.6,67.7,69.3z"/>
				<path d="M70.5,70.4c-0.5,0-0.8,0.3-0.8,0.8c0,0.5,0.3,0.8,0.8,0.8c0.5,0,0.8-0.3,0.8-0.8C71.2,70.7,70.9,70.4,70.5,70.4z"/>
				<path d="M74.4,68.4c0.4,0,0.6,0.1,0.8,0.2l0.2-0.8c-0.2-0.1-0.6-0.2-1-0.2c-1.5,0-2.3,1-2.3,2.2c0,1.3,0.9,2.2,2.2,2.2
					c0.5,0,1-0.1,1.2-0.2L75.2,71c-0.2,0.1-0.5,0.2-0.8,0.2c-0.7,0-1.3-0.5-1.3-1.4C73.1,69,73.6,68.4,74.4,68.4z"/>
				<path d="M78.2,67.6c-1.3,0-2.2,0.8-2.2,2.2c0,1.4,0.9,2.2,2.1,2.2c1.1,0,2.2-0.7,2.2-2.2C80.3,68.5,79.5,67.6,78.2,67.6z
					 M78.2,71.2c-0.6,0-1-0.6-1-1.4c0-0.7,0.3-1.4,1.1-1.4c0.7,0,1,0.8,1,1.4C79.2,70.6,78.8,71.2,78.2,71.2z"/>
				<path d="M86.2,67.6c-0.4,0-0.6,0.1-0.9,0.3c-0.2,0.1-0.4,0.3-0.5,0.5h0c-0.2-0.5-0.6-0.8-1.2-0.8c-0.7,0-1.1,0.4-1.3,0.7h0
					l-0.1-0.6h-0.9c0,0.4,0,0.8,0,1.3v3h1v-2.5c0-0.1,0-0.2,0.1-0.4c0.1-0.3,0.4-0.6,0.8-0.6c0.5,0,0.7,0.4,0.7,1v2.4h1v-2.5
					c0-0.1,0-0.3,0.1-0.4c0.1-0.3,0.4-0.6,0.7-0.6c0.5,0,0.8,0.4,0.8,1.1v2.3h1v-2.5C87.6,68.1,86.9,67.6,86.2,67.6z"/>
			</g>
		</g>
	</g>
</g>
<g id="ICONS_-_DARK_PURPLE" display="none">
	<g display="inline">
		<g>
			<g>
				<path fill="#4F2556" d="M35.7,62.3h5.5c-4.6-3.2-7.5-8-7.5-13.4c0-5.4,2.9-10.2,7.5-13.4h-5.5c-3.5,3.6-5.6,8.3-5.6,13.4
					C30,54,32.1,58.7,35.7,62.3z"/>
				<path fill="#4F2556" d="M44.3,48.9c0-5.4,2.9-10.2,7.5-13.4h-5.5c-3.5,3.6-5.6,8.3-5.6,13.4c0,5.1,2.1,9.8,5.6,13.4h5.5
					C47.2,59.1,44.3,54.3,44.3,48.9z"/>
				<path fill="#4F2556" d="M25,62.3h5.5c-4.6-3.2-7.5-8-7.5-13.4c0-5.4,2.9-10.2,7.5-13.4H25c-3.5,3.6-5.6,8.3-5.6,13.4
					C19.4,54,21.5,58.7,25,62.3z"/>
				<path fill="#4F2556" d="M88.8,48.9c0-7.4-6-13.4-13.4-13.4c-7.4,0-13.4,6-13.4,13.4c0,7.4,6,13.4,13.4,13.4
					C82.8,62.3,88.8,56.3,88.8,48.9z M75.4,58.7c-5.4,0-9.8-4.4-9.8-9.8c0-5.4,4.4-9.8,9.8-9.8c5.4,0,9.8,4.4,9.8,9.8
					C85.2,54.3,80.8,58.7,75.4,58.7z"/>
				<path fill="#4F2556" d="M56.9,62.3h5.5c-4.6-3.2-7.5-8-7.5-13.4c0-5.4,2.9-10.2,7.5-13.4h-5.5c-3.5,3.6-5.6,8.3-5.6,13.4
					C51.3,54,53.4,58.7,56.9,62.3z"/>
				<path fill="#4F2556" d="M19.9,62.3c-4.6-3.2-7.5-8-7.5-13.4c0-5.4,2.9-10.2,7.5-13.4h-5.5c-3.5,3.6-5.6,8.3-5.6,13.4
					c0,5.1,2.1,9.8,5.6,13.4H19.9z"/>
				<path fill="#4F2556" d="M14.2,67.6c-0.3,0-0.6,0.1-0.8,0.2c-0.2,0.1-0.4,0.3-0.6,0.5h0c-0.2-0.4-0.6-0.7-1.2-0.7
					c-0.7,0-1.1,0.4-1.3,0.7h0l-0.1-0.6H9.2c0,0.4,0,0.8,0,1.4v2.9h1.3v-2.5c0-0.1,0-0.2,0.1-0.3c0.1-0.2,0.3-0.5,0.6-0.5
					c0.4,0,0.6,0.4,0.6,0.9v2.4h1.3v-2.5c0-0.1,0-0.2,0-0.3c0.1-0.3,0.3-0.5,0.6-0.5c0.4,0,0.6,0.4,0.6,1v2.3h1.3v-2.5
					C15.7,68.1,15.1,67.6,14.2,67.6z"/>
				<path fill="#4F2556" d="M19,67.6c-1.4,0-2.3,0.9-2.3,2.3c0,1.4,1,2.2,2.2,2.2c1.1,0,2.2-0.7,2.2-2.3
					C21.1,68.5,20.2,67.6,19,67.6z M18.9,71c-0.6,0-0.9-0.5-0.9-1.3c0-0.6,0.2-1.3,0.9-1.3c0.6,0,0.8,0.6,0.8,1.3
					C19.8,70.5,19.4,71,18.9,71z"/>
				<path fill="#4F2556" d="M24.6,67.6c-0.7,0-1.1,0.4-1.3,0.7h0l-0.1-0.6h-1.1c0,0.4,0,0.8,0,1.4v2.9h1.3v-2.4c0-0.1,0-0.2,0-0.3
					c0.1-0.2,0.3-0.5,0.7-0.5c0.5,0,0.7,0.4,0.7,0.9v2.3h1.3v-2.5C26.2,68.1,25.5,67.6,24.6,67.6z"/>
				<path fill="#4F2556" d="M29.3,67.6c-1.5,0-2.1,1.2-2.1,2.3c0,1.3,0.8,2.2,2.3,2.2c0.6,0,1.1-0.1,1.5-0.3l-0.2-0.9
					c-0.4,0.1-0.7,0.2-1.2,0.2c-0.6,0-1.2-0.3-1.2-0.8h2.7c0-0.1,0-0.3,0-0.5C31.2,68.6,30.7,67.6,29.3,67.6z M28.4,69.3
					c0-0.3,0.3-0.9,0.8-0.9c0.6,0,0.7,0.5,0.7,0.9H28.4z"/>
				<path fill="#4F2556" d="M34.2,69.7c-0.1,0.3-0.1,0.6-0.2,0.8h0c-0.1-0.2-0.1-0.5-0.2-0.8l-0.6-2.1h-1.5l1.6,3.9
					c0,0.1,0.1,0.2,0.1,0.2c0,0.1,0,0.1-0.1,0.2c-0.1,0.2-0.3,0.4-0.5,0.5c-0.2,0.1-0.4,0.2-0.6,0.2l0.3,1.1c0.3,0,0.8-0.2,1.3-0.6
					c0.5-0.4,0.9-1.1,1.5-2.8l1-2.8h-1.4L34.2,69.7z"/>
				<path fill="#4F2556" d="M39.5,67.6c-0.6,0-1,0.2-1.3,0.6h0v-2.4h-1.3v4.9c0,0.5,0,1,0,1.3H38l0.1-0.6h0c0.3,0.5,0.8,0.7,1.3,0.7
					c1,0,1.9-0.8,1.9-2.3C41.3,68.4,40.5,67.6,39.5,67.6z M39,71c-0.4,0-0.7-0.3-0.8-0.6c0-0.1,0-0.1,0-0.2v-0.6c0-0.1,0-0.2,0-0.2
					c0.1-0.4,0.4-0.6,0.8-0.6c0.6,0,0.9,0.5,0.9,1.2C39.9,70.5,39.6,71,39,71z"/>
				<path fill="#4F2556" d="M44.4,67.6c-1.4,0-2.3,0.9-2.3,2.3c0,1.4,1,2.2,2.2,2.2c1.1,0,2.2-0.7,2.2-2.3
					C46.5,68.5,45.7,67.6,44.4,67.6z M44.3,71c-0.6,0-0.9-0.5-0.9-1.3c0-0.6,0.2-1.3,0.9-1.3c0.6,0,0.8,0.6,0.8,1.3
					C45.2,70.5,44.8,71,44.3,71z"/>
				<path fill="#4F2556" d="M49.6,67.6c-1.4,0-2.3,0.9-2.3,2.3c0,1.4,1,2.2,2.2,2.2c1.1,0,2.2-0.7,2.2-2.3
					C51.8,68.5,50.9,67.6,49.6,67.6z M49.6,71c-0.6,0-0.9-0.5-0.9-1.3c0-0.6,0.2-1.3,0.9-1.3c0.6,0,0.8,0.6,0.8,1.3
					C50.4,70.5,50.1,71,49.6,71z"/>
				<path fill="#4F2556" d="M56.9,67.7h-1.6l-0.9,1.3c-0.1,0.2-0.2,0.3-0.3,0.5h0v-3.7h-1.3v6.1h1.3v-1.3l0.3-0.4l1,1.7h1.6
					l-1.7-2.5L56.9,67.7z"/>
				<path fill="#4F2556" d="M59.5,67.6c-1.5,0-2.1,1.2-2.1,2.3c0,1.3,0.8,2.2,2.3,2.2c0.6,0,1.1-0.1,1.5-0.3L61,70.8
					c-0.4,0.1-0.7,0.2-1.2,0.2c-0.6,0-1.2-0.3-1.2-0.8h2.7c0-0.1,0-0.3,0-0.5C61.4,68.6,60.8,67.6,59.5,67.6z M58.6,69.3
					c0-0.3,0.3-0.9,0.8-0.9c0.6,0,0.7,0.5,0.7,0.9H58.6z"/>
				<path fill="#4F2556" d="M63.5,68.4L63.5,68.4l-0.1-0.8h-1.1c0,0.4,0,0.8,0,1.4v2.8h1.3v-2.1c0-0.1,0-0.2,0-0.3
					c0.1-0.4,0.4-0.7,0.9-0.7c0.1,0,0.3,0,0.4,0v-1.2c-0.1,0-0.2,0-0.3,0C64.3,67.6,63.8,67.8,63.5,68.4z"/>
				<path fill="#4F2556" d="M67.7,69.3C67.2,69.1,67,69,67,68.8c0-0.2,0.2-0.3,0.5-0.3c0.4,0,0.7,0.1,0.9,0.2l0.2-0.9
					c-0.3-0.1-0.7-0.3-1.2-0.3c-1,0-1.7,0.6-1.7,1.4c0,0.5,0.3,1,1.2,1.3c0.5,0.2,0.6,0.3,0.6,0.5c0,0.2-0.2,0.3-0.6,0.3
					c-0.4,0-0.9-0.2-1.1-0.3l-0.2,0.9C66,71.9,66.5,72,67,72c1.2,0,1.8-0.6,1.8-1.4C68.8,70,68.5,69.6,67.7,69.3z"/>
				<path fill="#4F2556" d="M70.5,70.4c-0.5,0-0.8,0.3-0.8,0.8c0,0.5,0.3,0.8,0.8,0.8c0.5,0,0.8-0.3,0.8-0.8
					C71.2,70.7,70.9,70.4,70.5,70.4z"/>
				<path fill="#4F2556" d="M74.4,68.4c0.4,0,0.6,0.1,0.8,0.2l0.2-0.8c-0.2-0.1-0.6-0.2-1-0.2c-1.5,0-2.3,1-2.3,2.2
					c0,1.3,0.9,2.2,2.2,2.2c0.5,0,1-0.1,1.2-0.2L75.2,71c-0.2,0.1-0.5,0.2-0.8,0.2c-0.7,0-1.3-0.5-1.3-1.4
					C73.1,69,73.6,68.4,74.4,68.4z"/>
				<path fill="#4F2556" d="M78.2,67.6c-1.3,0-2.2,0.8-2.2,2.2c0,1.4,0.9,2.2,2.1,2.2c1.1,0,2.2-0.7,2.2-2.2
					C80.3,68.5,79.5,67.6,78.2,67.6z M78.2,71.2c-0.6,0-1-0.6-1-1.4c0-0.7,0.3-1.4,1.1-1.4c0.7,0,1,0.8,1,1.4
					C79.2,70.6,78.8,71.2,78.2,71.2z"/>
				<path fill="#4F2556" d="M86.2,67.6c-0.4,0-0.6,0.1-0.9,0.3c-0.2,0.1-0.4,0.3-0.5,0.5h0c-0.2-0.5-0.6-0.8-1.2-0.8
					c-0.7,0-1.1,0.4-1.3,0.7h0l-0.1-0.6h-0.9c0,0.4,0,0.8,0,1.3v3h1v-2.5c0-0.1,0-0.2,0.1-0.4c0.1-0.3,0.4-0.6,0.8-0.6
					c0.5,0,0.7,0.4,0.7,1v2.4h1v-2.5c0-0.1,0-0.3,0.1-0.4c0.1-0.3,0.4-0.6,0.7-0.6c0.5,0,0.8,0.4,0.8,1.1v2.3h1v-2.5
					C87.6,68.1,86.9,67.6,86.2,67.6z"/>
			</g>
		</g>
	</g>
</g>
<g id="ICONS_-_WARM_GREY" display="none">
	<g display="inline">
		<g>
			<g>
				<path fill="#534C63" d="M35.7,62.3h5.5c-4.6-3.2-7.5-8-7.5-13.4c0-5.4,2.9-10.2,7.5-13.4h-5.5c-3.5,3.6-5.6,8.3-5.6,13.4
					C30,54,32.1,58.7,35.7,62.3z"/>
				<path fill="#534C63" d="M44.3,48.9c0-5.4,2.9-10.2,7.5-13.4h-5.5c-3.5,3.6-5.6,8.3-5.6,13.4c0,5.1,2.1,9.8,5.6,13.4h5.5
					C47.2,59.1,44.3,54.3,44.3,48.9z"/>
				<path fill="#534C63" d="M25,62.3h5.5c-4.6-3.2-7.5-8-7.5-13.4c0-5.4,2.9-10.2,7.5-13.4H25c-3.5,3.6-5.6,8.3-5.6,13.4
					C19.4,54,21.5,58.7,25,62.3z"/>
				<path fill="#534C63" d="M88.8,48.9c0-7.4-6-13.4-13.4-13.4c-7.4,0-13.4,6-13.4,13.4c0,7.4,6,13.4,13.4,13.4
					C82.8,62.3,88.8,56.3,88.8,48.9z M75.4,58.7c-5.4,0-9.8-4.4-9.8-9.8c0-5.4,4.4-9.8,9.8-9.8c5.4,0,9.8,4.4,9.8,9.8
					C85.2,54.3,80.8,58.7,75.4,58.7z"/>
				<path fill="#534C63" d="M56.9,62.3h5.5c-4.6-3.2-7.5-8-7.5-13.4c0-5.4,2.9-10.2,7.5-13.4h-5.5c-3.5,3.6-5.6,8.3-5.6,13.4
					C51.3,54,53.4,58.7,56.9,62.3z"/>
				<path fill="#534C63" d="M19.9,62.3c-4.6-3.2-7.5-8-7.5-13.4c0-5.4,2.9-10.2,7.5-13.4h-5.5c-3.5,3.6-5.6,8.3-5.6,13.4
					c0,5.1,2.1,9.8,5.6,13.4H19.9z"/>
				<path fill="#534C63" d="M14.2,67.6c-0.3,0-0.6,0.1-0.8,0.2c-0.2,0.1-0.4,0.3-0.6,0.5h0c-0.2-0.4-0.6-0.7-1.2-0.7
					c-0.7,0-1.1,0.4-1.3,0.7h0l-0.1-0.6H9.2c0,0.4,0,0.8,0,1.4v2.9h1.3v-2.5c0-0.1,0-0.2,0.1-0.3c0.1-0.2,0.3-0.5,0.6-0.5
					c0.4,0,0.6,0.4,0.6,0.9v2.4h1.3v-2.5c0-0.1,0-0.2,0-0.3c0.1-0.3,0.3-0.5,0.6-0.5c0.4,0,0.6,0.4,0.6,1v2.3h1.3v-2.5
					C15.7,68.1,15.1,67.6,14.2,67.6z"/>
				<path fill="#534C63" d="M19,67.6c-1.4,0-2.3,0.9-2.3,2.3c0,1.4,1,2.2,2.2,2.2c1.1,0,2.2-0.7,2.2-2.3
					C21.1,68.5,20.2,67.6,19,67.6z M18.9,71c-0.6,0-0.9-0.5-0.9-1.3c0-0.6,0.2-1.3,0.9-1.3c0.6,0,0.8,0.6,0.8,1.3
					C19.8,70.5,19.4,71,18.9,71z"/>
				<path fill="#534C63" d="M24.6,67.6c-0.7,0-1.1,0.4-1.3,0.7h0l-0.1-0.6h-1.1c0,0.4,0,0.8,0,1.4v2.9h1.3v-2.4c0-0.1,0-0.2,0-0.3
					c0.1-0.2,0.3-0.5,0.7-0.5c0.5,0,0.7,0.4,0.7,0.9v2.3h1.3v-2.5C26.2,68.1,25.5,67.6,24.6,67.6z"/>
				<path fill="#534C63" d="M29.3,67.6c-1.5,0-2.1,1.2-2.1,2.3c0,1.3,0.8,2.2,2.3,2.2c0.6,0,1.1-0.1,1.5-0.3l-0.2-0.9
					c-0.4,0.1-0.7,0.2-1.2,0.2c-0.6,0-1.2-0.3-1.2-0.8h2.7c0-0.1,0-0.3,0-0.5C31.2,68.6,30.7,67.6,29.3,67.6z M28.4,69.3
					c0-0.3,0.3-0.9,0.8-0.9c0.6,0,0.7,0.5,0.7,0.9H28.4z"/>
				<path fill="#534C63" d="M34.2,69.7c-0.1,0.3-0.1,0.6-0.2,0.8h0c-0.1-0.2-0.1-0.5-0.2-0.8l-0.6-2.1h-1.5l1.6,3.9
					c0,0.1,0.1,0.2,0.1,0.2c0,0.1,0,0.1-0.1,0.2c-0.1,0.2-0.3,0.4-0.5,0.5c-0.2,0.1-0.4,0.2-0.6,0.2l0.3,1.1c0.3,0,0.8-0.2,1.3-0.6
					c0.5-0.4,0.9-1.1,1.5-2.8l1-2.8h-1.4L34.2,69.7z"/>
				<path fill="#534C63" d="M39.5,67.6c-0.6,0-1,0.2-1.3,0.6h0v-2.4h-1.3v4.9c0,0.5,0,1,0,1.3H38l0.1-0.6h0c0.3,0.5,0.8,0.7,1.3,0.7
					c1,0,1.9-0.8,1.9-2.3C41.3,68.4,40.5,67.6,39.5,67.6z M39,71c-0.4,0-0.7-0.3-0.8-0.6c0-0.1,0-0.1,0-0.2v-0.6c0-0.1,0-0.2,0-0.2
					c0.1-0.4,0.4-0.6,0.8-0.6c0.6,0,0.9,0.5,0.9,1.2C39.9,70.5,39.6,71,39,71z"/>
				<path fill="#534C63" d="M44.4,67.6c-1.4,0-2.3,0.9-2.3,2.3c0,1.4,1,2.2,2.2,2.2c1.1,0,2.2-0.7,2.2-2.3
					C46.5,68.5,45.7,67.6,44.4,67.6z M44.3,71c-0.6,0-0.9-0.5-0.9-1.3c0-0.6,0.2-1.3,0.9-1.3c0.6,0,0.8,0.6,0.8,1.3
					C45.2,70.5,44.8,71,44.3,71z"/>
				<path fill="#534C63" d="M49.6,67.6c-1.4,0-2.3,0.9-2.3,2.3c0,1.4,1,2.2,2.2,2.2c1.1,0,2.2-0.7,2.2-2.3
					C51.8,68.5,50.9,67.6,49.6,67.6z M49.6,71c-0.6,0-0.9-0.5-0.9-1.3c0-0.6,0.2-1.3,0.9-1.3c0.6,0,0.8,0.6,0.8,1.3
					C50.4,70.5,50.1,71,49.6,71z"/>
				<path fill="#534C63" d="M56.9,67.7h-1.6l-0.9,1.3c-0.1,0.2-0.2,0.3-0.3,0.5h0v-3.7h-1.3v6.1h1.3v-1.3l0.3-0.4l1,1.7h1.6
					l-1.7-2.5L56.9,67.7z"/>
				<path fill="#534C63" d="M59.5,67.6c-1.5,0-2.1,1.2-2.1,2.3c0,1.3,0.8,2.2,2.3,2.2c0.6,0,1.1-0.1,1.5-0.3L61,70.8
					c-0.4,0.1-0.7,0.2-1.2,0.2c-0.6,0-1.2-0.3-1.2-0.8h2.7c0-0.1,0-0.3,0-0.5C61.4,68.6,60.8,67.6,59.5,67.6z M58.6,69.3
					c0-0.3,0.3-0.9,0.8-0.9c0.6,0,0.7,0.5,0.7,0.9H58.6z"/>
				<path fill="#534C63" d="M63.5,68.4L63.5,68.4l-0.1-0.8h-1.1c0,0.4,0,0.8,0,1.4v2.8h1.3v-2.1c0-0.1,0-0.2,0-0.3
					c0.1-0.4,0.4-0.7,0.9-0.7c0.1,0,0.3,0,0.4,0v-1.2c-0.1,0-0.2,0-0.3,0C64.3,67.6,63.8,67.8,63.5,68.4z"/>
				<path fill="#534C63" d="M67.7,69.3C67.2,69.1,67,69,67,68.8c0-0.2,0.2-0.3,0.5-0.3c0.4,0,0.7,0.1,0.9,0.2l0.2-0.9
					c-0.3-0.1-0.7-0.3-1.2-0.3c-1,0-1.7,0.6-1.7,1.4c0,0.5,0.3,1,1.2,1.3c0.5,0.2,0.6,0.3,0.6,0.5c0,0.2-0.2,0.3-0.6,0.3
					c-0.4,0-0.9-0.2-1.1-0.3l-0.2,0.9C66,71.9,66.5,72,67,72c1.2,0,1.8-0.6,1.8-1.4C68.8,70,68.5,69.6,67.7,69.3z"/>
				<path fill="#534C63" d="M70.5,70.4c-0.5,0-0.8,0.3-0.8,0.8c0,0.5,0.3,0.8,0.8,0.8c0.5,0,0.8-0.3,0.8-0.8
					C71.2,70.7,70.9,70.4,70.5,70.4z"/>
				<path fill="#534C63" d="M74.4,68.4c0.4,0,0.6,0.1,0.8,0.2l0.2-0.8c-0.2-0.1-0.6-0.2-1-0.2c-1.5,0-2.3,1-2.3,2.2
					c0,1.3,0.9,2.2,2.2,2.2c0.5,0,1-0.1,1.2-0.2L75.2,71c-0.2,0.1-0.5,0.2-0.8,0.2c-0.7,0-1.3-0.5-1.3-1.4
					C73.1,69,73.6,68.4,74.4,68.4z"/>
				<path fill="#534C63" d="M78.2,67.6c-1.3,0-2.2,0.8-2.2,2.2c0,1.4,0.9,2.2,2.1,2.2c1.1,0,2.2-0.7,2.2-2.2
					C80.3,68.5,79.5,67.6,78.2,67.6z M78.2,71.2c-0.6,0-1-0.6-1-1.4c0-0.7,0.3-1.4,1.1-1.4c0.7,0,1,0.8,1,1.4
					C79.2,70.6,78.8,71.2,78.2,71.2z"/>
				<path fill="#534C63" d="M86.2,67.6c-0.4,0-0.6,0.1-0.9,0.3c-0.2,0.1-0.4,0.3-0.5,0.5h0c-0.2-0.5-0.6-0.8-1.2-0.8
					c-0.7,0-1.1,0.4-1.3,0.7h0l-0.1-0.6h-0.9c0,0.4,0,0.8,0,1.3v3h1v-2.5c0-0.1,0-0.2,0.1-0.4c0.1-0.3,0.4-0.6,0.8-0.6
					c0.5,0,0.7,0.4,0.7,1v2.4h1v-2.5c0-0.1,0-0.3,0.1-0.4c0.1-0.3,0.4-0.6,0.7-0.6c0.5,0,0.8,0.4,0.8,1.1v2.3h1v-2.5
					C87.6,68.1,86.9,67.6,86.2,67.6z"/>
			</g>
		</g>
	</g>
</g>
<g id="ICONS_-_SKRILL_TEAL" display="none">
	<g display="inline">
		<g>
			<g>
				<path fill="#41AEB5" d="M35.7,62.3h5.5c-4.6-3.2-7.5-8-7.5-13.4c0-5.4,2.9-10.2,7.5-13.4h-5.5c-3.5,3.6-5.6,8.3-5.6,13.4
					C30,54,32.1,58.7,35.7,62.3z"/>
				<path fill="#41AEB5" d="M44.3,48.9c0-5.4,2.9-10.2,7.5-13.4h-5.5c-3.5,3.6-5.6,8.3-5.6,13.4c0,5.1,2.1,9.8,5.6,13.4h5.5
					C47.2,59.1,44.3,54.3,44.3,48.9z"/>
				<path fill="#41AEB5" d="M25,62.3h5.5c-4.6-3.2-7.5-8-7.5-13.4c0-5.4,2.9-10.2,7.5-13.4H25c-3.5,3.6-5.6,8.3-5.6,13.4
					C19.4,54,21.5,58.7,25,62.3z"/>
				<path fill="#41AEB5" d="M88.8,48.9c0-7.4-6-13.4-13.4-13.4c-7.4,0-13.4,6-13.4,13.4c0,7.4,6,13.4,13.4,13.4
					C82.8,62.3,88.8,56.3,88.8,48.9z M75.4,58.7c-5.4,0-9.8-4.4-9.8-9.8c0-5.4,4.4-9.8,9.8-9.8c5.4,0,9.8,4.4,9.8,9.8
					C85.2,54.3,80.8,58.7,75.4,58.7z"/>
				<path fill="#41AEB5" d="M56.9,62.3h5.5c-4.6-3.2-7.5-8-7.5-13.4c0-5.4,2.9-10.2,7.5-13.4h-5.5c-3.5,3.6-5.6,8.3-5.6,13.4
					C51.3,54,53.4,58.7,56.9,62.3z"/>
				<path fill="#41AEB5" d="M19.9,62.3c-4.6-3.2-7.5-8-7.5-13.4c0-5.4,2.9-10.2,7.5-13.4h-5.5c-3.5,3.6-5.6,8.3-5.6,13.4
					c0,5.1,2.1,9.8,5.6,13.4H19.9z"/>
				<path fill="#41AEB5" d="M14.2,67.6c-0.3,0-0.6,0.1-0.8,0.2c-0.2,0.1-0.4,0.3-0.6,0.5h0c-0.2-0.4-0.6-0.7-1.2-0.7
					c-0.7,0-1.1,0.4-1.3,0.7h0l-0.1-0.6H9.2c0,0.4,0,0.8,0,1.4v2.9h1.3v-2.5c0-0.1,0-0.2,0.1-0.3c0.1-0.2,0.3-0.5,0.6-0.5
					c0.4,0,0.6,0.4,0.6,0.9v2.4h1.3v-2.5c0-0.1,0-0.2,0-0.3c0.1-0.3,0.3-0.5,0.6-0.5c0.4,0,0.6,0.4,0.6,1v2.3h1.3v-2.5
					C15.7,68.1,15.1,67.6,14.2,67.6z"/>
				<path fill="#41AEB5" d="M19,67.6c-1.4,0-2.3,0.9-2.3,2.3c0,1.4,1,2.2,2.2,2.2c1.1,0,2.2-0.7,2.2-2.3
					C21.1,68.5,20.2,67.6,19,67.6z M18.9,71c-0.6,0-0.9-0.5-0.9-1.3c0-0.6,0.2-1.3,0.9-1.3c0.6,0,0.8,0.6,0.8,1.3
					C19.8,70.5,19.4,71,18.9,71z"/>
				<path fill="#41AEB5" d="M24.6,67.6c-0.7,0-1.1,0.4-1.3,0.7h0l-0.1-0.6h-1.1c0,0.4,0,0.8,0,1.4v2.9h1.3v-2.4c0-0.1,0-0.2,0-0.3
					c0.1-0.2,0.3-0.5,0.7-0.5c0.5,0,0.7,0.4,0.7,0.9v2.3h1.3v-2.5C26.2,68.1,25.5,67.6,24.6,67.6z"/>
				<path fill="#41AEB5" d="M29.3,67.6c-1.5,0-2.1,1.2-2.1,2.3c0,1.3,0.8,2.2,2.3,2.2c0.6,0,1.1-0.1,1.5-0.3l-0.2-0.9
					c-0.4,0.1-0.7,0.2-1.2,0.2c-0.6,0-1.2-0.3-1.2-0.8h2.7c0-0.1,0-0.3,0-0.5C31.2,68.6,30.7,67.6,29.3,67.6z M28.4,69.3
					c0-0.3,0.3-0.9,0.8-0.9c0.6,0,0.7,0.5,0.7,0.9H28.4z"/>
				<path fill="#41AEB5" d="M34.2,69.7c-0.1,0.3-0.1,0.6-0.2,0.8h0c-0.1-0.2-0.1-0.5-0.2-0.8l-0.6-2.1h-1.5l1.6,3.9
					c0,0.1,0.1,0.2,0.1,0.2c0,0.1,0,0.1-0.1,0.2c-0.1,0.2-0.3,0.4-0.5,0.5c-0.2,0.1-0.4,0.2-0.6,0.2l0.3,1.1c0.3,0,0.8-0.2,1.3-0.6
					c0.5-0.4,0.9-1.1,1.5-2.8l1-2.8h-1.4L34.2,69.7z"/>
				<path fill="#41AEB5" d="M39.5,67.6c-0.6,0-1,0.2-1.3,0.6h0v-2.4h-1.3v4.9c0,0.5,0,1,0,1.3H38l0.1-0.6h0c0.3,0.5,0.8,0.7,1.3,0.7
					c1,0,1.9-0.8,1.9-2.3C41.3,68.4,40.5,67.6,39.5,67.6z M39,71c-0.4,0-0.7-0.3-0.8-0.6c0-0.1,0-0.1,0-0.2v-0.6c0-0.1,0-0.2,0-0.2
					c0.1-0.4,0.4-0.6,0.8-0.6c0.6,0,0.9,0.5,0.9,1.2C39.9,70.5,39.6,71,39,71z"/>
				<path fill="#41AEB5" d="M44.4,67.6c-1.4,0-2.3,0.9-2.3,2.3c0,1.4,1,2.2,2.2,2.2c1.1,0,2.2-0.7,2.2-2.3
					C46.5,68.5,45.7,67.6,44.4,67.6z M44.3,71c-0.6,0-0.9-0.5-0.9-1.3c0-0.6,0.2-1.3,0.9-1.3c0.6,0,0.8,0.6,0.8,1.3
					C45.2,70.5,44.8,71,44.3,71z"/>
				<path fill="#41AEB5" d="M49.6,67.6c-1.4,0-2.3,0.9-2.3,2.3c0,1.4,1,2.2,2.2,2.2c1.1,0,2.2-0.7,2.2-2.3
					C51.8,68.5,50.9,67.6,49.6,67.6z M49.6,71c-0.6,0-0.9-0.5-0.9-1.3c0-0.6,0.2-1.3,0.9-1.3c0.6,0,0.8,0.6,0.8,1.3
					C50.4,70.5,50.1,71,49.6,71z"/>
				<path fill="#41AEB5" d="M56.9,67.7h-1.6l-0.9,1.3c-0.1,0.2-0.2,0.3-0.3,0.5h0v-3.7h-1.3v6.1h1.3v-1.3l0.3-0.4l1,1.7h1.6
					l-1.7-2.5L56.9,67.7z"/>
				<path fill="#41AEB5" d="M59.5,67.6c-1.5,0-2.1,1.2-2.1,2.3c0,1.3,0.8,2.2,2.3,2.2c0.6,0,1.1-0.1,1.5-0.3L61,70.8
					c-0.4,0.1-0.7,0.2-1.2,0.2c-0.6,0-1.2-0.3-1.2-0.8h2.7c0-0.1,0-0.3,0-0.5C61.4,68.6,60.8,67.6,59.5,67.6z M58.6,69.3
					c0-0.3,0.3-0.9,0.8-0.9c0.6,0,0.7,0.5,0.7,0.9H58.6z"/>
				<path fill="#41AEB5" d="M63.5,68.4L63.5,68.4l-0.1-0.8h-1.1c0,0.4,0,0.8,0,1.4v2.8h1.3v-2.1c0-0.1,0-0.2,0-0.3
					c0.1-0.4,0.4-0.7,0.9-0.7c0.1,0,0.3,0,0.4,0v-1.2c-0.1,0-0.2,0-0.3,0C64.3,67.6,63.8,67.8,63.5,68.4z"/>
				<path fill="#41AEB5" d="M67.7,69.3C67.2,69.1,67,69,67,68.8c0-0.2,0.2-0.3,0.5-0.3c0.4,0,0.7,0.1,0.9,0.2l0.2-0.9
					c-0.3-0.1-0.7-0.3-1.2-0.3c-1,0-1.7,0.6-1.7,1.4c0,0.5,0.3,1,1.2,1.3c0.5,0.2,0.6,0.3,0.6,0.5c0,0.2-0.2,0.3-0.6,0.3
					c-0.4,0-0.9-0.2-1.1-0.3l-0.2,0.9C66,71.9,66.5,72,67,72c1.2,0,1.8-0.6,1.8-1.4C68.8,70,68.5,69.6,67.7,69.3z"/>
				<path fill="#41AEB5" d="M70.5,70.4c-0.5,0-0.8,0.3-0.8,0.8c0,0.5,0.3,0.8,0.8,0.8c0.5,0,0.8-0.3,0.8-0.8
					C71.2,70.7,70.9,70.4,70.5,70.4z"/>
				<path fill="#41AEB5" d="M74.4,68.4c0.4,0,0.6,0.1,0.8,0.2l0.2-0.8c-0.2-0.1-0.6-0.2-1-0.2c-1.5,0-2.3,1-2.3,2.2
					c0,1.3,0.9,2.2,2.2,2.2c0.5,0,1-0.1,1.2-0.2L75.2,71c-0.2,0.1-0.5,0.2-0.8,0.2c-0.7,0-1.3-0.5-1.3-1.4
					C73.1,69,73.6,68.4,74.4,68.4z"/>
				<path fill="#41AEB5" d="M78.2,67.6c-1.3,0-2.2,0.8-2.2,2.2c0,1.4,0.9,2.2,2.1,2.2c1.1,0,2.2-0.7,2.2-2.2
					C80.3,68.5,79.5,67.6,78.2,67.6z M78.2,71.2c-0.6,0-1-0.6-1-1.4c0-0.7,0.3-1.4,1.1-1.4c0.7,0,1,0.8,1,1.4
					C79.2,70.6,78.8,71.2,78.2,71.2z"/>
				<path fill="#41AEB5" d="M86.2,67.6c-0.4,0-0.6,0.1-0.9,0.3c-0.2,0.1-0.4,0.3-0.5,0.5h0c-0.2-0.5-0.6-0.8-1.2-0.8
					c-0.7,0-1.1,0.4-1.3,0.7h0l-0.1-0.6h-0.9c0,0.4,0,0.8,0,1.3v3h1v-2.5c0-0.1,0-0.2,0.1-0.4c0.1-0.3,0.4-0.6,0.8-0.6
					c0.5,0,0.7,0.4,0.7,1v2.4h1v-2.5c0-0.1,0-0.3,0.1-0.4c0.1-0.3,0.4-0.6,0.7-0.6c0.5,0,0.8,0.4,0.8,1.1v2.3h1v-2.5
					C87.6,68.1,86.9,67.6,86.2,67.6z"/>
			</g>
		</g>
	</g>
</g>
<g id="ICONS_-_SKRILL_PURPLE">
	<g>
		<g>
			<g>
				<path fill="#811E68" d="M35.7,62.3h5.5c-4.6-3.2-7.5-8-7.5-13.4c0-5.4,2.9-10.2,7.5-13.4h-5.5c-3.5,3.6-5.6,8.3-5.6,13.4
					C30,54,32.1,58.7,35.7,62.3z"/>
				<path fill="#811E68" d="M44.3,48.9c0-5.4,2.9-10.2,7.5-13.4h-5.5c-3.5,3.6-5.6,8.3-5.6,13.4c0,5.1,2.1,9.8,5.6,13.4h5.5
					C47.2,59.1,44.3,54.3,44.3,48.9z"/>
				<path fill="#811E68" d="M25,62.3h5.5c-4.6-3.2-7.5-8-7.5-13.4c0-5.4,2.9-10.2,7.5-13.4H25c-3.5,3.6-5.6,8.3-5.6,13.4
					C19.4,54,21.5,58.7,25,62.3z"/>
				<path fill="#811E68" d="M88.8,48.9c0-7.4-6-13.4-13.4-13.4c-7.4,0-13.4,6-13.4,13.4c0,7.4,6,13.4,13.4,13.4
					C82.8,62.3,88.8,56.3,88.8,48.9z M75.4,58.7c-5.4,0-9.8-4.4-9.8-9.8c0-5.4,4.4-9.8,9.8-9.8c5.4,0,9.8,4.4,9.8,9.8
					C85.2,54.3,80.8,58.7,75.4,58.7z"/>
				<path fill="#811E68" d="M56.9,62.3h5.5c-4.6-3.2-7.5-8-7.5-13.4c0-5.4,2.9-10.2,7.5-13.4h-5.5c-3.5,3.6-5.6,8.3-5.6,13.4
					C51.3,54,53.4,58.7,56.9,62.3z"/>
				<path fill="#811E68" d="M19.9,62.3c-4.6-3.2-7.5-8-7.5-13.4c0-5.4,2.9-10.2,7.5-13.4h-5.5c-3.5,3.6-5.6,8.3-5.6,13.4
					c0,5.1,2.1,9.8,5.6,13.4H19.9z"/>
				<path fill="#811E68" d="M14.2,67.6c-0.3,0-0.6,0.1-0.8,0.2c-0.2,0.1-0.4,0.3-0.6,0.5h0c-0.2-0.4-0.6-0.7-1.2-0.7
					c-0.7,0-1.1,0.4-1.3,0.7h0l-0.1-0.6H9.2c0,0.4,0,0.8,0,1.4v2.9h1.3v-2.5c0-0.1,0-0.2,0.1-0.3c0.1-0.2,0.3-0.5,0.6-0.5
					c0.4,0,0.6,0.4,0.6,0.9v2.4h1.3v-2.5c0-0.1,0-0.2,0-0.3c0.1-0.3,0.3-0.5,0.6-0.5c0.4,0,0.6,0.4,0.6,1v2.3h1.3v-2.5
					C15.7,68.1,15.1,67.6,14.2,67.6z"/>
				<path fill="#811E68" d="M19,67.6c-1.4,0-2.3,0.9-2.3,2.3c0,1.4,1,2.2,2.2,2.2c1.1,0,2.2-0.7,2.2-2.3
					C21.1,68.5,20.2,67.6,19,67.6z M18.9,71c-0.6,0-0.9-0.5-0.9-1.3c0-0.6,0.2-1.3,0.9-1.3c0.6,0,0.8,0.6,0.8,1.3
					C19.8,70.5,19.4,71,18.9,71z"/>
				<path fill="#811E68" d="M24.6,67.6c-0.7,0-1.1,0.4-1.3,0.7h0l-0.1-0.6h-1.1c0,0.4,0,0.8,0,1.4v2.9h1.3v-2.4c0-0.1,0-0.2,0-0.3
					c0.1-0.2,0.3-0.5,0.7-0.5c0.5,0,0.7,0.4,0.7,0.9v2.3h1.3v-2.5C26.2,68.1,25.5,67.6,24.6,67.6z"/>
				<path fill="#811E68" d="M29.3,67.6c-1.5,0-2.1,1.2-2.1,2.3c0,1.3,0.8,2.2,2.3,2.2c0.6,0,1.1-0.1,1.5-0.3l-0.2-0.9
					c-0.4,0.1-0.7,0.2-1.2,0.2c-0.6,0-1.2-0.3-1.2-0.8h2.7c0-0.1,0-0.3,0-0.5C31.2,68.6,30.7,67.6,29.3,67.6z M28.4,69.3
					c0-0.3,0.3-0.9,0.8-0.9c0.6,0,0.7,0.5,0.7,0.9H28.4z"/>
				<path fill="#811E68" d="M34.2,69.7c-0.1,0.3-0.1,0.6-0.2,0.8h0c-0.1-0.2-0.1-0.5-0.2-0.8l-0.6-2.1h-1.5l1.6,3.9
					c0,0.1,0.1,0.2,0.1,0.2c0,0.1,0,0.1-0.1,0.2c-0.1,0.2-0.3,0.4-0.5,0.5c-0.2,0.1-0.4,0.2-0.6,0.2l0.3,1.1c0.3,0,0.8-0.2,1.3-0.6
					c0.5-0.4,0.9-1.1,1.5-2.8l1-2.8h-1.4L34.2,69.7z"/>
				<path fill="#811E68" d="M39.5,67.6c-0.6,0-1,0.2-1.3,0.6h0v-2.4h-1.3v4.9c0,0.5,0,1,0,1.3H38l0.1-0.6h0c0.3,0.5,0.8,0.7,1.3,0.7
					c1,0,1.9-0.8,1.9-2.3C41.3,68.4,40.5,67.6,39.5,67.6z M39,71c-0.4,0-0.7-0.3-0.8-0.6c0-0.1,0-0.1,0-0.2v-0.6c0-0.1,0-0.2,0-0.2
					c0.1-0.4,0.4-0.6,0.8-0.6c0.6,0,0.9,0.5,0.9,1.2C39.9,70.5,39.6,71,39,71z"/>
				<path fill="#811E68" d="M44.4,67.6c-1.4,0-2.3,0.9-2.3,2.3c0,1.4,1,2.2,2.2,2.2c1.1,0,2.2-0.7,2.2-2.3
					C46.5,68.5,45.7,67.6,44.4,67.6z M44.3,71c-0.6,0-0.9-0.5-0.9-1.3c0-0.6,0.2-1.3,0.9-1.3c0.6,0,0.8,0.6,0.8,1.3
					C45.2,70.5,44.8,71,44.3,71z"/>
				<path fill="#811E68" d="M49.6,67.6c-1.4,0-2.3,0.9-2.3,2.3c0,1.4,1,2.2,2.2,2.2c1.1,0,2.2-0.7,2.2-2.3
					C51.8,68.5,50.9,67.6,49.6,67.6z M49.6,71c-0.6,0-0.9-0.5-0.9-1.3c0-0.6,0.2-1.3,0.9-1.3c0.6,0,0.8,0.6,0.8,1.3
					C50.4,70.5,50.1,71,49.6,71z"/>
				<path fill="#811E68" d="M56.9,67.7h-1.6l-0.9,1.3c-0.1,0.2-0.2,0.3-0.3,0.5h0v-3.7h-1.3v6.1h1.3v-1.3l0.3-0.4l1,1.7h1.6
					l-1.7-2.5L56.9,67.7z"/>
				<path fill="#811E68" d="M59.5,67.6c-1.5,0-2.1,1.2-2.1,2.3c0,1.3,0.8,2.2,2.3,2.2c0.6,0,1.1-0.1,1.5-0.3L61,70.8
					c-0.4,0.1-0.7,0.2-1.2,0.2c-0.6,0-1.2-0.3-1.2-0.8h2.7c0-0.1,0-0.3,0-0.5C61.4,68.6,60.8,67.6,59.5,67.6z M58.6,69.3
					c0-0.3,0.3-0.9,0.8-0.9c0.6,0,0.7,0.5,0.7,0.9H58.6z"/>
				<path fill="#811E68" d="M63.5,68.4L63.5,68.4l-0.1-0.8h-1.1c0,0.4,0,0.8,0,1.4v2.8h1.3v-2.1c0-0.1,0-0.2,0-0.3
					c0.1-0.4,0.4-0.7,0.9-0.7c0.1,0,0.3,0,0.4,0v-1.2c-0.1,0-0.2,0-0.3,0C64.3,67.6,63.8,67.8,63.5,68.4z"/>
				<path fill="#811E68" d="M67.7,69.3C67.2,69.1,67,69,67,68.8c0-0.2,0.2-0.3,0.5-0.3c0.4,0,0.7,0.1,0.9,0.2l0.2-0.9
					c-0.3-0.1-0.7-0.3-1.2-0.3c-1,0-1.7,0.6-1.7,1.4c0,0.5,0.3,1,1.2,1.3c0.5,0.2,0.6,0.3,0.6,0.5c0,0.2-0.2,0.3-0.6,0.3
					c-0.4,0-0.9-0.2-1.1-0.3l-0.2,0.9C66,71.9,66.5,72,67,72c1.2,0,1.8-0.6,1.8-1.4C68.8,70,68.5,69.6,67.7,69.3z"/>
				<path fill="#811E68" d="M70.5,70.4c-0.5,0-0.8,0.3-0.8,0.8c0,0.5,0.3,0.8,0.8,0.8c0.5,0,0.8-0.3,0.8-0.8
					C71.2,70.7,70.9,70.4,70.5,70.4z"/>
				<path fill="#811E68" d="M74.4,68.4c0.4,0,0.6,0.1,0.8,0.2l0.2-0.8c-0.2-0.1-0.6-0.2-1-0.2c-1.5,0-2.3,1-2.3,2.2
					c0,1.3,0.9,2.2,2.2,2.2c0.5,0,1-0.1,1.2-0.2L75.2,71c-0.2,0.1-0.5,0.2-0.8,0.2c-0.7,0-1.3-0.5-1.3-1.4
					C73.1,69,73.6,68.4,74.4,68.4z"/>
				<path fill="#811E68" d="M78.2,67.6c-1.3,0-2.2,0.8-2.2,2.2c0,1.4,0.9,2.2,2.1,2.2c1.1,0,2.2-0.7,2.2-2.2
					C80.3,68.5,79.5,67.6,78.2,67.6z M78.2,71.2c-0.6,0-1-0.6-1-1.4c0-0.7,0.3-1.4,1.1-1.4c0.7,0,1,0.8,1,1.4
					C79.2,70.6,78.8,71.2,78.2,71.2z"/>
				<path fill="#811E68" d="M86.2,67.6c-0.4,0-0.6,0.1-0.9,0.3c-0.2,0.1-0.4,0.3-0.5,0.5h0c-0.2-0.5-0.6-0.8-1.2-0.8
					c-0.7,0-1.1,0.4-1.3,0.7h0l-0.1-0.6h-0.9c0,0.4,0,0.8,0,1.3v3h1v-2.5c0-0.1,0-0.2,0.1-0.4c0.1-0.3,0.4-0.6,0.8-0.6
					c0.5,0,0.7,0.4,0.7,1v2.4h1v-2.5c0-0.1,0-0.3,0.1-0.4c0.1-0.3,0.4-0.6,0.7-0.6c0.5,0,0.8,0.4,0.8,1.1v2.3h1v-2.5
					C87.6,68.1,86.9,67.6,86.2,67.6z"/>
			</g>
		</g>
	</g>
</g>
<g id="ICONS_-_WHITE" display="none">
	<g display="inline">
		<g>
			<g>
				<path fill="#FFFFFF" d="M35.7,62.3h5.5c-4.6-3.2-7.5-8-7.5-13.4c0-5.4,2.9-10.2,7.5-13.4h-5.5c-3.5,3.6-5.6,8.3-5.6,13.4
					C30,54,32.1,58.7,35.7,62.3z"/>
				<path fill="#FFFFFF" d="M44.3,48.9c0-5.4,2.9-10.2,7.5-13.4h-5.5c-3.5,3.6-5.6,8.3-5.6,13.4c0,5.1,2.1,9.8,5.6,13.4h5.5
					C47.2,59.1,44.3,54.3,44.3,48.9z"/>
				<path fill="#FFFFFF" d="M25,62.3h5.5c-4.6-3.2-7.5-8-7.5-13.4c0-5.4,2.9-10.2,7.5-13.4H25c-3.5,3.6-5.6,8.3-5.6,13.4
					C19.4,54,21.5,58.7,25,62.3z"/>
				<path fill="#FFFFFF" d="M88.8,48.9c0-7.4-6-13.4-13.4-13.4c-7.4,0-13.4,6-13.4,13.4c0,7.4,6,13.4,13.4,13.4
					C82.8,62.3,88.8,56.3,88.8,48.9z M75.4,58.7c-5.4,0-9.8-4.4-9.8-9.8c0-5.4,4.4-9.8,9.8-9.8c5.4,0,9.8,4.4,9.8,9.8
					C85.2,54.3,80.8,58.7,75.4,58.7z"/>
				<path fill="#FFFFFF" d="M56.9,62.3h5.5c-4.6-3.2-7.5-8-7.5-13.4c0-5.4,2.9-10.2,7.5-13.4h-5.5c-3.5,3.6-5.6,8.3-5.6,13.4
					C51.3,54,53.4,58.7,56.9,62.3z"/>
				<path fill="#FFFFFF" d="M19.9,62.3c-4.6-3.2-7.5-8-7.5-13.4c0-5.4,2.9-10.2,7.5-13.4h-5.5c-3.5,3.6-5.6,8.3-5.6,13.4
					c0,5.1,2.1,9.8,5.6,13.4H19.9z"/>
				<path fill="#FFFFFF" d="M14.2,67.6c-0.3,0-0.6,0.1-0.8,0.2c-0.2,0.1-0.4,0.3-0.6,0.5h0c-0.2-0.4-0.6-0.7-1.2-0.7
					c-0.7,0-1.1,0.4-1.3,0.7h0l-0.1-0.6H9.2c0,0.4,0,0.8,0,1.4v2.9h1.3v-2.5c0-0.1,0-0.2,0.1-0.3c0.1-0.2,0.3-0.5,0.6-0.5
					c0.4,0,0.6,0.4,0.6,0.9v2.4h1.3v-2.5c0-0.1,0-0.2,0-0.3c0.1-0.3,0.3-0.5,0.6-0.5c0.4,0,0.6,0.4,0.6,1v2.3h1.3v-2.5
					C15.7,68.1,15.1,67.6,14.2,67.6z"/>
				<path fill="#FFFFFF" d="M19,67.6c-1.4,0-2.3,0.9-2.3,2.3c0,1.4,1,2.2,2.2,2.2c1.1,0,2.2-0.7,2.2-2.3
					C21.1,68.5,20.2,67.6,19,67.6z M18.9,71c-0.6,0-0.9-0.5-0.9-1.3c0-0.6,0.2-1.3,0.9-1.3c0.6,0,0.8,0.6,0.8,1.3
					C19.8,70.5,19.4,71,18.9,71z"/>
				<path fill="#FFFFFF" d="M24.6,67.6c-0.7,0-1.1,0.4-1.3,0.7h0l-0.1-0.6h-1.1c0,0.4,0,0.8,0,1.4v2.9h1.3v-2.4c0-0.1,0-0.2,0-0.3
					c0.1-0.2,0.3-0.5,0.7-0.5c0.5,0,0.7,0.4,0.7,0.9v2.3h1.3v-2.5C26.2,68.1,25.5,67.6,24.6,67.6z"/>
				<path fill="#FFFFFF" d="M29.3,67.6c-1.5,0-2.1,1.2-2.1,2.3c0,1.3,0.8,2.2,2.3,2.2c0.6,0,1.1-0.1,1.5-0.3l-0.2-0.9
					c-0.4,0.1-0.7,0.2-1.2,0.2c-0.6,0-1.2-0.3-1.2-0.8h2.7c0-0.1,0-0.3,0-0.5C31.2,68.6,30.7,67.6,29.3,67.6z M28.4,69.3
					c0-0.3,0.3-0.9,0.8-0.9c0.6,0,0.7,0.5,0.7,0.9H28.4z"/>
				<path fill="#FFFFFF" d="M34.2,69.7c-0.1,0.3-0.1,0.6-0.2,0.8h0c-0.1-0.2-0.1-0.5-0.2-0.8l-0.6-2.1h-1.5l1.6,3.9
					c0,0.1,0.1,0.2,0.1,0.2c0,0.1,0,0.1-0.1,0.2c-0.1,0.2-0.3,0.4-0.5,0.5c-0.2,0.1-0.4,0.2-0.6,0.2l0.3,1.1c0.3,0,0.8-0.2,1.3-0.6
					c0.5-0.4,0.9-1.1,1.5-2.8l1-2.8h-1.4L34.2,69.7z"/>
				<path fill="#FFFFFF" d="M39.5,67.6c-0.6,0-1,0.2-1.3,0.6h0v-2.4h-1.3v4.9c0,0.5,0,1,0,1.3H38l0.1-0.6h0c0.3,0.5,0.8,0.7,1.3,0.7
					c1,0,1.9-0.8,1.9-2.3C41.3,68.4,40.5,67.6,39.5,67.6z M39,71c-0.4,0-0.7-0.3-0.8-0.6c0-0.1,0-0.1,0-0.2v-0.6c0-0.1,0-0.2,0-0.2
					c0.1-0.4,0.4-0.6,0.8-0.6c0.6,0,0.9,0.5,0.9,1.2C39.9,70.5,39.6,71,39,71z"/>
				<path fill="#FFFFFF" d="M44.4,67.6c-1.4,0-2.3,0.9-2.3,2.3c0,1.4,1,2.2,2.2,2.2c1.1,0,2.2-0.7,2.2-2.3
					C46.5,68.5,45.7,67.6,44.4,67.6z M44.3,71c-0.6,0-0.9-0.5-0.9-1.3c0-0.6,0.2-1.3,0.9-1.3c0.6,0,0.8,0.6,0.8,1.3
					C45.2,70.5,44.8,71,44.3,71z"/>
				<path fill="#FFFFFF" d="M49.6,67.6c-1.4,0-2.3,0.9-2.3,2.3c0,1.4,1,2.2,2.2,2.2c1.1,0,2.2-0.7,2.2-2.3
					C51.8,68.5,50.9,67.6,49.6,67.6z M49.6,71c-0.6,0-0.9-0.5-0.9-1.3c0-0.6,0.2-1.3,0.9-1.3c0.6,0,0.8,0.6,0.8,1.3
					C50.4,70.5,50.1,71,49.6,71z"/>
				<path fill="#FFFFFF" d="M56.9,67.7h-1.6l-0.9,1.3c-0.1,0.2-0.2,0.3-0.3,0.5h0v-3.7h-1.3v6.1h1.3v-1.3l0.3-0.4l1,1.7h1.6
					l-1.7-2.5L56.9,67.7z"/>
				<path fill="#FFFFFF" d="M59.5,67.6c-1.5,0-2.1,1.2-2.1,2.3c0,1.3,0.8,2.2,2.3,2.2c0.6,0,1.1-0.1,1.5-0.3L61,70.8
					c-0.4,0.1-0.7,0.2-1.2,0.2c-0.6,0-1.2-0.3-1.2-0.8h2.7c0-0.1,0-0.3,0-0.5C61.4,68.6,60.8,67.6,59.5,67.6z M58.6,69.3
					c0-0.3,0.3-0.9,0.8-0.9c0.6,0,0.7,0.5,0.7,0.9H58.6z"/>
				<path fill="#FFFFFF" d="M63.5,68.4L63.5,68.4l-0.1-0.8h-1.1c0,0.4,0,0.8,0,1.4v2.8h1.3v-2.1c0-0.1,0-0.2,0-0.3
					c0.1-0.4,0.4-0.7,0.9-0.7c0.1,0,0.3,0,0.4,0v-1.2c-0.1,0-0.2,0-0.3,0C64.3,67.6,63.8,67.8,63.5,68.4z"/>
				<path fill="#FFFFFF" d="M67.7,69.3C67.2,69.1,67,69,67,68.8c0-0.2,0.2-0.3,0.5-0.3c0.4,0,0.7,0.1,0.9,0.2l0.2-0.9
					c-0.3-0.1-0.7-0.3-1.2-0.3c-1,0-1.7,0.6-1.7,1.4c0,0.5,0.3,1,1.2,1.3c0.5,0.2,0.6,0.3,0.6,0.5c0,0.2-0.2,0.3-0.6,0.3
					c-0.4,0-0.9-0.2-1.1-0.3l-0.2,0.9C66,71.9,66.5,72,67,72c1.2,0,1.8-0.6,1.8-1.4C68.8,70,68.5,69.6,67.7,69.3z"/>
				<path fill="#FFFFFF" d="M70.5,70.4c-0.5,0-0.8,0.3-0.8,0.8c0,0.5,0.3,0.8,0.8,0.8c0.5,0,0.8-0.3,0.8-0.8
					C71.2,70.7,70.9,70.4,70.5,70.4z"/>
				<path fill="#FFFFFF" d="M74.4,68.4c0.4,0,0.6,0.1,0.8,0.2l0.2-0.8c-0.2-0.1-0.6-0.2-1-0.2c-1.5,0-2.3,1-2.3,2.2
					c0,1.3,0.9,2.2,2.2,2.2c0.5,0,1-0.1,1.2-0.2L75.2,71c-0.2,0.1-0.5,0.2-0.8,0.2c-0.7,0-1.3-0.5-1.3-1.4
					C73.1,69,73.6,68.4,74.4,68.4z"/>
				<path fill="#FFFFFF" d="M78.2,67.6c-1.3,0-2.2,0.8-2.2,2.2c0,1.4,0.9,2.2,2.1,2.2c1.1,0,2.2-0.7,2.2-2.2
					C80.3,68.5,79.5,67.6,78.2,67.6z M78.2,71.2c-0.6,0-1-0.6-1-1.4c0-0.7,0.3-1.4,1.1-1.4c0.7,0,1,0.8,1,1.4
					C79.2,70.6,78.8,71.2,78.2,71.2z"/>
				<path fill="#FFFFFF" d="M86.2,67.6c-0.4,0-0.6,0.1-0.9,0.3c-0.2,0.1-0.4,0.3-0.5,0.5h0c-0.2-0.5-0.6-0.8-1.2-0.8
					c-0.7,0-1.1,0.4-1.3,0.7h0l-0.1-0.6h-0.9c0,0.4,0,0.8,0,1.3v3h1v-2.5c0-0.1,0-0.2,0.1-0.4c0.1-0.3,0.4-0.6,0.8-0.6
					c0.5,0,0.7,0.4,0.7,1v2.4h1v-2.5c0-0.1,0-0.3,0.1-0.4c0.1-0.3,0.4-0.6,0.7-0.6c0.5,0,0.8,0.4,0.8,1.1v2.3h1v-2.5
					C87.6,68.1,86.9,67.6,86.2,67.6z"/>
			</g>
		</g>
	</g>
</g>
<g id="LABELS">
</g>
</svg>
