<?xml version="1.0" encoding="utf-8"?>
<!-- Generator: Adobe Illustrator 18.1.1, SVG Export Plug-In . SVG Version: 6.00 Build 0)  -->
<svg version="1.1" xmlns="http://www.w3.org/2000/svg" xmlns:xlink="http://www.w3.org/1999/xlink" x="0px" y="0px"
	 viewBox="0 0 100 100" enable-background="new 0 0 100 100" xml:space="preserve">
<g id="GUIDES">
</g>
<g id="ICONS_-_BLACK" display="none">
	<g display="inline">
		<g>
			<g>
				<g>
					<path d="M33.2,48.9h6.3c-0.2,1-0.3,1.9-0.3,2.9c0,0.2,0.1,0.5,0.3,0.6c0.2,0.2,0.4,0.3,0.6,0.3h19.9c0.2,0,0.5-0.1,0.6-0.3
						c0.2-0.2,0.3-0.4,0.3-0.6c0-0.9-0.1-1.9-0.3-2.9h6.1c0.2,0,0.5-0.1,0.6-0.3c0.2-0.2,0.3-0.4,0.3-0.6c0-3.4-1.1-6.4-3.2-8.6
						c-1.2-1.3-2.8-2.3-4.5-2.8c2.6-1.2,4.3-3.9,4.3-6.8c0-4.2-3.4-7.5-7.5-7.5c-2.7,0-5.2,1.4-6.5,3.8l-0.1,0c-0.1,0-0.3,0-0.4,0
						c-1.3-2.4-3.8-3.8-6.6-3.8c-4.2,0-7.5,3.4-7.5,7.5c0,2.9,1.7,5.6,4.3,6.8c-1.7,0.5-3.3,1.5-4.5,2.8c-2,2.2-3.2,5.2-3.2,8.6
						c0,0.2,0.1,0.5,0.3,0.6C32.7,48.9,33,48.9,33.2,48.9z M41.1,50.9c0.2-2.6,1.1-4.8,2.6-6.5c1.7-1.8,3.9-2.8,6.4-2.8
						c2.5,0,4.7,1,6.4,2.8c1.5,1.7,2.5,3.9,2.6,6.4H41.1z M63.2,40.7c1.5,1.7,2.5,3.9,2.6,6.5h-5.6c-0.5-1.5-1.3-2.8-2.4-3.9
						c-1.2-1.3-2.8-2.3-4.5-2.8c1.1-0.5,2.1-1.4,2.9-2.4l0.1,0c0.1,0,0.3,0,0.4,0C59.3,37.9,61.5,38.9,63.2,40.7z M52.8,25.7
						c1.1-1.1,2.5-1.7,4-1.7c1.5,0,3,0.6,4,1.7c1.1,1.1,1.7,2.5,1.7,4c0,1.5-0.6,3-1.7,4c-0.9,0.9-2.1,1.5-3.4,1.6
						c0.2-0.6,0.2-1.3,0.2-1.9c0-3.4-2.2-6.3-5.4-7.2C52.4,26.1,52.6,25.9,52.8,25.7z M50.1,27.8c1.5,0,3,0.6,4,1.7
						c1.1,1.1,1.7,2.5,1.7,4c0,1.5-0.6,3-1.7,4c-1.1,1.1-2.5,1.7-4,1.7c-1.5,0-3-0.6-4-1.7c-1.1-1.1-1.7-2.5-1.7-4
						c0-1.5,0.6-3,1.7-4C47.2,28.4,48.6,27.8,50.1,27.8z M39.1,33.8c-1.1-1.1-1.7-2.5-1.7-4c0-1.5,0.6-3,1.7-4s2.5-1.7,4-1.7
						c1.5,0,3,0.6,4,1.7c0.2,0.2,0.4,0.4,0.6,0.7c-3.1,1-5.2,3.9-5.2,7.2c0,0.6,0.1,1.3,0.3,1.9C41.4,35.4,40.1,34.8,39.1,33.8z
						 M36.8,40.7c1.7-1.8,3.9-2.8,6.4-2.8c0.3,0,0.5,0,0.8,0c0.8,1,1.7,1.9,2.9,2.4c-1.7,0.5-3.3,1.5-4.5,2.8
						c-1,1.1-1.8,2.4-2.4,3.9h-5.9C34.3,44.6,35.3,42.3,36.8,40.7z"/>
				</g>
				<g>
					<path d="M19.9,67.3v1.6h1.7v10.7h2.2v-14h-1.5C22,66.5,21.7,67.3,19.9,67.3z"/>
					<polygon points="26.5,79.5 27.3,79.5 26.8,81.5 27.7,81.5 28.6,79.3 28.6,77.4 26.5,77.4 					"/>
					<path d="M33.4,65.4c-2.2,0-3.3,1.3-3.3,3.5v7.3c0,2.2,1.2,3.5,3.3,3.5c2.2,0,3.3-1.3,3.3-3.5v-7.3
						C36.7,66.6,35.6,65.4,33.4,65.4z M34.5,76.3c0,1-0.4,1.4-1.1,1.4s-1.1-0.4-1.1-1.4v-7.6c0-1,0.4-1.4,1.1-1.4s1.1,0.4,1.1,1.4
						V76.3z"/>
					<path d="M41.3,65.4c-2.2,0-3.3,1.3-3.3,3.5v7.3c0,2.2,1.2,3.5,3.3,3.5c2.2,0,3.3-1.3,3.3-3.5v-7.3
						C44.7,66.6,43.5,65.4,41.3,65.4z M42.4,76.3c0,1-0.4,1.4-1.1,1.4s-1.1-0.4-1.1-1.4v-7.6c0-1,0.4-1.4,1.1-1.4s1.1,0.4,1.1,1.4
						V76.3z"/>
					<path d="M49.2,65.4c-2.2,0-3.3,1.3-3.3,3.5v7.3c0,2.2,1.2,3.5,3.3,3.5c2.2,0,3.3-1.3,3.3-3.5v-7.3
						C52.6,66.6,51.4,65.4,49.2,65.4z M50.4,76.3c0,1-0.4,1.4-1.1,1.4s-1.1-0.4-1.1-1.4v-7.6c0-1,0.4-1.4,1.1-1.4s1.1,0.4,1.1,1.4
						V76.3z"/>
					<polygon points="54,79.5 54.8,79.5 54.2,81.5 55.1,81.5 56.1,79.3 56.1,77.4 54,77.4 					"/>
					<path d="M60.9,65.4c-2.2,0-3.3,1.3-3.3,3.5v7.3c0,2.2,1.2,3.5,3.3,3.5c2.2,0,3.3-1.3,3.3-3.5v-7.3C64.2,66.6,63,65.4,60.9,65.4
						z M62,76.3c0,1-0.4,1.4-1.1,1.4s-1.1-0.4-1.1-1.4v-7.6c0-1,0.4-1.4,1.1-1.4s1.1,0.4,1.1,1.4V76.3z"/>
					<path d="M68.8,65.4c-2.2,0-3.3,1.3-3.3,3.5v7.3c0,2.2,1.2,3.5,3.3,3.5c2.2,0,3.3-1.3,3.3-3.5v-7.3
						C72.1,66.6,70.9,65.4,68.8,65.4z M69.9,76.3c0,1-0.4,1.4-1.1,1.4s-1.1-0.4-1.1-1.4v-7.6c0-1,0.4-1.4,1.1-1.4s1.1,0.4,1.1,1.4
						V76.3z"/>
					<path d="M76.7,65.4c-2.2,0-3.3,1.3-3.3,3.5v7.3c0,2.2,1.2,3.5,3.3,3.5c2.2,0,3.3-1.3,3.3-3.5v-7.3
						C80.1,66.6,78.9,65.4,76.7,65.4z M77.8,76.3c0,1-0.4,1.4-1.1,1.4s-1.1-0.4-1.1-1.4v-7.6c0-1,0.4-1.4,1.1-1.4s1.1,0.4,1.1,1.4
						V76.3z"/>
				</g>
			</g>
		</g>
	</g>
</g>
<g id="ICONS_-_DARK_PURPLE" display="none">
	<g display="inline">
		<g>
			<g>
				<g>
					<path fill="#4F2556" d="M33.2,48.9h6.3c-0.2,1-0.3,1.9-0.3,2.9c0,0.2,0.1,0.5,0.3,0.6c0.2,0.2,0.4,0.3,0.6,0.3h19.9
						c0.2,0,0.5-0.1,0.6-0.3c0.2-0.2,0.3-0.4,0.3-0.6c0-0.9-0.1-1.9-0.3-2.9h6.1c0.2,0,0.5-0.1,0.6-0.3c0.2-0.2,0.3-0.4,0.3-0.6
						c0-3.4-1.1-6.4-3.2-8.6c-1.2-1.3-2.8-2.3-4.5-2.8c2.6-1.2,4.3-3.9,4.3-6.8c0-4.2-3.4-7.5-7.5-7.5c-2.7,0-5.2,1.4-6.5,3.8
						l-0.1,0c-0.1,0-0.3,0-0.4,0c-1.3-2.4-3.8-3.8-6.6-3.8c-4.2,0-7.5,3.4-7.5,7.5c0,2.9,1.7,5.6,4.3,6.8c-1.7,0.5-3.3,1.5-4.5,2.8
						c-2,2.2-3.2,5.2-3.2,8.6c0,0.2,0.1,0.5,0.3,0.6C32.7,48.9,33,48.9,33.2,48.9z M41.1,50.9c0.2-2.6,1.1-4.8,2.6-6.5
						c1.7-1.8,3.9-2.8,6.4-2.8c2.5,0,4.7,1,6.4,2.8c1.5,1.7,2.5,3.9,2.6,6.4H41.1z M63.2,40.7c1.5,1.7,2.5,3.9,2.6,6.5h-5.6
						c-0.5-1.5-1.3-2.8-2.4-3.9c-1.2-1.3-2.8-2.3-4.5-2.8c1.1-0.5,2.1-1.4,2.9-2.4l0.1,0c0.1,0,0.3,0,0.4,0
						C59.3,37.9,61.5,38.9,63.2,40.7z M52.8,25.7c1.1-1.1,2.5-1.7,4-1.7c1.5,0,3,0.6,4,1.7c1.1,1.1,1.7,2.5,1.7,4c0,1.5-0.6,3-1.7,4
						c-0.9,0.9-2.1,1.5-3.4,1.6c0.2-0.6,0.2-1.3,0.2-1.9c0-3.4-2.2-6.3-5.4-7.2C52.4,26.1,52.6,25.9,52.8,25.7z M50.1,27.8
						c1.5,0,3,0.6,4,1.7c1.1,1.1,1.7,2.5,1.7,4c0,1.5-0.6,3-1.7,4c-1.1,1.1-2.5,1.7-4,1.7c-1.5,0-3-0.6-4-1.7
						c-1.1-1.1-1.7-2.5-1.7-4c0-1.5,0.6-3,1.7-4C47.2,28.4,48.6,27.8,50.1,27.8z M39.1,33.8c-1.1-1.1-1.7-2.5-1.7-4
						c0-1.5,0.6-3,1.7-4s2.5-1.7,4-1.7c1.5,0,3,0.6,4,1.7c0.2,0.2,0.4,0.4,0.6,0.7c-3.1,1-5.2,3.9-5.2,7.2c0,0.6,0.1,1.3,0.3,1.9
						C41.4,35.4,40.1,34.8,39.1,33.8z M36.8,40.7c1.7-1.8,3.9-2.8,6.4-2.8c0.3,0,0.5,0,0.8,0c0.8,1,1.7,1.9,2.9,2.4
						c-1.7,0.5-3.3,1.5-4.5,2.8c-1,1.1-1.8,2.4-2.4,3.9h-5.9C34.3,44.6,35.3,42.3,36.8,40.7z"/>
				</g>
				<g>
					<path fill="#4F2556" d="M19.9,67.3v1.6h1.7v10.7h2.2v-14h-1.5C22,66.5,21.7,67.3,19.9,67.3z"/>
					<polygon fill="#4F2556" points="26.5,79.5 27.3,79.5 26.8,81.5 27.7,81.5 28.6,79.3 28.6,77.4 26.5,77.4 					"/>
					<path fill="#4F2556" d="M33.4,65.4c-2.2,0-3.3,1.3-3.3,3.5v7.3c0,2.2,1.2,3.5,3.3,3.5c2.2,0,3.3-1.3,3.3-3.5v-7.3
						C36.7,66.6,35.6,65.4,33.4,65.4z M34.5,76.3c0,1-0.4,1.4-1.1,1.4s-1.1-0.4-1.1-1.4v-7.6c0-1,0.4-1.4,1.1-1.4s1.1,0.4,1.1,1.4
						V76.3z"/>
					<path fill="#4F2556" d="M41.3,65.4c-2.2,0-3.3,1.3-3.3,3.5v7.3c0,2.2,1.2,3.5,3.3,3.5c2.2,0,3.3-1.3,3.3-3.5v-7.3
						C44.7,66.6,43.5,65.4,41.3,65.4z M42.4,76.3c0,1-0.4,1.4-1.1,1.4s-1.1-0.4-1.1-1.4v-7.6c0-1,0.4-1.4,1.1-1.4s1.1,0.4,1.1,1.4
						V76.3z"/>
					<path fill="#4F2556" d="M49.2,65.4c-2.2,0-3.3,1.3-3.3,3.5v7.3c0,2.2,1.2,3.5,3.3,3.5c2.2,0,3.3-1.3,3.3-3.5v-7.3
						C52.6,66.6,51.4,65.4,49.2,65.4z M50.4,76.3c0,1-0.4,1.4-1.1,1.4s-1.1-0.4-1.1-1.4v-7.6c0-1,0.4-1.4,1.1-1.4s1.1,0.4,1.1,1.4
						V76.3z"/>
					<polygon fill="#4F2556" points="54,79.5 54.8,79.5 54.2,81.5 55.1,81.5 56.1,79.3 56.1,77.4 54,77.4 					"/>
					<path fill="#4F2556" d="M60.9,65.4c-2.2,0-3.3,1.3-3.3,3.5v7.3c0,2.2,1.2,3.5,3.3,3.5c2.2,0,3.3-1.3,3.3-3.5v-7.3
						C64.2,66.6,63,65.4,60.9,65.4z M62,76.3c0,1-0.4,1.4-1.1,1.4s-1.1-0.4-1.1-1.4v-7.6c0-1,0.4-1.4,1.1-1.4s1.1,0.4,1.1,1.4V76.3z
						"/>
					<path fill="#4F2556" d="M68.8,65.4c-2.2,0-3.3,1.3-3.3,3.5v7.3c0,2.2,1.2,3.5,3.3,3.5c2.2,0,3.3-1.3,3.3-3.5v-7.3
						C72.1,66.6,70.9,65.4,68.8,65.4z M69.9,76.3c0,1-0.4,1.4-1.1,1.4s-1.1-0.4-1.1-1.4v-7.6c0-1,0.4-1.4,1.1-1.4s1.1,0.4,1.1,1.4
						V76.3z"/>
					<path fill="#4F2556" d="M76.7,65.4c-2.2,0-3.3,1.3-3.3,3.5v7.3c0,2.2,1.2,3.5,3.3,3.5c2.2,0,3.3-1.3,3.3-3.5v-7.3
						C80.1,66.6,78.9,65.4,76.7,65.4z M77.8,76.3c0,1-0.4,1.4-1.1,1.4s-1.1-0.4-1.1-1.4v-7.6c0-1,0.4-1.4,1.1-1.4s1.1,0.4,1.1,1.4
						V76.3z"/>
				</g>
			</g>
		</g>
	</g>
</g>
<g id="ICONS_-_WARM_GREY" display="none">
	<g display="inline">
		<g>
			<g>
				<g>
					<path fill="#534C63" d="M33.2,48.9h6.3c-0.2,1-0.3,1.9-0.3,2.9c0,0.2,0.1,0.5,0.3,0.6c0.2,0.2,0.4,0.3,0.6,0.3h19.9
						c0.2,0,0.5-0.1,0.6-0.3c0.2-0.2,0.3-0.4,0.3-0.6c0-0.9-0.1-1.9-0.3-2.9h6.1c0.2,0,0.5-0.1,0.6-0.3c0.2-0.2,0.3-0.4,0.3-0.6
						c0-3.4-1.1-6.4-3.2-8.6c-1.2-1.3-2.8-2.3-4.5-2.8c2.6-1.2,4.3-3.9,4.3-6.8c0-4.2-3.4-7.5-7.5-7.5c-2.7,0-5.2,1.4-6.5,3.8
						l-0.1,0c-0.1,0-0.3,0-0.4,0c-1.3-2.4-3.8-3.8-6.6-3.8c-4.2,0-7.5,3.4-7.5,7.5c0,2.9,1.7,5.6,4.3,6.8c-1.7,0.5-3.3,1.5-4.5,2.8
						c-2,2.2-3.2,5.2-3.2,8.6c0,0.2,0.1,0.5,0.3,0.6C32.7,48.9,33,48.9,33.2,48.9z M41.1,50.9c0.2-2.6,1.1-4.8,2.6-6.5
						c1.7-1.8,3.9-2.8,6.4-2.8c2.5,0,4.7,1,6.4,2.8c1.5,1.7,2.5,3.9,2.6,6.4H41.1z M63.2,40.7c1.5,1.7,2.5,3.9,2.6,6.5h-5.6
						c-0.5-1.5-1.3-2.8-2.4-3.9c-1.2-1.3-2.8-2.3-4.5-2.8c1.1-0.5,2.1-1.4,2.9-2.4l0.1,0c0.1,0,0.3,0,0.4,0
						C59.3,37.9,61.5,38.9,63.2,40.7z M52.8,25.7c1.1-1.1,2.5-1.7,4-1.7c1.5,0,3,0.6,4,1.7c1.1,1.1,1.7,2.5,1.7,4c0,1.5-0.6,3-1.7,4
						c-0.9,0.9-2.1,1.5-3.4,1.6c0.2-0.6,0.2-1.3,0.2-1.9c0-3.4-2.2-6.3-5.4-7.2C52.4,26.1,52.6,25.9,52.8,25.7z M50.1,27.8
						c1.5,0,3,0.6,4,1.7c1.1,1.1,1.7,2.5,1.7,4c0,1.5-0.6,3-1.7,4c-1.1,1.1-2.5,1.7-4,1.7c-1.5,0-3-0.6-4-1.7
						c-1.1-1.1-1.7-2.5-1.7-4c0-1.5,0.6-3,1.7-4C47.2,28.4,48.6,27.8,50.1,27.8z M39.1,33.8c-1.1-1.1-1.7-2.5-1.7-4
						c0-1.5,0.6-3,1.7-4s2.5-1.7,4-1.7c1.5,0,3,0.6,4,1.7c0.2,0.2,0.4,0.4,0.6,0.7c-3.1,1-5.2,3.9-5.2,7.2c0,0.6,0.1,1.3,0.3,1.9
						C41.4,35.4,40.1,34.8,39.1,33.8z M36.8,40.7c1.7-1.8,3.9-2.8,6.4-2.8c0.3,0,0.5,0,0.8,0c0.8,1,1.7,1.9,2.9,2.4
						c-1.7,0.5-3.3,1.5-4.5,2.8c-1,1.1-1.8,2.4-2.4,3.9h-5.9C34.3,44.6,35.3,42.3,36.8,40.7z"/>
				</g>
				<g>
					<path fill="#534C63" d="M19.9,67.3v1.6h1.7v10.7h2.2v-14h-1.5C22,66.5,21.7,67.3,19.9,67.3z"/>
					<polygon fill="#534C63" points="26.5,79.5 27.3,79.5 26.8,81.5 27.7,81.5 28.6,79.3 28.6,77.4 26.5,77.4 					"/>
					<path fill="#534C63" d="M33.4,65.4c-2.2,0-3.3,1.3-3.3,3.5v7.3c0,2.2,1.2,3.5,3.3,3.5c2.2,0,3.3-1.3,3.3-3.5v-7.3
						C36.7,66.6,35.6,65.4,33.4,65.4z M34.5,76.3c0,1-0.4,1.4-1.1,1.4s-1.1-0.4-1.1-1.4v-7.6c0-1,0.4-1.4,1.1-1.4s1.1,0.4,1.1,1.4
						V76.3z"/>
					<path fill="#534C63" d="M41.3,65.4c-2.2,0-3.3,1.3-3.3,3.5v7.3c0,2.2,1.2,3.5,3.3,3.5c2.2,0,3.3-1.3,3.3-3.5v-7.3
						C44.7,66.6,43.5,65.4,41.3,65.4z M42.4,76.3c0,1-0.4,1.4-1.1,1.4s-1.1-0.4-1.1-1.4v-7.6c0-1,0.4-1.4,1.1-1.4s1.1,0.4,1.1,1.4
						V76.3z"/>
					<path fill="#534C63" d="M49.2,65.4c-2.2,0-3.3,1.3-3.3,3.5v7.3c0,2.2,1.2,3.5,3.3,3.5c2.2,0,3.3-1.3,3.3-3.5v-7.3
						C52.6,66.6,51.4,65.4,49.2,65.4z M50.4,76.3c0,1-0.4,1.4-1.1,1.4s-1.1-0.4-1.1-1.4v-7.6c0-1,0.4-1.4,1.1-1.4s1.1,0.4,1.1,1.4
						V76.3z"/>
					<polygon fill="#534C63" points="54,79.5 54.8,79.5 54.2,81.5 55.1,81.5 56.1,79.3 56.1,77.4 54,77.4 					"/>
					<path fill="#534C63" d="M60.9,65.4c-2.2,0-3.3,1.3-3.3,3.5v7.3c0,2.2,1.2,3.5,3.3,3.5c2.2,0,3.3-1.3,3.3-3.5v-7.3
						C64.2,66.6,63,65.4,60.9,65.4z M62,76.3c0,1-0.4,1.4-1.1,1.4s-1.1-0.4-1.1-1.4v-7.6c0-1,0.4-1.4,1.1-1.4s1.1,0.4,1.1,1.4V76.3z
						"/>
					<path fill="#534C63" d="M68.8,65.4c-2.2,0-3.3,1.3-3.3,3.5v7.3c0,2.2,1.2,3.5,3.3,3.5c2.2,0,3.3-1.3,3.3-3.5v-7.3
						C72.1,66.6,70.9,65.4,68.8,65.4z M69.9,76.3c0,1-0.4,1.4-1.1,1.4s-1.1-0.4-1.1-1.4v-7.6c0-1,0.4-1.4,1.1-1.4s1.1,0.4,1.1,1.4
						V76.3z"/>
					<path fill="#534C63" d="M76.7,65.4c-2.2,0-3.3,1.3-3.3,3.5v7.3c0,2.2,1.2,3.5,3.3,3.5c2.2,0,3.3-1.3,3.3-3.5v-7.3
						C80.1,66.6,78.9,65.4,76.7,65.4z M77.8,76.3c0,1-0.4,1.4-1.1,1.4s-1.1-0.4-1.1-1.4v-7.6c0-1,0.4-1.4,1.1-1.4s1.1,0.4,1.1,1.4
						V76.3z"/>
				</g>
			</g>
		</g>
	</g>
</g>
<g id="ICONS_-_SKRILL_TEAL" display="none">
	<g display="inline">
		<g>
			<g>
				<g>
					<path fill="#41AEB5" d="M33.2,48.9h6.3c-0.2,1-0.3,1.9-0.3,2.9c0,0.2,0.1,0.5,0.3,0.6c0.2,0.2,0.4,0.3,0.6,0.3h19.9
						c0.2,0,0.5-0.1,0.6-0.3c0.2-0.2,0.3-0.4,0.3-0.6c0-0.9-0.1-1.9-0.3-2.9h6.1c0.2,0,0.5-0.1,0.6-0.3c0.2-0.2,0.3-0.4,0.3-0.6
						c0-3.4-1.1-6.4-3.2-8.6c-1.2-1.3-2.8-2.3-4.5-2.8c2.6-1.2,4.3-3.9,4.3-6.8c0-4.2-3.4-7.5-7.5-7.5c-2.7,0-5.2,1.4-6.5,3.8
						l-0.1,0c-0.1,0-0.3,0-0.4,0c-1.3-2.4-3.8-3.8-6.6-3.8c-4.2,0-7.5,3.4-7.5,7.5c0,2.9,1.7,5.6,4.3,6.8c-1.7,0.5-3.3,1.5-4.5,2.8
						c-2,2.2-3.2,5.2-3.2,8.6c0,0.2,0.1,0.5,0.3,0.6C32.7,48.9,33,48.9,33.2,48.9z M41.1,50.9c0.2-2.6,1.1-4.8,2.6-6.5
						c1.7-1.8,3.9-2.8,6.4-2.8c2.5,0,4.7,1,6.4,2.8c1.5,1.7,2.5,3.9,2.6,6.4H41.1z M63.2,40.7c1.5,1.7,2.5,3.9,2.6,6.5h-5.6
						c-0.5-1.5-1.3-2.8-2.4-3.9c-1.2-1.3-2.8-2.3-4.5-2.8c1.1-0.5,2.1-1.4,2.9-2.4l0.1,0c0.1,0,0.3,0,0.4,0
						C59.3,37.9,61.5,38.9,63.2,40.7z M52.8,25.7c1.1-1.1,2.5-1.7,4-1.7c1.5,0,3,0.6,4,1.7c1.1,1.1,1.7,2.5,1.7,4c0,1.5-0.6,3-1.7,4
						c-0.9,0.9-2.1,1.5-3.4,1.6c0.2-0.6,0.2-1.3,0.2-1.9c0-3.4-2.2-6.3-5.4-7.2C52.4,26.1,52.6,25.9,52.8,25.7z M50.1,27.8
						c1.5,0,3,0.6,4,1.7c1.1,1.1,1.7,2.5,1.7,4c0,1.5-0.6,3-1.7,4c-1.1,1.1-2.5,1.7-4,1.7c-1.5,0-3-0.6-4-1.7
						c-1.1-1.1-1.7-2.5-1.7-4c0-1.5,0.6-3,1.7-4C47.2,28.4,48.6,27.8,50.1,27.8z M39.1,33.8c-1.1-1.1-1.7-2.5-1.7-4
						c0-1.5,0.6-3,1.7-4s2.5-1.7,4-1.7c1.5,0,3,0.6,4,1.7c0.2,0.2,0.4,0.4,0.6,0.7c-3.1,1-5.2,3.9-5.2,7.2c0,0.6,0.1,1.3,0.3,1.9
						C41.4,35.4,40.1,34.8,39.1,33.8z M36.8,40.7c1.7-1.8,3.9-2.8,6.4-2.8c0.3,0,0.5,0,0.8,0c0.8,1,1.7,1.9,2.9,2.4
						c-1.7,0.5-3.3,1.5-4.5,2.8c-1,1.1-1.8,2.4-2.4,3.9h-5.9C34.3,44.6,35.3,42.3,36.8,40.7z"/>
				</g>
				<g>
					<path fill="#41AEB5" d="M19.9,67.3v1.6h1.7v10.7h2.2v-14h-1.5C22,66.5,21.7,67.3,19.9,67.3z"/>
					<polygon fill="#41AEB5" points="26.5,79.5 27.3,79.5 26.8,81.5 27.7,81.5 28.6,79.3 28.6,77.4 26.5,77.4 					"/>
					<path fill="#41AEB5" d="M33.4,65.4c-2.2,0-3.3,1.3-3.3,3.5v7.3c0,2.2,1.2,3.5,3.3,3.5c2.2,0,3.3-1.3,3.3-3.5v-7.3
						C36.7,66.6,35.6,65.4,33.4,65.4z M34.5,76.3c0,1-0.4,1.4-1.1,1.4s-1.1-0.4-1.1-1.4v-7.6c0-1,0.4-1.4,1.1-1.4s1.1,0.4,1.1,1.4
						V76.3z"/>
					<path fill="#41AEB5" d="M41.3,65.4c-2.2,0-3.3,1.3-3.3,3.5v7.3c0,2.2,1.2,3.5,3.3,3.5c2.2,0,3.3-1.3,3.3-3.5v-7.3
						C44.7,66.6,43.5,65.4,41.3,65.4z M42.4,76.3c0,1-0.4,1.4-1.1,1.4s-1.1-0.4-1.1-1.4v-7.6c0-1,0.4-1.4,1.1-1.4s1.1,0.4,1.1,1.4
						V76.3z"/>
					<path fill="#41AEB5" d="M49.2,65.4c-2.2,0-3.3,1.3-3.3,3.5v7.3c0,2.2,1.2,3.5,3.3,3.5c2.2,0,3.3-1.3,3.3-3.5v-7.3
						C52.6,66.6,51.4,65.4,49.2,65.4z M50.4,76.3c0,1-0.4,1.4-1.1,1.4s-1.1-0.4-1.1-1.4v-7.6c0-1,0.4-1.4,1.1-1.4s1.1,0.4,1.1,1.4
						V76.3z"/>
					<polygon fill="#41AEB5" points="54,79.5 54.8,79.5 54.2,81.5 55.1,81.5 56.1,79.3 56.1,77.4 54,77.4 					"/>
					<path fill="#41AEB5" d="M60.9,65.4c-2.2,0-3.3,1.3-3.3,3.5v7.3c0,2.2,1.2,3.5,3.3,3.5c2.2,0,3.3-1.3,3.3-3.5v-7.3
						C64.2,66.6,63,65.4,60.9,65.4z M62,76.3c0,1-0.4,1.4-1.1,1.4s-1.1-0.4-1.1-1.4v-7.6c0-1,0.4-1.4,1.1-1.4s1.1,0.4,1.1,1.4V76.3z
						"/>
					<path fill="#41AEB5" d="M68.8,65.4c-2.2,0-3.3,1.3-3.3,3.5v7.3c0,2.2,1.2,3.5,3.3,3.5c2.2,0,3.3-1.3,3.3-3.5v-7.3
						C72.1,66.6,70.9,65.4,68.8,65.4z M69.9,76.3c0,1-0.4,1.4-1.1,1.4s-1.1-0.4-1.1-1.4v-7.6c0-1,0.4-1.4,1.1-1.4s1.1,0.4,1.1,1.4
						V76.3z"/>
					<path fill="#41AEB5" d="M76.7,65.4c-2.2,0-3.3,1.3-3.3,3.5v7.3c0,2.2,1.2,3.5,3.3,3.5c2.2,0,3.3-1.3,3.3-3.5v-7.3
						C80.1,66.6,78.9,65.4,76.7,65.4z M77.8,76.3c0,1-0.4,1.4-1.1,1.4s-1.1-0.4-1.1-1.4v-7.6c0-1,0.4-1.4,1.1-1.4s1.1,0.4,1.1,1.4
						V76.3z"/>
				</g>
			</g>
		</g>
	</g>
</g>
<g id="ICONS_-_SKRILL_PURPLE">
	<g>
		<g>
			<g>
				<g>
					<path fill="#811E68" d="M33.2,48.9h6.3c-0.2,1-0.3,1.9-0.3,2.9c0,0.2,0.1,0.5,0.3,0.6c0.2,0.2,0.4,0.3,0.6,0.3h19.9
						c0.2,0,0.5-0.1,0.6-0.3c0.2-0.2,0.3-0.4,0.3-0.6c0-0.9-0.1-1.9-0.3-2.9h6.1c0.2,0,0.5-0.1,0.6-0.3c0.2-0.2,0.3-0.4,0.3-0.6
						c0-3.4-1.1-6.4-3.2-8.6c-1.2-1.3-2.8-2.3-4.5-2.8c2.6-1.2,4.3-3.9,4.3-6.8c0-4.2-3.4-7.5-7.5-7.5c-2.7,0-5.2,1.4-6.5,3.8
						l-0.1,0c-0.1,0-0.3,0-0.4,0c-1.3-2.4-3.8-3.8-6.6-3.8c-4.2,0-7.5,3.4-7.5,7.5c0,2.9,1.7,5.6,4.3,6.8c-1.7,0.5-3.3,1.5-4.5,2.8
						c-2,2.2-3.2,5.2-3.2,8.6c0,0.2,0.1,0.5,0.3,0.6C32.7,48.9,33,48.9,33.2,48.9z M41.1,50.9c0.2-2.6,1.1-4.8,2.6-6.5
						c1.7-1.8,3.9-2.8,6.4-2.8c2.5,0,4.7,1,6.4,2.8c1.5,1.7,2.5,3.9,2.6,6.4H41.1z M63.2,40.7c1.5,1.7,2.5,3.9,2.6,6.5h-5.6
						c-0.5-1.5-1.3-2.8-2.4-3.9c-1.2-1.3-2.8-2.3-4.5-2.8c1.1-0.5,2.1-1.4,2.9-2.4l0.1,0c0.1,0,0.3,0,0.4,0
						C59.3,37.9,61.5,38.9,63.2,40.7z M52.8,25.7c1.1-1.1,2.5-1.7,4-1.7c1.5,0,3,0.6,4,1.7c1.1,1.1,1.7,2.5,1.7,4c0,1.5-0.6,3-1.7,4
						c-0.9,0.9-2.1,1.5-3.4,1.6c0.2-0.6,0.2-1.3,0.2-1.9c0-3.4-2.2-6.3-5.4-7.2C52.4,26.1,52.6,25.9,52.8,25.7z M50.1,27.8
						c1.5,0,3,0.6,4,1.7c1.1,1.1,1.7,2.5,1.7,4c0,1.5-0.6,3-1.7,4c-1.1,1.1-2.5,1.7-4,1.7c-1.5,0-3-0.6-4-1.7
						c-1.1-1.1-1.7-2.5-1.7-4c0-1.5,0.6-3,1.7-4C47.2,28.4,48.6,27.8,50.1,27.8z M39.1,33.8c-1.1-1.1-1.7-2.5-1.7-4
						c0-1.5,0.6-3,1.7-4s2.5-1.7,4-1.7c1.5,0,3,0.6,4,1.7c0.2,0.2,0.4,0.4,0.6,0.7c-3.1,1-5.2,3.9-5.2,7.2c0,0.6,0.1,1.3,0.3,1.9
						C41.4,35.4,40.1,34.8,39.1,33.8z M36.8,40.7c1.7-1.8,3.9-2.8,6.4-2.8c0.3,0,0.5,0,0.8,0c0.8,1,1.7,1.9,2.9,2.4
						c-1.7,0.5-3.3,1.5-4.5,2.8c-1,1.1-1.8,2.4-2.4,3.9h-5.9C34.3,44.6,35.3,42.3,36.8,40.7z"/>
				</g>
				<g>
					<path fill="#811E68" d="M19.9,67.3v1.6h1.7v10.7h2.2v-14h-1.5C22,66.5,21.7,67.3,19.9,67.3z"/>
					<polygon fill="#811E68" points="26.5,79.5 27.3,79.5 26.8,81.5 27.7,81.5 28.6,79.3 28.6,77.4 26.5,77.4 					"/>
					<path fill="#811E68" d="M33.4,65.4c-2.2,0-3.3,1.3-3.3,3.5v7.3c0,2.2,1.2,3.5,3.3,3.5c2.2,0,3.3-1.3,3.3-3.5v-7.3
						C36.7,66.6,35.6,65.4,33.4,65.4z M34.5,76.3c0,1-0.4,1.4-1.1,1.4s-1.1-0.4-1.1-1.4v-7.6c0-1,0.4-1.4,1.1-1.4s1.1,0.4,1.1,1.4
						V76.3z"/>
					<path fill="#811E68" d="M41.3,65.4c-2.2,0-3.3,1.3-3.3,3.5v7.3c0,2.2,1.2,3.5,3.3,3.5c2.2,0,3.3-1.3,3.3-3.5v-7.3
						C44.7,66.6,43.5,65.4,41.3,65.4z M42.4,76.3c0,1-0.4,1.4-1.1,1.4s-1.1-0.4-1.1-1.4v-7.6c0-1,0.4-1.4,1.1-1.4s1.1,0.4,1.1,1.4
						V76.3z"/>
					<path fill="#811E68" d="M49.2,65.4c-2.2,0-3.3,1.3-3.3,3.5v7.3c0,2.2,1.2,3.5,3.3,3.5c2.2,0,3.3-1.3,3.3-3.5v-7.3
						C52.6,66.6,51.4,65.4,49.2,65.4z M50.4,76.3c0,1-0.4,1.4-1.1,1.4s-1.1-0.4-1.1-1.4v-7.6c0-1,0.4-1.4,1.1-1.4s1.1,0.4,1.1,1.4
						V76.3z"/>
					<polygon fill="#811E68" points="54,79.5 54.8,79.5 54.2,81.5 55.1,81.5 56.1,79.3 56.1,77.4 54,77.4 					"/>
					<path fill="#811E68" d="M60.9,65.4c-2.2,0-3.3,1.3-3.3,3.5v7.3c0,2.2,1.2,3.5,3.3,3.5c2.2,0,3.3-1.3,3.3-3.5v-7.3
						C64.2,66.6,63,65.4,60.9,65.4z M62,76.3c0,1-0.4,1.4-1.1,1.4s-1.1-0.4-1.1-1.4v-7.6c0-1,0.4-1.4,1.1-1.4s1.1,0.4,1.1,1.4V76.3z
						"/>
					<path fill="#811E68" d="M68.8,65.4c-2.2,0-3.3,1.3-3.3,3.5v7.3c0,2.2,1.2,3.5,3.3,3.5c2.2,0,3.3-1.3,3.3-3.5v-7.3
						C72.1,66.6,70.9,65.4,68.8,65.4z M69.9,76.3c0,1-0.4,1.4-1.1,1.4s-1.1-0.4-1.1-1.4v-7.6c0-1,0.4-1.4,1.1-1.4s1.1,0.4,1.1,1.4
						V76.3z"/>
					<path fill="#811E68" d="M76.7,65.4c-2.2,0-3.3,1.3-3.3,3.5v7.3c0,2.2,1.2,3.5,3.3,3.5c2.2,0,3.3-1.3,3.3-3.5v-7.3
						C80.1,66.6,78.9,65.4,76.7,65.4z M77.8,76.3c0,1-0.4,1.4-1.1,1.4s-1.1-0.4-1.1-1.4v-7.6c0-1,0.4-1.4,1.1-1.4s1.1,0.4,1.1,1.4
						V76.3z"/>
				</g>
			</g>
		</g>
	</g>
</g>
<g id="ICONS_-_WHITE" display="none">
	<g display="inline">
		<g>
			<g>
				<g>
					<path fill="#FFFFFF" d="M33.2,48.9h6.3c-0.2,1-0.3,1.9-0.3,2.9c0,0.2,0.1,0.5,0.3,0.6c0.2,0.2,0.4,0.3,0.6,0.3h19.9
						c0.2,0,0.5-0.1,0.6-0.3c0.2-0.2,0.3-0.4,0.3-0.6c0-0.9-0.1-1.9-0.3-2.9h6.1c0.2,0,0.5-0.1,0.6-0.3c0.2-0.2,0.3-0.4,0.3-0.6
						c0-3.4-1.1-6.4-3.2-8.6c-1.2-1.3-2.8-2.3-4.5-2.8c2.6-1.2,4.3-3.9,4.3-6.8c0-4.2-3.4-7.5-7.5-7.5c-2.7,0-5.2,1.4-6.5,3.8
						l-0.1,0c-0.1,0-0.3,0-0.4,0c-1.3-2.4-3.8-3.8-6.6-3.8c-4.2,0-7.5,3.4-7.5,7.5c0,2.9,1.7,5.6,4.3,6.8c-1.7,0.5-3.3,1.5-4.5,2.8
						c-2,2.2-3.2,5.2-3.2,8.6c0,0.2,0.1,0.5,0.3,0.6C32.7,48.9,33,48.9,33.2,48.9z M41.1,50.9c0.2-2.6,1.1-4.8,2.6-6.5
						c1.7-1.8,3.9-2.8,6.4-2.8c2.5,0,4.7,1,6.4,2.8c1.5,1.7,2.5,3.9,2.6,6.4H41.1z M63.2,40.7c1.5,1.7,2.5,3.9,2.6,6.5h-5.6
						c-0.5-1.5-1.3-2.8-2.4-3.9c-1.2-1.3-2.8-2.3-4.5-2.8c1.1-0.5,2.1-1.4,2.9-2.4l0.1,0c0.1,0,0.3,0,0.4,0
						C59.3,37.9,61.5,38.9,63.2,40.7z M52.8,25.7c1.1-1.1,2.5-1.7,4-1.7c1.5,0,3,0.6,4,1.7c1.1,1.1,1.7,2.5,1.7,4c0,1.5-0.6,3-1.7,4
						c-0.9,0.9-2.1,1.5-3.4,1.6c0.2-0.6,0.2-1.3,0.2-1.9c0-3.4-2.2-6.3-5.4-7.2C52.4,26.1,52.6,25.9,52.8,25.7z M50.1,27.8
						c1.5,0,3,0.6,4,1.7c1.1,1.1,1.7,2.5,1.7,4c0,1.5-0.6,3-1.7,4c-1.1,1.1-2.5,1.7-4,1.7c-1.5,0-3-0.6-4-1.7
						c-1.1-1.1-1.7-2.5-1.7-4c0-1.5,0.6-3,1.7-4C47.2,28.4,48.6,27.8,50.1,27.8z M39.1,33.8c-1.1-1.1-1.7-2.5-1.7-4
						c0-1.5,0.6-3,1.7-4s2.5-1.7,4-1.7c1.5,0,3,0.6,4,1.7c0.2,0.2,0.4,0.4,0.6,0.7c-3.1,1-5.2,3.9-5.2,7.2c0,0.6,0.1,1.3,0.3,1.9
						C41.4,35.4,40.1,34.8,39.1,33.8z M36.8,40.7c1.7-1.8,3.9-2.8,6.4-2.8c0.3,0,0.5,0,0.8,0c0.8,1,1.7,1.9,2.9,2.4
						c-1.7,0.5-3.3,1.5-4.5,2.8c-1,1.1-1.8,2.4-2.4,3.9h-5.9C34.3,44.6,35.3,42.3,36.8,40.7z"/>
				</g>
				<g>
					<path fill="#FFFFFF" d="M19.9,67.3v1.6h1.7v10.7h2.2v-14h-1.5C22,66.5,21.7,67.3,19.9,67.3z"/>
					<polygon fill="#FFFFFF" points="26.5,79.5 27.3,79.5 26.8,81.5 27.7,81.5 28.6,79.3 28.6,77.4 26.5,77.4 					"/>
					<path fill="#FFFFFF" d="M33.4,65.4c-2.2,0-3.3,1.3-3.3,3.5v7.3c0,2.2,1.2,3.5,3.3,3.5c2.2,0,3.3-1.3,3.3-3.5v-7.3
						C36.7,66.6,35.6,65.4,33.4,65.4z M34.5,76.3c0,1-0.4,1.4-1.1,1.4s-1.1-0.4-1.1-1.4v-7.6c0-1,0.4-1.4,1.1-1.4s1.1,0.4,1.1,1.4
						V76.3z"/>
					<path fill="#FFFFFF" d="M41.3,65.4c-2.2,0-3.3,1.3-3.3,3.5v7.3c0,2.2,1.2,3.5,3.3,3.5c2.2,0,3.3-1.3,3.3-3.5v-7.3
						C44.7,66.6,43.5,65.4,41.3,65.4z M42.4,76.3c0,1-0.4,1.4-1.1,1.4s-1.1-0.4-1.1-1.4v-7.6c0-1,0.4-1.4,1.1-1.4s1.1,0.4,1.1,1.4
						V76.3z"/>
					<path fill="#FFFFFF" d="M49.2,65.4c-2.2,0-3.3,1.3-3.3,3.5v7.3c0,2.2,1.2,3.5,3.3,3.5c2.2,0,3.3-1.3,3.3-3.5v-7.3
						C52.6,66.6,51.4,65.4,49.2,65.4z M50.4,76.3c0,1-0.4,1.4-1.1,1.4s-1.1-0.4-1.1-1.4v-7.6c0-1,0.4-1.4,1.1-1.4s1.1,0.4,1.1,1.4
						V76.3z"/>
					<polygon fill="#FFFFFF" points="54,79.5 54.8,79.5 54.2,81.5 55.1,81.5 56.1,79.3 56.1,77.4 54,77.4 					"/>
					<path fill="#FFFFFF" d="M60.9,65.4c-2.2,0-3.3,1.3-3.3,3.5v7.3c0,2.2,1.2,3.5,3.3,3.5c2.2,0,3.3-1.3,3.3-3.5v-7.3
						C64.2,66.6,63,65.4,60.9,65.4z M62,76.3c0,1-0.4,1.4-1.1,1.4s-1.1-0.4-1.1-1.4v-7.6c0-1,0.4-1.4,1.1-1.4s1.1,0.4,1.1,1.4V76.3z
						"/>
					<path fill="#FFFFFF" d="M68.8,65.4c-2.2,0-3.3,1.3-3.3,3.5v7.3c0,2.2,1.2,3.5,3.3,3.5c2.2,0,3.3-1.3,3.3-3.5v-7.3
						C72.1,66.6,70.9,65.4,68.8,65.4z M69.9,76.3c0,1-0.4,1.4-1.1,1.4s-1.1-0.4-1.1-1.4v-7.6c0-1,0.4-1.4,1.1-1.4s1.1,0.4,1.1,1.4
						V76.3z"/>
					<path fill="#FFFFFF" d="M76.7,65.4c-2.2,0-3.3,1.3-3.3,3.5v7.3c0,2.2,1.2,3.5,3.3,3.5c2.2,0,3.3-1.3,3.3-3.5v-7.3
						C80.1,66.6,78.9,65.4,76.7,65.4z M77.8,76.3c0,1-0.4,1.4-1.1,1.4s-1.1-0.4-1.1-1.4v-7.6c0-1,0.4-1.4,1.1-1.4s1.1,0.4,1.1,1.4
						V76.3z"/>
				</g>
			</g>
		</g>
	</g>
</g>
<g id="LABELS">
</g>
</svg>
