<?xml version="1.0" encoding="utf-8"?>
<!-- Generator: Adobe Illustrator 18.1.1, SVG Export Plug-In . SVG Version: 6.00 Build 0)  -->
<svg version="1.1" xmlns="http://www.w3.org/2000/svg" xmlns:xlink="http://www.w3.org/1999/xlink" x="0px" y="0px"
	 viewBox="0 0 100 100" enable-background="new 0 0 100 100" xml:space="preserve">
<g id="GUIDES">
</g>
<g id="ICONS_-_BLACK" display="none">
	<g display="inline">
		<g>
			<path d="M69.3,39.7V29.2C69.3,18.6,60.6,10,50,10c-10.6,0-19.3,8.6-19.3,19.2l0,10.4c-6.3,5.5-9.9,13.5-9.9,21.8
				c0,16,13.1,29.1,29.1,29.1c16,0,29.1-13,29.1-29.1C79.1,53.1,75.5,45.2,69.3,39.7z M38.1,17.4c3.2-3.2,7.4-4.9,11.9-4.9
				c4.5,0,8.7,1.7,11.9,4.9c3.2,3.2,4.9,7.4,4.9,11.9v8.4c-4.9-3.5-10.7-5.3-16.8-5.3c-6.1,0-11.9,1.8-16.8,5.3l0-8.4
				C33.2,24.8,35,20.6,38.1,17.4z M68.8,80.2c-5,5-11.7,7.8-18.8,7.8c-7.1,0-13.8-2.8-18.8-7.8c-5-5-7.8-11.7-7.8-18.8
				c0-7.1,2.8-13.8,7.8-18.8c5-5,11.7-7.8,18.8-7.8c7.1,0,13.8,2.8,18.8,7.8c5,5,7.8,11.7,7.8,18.8S73.9,75.2,68.8,80.2z"/>
			<path d="M59.3,44.7c-2.1-1.1-4.5-1.6-7.1-1.6c-3,0-6.1,0.7-9,2.1c-2.9,1.4-5.3,3.4-6.9,5.8c-2.2,3.2-3.4,7.1-3.4,11.2
				c0,5.7,2.2,11,5.7,13.9c3.3,2.7,7.6,3.3,10.6,3.3h0c3.5,0,6.9-0.8,9.1-2.1c0.6-0.4,0.8-1.1,0.4-1.7c-0.2-0.4-0.6-0.6-1.1-0.6
				c-0.2,0-0.4,0.1-0.6,0.2c-1.4,0.9-4.3,1.7-7.8,1.7c-3.6,0-6.9-1-8.9-2.7c-2.9-2.3-4.8-7.2-4.8-12c0-3.6,1-7,2.9-9.8
				c1.4-2,3.5-3.7,6-5c2.5-1.2,5.3-1.9,7.9-1.9c2.2,0,4.2,0.5,5.9,1.3c1.8,1,3.3,2.4,4.3,4.2c1.4,2.5,2,5,2,7.5c0,2.6-0.8,5.1-2.1,7
				c-1.2,1.6-2.8,2.7-4.2,2.8c-0.1,0-0.1,0-0.2,0c-0.3,0-0.5,0-0.7-0.1c-0.2-0.1-0.4-0.3-0.5-0.7c-0.2-0.4-0.2-1.1-0.2-1.9
				c0-2.6,0.9-6.5,1.9-10.4l0.3-1.3c0.2-0.6-0.2-1.3-0.9-1.5c-1.5-0.4-3-0.7-4.4-0.7c-3.4,0-6.6,1.3-8.8,3.7
				c-2.1,2.3-3.3,5.4-3.3,8.8c0,1.8,0.6,3.4,1.7,4.5c1,1,2.4,1.6,4,1.6c2.5,0,5.1-1.3,7.1-3.7c0.1,0.9,0.3,1.7,0.7,2.3
				c0.3,0.5,0.8,1,1.3,1.2c0.5,0.3,1.1,0.4,1.8,0.4c0.1,0,0.3,0,0.4,0c2.2-0.2,4.3-1.5,6-3.8c1.7-2.3,2.6-5.3,2.6-8.4
				c0-2.9-0.8-5.9-2.4-8.7C63.4,47.7,61.6,45.9,59.3,44.7z M56,55.3c-0.4,1.8-0.9,3.6-1.2,5.4c-0.1,0.1-0.1,0.2-0.1,0.3
				c-1.5,4.7-4.8,7.1-7.5,7.1c-0.9,0-1.7-0.3-2.3-0.9c-0.6-0.6-0.9-1.6-0.9-2.8c0-2.7,0.9-5.2,2.7-7.1c1.8-1.9,4.2-2.9,7-2.9
				c0.8,0,1.7,0.1,2.5,0.3L56,55.3z"/>
		</g>
	</g>
</g>
<g id="ICONS_-_DARK_PURPLE" display="none">
	<g display="inline">
		<g>
			<path fill="#4F2556" d="M69.3,39.7V29.2C69.3,18.6,60.6,10,50,10c-10.6,0-19.3,8.6-19.3,19.2l0,10.4c-6.3,5.5-9.9,13.5-9.9,21.8
				c0,16,13.1,29.1,29.1,29.1c16,0,29.1-13,29.1-29.1C79.1,53.1,75.5,45.2,69.3,39.7z M38.1,17.4c3.2-3.2,7.4-4.9,11.9-4.9
				c4.5,0,8.7,1.7,11.9,4.9c3.2,3.2,4.9,7.4,4.9,11.9v8.4c-4.9-3.5-10.7-5.3-16.8-5.3c-6.1,0-11.9,1.8-16.8,5.3l0-8.4
				C33.2,24.8,35,20.6,38.1,17.4z M68.8,80.2c-5,5-11.7,7.8-18.8,7.8c-7.1,0-13.8-2.8-18.8-7.8c-5-5-7.8-11.7-7.8-18.8
				c0-7.1,2.8-13.8,7.8-18.8c5-5,11.7-7.8,18.8-7.8c7.1,0,13.8,2.8,18.8,7.8c5,5,7.8,11.7,7.8,18.8S73.9,75.2,68.8,80.2z"/>
			<path fill="#4F2556" d="M59.3,44.7c-2.1-1.1-4.5-1.6-7.1-1.6c-3,0-6.1,0.7-9,2.1c-2.9,1.4-5.3,3.4-6.9,5.8
				c-2.2,3.2-3.4,7.1-3.4,11.2c0,5.7,2.2,11,5.7,13.9c3.3,2.7,7.6,3.3,10.6,3.3h0c3.5,0,6.9-0.8,9.1-2.1c0.6-0.4,0.8-1.1,0.4-1.7
				c-0.2-0.4-0.6-0.6-1.1-0.6c-0.2,0-0.4,0.1-0.6,0.2c-1.4,0.9-4.3,1.7-7.8,1.7c-3.6,0-6.9-1-8.9-2.7c-2.9-2.3-4.8-7.2-4.8-12
				c0-3.6,1-7,2.9-9.8c1.4-2,3.5-3.7,6-5c2.5-1.2,5.3-1.9,7.9-1.9c2.2,0,4.2,0.5,5.9,1.3c1.8,1,3.3,2.4,4.3,4.2c1.4,2.5,2,5,2,7.5
				c0,2.6-0.8,5.1-2.1,7c-1.2,1.6-2.8,2.7-4.2,2.8c-0.1,0-0.1,0-0.2,0c-0.3,0-0.5,0-0.7-0.1c-0.2-0.1-0.4-0.3-0.5-0.7
				c-0.2-0.4-0.2-1.1-0.2-1.9c0-2.6,0.9-6.5,1.9-10.4l0.3-1.3c0.2-0.6-0.2-1.3-0.9-1.5c-1.5-0.4-3-0.7-4.4-0.7
				c-3.4,0-6.6,1.3-8.8,3.7c-2.1,2.3-3.3,5.4-3.3,8.8c0,1.8,0.6,3.4,1.7,4.5c1,1,2.4,1.6,4,1.6c2.5,0,5.1-1.3,7.1-3.7
				c0.1,0.9,0.3,1.7,0.7,2.3c0.3,0.5,0.8,1,1.3,1.2c0.5,0.3,1.1,0.4,1.8,0.4c0.1,0,0.3,0,0.4,0c2.2-0.2,4.3-1.5,6-3.8
				c1.7-2.3,2.6-5.3,2.6-8.4c0-2.9-0.8-5.9-2.4-8.7C63.4,47.7,61.6,45.9,59.3,44.7z M56,55.3c-0.4,1.8-0.9,3.6-1.2,5.4
				c-0.1,0.1-0.1,0.2-0.1,0.3c-1.5,4.7-4.8,7.1-7.5,7.1c-0.9,0-1.7-0.3-2.3-0.9c-0.6-0.6-0.9-1.6-0.9-2.8c0-2.7,0.9-5.2,2.7-7.1
				c1.8-1.9,4.2-2.9,7-2.9c0.8,0,1.7,0.1,2.5,0.3L56,55.3z"/>
		</g>
	</g>
</g>
<g id="ICONS_-_WARM_GREY" display="none">
	<g display="inline">
		<g>
			<path fill="#534C63" d="M69.3,39.7V29.2C69.3,18.6,60.6,10,50,10c-10.6,0-19.3,8.6-19.3,19.2l0,10.4c-6.3,5.5-9.9,13.5-9.9,21.8
				c0,16,13.1,29.1,29.1,29.1c16,0,29.1-13,29.1-29.1C79.1,53.1,75.5,45.2,69.3,39.7z M38.1,17.4c3.2-3.2,7.4-4.9,11.9-4.9
				c4.5,0,8.7,1.7,11.9,4.9c3.2,3.2,4.9,7.4,4.9,11.9v8.4c-4.9-3.5-10.7-5.3-16.8-5.3c-6.1,0-11.9,1.8-16.8,5.3l0-8.4
				C33.2,24.8,35,20.6,38.1,17.4z M68.8,80.2c-5,5-11.7,7.8-18.8,7.8c-7.1,0-13.8-2.8-18.8-7.8c-5-5-7.8-11.7-7.8-18.8
				c0-7.1,2.8-13.8,7.8-18.8c5-5,11.7-7.8,18.8-7.8c7.1,0,13.8,2.8,18.8,7.8c5,5,7.8,11.7,7.8,18.8S73.9,75.2,68.8,80.2z"/>
			<path fill="#534C63" d="M59.3,44.7c-2.1-1.1-4.5-1.6-7.1-1.6c-3,0-6.1,0.7-9,2.1c-2.9,1.4-5.3,3.4-6.9,5.8
				c-2.2,3.2-3.4,7.1-3.4,11.2c0,5.7,2.2,11,5.7,13.9c3.3,2.7,7.6,3.3,10.6,3.3h0c3.5,0,6.9-0.8,9.1-2.1c0.6-0.4,0.8-1.1,0.4-1.7
				c-0.2-0.4-0.6-0.6-1.1-0.6c-0.2,0-0.4,0.1-0.6,0.2c-1.4,0.9-4.3,1.7-7.8,1.7c-3.6,0-6.9-1-8.9-2.7c-2.9-2.3-4.8-7.2-4.8-12
				c0-3.6,1-7,2.9-9.8c1.4-2,3.5-3.7,6-5c2.5-1.2,5.3-1.9,7.9-1.9c2.2,0,4.2,0.5,5.9,1.3c1.8,1,3.3,2.4,4.3,4.2c1.4,2.5,2,5,2,7.5
				c0,2.6-0.8,5.1-2.1,7c-1.2,1.6-2.8,2.7-4.2,2.8c-0.1,0-0.1,0-0.2,0c-0.3,0-0.5,0-0.7-0.1c-0.2-0.1-0.4-0.3-0.5-0.7
				c-0.2-0.4-0.2-1.1-0.2-1.9c0-2.6,0.9-6.5,1.9-10.4l0.3-1.3c0.2-0.6-0.2-1.3-0.9-1.5c-1.5-0.4-3-0.7-4.4-0.7
				c-3.4,0-6.6,1.3-8.8,3.7c-2.1,2.3-3.3,5.4-3.3,8.8c0,1.8,0.6,3.4,1.7,4.5c1,1,2.4,1.6,4,1.6c2.5,0,5.1-1.3,7.1-3.7
				c0.1,0.9,0.3,1.7,0.7,2.3c0.3,0.5,0.8,1,1.3,1.2c0.5,0.3,1.1,0.4,1.8,0.4c0.1,0,0.3,0,0.4,0c2.2-0.2,4.3-1.5,6-3.8
				c1.7-2.3,2.6-5.3,2.6-8.4c0-2.9-0.8-5.9-2.4-8.7C63.4,47.7,61.6,45.9,59.3,44.7z M56,55.3c-0.4,1.8-0.9,3.6-1.2,5.4
				c-0.1,0.1-0.1,0.2-0.1,0.3c-1.5,4.7-4.8,7.1-7.5,7.1c-0.9,0-1.7-0.3-2.3-0.9c-0.6-0.6-0.9-1.6-0.9-2.8c0-2.7,0.9-5.2,2.7-7.1
				c1.8-1.9,4.2-2.9,7-2.9c0.8,0,1.7,0.1,2.5,0.3L56,55.3z"/>
		</g>
	</g>
</g>
<g id="ICONS_-_SKRILL_TEAL" display="none">
	<g display="inline">
		<g>
			<path fill="#41AEB5" d="M69.3,39.7V29.2C69.3,18.6,60.6,10,50,10c-10.6,0-19.3,8.6-19.3,19.2l0,10.4c-6.3,5.5-9.9,13.5-9.9,21.8
				c0,16,13.1,29.1,29.1,29.1c16,0,29.1-13,29.1-29.1C79.1,53.1,75.5,45.2,69.3,39.7z M38.1,17.4c3.2-3.2,7.4-4.9,11.9-4.9
				c4.5,0,8.7,1.7,11.9,4.9c3.2,3.2,4.9,7.4,4.9,11.9v8.4c-4.9-3.5-10.7-5.3-16.8-5.3c-6.1,0-11.9,1.8-16.8,5.3l0-8.4
				C33.2,24.8,35,20.6,38.1,17.4z M68.8,80.2c-5,5-11.7,7.8-18.8,7.8c-7.1,0-13.8-2.8-18.8-7.8c-5-5-7.8-11.7-7.8-18.8
				c0-7.1,2.8-13.8,7.8-18.8c5-5,11.7-7.8,18.8-7.8c7.1,0,13.8,2.8,18.8,7.8c5,5,7.8,11.7,7.8,18.8S73.9,75.2,68.8,80.2z"/>
			<path fill="#41AEB5" d="M59.3,44.7c-2.1-1.1-4.5-1.6-7.1-1.6c-3,0-6.1,0.7-9,2.1c-2.9,1.4-5.3,3.4-6.9,5.8
				c-2.2,3.2-3.4,7.1-3.4,11.2c0,5.7,2.2,11,5.7,13.9c3.3,2.7,7.6,3.3,10.6,3.3h0c3.5,0,6.9-0.8,9.1-2.1c0.6-0.4,0.8-1.1,0.4-1.7
				c-0.2-0.4-0.6-0.6-1.1-0.6c-0.2,0-0.4,0.1-0.6,0.2c-1.4,0.9-4.3,1.7-7.8,1.7c-3.6,0-6.9-1-8.9-2.7c-2.9-2.3-4.8-7.2-4.8-12
				c0-3.6,1-7,2.9-9.8c1.4-2,3.5-3.7,6-5c2.5-1.2,5.3-1.9,7.9-1.9c2.2,0,4.2,0.5,5.9,1.3c1.8,1,3.3,2.4,4.3,4.2c1.4,2.5,2,5,2,7.5
				c0,2.6-0.8,5.1-2.1,7c-1.2,1.6-2.8,2.7-4.2,2.8c-0.1,0-0.1,0-0.2,0c-0.3,0-0.5,0-0.7-0.1c-0.2-0.1-0.4-0.3-0.5-0.7
				c-0.2-0.4-0.2-1.1-0.2-1.9c0-2.6,0.9-6.5,1.9-10.4l0.3-1.3c0.2-0.6-0.2-1.3-0.9-1.5c-1.5-0.4-3-0.7-4.4-0.7
				c-3.4,0-6.6,1.3-8.8,3.7c-2.1,2.3-3.3,5.4-3.3,8.8c0,1.8,0.6,3.4,1.7,4.5c1,1,2.4,1.6,4,1.6c2.5,0,5.1-1.3,7.1-3.7
				c0.1,0.9,0.3,1.7,0.7,2.3c0.3,0.5,0.8,1,1.3,1.2c0.5,0.3,1.1,0.4,1.8,0.4c0.1,0,0.3,0,0.4,0c2.2-0.2,4.3-1.5,6-3.8
				c1.7-2.3,2.6-5.3,2.6-8.4c0-2.9-0.8-5.9-2.4-8.7C63.4,47.7,61.6,45.9,59.3,44.7z M56,55.3c-0.4,1.8-0.9,3.6-1.2,5.4
				c-0.1,0.1-0.1,0.2-0.1,0.3c-1.5,4.7-4.8,7.1-7.5,7.1c-0.9,0-1.7-0.3-2.3-0.9c-0.6-0.6-0.9-1.6-0.9-2.8c0-2.7,0.9-5.2,2.7-7.1
				c1.8-1.9,4.2-2.9,7-2.9c0.8,0,1.7,0.1,2.5,0.3L56,55.3z"/>
		</g>
	</g>
</g>
<g id="ICONS_-_SKRILL_PURPLE">
	<g>
		<g>
			<path fill="#811E68" d="M69.3,39.7V29.2C69.3,18.6,60.6,10,50,10c-10.6,0-19.3,8.6-19.3,19.2l0,10.4c-6.3,5.5-9.9,13.5-9.9,21.8
				c0,16,13.1,29.1,29.1,29.1c16,0,29.1-13,29.1-29.1C79.1,53.1,75.5,45.2,69.3,39.7z M38.1,17.4c3.2-3.2,7.4-4.9,11.9-4.9
				c4.5,0,8.7,1.7,11.9,4.9c3.2,3.2,4.9,7.4,4.9,11.9v8.4c-4.9-3.5-10.7-5.3-16.8-5.3c-6.1,0-11.9,1.8-16.8,5.3l0-8.4
				C33.2,24.8,35,20.6,38.1,17.4z M68.8,80.2c-5,5-11.7,7.8-18.8,7.8c-7.1,0-13.8-2.8-18.8-7.8c-5-5-7.8-11.7-7.8-18.8
				c0-7.1,2.8-13.8,7.8-18.8c5-5,11.7-7.8,18.8-7.8c7.1,0,13.8,2.8,18.8,7.8c5,5,7.8,11.7,7.8,18.8S73.9,75.2,68.8,80.2z"/>
			<path fill="#811E68" d="M59.3,44.7c-2.1-1.1-4.5-1.6-7.1-1.6c-3,0-6.1,0.7-9,2.1c-2.9,1.4-5.3,3.4-6.9,5.8
				c-2.2,3.2-3.4,7.1-3.4,11.2c0,5.7,2.2,11,5.7,13.9c3.3,2.7,7.6,3.3,10.6,3.3h0c3.5,0,6.9-0.8,9.1-2.1c0.6-0.4,0.8-1.1,0.4-1.7
				c-0.2-0.4-0.6-0.6-1.1-0.6c-0.2,0-0.4,0.1-0.6,0.2c-1.4,0.9-4.3,1.7-7.8,1.7c-3.6,0-6.9-1-8.9-2.7c-2.9-2.3-4.8-7.2-4.8-12
				c0-3.6,1-7,2.9-9.8c1.4-2,3.5-3.7,6-5c2.5-1.2,5.3-1.9,7.9-1.9c2.2,0,4.2,0.5,5.9,1.3c1.8,1,3.3,2.4,4.3,4.2c1.4,2.5,2,5,2,7.5
				c0,2.6-0.8,5.1-2.1,7c-1.2,1.6-2.8,2.7-4.2,2.8c-0.1,0-0.1,0-0.2,0c-0.3,0-0.5,0-0.7-0.1c-0.2-0.1-0.4-0.3-0.5-0.7
				c-0.2-0.4-0.2-1.1-0.2-1.9c0-2.6,0.9-6.5,1.9-10.4l0.3-1.3c0.2-0.6-0.2-1.3-0.9-1.5c-1.5-0.4-3-0.7-4.4-0.7
				c-3.4,0-6.6,1.3-8.8,3.7c-2.1,2.3-3.3,5.4-3.3,8.8c0,1.8,0.6,3.4,1.7,4.5c1,1,2.4,1.6,4,1.6c2.5,0,5.1-1.3,7.1-3.7
				c0.1,0.9,0.3,1.7,0.7,2.3c0.3,0.5,0.8,1,1.3,1.2c0.5,0.3,1.1,0.4,1.8,0.4c0.1,0,0.3,0,0.4,0c2.2-0.2,4.3-1.5,6-3.8
				c1.7-2.3,2.6-5.3,2.6-8.4c0-2.9-0.8-5.9-2.4-8.7C63.4,47.7,61.6,45.9,59.3,44.7z M56,55.3c-0.4,1.8-0.9,3.6-1.2,5.4
				c-0.1,0.1-0.1,0.2-0.1,0.3c-1.5,4.7-4.8,7.1-7.5,7.1c-0.9,0-1.7-0.3-2.3-0.9c-0.6-0.6-0.9-1.6-0.9-2.8c0-2.7,0.9-5.2,2.7-7.1
				c1.8-1.9,4.2-2.9,7-2.9c0.8,0,1.7,0.1,2.5,0.3L56,55.3z"/>
		</g>
	</g>
</g>
<g id="ICONS_-_WHITE" display="none">
	<g display="inline">
		<g>
			<path fill="#FFFFFF" d="M69.3,39.7V29.2C69.3,18.6,60.6,10,50,10c-10.6,0-19.3,8.6-19.3,19.2l0,10.4c-6.3,5.5-9.9,13.5-9.9,21.8
				c0,16,13.1,29.1,29.1,29.1c16,0,29.1-13,29.1-29.1C79.1,53.1,75.5,45.2,69.3,39.7z M38.1,17.4c3.2-3.2,7.4-4.9,11.9-4.9
				c4.5,0,8.7,1.7,11.9,4.9c3.2,3.2,4.9,7.4,4.9,11.9v8.4c-4.9-3.5-10.7-5.3-16.8-5.3c-6.1,0-11.9,1.8-16.8,5.3l0-8.4
				C33.2,24.8,35,20.6,38.1,17.4z M68.8,80.2c-5,5-11.7,7.8-18.8,7.8c-7.1,0-13.8-2.8-18.8-7.8c-5-5-7.8-11.7-7.8-18.8
				c0-7.1,2.8-13.8,7.8-18.8c5-5,11.7-7.8,18.8-7.8c7.1,0,13.8,2.8,18.8,7.8c5,5,7.8,11.7,7.8,18.8S73.9,75.2,68.8,80.2z"/>
			<path fill="#FFFFFF" d="M59.3,44.7c-2.1-1.1-4.5-1.6-7.1-1.6c-3,0-6.1,0.7-9,2.1c-2.9,1.4-5.3,3.4-6.9,5.8
				c-2.2,3.2-3.4,7.1-3.4,11.2c0,5.7,2.2,11,5.7,13.9c3.3,2.7,7.6,3.3,10.6,3.3h0c3.5,0,6.9-0.8,9.1-2.1c0.6-0.4,0.8-1.1,0.4-1.7
				c-0.2-0.4-0.6-0.6-1.1-0.6c-0.2,0-0.4,0.1-0.6,0.2c-1.4,0.9-4.3,1.7-7.8,1.7c-3.6,0-6.9-1-8.9-2.7c-2.9-2.3-4.8-7.2-4.8-12
				c0-3.6,1-7,2.9-9.8c1.4-2,3.5-3.7,6-5c2.5-1.2,5.3-1.9,7.9-1.9c2.2,0,4.2,0.5,5.9,1.3c1.8,1,3.3,2.4,4.3,4.2c1.4,2.5,2,5,2,7.5
				c0,2.6-0.8,5.1-2.1,7c-1.2,1.6-2.8,2.7-4.2,2.8c-0.1,0-0.1,0-0.2,0c-0.3,0-0.5,0-0.7-0.1c-0.2-0.1-0.4-0.3-0.5-0.7
				c-0.2-0.4-0.2-1.1-0.2-1.9c0-2.6,0.9-6.5,1.9-10.4l0.3-1.3c0.2-0.6-0.2-1.3-0.9-1.5c-1.5-0.4-3-0.7-4.4-0.7
				c-3.4,0-6.6,1.3-8.8,3.7c-2.1,2.3-3.3,5.4-3.3,8.8c0,1.8,0.6,3.4,1.7,4.5c1,1,2.4,1.6,4,1.6c2.5,0,5.1-1.3,7.1-3.7
				c0.1,0.9,0.3,1.7,0.7,2.3c0.3,0.5,0.8,1,1.3,1.2c0.5,0.3,1.1,0.4,1.8,0.4c0.1,0,0.3,0,0.4,0c2.2-0.2,4.3-1.5,6-3.8
				c1.7-2.3,2.6-5.3,2.6-8.4c0-2.9-0.8-5.9-2.4-8.7C63.4,47.7,61.6,45.9,59.3,44.7z M56,55.3c-0.4,1.8-0.9,3.6-1.2,5.4
				c-0.1,0.1-0.1,0.2-0.1,0.3c-1.5,4.7-4.8,7.1-7.5,7.1c-0.9,0-1.7-0.3-2.3-0.9c-0.6-0.6-0.9-1.6-0.9-2.8c0-2.7,0.9-5.2,2.7-7.1
				c1.8-1.9,4.2-2.9,7-2.9c0.8,0,1.7,0.1,2.5,0.3L56,55.3z"/>
		</g>
	</g>
</g>
<g id="LABELS">
</g>
</svg>
