<?xml version="1.0" encoding="utf-8"?>
<!-- Generator: Adobe Illustrator 18.1.1, SVG Export Plug-In . SVG Version: 6.00 Build 0)  -->
<svg version="1.1" xmlns="http://www.w3.org/2000/svg" xmlns:xlink="http://www.w3.org/1999/xlink" x="0px" y="0px"
	 viewBox="0 0 100 100" enable-background="new 0 0 100 100" xml:space="preserve">
<g id="GUIDES">
</g>
<g id="ICONS_-_BLACK" display="none">
	<g display="inline">
		<g>
			<g>
				<path d="M54.4,55.7c0-0.2-0.1-0.3-0.2-0.5c-0.1-0.1-0.3-0.2-0.5-0.2c-0.2,0-0.3,0.1-0.5,0.2l-3.5,3.6l0-8.4
					c0-0.4-0.3-0.7-0.7-0.7c-0.4,0-0.7,0.3-0.7,0.7l0,8.4l-3.5-3.6c-0.1-0.1-0.3-0.2-0.5-0.2c-0.2,0-0.3,0.1-0.5,0.2
					c-0.1,0.1-0.2,0.3-0.2,0.5c0,0.2,0.1,0.3,0.2,0.5l4.7,4.7c0.1,0.1,0.3,0.2,0.5,0.2c0.2,0,0.3-0.1,0.5-0.2l4.7-4.7
					C54.4,56,54.4,55.9,54.4,55.7z"/>
				<path d="M55.3,72.4c-3.6,0.1-5.4,1.7-5.4,4.9v6.2h3.9v-5c0-1.9,0.3-2.8,2.5-2.8v-3.2C55.9,72.4,55.3,72.4,55.3,72.4z"/>
				<polygon points="63,83.5 66.9,83.5 66.9,68.5 63,69.2 				"/>
				<polygon points="68.7,83.5 72.6,83.5 72.6,68.5 68.7,69.2 				"/>
				<rect x="57.5" y="72.5" width="3.9" height="10.9"/>
				<circle cx="59.4" cy="69.6" r="1.9"/>
				<path d="M31.7,74.1c-0.5,0-1.6-0.1-1.6-1.1c0-1.2,1.6-1.2,2.3-1.2c1.1,0,2.5,0.3,3.5,0.6c0,0,0.6,0.2,1,0.4l0,0v0v-3.3l-0.1,0
					c-1.2-0.4-2.6-0.8-5.1-0.8c-4.4,0-6,2.6-6,4.8c0,1.3,0.5,4.2,5.6,4.6c0.4,0,1.6,0.1,1.6,1.2c0,0.9-0.9,1.4-2.5,1.4
					c-1.7,0-3.4-0.4-4.4-0.8v3.5c1.5,0.4,3.2,0.6,5.2,0.6c4.3,0,6.2-2.4,6.2-4.8C37.5,76.1,35.3,74.3,31.7,74.1z"/>
				<path d="M44.7,72.5c-0.1,0.2-0.7,2-2.2,3.8v-7.8l-4,0.8v14.2h4v-4.4c1.2,1.7,1.7,4.4,1.7,4.4H49c-0.5-2-2.6-5.6-2.6-5.6
					c1.9-2.4,2.7-4.9,2.8-5.3H44.7z"/>
				<path d="M75.8,28.1c0-4.8-3.9-8.7-8.7-8.7c-4.8,0-8.7,3.9-8.7,8.7c0,4.8,3.9,8.7,8.7,8.7C71.8,36.8,75.8,32.9,75.8,28.1z
					 M67,34.4c-3.5,0-6.4-2.9-6.4-6.4c0-3.5,2.9-6.4,6.4-6.4c3.5,0,6.4,2.9,6.4,6.4C73.4,31.6,70.6,34.4,67,34.4z"/>
				<path d="M34.2,36.8h3.6c-3-2.1-4.9-5.2-4.9-8.7c0-3.5,1.9-6.7,4.9-8.7h-3.6c-2.3,2.4-3.7,5.4-3.7,8.7
					C30.6,31.4,31.9,34.4,34.2,36.8z"/>
				<path d="M41.1,36.8h3.6c-3-2.1-4.9-5.2-4.9-8.7c0-3.5,1.9-6.7,4.9-8.7h-3.6c-2.3,2.4-3.7,5.4-3.7,8.7
					C37.5,31.4,38.9,34.4,41.1,36.8z"/>
				<path d="M30.9,36.8c-3-2.1-4.9-5.2-4.9-8.7c0-3.5,1.9-6.7,4.9-8.7h-3.6c-2.3,2.4-3.7,5.4-3.7,8.7c0,3.3,1.4,6.4,3.7,8.7H30.9z"
					/>
				<path d="M48.1,36.8h3.6c-3-2.1-4.9-5.2-4.9-8.7c0-3.5,1.9-6.7,4.9-8.7h-3.6c-2.3,2.4-3.7,5.4-3.7,8.7
					C44.4,31.4,45.8,34.4,48.1,36.8z"/>
				<path d="M55,36.8h3.6c-3-2.1-4.9-5.2-4.9-8.7c0-3.5,1.9-6.7,4.9-8.7H55c-2.3,2.4-3.7,5.4-3.7,8.7C51.3,31.4,52.7,34.4,55,36.8z"
					/>
				<path d="M26.5,43v-1.6c0-0.1,0-0.2,0-0.2c0.1-0.2,0.2-0.3,0.4-0.3c0.3,0,0.4,0.2,0.4,0.6V43h0.8v-1.6c0-0.8-0.4-1.2-0.9-1.2
					c-0.2,0-0.4,0.1-0.5,0.1c-0.1,0.1-0.3,0.2-0.4,0.3h0c-0.1-0.3-0.4-0.5-0.8-0.5c-0.5,0-0.7,0.3-0.8,0.4h0l0-0.4H24
					c0,0.2,0,0.5,0,0.9V43h0.8v-1.6c0-0.1,0-0.2,0-0.2c0.1-0.1,0.2-0.3,0.4-0.3c0.3,0,0.4,0.2,0.4,0.6V43H26.5z"/>
				<path d="M28.8,41.7c0,0.9,0.6,1.4,1.4,1.4c0.7,0,1.5-0.5,1.5-1.5c0-0.8-0.6-1.4-1.4-1.4C29.4,40.2,28.8,40.8,28.8,41.7z
					 M30.8,41.6c0,0.5-0.2,0.8-0.5,0.8c-0.4,0-0.6-0.4-0.6-0.8c0-0.4,0.2-0.8,0.6-0.8C30.6,40.8,30.8,41.2,30.8,41.6z"/>
				<path d="M35,43v-1.6c0-0.8-0.4-1.2-1-1.2c-0.5,0-0.7,0.3-0.9,0.4h0l0-0.4h-0.7c0,0.2,0,0.5,0,0.9V43h0.9v-1.6c0-0.1,0-0.2,0-0.2
					c0.1-0.2,0.2-0.3,0.4-0.3c0.3,0,0.4,0.2,0.4,0.6V43H35z"/>
				<path d="M37,40.2c-1,0-1.4,0.8-1.4,1.5c0,0.9,0.5,1.4,1.5,1.4c0.4,0,0.7-0.1,1-0.2L38,42.3c-0.2,0.1-0.5,0.1-0.8,0.1
					c-0.4,0-0.8-0.2-0.8-0.5h1.8c0-0.1,0-0.2,0-0.3C38.3,40.9,37.9,40.2,37,40.2z M36.5,41.3c0-0.2,0.2-0.6,0.5-0.6
					c0.4,0,0.5,0.3,0.5,0.6H36.5z"/>
				<path d="M39.2,43.4c-0.1,0.1-0.3,0.1-0.4,0.1l0.2,0.7c0.2,0,0.5-0.1,0.8-0.4c0.3-0.3,0.6-0.7,1-1.8l0.6-1.8h-0.9l-0.3,1.4
					c0,0.2-0.1,0.4-0.1,0.5h0c0-0.1-0.1-0.4-0.1-0.5l-0.4-1.4h-1l1,2.5c0,0.1,0,0.1,0,0.1c0,0,0,0.1,0,0.1
					C39.5,43.2,39.4,43.3,39.2,43.4z"/>
				<path d="M42,39v3.2c0,0.3,0,0.6,0,0.8h0.7l0-0.4h0c0.2,0.3,0.5,0.4,0.8,0.4c0.6,0,1.3-0.5,1.3-1.5c0-0.8-0.5-1.4-1.1-1.4
					c-0.4,0-0.7,0.2-0.8,0.4h0V39H42z M42.8,41.3c0.1-0.2,0.3-0.4,0.5-0.4c0.4,0,0.6,0.3,0.6,0.8c0,0.5-0.2,0.8-0.6,0.8
					c-0.2,0-0.4-0.2-0.5-0.4c0,0,0-0.1,0-0.2v-0.4C42.8,41.4,42.8,41.3,42.8,41.3z"/>
				<path d="M46.8,40.2c-0.9,0-1.5,0.6-1.5,1.5c0,0.9,0.6,1.4,1.4,1.4c0.7,0,1.5-0.5,1.5-1.5C48.2,40.8,47.7,40.2,46.8,40.2z
					 M46.8,42.5c-0.4,0-0.6-0.4-0.6-0.8c0-0.4,0.2-0.8,0.6-0.8c0.4,0,0.5,0.4,0.5,0.8C47.3,42.1,47.1,42.5,46.8,42.5z"/>
				<path d="M48.8,41.7c0,0.9,0.6,1.4,1.4,1.4c0.7,0,1.5-0.5,1.5-1.5c0-0.8-0.6-1.4-1.4-1.4C49.3,40.2,48.8,40.8,48.8,41.7z
					 M50.7,41.6c0,0.5-0.2,0.8-0.5,0.8c-0.4,0-0.6-0.4-0.6-0.8c0-0.4,0.2-0.8,0.6-0.8C50.6,40.8,50.7,41.2,50.7,41.6z"/>
				<path d="M52.3,39v4h0.9v-0.9l0.2-0.3L54,43h1.1L54,41.4l1-1.1h-1l-0.6,0.8c-0.1,0.1-0.1,0.2-0.2,0.3h0V39H52.3z"/>
				<path d="M57.6,42.3c-0.2,0.1-0.5,0.1-0.8,0.1c-0.4,0-0.8-0.2-0.8-0.5h1.8c0-0.1,0-0.2,0-0.3c0-0.7-0.3-1.4-1.2-1.4
					c-1,0-1.4,0.8-1.4,1.5c0,0.9,0.5,1.4,1.5,1.4c0.4,0,0.7-0.1,1-0.2L57.6,42.3z M56.6,40.8c0.4,0,0.5,0.3,0.5,0.6h-1
					C56.1,41.1,56.2,40.8,56.6,40.8z"/>
				<path d="M59.4,43v-1.4c0-0.1,0-0.1,0-0.2c0.1-0.3,0.3-0.4,0.6-0.4c0.1,0,0.2,0,0.2,0v-0.8c-0.1,0-0.1,0-0.2,0
					c-0.3,0-0.6,0.2-0.7,0.6h0l0-0.5h-0.7c0,0.2,0,0.5,0,0.9V43H59.4z"/>
				<path d="M62,41.3c-0.3-0.1-0.4-0.2-0.4-0.3c0-0.1,0.1-0.2,0.3-0.2c0.2,0,0.5,0.1,0.6,0.2l0.1-0.6c-0.2-0.1-0.5-0.2-0.8-0.2
					c-0.7,0-1.1,0.4-1.1,0.9c0,0.3,0.2,0.6,0.8,0.8c0.3,0.1,0.4,0.2,0.4,0.3c0,0.1-0.1,0.2-0.4,0.2c-0.3,0-0.6-0.1-0.7-0.2l-0.2,0.6
					c0.2,0.1,0.5,0.2,0.9,0.2c0.8,0,1.2-0.4,1.2-0.9C62.7,41.8,62.5,41.5,62,41.3z"/>
				<path d="M64.6,42.8c0-0.3-0.2-0.5-0.5-0.5c-0.3,0-0.5,0.2-0.5,0.5c0,0.3,0.2,0.5,0.5,0.5C64.4,43.3,64.6,43.1,64.6,42.8z"/>
				<path d="M66.4,40.8c0.2,0,0.4,0.1,0.5,0.1l0.1-0.5c-0.2-0.1-0.4-0.1-0.7-0.1c-1,0-1.5,0.6-1.5,1.5c0,0.9,0.6,1.4,1.4,1.4
					c0.3,0,0.6-0.1,0.8-0.1l-0.1-0.5c-0.1,0.1-0.3,0.1-0.5,0.1c-0.5,0-0.8-0.3-0.8-0.9C65.5,41.1,65.8,40.8,66.4,40.8z"/>
				<path d="M70.2,41.6c0-0.8-0.5-1.4-1.4-1.4c-0.8,0-1.4,0.6-1.4,1.5c0,0.9,0.6,1.4,1.4,1.4C69.5,43,70.2,42.6,70.2,41.6z
					 M68.1,41.6c0-0.5,0.2-0.9,0.7-0.9c0.5,0,0.7,0.5,0.7,0.9c0,0.6-0.3,0.9-0.7,0.9C68.4,42.5,68.1,42.1,68.1,41.6z"/>
				<path d="M74.1,40.2c-0.2,0-0.4,0.1-0.6,0.2c-0.1,0.1-0.2,0.2-0.3,0.3h0c-0.1-0.3-0.4-0.5-0.8-0.5c-0.5,0-0.7,0.3-0.8,0.5h0
					l0-0.4h-0.6c0,0.2,0,0.5,0,0.8V43h0.7v-1.6c0-0.1,0-0.2,0-0.2c0.1-0.2,0.2-0.4,0.5-0.4c0.3,0,0.5,0.3,0.5,0.7V43h0.7v-1.6
					c0-0.1,0-0.2,0-0.2c0.1-0.2,0.2-0.4,0.5-0.4c0.3,0,0.5,0.3,0.5,0.7V43H75v-1.6C75,40.5,74.5,40.2,74.1,40.2z"/>
			</g>
		</g>
	</g>
</g>
<g id="ICONS_-_DARK_PURPLE" display="none">
	<g display="inline">
		<g>
			<g>
				<path fill="#4F2556" d="M54.4,55.7c0-0.2-0.1-0.3-0.2-0.5c-0.1-0.1-0.3-0.2-0.5-0.2c-0.2,0-0.3,0.1-0.5,0.2l-3.5,3.6l0-8.4
					c0-0.4-0.3-0.7-0.7-0.7c-0.4,0-0.7,0.3-0.7,0.7l0,8.4l-3.5-3.6c-0.1-0.1-0.3-0.2-0.5-0.2c-0.2,0-0.3,0.1-0.5,0.2
					c-0.1,0.1-0.2,0.3-0.2,0.5c0,0.2,0.1,0.3,0.2,0.5l4.7,4.7c0.1,0.1,0.3,0.2,0.5,0.2c0.2,0,0.3-0.1,0.5-0.2l4.7-4.7
					C54.4,56,54.4,55.9,54.4,55.7z"/>
				<path fill="#4F2556" d="M55.3,72.4c-3.6,0.1-5.4,1.7-5.4,4.9v6.2h3.9v-5c0-1.9,0.3-2.8,2.5-2.8v-3.2
					C55.9,72.4,55.3,72.4,55.3,72.4z"/>
				<polygon fill="#4F2556" points="63,83.5 66.9,83.5 66.9,68.5 63,69.2 				"/>
				<polygon fill="#4F2556" points="68.7,83.5 72.6,83.5 72.6,68.5 68.7,69.2 				"/>
				<rect x="57.5" y="72.5" fill="#4F2556" width="3.9" height="10.9"/>
				<circle fill="#4F2556" cx="59.4" cy="69.6" r="1.9"/>
				<path fill="#4F2556" d="M31.7,74.1c-0.5,0-1.6-0.1-1.6-1.1c0-1.2,1.6-1.2,2.3-1.2c1.1,0,2.5,0.3,3.5,0.6c0,0,0.6,0.2,1,0.4l0,0
					v0v-3.3l-0.1,0c-1.2-0.4-2.6-0.8-5.1-0.8c-4.4,0-6,2.6-6,4.8c0,1.3,0.5,4.2,5.6,4.6c0.4,0,1.6,0.1,1.6,1.2
					c0,0.9-0.9,1.4-2.5,1.4c-1.7,0-3.4-0.4-4.4-0.8v3.5c1.5,0.4,3.2,0.6,5.2,0.6c4.3,0,6.2-2.4,6.2-4.8
					C37.5,76.1,35.3,74.3,31.7,74.1z"/>
				<path fill="#4F2556" d="M44.7,72.5c-0.1,0.2-0.7,2-2.2,3.8v-7.8l-4,0.8v14.2h4v-4.4c1.2,1.7,1.7,4.4,1.7,4.4H49
					c-0.5-2-2.6-5.6-2.6-5.6c1.9-2.4,2.7-4.9,2.8-5.3H44.7z"/>
				<path fill="#4F2556" d="M75.8,28.1c0-4.8-3.9-8.7-8.7-8.7c-4.8,0-8.7,3.9-8.7,8.7c0,4.8,3.9,8.7,8.7,8.7
					C71.8,36.8,75.8,32.9,75.8,28.1z M67,34.4c-3.5,0-6.4-2.9-6.4-6.4c0-3.5,2.9-6.4,6.4-6.4c3.5,0,6.4,2.9,6.4,6.4
					C73.4,31.6,70.6,34.4,67,34.4z"/>
				<path fill="#4F2556" d="M34.2,36.8h3.6c-3-2.1-4.9-5.2-4.9-8.7c0-3.5,1.9-6.7,4.9-8.7h-3.6c-2.3,2.4-3.7,5.4-3.7,8.7
					C30.6,31.4,31.9,34.4,34.2,36.8z"/>
				<path fill="#4F2556" d="M41.1,36.8h3.6c-3-2.1-4.9-5.2-4.9-8.7c0-3.5,1.9-6.7,4.9-8.7h-3.6c-2.3,2.4-3.7,5.4-3.7,8.7
					C37.5,31.4,38.9,34.4,41.1,36.8z"/>
				<path fill="#4F2556" d="M30.9,36.8c-3-2.1-4.9-5.2-4.9-8.7c0-3.5,1.9-6.7,4.9-8.7h-3.6c-2.3,2.4-3.7,5.4-3.7,8.7
					c0,3.3,1.4,6.4,3.7,8.7H30.9z"/>
				<path fill="#4F2556" d="M48.1,36.8h3.6c-3-2.1-4.9-5.2-4.9-8.7c0-3.5,1.9-6.7,4.9-8.7h-3.6c-2.3,2.4-3.7,5.4-3.7,8.7
					C44.4,31.4,45.8,34.4,48.1,36.8z"/>
				<path fill="#4F2556" d="M55,36.8h3.6c-3-2.1-4.9-5.2-4.9-8.7c0-3.5,1.9-6.7,4.9-8.7H55c-2.3,2.4-3.7,5.4-3.7,8.7
					C51.3,31.4,52.7,34.4,55,36.8z"/>
				<path fill="#4F2556" d="M26.5,43v-1.6c0-0.1,0-0.2,0-0.2c0.1-0.2,0.2-0.3,0.4-0.3c0.3,0,0.4,0.2,0.4,0.6V43h0.8v-1.6
					c0-0.8-0.4-1.2-0.9-1.2c-0.2,0-0.4,0.1-0.5,0.1c-0.1,0.1-0.3,0.2-0.4,0.3h0c-0.1-0.3-0.4-0.5-0.8-0.5c-0.5,0-0.7,0.3-0.8,0.4h0
					l0-0.4H24c0,0.2,0,0.5,0,0.9V43h0.8v-1.6c0-0.1,0-0.2,0-0.2c0.1-0.1,0.2-0.3,0.4-0.3c0.3,0,0.4,0.2,0.4,0.6V43H26.5z"/>
				<path fill="#4F2556" d="M28.8,41.7c0,0.9,0.6,1.4,1.4,1.4c0.7,0,1.5-0.5,1.5-1.5c0-0.8-0.6-1.4-1.4-1.4
					C29.4,40.2,28.8,40.8,28.8,41.7z M30.8,41.6c0,0.5-0.2,0.8-0.5,0.8c-0.4,0-0.6-0.4-0.6-0.8c0-0.4,0.2-0.8,0.6-0.8
					C30.6,40.8,30.8,41.2,30.8,41.6z"/>
				<path fill="#4F2556" d="M35,43v-1.6c0-0.8-0.4-1.2-1-1.2c-0.5,0-0.7,0.3-0.9,0.4h0l0-0.4h-0.7c0,0.2,0,0.5,0,0.9V43h0.9v-1.6
					c0-0.1,0-0.2,0-0.2c0.1-0.2,0.2-0.3,0.4-0.3c0.3,0,0.4,0.2,0.4,0.6V43H35z"/>
				<path fill="#4F2556" d="M37,40.2c-1,0-1.4,0.8-1.4,1.5c0,0.9,0.5,1.4,1.5,1.4c0.4,0,0.7-0.1,1-0.2L38,42.3
					c-0.2,0.1-0.5,0.1-0.8,0.1c-0.4,0-0.8-0.2-0.8-0.5h1.8c0-0.1,0-0.2,0-0.3C38.3,40.9,37.9,40.2,37,40.2z M36.5,41.3
					c0-0.2,0.2-0.6,0.5-0.6c0.4,0,0.5,0.3,0.5,0.6H36.5z"/>
				<path fill="#4F2556" d="M39.2,43.4c-0.1,0.1-0.3,0.1-0.4,0.1l0.2,0.7c0.2,0,0.5-0.1,0.8-0.4c0.3-0.3,0.6-0.7,1-1.8l0.6-1.8h-0.9
					l-0.3,1.4c0,0.2-0.1,0.4-0.1,0.5h0c0-0.1-0.1-0.4-0.1-0.5l-0.4-1.4h-1l1,2.5c0,0.1,0,0.1,0,0.1c0,0,0,0.1,0,0.1
					C39.5,43.2,39.4,43.3,39.2,43.4z"/>
				<path fill="#4F2556" d="M42,39v3.2c0,0.3,0,0.6,0,0.8h0.7l0-0.4h0c0.2,0.3,0.5,0.4,0.8,0.4c0.6,0,1.3-0.5,1.3-1.5
					c0-0.8-0.5-1.4-1.1-1.4c-0.4,0-0.7,0.2-0.8,0.4h0V39H42z M42.8,41.3c0.1-0.2,0.3-0.4,0.5-0.4c0.4,0,0.6,0.3,0.6,0.8
					c0,0.5-0.2,0.8-0.6,0.8c-0.2,0-0.4-0.2-0.5-0.4c0,0,0-0.1,0-0.2v-0.4C42.8,41.4,42.8,41.3,42.8,41.3z"/>
				<path fill="#4F2556" d="M46.8,40.2c-0.9,0-1.5,0.6-1.5,1.5c0,0.9,0.6,1.4,1.4,1.4c0.7,0,1.5-0.5,1.5-1.5
					C48.2,40.8,47.7,40.2,46.8,40.2z M46.8,42.5c-0.4,0-0.6-0.4-0.6-0.8c0-0.4,0.2-0.8,0.6-0.8c0.4,0,0.5,0.4,0.5,0.8
					C47.3,42.1,47.1,42.5,46.8,42.5z"/>
				<path fill="#4F2556" d="M48.8,41.7c0,0.9,0.6,1.4,1.4,1.4c0.7,0,1.5-0.5,1.5-1.5c0-0.8-0.6-1.4-1.4-1.4
					C49.3,40.2,48.8,40.8,48.8,41.7z M50.7,41.6c0,0.5-0.2,0.8-0.5,0.8c-0.4,0-0.6-0.4-0.6-0.8c0-0.4,0.2-0.8,0.6-0.8
					C50.6,40.8,50.7,41.2,50.7,41.6z"/>
				<path fill="#4F2556" d="M52.3,39v4h0.9v-0.9l0.2-0.3L54,43h1.1L54,41.4l1-1.1h-1l-0.6,0.8c-0.1,0.1-0.1,0.2-0.2,0.3h0V39H52.3z"
					/>
				<path fill="#4F2556" d="M57.6,42.3c-0.2,0.1-0.5,0.1-0.8,0.1c-0.4,0-0.8-0.2-0.8-0.5h1.8c0-0.1,0-0.2,0-0.3
					c0-0.7-0.3-1.4-1.2-1.4c-1,0-1.4,0.8-1.4,1.5c0,0.9,0.5,1.4,1.5,1.4c0.4,0,0.7-0.1,1-0.2L57.6,42.3z M56.6,40.8
					c0.4,0,0.5,0.3,0.5,0.6h-1C56.1,41.1,56.2,40.8,56.6,40.8z"/>
				<path fill="#4F2556" d="M59.4,43v-1.4c0-0.1,0-0.1,0-0.2c0.1-0.3,0.3-0.4,0.6-0.4c0.1,0,0.2,0,0.2,0v-0.8c-0.1,0-0.1,0-0.2,0
					c-0.3,0-0.6,0.2-0.7,0.6h0l0-0.5h-0.7c0,0.2,0,0.5,0,0.9V43H59.4z"/>
				<path fill="#4F2556" d="M62,41.3c-0.3-0.1-0.4-0.2-0.4-0.3c0-0.1,0.1-0.2,0.3-0.2c0.2,0,0.5,0.1,0.6,0.2l0.1-0.6
					c-0.2-0.1-0.5-0.2-0.8-0.2c-0.7,0-1.1,0.4-1.1,0.9c0,0.3,0.2,0.6,0.8,0.8c0.3,0.1,0.4,0.2,0.4,0.3c0,0.1-0.1,0.2-0.4,0.2
					c-0.3,0-0.6-0.1-0.7-0.2l-0.2,0.6c0.2,0.1,0.5,0.2,0.9,0.2c0.8,0,1.2-0.4,1.2-0.9C62.7,41.8,62.5,41.5,62,41.3z"/>
				<path fill="#4F2556" d="M64.6,42.8c0-0.3-0.2-0.5-0.5-0.5c-0.3,0-0.5,0.2-0.5,0.5c0,0.3,0.2,0.5,0.5,0.5
					C64.4,43.3,64.6,43.1,64.6,42.8z"/>
				<path fill="#4F2556" d="M66.4,40.8c0.2,0,0.4,0.1,0.5,0.1l0.1-0.5c-0.2-0.1-0.4-0.1-0.7-0.1c-1,0-1.5,0.6-1.5,1.5
					c0,0.9,0.6,1.4,1.4,1.4c0.3,0,0.6-0.1,0.8-0.1l-0.1-0.5c-0.1,0.1-0.3,0.1-0.5,0.1c-0.5,0-0.8-0.3-0.8-0.9
					C65.5,41.1,65.8,40.8,66.4,40.8z"/>
				<path fill="#4F2556" d="M70.2,41.6c0-0.8-0.5-1.4-1.4-1.4c-0.8,0-1.4,0.6-1.4,1.5c0,0.9,0.6,1.4,1.4,1.4
					C69.5,43,70.2,42.6,70.2,41.6z M68.1,41.6c0-0.5,0.2-0.9,0.7-0.9c0.5,0,0.7,0.5,0.7,0.9c0,0.6-0.3,0.9-0.7,0.9
					C68.4,42.5,68.1,42.1,68.1,41.6z"/>
				<path fill="#4F2556" d="M74.1,40.2c-0.2,0-0.4,0.1-0.6,0.2c-0.1,0.1-0.2,0.2-0.3,0.3h0c-0.1-0.3-0.4-0.5-0.8-0.5
					c-0.5,0-0.7,0.3-0.8,0.5h0l0-0.4h-0.6c0,0.2,0,0.5,0,0.8V43h0.7v-1.6c0-0.1,0-0.2,0-0.2c0.1-0.2,0.2-0.4,0.5-0.4
					c0.3,0,0.5,0.3,0.5,0.7V43h0.7v-1.6c0-0.1,0-0.2,0-0.2c0.1-0.2,0.2-0.4,0.5-0.4c0.3,0,0.5,0.3,0.5,0.7V43H75v-1.6
					C75,40.5,74.5,40.2,74.1,40.2z"/>
			</g>
		</g>
	</g>
</g>
<g id="ICONS_-_WARM_GREY" display="none">
	<g display="inline">
		<g>
			<g>
				<path fill="#534C63" d="M54.4,55.7c0-0.2-0.1-0.3-0.2-0.5c-0.1-0.1-0.3-0.2-0.5-0.2c-0.2,0-0.3,0.1-0.5,0.2l-3.5,3.6l0-8.4
					c0-0.4-0.3-0.7-0.7-0.7c-0.4,0-0.7,0.3-0.7,0.7l0,8.4l-3.5-3.6c-0.1-0.1-0.3-0.2-0.5-0.2c-0.2,0-0.3,0.1-0.5,0.2
					c-0.1,0.1-0.2,0.3-0.2,0.5c0,0.2,0.1,0.3,0.2,0.5l4.7,4.7c0.1,0.1,0.3,0.2,0.5,0.2c0.2,0,0.3-0.1,0.5-0.2l4.7-4.7
					C54.4,56,54.4,55.9,54.4,55.7z"/>
				<path fill="#534C63" d="M55.3,72.4c-3.6,0.1-5.4,1.7-5.4,4.9v6.2h3.9v-5c0-1.9,0.3-2.8,2.5-2.8v-3.2
					C55.9,72.4,55.3,72.4,55.3,72.4z"/>
				<polygon fill="#534C63" points="63,83.5 66.9,83.5 66.9,68.5 63,69.2 				"/>
				<polygon fill="#534C63" points="68.7,83.5 72.6,83.5 72.6,68.5 68.7,69.2 				"/>
				<rect x="57.5" y="72.5" fill="#534C63" width="3.9" height="10.9"/>
				<circle fill="#534C63" cx="59.4" cy="69.6" r="1.9"/>
				<path fill="#534C63" d="M31.7,74.1c-0.5,0-1.6-0.1-1.6-1.1c0-1.2,1.6-1.2,2.3-1.2c1.1,0,2.5,0.3,3.5,0.6c0,0,0.6,0.2,1,0.4l0,0
					v0v-3.3l-0.1,0c-1.2-0.4-2.6-0.8-5.1-0.8c-4.4,0-6,2.6-6,4.8c0,1.3,0.5,4.2,5.6,4.6c0.4,0,1.6,0.1,1.6,1.2
					c0,0.9-0.9,1.4-2.5,1.4c-1.7,0-3.4-0.4-4.4-0.8v3.5c1.5,0.4,3.2,0.6,5.2,0.6c4.3,0,6.2-2.4,6.2-4.8
					C37.5,76.1,35.3,74.3,31.7,74.1z"/>
				<path fill="#534C63" d="M44.7,72.5c-0.1,0.2-0.7,2-2.2,3.8v-7.8l-4,0.8v14.2h4v-4.4c1.2,1.7,1.7,4.4,1.7,4.4H49
					c-0.5-2-2.6-5.6-2.6-5.6c1.9-2.4,2.7-4.9,2.8-5.3H44.7z"/>
				<path fill="#534C63" d="M75.8,28.1c0-4.8-3.9-8.7-8.7-8.7c-4.8,0-8.7,3.9-8.7,8.7c0,4.8,3.9,8.7,8.7,8.7
					C71.8,36.8,75.8,32.9,75.8,28.1z M67,34.4c-3.5,0-6.4-2.9-6.4-6.4c0-3.5,2.9-6.4,6.4-6.4c3.5,0,6.4,2.9,6.4,6.4
					C73.4,31.6,70.6,34.4,67,34.4z"/>
				<path fill="#534C63" d="M34.2,36.8h3.6c-3-2.1-4.9-5.2-4.9-8.7c0-3.5,1.9-6.7,4.9-8.7h-3.6c-2.3,2.4-3.7,5.4-3.7,8.7
					C30.6,31.4,31.9,34.4,34.2,36.8z"/>
				<path fill="#534C63" d="M41.1,36.8h3.6c-3-2.1-4.9-5.2-4.9-8.7c0-3.5,1.9-6.7,4.9-8.7h-3.6c-2.3,2.4-3.7,5.4-3.7,8.7
					C37.5,31.4,38.9,34.4,41.1,36.8z"/>
				<path fill="#534C63" d="M30.9,36.8c-3-2.1-4.9-5.2-4.9-8.7c0-3.5,1.9-6.7,4.9-8.7h-3.6c-2.3,2.4-3.7,5.4-3.7,8.7
					c0,3.3,1.4,6.4,3.7,8.7H30.9z"/>
				<path fill="#534C63" d="M48.1,36.8h3.6c-3-2.1-4.9-5.2-4.9-8.7c0-3.5,1.9-6.7,4.9-8.7h-3.6c-2.3,2.4-3.7,5.4-3.7,8.7
					C44.4,31.4,45.8,34.4,48.1,36.8z"/>
				<path fill="#534C63" d="M55,36.8h3.6c-3-2.1-4.9-5.2-4.9-8.7c0-3.5,1.9-6.7,4.9-8.7H55c-2.3,2.4-3.7,5.4-3.7,8.7
					C51.3,31.4,52.7,34.4,55,36.8z"/>
				<path fill="#534C63" d="M26.5,43v-1.6c0-0.1,0-0.2,0-0.2c0.1-0.2,0.2-0.3,0.4-0.3c0.3,0,0.4,0.2,0.4,0.6V43h0.8v-1.6
					c0-0.8-0.4-1.2-0.9-1.2c-0.2,0-0.4,0.1-0.5,0.1c-0.1,0.1-0.3,0.2-0.4,0.3h0c-0.1-0.3-0.4-0.5-0.8-0.5c-0.5,0-0.7,0.3-0.8,0.4h0
					l0-0.4H24c0,0.2,0,0.5,0,0.9V43h0.8v-1.6c0-0.1,0-0.2,0-0.2c0.1-0.1,0.2-0.3,0.4-0.3c0.3,0,0.4,0.2,0.4,0.6V43H26.5z"/>
				<path fill="#534C63" d="M28.8,41.7c0,0.9,0.6,1.4,1.4,1.4c0.7,0,1.5-0.5,1.5-1.5c0-0.8-0.6-1.4-1.4-1.4
					C29.4,40.2,28.8,40.8,28.8,41.7z M30.8,41.6c0,0.5-0.2,0.8-0.5,0.8c-0.4,0-0.6-0.4-0.6-0.8c0-0.4,0.2-0.8,0.6-0.8
					C30.6,40.8,30.8,41.2,30.8,41.6z"/>
				<path fill="#534C63" d="M35,43v-1.6c0-0.8-0.4-1.2-1-1.2c-0.5,0-0.7,0.3-0.9,0.4h0l0-0.4h-0.7c0,0.2,0,0.5,0,0.9V43h0.9v-1.6
					c0-0.1,0-0.2,0-0.2c0.1-0.2,0.2-0.3,0.4-0.3c0.3,0,0.4,0.2,0.4,0.6V43H35z"/>
				<path fill="#534C63" d="M37,40.2c-1,0-1.4,0.8-1.4,1.5c0,0.9,0.5,1.4,1.5,1.4c0.4,0,0.7-0.1,1-0.2L38,42.3
					c-0.2,0.1-0.5,0.1-0.8,0.1c-0.4,0-0.8-0.2-0.8-0.5h1.8c0-0.1,0-0.2,0-0.3C38.3,40.9,37.9,40.2,37,40.2z M36.5,41.3
					c0-0.2,0.2-0.6,0.5-0.6c0.4,0,0.5,0.3,0.5,0.6H36.5z"/>
				<path fill="#534C63" d="M39.2,43.4c-0.1,0.1-0.3,0.1-0.4,0.1l0.2,0.7c0.2,0,0.5-0.1,0.8-0.4c0.3-0.3,0.6-0.7,1-1.8l0.6-1.8h-0.9
					l-0.3,1.4c0,0.2-0.1,0.4-0.1,0.5h0c0-0.1-0.1-0.4-0.1-0.5l-0.4-1.4h-1l1,2.5c0,0.1,0,0.1,0,0.1c0,0,0,0.1,0,0.1
					C39.5,43.2,39.4,43.3,39.2,43.4z"/>
				<path fill="#534C63" d="M42,39v3.2c0,0.3,0,0.6,0,0.8h0.7l0-0.4h0c0.2,0.3,0.5,0.4,0.8,0.4c0.6,0,1.3-0.5,1.3-1.5
					c0-0.8-0.5-1.4-1.1-1.4c-0.4,0-0.7,0.2-0.8,0.4h0V39H42z M42.8,41.3c0.1-0.2,0.3-0.4,0.5-0.4c0.4,0,0.6,0.3,0.6,0.8
					c0,0.5-0.2,0.8-0.6,0.8c-0.2,0-0.4-0.2-0.5-0.4c0,0,0-0.1,0-0.2v-0.4C42.8,41.4,42.8,41.3,42.8,41.3z"/>
				<path fill="#534C63" d="M46.8,40.2c-0.9,0-1.5,0.6-1.5,1.5c0,0.9,0.6,1.4,1.4,1.4c0.7,0,1.5-0.5,1.5-1.5
					C48.2,40.8,47.7,40.2,46.8,40.2z M46.8,42.5c-0.4,0-0.6-0.4-0.6-0.8c0-0.4,0.2-0.8,0.6-0.8c0.4,0,0.5,0.4,0.5,0.8
					C47.3,42.1,47.1,42.5,46.8,42.5z"/>
				<path fill="#534C63" d="M48.8,41.7c0,0.9,0.6,1.4,1.4,1.4c0.7,0,1.5-0.5,1.5-1.5c0-0.8-0.6-1.4-1.4-1.4
					C49.3,40.2,48.8,40.8,48.8,41.7z M50.7,41.6c0,0.5-0.2,0.8-0.5,0.8c-0.4,0-0.6-0.4-0.6-0.8c0-0.4,0.2-0.8,0.6-0.8
					C50.6,40.8,50.7,41.2,50.7,41.6z"/>
				<path fill="#534C63" d="M52.3,39v4h0.9v-0.9l0.2-0.3L54,43h1.1L54,41.4l1-1.1h-1l-0.6,0.8c-0.1,0.1-0.1,0.2-0.2,0.3h0V39H52.3z"
					/>
				<path fill="#534C63" d="M57.6,42.3c-0.2,0.1-0.5,0.1-0.8,0.1c-0.4,0-0.8-0.2-0.8-0.5h1.8c0-0.1,0-0.2,0-0.3
					c0-0.7-0.3-1.4-1.2-1.4c-1,0-1.4,0.8-1.4,1.5c0,0.9,0.5,1.4,1.5,1.4c0.4,0,0.7-0.1,1-0.2L57.6,42.3z M56.6,40.8
					c0.4,0,0.5,0.3,0.5,0.6h-1C56.1,41.1,56.2,40.8,56.6,40.8z"/>
				<path fill="#534C63" d="M59.4,43v-1.4c0-0.1,0-0.1,0-0.2c0.1-0.3,0.3-0.4,0.6-0.4c0.1,0,0.2,0,0.2,0v-0.8c-0.1,0-0.1,0-0.2,0
					c-0.3,0-0.6,0.2-0.7,0.6h0l0-0.5h-0.7c0,0.2,0,0.5,0,0.9V43H59.4z"/>
				<path fill="#534C63" d="M62,41.3c-0.3-0.1-0.4-0.2-0.4-0.3c0-0.1,0.1-0.2,0.3-0.2c0.2,0,0.5,0.1,0.6,0.2l0.1-0.6
					c-0.2-0.1-0.5-0.2-0.8-0.2c-0.7,0-1.1,0.4-1.1,0.9c0,0.3,0.2,0.6,0.8,0.8c0.3,0.1,0.4,0.2,0.4,0.3c0,0.1-0.1,0.2-0.4,0.2
					c-0.3,0-0.6-0.1-0.7-0.2l-0.2,0.6c0.2,0.1,0.5,0.2,0.9,0.2c0.8,0,1.2-0.4,1.2-0.9C62.7,41.8,62.5,41.5,62,41.3z"/>
				<path fill="#534C63" d="M64.6,42.8c0-0.3-0.2-0.5-0.5-0.5c-0.3,0-0.5,0.2-0.5,0.5c0,0.3,0.2,0.5,0.5,0.5
					C64.4,43.3,64.6,43.1,64.6,42.8z"/>
				<path fill="#534C63" d="M66.4,40.8c0.2,0,0.4,0.1,0.5,0.1l0.1-0.5c-0.2-0.1-0.4-0.1-0.7-0.1c-1,0-1.5,0.6-1.5,1.5
					c0,0.9,0.6,1.4,1.4,1.4c0.3,0,0.6-0.1,0.8-0.1l-0.1-0.5c-0.1,0.1-0.3,0.1-0.5,0.1c-0.5,0-0.8-0.3-0.8-0.9
					C65.5,41.1,65.8,40.8,66.4,40.8z"/>
				<path fill="#534C63" d="M70.2,41.6c0-0.8-0.5-1.4-1.4-1.4c-0.8,0-1.4,0.6-1.4,1.5c0,0.9,0.6,1.4,1.4,1.4
					C69.5,43,70.2,42.6,70.2,41.6z M68.1,41.6c0-0.5,0.2-0.9,0.7-0.9c0.5,0,0.7,0.5,0.7,0.9c0,0.6-0.3,0.9-0.7,0.9
					C68.4,42.5,68.1,42.1,68.1,41.6z"/>
				<path fill="#534C63" d="M74.1,40.2c-0.2,0-0.4,0.1-0.6,0.2c-0.1,0.1-0.2,0.2-0.3,0.3h0c-0.1-0.3-0.4-0.5-0.8-0.5
					c-0.5,0-0.7,0.3-0.8,0.5h0l0-0.4h-0.6c0,0.2,0,0.5,0,0.8V43h0.7v-1.6c0-0.1,0-0.2,0-0.2c0.1-0.2,0.2-0.4,0.5-0.4
					c0.3,0,0.5,0.3,0.5,0.7V43h0.7v-1.6c0-0.1,0-0.2,0-0.2c0.1-0.2,0.2-0.4,0.5-0.4c0.3,0,0.5,0.3,0.5,0.7V43H75v-1.6
					C75,40.5,74.5,40.2,74.1,40.2z"/>
			</g>
		</g>
	</g>
</g>
<g id="ICONS_-_SKRILL_TEAL" display="none">
	<g display="inline">
		<g>
			<g>
				<path fill="#41AEB5" d="M54.4,55.7c0-0.2-0.1-0.3-0.2-0.5c-0.1-0.1-0.3-0.2-0.5-0.2c-0.2,0-0.3,0.1-0.5,0.2l-3.5,3.6l0-8.4
					c0-0.4-0.3-0.7-0.7-0.7c-0.4,0-0.7,0.3-0.7,0.7l0,8.4l-3.5-3.6c-0.1-0.1-0.3-0.2-0.5-0.2c-0.2,0-0.3,0.1-0.5,0.2
					c-0.1,0.1-0.2,0.3-0.2,0.5c0,0.2,0.1,0.3,0.2,0.5l4.7,4.7c0.1,0.1,0.3,0.2,0.5,0.2c0.2,0,0.3-0.1,0.5-0.2l4.7-4.7
					C54.4,56,54.4,55.9,54.4,55.7z"/>
				<path fill="#41AEB5" d="M55.3,72.4c-3.6,0.1-5.4,1.7-5.4,4.9v6.2h3.9v-5c0-1.9,0.3-2.8,2.5-2.8v-3.2
					C55.9,72.4,55.3,72.4,55.3,72.4z"/>
				<polygon fill="#41AEB5" points="63,83.5 66.9,83.5 66.9,68.5 63,69.2 				"/>
				<polygon fill="#41AEB5" points="68.7,83.5 72.6,83.5 72.6,68.5 68.7,69.2 				"/>
				<rect x="57.5" y="72.5" fill="#41AEB5" width="3.9" height="10.9"/>
				<circle fill="#41AEB5" cx="59.4" cy="69.6" r="1.9"/>
				<path fill="#41AEB5" d="M31.7,74.1c-0.5,0-1.6-0.1-1.6-1.1c0-1.2,1.6-1.2,2.3-1.2c1.1,0,2.5,0.3,3.5,0.6c0,0,0.6,0.2,1,0.4l0,0
					v0v-3.3l-0.1,0c-1.2-0.4-2.6-0.8-5.1-0.8c-4.4,0-6,2.6-6,4.8c0,1.3,0.5,4.2,5.6,4.6c0.4,0,1.6,0.1,1.6,1.2
					c0,0.9-0.9,1.4-2.5,1.4c-1.7,0-3.4-0.4-4.4-0.8v3.5c1.5,0.4,3.2,0.6,5.2,0.6c4.3,0,6.2-2.4,6.2-4.8
					C37.5,76.1,35.3,74.3,31.7,74.1z"/>
				<path fill="#41AEB5" d="M44.7,72.5c-0.1,0.2-0.7,2-2.2,3.8v-7.8l-4,0.8v14.2h4v-4.4c1.2,1.7,1.7,4.4,1.7,4.4H49
					c-0.5-2-2.6-5.6-2.6-5.6c1.9-2.4,2.7-4.9,2.8-5.3H44.7z"/>
				<path fill="#41AEB5" d="M75.8,28.1c0-4.8-3.9-8.7-8.7-8.7c-4.8,0-8.7,3.9-8.7,8.7c0,4.8,3.9,8.7,8.7,8.7
					C71.8,36.8,75.8,32.9,75.8,28.1z M67,34.4c-3.5,0-6.4-2.9-6.4-6.4c0-3.5,2.9-6.4,6.4-6.4c3.5,0,6.4,2.9,6.4,6.4
					C73.4,31.6,70.6,34.4,67,34.4z"/>
				<path fill="#41AEB5" d="M34.2,36.8h3.6c-3-2.1-4.9-5.2-4.9-8.7c0-3.5,1.9-6.7,4.9-8.7h-3.6c-2.3,2.4-3.7,5.4-3.7,8.7
					C30.6,31.4,31.9,34.4,34.2,36.8z"/>
				<path fill="#41AEB5" d="M41.1,36.8h3.6c-3-2.1-4.9-5.2-4.9-8.7c0-3.5,1.9-6.7,4.9-8.7h-3.6c-2.3,2.4-3.7,5.4-3.7,8.7
					C37.5,31.4,38.9,34.4,41.1,36.8z"/>
				<path fill="#41AEB5" d="M30.9,36.8c-3-2.1-4.9-5.2-4.9-8.7c0-3.5,1.9-6.7,4.9-8.7h-3.6c-2.3,2.4-3.7,5.4-3.7,8.7
					c0,3.3,1.4,6.4,3.7,8.7H30.9z"/>
				<path fill="#41AEB5" d="M48.1,36.8h3.6c-3-2.1-4.9-5.2-4.9-8.7c0-3.5,1.9-6.7,4.9-8.7h-3.6c-2.3,2.4-3.7,5.4-3.7,8.7
					C44.4,31.4,45.8,34.4,48.1,36.8z"/>
				<path fill="#41AEB5" d="M55,36.8h3.6c-3-2.1-4.9-5.2-4.9-8.7c0-3.5,1.9-6.7,4.9-8.7H55c-2.3,2.4-3.7,5.4-3.7,8.7
					C51.3,31.4,52.7,34.4,55,36.8z"/>
				<path fill="#41AEB5" d="M26.5,43v-1.6c0-0.1,0-0.2,0-0.2c0.1-0.2,0.2-0.3,0.4-0.3c0.3,0,0.4,0.2,0.4,0.6V43h0.8v-1.6
					c0-0.8-0.4-1.2-0.9-1.2c-0.2,0-0.4,0.1-0.5,0.1c-0.1,0.1-0.3,0.2-0.4,0.3h0c-0.1-0.3-0.4-0.5-0.8-0.5c-0.5,0-0.7,0.3-0.8,0.4h0
					l0-0.4H24c0,0.2,0,0.5,0,0.9V43h0.8v-1.6c0-0.1,0-0.2,0-0.2c0.1-0.1,0.2-0.3,0.4-0.3c0.3,0,0.4,0.2,0.4,0.6V43H26.5z"/>
				<path fill="#41AEB5" d="M28.8,41.7c0,0.9,0.6,1.4,1.4,1.4c0.7,0,1.5-0.5,1.5-1.5c0-0.8-0.6-1.4-1.4-1.4
					C29.4,40.2,28.8,40.8,28.8,41.7z M30.8,41.6c0,0.5-0.2,0.8-0.5,0.8c-0.4,0-0.6-0.4-0.6-0.8c0-0.4,0.2-0.8,0.6-0.8
					C30.6,40.8,30.8,41.2,30.8,41.6z"/>
				<path fill="#41AEB5" d="M35,43v-1.6c0-0.8-0.4-1.2-1-1.2c-0.5,0-0.7,0.3-0.9,0.4h0l0-0.4h-0.7c0,0.2,0,0.5,0,0.9V43h0.9v-1.6
					c0-0.1,0-0.2,0-0.2c0.1-0.2,0.2-0.3,0.4-0.3c0.3,0,0.4,0.2,0.4,0.6V43H35z"/>
				<path fill="#41AEB5" d="M37,40.2c-1,0-1.4,0.8-1.4,1.5c0,0.9,0.5,1.4,1.5,1.4c0.4,0,0.7-0.1,1-0.2L38,42.3
					c-0.2,0.1-0.5,0.1-0.8,0.1c-0.4,0-0.8-0.2-0.8-0.5h1.8c0-0.1,0-0.2,0-0.3C38.3,40.9,37.9,40.2,37,40.2z M36.5,41.3
					c0-0.2,0.2-0.6,0.5-0.6c0.4,0,0.5,0.3,0.5,0.6H36.5z"/>
				<path fill="#41AEB5" d="M39.2,43.4c-0.1,0.1-0.3,0.1-0.4,0.1l0.2,0.7c0.2,0,0.5-0.1,0.8-0.4c0.3-0.3,0.6-0.7,1-1.8l0.6-1.8h-0.9
					l-0.3,1.4c0,0.2-0.1,0.4-0.1,0.5h0c0-0.1-0.1-0.4-0.1-0.5l-0.4-1.4h-1l1,2.5c0,0.1,0,0.1,0,0.1c0,0,0,0.1,0,0.1
					C39.5,43.2,39.4,43.3,39.2,43.4z"/>
				<path fill="#41AEB5" d="M42,39v3.2c0,0.3,0,0.6,0,0.8h0.7l0-0.4h0c0.2,0.3,0.5,0.4,0.8,0.4c0.6,0,1.3-0.5,1.3-1.5
					c0-0.8-0.5-1.4-1.1-1.4c-0.4,0-0.7,0.2-0.8,0.4h0V39H42z M42.8,41.3c0.1-0.2,0.3-0.4,0.5-0.4c0.4,0,0.6,0.3,0.6,0.8
					c0,0.5-0.2,0.8-0.6,0.8c-0.2,0-0.4-0.2-0.5-0.4c0,0,0-0.1,0-0.2v-0.4C42.8,41.4,42.8,41.3,42.8,41.3z"/>
				<path fill="#41AEB5" d="M46.8,40.2c-0.9,0-1.5,0.6-1.5,1.5c0,0.9,0.6,1.4,1.4,1.4c0.7,0,1.5-0.5,1.5-1.5
					C48.2,40.8,47.7,40.2,46.8,40.2z M46.8,42.5c-0.4,0-0.6-0.4-0.6-0.8c0-0.4,0.2-0.8,0.6-0.8c0.4,0,0.5,0.4,0.5,0.8
					C47.3,42.1,47.1,42.5,46.8,42.5z"/>
				<path fill="#41AEB5" d="M48.8,41.7c0,0.9,0.6,1.4,1.4,1.4c0.7,0,1.5-0.5,1.5-1.5c0-0.8-0.6-1.4-1.4-1.4
					C49.3,40.2,48.8,40.8,48.8,41.7z M50.7,41.6c0,0.5-0.2,0.8-0.5,0.8c-0.4,0-0.6-0.4-0.6-0.8c0-0.4,0.2-0.8,0.6-0.8
					C50.6,40.8,50.7,41.2,50.7,41.6z"/>
				<path fill="#41AEB5" d="M52.3,39v4h0.9v-0.9l0.2-0.3L54,43h1.1L54,41.4l1-1.1h-1l-0.6,0.8c-0.1,0.1-0.1,0.2-0.2,0.3h0V39H52.3z"
					/>
				<path fill="#41AEB5" d="M57.6,42.3c-0.2,0.1-0.5,0.1-0.8,0.1c-0.4,0-0.8-0.2-0.8-0.5h1.8c0-0.1,0-0.2,0-0.3
					c0-0.7-0.3-1.4-1.2-1.4c-1,0-1.4,0.8-1.4,1.5c0,0.9,0.5,1.4,1.5,1.4c0.4,0,0.7-0.1,1-0.2L57.6,42.3z M56.6,40.8
					c0.4,0,0.5,0.3,0.5,0.6h-1C56.1,41.1,56.2,40.8,56.6,40.8z"/>
				<path fill="#41AEB5" d="M59.4,43v-1.4c0-0.1,0-0.1,0-0.2c0.1-0.3,0.3-0.4,0.6-0.4c0.1,0,0.2,0,0.2,0v-0.8c-0.1,0-0.1,0-0.2,0
					c-0.3,0-0.6,0.2-0.7,0.6h0l0-0.5h-0.7c0,0.2,0,0.5,0,0.9V43H59.4z"/>
				<path fill="#41AEB5" d="M62,41.3c-0.3-0.1-0.4-0.2-0.4-0.3c0-0.1,0.1-0.2,0.3-0.2c0.2,0,0.5,0.1,0.6,0.2l0.1-0.6
					c-0.2-0.1-0.5-0.2-0.8-0.2c-0.7,0-1.1,0.4-1.1,0.9c0,0.3,0.2,0.6,0.8,0.8c0.3,0.1,0.4,0.2,0.4,0.3c0,0.1-0.1,0.2-0.4,0.2
					c-0.3,0-0.6-0.1-0.7-0.2l-0.2,0.6c0.2,0.1,0.5,0.2,0.9,0.2c0.8,0,1.2-0.4,1.2-0.9C62.7,41.8,62.5,41.5,62,41.3z"/>
				<path fill="#41AEB5" d="M64.6,42.8c0-0.3-0.2-0.5-0.5-0.5c-0.3,0-0.5,0.2-0.5,0.5c0,0.3,0.2,0.5,0.5,0.5
					C64.4,43.3,64.6,43.1,64.6,42.8z"/>
				<path fill="#41AEB5" d="M66.4,40.8c0.2,0,0.4,0.1,0.5,0.1l0.1-0.5c-0.2-0.1-0.4-0.1-0.7-0.1c-1,0-1.5,0.6-1.5,1.5
					c0,0.9,0.6,1.4,1.4,1.4c0.3,0,0.6-0.1,0.8-0.1l-0.1-0.5c-0.1,0.1-0.3,0.1-0.5,0.1c-0.5,0-0.8-0.3-0.8-0.9
					C65.5,41.1,65.8,40.8,66.4,40.8z"/>
				<path fill="#41AEB5" d="M70.2,41.6c0-0.8-0.5-1.4-1.4-1.4c-0.8,0-1.4,0.6-1.4,1.5c0,0.9,0.6,1.4,1.4,1.4
					C69.5,43,70.2,42.6,70.2,41.6z M68.1,41.6c0-0.5,0.2-0.9,0.7-0.9c0.5,0,0.7,0.5,0.7,0.9c0,0.6-0.3,0.9-0.7,0.9
					C68.4,42.5,68.1,42.1,68.1,41.6z"/>
				<path fill="#41AEB5" d="M74.1,40.2c-0.2,0-0.4,0.1-0.6,0.2c-0.1,0.1-0.2,0.2-0.3,0.3h0c-0.1-0.3-0.4-0.5-0.8-0.5
					c-0.5,0-0.7,0.3-0.8,0.5h0l0-0.4h-0.6c0,0.2,0,0.5,0,0.8V43h0.7v-1.6c0-0.1,0-0.2,0-0.2c0.1-0.2,0.2-0.4,0.5-0.4
					c0.3,0,0.5,0.3,0.5,0.7V43h0.7v-1.6c0-0.1,0-0.2,0-0.2c0.1-0.2,0.2-0.4,0.5-0.4c0.3,0,0.5,0.3,0.5,0.7V43H75v-1.6
					C75,40.5,74.5,40.2,74.1,40.2z"/>
			</g>
		</g>
	</g>
</g>
<g id="ICONS_-_SKRILL_PURPLE">
	<g>
		<g>
			<g>
				<path fill="#811E68" d="M54.4,55.7c0-0.2-0.1-0.3-0.2-0.5c-0.1-0.1-0.3-0.2-0.5-0.2c-0.2,0-0.3,0.1-0.5,0.2l-3.5,3.6l0-8.4
					c0-0.4-0.3-0.7-0.7-0.7c-0.4,0-0.7,0.3-0.7,0.7l0,8.4l-3.5-3.6c-0.1-0.1-0.3-0.2-0.5-0.2c-0.2,0-0.3,0.1-0.5,0.2
					c-0.1,0.1-0.2,0.3-0.2,0.5c0,0.2,0.1,0.3,0.2,0.5l4.7,4.7c0.1,0.1,0.3,0.2,0.5,0.2c0.2,0,0.3-0.1,0.5-0.2l4.7-4.7
					C54.4,56,54.4,55.9,54.4,55.7z"/>
				<path fill="#811E68" d="M55.3,72.4c-3.6,0.1-5.4,1.7-5.4,4.9v6.2h3.9v-5c0-1.9,0.3-2.8,2.5-2.8v-3.2
					C55.9,72.4,55.3,72.4,55.3,72.4z"/>
				<polygon fill="#811E68" points="63,83.5 66.9,83.5 66.9,68.5 63,69.2 				"/>
				<polygon fill="#811E68" points="68.7,83.5 72.6,83.5 72.6,68.5 68.7,69.2 				"/>
				<rect x="57.5" y="72.5" fill="#811E68" width="3.9" height="10.9"/>
				<circle fill="#811E68" cx="59.4" cy="69.6" r="1.9"/>
				<path fill="#811E68" d="M31.7,74.1c-0.5,0-1.6-0.1-1.6-1.1c0-1.2,1.6-1.2,2.3-1.2c1.1,0,2.5,0.3,3.5,0.6c0,0,0.6,0.2,1,0.4l0,0
					v0v-3.3l-0.1,0c-1.2-0.4-2.6-0.8-5.1-0.8c-4.4,0-6,2.6-6,4.8c0,1.3,0.5,4.2,5.6,4.6c0.4,0,1.6,0.1,1.6,1.2
					c0,0.9-0.9,1.4-2.5,1.4c-1.7,0-3.4-0.4-4.4-0.8v3.5c1.5,0.4,3.2,0.6,5.2,0.6c4.3,0,6.2-2.4,6.2-4.8
					C37.5,76.1,35.3,74.3,31.7,74.1z"/>
				<path fill="#811E68" d="M44.7,72.5c-0.1,0.2-0.7,2-2.2,3.8v-7.8l-4,0.8v14.2h4v-4.4c1.2,1.7,1.7,4.4,1.7,4.4H49
					c-0.5-2-2.6-5.6-2.6-5.6c1.9-2.4,2.7-4.9,2.8-5.3H44.7z"/>
				<path fill="#811E68" d="M75.8,28.1c0-4.8-3.9-8.7-8.7-8.7c-4.8,0-8.7,3.9-8.7,8.7c0,4.8,3.9,8.7,8.7,8.7
					C71.8,36.8,75.8,32.9,75.8,28.1z M67,34.4c-3.5,0-6.4-2.9-6.4-6.4c0-3.5,2.9-6.4,6.4-6.4c3.5,0,6.4,2.9,6.4,6.4
					C73.4,31.6,70.6,34.4,67,34.4z"/>
				<path fill="#811E68" d="M34.2,36.8h3.6c-3-2.1-4.9-5.2-4.9-8.7c0-3.5,1.9-6.7,4.9-8.7h-3.6c-2.3,2.4-3.7,5.4-3.7,8.7
					C30.6,31.4,31.9,34.4,34.2,36.8z"/>
				<path fill="#811E68" d="M41.1,36.8h3.6c-3-2.1-4.9-5.2-4.9-8.7c0-3.5,1.9-6.7,4.9-8.7h-3.6c-2.3,2.4-3.7,5.4-3.7,8.7
					C37.5,31.4,38.9,34.4,41.1,36.8z"/>
				<path fill="#811E68" d="M30.9,36.8c-3-2.1-4.9-5.2-4.9-8.7c0-3.5,1.9-6.7,4.9-8.7h-3.6c-2.3,2.4-3.7,5.4-3.7,8.7
					c0,3.3,1.4,6.4,3.7,8.7H30.9z"/>
				<path fill="#811E68" d="M48.1,36.8h3.6c-3-2.1-4.9-5.2-4.9-8.7c0-3.5,1.9-6.7,4.9-8.7h-3.6c-2.3,2.4-3.7,5.4-3.7,8.7
					C44.4,31.4,45.8,34.4,48.1,36.8z"/>
				<path fill="#811E68" d="M55,36.8h3.6c-3-2.1-4.9-5.2-4.9-8.7c0-3.5,1.9-6.7,4.9-8.7H55c-2.3,2.4-3.7,5.4-3.7,8.7
					C51.3,31.4,52.7,34.4,55,36.8z"/>
				<path fill="#811E68" d="M26.5,43v-1.6c0-0.1,0-0.2,0-0.2c0.1-0.2,0.2-0.3,0.4-0.3c0.3,0,0.4,0.2,0.4,0.6V43h0.8v-1.6
					c0-0.8-0.4-1.2-0.9-1.2c-0.2,0-0.4,0.1-0.5,0.1c-0.1,0.1-0.3,0.2-0.4,0.3h0c-0.1-0.3-0.4-0.5-0.8-0.5c-0.5,0-0.7,0.3-0.8,0.4h0
					l0-0.4H24c0,0.2,0,0.5,0,0.9V43h0.8v-1.6c0-0.1,0-0.2,0-0.2c0.1-0.1,0.2-0.3,0.4-0.3c0.3,0,0.4,0.2,0.4,0.6V43H26.5z"/>
				<path fill="#811E68" d="M28.8,41.7c0,0.9,0.6,1.4,1.4,1.4c0.7,0,1.5-0.5,1.5-1.5c0-0.8-0.6-1.4-1.4-1.4
					C29.4,40.2,28.8,40.8,28.8,41.7z M30.8,41.6c0,0.5-0.2,0.8-0.5,0.8c-0.4,0-0.6-0.4-0.6-0.8c0-0.4,0.2-0.8,0.6-0.8
					C30.6,40.8,30.8,41.2,30.8,41.6z"/>
				<path fill="#811E68" d="M35,43v-1.6c0-0.8-0.4-1.2-1-1.2c-0.5,0-0.7,0.3-0.9,0.4h0l0-0.4h-0.7c0,0.2,0,0.5,0,0.9V43h0.9v-1.6
					c0-0.1,0-0.2,0-0.2c0.1-0.2,0.2-0.3,0.4-0.3c0.3,0,0.4,0.2,0.4,0.6V43H35z"/>
				<path fill="#811E68" d="M37,40.2c-1,0-1.4,0.8-1.4,1.5c0,0.9,0.5,1.4,1.5,1.4c0.4,0,0.7-0.1,1-0.2L38,42.3
					c-0.2,0.1-0.5,0.1-0.8,0.1c-0.4,0-0.8-0.2-0.8-0.5h1.8c0-0.1,0-0.2,0-0.3C38.3,40.9,37.9,40.2,37,40.2z M36.5,41.3
					c0-0.2,0.2-0.6,0.5-0.6c0.4,0,0.5,0.3,0.5,0.6H36.5z"/>
				<path fill="#811E68" d="M39.2,43.4c-0.1,0.1-0.3,0.1-0.4,0.1l0.2,0.7c0.2,0,0.5-0.1,0.8-0.4c0.3-0.3,0.6-0.7,1-1.8l0.6-1.8h-0.9
					l-0.3,1.4c0,0.2-0.1,0.4-0.1,0.5h0c0-0.1-0.1-0.4-0.1-0.5l-0.4-1.4h-1l1,2.5c0,0.1,0,0.1,0,0.1c0,0,0,0.1,0,0.1
					C39.5,43.2,39.4,43.3,39.2,43.4z"/>
				<path fill="#811E68" d="M42,39v3.2c0,0.3,0,0.6,0,0.8h0.7l0-0.4h0c0.2,0.3,0.5,0.4,0.8,0.4c0.6,0,1.3-0.5,1.3-1.5
					c0-0.8-0.5-1.4-1.1-1.4c-0.4,0-0.7,0.2-0.8,0.4h0V39H42z M42.8,41.3c0.1-0.2,0.3-0.4,0.5-0.4c0.4,0,0.6,0.3,0.6,0.8
					c0,0.5-0.2,0.8-0.6,0.8c-0.2,0-0.4-0.2-0.5-0.4c0,0,0-0.1,0-0.2v-0.4C42.8,41.4,42.8,41.3,42.8,41.3z"/>
				<path fill="#811E68" d="M46.8,40.2c-0.9,0-1.5,0.6-1.5,1.5c0,0.9,0.6,1.4,1.4,1.4c0.7,0,1.5-0.5,1.5-1.5
					C48.2,40.8,47.7,40.2,46.8,40.2z M46.8,42.5c-0.4,0-0.6-0.4-0.6-0.8c0-0.4,0.2-0.8,0.6-0.8c0.4,0,0.5,0.4,0.5,0.8
					C47.3,42.1,47.1,42.5,46.8,42.5z"/>
				<path fill="#811E68" d="M48.8,41.7c0,0.9,0.6,1.4,1.4,1.4c0.7,0,1.5-0.5,1.5-1.5c0-0.8-0.6-1.4-1.4-1.4
					C49.3,40.2,48.8,40.8,48.8,41.7z M50.7,41.6c0,0.5-0.2,0.8-0.5,0.8c-0.4,0-0.6-0.4-0.6-0.8c0-0.4,0.2-0.8,0.6-0.8
					C50.6,40.8,50.7,41.2,50.7,41.6z"/>
				<path fill="#811E68" d="M52.3,39v4h0.9v-0.9l0.2-0.3L54,43h1.1L54,41.4l1-1.1h-1l-0.6,0.8c-0.1,0.1-0.1,0.2-0.2,0.3h0V39H52.3z"
					/>
				<path fill="#811E68" d="M57.6,42.3c-0.2,0.1-0.5,0.1-0.8,0.1c-0.4,0-0.8-0.2-0.8-0.5h1.8c0-0.1,0-0.2,0-0.3
					c0-0.7-0.3-1.4-1.2-1.4c-1,0-1.4,0.8-1.4,1.5c0,0.9,0.5,1.4,1.5,1.4c0.4,0,0.7-0.1,1-0.2L57.6,42.3z M56.6,40.8
					c0.4,0,0.5,0.3,0.5,0.6h-1C56.1,41.1,56.2,40.8,56.6,40.8z"/>
				<path fill="#811E68" d="M59.4,43v-1.4c0-0.1,0-0.1,0-0.2c0.1-0.3,0.3-0.4,0.6-0.4c0.1,0,0.2,0,0.2,0v-0.8c-0.1,0-0.1,0-0.2,0
					c-0.3,0-0.6,0.2-0.7,0.6h0l0-0.5h-0.7c0,0.2,0,0.5,0,0.9V43H59.4z"/>
				<path fill="#811E68" d="M62,41.3c-0.3-0.1-0.4-0.2-0.4-0.3c0-0.1,0.1-0.2,0.3-0.2c0.2,0,0.5,0.1,0.6,0.2l0.1-0.6
					c-0.2-0.1-0.5-0.2-0.8-0.2c-0.7,0-1.1,0.4-1.1,0.9c0,0.3,0.2,0.6,0.8,0.8c0.3,0.1,0.4,0.2,0.4,0.3c0,0.1-0.1,0.2-0.4,0.2
					c-0.3,0-0.6-0.1-0.7-0.2l-0.2,0.6c0.2,0.1,0.5,0.2,0.9,0.2c0.8,0,1.2-0.4,1.2-0.9C62.7,41.8,62.5,41.5,62,41.3z"/>
				<path fill="#811E68" d="M64.6,42.8c0-0.3-0.2-0.5-0.5-0.5c-0.3,0-0.5,0.2-0.5,0.5c0,0.3,0.2,0.5,0.5,0.5
					C64.4,43.3,64.6,43.1,64.6,42.8z"/>
				<path fill="#811E68" d="M66.4,40.8c0.2,0,0.4,0.1,0.5,0.1l0.1-0.5c-0.2-0.1-0.4-0.1-0.7-0.1c-1,0-1.5,0.6-1.5,1.5
					c0,0.9,0.6,1.4,1.4,1.4c0.3,0,0.6-0.1,0.8-0.1l-0.1-0.5c-0.1,0.1-0.3,0.1-0.5,0.1c-0.5,0-0.8-0.3-0.8-0.9
					C65.5,41.1,65.8,40.8,66.4,40.8z"/>
				<path fill="#811E68" d="M70.2,41.6c0-0.8-0.5-1.4-1.4-1.4c-0.8,0-1.4,0.6-1.4,1.5c0,0.9,0.6,1.4,1.4,1.4
					C69.5,43,70.2,42.6,70.2,41.6z M68.1,41.6c0-0.5,0.2-0.9,0.7-0.9c0.5,0,0.7,0.5,0.7,0.9c0,0.6-0.3,0.9-0.7,0.9
					C68.4,42.5,68.1,42.1,68.1,41.6z"/>
				<path fill="#811E68" d="M74.1,40.2c-0.2,0-0.4,0.1-0.6,0.2c-0.1,0.1-0.2,0.2-0.3,0.3h0c-0.1-0.3-0.4-0.5-0.8-0.5
					c-0.5,0-0.7,0.3-0.8,0.5h0l0-0.4h-0.6c0,0.2,0,0.5,0,0.8V43h0.7v-1.6c0-0.1,0-0.2,0-0.2c0.1-0.2,0.2-0.4,0.5-0.4
					c0.3,0,0.5,0.3,0.5,0.7V43h0.7v-1.6c0-0.1,0-0.2,0-0.2c0.1-0.2,0.2-0.4,0.5-0.4c0.3,0,0.5,0.3,0.5,0.7V43H75v-1.6
					C75,40.5,74.5,40.2,74.1,40.2z"/>
			</g>
		</g>
	</g>
</g>
<g id="ICONS_-_WHITE" display="none">
	<g display="inline">
		<g>
			<g>
				<path fill="#FFFFFF" d="M54.4,55.7c0-0.2-0.1-0.3-0.2-0.5c-0.1-0.1-0.3-0.2-0.5-0.2c-0.2,0-0.3,0.1-0.5,0.2l-3.5,3.6l0-8.4
					c0-0.4-0.3-0.7-0.7-0.7c-0.4,0-0.7,0.3-0.7,0.7l0,8.4l-3.5-3.6c-0.1-0.1-0.3-0.2-0.5-0.2c-0.2,0-0.3,0.1-0.5,0.2
					c-0.1,0.1-0.2,0.3-0.2,0.5c0,0.2,0.1,0.3,0.2,0.5l4.7,4.7c0.1,0.1,0.3,0.2,0.5,0.2c0.2,0,0.3-0.1,0.5-0.2l4.7-4.7
					C54.4,56,54.4,55.9,54.4,55.7z"/>
				<path fill="#FFFFFF" d="M55.3,72.4c-3.6,0.1-5.4,1.7-5.4,4.9v6.2h3.9v-5c0-1.9,0.3-2.8,2.5-2.8v-3.2
					C55.9,72.4,55.3,72.4,55.3,72.4z"/>
				<polygon fill="#FFFFFF" points="63,83.5 66.9,83.5 66.9,68.5 63,69.2 				"/>
				<polygon fill="#FFFFFF" points="68.7,83.5 72.6,83.5 72.6,68.5 68.7,69.2 				"/>
				<rect x="57.5" y="72.5" fill="#FFFFFF" width="3.9" height="10.9"/>
				<circle fill="#FFFFFF" cx="59.4" cy="69.6" r="1.9"/>
				<path fill="#FFFFFF" d="M31.7,74.1c-0.5,0-1.6-0.1-1.6-1.1c0-1.2,1.6-1.2,2.3-1.2c1.1,0,2.5,0.3,3.5,0.6c0,0,0.6,0.2,1,0.4l0,0
					v0v-3.3l-0.1,0c-1.2-0.4-2.6-0.8-5.1-0.8c-4.4,0-6,2.6-6,4.8c0,1.3,0.5,4.2,5.6,4.6c0.4,0,1.6,0.1,1.6,1.2
					c0,0.9-0.9,1.4-2.5,1.4c-1.7,0-3.4-0.4-4.4-0.8v3.5c1.5,0.4,3.2,0.6,5.2,0.6c4.3,0,6.2-2.4,6.2-4.8
					C37.5,76.1,35.3,74.3,31.7,74.1z"/>
				<path fill="#FFFFFF" d="M44.7,72.5c-0.1,0.2-0.7,2-2.2,3.8v-7.8l-4,0.8v14.2h4v-4.4c1.2,1.7,1.7,4.4,1.7,4.4H49
					c-0.5-2-2.6-5.6-2.6-5.6c1.9-2.4,2.7-4.9,2.8-5.3H44.7z"/>
				<path fill="#FFFFFF" d="M75.8,28.1c0-4.8-3.9-8.7-8.7-8.7c-4.8,0-8.7,3.9-8.7,8.7c0,4.8,3.9,8.7,8.7,8.7
					C71.8,36.8,75.8,32.9,75.8,28.1z M67,34.4c-3.5,0-6.4-2.9-6.4-6.4c0-3.5,2.9-6.4,6.4-6.4c3.5,0,6.4,2.9,6.4,6.4
					C73.4,31.6,70.6,34.4,67,34.4z"/>
				<path fill="#FFFFFF" d="M34.2,36.8h3.6c-3-2.1-4.9-5.2-4.9-8.7c0-3.5,1.9-6.7,4.9-8.7h-3.6c-2.3,2.4-3.7,5.4-3.7,8.7
					C30.6,31.4,31.9,34.4,34.2,36.8z"/>
				<path fill="#FFFFFF" d="M41.1,36.8h3.6c-3-2.1-4.9-5.2-4.9-8.7c0-3.5,1.9-6.7,4.9-8.7h-3.6c-2.3,2.4-3.7,5.4-3.7,8.7
					C37.5,31.4,38.9,34.4,41.1,36.8z"/>
				<path fill="#FFFFFF" d="M30.9,36.8c-3-2.1-4.9-5.2-4.9-8.7c0-3.5,1.9-6.7,4.9-8.7h-3.6c-2.3,2.4-3.7,5.4-3.7,8.7
					c0,3.3,1.4,6.4,3.7,8.7H30.9z"/>
				<path fill="#FFFFFF" d="M48.1,36.8h3.6c-3-2.1-4.9-5.2-4.9-8.7c0-3.5,1.9-6.7,4.9-8.7h-3.6c-2.3,2.4-3.7,5.4-3.7,8.7
					C44.4,31.4,45.8,34.4,48.1,36.8z"/>
				<path fill="#FFFFFF" d="M55,36.8h3.6c-3-2.1-4.9-5.2-4.9-8.7c0-3.5,1.9-6.7,4.9-8.7H55c-2.3,2.4-3.7,5.4-3.7,8.7
					C51.3,31.4,52.7,34.4,55,36.8z"/>
				<path fill="#FFFFFF" d="M26.5,43v-1.6c0-0.1,0-0.2,0-0.2c0.1-0.2,0.2-0.3,0.4-0.3c0.3,0,0.4,0.2,0.4,0.6V43h0.8v-1.6
					c0-0.8-0.4-1.2-0.9-1.2c-0.2,0-0.4,0.1-0.5,0.1c-0.1,0.1-0.3,0.2-0.4,0.3h0c-0.1-0.3-0.4-0.5-0.8-0.5c-0.5,0-0.7,0.3-0.8,0.4h0
					l0-0.4H24c0,0.2,0,0.5,0,0.9V43h0.8v-1.6c0-0.1,0-0.2,0-0.2c0.1-0.1,0.2-0.3,0.4-0.3c0.3,0,0.4,0.2,0.4,0.6V43H26.5z"/>
				<path fill="#FFFFFF" d="M28.8,41.7c0,0.9,0.6,1.4,1.4,1.4c0.7,0,1.5-0.5,1.5-1.5c0-0.8-0.6-1.4-1.4-1.4
					C29.4,40.2,28.8,40.8,28.8,41.7z M30.8,41.6c0,0.5-0.2,0.8-0.5,0.8c-0.4,0-0.6-0.4-0.6-0.8c0-0.4,0.2-0.8,0.6-0.8
					C30.6,40.8,30.8,41.2,30.8,41.6z"/>
				<path fill="#FFFFFF" d="M35,43v-1.6c0-0.8-0.4-1.2-1-1.2c-0.5,0-0.7,0.3-0.9,0.4h0l0-0.4h-0.7c0,0.2,0,0.5,0,0.9V43h0.9v-1.6
					c0-0.1,0-0.2,0-0.2c0.1-0.2,0.2-0.3,0.4-0.3c0.3,0,0.4,0.2,0.4,0.6V43H35z"/>
				<path fill="#FFFFFF" d="M37,40.2c-1,0-1.4,0.8-1.4,1.5c0,0.9,0.5,1.4,1.5,1.4c0.4,0,0.7-0.1,1-0.2L38,42.3
					c-0.2,0.1-0.5,0.1-0.8,0.1c-0.4,0-0.8-0.2-0.8-0.5h1.8c0-0.1,0-0.2,0-0.3C38.3,40.9,37.9,40.2,37,40.2z M36.5,41.3
					c0-0.2,0.2-0.6,0.5-0.6c0.4,0,0.5,0.3,0.5,0.6H36.5z"/>
				<path fill="#FFFFFF" d="M39.2,43.4c-0.1,0.1-0.3,0.1-0.4,0.1l0.2,0.7c0.2,0,0.5-0.1,0.8-0.4c0.3-0.3,0.6-0.7,1-1.8l0.6-1.8h-0.9
					l-0.3,1.4c0,0.2-0.1,0.4-0.1,0.5h0c0-0.1-0.1-0.4-0.1-0.5l-0.4-1.4h-1l1,2.5c0,0.1,0,0.1,0,0.1c0,0,0,0.1,0,0.1
					C39.5,43.2,39.4,43.3,39.2,43.4z"/>
				<path fill="#FFFFFF" d="M42,39v3.2c0,0.3,0,0.6,0,0.8h0.7l0-0.4h0c0.2,0.3,0.5,0.4,0.8,0.4c0.6,0,1.3-0.5,1.3-1.5
					c0-0.8-0.5-1.4-1.1-1.4c-0.4,0-0.7,0.2-0.8,0.4h0V39H42z M42.8,41.3c0.1-0.2,0.3-0.4,0.5-0.4c0.4,0,0.6,0.3,0.6,0.8
					c0,0.5-0.2,0.8-0.6,0.8c-0.2,0-0.4-0.2-0.5-0.4c0,0,0-0.1,0-0.2v-0.4C42.8,41.4,42.8,41.3,42.8,41.3z"/>
				<path fill="#FFFFFF" d="M46.8,40.2c-0.9,0-1.5,0.6-1.5,1.5c0,0.9,0.6,1.4,1.4,1.4c0.7,0,1.5-0.5,1.5-1.5
					C48.2,40.8,47.7,40.2,46.8,40.2z M46.8,42.5c-0.4,0-0.6-0.4-0.6-0.8c0-0.4,0.2-0.8,0.6-0.8c0.4,0,0.5,0.4,0.5,0.8
					C47.3,42.1,47.1,42.5,46.8,42.5z"/>
				<path fill="#FFFFFF" d="M48.8,41.7c0,0.9,0.6,1.4,1.4,1.4c0.7,0,1.5-0.5,1.5-1.5c0-0.8-0.6-1.4-1.4-1.4
					C49.3,40.2,48.8,40.8,48.8,41.7z M50.7,41.6c0,0.5-0.2,0.8-0.5,0.8c-0.4,0-0.6-0.4-0.6-0.8c0-0.4,0.2-0.8,0.6-0.8
					C50.6,40.8,50.7,41.2,50.7,41.6z"/>
				<path fill="#FFFFFF" d="M52.3,39v4h0.9v-0.9l0.2-0.3L54,43h1.1L54,41.4l1-1.1h-1l-0.6,0.8c-0.1,0.1-0.1,0.2-0.2,0.3h0V39H52.3z"
					/>
				<path fill="#FFFFFF" d="M57.6,42.3c-0.2,0.1-0.5,0.1-0.8,0.1c-0.4,0-0.8-0.2-0.8-0.5h1.8c0-0.1,0-0.2,0-0.3
					c0-0.7-0.3-1.4-1.2-1.4c-1,0-1.4,0.8-1.4,1.5c0,0.9,0.5,1.4,1.5,1.4c0.4,0,0.7-0.1,1-0.2L57.6,42.3z M56.6,40.8
					c0.4,0,0.5,0.3,0.5,0.6h-1C56.1,41.1,56.2,40.8,56.6,40.8z"/>
				<path fill="#FFFFFF" d="M59.4,43v-1.4c0-0.1,0-0.1,0-0.2c0.1-0.3,0.3-0.4,0.6-0.4c0.1,0,0.2,0,0.2,0v-0.8c-0.1,0-0.1,0-0.2,0
					c-0.3,0-0.6,0.2-0.7,0.6h0l0-0.5h-0.7c0,0.2,0,0.5,0,0.9V43H59.4z"/>
				<path fill="#FFFFFF" d="M62,41.3c-0.3-0.1-0.4-0.2-0.4-0.3c0-0.1,0.1-0.2,0.3-0.2c0.2,0,0.5,0.1,0.6,0.2l0.1-0.6
					c-0.2-0.1-0.5-0.2-0.8-0.2c-0.7,0-1.1,0.4-1.1,0.9c0,0.3,0.2,0.6,0.8,0.8c0.3,0.1,0.4,0.2,0.4,0.3c0,0.1-0.1,0.2-0.4,0.2
					c-0.3,0-0.6-0.1-0.7-0.2l-0.2,0.6c0.2,0.1,0.5,0.2,0.9,0.2c0.8,0,1.2-0.4,1.2-0.9C62.7,41.8,62.5,41.5,62,41.3z"/>
				<path fill="#FFFFFF" d="M64.6,42.8c0-0.3-0.2-0.5-0.5-0.5c-0.3,0-0.5,0.2-0.5,0.5c0,0.3,0.2,0.5,0.5,0.5
					C64.4,43.3,64.6,43.1,64.6,42.8z"/>
				<path fill="#FFFFFF" d="M66.4,40.8c0.2,0,0.4,0.1,0.5,0.1l0.1-0.5c-0.2-0.1-0.4-0.1-0.7-0.1c-1,0-1.5,0.6-1.5,1.5
					c0,0.9,0.6,1.4,1.4,1.4c0.3,0,0.6-0.1,0.8-0.1l-0.1-0.5c-0.1,0.1-0.3,0.1-0.5,0.1c-0.5,0-0.8-0.3-0.8-0.9
					C65.5,41.1,65.8,40.8,66.4,40.8z"/>
				<path fill="#FFFFFF" d="M70.2,41.6c0-0.8-0.5-1.4-1.4-1.4c-0.8,0-1.4,0.6-1.4,1.5c0,0.9,0.6,1.4,1.4,1.4
					C69.5,43,70.2,42.6,70.2,41.6z M68.1,41.6c0-0.5,0.2-0.9,0.7-0.9c0.5,0,0.7,0.5,0.7,0.9c0,0.6-0.3,0.9-0.7,0.9
					C68.4,42.5,68.1,42.1,68.1,41.6z"/>
				<path fill="#FFFFFF" d="M74.1,40.2c-0.2,0-0.4,0.1-0.6,0.2c-0.1,0.1-0.2,0.2-0.3,0.3h0c-0.1-0.3-0.4-0.5-0.8-0.5
					c-0.5,0-0.7,0.3-0.8,0.5h0l0-0.4h-0.6c0,0.2,0,0.5,0,0.8V43h0.7v-1.6c0-0.1,0-0.2,0-0.2c0.1-0.2,0.2-0.4,0.5-0.4
					c0.3,0,0.5,0.3,0.5,0.7V43h0.7v-1.6c0-0.1,0-0.2,0-0.2c0.1-0.2,0.2-0.4,0.5-0.4c0.3,0,0.5,0.3,0.5,0.7V43H75v-1.6
					C75,40.5,74.5,40.2,74.1,40.2z"/>
			</g>
		</g>
	</g>
</g>
<g id="LABELS">
</g>
</svg>
