<?xml version="1.0" encoding="utf-8"?>
<!-- Generator: Adobe Illustrator 18.1.1, SVG Export Plug-In . SVG Version: 6.00 Build 0)  -->
<svg version="1.1" xmlns="http://www.w3.org/2000/svg" xmlns:xlink="http://www.w3.org/1999/xlink" x="0px" y="0px"
	 viewBox="0 0 100 100" enable-background="new 0 0 100 100" xml:space="preserve">
<g id="GUIDES">
</g>
<g id="ICONS_-_BLACK" display="none">
	<g display="inline">
		<g>
			<g>
				<path d="M60,85l-8.6,8.6l0-10.3l0-20.3c0-0.2-0.1-0.4-0.2-0.6c-0.2-0.4-0.6-0.7-1.1-0.7c-0.5,0-0.9,0.3-1.1,0.7
					c-0.1,0.2-0.2,0.4-0.2,0.6l0,20.3l0,10.3L40.2,85c-0.5-0.5-1.3-0.5-1.8,0c-0.3,0.3-0.4,0.6-0.4,0.9c0,0.3,0.1,0.7,0.4,0.9
					l10.8,10.8c0.5,0.5,1.3,0.5,1.8,0l10.8-10.8c0.5-0.5,0.5-1.3,0-1.8C61.3,84.5,60.5,84.5,60,85z"/>
				<path d="M78.7,19.8H21.3c-0.7,0-1.3,0.6-1.3,1.3v56.5c0,0.7,0.6,1.3,1.3,1.3h21.3c0.7,0,1.3-0.6,1.3-1.3s-0.6-1.3-1.3-1.3H22.6
					V37.6h54.7v38.8H57.5c-0.7,0-1.3,0.6-1.3,1.3s0.6,1.3,1.3,1.3h21.2c0.7,0,1.3-0.6,1.3-1.3V21.1C80,20.4,79.4,19.8,78.7,19.8z
					 M77.4,35H22.6V22.4h54.7V35z"/>
				<path d="M45.8,31.6c1.6,0,2.9-1.3,2.9-2.9c0-1.6-1.3-2.9-2.9-2.9c-1.6,0-2.9,1.3-2.9,2.9C42.9,30.3,44.2,31.6,45.8,31.6z"/>
				<ellipse cx="37.4" cy="28.7" rx="2.9" ry="2.9"/>
				<ellipse cx="29" cy="28.7" rx="2.9" ry="2.9"/>
			</g>
		</g>
	</g>
</g>
<g id="ICONS_-_DARK_PURPLE" display="none">
	<g display="inline">
		<g>
			<g>
				<path fill="#4F2556" d="M60,85l-8.6,8.6l0-10.3l0-20.3c0-0.2-0.1-0.4-0.2-0.6c-0.2-0.4-0.6-0.7-1.1-0.7c-0.5,0-0.9,0.3-1.1,0.7
					c-0.1,0.2-0.2,0.4-0.2,0.6l0,20.3l0,10.3L40.2,85c-0.5-0.5-1.3-0.5-1.8,0c-0.3,0.3-0.4,0.6-0.4,0.9c0,0.3,0.1,0.7,0.4,0.9
					l10.8,10.8c0.5,0.5,1.3,0.5,1.8,0l10.8-10.8c0.5-0.5,0.5-1.3,0-1.8C61.3,84.5,60.5,84.5,60,85z"/>
				<path fill="#4F2556" d="M78.7,19.8H21.3c-0.7,0-1.3,0.6-1.3,1.3v56.5c0,0.7,0.6,1.3,1.3,1.3h21.3c0.7,0,1.3-0.6,1.3-1.3
					s-0.6-1.3-1.3-1.3H22.6V37.6h54.7v38.8H57.5c-0.7,0-1.3,0.6-1.3,1.3s0.6,1.3,1.3,1.3h21.2c0.7,0,1.3-0.6,1.3-1.3V21.1
					C80,20.4,79.4,19.8,78.7,19.8z M77.4,35H22.6V22.4h54.7V35z"/>
				<path fill="#4F2556" d="M45.8,31.6c1.6,0,2.9-1.3,2.9-2.9c0-1.6-1.3-2.9-2.9-2.9c-1.6,0-2.9,1.3-2.9,2.9
					C42.9,30.3,44.2,31.6,45.8,31.6z"/>
				<ellipse fill="#4F2556" cx="37.4" cy="28.7" rx="2.9" ry="2.9"/>
				<ellipse fill="#4F2556" cx="29" cy="28.7" rx="2.9" ry="2.9"/>
			</g>
		</g>
	</g>
</g>
<g id="ICONS_-_WARM_GREY" display="none">
	<g display="inline">
		<g>
			<g>
				<path fill="#534C63" d="M60,85l-8.6,8.6l0-10.3l0-20.3c0-0.2-0.1-0.4-0.2-0.6c-0.2-0.4-0.6-0.7-1.1-0.7c-0.5,0-0.9,0.3-1.1,0.7
					c-0.1,0.2-0.2,0.4-0.2,0.6l0,20.3l0,10.3L40.2,85c-0.5-0.5-1.3-0.5-1.8,0c-0.3,0.3-0.4,0.6-0.4,0.9c0,0.3,0.1,0.7,0.4,0.9
					l10.8,10.8c0.5,0.5,1.3,0.5,1.8,0l10.8-10.8c0.5-0.5,0.5-1.3,0-1.8C61.3,84.5,60.5,84.5,60,85z"/>
				<path fill="#534C63" d="M78.7,19.8H21.3c-0.7,0-1.3,0.6-1.3,1.3v56.5c0,0.7,0.6,1.3,1.3,1.3h21.3c0.7,0,1.3-0.6,1.3-1.3
					s-0.6-1.3-1.3-1.3H22.6V37.6h54.7v38.8H57.5c-0.7,0-1.3,0.6-1.3,1.3s0.6,1.3,1.3,1.3h21.2c0.7,0,1.3-0.6,1.3-1.3V21.1
					C80,20.4,79.4,19.8,78.7,19.8z M77.4,35H22.6V22.4h54.7V35z"/>
				<path fill="#534C63" d="M45.8,31.6c1.6,0,2.9-1.3,2.9-2.9c0-1.6-1.3-2.9-2.9-2.9c-1.6,0-2.9,1.3-2.9,2.9
					C42.9,30.3,44.2,31.6,45.8,31.6z"/>
				<ellipse fill="#534C63" cx="37.4" cy="28.7" rx="2.9" ry="2.9"/>
				<ellipse fill="#534C63" cx="29" cy="28.7" rx="2.9" ry="2.9"/>
			</g>
		</g>
	</g>
</g>
<g id="ICONS_-_SKRILL_TEAL" display="none">
	<g display="inline">
		<g>
			<g>
				<path fill="#41AEB5" d="M60,85l-8.6,8.6l0-10.3l0-20.3c0-0.2-0.1-0.4-0.2-0.6c-0.2-0.4-0.6-0.7-1.1-0.7c-0.5,0-0.9,0.3-1.1,0.7
					c-0.1,0.2-0.2,0.4-0.2,0.6l0,20.3l0,10.3L40.2,85c-0.5-0.5-1.3-0.5-1.8,0c-0.3,0.3-0.4,0.6-0.4,0.9c0,0.3,0.1,0.7,0.4,0.9
					l10.8,10.8c0.5,0.5,1.3,0.5,1.8,0l10.8-10.8c0.5-0.5,0.5-1.3,0-1.8C61.3,84.5,60.5,84.5,60,85z"/>
				<path fill="#41AEB5" d="M78.7,19.8H21.3c-0.7,0-1.3,0.6-1.3,1.3v56.5c0,0.7,0.6,1.3,1.3,1.3h21.3c0.7,0,1.3-0.6,1.3-1.3
					s-0.6-1.3-1.3-1.3H22.6V37.6h54.7v38.8H57.5c-0.7,0-1.3,0.6-1.3,1.3s0.6,1.3,1.3,1.3h21.2c0.7,0,1.3-0.6,1.3-1.3V21.1
					C80,20.4,79.4,19.8,78.7,19.8z M77.4,35H22.6V22.4h54.7V35z"/>
				<path fill="#41AEB5" d="M45.8,31.6c1.6,0,2.9-1.3,2.9-2.9c0-1.6-1.3-2.9-2.9-2.9c-1.6,0-2.9,1.3-2.9,2.9
					C42.9,30.3,44.2,31.6,45.8,31.6z"/>
				<ellipse fill="#41AEB5" cx="37.4" cy="28.7" rx="2.9" ry="2.9"/>
				<ellipse fill="#41AEB5" cx="29" cy="28.7" rx="2.9" ry="2.9"/>
			</g>
		</g>
	</g>
</g>
<g id="ICONS_-_SKRILL_PURPLE">
	<g>
		<g>
			<g>
				<path fill="#811E68" d="M60,85l-8.6,8.6l0-10.3l0-20.3c0-0.2-0.1-0.4-0.2-0.6c-0.2-0.4-0.6-0.7-1.1-0.7c-0.5,0-0.9,0.3-1.1,0.7
					c-0.1,0.2-0.2,0.4-0.2,0.6l0,20.3l0,10.3L40.2,85c-0.5-0.5-1.3-0.5-1.8,0c-0.3,0.3-0.4,0.6-0.4,0.9c0,0.3,0.1,0.7,0.4,0.9
					l10.8,10.8c0.5,0.5,1.3,0.5,1.8,0l10.8-10.8c0.5-0.5,0.5-1.3,0-1.8C61.3,84.5,60.5,84.5,60,85z"/>
				<path fill="#811E68" d="M78.7,19.8H21.3c-0.7,0-1.3,0.6-1.3,1.3v56.5c0,0.7,0.6,1.3,1.3,1.3h21.3c0.7,0,1.3-0.6,1.3-1.3
					s-0.6-1.3-1.3-1.3H22.6V37.6h54.7v38.8H57.5c-0.7,0-1.3,0.6-1.3,1.3s0.6,1.3,1.3,1.3h21.2c0.7,0,1.3-0.6,1.3-1.3V21.1
					C80,20.4,79.4,19.8,78.7,19.8z M77.4,35H22.6V22.4h54.7V35z"/>
				<path fill="#811E68" d="M45.8,31.6c1.6,0,2.9-1.3,2.9-2.9c0-1.6-1.3-2.9-2.9-2.9c-1.6,0-2.9,1.3-2.9,2.9
					C42.9,30.3,44.2,31.6,45.8,31.6z"/>
				<ellipse fill="#811E68" cx="37.4" cy="28.7" rx="2.9" ry="2.9"/>
				<ellipse fill="#811E68" cx="29" cy="28.7" rx="2.9" ry="2.9"/>
			</g>
		</g>
	</g>
</g>
<g id="ICONS_-_WHITE" display="none">
	<g display="inline">
		<g>
			<g>
				<path fill="#FFFFFF" d="M60,85l-8.6,8.6l0-10.3l0-20.3c0-0.2-0.1-0.4-0.2-0.6c-0.2-0.4-0.6-0.7-1.1-0.7c-0.5,0-0.9,0.3-1.1,0.7
					c-0.1,0.2-0.2,0.4-0.2,0.6l0,20.3l0,10.3L40.2,85c-0.5-0.5-1.3-0.5-1.8,0c-0.3,0.3-0.4,0.6-0.4,0.9c0,0.3,0.1,0.7,0.4,0.9
					l10.8,10.8c0.5,0.5,1.3,0.5,1.8,0l10.8-10.8c0.5-0.5,0.5-1.3,0-1.8C61.3,84.5,60.5,84.5,60,85z"/>
				<path fill="#FFFFFF" d="M78.7,19.8H21.3c-0.7,0-1.3,0.6-1.3,1.3v56.5c0,0.7,0.6,1.3,1.3,1.3h21.3c0.7,0,1.3-0.6,1.3-1.3
					s-0.6-1.3-1.3-1.3H22.6V37.6h54.7v38.8H57.5c-0.7,0-1.3,0.6-1.3,1.3s0.6,1.3,1.3,1.3h21.2c0.7,0,1.3-0.6,1.3-1.3V21.1
					C80,20.4,79.4,19.8,78.7,19.8z M77.4,35H22.6V22.4h54.7V35z"/>
				<path fill="#FFFFFF" d="M45.8,31.6c1.6,0,2.9-1.3,2.9-2.9c0-1.6-1.3-2.9-2.9-2.9c-1.6,0-2.9,1.3-2.9,2.9
					C42.9,30.3,44.2,31.6,45.8,31.6z"/>
				<ellipse fill="#FFFFFF" cx="37.4" cy="28.7" rx="2.9" ry="2.9"/>
				<ellipse fill="#FFFFFF" cx="29" cy="28.7" rx="2.9" ry="2.9"/>
			</g>
		</g>
	</g>
</g>
<g id="LABELS">
</g>
</svg>
