<?xml version="1.0" encoding="utf-8"?>
<!-- Generator: Adobe Illustrator 18.1.1, SVG Export Plug-In . SVG Version: 6.00 Build 0)  -->
<svg version="1.1" xmlns="http://www.w3.org/2000/svg" xmlns:xlink="http://www.w3.org/1999/xlink" x="0px" y="0px"
	 viewBox="0 0 100 100" enable-background="new 0 0 100 100" xml:space="preserve">
<g id="GUIDES">
</g>
<g id="ICONS_-_BLACK" display="none">
	<g display="inline">
		<g>
			<g>
				<path d="M76.5,77.6l-0.2-0.2C75,76.5,74.4,76,72.9,76c-2.1,0-4.1,1-5.4,2.6l-0.1,0.2l-0.1-0.2C66,77,64.1,76,62,76
					c-2.1,0-4.1,1-5.4,2.6l-0.1,0.2l-0.1-0.2C55.1,77,53.1,76,51,76c-2.1,0-4.1,1-5.4,2.6l-0.1,0.2l-0.1-0.2
					C44.2,77,42.2,76,40.1,76c-2.1,0-4.1,1-5.4,2.6l-0.1,0.2l-0.1-0.2C33.2,77,31.3,76,29.1,76c-1.4,0-2.8,0.4-3.9,1.3L25,77.5V21.1
					l0.2,0.2c1.2,0.8,2.5,1.3,3.9,1.3c2.1,0,4.1-1,5.4-2.6l0.1-0.2l0.1,0.2c1.3,1.7,3.2,2.6,5.4,2.6c2.1,0,4.1-1,5.4-2.6l0.1-0.2
					l0.1,0.2c1.3,1.7,3.2,2.6,5.4,2.6s4.1-1,5.4-2.6l0.1-0.2l0.1,0.2c1.3,1.7,3.2,2.6,5.4,2.6c2.1,0,4.1-1,5.4-2.6l0.1-0.2l0.1,0.2
					c1.3,1.7,2.2,2.6,4.4,2.6c1.5,0,3.1-0.5,4.4-1.4l0.2-0.2v5.8c0,0.7,0.6,1.4,1.3,1.4c0.7,0,1.3-0.5,1.3-1.2l0-9.8c0,0,0,0,0,0
					s0,0,0,0l0-0.2h0c-0.1-0.7-0.7-1.2-1.4-1.2c-0.7,0-1.2,0.5-1.3,1.2h0L76,17.7c-0.7,1.2-2.5,2.2-4.1,2.2c-1.5,0-1.9-0.9-2.7-2.2
					L68.9,17h0c-0.1-0.7-0.7-1.2-1.4-1.2S66.1,16.4,66,17h0l-0.4,0.7c-0.7,1.4-2.1,2.2-3.7,2.2c-1.5,0-2.9-0.9-3.7-2.2L57.9,17h0
					c-0.1-0.7-0.7-1.2-1.4-1.2c-0.7,0-1.3,0.5-1.4,1.2h0l-0.4,0.7c-0.7,1.4-2.1,2.2-3.7,2.2c-1.5,0-2.9-0.9-3.7-2.2L47,17.1
					c-0.1-0.7-0.7-1.2-1.4-1.2c-0.7,0-1.3,0.5-1.4,1.2h0l-0.4,0.7c-0.7,1.4-2.1,2.2-3.7,2.2c-1.5,0-2.9-0.9-3.7-2.2L36,17h0
					c-0.1-0.7-0.7-1.2-1.4-1.2c-0.7,0-1.3,0.5-1.4,1.2l-0.4,0.7c-0.7,1.4-2.1,2.2-3.7,2.2c-1.5,0-2.9-0.9-3.7-2.2l-0.2-0.4
					c-0.1-0.7-0.7-1.4-1.4-1.4c-0.7,0-1.3,0.5-1.4,1.2h0v0.2v64.4v0.1h0c0.1,0.7,0.6,1.2,1.4,1.2c0.8,0,1.3-0.6,1.3-1.3c0,0,0,0,0,0
					l0.3-0.6c0.7-1.5,2.1-2.4,3.7-2.4c1.6,0,3,0.9,3.7,2.4l0.3,0.6c0,0,0,0,0,0c0,0.8,0.6,1.5,1.4,1.5c0.8,0,1.4-0.6,1.4-1.4
					l0.3-0.7c0.7-1.5,2.1-2.4,3.7-2.4c1.6,0,3,0.9,3.7,2.4l0.3,0.7c0,0.8,0.6,1.4,1.4,1.4c0.8,0,1.4-0.7,1.4-1.5c0,0,0,0,0,0
					l0.3-0.6c0.7-1.5,2.1-2.4,3.7-2.4c1.6,0,3,0.9,3.7,2.4l0.3,0.6c0,0,0,0,0,0c0,0.8,0.6,1.5,1.4,1.5c0.8,0,1.4-0.6,1.4-1.4
					l0.3-0.7c0.7-1.5,2.1-2.4,3.7-2.4c1.6,0,3,0.9,3.7,2.4l0.3,0.6c0,0,0,0,0,0c0,0.8,0.6,1.5,1.4,1.5s1.5-0.7,1.5-1.5
					c0,0,0,0,0-0.1l0.3-0.6c0.7-1.5,2.1-2.4,3.7-2.4c1.7,0,2.6,1,3.2,2.4l0.3,0.7c0,0.7,0.6,1.3,1.3,1.3c0.7,0,1.3-0.5,1.4-1.2h0
					v-0.1V70.3l-2.6,0.2V77.6z"/>
				<path d="M77.2,33.5c-8.6,0-15.6,7-15.6,15.6s7,15.6,15.6,15.6c8.6,0,15.6-7,15.6-15.6S85.8,33.5,77.2,33.5z M77.2,62.2
					c-7.2,0-13.1-5.9-13.1-13.1S70,36.1,77.2,36.1s13.1,5.9,13.1,13.1S84.4,62.2,77.2,62.2z"/>
				<path d="M83.6,43.4l-10,10l-2.8-2.8c-0.5-0.5-1.3-0.5-1.8,0c-0.2,0.2-0.4,0.6-0.4,0.9s0.1,0.7,0.4,0.9l3.7,3.7
					c0.2,0.2,0.6,0.4,0.9,0.4c0.3,0,0.7-0.1,0.9-0.4l10.9-10.9c0.5-0.5,0.5-1.3,0-1.8C84.9,42.9,84.1,42.9,83.6,43.4z"/>
				<path d="M52.4,47.4H32.8c-0.7,0-1.3,0.6-1.3,1.3c0,0.7,0.6,1.3,1.3,1.3h19.5c0.7,0,1.3-0.6,1.3-1.3C53.6,48,53.1,47.4,52.4,47.4
					z"/>
				<path d="M52.4,40.1H32.8c-0.7,0-1.3,0.6-1.3,1.3c0,0.7,0.6,1.3,1.3,1.3h19.5c0.7,0,1.3-0.6,1.3-1.3
					C53.6,40.7,53.1,40.1,52.4,40.1z"/>
				<path d="M52.4,32.9H32.8c-0.7,0-1.3,0.6-1.3,1.3c0,0.7,0.6,1.3,1.3,1.3h19.5c0.7,0,1.3-0.6,1.3-1.3
					C53.6,33.5,53.1,32.9,52.4,32.9z"/>
			</g>
		</g>
		<circle cx="77.8" cy="70.4" r="1.3"/>
	</g>
</g>
<g id="ICONS_-_DARK_PURPLE" display="none">
	<g display="inline">
		<g>
			<g>
				<path fill="#4F2556" d="M76.5,77.6l-0.2-0.2C75,76.5,74.4,76,72.9,76c-2.1,0-4.1,1-5.4,2.6l-0.1,0.2l-0.1-0.2
					C66,77,64.1,76,62,76c-2.1,0-4.1,1-5.4,2.6l-0.1,0.2l-0.1-0.2C55.1,77,53.1,76,51,76c-2.1,0-4.1,1-5.4,2.6l-0.1,0.2l-0.1-0.2
					C44.2,77,42.2,76,40.1,76c-2.1,0-4.1,1-5.4,2.6l-0.1,0.2l-0.1-0.2C33.2,77,31.3,76,29.1,76c-1.4,0-2.8,0.4-3.9,1.3L25,77.5V21.1
					l0.2,0.2c1.2,0.8,2.5,1.3,3.9,1.3c2.1,0,4.1-1,5.4-2.6l0.1-0.2l0.1,0.2c1.3,1.7,3.2,2.6,5.4,2.6c2.1,0,4.1-1,5.4-2.6l0.1-0.2
					l0.1,0.2c1.3,1.7,3.2,2.6,5.4,2.6s4.1-1,5.4-2.6l0.1-0.2l0.1,0.2c1.3,1.7,3.2,2.6,5.4,2.6c2.1,0,4.1-1,5.4-2.6l0.1-0.2l0.1,0.2
					c1.3,1.7,2.2,2.6,4.4,2.6c1.5,0,3.1-0.5,4.4-1.4l0.2-0.2v5.8c0,0.7,0.6,1.4,1.3,1.4c0.7,0,1.3-0.5,1.3-1.2l0-9.8c0,0,0,0,0,0
					s0,0,0,0l0-0.2h0c-0.1-0.7-0.7-1.2-1.4-1.2c-0.7,0-1.2,0.5-1.3,1.2h0L76,17.7c-0.7,1.2-2.5,2.2-4.1,2.2c-1.5,0-1.9-0.9-2.7-2.2
					L68.9,17h0c-0.1-0.7-0.7-1.2-1.4-1.2S66.1,16.4,66,17h0l-0.4,0.7c-0.7,1.4-2.1,2.2-3.7,2.2c-1.5,0-2.9-0.9-3.7-2.2L57.9,17h0
					c-0.1-0.7-0.7-1.2-1.4-1.2c-0.7,0-1.3,0.5-1.4,1.2h0l-0.4,0.7c-0.7,1.4-2.1,2.2-3.7,2.2c-1.5,0-2.9-0.9-3.7-2.2L47,17.1
					c-0.1-0.7-0.7-1.2-1.4-1.2c-0.7,0-1.3,0.5-1.4,1.2h0l-0.4,0.7c-0.7,1.4-2.1,2.2-3.7,2.2c-1.5,0-2.9-0.9-3.7-2.2L36,17h0
					c-0.1-0.7-0.7-1.2-1.4-1.2c-0.7,0-1.3,0.5-1.4,1.2l-0.4,0.7c-0.7,1.4-2.1,2.2-3.7,2.2c-1.5,0-2.9-0.9-3.7-2.2l-0.2-0.4
					c-0.1-0.7-0.7-1.4-1.4-1.4c-0.7,0-1.3,0.5-1.4,1.2h0v0.2v64.4v0.1h0c0.1,0.7,0.6,1.2,1.4,1.2c0.8,0,1.3-0.6,1.3-1.3c0,0,0,0,0,0
					l0.3-0.6c0.7-1.5,2.1-2.4,3.7-2.4c1.6,0,3,0.9,3.7,2.4l0.3,0.6c0,0,0,0,0,0c0,0.8,0.6,1.5,1.4,1.5c0.8,0,1.4-0.6,1.4-1.4
					l0.3-0.7c0.7-1.5,2.1-2.4,3.7-2.4c1.6,0,3,0.9,3.7,2.4l0.3,0.7c0,0.8,0.6,1.4,1.4,1.4c0.8,0,1.4-0.7,1.4-1.5c0,0,0,0,0,0
					l0.3-0.6c0.7-1.5,2.1-2.4,3.7-2.4c1.6,0,3,0.9,3.7,2.4l0.3,0.6c0,0,0,0,0,0c0,0.8,0.6,1.5,1.4,1.5c0.8,0,1.4-0.6,1.4-1.4
					l0.3-0.7c0.7-1.5,2.1-2.4,3.7-2.4c1.6,0,3,0.9,3.7,2.4l0.3,0.6c0,0,0,0,0,0c0,0.8,0.6,1.5,1.4,1.5s1.5-0.7,1.5-1.5
					c0,0,0,0,0-0.1l0.3-0.6c0.7-1.5,2.1-2.4,3.7-2.4c1.7,0,2.6,1,3.2,2.4l0.3,0.7c0,0.7,0.6,1.3,1.3,1.3c0.7,0,1.3-0.5,1.4-1.2h0
					v-0.1V70.3l-2.6,0.2V77.6z"/>
				<path fill="#4F2556" d="M77.2,33.5c-8.6,0-15.6,7-15.6,15.6s7,15.6,15.6,15.6c8.6,0,15.6-7,15.6-15.6S85.8,33.5,77.2,33.5z
					 M77.2,62.2c-7.2,0-13.1-5.9-13.1-13.1S70,36.1,77.2,36.1s13.1,5.9,13.1,13.1S84.4,62.2,77.2,62.2z"/>
				<path fill="#4F2556" d="M83.6,43.4l-10,10l-2.8-2.8c-0.5-0.5-1.3-0.5-1.8,0c-0.2,0.2-0.4,0.6-0.4,0.9s0.1,0.7,0.4,0.9l3.7,3.7
					c0.2,0.2,0.6,0.4,0.9,0.4c0.3,0,0.7-0.1,0.9-0.4l10.9-10.9c0.5-0.5,0.5-1.3,0-1.8C84.9,42.9,84.1,42.9,83.6,43.4z"/>
				<path fill="#4F2556" d="M52.4,47.4H32.8c-0.7,0-1.3,0.6-1.3,1.3c0,0.7,0.6,1.3,1.3,1.3h19.5c0.7,0,1.3-0.6,1.3-1.3
					C53.6,48,53.1,47.4,52.4,47.4z"/>
				<path fill="#4F2556" d="M52.4,40.1H32.8c-0.7,0-1.3,0.6-1.3,1.3c0,0.7,0.6,1.3,1.3,1.3h19.5c0.7,0,1.3-0.6,1.3-1.3
					C53.6,40.7,53.1,40.1,52.4,40.1z"/>
				<path fill="#4F2556" d="M52.4,32.9H32.8c-0.7,0-1.3,0.6-1.3,1.3c0,0.7,0.6,1.3,1.3,1.3h19.5c0.7,0,1.3-0.6,1.3-1.3
					C53.6,33.5,53.1,32.9,52.4,32.9z"/>
			</g>
		</g>
		<circle fill="#4F2556" cx="77.8" cy="70.4" r="1.3"/>
	</g>
</g>
<g id="ICONS_-_WARM_GREY" display="none">
	<g display="inline">
		<g>
			<g>
				<path fill="#534C63" d="M76.5,77.6l-0.2-0.2C75,76.5,74.4,76,72.9,76c-2.1,0-4.1,1-5.4,2.6l-0.1,0.2l-0.1-0.2
					C66,77,64.1,76,62,76c-2.1,0-4.1,1-5.4,2.6l-0.1,0.2l-0.1-0.2C55.1,77,53.1,76,51,76c-2.1,0-4.1,1-5.4,2.6l-0.1,0.2l-0.1-0.2
					C44.2,77,42.2,76,40.1,76c-2.1,0-4.1,1-5.4,2.6l-0.1,0.2l-0.1-0.2C33.2,77,31.3,76,29.1,76c-1.4,0-2.8,0.4-3.9,1.3L25,77.5V21.1
					l0.2,0.2c1.2,0.8,2.5,1.3,3.9,1.3c2.1,0,4.1-1,5.4-2.6l0.1-0.2l0.1,0.2c1.3,1.7,3.2,2.6,5.4,2.6c2.1,0,4.1-1,5.4-2.6l0.1-0.2
					l0.1,0.2c1.3,1.7,3.2,2.6,5.4,2.6s4.1-1,5.4-2.6l0.1-0.2l0.1,0.2c1.3,1.7,3.2,2.6,5.4,2.6c2.1,0,4.1-1,5.4-2.6l0.1-0.2l0.1,0.2
					c1.3,1.7,2.2,2.6,4.4,2.6c1.5,0,3.1-0.5,4.4-1.4l0.2-0.2v5.8c0,0.7,0.6,1.4,1.3,1.4c0.7,0,1.3-0.5,1.3-1.2l0-9.8c0,0,0,0,0,0
					s0,0,0,0l0-0.2h0c-0.1-0.7-0.7-1.2-1.4-1.2c-0.7,0-1.2,0.5-1.3,1.2h0L76,17.7c-0.7,1.2-2.5,2.2-4.1,2.2c-1.5,0-1.9-0.9-2.7-2.2
					L68.9,17h0c-0.1-0.7-0.7-1.2-1.4-1.2S66.1,16.4,66,17h0l-0.4,0.7c-0.7,1.4-2.1,2.2-3.7,2.2c-1.5,0-2.9-0.9-3.7-2.2L57.9,17h0
					c-0.1-0.7-0.7-1.2-1.4-1.2c-0.7,0-1.3,0.5-1.4,1.2h0l-0.4,0.7c-0.7,1.4-2.1,2.2-3.7,2.2c-1.5,0-2.9-0.9-3.7-2.2L47,17.1
					c-0.1-0.7-0.7-1.2-1.4-1.2c-0.7,0-1.3,0.5-1.4,1.2h0l-0.4,0.7c-0.7,1.4-2.1,2.2-3.7,2.2c-1.5,0-2.9-0.9-3.7-2.2L36,17h0
					c-0.1-0.7-0.7-1.2-1.4-1.2c-0.7,0-1.3,0.5-1.4,1.2l-0.4,0.7c-0.7,1.4-2.1,2.2-3.7,2.2c-1.5,0-2.9-0.9-3.7-2.2l-0.2-0.4
					c-0.1-0.7-0.7-1.4-1.4-1.4c-0.7,0-1.3,0.5-1.4,1.2h0v0.2v64.4v0.1h0c0.1,0.7,0.6,1.2,1.4,1.2c0.8,0,1.3-0.6,1.3-1.3c0,0,0,0,0,0
					l0.3-0.6c0.7-1.5,2.1-2.4,3.7-2.4c1.6,0,3,0.9,3.7,2.4l0.3,0.6c0,0,0,0,0,0c0,0.8,0.6,1.5,1.4,1.5c0.8,0,1.4-0.6,1.4-1.4
					l0.3-0.7c0.7-1.5,2.1-2.4,3.7-2.4c1.6,0,3,0.9,3.7,2.4l0.3,0.7c0,0.8,0.6,1.4,1.4,1.4c0.8,0,1.4-0.7,1.4-1.5c0,0,0,0,0,0
					l0.3-0.6c0.7-1.5,2.1-2.4,3.7-2.4c1.6,0,3,0.9,3.7,2.4l0.3,0.6c0,0,0,0,0,0c0,0.8,0.6,1.5,1.4,1.5c0.8,0,1.4-0.6,1.4-1.4
					l0.3-0.7c0.7-1.5,2.1-2.4,3.7-2.4c1.6,0,3,0.9,3.7,2.4l0.3,0.6c0,0,0,0,0,0c0,0.8,0.6,1.5,1.4,1.5s1.5-0.7,1.5-1.5
					c0,0,0,0,0-0.1l0.3-0.6c0.7-1.5,2.1-2.4,3.7-2.4c1.7,0,2.6,1,3.2,2.4l0.3,0.7c0,0.7,0.6,1.3,1.3,1.3c0.7,0,1.3-0.5,1.4-1.2h0
					v-0.1V70.3l-2.6,0.2V77.6z"/>
				<path fill="#534C63" d="M77.2,33.5c-8.6,0-15.6,7-15.6,15.6s7,15.6,15.6,15.6c8.6,0,15.6-7,15.6-15.6S85.8,33.5,77.2,33.5z
					 M77.2,62.2c-7.2,0-13.1-5.9-13.1-13.1S70,36.1,77.2,36.1s13.1,5.9,13.1,13.1S84.4,62.2,77.2,62.2z"/>
				<path fill="#534C63" d="M83.6,43.4l-10,10l-2.8-2.8c-0.5-0.5-1.3-0.5-1.8,0c-0.2,0.2-0.4,0.6-0.4,0.9s0.1,0.7,0.4,0.9l3.7,3.7
					c0.2,0.2,0.6,0.4,0.9,0.4c0.3,0,0.7-0.1,0.9-0.4l10.9-10.9c0.5-0.5,0.5-1.3,0-1.8C84.9,42.9,84.1,42.9,83.6,43.4z"/>
				<path fill="#534C63" d="M52.4,47.4H32.8c-0.7,0-1.3,0.6-1.3,1.3c0,0.7,0.6,1.3,1.3,1.3h19.5c0.7,0,1.3-0.6,1.3-1.3
					C53.6,48,53.1,47.4,52.4,47.4z"/>
				<path fill="#534C63" d="M52.4,40.1H32.8c-0.7,0-1.3,0.6-1.3,1.3c0,0.7,0.6,1.3,1.3,1.3h19.5c0.7,0,1.3-0.6,1.3-1.3
					C53.6,40.7,53.1,40.1,52.4,40.1z"/>
				<path fill="#534C63" d="M52.4,32.9H32.8c-0.7,0-1.3,0.6-1.3,1.3c0,0.7,0.6,1.3,1.3,1.3h19.5c0.7,0,1.3-0.6,1.3-1.3
					C53.6,33.5,53.1,32.9,52.4,32.9z"/>
			</g>
		</g>
		<circle fill="#534C63" cx="77.8" cy="70.4" r="1.3"/>
	</g>
</g>
<g id="ICONS_-_SKRILL_TEAL" display="none">
	<g display="inline">
		<g>
			<g>
				<path fill="#41AEB5" d="M76.5,77.6l-0.2-0.2C75,76.5,74.4,76,72.9,76c-2.1,0-4.1,1-5.4,2.6l-0.1,0.2l-0.1-0.2
					C66,77,64.1,76,62,76c-2.1,0-4.1,1-5.4,2.6l-0.1,0.2l-0.1-0.2C55.1,77,53.1,76,51,76c-2.1,0-4.1,1-5.4,2.6l-0.1,0.2l-0.1-0.2
					C44.2,77,42.2,76,40.1,76c-2.1,0-4.1,1-5.4,2.6l-0.1,0.2l-0.1-0.2C33.2,77,31.3,76,29.1,76c-1.4,0-2.8,0.4-3.9,1.3L25,77.5V21.1
					l0.2,0.2c1.2,0.8,2.5,1.3,3.9,1.3c2.1,0,4.1-1,5.4-2.6l0.1-0.2l0.1,0.2c1.3,1.7,3.2,2.6,5.4,2.6c2.1,0,4.1-1,5.4-2.6l0.1-0.2
					l0.1,0.2c1.3,1.7,3.2,2.6,5.4,2.6s4.1-1,5.4-2.6l0.1-0.2l0.1,0.2c1.3,1.7,3.2,2.6,5.4,2.6c2.1,0,4.1-1,5.4-2.6l0.1-0.2l0.1,0.2
					c1.3,1.7,2.2,2.6,4.4,2.6c1.5,0,3.1-0.5,4.4-1.4l0.2-0.2v5.8c0,0.7,0.6,1.4,1.3,1.4c0.7,0,1.3-0.5,1.3-1.2l0-9.8c0,0,0,0,0,0
					s0,0,0,0l0-0.2h0c-0.1-0.7-0.7-1.2-1.4-1.2c-0.7,0-1.2,0.5-1.3,1.2h0L76,17.7c-0.7,1.2-2.5,2.2-4.1,2.2c-1.5,0-1.9-0.9-2.7-2.2
					L68.9,17h0c-0.1-0.7-0.7-1.2-1.4-1.2S66.1,16.4,66,17h0l-0.4,0.7c-0.7,1.4-2.1,2.2-3.7,2.2c-1.5,0-2.9-0.9-3.7-2.2L57.9,17h0
					c-0.1-0.7-0.7-1.2-1.4-1.2c-0.7,0-1.3,0.5-1.4,1.2h0l-0.4,0.7c-0.7,1.4-2.1,2.2-3.7,2.2c-1.5,0-2.9-0.9-3.7-2.2L47,17.1
					c-0.1-0.7-0.7-1.2-1.4-1.2c-0.7,0-1.3,0.5-1.4,1.2h0l-0.4,0.7c-0.7,1.4-2.1,2.2-3.7,2.2c-1.5,0-2.9-0.9-3.7-2.2L36,17h0
					c-0.1-0.7-0.7-1.2-1.4-1.2c-0.7,0-1.3,0.5-1.4,1.2l-0.4,0.7c-0.7,1.4-2.1,2.2-3.7,2.2c-1.5,0-2.9-0.9-3.7-2.2l-0.2-0.4
					c-0.1-0.7-0.7-1.4-1.4-1.4c-0.7,0-1.3,0.5-1.4,1.2h0v0.2v64.4v0.1h0c0.1,0.7,0.6,1.2,1.4,1.2c0.8,0,1.3-0.6,1.3-1.3c0,0,0,0,0,0
					l0.3-0.6c0.7-1.5,2.1-2.4,3.7-2.4c1.6,0,3,0.9,3.7,2.4l0.3,0.6c0,0,0,0,0,0c0,0.8,0.6,1.5,1.4,1.5c0.8,0,1.4-0.6,1.4-1.4
					l0.3-0.7c0.7-1.5,2.1-2.4,3.7-2.4c1.6,0,3,0.9,3.7,2.4l0.3,0.7c0,0.8,0.6,1.4,1.4,1.4c0.8,0,1.4-0.7,1.4-1.5c0,0,0,0,0,0
					l0.3-0.6c0.7-1.5,2.1-2.4,3.7-2.4c1.6,0,3,0.9,3.7,2.4l0.3,0.6c0,0,0,0,0,0c0,0.8,0.6,1.5,1.4,1.5c0.8,0,1.4-0.6,1.4-1.4
					l0.3-0.7c0.7-1.5,2.1-2.4,3.7-2.4c1.6,0,3,0.9,3.7,2.4l0.3,0.6c0,0,0,0,0,0c0,0.8,0.6,1.5,1.4,1.5s1.5-0.7,1.5-1.5
					c0,0,0,0,0-0.1l0.3-0.6c0.7-1.5,2.1-2.4,3.7-2.4c1.7,0,2.6,1,3.2,2.4l0.3,0.7c0,0.7,0.6,1.3,1.3,1.3c0.7,0,1.3-0.5,1.4-1.2h0
					v-0.1V70.3l-2.6,0.2V77.6z"/>
				<path fill="#41AEB5" d="M77.2,33.5c-8.6,0-15.6,7-15.6,15.6s7,15.6,15.6,15.6c8.6,0,15.6-7,15.6-15.6S85.8,33.5,77.2,33.5z
					 M77.2,62.2c-7.2,0-13.1-5.9-13.1-13.1S70,36.1,77.2,36.1s13.1,5.9,13.1,13.1S84.4,62.2,77.2,62.2z"/>
				<path fill="#41AEB5" d="M83.6,43.4l-10,10l-2.8-2.8c-0.5-0.5-1.3-0.5-1.8,0c-0.2,0.2-0.4,0.6-0.4,0.9s0.1,0.7,0.4,0.9l3.7,3.7
					c0.2,0.2,0.6,0.4,0.9,0.4c0.3,0,0.7-0.1,0.9-0.4l10.9-10.9c0.5-0.5,0.5-1.3,0-1.8C84.9,42.9,84.1,42.9,83.6,43.4z"/>
				<path fill="#41AEB5" d="M52.4,47.4H32.8c-0.7,0-1.3,0.6-1.3,1.3c0,0.7,0.6,1.3,1.3,1.3h19.5c0.7,0,1.3-0.6,1.3-1.3
					C53.6,48,53.1,47.4,52.4,47.4z"/>
				<path fill="#41AEB5" d="M52.4,40.1H32.8c-0.7,0-1.3,0.6-1.3,1.3c0,0.7,0.6,1.3,1.3,1.3h19.5c0.7,0,1.3-0.6,1.3-1.3
					C53.6,40.7,53.1,40.1,52.4,40.1z"/>
				<path fill="#41AEB5" d="M52.4,32.9H32.8c-0.7,0-1.3,0.6-1.3,1.3c0,0.7,0.6,1.3,1.3,1.3h19.5c0.7,0,1.3-0.6,1.3-1.3
					C53.6,33.5,53.1,32.9,52.4,32.9z"/>
			</g>
		</g>
		<circle fill="#41AEB5" cx="77.8" cy="70.4" r="1.3"/>
	</g>
</g>
<g id="ICONS_-_SKRILL_PURPLE">
	<g>
		<g>
			<g>
				<path fill="#811E68" d="M76.5,77.6l-0.2-0.2C75,76.5,74.4,76,72.9,76c-2.1,0-4.1,1-5.4,2.6l-0.1,0.2l-0.1-0.2
					C66,77,64.1,76,62,76c-2.1,0-4.1,1-5.4,2.6l-0.1,0.2l-0.1-0.2C55.1,77,53.1,76,51,76c-2.1,0-4.1,1-5.4,2.6l-0.1,0.2l-0.1-0.2
					C44.2,77,42.2,76,40.1,76c-2.1,0-4.1,1-5.4,2.6l-0.1,0.2l-0.1-0.2C33.2,77,31.3,76,29.1,76c-1.4,0-2.8,0.4-3.9,1.3L25,77.5V21.1
					l0.2,0.2c1.2,0.8,2.5,1.3,3.9,1.3c2.1,0,4.1-1,5.4-2.6l0.1-0.2l0.1,0.2c1.3,1.7,3.2,2.6,5.4,2.6c2.1,0,4.1-1,5.4-2.6l0.1-0.2
					l0.1,0.2c1.3,1.7,3.2,2.6,5.4,2.6s4.1-1,5.4-2.6l0.1-0.2l0.1,0.2c1.3,1.7,3.2,2.6,5.4,2.6c2.1,0,4.1-1,5.4-2.6l0.1-0.2l0.1,0.2
					c1.3,1.7,2.2,2.6,4.4,2.6c1.5,0,3.1-0.5,4.4-1.4l0.2-0.2v5.8c0,0.7,0.6,1.4,1.3,1.4c0.7,0,1.3-0.5,1.3-1.2l0-9.8c0,0,0,0,0,0
					s0,0,0,0l0-0.2h0c-0.1-0.7-0.7-1.2-1.4-1.2c-0.7,0-1.2,0.5-1.3,1.2h0L76,17.7c-0.7,1.2-2.5,2.2-4.1,2.2c-1.5,0-1.9-0.9-2.7-2.2
					L68.9,17h0c-0.1-0.7-0.7-1.2-1.4-1.2S66.1,16.4,66,17h0l-0.4,0.7c-0.7,1.4-2.1,2.2-3.7,2.2c-1.5,0-2.9-0.9-3.7-2.2L57.9,17h0
					c-0.1-0.7-0.7-1.2-1.4-1.2c-0.7,0-1.3,0.5-1.4,1.2h0l-0.4,0.7c-0.7,1.4-2.1,2.2-3.7,2.2c-1.5,0-2.9-0.9-3.7-2.2L47,17.1
					c-0.1-0.7-0.7-1.2-1.4-1.2c-0.7,0-1.3,0.5-1.4,1.2h0l-0.4,0.7c-0.7,1.4-2.1,2.2-3.7,2.2c-1.5,0-2.9-0.9-3.7-2.2L36,17h0
					c-0.1-0.7-0.7-1.2-1.4-1.2c-0.7,0-1.3,0.5-1.4,1.2l-0.4,0.7c-0.7,1.4-2.1,2.2-3.7,2.2c-1.5,0-2.9-0.9-3.7-2.2l-0.2-0.4
					c-0.1-0.7-0.7-1.4-1.4-1.4c-0.7,0-1.3,0.5-1.4,1.2h0v0.2v64.4v0.1h0c0.1,0.7,0.6,1.2,1.4,1.2c0.8,0,1.3-0.6,1.3-1.3c0,0,0,0,0,0
					l0.3-0.6c0.7-1.5,2.1-2.4,3.7-2.4c1.6,0,3,0.9,3.7,2.4l0.3,0.6c0,0,0,0,0,0c0,0.8,0.6,1.5,1.4,1.5c0.8,0,1.4-0.6,1.4-1.4
					l0.3-0.7c0.7-1.5,2.1-2.4,3.7-2.4c1.6,0,3,0.9,3.7,2.4l0.3,0.7c0,0.8,0.6,1.4,1.4,1.4c0.8,0,1.4-0.7,1.4-1.5c0,0,0,0,0,0
					l0.3-0.6c0.7-1.5,2.1-2.4,3.7-2.4c1.6,0,3,0.9,3.7,2.4l0.3,0.6c0,0,0,0,0,0c0,0.8,0.6,1.5,1.4,1.5c0.8,0,1.4-0.6,1.4-1.4
					l0.3-0.7c0.7-1.5,2.1-2.4,3.7-2.4c1.6,0,3,0.9,3.7,2.4l0.3,0.6c0,0,0,0,0,0c0,0.8,0.6,1.5,1.4,1.5s1.5-0.7,1.5-1.5
					c0,0,0,0,0-0.1l0.3-0.6c0.7-1.5,2.1-2.4,3.7-2.4c1.7,0,2.6,1,3.2,2.4l0.3,0.7c0,0.7,0.6,1.3,1.3,1.3c0.7,0,1.3-0.5,1.4-1.2h0
					v-0.1V70.3l-2.6,0.2V77.6z"/>
				<path fill="#811E68" d="M77.2,33.5c-8.6,0-15.6,7-15.6,15.6s7,15.6,15.6,15.6c8.6,0,15.6-7,15.6-15.6S85.8,33.5,77.2,33.5z
					 M77.2,62.2c-7.2,0-13.1-5.9-13.1-13.1S70,36.1,77.2,36.1s13.1,5.9,13.1,13.1S84.4,62.2,77.2,62.2z"/>
				<path fill="#811E68" d="M83.6,43.4l-10,10l-2.8-2.8c-0.5-0.5-1.3-0.5-1.8,0c-0.2,0.2-0.4,0.6-0.4,0.9s0.1,0.7,0.4,0.9l3.7,3.7
					c0.2,0.2,0.6,0.4,0.9,0.4c0.3,0,0.7-0.1,0.9-0.4l10.9-10.9c0.5-0.5,0.5-1.3,0-1.8C84.9,42.9,84.1,42.9,83.6,43.4z"/>
				<path fill="#811E68" d="M52.4,47.4H32.8c-0.7,0-1.3,0.6-1.3,1.3c0,0.7,0.6,1.3,1.3,1.3h19.5c0.7,0,1.3-0.6,1.3-1.3
					C53.6,48,53.1,47.4,52.4,47.4z"/>
				<path fill="#811E68" d="M52.4,40.1H32.8c-0.7,0-1.3,0.6-1.3,1.3c0,0.7,0.6,1.3,1.3,1.3h19.5c0.7,0,1.3-0.6,1.3-1.3
					C53.6,40.7,53.1,40.1,52.4,40.1z"/>
				<path fill="#811E68" d="M52.4,32.9H32.8c-0.7,0-1.3,0.6-1.3,1.3c0,0.7,0.6,1.3,1.3,1.3h19.5c0.7,0,1.3-0.6,1.3-1.3
					C53.6,33.5,53.1,32.9,52.4,32.9z"/>
			</g>
		</g>
		<circle fill="#811E68" cx="77.8" cy="70.4" r="1.3"/>
	</g>
</g>
<g id="ICONS_-_WHITE" display="none">
	<g display="inline">
		<g>
			<g>
				<path fill="#FFFFFF" d="M76.5,77.6l-0.2-0.2C75,76.5,74.4,76,72.9,76c-2.1,0-4.1,1-5.4,2.6l-0.1,0.2l-0.1-0.2
					C66,77,64.1,76,62,76c-2.1,0-4.1,1-5.4,2.6l-0.1,0.2l-0.1-0.2C55.1,77,53.1,76,51,76c-2.1,0-4.1,1-5.4,2.6l-0.1,0.2l-0.1-0.2
					C44.2,77,42.2,76,40.1,76c-2.1,0-4.1,1-5.4,2.6l-0.1,0.2l-0.1-0.2C33.2,77,31.3,76,29.1,76c-1.4,0-2.8,0.4-3.9,1.3L25,77.5V21.1
					l0.2,0.2c1.2,0.8,2.5,1.3,3.9,1.3c2.1,0,4.1-1,5.4-2.6l0.1-0.2l0.1,0.2c1.3,1.7,3.2,2.6,5.4,2.6c2.1,0,4.1-1,5.4-2.6l0.1-0.2
					l0.1,0.2c1.3,1.7,3.2,2.6,5.4,2.6s4.1-1,5.4-2.6l0.1-0.2l0.1,0.2c1.3,1.7,3.2,2.6,5.4,2.6c2.1,0,4.1-1,5.4-2.6l0.1-0.2l0.1,0.2
					c1.3,1.7,2.2,2.6,4.4,2.6c1.5,0,3.1-0.5,4.4-1.4l0.2-0.2v5.8c0,0.7,0.6,1.4,1.3,1.4c0.7,0,1.3-0.5,1.3-1.2l0-9.8c0,0,0,0,0,0
					s0,0,0,0l0-0.2h0c-0.1-0.7-0.7-1.2-1.4-1.2c-0.7,0-1.2,0.5-1.3,1.2h0L76,17.7c-0.7,1.2-2.5,2.2-4.1,2.2c-1.5,0-1.9-0.9-2.7-2.2
					L68.9,17h0c-0.1-0.7-0.7-1.2-1.4-1.2S66.1,16.4,66,17h0l-0.4,0.7c-0.7,1.4-2.1,2.2-3.7,2.2c-1.5,0-2.9-0.9-3.7-2.2L57.9,17h0
					c-0.1-0.7-0.7-1.2-1.4-1.2c-0.7,0-1.3,0.5-1.4,1.2h0l-0.4,0.7c-0.7,1.4-2.1,2.2-3.7,2.2c-1.5,0-2.9-0.9-3.7-2.2L47,17.1
					c-0.1-0.7-0.7-1.2-1.4-1.2c-0.7,0-1.3,0.5-1.4,1.2h0l-0.4,0.7c-0.7,1.4-2.1,2.2-3.7,2.2c-1.5,0-2.9-0.9-3.7-2.2L36,17h0
					c-0.1-0.7-0.7-1.2-1.4-1.2c-0.7,0-1.3,0.5-1.4,1.2l-0.4,0.7c-0.7,1.4-2.1,2.2-3.7,2.2c-1.5,0-2.9-0.9-3.7-2.2l-0.2-0.4
					c-0.1-0.7-0.7-1.4-1.4-1.4c-0.7,0-1.3,0.5-1.4,1.2h0v0.2v64.4v0.1h0c0.1,0.7,0.6,1.2,1.4,1.2c0.8,0,1.3-0.6,1.3-1.3c0,0,0,0,0,0
					l0.3-0.6c0.7-1.5,2.1-2.4,3.7-2.4c1.6,0,3,0.9,3.7,2.4l0.3,0.6c0,0,0,0,0,0c0,0.8,0.6,1.5,1.4,1.5c0.8,0,1.4-0.6,1.4-1.4
					l0.3-0.7c0.7-1.5,2.1-2.4,3.7-2.4c1.6,0,3,0.9,3.7,2.4l0.3,0.7c0,0.8,0.6,1.4,1.4,1.4c0.8,0,1.4-0.7,1.4-1.5c0,0,0,0,0,0
					l0.3-0.6c0.7-1.5,2.1-2.4,3.7-2.4c1.6,0,3,0.9,3.7,2.4l0.3,0.6c0,0,0,0,0,0c0,0.8,0.6,1.5,1.4,1.5c0.8,0,1.4-0.6,1.4-1.4
					l0.3-0.7c0.7-1.5,2.1-2.4,3.7-2.4c1.6,0,3,0.9,3.7,2.4l0.3,0.6c0,0,0,0,0,0c0,0.8,0.6,1.5,1.4,1.5s1.5-0.7,1.5-1.5
					c0,0,0,0,0-0.1l0.3-0.6c0.7-1.5,2.1-2.4,3.7-2.4c1.7,0,2.6,1,3.2,2.4l0.3,0.7c0,0.7,0.6,1.3,1.3,1.3c0.7,0,1.3-0.5,1.4-1.2h0
					v-0.1V70.3l-2.6,0.2V77.6z"/>
				<path fill="#FFFFFF" d="M77.2,33.5c-8.6,0-15.6,7-15.6,15.6s7,15.6,15.6,15.6c8.6,0,15.6-7,15.6-15.6S85.8,33.5,77.2,33.5z
					 M77.2,62.2c-7.2,0-13.1-5.9-13.1-13.1S70,36.1,77.2,36.1s13.1,5.9,13.1,13.1S84.4,62.2,77.2,62.2z"/>
				<path fill="#FFFFFF" d="M83.6,43.4l-10,10l-2.8-2.8c-0.5-0.5-1.3-0.5-1.8,0c-0.2,0.2-0.4,0.6-0.4,0.9s0.1,0.7,0.4,0.9l3.7,3.7
					c0.2,0.2,0.6,0.4,0.9,0.4c0.3,0,0.7-0.1,0.9-0.4l10.9-10.9c0.5-0.5,0.5-1.3,0-1.8C84.9,42.9,84.1,42.9,83.6,43.4z"/>
				<path fill="#FFFFFF" d="M52.4,47.4H32.8c-0.7,0-1.3,0.6-1.3,1.3c0,0.7,0.6,1.3,1.3,1.3h19.5c0.7,0,1.3-0.6,1.3-1.3
					C53.6,48,53.1,47.4,52.4,47.4z"/>
				<path fill="#FFFFFF" d="M52.4,40.1H32.8c-0.7,0-1.3,0.6-1.3,1.3c0,0.7,0.6,1.3,1.3,1.3h19.5c0.7,0,1.3-0.6,1.3-1.3
					C53.6,40.7,53.1,40.1,52.4,40.1z"/>
				<path fill="#FFFFFF" d="M52.4,32.9H32.8c-0.7,0-1.3,0.6-1.3,1.3c0,0.7,0.6,1.3,1.3,1.3h19.5c0.7,0,1.3-0.6,1.3-1.3
					C53.6,33.5,53.1,32.9,52.4,32.9z"/>
			</g>
		</g>
		<circle fill="#FFFFFF" cx="77.8" cy="70.4" r="1.3"/>
	</g>
</g>
<g id="LABELS">
</g>
</svg>
