<?xml version="1.0" encoding="utf-8"?>
<!-- Generator: Adobe Illustrator 18.1.1, SVG Export Plug-In . SVG Version: 6.00 Build 0)  -->
<svg version="1.1" xmlns="http://www.w3.org/2000/svg" xmlns:xlink="http://www.w3.org/1999/xlink" x="0px" y="0px"
	 viewBox="0 0 100 100" enable-background="new 0 0 100 100" xml:space="preserve">
<g id="GUIDES">
</g>
<g id="ICONS_-_BLACK" display="none">
	<g display="inline">
		<g>
			<g>
				<path d="M49.8,84.8c19.2,0,34.8-15.6,34.8-34.8c0-19.2-15.6-34.8-34.8-34.8C30.6,15.2,15,30.8,15,50
					C15,69.2,30.6,84.8,49.8,84.8z M49.8,17.9c17.7,0,32.1,14.4,32.1,32.1c0,17.7-14.4,32.1-32.1,32.1c-17.7,0-32.1-14.4-32.1-32.1
					C17.7,32.3,32.1,17.9,49.8,17.9z"/>
				<path d="M49.8,74.7c-0.7,0-1.2,0.5-1.2,1.2l0,1.7c0,0.3,0.1,0.6,0.4,0.9c0.2,0.2,0.5,0.4,0.9,0.4h0c0.7,0,1.2-0.5,1.2-1.2l0-1.7
					c0-0.3-0.1-0.6-0.4-0.9C50.4,74.9,50.1,74.7,49.8,74.7z"/>
				<path d="M63.8,71.9c-0.2-0.4-0.6-0.6-1.1-0.6c-0.2,0-0.4,0.1-0.6,0.2c-0.6,0.3-0.8,1.1-0.4,1.7l0.9,1.5c0.2,0.4,0.6,0.6,1.1,0.6
					c0.2,0,0.4-0.1,0.6-0.2c0.6-0.3,0.8-1.1,0.4-1.7L63.8,71.9z"/>
				<path d="M35.3,75c0.2,0.1,0.4,0.2,0.6,0.2c0.4,0,0.8-0.2,1.1-0.6l0.8-1.5c0.2-0.3,0.2-0.6,0.1-0.9c-0.1-0.3-0.3-0.6-0.6-0.7
					c-0.2-0.1-0.4-0.2-0.6-0.2c-0.4,0-0.8,0.2-1.1,0.6l-0.8,1.5c-0.2,0.3-0.2,0.6-0.1,0.9C34.8,74.6,35,74.8,35.3,75z"/>
				<path d="M71.6,64l1.4,0.8c0.2,0.1,0.4,0.2,0.6,0.2c0.4,0,0.8-0.2,1.1-0.6c0.2-0.3,0.2-0.6,0.1-0.9c-0.1-0.3-0.3-0.6-0.6-0.7
					l-1.4-0.8c-0.2-0.1-0.4-0.2-0.6-0.2c-0.4,0-0.8,0.2-1.1,0.6C71,62.6,71,63,71.1,63.3C71.1,63.6,71.4,63.9,71.6,64z"/>
				<path d="M28.4,62.4c-0.2-0.4-0.6-0.6-1.1-0.6c-0.2,0-0.4,0.1-0.6,0.2l-1.5,0.8c-0.3,0.2-0.5,0.4-0.6,0.7c-0.1,0.3,0,0.6,0.1,0.9
					c0.2,0.4,0.6,0.6,1.1,0.6c0.2,0,0.4-0.1,0.6-0.2l1.5-0.8C28.5,63.7,28.7,63,28.4,62.4z"/>
				<path d="M40.3,60.7c0.3,0,0.7-0.1,0.9-0.4l9.1-9.1c0,0,0.2-0.2,0.2-0.2c0.3-0.2,0.5-0.6,0.5-1V31.9c0-0.7-0.6-1.3-1.3-1.3
					c-0.7,0-1.3,0.6-1.3,1.3l0,17.4l-0.1,0.2l-9,9c-0.2,0.2-0.4,0.6-0.4,0.9c0,0.3,0.1,0.7,0.4,0.9C39.6,60.6,40,60.7,40.3,60.7z"/>
				<path d="M74.5,50c0,0.7,0.6,1.2,1.2,1.2h0l1.7,0c0.3,0,0.6-0.1,0.9-0.4c0.2-0.2,0.4-0.5,0.4-0.9c0-0.7-0.6-1.2-1.2-1.2l-1.7,0
					c-0.3,0-0.6,0.1-0.9,0.4C74.6,49.4,74.5,49.7,74.5,50z"/>
				<path d="M25,50c0-0.3-0.1-0.6-0.4-0.9c-0.2-0.2-0.5-0.4-0.9-0.4l-1.7,0c-0.7,0-1.2,0.5-1.2,1.2c0,0.3,0.1,0.6,0.4,0.9
					c0.2,0.2,0.5,0.4,0.9,0.4l1.7,0C24.5,51.2,25,50.7,25,50z"/>
				<path d="M72.2,38.2c0.2,0,0.4-0.1,0.6-0.2l1.4-0.8c0.6-0.3,0.8-1.1,0.5-1.7c-0.2-0.4-0.6-0.6-1.1-0.6c-0.2,0-0.4,0.1-0.6,0.2
					l-1.4,0.8c-0.6,0.3-0.8,1.1-0.5,1.7C71.4,38,71.8,38.2,72.2,38.2z"/>
				<path d="M25.2,37.2l1.5,0.8c0.2,0.1,0.4,0.2,0.6,0.2c0.4,0,0.8-0.2,1.1-0.6c0.2-0.3,0.2-0.6,0.1-0.9c-0.1-0.3-0.3-0.6-0.6-0.7
					l-1.5-0.8c-0.2-0.1-0.4-0.2-0.6-0.2c-0.4,0-0.8,0.2-1.1,0.6c-0.2,0.3-0.2,0.6-0.1,0.9C24.7,36.8,24.9,37.1,25.2,37.2z"/>
				<path d="M62.1,28.6c0.2,0.1,0.4,0.2,0.6,0.2c0.4,0,0.8-0.2,1.1-0.6l0.8-1.5c0.2-0.3,0.2-0.6,0.1-0.9c-0.1-0.3-0.3-0.6-0.6-0.7
					c-0.2-0.1-0.4-0.2-0.6-0.2c-0.4,0-0.8,0.2-1.1,0.6l-0.8,1.5C61.3,27.5,61.5,28.2,62.1,28.6z"/>
				<path d="M35.7,28.1c0.2,0.4,0.6,0.6,1.1,0.6c0.2,0,0.4-0.1,0.6-0.2c0.6-0.3,0.8-1.1,0.5-1.7L37,25.4c-0.2-0.4-0.6-0.6-1.1-0.6
					c-0.2,0-0.4,0.1-0.6,0.2c-0.3,0.2-0.5,0.4-0.6,0.7c-0.1,0.3,0,0.6,0.1,0.9L35.7,28.1z"/>
				<path d="M49.8,25.2c0.7,0,1.2-0.5,1.2-1.2v-1.7c0-0.7-0.5-1.2-1.2-1.2c-0.7,0-1.2,0.5-1.2,1.2V24C48.5,24.7,49.1,25.2,49.8,25.2
					z"/>
			</g>
		</g>
	</g>
</g>
<g id="ICONS_-_DARK_PURPLE" display="none">
	<g display="inline">
		<g>
			<g>
				<path fill="#4F2556" d="M49.8,84.8c19.2,0,34.8-15.6,34.8-34.8c0-19.2-15.6-34.8-34.8-34.8C30.6,15.2,15,30.8,15,50
					C15,69.2,30.6,84.8,49.8,84.8z M49.8,17.9c17.7,0,32.1,14.4,32.1,32.1c0,17.7-14.4,32.1-32.1,32.1c-17.7,0-32.1-14.4-32.1-32.1
					C17.7,32.3,32.1,17.9,49.8,17.9z"/>
				<path fill="#4F2556" d="M49.8,74.7c-0.7,0-1.2,0.5-1.2,1.2l0,1.7c0,0.3,0.1,0.6,0.4,0.9c0.2,0.2,0.5,0.4,0.9,0.4h0
					c0.7,0,1.2-0.5,1.2-1.2l0-1.7c0-0.3-0.1-0.6-0.4-0.9C50.4,74.9,50.1,74.7,49.8,74.7z"/>
				<path fill="#4F2556" d="M63.8,71.9c-0.2-0.4-0.6-0.6-1.1-0.6c-0.2,0-0.4,0.1-0.6,0.2c-0.6,0.3-0.8,1.1-0.4,1.7l0.9,1.5
					c0.2,0.4,0.6,0.6,1.1,0.6c0.2,0,0.4-0.1,0.6-0.2c0.6-0.3,0.8-1.1,0.4-1.7L63.8,71.9z"/>
				<path fill="#4F2556" d="M35.3,75c0.2,0.1,0.4,0.2,0.6,0.2c0.4,0,0.8-0.2,1.1-0.6l0.8-1.5c0.2-0.3,0.2-0.6,0.1-0.9
					c-0.1-0.3-0.3-0.6-0.6-0.7c-0.2-0.1-0.4-0.2-0.6-0.2c-0.4,0-0.8,0.2-1.1,0.6l-0.8,1.5c-0.2,0.3-0.2,0.6-0.1,0.9
					C34.8,74.6,35,74.8,35.3,75z"/>
				<path fill="#4F2556" d="M71.6,64l1.4,0.8c0.2,0.1,0.4,0.2,0.6,0.2c0.4,0,0.8-0.2,1.1-0.6c0.2-0.3,0.2-0.6,0.1-0.9
					c-0.1-0.3-0.3-0.6-0.6-0.7l-1.4-0.8c-0.2-0.1-0.4-0.2-0.6-0.2c-0.4,0-0.8,0.2-1.1,0.6C71,62.6,71,63,71.1,63.3
					C71.1,63.6,71.4,63.9,71.6,64z"/>
				<path fill="#4F2556" d="M28.4,62.4c-0.2-0.4-0.6-0.6-1.1-0.6c-0.2,0-0.4,0.1-0.6,0.2l-1.5,0.8c-0.3,0.2-0.5,0.4-0.6,0.7
					c-0.1,0.3,0,0.6,0.1,0.9c0.2,0.4,0.6,0.6,1.1,0.6c0.2,0,0.4-0.1,0.6-0.2l1.5-0.8C28.5,63.7,28.7,63,28.4,62.4z"/>
				<path fill="#4F2556" d="M40.3,60.7c0.3,0,0.7-0.1,0.9-0.4l9.1-9.1c0,0,0.2-0.2,0.2-0.2c0.3-0.2,0.5-0.6,0.5-1V31.9
					c0-0.7-0.6-1.3-1.3-1.3c-0.7,0-1.3,0.6-1.3,1.3l0,17.4l-0.1,0.2l-9,9c-0.2,0.2-0.4,0.6-0.4,0.9c0,0.3,0.1,0.7,0.4,0.9
					C39.6,60.6,40,60.7,40.3,60.7z"/>
				<path fill="#4F2556" d="M74.5,50c0,0.7,0.6,1.2,1.2,1.2h0l1.7,0c0.3,0,0.6-0.1,0.9-0.4c0.2-0.2,0.4-0.5,0.4-0.9
					c0-0.7-0.6-1.2-1.2-1.2l-1.7,0c-0.3,0-0.6,0.1-0.9,0.4C74.6,49.4,74.5,49.7,74.5,50z"/>
				<path fill="#4F2556" d="M25,50c0-0.3-0.1-0.6-0.4-0.9c-0.2-0.2-0.5-0.4-0.9-0.4l-1.7,0c-0.7,0-1.2,0.5-1.2,1.2
					c0,0.3,0.1,0.6,0.4,0.9c0.2,0.2,0.5,0.4,0.9,0.4l1.7,0C24.5,51.2,25,50.7,25,50z"/>
				<path fill="#4F2556" d="M72.2,38.2c0.2,0,0.4-0.1,0.6-0.2l1.4-0.8c0.6-0.3,0.8-1.1,0.5-1.7c-0.2-0.4-0.6-0.6-1.1-0.6
					c-0.2,0-0.4,0.1-0.6,0.2l-1.4,0.8c-0.6,0.3-0.8,1.1-0.5,1.7C71.4,38,71.8,38.2,72.2,38.2z"/>
				<path fill="#4F2556" d="M25.2,37.2l1.5,0.8c0.2,0.1,0.4,0.2,0.6,0.2c0.4,0,0.8-0.2,1.1-0.6c0.2-0.3,0.2-0.6,0.1-0.9
					c-0.1-0.3-0.3-0.6-0.6-0.7l-1.5-0.8c-0.2-0.1-0.4-0.2-0.6-0.2c-0.4,0-0.8,0.2-1.1,0.6c-0.2,0.3-0.2,0.6-0.1,0.9
					C24.7,36.8,24.9,37.1,25.2,37.2z"/>
				<path fill="#4F2556" d="M62.1,28.6c0.2,0.1,0.4,0.2,0.6,0.2c0.4,0,0.8-0.2,1.1-0.6l0.8-1.5c0.2-0.3,0.2-0.6,0.1-0.9
					c-0.1-0.3-0.3-0.6-0.6-0.7c-0.2-0.1-0.4-0.2-0.6-0.2c-0.4,0-0.8,0.2-1.1,0.6l-0.8,1.5C61.3,27.5,61.5,28.2,62.1,28.6z"/>
				<path fill="#4F2556" d="M35.7,28.1c0.2,0.4,0.6,0.6,1.1,0.6c0.2,0,0.4-0.1,0.6-0.2c0.6-0.3,0.8-1.1,0.5-1.7L37,25.4
					c-0.2-0.4-0.6-0.6-1.1-0.6c-0.2,0-0.4,0.1-0.6,0.2c-0.3,0.2-0.5,0.4-0.6,0.7c-0.1,0.3,0,0.6,0.1,0.9L35.7,28.1z"/>
				<path fill="#4F2556" d="M49.8,25.2c0.7,0,1.2-0.5,1.2-1.2v-1.7c0-0.7-0.5-1.2-1.2-1.2c-0.7,0-1.2,0.5-1.2,1.2V24
					C48.5,24.7,49.1,25.2,49.8,25.2z"/>
			</g>
		</g>
	</g>
</g>
<g id="ICONS_-_WARM_GREY" display="none">
	<g display="inline">
		<g>
			<g>
				<path fill="#534C63" d="M49.8,84.8c19.2,0,34.8-15.6,34.8-34.8c0-19.2-15.6-34.8-34.8-34.8C30.6,15.2,15,30.8,15,50
					C15,69.2,30.6,84.8,49.8,84.8z M49.8,17.9c17.7,0,32.1,14.4,32.1,32.1c0,17.7-14.4,32.1-32.1,32.1c-17.7,0-32.1-14.4-32.1-32.1
					C17.7,32.3,32.1,17.9,49.8,17.9z"/>
				<path fill="#534C63" d="M49.8,74.7c-0.7,0-1.2,0.5-1.2,1.2l0,1.7c0,0.3,0.1,0.6,0.4,0.9c0.2,0.2,0.5,0.4,0.9,0.4h0
					c0.7,0,1.2-0.5,1.2-1.2l0-1.7c0-0.3-0.1-0.6-0.4-0.9C50.4,74.9,50.1,74.7,49.8,74.7z"/>
				<path fill="#534C63" d="M63.8,71.9c-0.2-0.4-0.6-0.6-1.1-0.6c-0.2,0-0.4,0.1-0.6,0.2c-0.6,0.3-0.8,1.1-0.4,1.7l0.9,1.5
					c0.2,0.4,0.6,0.6,1.1,0.6c0.2,0,0.4-0.1,0.6-0.2c0.6-0.3,0.8-1.1,0.4-1.7L63.8,71.9z"/>
				<path fill="#534C63" d="M35.3,75c0.2,0.1,0.4,0.2,0.6,0.2c0.4,0,0.8-0.2,1.1-0.6l0.8-1.5c0.2-0.3,0.2-0.6,0.1-0.9
					c-0.1-0.3-0.3-0.6-0.6-0.7c-0.2-0.1-0.4-0.2-0.6-0.2c-0.4,0-0.8,0.2-1.1,0.6l-0.8,1.5c-0.2,0.3-0.2,0.6-0.1,0.9
					C34.8,74.6,35,74.8,35.3,75z"/>
				<path fill="#534C63" d="M71.6,64l1.4,0.8c0.2,0.1,0.4,0.2,0.6,0.2c0.4,0,0.8-0.2,1.1-0.6c0.2-0.3,0.2-0.6,0.1-0.9
					c-0.1-0.3-0.3-0.6-0.6-0.7l-1.4-0.8c-0.2-0.1-0.4-0.2-0.6-0.2c-0.4,0-0.8,0.2-1.1,0.6C71,62.6,71,63,71.1,63.3
					C71.1,63.6,71.4,63.9,71.6,64z"/>
				<path fill="#534C63" d="M28.4,62.4c-0.2-0.4-0.6-0.6-1.1-0.6c-0.2,0-0.4,0.1-0.6,0.2l-1.5,0.8c-0.3,0.2-0.5,0.4-0.6,0.7
					c-0.1,0.3,0,0.6,0.1,0.9c0.2,0.4,0.6,0.6,1.1,0.6c0.2,0,0.4-0.1,0.6-0.2l1.5-0.8C28.5,63.7,28.7,63,28.4,62.4z"/>
				<path fill="#534C63" d="M40.3,60.7c0.3,0,0.7-0.1,0.9-0.4l9.1-9.1c0,0,0.2-0.2,0.2-0.2c0.3-0.2,0.5-0.6,0.5-1V31.9
					c0-0.7-0.6-1.3-1.3-1.3c-0.7,0-1.3,0.6-1.3,1.3l0,17.4l-0.1,0.2l-9,9c-0.2,0.2-0.4,0.6-0.4,0.9c0,0.3,0.1,0.7,0.4,0.9
					C39.6,60.6,40,60.7,40.3,60.7z"/>
				<path fill="#534C63" d="M74.5,50c0,0.7,0.6,1.2,1.2,1.2h0l1.7,0c0.3,0,0.6-0.1,0.9-0.4c0.2-0.2,0.4-0.5,0.4-0.9
					c0-0.7-0.6-1.2-1.2-1.2l-1.7,0c-0.3,0-0.6,0.1-0.9,0.4C74.6,49.4,74.5,49.7,74.5,50z"/>
				<path fill="#534C63" d="M25,50c0-0.3-0.1-0.6-0.4-0.9c-0.2-0.2-0.5-0.4-0.9-0.4l-1.7,0c-0.7,0-1.2,0.5-1.2,1.2
					c0,0.3,0.1,0.6,0.4,0.9c0.2,0.2,0.5,0.4,0.9,0.4l1.7,0C24.5,51.2,25,50.7,25,50z"/>
				<path fill="#534C63" d="M72.2,38.2c0.2,0,0.4-0.1,0.6-0.2l1.4-0.8c0.6-0.3,0.8-1.1,0.5-1.7c-0.2-0.4-0.6-0.6-1.1-0.6
					c-0.2,0-0.4,0.1-0.6,0.2l-1.4,0.8c-0.6,0.3-0.8,1.1-0.5,1.7C71.4,38,71.8,38.2,72.2,38.2z"/>
				<path fill="#534C63" d="M25.2,37.2l1.5,0.8c0.2,0.1,0.4,0.2,0.6,0.2c0.4,0,0.8-0.2,1.1-0.6c0.2-0.3,0.2-0.6,0.1-0.9
					c-0.1-0.3-0.3-0.6-0.6-0.7l-1.5-0.8c-0.2-0.1-0.4-0.2-0.6-0.2c-0.4,0-0.8,0.2-1.1,0.6c-0.2,0.3-0.2,0.6-0.1,0.9
					C24.7,36.8,24.9,37.1,25.2,37.2z"/>
				<path fill="#534C63" d="M62.1,28.6c0.2,0.1,0.4,0.2,0.6,0.2c0.4,0,0.8-0.2,1.1-0.6l0.8-1.5c0.2-0.3,0.2-0.6,0.1-0.9
					c-0.1-0.3-0.3-0.6-0.6-0.7c-0.2-0.1-0.4-0.2-0.6-0.2c-0.4,0-0.8,0.2-1.1,0.6l-0.8,1.5C61.3,27.5,61.5,28.2,62.1,28.6z"/>
				<path fill="#534C63" d="M35.7,28.1c0.2,0.4,0.6,0.6,1.1,0.6c0.2,0,0.4-0.1,0.6-0.2c0.6-0.3,0.8-1.1,0.5-1.7L37,25.4
					c-0.2-0.4-0.6-0.6-1.1-0.6c-0.2,0-0.4,0.1-0.6,0.2c-0.3,0.2-0.5,0.4-0.6,0.7c-0.1,0.3,0,0.6,0.1,0.9L35.7,28.1z"/>
				<path fill="#534C63" d="M49.8,25.2c0.7,0,1.2-0.5,1.2-1.2v-1.7c0-0.7-0.5-1.2-1.2-1.2c-0.7,0-1.2,0.5-1.2,1.2V24
					C48.5,24.7,49.1,25.2,49.8,25.2z"/>
			</g>
		</g>
	</g>
</g>
<g id="ICONS_-_SKRILL_TEAL" display="none">
	<g display="inline">
		<g>
			<g>
				<path fill="#41AEB5" d="M49.8,84.8c19.2,0,34.8-15.6,34.8-34.8c0-19.2-15.6-34.8-34.8-34.8C30.6,15.2,15,30.8,15,50
					C15,69.2,30.6,84.8,49.8,84.8z M49.8,17.9c17.7,0,32.1,14.4,32.1,32.1c0,17.7-14.4,32.1-32.1,32.1c-17.7,0-32.1-14.4-32.1-32.1
					C17.7,32.3,32.1,17.9,49.8,17.9z"/>
				<path fill="#41AEB5" d="M49.8,74.7c-0.7,0-1.2,0.5-1.2,1.2l0,1.7c0,0.3,0.1,0.6,0.4,0.9c0.2,0.2,0.5,0.4,0.9,0.4h0
					c0.7,0,1.2-0.5,1.2-1.2l0-1.7c0-0.3-0.1-0.6-0.4-0.9C50.4,74.9,50.1,74.7,49.8,74.7z"/>
				<path fill="#41AEB5" d="M63.8,71.9c-0.2-0.4-0.6-0.6-1.1-0.6c-0.2,0-0.4,0.1-0.6,0.2c-0.6,0.3-0.8,1.1-0.4,1.7l0.9,1.5
					c0.2,0.4,0.6,0.6,1.1,0.6c0.2,0,0.4-0.1,0.6-0.2c0.6-0.3,0.8-1.1,0.4-1.7L63.8,71.9z"/>
				<path fill="#41AEB5" d="M35.3,75c0.2,0.1,0.4,0.2,0.6,0.2c0.4,0,0.8-0.2,1.1-0.6l0.8-1.5c0.2-0.3,0.2-0.6,0.1-0.9
					c-0.1-0.3-0.3-0.6-0.6-0.7c-0.2-0.1-0.4-0.2-0.6-0.2c-0.4,0-0.8,0.2-1.1,0.6l-0.8,1.5c-0.2,0.3-0.2,0.6-0.1,0.9
					C34.8,74.6,35,74.8,35.3,75z"/>
				<path fill="#41AEB5" d="M71.6,64l1.4,0.8c0.2,0.1,0.4,0.2,0.6,0.2c0.4,0,0.8-0.2,1.1-0.6c0.2-0.3,0.2-0.6,0.1-0.9
					c-0.1-0.3-0.3-0.6-0.6-0.7l-1.4-0.8c-0.2-0.1-0.4-0.2-0.6-0.2c-0.4,0-0.8,0.2-1.1,0.6C71,62.6,71,63,71.1,63.3
					C71.1,63.6,71.4,63.9,71.6,64z"/>
				<path fill="#41AEB5" d="M28.4,62.4c-0.2-0.4-0.6-0.6-1.1-0.6c-0.2,0-0.4,0.1-0.6,0.2l-1.5,0.8c-0.3,0.2-0.5,0.4-0.6,0.7
					c-0.1,0.3,0,0.6,0.1,0.9c0.2,0.4,0.6,0.6,1.1,0.6c0.2,0,0.4-0.1,0.6-0.2l1.5-0.8C28.5,63.7,28.7,63,28.4,62.4z"/>
				<path fill="#41AEB5" d="M40.3,60.7c0.3,0,0.7-0.1,0.9-0.4l9.1-9.1c0,0,0.2-0.2,0.2-0.2c0.3-0.2,0.5-0.6,0.5-1V31.9
					c0-0.7-0.6-1.3-1.3-1.3c-0.7,0-1.3,0.6-1.3,1.3l0,17.4l-0.1,0.2l-9,9c-0.2,0.2-0.4,0.6-0.4,0.9c0,0.3,0.1,0.7,0.4,0.9
					C39.6,60.6,40,60.7,40.3,60.7z"/>
				<path fill="#41AEB5" d="M74.5,50c0,0.7,0.6,1.2,1.2,1.2h0l1.7,0c0.3,0,0.6-0.1,0.9-0.4c0.2-0.2,0.4-0.5,0.4-0.9
					c0-0.7-0.6-1.2-1.2-1.2l-1.7,0c-0.3,0-0.6,0.1-0.9,0.4C74.6,49.4,74.5,49.7,74.5,50z"/>
				<path fill="#41AEB5" d="M25,50c0-0.3-0.1-0.6-0.4-0.9c-0.2-0.2-0.5-0.4-0.9-0.4l-1.7,0c-0.7,0-1.2,0.5-1.2,1.2
					c0,0.3,0.1,0.6,0.4,0.9c0.2,0.2,0.5,0.4,0.9,0.4l1.7,0C24.5,51.2,25,50.7,25,50z"/>
				<path fill="#41AEB5" d="M72.2,38.2c0.2,0,0.4-0.1,0.6-0.2l1.4-0.8c0.6-0.3,0.8-1.1,0.5-1.7c-0.2-0.4-0.6-0.6-1.1-0.6
					c-0.2,0-0.4,0.1-0.6,0.2l-1.4,0.8c-0.6,0.3-0.8,1.1-0.5,1.7C71.4,38,71.8,38.2,72.2,38.2z"/>
				<path fill="#41AEB5" d="M25.2,37.2l1.5,0.8c0.2,0.1,0.4,0.2,0.6,0.2c0.4,0,0.8-0.2,1.1-0.6c0.2-0.3,0.2-0.6,0.1-0.9
					c-0.1-0.3-0.3-0.6-0.6-0.7l-1.5-0.8c-0.2-0.1-0.4-0.2-0.6-0.2c-0.4,0-0.8,0.2-1.1,0.6c-0.2,0.3-0.2,0.6-0.1,0.9
					C24.7,36.8,24.9,37.1,25.2,37.2z"/>
				<path fill="#41AEB5" d="M62.1,28.6c0.2,0.1,0.4,0.2,0.6,0.2c0.4,0,0.8-0.2,1.1-0.6l0.8-1.5c0.2-0.3,0.2-0.6,0.1-0.9
					c-0.1-0.3-0.3-0.6-0.6-0.7c-0.2-0.1-0.4-0.2-0.6-0.2c-0.4,0-0.8,0.2-1.1,0.6l-0.8,1.5C61.3,27.5,61.5,28.2,62.1,28.6z"/>
				<path fill="#41AEB5" d="M35.7,28.1c0.2,0.4,0.6,0.6,1.1,0.6c0.2,0,0.4-0.1,0.6-0.2c0.6-0.3,0.8-1.1,0.5-1.7L37,25.4
					c-0.2-0.4-0.6-0.6-1.1-0.6c-0.2,0-0.4,0.1-0.6,0.2c-0.3,0.2-0.5,0.4-0.6,0.7c-0.1,0.3,0,0.6,0.1,0.9L35.7,28.1z"/>
				<path fill="#41AEB5" d="M49.8,25.2c0.7,0,1.2-0.5,1.2-1.2v-1.7c0-0.7-0.5-1.2-1.2-1.2c-0.7,0-1.2,0.5-1.2,1.2V24
					C48.5,24.7,49.1,25.2,49.8,25.2z"/>
			</g>
		</g>
	</g>
</g>
<g id="ICONS_-_SKRILL_PURPLE">
	<g>
		<g>
			<g>
				<path fill="#811E68" d="M49.8,84.8c19.2,0,34.8-15.6,34.8-34.8c0-19.2-15.6-34.8-34.8-34.8C30.6,15.2,15,30.8,15,50
					C15,69.2,30.6,84.8,49.8,84.8z M49.8,17.9c17.7,0,32.1,14.4,32.1,32.1c0,17.7-14.4,32.1-32.1,32.1c-17.7,0-32.1-14.4-32.1-32.1
					C17.7,32.3,32.1,17.9,49.8,17.9z"/>
				<path fill="#811E68" d="M49.8,74.7c-0.7,0-1.2,0.5-1.2,1.2l0,1.7c0,0.3,0.1,0.6,0.4,0.9c0.2,0.2,0.5,0.4,0.9,0.4h0
					c0.7,0,1.2-0.5,1.2-1.2l0-1.7c0-0.3-0.1-0.6-0.4-0.9C50.4,74.9,50.1,74.7,49.8,74.7z"/>
				<path fill="#811E68" d="M63.8,71.9c-0.2-0.4-0.6-0.6-1.1-0.6c-0.2,0-0.4,0.1-0.6,0.2c-0.6,0.3-0.8,1.1-0.4,1.7l0.9,1.5
					c0.2,0.4,0.6,0.6,1.1,0.6c0.2,0,0.4-0.1,0.6-0.2c0.6-0.3,0.8-1.1,0.4-1.7L63.8,71.9z"/>
				<path fill="#811E68" d="M35.3,75c0.2,0.1,0.4,0.2,0.6,0.2c0.4,0,0.8-0.2,1.1-0.6l0.8-1.5c0.2-0.3,0.2-0.6,0.1-0.9
					c-0.1-0.3-0.3-0.6-0.6-0.7c-0.2-0.1-0.4-0.2-0.6-0.2c-0.4,0-0.8,0.2-1.1,0.6l-0.8,1.5c-0.2,0.3-0.2,0.6-0.1,0.9
					C34.8,74.6,35,74.8,35.3,75z"/>
				<path fill="#811E68" d="M71.6,64l1.4,0.8c0.2,0.1,0.4,0.2,0.6,0.2c0.4,0,0.8-0.2,1.1-0.6c0.2-0.3,0.2-0.6,0.1-0.9
					c-0.1-0.3-0.3-0.6-0.6-0.7l-1.4-0.8c-0.2-0.1-0.4-0.2-0.6-0.2c-0.4,0-0.8,0.2-1.1,0.6C71,62.6,71,63,71.1,63.3
					C71.1,63.6,71.4,63.9,71.6,64z"/>
				<path fill="#811E68" d="M28.4,62.4c-0.2-0.4-0.6-0.6-1.1-0.6c-0.2,0-0.4,0.1-0.6,0.2l-1.5,0.8c-0.3,0.2-0.5,0.4-0.6,0.7
					c-0.1,0.3,0,0.6,0.1,0.9c0.2,0.4,0.6,0.6,1.1,0.6c0.2,0,0.4-0.1,0.6-0.2l1.5-0.8C28.5,63.7,28.7,63,28.4,62.4z"/>
				<path fill="#811E68" d="M40.3,60.7c0.3,0,0.7-0.1,0.9-0.4l9.1-9.1c0,0,0.2-0.2,0.2-0.2c0.3-0.2,0.5-0.6,0.5-1V31.9
					c0-0.7-0.6-1.3-1.3-1.3c-0.7,0-1.3,0.6-1.3,1.3l0,17.4l-0.1,0.2l-9,9c-0.2,0.2-0.4,0.6-0.4,0.9c0,0.3,0.1,0.7,0.4,0.9
					C39.6,60.6,40,60.7,40.3,60.7z"/>
				<path fill="#811E68" d="M74.5,50c0,0.7,0.6,1.2,1.2,1.2h0l1.7,0c0.3,0,0.6-0.1,0.9-0.4c0.2-0.2,0.4-0.5,0.4-0.9
					c0-0.7-0.6-1.2-1.2-1.2l-1.7,0c-0.3,0-0.6,0.1-0.9,0.4C74.6,49.4,74.5,49.7,74.5,50z"/>
				<path fill="#811E68" d="M25,50c0-0.3-0.1-0.6-0.4-0.9c-0.2-0.2-0.5-0.4-0.9-0.4l-1.7,0c-0.7,0-1.2,0.5-1.2,1.2
					c0,0.3,0.1,0.6,0.4,0.9c0.2,0.2,0.5,0.4,0.9,0.4l1.7,0C24.5,51.2,25,50.7,25,50z"/>
				<path fill="#811E68" d="M72.2,38.2c0.2,0,0.4-0.1,0.6-0.2l1.4-0.8c0.6-0.3,0.8-1.1,0.5-1.7c-0.2-0.4-0.6-0.6-1.1-0.6
					c-0.2,0-0.4,0.1-0.6,0.2l-1.4,0.8c-0.6,0.3-0.8,1.1-0.5,1.7C71.4,38,71.8,38.2,72.2,38.2z"/>
				<path fill="#811E68" d="M25.2,37.2l1.5,0.8c0.2,0.1,0.4,0.2,0.6,0.2c0.4,0,0.8-0.2,1.1-0.6c0.2-0.3,0.2-0.6,0.1-0.9
					c-0.1-0.3-0.3-0.6-0.6-0.7l-1.5-0.8c-0.2-0.1-0.4-0.2-0.6-0.2c-0.4,0-0.8,0.2-1.1,0.6c-0.2,0.3-0.2,0.6-0.1,0.9
					C24.7,36.8,24.9,37.1,25.2,37.2z"/>
				<path fill="#811E68" d="M62.1,28.6c0.2,0.1,0.4,0.2,0.6,0.2c0.4,0,0.8-0.2,1.1-0.6l0.8-1.5c0.2-0.3,0.2-0.6,0.1-0.9
					c-0.1-0.3-0.3-0.6-0.6-0.7c-0.2-0.1-0.4-0.2-0.6-0.2c-0.4,0-0.8,0.2-1.1,0.6l-0.8,1.5C61.3,27.5,61.5,28.2,62.1,28.6z"/>
				<path fill="#811E68" d="M35.7,28.1c0.2,0.4,0.6,0.6,1.1,0.6c0.2,0,0.4-0.1,0.6-0.2c0.6-0.3,0.8-1.1,0.5-1.7L37,25.4
					c-0.2-0.4-0.6-0.6-1.1-0.6c-0.2,0-0.4,0.1-0.6,0.2c-0.3,0.2-0.5,0.4-0.6,0.7c-0.1,0.3,0,0.6,0.1,0.9L35.7,28.1z"/>
				<path fill="#811E68" d="M49.8,25.2c0.7,0,1.2-0.5,1.2-1.2v-1.7c0-0.7-0.5-1.2-1.2-1.2c-0.7,0-1.2,0.5-1.2,1.2V24
					C48.5,24.7,49.1,25.2,49.8,25.2z"/>
			</g>
		</g>
	</g>
</g>
<g id="ICONS_-_WHITE" display="none">
	<g display="inline">
		<g>
			<g>
				<path fill="#FFFFFF" d="M49.8,84.8c19.2,0,34.8-15.6,34.8-34.8c0-19.2-15.6-34.8-34.8-34.8C30.6,15.2,15,30.8,15,50
					C15,69.2,30.6,84.8,49.8,84.8z M49.8,17.9c17.7,0,32.1,14.4,32.1,32.1c0,17.7-14.4,32.1-32.1,32.1c-17.7,0-32.1-14.4-32.1-32.1
					C17.7,32.3,32.1,17.9,49.8,17.9z"/>
				<path fill="#FFFFFF" d="M49.8,74.7c-0.7,0-1.2,0.5-1.2,1.2l0,1.7c0,0.3,0.1,0.6,0.4,0.9c0.2,0.2,0.5,0.4,0.9,0.4h0
					c0.7,0,1.2-0.5,1.2-1.2l0-1.7c0-0.3-0.1-0.6-0.4-0.9C50.4,74.9,50.1,74.7,49.8,74.7z"/>
				<path fill="#FFFFFF" d="M63.8,71.9c-0.2-0.4-0.6-0.6-1.1-0.6c-0.2,0-0.4,0.1-0.6,0.2c-0.6,0.3-0.8,1.1-0.4,1.7l0.9,1.5
					c0.2,0.4,0.6,0.6,1.1,0.6c0.2,0,0.4-0.1,0.6-0.2c0.6-0.3,0.8-1.1,0.4-1.7L63.8,71.9z"/>
				<path fill="#FFFFFF" d="M35.3,75c0.2,0.1,0.4,0.2,0.6,0.2c0.4,0,0.8-0.2,1.1-0.6l0.8-1.5c0.2-0.3,0.2-0.6,0.1-0.9
					c-0.1-0.3-0.3-0.6-0.6-0.7c-0.2-0.1-0.4-0.2-0.6-0.2c-0.4,0-0.8,0.2-1.1,0.6l-0.8,1.5c-0.2,0.3-0.2,0.6-0.1,0.9
					C34.8,74.6,35,74.8,35.3,75z"/>
				<path fill="#FFFFFF" d="M71.6,64l1.4,0.8c0.2,0.1,0.4,0.2,0.6,0.2c0.4,0,0.8-0.2,1.1-0.6c0.2-0.3,0.2-0.6,0.1-0.9
					c-0.1-0.3-0.3-0.6-0.6-0.7l-1.4-0.8c-0.2-0.1-0.4-0.2-0.6-0.2c-0.4,0-0.8,0.2-1.1,0.6C71,62.6,71,63,71.1,63.3
					C71.1,63.6,71.4,63.9,71.6,64z"/>
				<path fill="#FFFFFF" d="M28.4,62.4c-0.2-0.4-0.6-0.6-1.1-0.6c-0.2,0-0.4,0.1-0.6,0.2l-1.5,0.8c-0.3,0.2-0.5,0.4-0.6,0.7
					c-0.1,0.3,0,0.6,0.1,0.9c0.2,0.4,0.6,0.6,1.1,0.6c0.2,0,0.4-0.1,0.6-0.2l1.5-0.8C28.5,63.7,28.7,63,28.4,62.4z"/>
				<path fill="#FFFFFF" d="M40.3,60.7c0.3,0,0.7-0.1,0.9-0.4l9.1-9.1c0,0,0.2-0.2,0.2-0.2c0.3-0.2,0.5-0.6,0.5-1V31.9
					c0-0.7-0.6-1.3-1.3-1.3c-0.7,0-1.3,0.6-1.3,1.3l0,17.4l-0.1,0.2l-9,9c-0.2,0.2-0.4,0.6-0.4,0.9c0,0.3,0.1,0.7,0.4,0.9
					C39.6,60.6,40,60.7,40.3,60.7z"/>
				<path fill="#FFFFFF" d="M74.5,50c0,0.7,0.6,1.2,1.2,1.2h0l1.7,0c0.3,0,0.6-0.1,0.9-0.4c0.2-0.2,0.4-0.5,0.4-0.9
					c0-0.7-0.6-1.2-1.2-1.2l-1.7,0c-0.3,0-0.6,0.1-0.9,0.4C74.6,49.4,74.5,49.7,74.5,50z"/>
				<path fill="#FFFFFF" d="M25,50c0-0.3-0.1-0.6-0.4-0.9c-0.2-0.2-0.5-0.4-0.9-0.4l-1.7,0c-0.7,0-1.2,0.5-1.2,1.2
					c0,0.3,0.1,0.6,0.4,0.9c0.2,0.2,0.5,0.4,0.9,0.4l1.7,0C24.5,51.2,25,50.7,25,50z"/>
				<path fill="#FFFFFF" d="M72.2,38.2c0.2,0,0.4-0.1,0.6-0.2l1.4-0.8c0.6-0.3,0.8-1.1,0.5-1.7c-0.2-0.4-0.6-0.6-1.1-0.6
					c-0.2,0-0.4,0.1-0.6,0.2l-1.4,0.8c-0.6,0.3-0.8,1.1-0.5,1.7C71.4,38,71.8,38.2,72.2,38.2z"/>
				<path fill="#FFFFFF" d="M25.2,37.2l1.5,0.8c0.2,0.1,0.4,0.2,0.6,0.2c0.4,0,0.8-0.2,1.1-0.6c0.2-0.3,0.2-0.6,0.1-0.9
					c-0.1-0.3-0.3-0.6-0.6-0.7l-1.5-0.8c-0.2-0.1-0.4-0.2-0.6-0.2c-0.4,0-0.8,0.2-1.1,0.6c-0.2,0.3-0.2,0.6-0.1,0.9
					C24.7,36.8,24.9,37.1,25.2,37.2z"/>
				<path fill="#FFFFFF" d="M62.1,28.6c0.2,0.1,0.4,0.2,0.6,0.2c0.4,0,0.8-0.2,1.1-0.6l0.8-1.5c0.2-0.3,0.2-0.6,0.1-0.9
					c-0.1-0.3-0.3-0.6-0.6-0.7c-0.2-0.1-0.4-0.2-0.6-0.2c-0.4,0-0.8,0.2-1.1,0.6l-0.8,1.5C61.3,27.5,61.5,28.2,62.1,28.6z"/>
				<path fill="#FFFFFF" d="M35.7,28.1c0.2,0.4,0.6,0.6,1.1,0.6c0.2,0,0.4-0.1,0.6-0.2c0.6-0.3,0.8-1.1,0.5-1.7L37,25.4
					c-0.2-0.4-0.6-0.6-1.1-0.6c-0.2,0-0.4,0.1-0.6,0.2c-0.3,0.2-0.5,0.4-0.6,0.7c-0.1,0.3,0,0.6,0.1,0.9L35.7,28.1z"/>
				<path fill="#FFFFFF" d="M49.8,25.2c0.7,0,1.2-0.5,1.2-1.2v-1.7c0-0.7-0.5-1.2-1.2-1.2c-0.7,0-1.2,0.5-1.2,1.2V24
					C48.5,24.7,49.1,25.2,49.8,25.2z"/>
			</g>
		</g>
	</g>
</g>
<g id="LABELS">
</g>
</svg>
