<?xml version="1.0" encoding="utf-8"?>
<!-- Generator: Adobe Illustrator 18.1.1, SVG Export Plug-In . SVG Version: 6.00 Build 0)  -->
<svg version="1.1" xmlns="http://www.w3.org/2000/svg" xmlns:xlink="http://www.w3.org/1999/xlink" x="0px" y="0px"
	 viewBox="0 0 100 100" enable-background="new 0 0 100 100" xml:space="preserve">
<g id="GUIDES">
</g>
<g id="ICONS_-_BLACK" display="none">
	<g display="inline">
		<g>
			<g>
				<path d="M15.4,23.7c0.4,0.4,0.7,0.9,1,1.3c1.1,1.4,2.2,2.8,3.4,4.1c0.5,0.6,1,1.2,1.4,1.8c0.2,0,0.4,0,0.5,0c0-2.4,0-4.9,0-7.3
					c0-1,0-1,1-1.2c0.1,0,0.2-0.1,0.3-0.2c-0.1-0.1-0.2-0.2-0.3-0.2c-0.8,0-1.6,0-2.5,0c-0.2,0-0.3,0.1-0.5,0.2
					c0.2,0.1,0.3,0.2,0.5,0.2c0.1,0,0.2,0,0.3,0c0.3,0,0.5,0.1,0.5,0.4c0,0.2,0.1,0.4,0.1,0.6c0,1.5,0.1,3,0.1,4.5
					c0,0.1,0,0.2,0,0.4c-0.1-0.1-0.2-0.1-0.2-0.2c-0.5-0.6-0.9-1.2-1.4-1.8c-0.9-1.2-1.9-2.4-2.9-3.6c-0.4-0.5-0.7-0.9-1.4-0.8
					c-0.4,0.1-0.9,0-1.4,0c-0.2,0-0.4,0.1-0.6,0.2c0.2,0.1,0.4,0.2,0.6,0.2c0.3,0.1,0.6,0.1,0.6,0.5c0,2.3,0,4.5,0,6.8
					c0,0.2-0.3,0.4-0.4,0.6c-0.1,0.1-0.3,0-0.5,0.1c-0.1,0-0.2,0.2-0.3,0.2c0.1,0,0.2,0.1,0.4,0.1c0.8,0,1.7,0,2.5,0
					c0.2,0,0.3-0.1,0.5-0.1c0-0.1,0-0.1,0-0.2c-0.1,0-0.3-0.1-0.4-0.1c-0.7-0.1-0.9-0.2-1-0.9c-0.1-0.8-0.1-1.7-0.1-2.6
					c0-1.1,0-2.2,0-3.4C15.3,23.6,15.4,23.6,15.4,23.7z"/>
				<path d="M90.5,23.4C90,22.5,89.3,22,88.3,22c-1.5,0-3,0-4.5,0c-0.1,0-0.3,0.1-0.4,0.1c0.1,0.1,0.3,0.2,0.4,0.3c0,0,0.1,0,0.1,0
					c0.6,0.1,0.7,0.2,0.7,0.8c0,2.1,0,4.1,0,6.2c0,0.7-0.1,0.8-0.8,1c-0.2,0-0.3,0.1-0.5,0.2c0.3,0.3,4,0.2,4.2,0
					c-0.2-0.1-0.4-0.1-0.6-0.1c-0.6-0.1-0.8-0.3-0.8-0.9c0-0.3,0-0.7,0-1c0-0.6,0-1.3,0-1.9c0.4,0.1,0.7,0.2,1,0.3
					c1.1,0.3,2,0.1,2.8-0.7c0.3-0.2,0.4-0.6,0.6-0.9c0-0.6,0-1.1,0-1.7C90.6,23.5,90.5,23.4,90.5,23.4z M88.8,25.5
					c-0.5,0.7-1.5,1.1-2.3,0.7c-0.1,0-0.2-0.2-0.2-0.4c0-0.5,0-1,0-1.5c0-0.4,0-0.7,0-1.1c0-0.9,0.5-1.2,1.3-1
					C89,22.8,89.6,24.3,88.8,25.5z"/>
				<path d="M23.8,22.3c0.8,0,1,0.6,1.2,1.1c0.5,1.1,0.9,2.2,1.4,3.4c0.6,1.4,1.2,2.8,1.8,4.1c0.1,0,0.2,0,0.4,0
					c0.1-0.3,0.2-0.5,0.3-0.8c0.5-1.3,1-2.5,1.5-3.8c0.3-0.8,0.6-1.7,1-2.5c0.3-0.7,0.4-1.5,1.4-1.5c0.1,0,0.2-0.2,0.2-0.2
					c-1-0.1-2-0.1-3-0.1c-0.1,0-0.2,0.1-0.2,0.1c0.1,0.1,0.1,0.1,0.2,0.2c0.1,0,0.2,0.1,0.3,0.1c0.8,0.1,0.9,0.3,0.6,1
					c-0.4,1-0.8,2-1.2,3c-0.3,0.6-0.5,1.3-0.8,2c-0.2-0.3-0.3-0.4-0.4-0.6c-0.6-1.5-1.2-3-1.9-4.4c-0.3-0.7-0.3-0.8,0.5-1
					c0.1,0,0.1,0,0.2,0c0.1-0.1,0.1-0.2,0.2-0.3c-1.3,0-2.6,0-3.8,0c-0.1,0-0.2,0.1-0.2,0.1C23.7,22.2,23.8,22.3,23.8,22.3z"/>
				<path d="M47.5,24c0.1-0.1,0.2-0.1,0.2-0.2c0.5-0.9,1.3-1.3,2.3-1.3c0.4,0,0.6,0.2,0.6,0.6c0,2,0,4.1,0,6.1
					c0,0.8-0.1,1.1-0.9,1.2c-0.1,0-0.2,0.1-0.3,0.2c0.1,0.1,0.2,0.2,0.3,0.2c1.1,0,2.1,0,3.2,0c0.1,0,0.2-0.1,0.4-0.2
					c-0.1-0.1-0.2-0.2-0.3-0.2c-0.8-0.2-0.8-0.3-0.8-1c0-1.9,0-3.8,0-5.7c0-1-0.2-1.1,1.1-1.1c1,0,1.3,0.2,1.6,1.2
					c0,0.1,0,0.1,0,0.2c0.1,0.1,0.1,0.2,0.2,0.3c0.1-0.1,0.2-0.2,0.2-0.3c0.1-0.4,0.1-0.8,0.1-1.1c0-0.5,0-0.9-0.1-1.4
					c-0.1,0-0.2,0-0.3,0c-0.1,0.5-0.4,0.6-0.9,0.6c-1.8,0-3.6,0-5.4,0c-0.5,0-0.6-0.1-0.6-0.6c-0.1,0-0.2,0-0.3,0
					c-0.2,0.7-0.4,1.4-0.6,2.1c0,0.1-0.1,0.3,0,0.4c0,0.1,0.1,0.2,0.1,0.2C47.3,24.1,47.5,24,47.5,24z"/>
				<path d="M12.3,22.4c0.1,0,0.3-0.1,0.4-0.2c-0.1-0.1-0.3-0.2-0.4-0.2c-1.2,0-2.4,0-3.6,0c0,0.1,0,0.2,0,0.4c0.2,0,0.4,0,0.7,0.1
					c0.4,0.1,0.6,0.3,0.6,0.7c0,2.2,0,4.3,0,6.5c0,0.4-0.2,0.6-0.6,0.7c-0.2,0.1-0.5,0.1-0.7,0.1c0,0.1,0,0.2,0,0.3
					c0.1,0,0.3,0.1,0.4,0.1c1.1,0,2.2,0,3.2,0c0.1,0,0.2-0.1,0.4-0.2c-0.1-0.1-0.2-0.2-0.3-0.2c-0.7-0.1-0.9-0.2-0.9-0.9
					c0-2.1,0-4.2,0-6.3C11.5,22.6,11.7,22.5,12.3,22.4z"/>
				<path d="M82.5,30.3c-0.3-0.1-0.6-0.3-0.7-0.5c-0.4-0.6-0.7-1.2-1-1.7c-0.4-0.6-0.8-1.2-1.1-1.8c0.4-0.3,1-0.5,1.4-1
					c0.5-0.7,0.5-1.5,0-2.3c-0.4-0.7-1.1-1-1.8-1c-1.5,0-3,0-4.5,0c-0.1,0-0.3,0.1-0.4,0.2c0.1,0.1,0.2,0.2,0.4,0.2
					c0.8,0,0.9,0.4,0.9,1.1c0,1,0,1.9,0,2.9c0,1,0,2,0,3.1c0,0.6-0.2,0.8-0.8,0.9c-0.2,0-0.3,0.1-0.5,0.1c0.3,0.3,3.8,0.3,4.1,0
					c-0.2-0.1-0.3-0.1-0.5-0.1c-0.6-0.1-0.7-0.2-0.8-0.8c0-0.9,0-1.8,0-2.7c0-0.3,0.1-0.4,0.4-0.4c0.5,0,0.7,0.4,0.9,0.7
					c0.6,1.1,1.1,2.2,1.7,3.2c0.1,0.1,0.3,0.3,0.5,0.3c0.6,0,1.2,0,1.8,0c0.2,0,0.3-0.1,0.5-0.1c0,0,0-0.1,0-0.1
					C82.9,30.4,82.7,30.4,82.5,30.3z M78.3,26.1c-1.2,0-1.1,0.2-1.1-1.1c0-0.2,0-0.4,0-0.6c0,0,0,0,0,0c0-0.5,0-0.9,0-1.4
					c0-0.5,0.3-0.7,0.8-0.6c1.6,0.1,2.2,2,1.5,3.1C79.2,25.9,78.8,26.1,78.3,26.1z"/>
				<path d="M70.3,22c-1.4-0.2-2.8,0-4,0.9c-1.2,0.9-1.7,2-1.8,3.2c0,2.2,1,3.6,2.7,4.3c2,0.9,3.9,0.6,5.6-0.9
					c1.5-1.3,1.9-3.8,0.7-5.5C72.8,22.8,71.7,22.1,70.3,22z M71.5,29.5c-1,1.3-2.7,1.3-3.9,0.1c-1.2-1.3-1.4-2.8-1.2-4.4
					c0.1-1,0.5-1.8,1.3-2.4c0.3-0.2,0.6-0.4,0.9-0.4c0.6-0.1,1.3-0.1,1.9,0.1c0.8,0.4,1.4,1,1.7,1.9c0.3,0.6,0.3,1.3,0.5,2
					C72.5,27.5,72.2,28.6,71.5,29.5z"/>
				<path d="M34.1,30.3c-0.2,0-0.4,0.1-0.6,0.2c0,0.1,0,0.1,0,0.2c0.2,0,0.3,0.1,0.5,0.1c1.2,0,2.3,0,3.5,0c0.7,0,1.4,0,2.1,0
					c0.3,0,0.6,0,0.7-0.4c0.1-0.6,0.1-1.2,0.2-1.7c0,0-0.1-0.1-0.1-0.1c-0.1,0.1-0.2,0.1-0.3,0.2c-0.3,0.3-0.4,0.8-0.8,1
					c-0.6,0.5-1.4,0.5-2.2,0.4c-0.6-0.1-0.8-0.3-0.9-0.9c0-0.8,0-1.7,0-2.5c0-0.3,0.1-0.4,0.4-0.4c0.4,0,0.8,0,1.2,0
					c0.4,0,0.9,0.4,1,0.8c0,0.1,0,0.3,0.1,0.3c0.1,0.1,0.2,0.2,0.3,0.2c0-0.1,0.1-0.2,0.1-0.3c0-0.6,0-1.1,0-1.7c0-0.3,0-0.7,0-1
					c-0.1,0-0.1,0-0.2,0c-0.1,0.1-0.2,0.3-0.3,0.4c-0.1,0.1-0.1,0.3-0.2,0.5c-0.3,0.4-1.9,0.5-2.3,0.3c-0.1-0.1-0.2-0.3-0.2-0.4
					c0-0.7,0-1.4,0-2.1c0-0.5,0.2-0.7,0.7-0.7c0.5,0,1.1,0,1.6,0.1c0.4,0.1,0.8,0.3,1,0.7c0.1,0.2,0.3,0.4,0.4,0.6
					c0.1,0,0.1,0,0.2-0.1c0-0.5,0-1,0-1.5c0-0.3-0.1-0.4-0.4-0.4c-1.9,0-3.8,0-5.8,0c-0.1,0-0.2,0-0.3,0c-0.1,0-0.1,0.1-0.1,0.1
					c0,0.1,0,0.2,0.1,0.2c0.1,0.1,0.3,0.1,0.4,0.1c0.5,0.1,0.7,0.2,0.7,0.7c0,2.1,0,4.3,0,6.4C34.7,30,34.6,30.2,34.1,30.3z"/>
				<path d="M61.3,30.8c0.7,0,1.3-0.2,1.9-0.4c0.2-0.1,0.5-0.4,0.6-0.7c0.1-0.3,0.1-0.7,0.1-1.1c0-0.1-0.1-0.2-0.1-0.3
					c-0.1,0.1-0.2,0.1-0.2,0.2c-0.2,0.3-0.4,0.7-0.7,1c-0.4,0.4-0.8,0.8-1.3,0.9c-1.3,0.4-3-0.6-3.5-1.9c-0.4-1.1-0.6-2.1-0.3-3.3
					c0.3-1.4,1.5-3.1,3.5-2.9c0.7,0.1,1.2,0.3,1.6,0.8c0.2,0.2,0.3,0.4,0.5,0.6c0.1,0.1,0.3,0.1,0.4,0.2c0-0.1,0.1-0.2,0.1-0.3
					c0-0.2,0-0.4-0.1-0.6c-0.1-0.6-0.2-0.8-0.8-0.9c-0.6-0.1-1.2-0.1-1.8-0.2c-2.1,0-3.9,0.9-4.8,2.3c-1,1.6-0.8,3.3,0.3,4.7
					C57.8,30.5,59.5,30.9,61.3,30.8z"/>
				<path d="M42,30.4c0.5,0.2,1,0.3,1.5,0.4c1.6,0.2,3.2-0.5,3.5-2.3c0.2-0.9-0.2-2-1-2.5c-0.6-0.4-1.3-0.6-1.9-1
					c-0.4-0.2-0.8-0.5-1-0.8c-0.4-0.5-0.3-1,0-1.5c0.3-0.5,0.9-0.5,1.4-0.5c0.6,0,1,0.2,1.3,0.8c0.1,0.3,0.2,0.5,0.3,0.8
					c0.1,0.1,0.2,0.2,0.3,0.3c0-0.1,0.1-0.2,0.1-0.4c0-0.2,0-0.3,0-0.5c0-0.1,0-0.3,0-0.4c0.1-0.5-0.2-0.7-0.6-0.8
					c-0.6-0.1-1.3-0.1-1.9-0.1c-1.2,0.1-2.3,1-2.3,2.3c0,1,0.4,1.7,1.3,2.1c0.6,0.3,1.3,0.6,1.9,1c0.6,0.3,1,0.7,1.1,1.4
					c0.1,0.6-0.2,1-0.6,1.4c-0.6,0.4-1.2,0.5-1.8,0.2c-0.8-0.4-1.3-1-1.4-1.9c0-0.1-0.1-0.2-0.2-0.2c-0.1,0.1-0.2,0.2-0.2,0.2
					c0,0.5-0.1,1-0.1,1.5C41.6,30.1,41.8,30.3,42,30.4z"/>
				<path d="M64.4,58.9c-4.8,0-8.7,3.9-8.7,8.7c0,4.8,3.9,8.7,8.7,8.7c4.8,0,8.7-3.9,8.7-8.7C73.1,62.8,69.2,58.9,64.4,58.9z
					 M64.4,74c-3.5,0-6.4-2.9-6.4-6.4c0-3.5,2.9-6.4,6.4-6.4c3.5,0,6.4,2.9,6.4,6.4C70.8,71.2,67.9,74,64.4,74z"/>
				<path d="M35.2,58.9h-3.6c-2.3,2.4-3.7,5.4-3.7,8.7c0,3.3,1.4,6.4,3.7,8.7h3.6c-3-2.1-4.9-5.2-4.9-8.7
					C30.3,64.1,32.2,61,35.2,58.9z"/>
				<path d="M42.1,58.9h-3.6c-2.3,2.4-3.7,5.4-3.7,8.7c0,3.3,1.4,6.4,3.7,8.7h3.6c-3-2.1-4.9-5.2-4.9-8.7
					C37.2,64.1,39.1,61,42.1,58.9z"/>
				<path d="M28.2,76.4c-3-2.1-4.9-5.2-4.9-8.7c0-3.5,1.9-6.7,4.9-8.7h-3.6c-2.3,2.4-3.7,5.4-3.7,8.7c0,3.3,1.4,6.4,3.7,8.7H28.2z"
					/>
				<path d="M44.1,67.6c0-3.5,1.9-6.7,4.9-8.7h-3.6c-2.3,2.4-3.7,5.4-3.7,8.7c0,3.3,1.4,6.4,3.7,8.7H49C46,74.3,44.1,71.2,44.1,67.6
					z"/>
				<path d="M55.9,58.9h-3.6c-2.3,2.4-3.7,5.4-3.7,8.7c0,3.3,1.4,6.4,3.7,8.7h3.6c-3-2.1-4.9-5.2-4.9-8.7C51,64.1,53,61,55.9,58.9z"
					/>
				<path d="M24.6,79.8c-0.2,0-0.4,0.1-0.5,0.1c-0.1,0.1-0.3,0.2-0.4,0.3h0c-0.1-0.3-0.4-0.5-0.8-0.5c-0.5,0-0.7,0.3-0.8,0.4h0
					l0-0.4h-0.7c0,0.2,0,0.5,0,0.9v1.9h0.8V81c0-0.1,0-0.2,0-0.2c0.1-0.1,0.2-0.3,0.4-0.3c0.3,0,0.4,0.2,0.4,0.6v1.5h0.8V81
					c0-0.1,0-0.2,0-0.2c0.1-0.2,0.2-0.3,0.4-0.3c0.3,0,0.4,0.2,0.4,0.6v1.5h0.8V81C25.5,80.2,25.1,79.8,24.6,79.8z"/>
				<path d="M27.6,79.8c-0.9,0-1.5,0.6-1.5,1.5c0,0.9,0.6,1.4,1.4,1.4c0.7,0,1.5-0.5,1.5-1.5C29,80.4,28.5,79.8,27.6,79.8z M27.6,82
					c-0.4,0-0.6-0.4-0.6-0.8c0-0.4,0.2-0.8,0.6-0.8c0.4,0,0.5,0.4,0.5,0.8C28.2,81.7,28,82,27.6,82z"/>
				<path d="M31.3,79.8c-0.5,0-0.7,0.3-0.9,0.4h0l0-0.4h-0.7c0,0.2,0,0.5,0,0.9v1.9h0.9V81c0-0.1,0-0.2,0-0.2
					c0.1-0.2,0.2-0.3,0.4-0.3c0.3,0,0.4,0.2,0.4,0.6v1.5h0.9V81C32.3,80.2,31.9,79.8,31.3,79.8z"/>
				<path d="M34.4,79.8c-1,0-1.4,0.8-1.4,1.5c0,0.9,0.5,1.4,1.5,1.4c0.4,0,0.7-0.1,1-0.2l-0.1-0.6C35.1,82,34.9,82,34.6,82
					c-0.4,0-0.8-0.2-0.8-0.5h1.8c0-0.1,0-0.2,0-0.3C35.6,80.5,35.3,79.8,34.4,79.8z M33.8,80.9c0-0.2,0.2-0.6,0.5-0.6
					c0.4,0,0.5,0.3,0.5,0.6H33.8z"/>
				<path d="M37.6,81.2c0,0.2-0.1,0.4-0.1,0.5h0c0-0.1-0.1-0.4-0.1-0.5l-0.4-1.4h-1l1,2.5c0,0.1,0,0.1,0,0.1c0,0,0,0.1,0,0.1
					c-0.1,0.1-0.2,0.3-0.4,0.3c-0.1,0.1-0.3,0.1-0.4,0.1l0.2,0.7c0.2,0,0.5-0.1,0.8-0.4c0.3-0.3,0.6-0.7,1-1.8l0.6-1.8h-0.9
					L37.6,81.2z"/>
				<path d="M41,79.8c-0.4,0-0.7,0.2-0.8,0.4h0v-1.6h-0.9v3.2c0,0.3,0,0.6,0,0.8H40l0-0.4h0c0.2,0.3,0.5,0.4,0.8,0.4
					c0.6,0,1.3-0.5,1.3-1.5C42.2,80.3,41.7,79.8,41,79.8z M40.7,82c-0.2,0-0.4-0.2-0.5-0.4c0,0,0-0.1,0-0.2V81c0-0.1,0-0.1,0-0.2
					c0.1-0.2,0.3-0.4,0.5-0.4c0.4,0,0.6,0.3,0.6,0.8C41.3,81.7,41.1,82,40.7,82z"/>
				<path d="M44.2,79.8c-0.9,0-1.5,0.6-1.5,1.5c0,0.9,0.6,1.4,1.4,1.4c0.7,0,1.5-0.5,1.5-1.5C45.6,80.4,45,79.8,44.2,79.8z M44.2,82
					c-0.4,0-0.6-0.4-0.6-0.8c0-0.4,0.2-0.8,0.6-0.8c0.4,0,0.5,0.4,0.5,0.8C44.7,81.7,44.5,82,44.2,82z"/>
				<path d="M47.6,79.8c-0.9,0-1.5,0.6-1.5,1.5c0,0.9,0.6,1.4,1.4,1.4c0.7,0,1.5-0.5,1.5-1.5C49,80.4,48.4,79.8,47.6,79.8z M47.6,82
					c-0.4,0-0.6-0.4-0.6-0.8c0-0.4,0.2-0.8,0.6-0.8c0.4,0,0.5,0.4,0.5,0.8C48.1,81.7,47.9,82,47.6,82z"/>
				<path d="M52.3,79.8h-1l-0.6,0.8c-0.1,0.1-0.1,0.2-0.2,0.3h0v-2.4h-0.9v4h0.9v-0.9l0.2-0.3l0.7,1.1h1.1L51.3,81L52.3,79.8z"/>
				<path d="M54,79.8c-1,0-1.4,0.8-1.4,1.5c0,0.9,0.5,1.4,1.5,1.4c0.4,0,0.7-0.1,1-0.2L55,81.9C54.7,82,54.5,82,54.2,82
					c-0.4,0-0.8-0.2-0.8-0.5h1.8c0-0.1,0-0.2,0-0.3C55.2,80.5,54.9,79.8,54,79.8z M53.4,80.9c0-0.2,0.2-0.6,0.5-0.6
					c0.4,0,0.5,0.3,0.5,0.6H53.4z"/>
				<path d="M56.7,80.4L56.7,80.4l-0.1-0.5h-0.7c0,0.2,0,0.5,0,0.9v1.8h0.9v-1.4c0-0.1,0-0.1,0-0.2c0.1-0.3,0.3-0.4,0.6-0.4
					c0.1,0,0.2,0,0.2,0v-0.8c-0.1,0-0.1,0-0.2,0C57.1,79.8,56.8,79.9,56.7,80.4z"/>
				<path d="M59.4,80.9c-0.3-0.1-0.4-0.2-0.4-0.3c0-0.1,0.1-0.2,0.3-0.2c0.2,0,0.5,0.1,0.6,0.2l0.1-0.6c-0.2-0.1-0.5-0.2-0.8-0.2
					c-0.7,0-1.1,0.4-1.1,0.9c0,0.3,0.2,0.6,0.8,0.8c0.3,0.1,0.4,0.2,0.4,0.3c0,0.1-0.1,0.2-0.4,0.2c-0.3,0-0.6-0.1-0.7-0.2L58,82.5
					c0.2,0.1,0.5,0.2,0.9,0.2c0.8,0,1.2-0.4,1.2-0.9C60.1,81.4,59.9,81.1,59.4,80.9z"/>
				<path d="M61.4,81.8c-0.3,0-0.5,0.2-0.5,0.5c0,0.3,0.2,0.5,0.5,0.5c0.3,0,0.5-0.2,0.5-0.5C61.9,82,61.7,81.8,61.4,81.8z"/>
				<path d="M63.7,80.3c0.2,0,0.4,0.1,0.5,0.1l0.1-0.5c-0.2-0.1-0.4-0.1-0.7-0.1c-1,0-1.5,0.6-1.5,1.5c0,0.9,0.6,1.4,1.4,1.4
					c0.3,0,0.6-0.1,0.8-0.1L64.3,82c-0.1,0.1-0.3,0.1-0.5,0.1c-0.5,0-0.8-0.3-0.8-0.9C62.9,80.7,63.2,80.3,63.7,80.3z"/>
				<path d="M66.2,79.7c-0.8,0-1.4,0.6-1.4,1.5c0,0.9,0.6,1.4,1.4,1.4c0.7,0,1.4-0.5,1.4-1.5C67.6,80.3,67,79.7,66.2,79.7z
					 M66.2,82.1c-0.4,0-0.7-0.4-0.7-0.9c0-0.5,0.2-0.9,0.7-0.9c0.5,0,0.7,0.5,0.7,0.9C66.9,81.7,66.6,82.1,66.2,82.1z"/>
				<path d="M71.4,79.7c-0.2,0-0.4,0.1-0.6,0.2c-0.1,0.1-0.2,0.2-0.3,0.3h0c-0.1-0.3-0.4-0.5-0.8-0.5c-0.5,0-0.7,0.3-0.8,0.5h0
					l0-0.4h-0.6c0,0.2,0,0.5,0,0.8v1.9H69v-1.6c0-0.1,0-0.2,0-0.2c0.1-0.2,0.2-0.4,0.5-0.4c0.3,0,0.5,0.3,0.5,0.7v1.6h0.7v-1.6
					c0-0.1,0-0.2,0-0.2c0.1-0.2,0.2-0.4,0.5-0.4c0.3,0,0.5,0.3,0.5,0.7v1.5h0.7v-1.6C72.3,80,71.9,79.7,71.4,79.7z"/>
				<path d="M49.6,45.8l0,3.7c0,0.4,0.3,0.7,0.7,0.7c0.4,0,0.7-0.3,0.7-0.7l0-0.3h0l0-3.4l3.7,0c0.4,0,0.7-0.3,0.7-0.7
					c0-0.4-0.3-0.7-0.7-0.7l-0.3,0v0l-3.4,0l0-3.7c0-0.4-0.3-0.7-0.7-0.7c-0.4,0-0.7,0.3-0.7,0.7l0,0.3h0l0,3.4l-3.7,0
					c-0.4,0-0.7,0.3-0.7,0.7c0,0.4,0.3,0.7,0.7,0.7l0.3,0v0L49.6,45.8z"/>
			</g>
		</g>
	</g>
</g>
<g id="ICONS_-_DARK_PURPLE" display="none">
	<g display="inline">
		<g>
			<g>
				<path fill="#4F2556" d="M15.4,23.7c0.4,0.4,0.7,0.9,1,1.3c1.1,1.4,2.2,2.8,3.4,4.1c0.5,0.6,1,1.2,1.4,1.8c0.2,0,0.4,0,0.5,0
					c0-2.4,0-4.9,0-7.3c0-1,0-1,1-1.2c0.1,0,0.2-0.1,0.3-0.2c-0.1-0.1-0.2-0.2-0.3-0.2c-0.8,0-1.6,0-2.5,0c-0.2,0-0.3,0.1-0.5,0.2
					c0.2,0.1,0.3,0.2,0.5,0.2c0.1,0,0.2,0,0.3,0c0.3,0,0.5,0.1,0.5,0.4c0,0.2,0.1,0.4,0.1,0.6c0,1.5,0.1,3,0.1,4.5
					c0,0.1,0,0.2,0,0.4c-0.1-0.1-0.2-0.1-0.2-0.2c-0.5-0.6-0.9-1.2-1.4-1.8c-0.9-1.2-1.9-2.4-2.9-3.6c-0.4-0.5-0.7-0.9-1.4-0.8
					c-0.4,0.1-0.9,0-1.4,0c-0.2,0-0.4,0.1-0.6,0.2c0.2,0.1,0.4,0.2,0.6,0.2c0.3,0.1,0.6,0.1,0.6,0.5c0,2.3,0,4.5,0,6.8
					c0,0.2-0.3,0.4-0.4,0.6c-0.1,0.1-0.3,0-0.5,0.1c-0.1,0-0.2,0.2-0.3,0.2c0.1,0,0.2,0.1,0.4,0.1c0.8,0,1.7,0,2.5,0
					c0.2,0,0.3-0.1,0.5-0.1c0-0.1,0-0.1,0-0.2c-0.1,0-0.3-0.1-0.4-0.1c-0.7-0.1-0.9-0.2-1-0.9c-0.1-0.8-0.1-1.7-0.1-2.6
					c0-1.1,0-2.2,0-3.4C15.3,23.6,15.4,23.6,15.4,23.7z"/>
				<path fill="#4F2556" d="M90.5,23.4C90,22.5,89.3,22,88.3,22c-1.5,0-3,0-4.5,0c-0.1,0-0.3,0.1-0.4,0.1c0.1,0.1,0.3,0.2,0.4,0.3
					c0,0,0.1,0,0.1,0c0.6,0.1,0.7,0.2,0.7,0.8c0,2.1,0,4.1,0,6.2c0,0.7-0.1,0.8-0.8,1c-0.2,0-0.3,0.1-0.5,0.2c0.3,0.3,4,0.2,4.2,0
					c-0.2-0.1-0.4-0.1-0.6-0.1c-0.6-0.1-0.8-0.3-0.8-0.9c0-0.3,0-0.7,0-1c0-0.6,0-1.3,0-1.9c0.4,0.1,0.7,0.2,1,0.3
					c1.1,0.3,2,0.1,2.8-0.7c0.3-0.2,0.4-0.6,0.6-0.9c0-0.6,0-1.1,0-1.7C90.6,23.5,90.5,23.4,90.5,23.4z M88.8,25.5
					c-0.5,0.7-1.5,1.1-2.3,0.7c-0.1,0-0.2-0.2-0.2-0.4c0-0.5,0-1,0-1.5c0-0.4,0-0.7,0-1.1c0-0.9,0.5-1.2,1.3-1
					C89,22.8,89.6,24.3,88.8,25.5z"/>
				<path fill="#4F2556" d="M23.8,22.3c0.8,0,1,0.6,1.2,1.1c0.5,1.1,0.9,2.2,1.4,3.4c0.6,1.4,1.2,2.8,1.8,4.1c0.1,0,0.2,0,0.4,0
					c0.1-0.3,0.2-0.5,0.3-0.8c0.5-1.3,1-2.5,1.5-3.8c0.3-0.8,0.6-1.7,1-2.5c0.3-0.7,0.4-1.5,1.4-1.5c0.1,0,0.2-0.2,0.2-0.2
					c-1-0.1-2-0.1-3-0.1c-0.1,0-0.2,0.1-0.2,0.1c0.1,0.1,0.1,0.1,0.2,0.2c0.1,0,0.2,0.1,0.3,0.1c0.8,0.1,0.9,0.3,0.6,1
					c-0.4,1-0.8,2-1.2,3c-0.3,0.6-0.5,1.3-0.8,2c-0.2-0.3-0.3-0.4-0.4-0.6c-0.6-1.5-1.2-3-1.9-4.4c-0.3-0.7-0.3-0.8,0.5-1
					c0.1,0,0.1,0,0.2,0c0.1-0.1,0.1-0.2,0.2-0.3c-1.3,0-2.6,0-3.8,0c-0.1,0-0.2,0.1-0.2,0.1C23.7,22.2,23.8,22.3,23.8,22.3z"/>
				<path fill="#4F2556" d="M47.5,24c0.1-0.1,0.2-0.1,0.2-0.2c0.5-0.9,1.3-1.3,2.3-1.3c0.4,0,0.6,0.2,0.6,0.6c0,2,0,4.1,0,6.1
					c0,0.8-0.1,1.1-0.9,1.2c-0.1,0-0.2,0.1-0.3,0.2c0.1,0.1,0.2,0.2,0.3,0.2c1.1,0,2.1,0,3.2,0c0.1,0,0.2-0.1,0.4-0.2
					c-0.1-0.1-0.2-0.2-0.3-0.2c-0.8-0.2-0.8-0.3-0.8-1c0-1.9,0-3.8,0-5.7c0-1-0.2-1.1,1.1-1.1c1,0,1.3,0.2,1.6,1.2
					c0,0.1,0,0.1,0,0.2c0.1,0.1,0.1,0.2,0.2,0.3c0.1-0.1,0.2-0.2,0.2-0.3c0.1-0.4,0.1-0.8,0.1-1.1c0-0.5,0-0.9-0.1-1.4
					c-0.1,0-0.2,0-0.3,0c-0.1,0.5-0.4,0.6-0.9,0.6c-1.8,0-3.6,0-5.4,0c-0.5,0-0.6-0.1-0.6-0.6c-0.1,0-0.2,0-0.3,0
					c-0.2,0.7-0.4,1.4-0.6,2.1c0,0.1-0.1,0.3,0,0.4c0,0.1,0.1,0.2,0.1,0.2C47.3,24.1,47.5,24,47.5,24z"/>
				<path fill="#4F2556" d="M12.3,22.4c0.1,0,0.3-0.1,0.4-0.2c-0.1-0.1-0.3-0.2-0.4-0.2c-1.2,0-2.4,0-3.6,0c0,0.1,0,0.2,0,0.4
					c0.2,0,0.4,0,0.7,0.1c0.4,0.1,0.6,0.3,0.6,0.7c0,2.2,0,4.3,0,6.5c0,0.4-0.2,0.6-0.6,0.7c-0.2,0.1-0.5,0.1-0.7,0.1
					c0,0.1,0,0.2,0,0.3c0.1,0,0.3,0.1,0.4,0.1c1.1,0,2.2,0,3.2,0c0.1,0,0.2-0.1,0.4-0.2c-0.1-0.1-0.2-0.2-0.3-0.2
					c-0.7-0.1-0.9-0.2-0.9-0.9c0-2.1,0-4.2,0-6.3C11.5,22.6,11.7,22.5,12.3,22.4z"/>
				<path fill="#4F2556" d="M82.5,30.3c-0.3-0.1-0.6-0.3-0.7-0.5c-0.4-0.6-0.7-1.2-1-1.7c-0.4-0.6-0.8-1.2-1.1-1.8
					c0.4-0.3,1-0.5,1.4-1c0.5-0.7,0.5-1.5,0-2.3c-0.4-0.7-1.1-1-1.8-1c-1.5,0-3,0-4.5,0c-0.1,0-0.3,0.1-0.4,0.2
					c0.1,0.1,0.2,0.2,0.4,0.2c0.8,0,0.9,0.4,0.9,1.1c0,1,0,1.9,0,2.9c0,1,0,2,0,3.1c0,0.6-0.2,0.8-0.8,0.9c-0.2,0-0.3,0.1-0.5,0.1
					c0.3,0.3,3.8,0.3,4.1,0c-0.2-0.1-0.3-0.1-0.5-0.1c-0.6-0.1-0.7-0.2-0.8-0.8c0-0.9,0-1.8,0-2.7c0-0.3,0.1-0.4,0.4-0.4
					c0.5,0,0.7,0.4,0.9,0.7c0.6,1.1,1.1,2.2,1.7,3.2c0.1,0.1,0.3,0.3,0.5,0.3c0.6,0,1.2,0,1.8,0c0.2,0,0.3-0.1,0.5-0.1
					c0,0,0-0.1,0-0.1C82.9,30.4,82.7,30.4,82.5,30.3z M78.3,26.1c-1.2,0-1.1,0.2-1.1-1.1c0-0.2,0-0.4,0-0.6c0,0,0,0,0,0
					c0-0.5,0-0.9,0-1.4c0-0.5,0.3-0.7,0.8-0.6c1.6,0.1,2.2,2,1.5,3.1C79.2,25.9,78.8,26.1,78.3,26.1z"/>
				<path fill="#4F2556" d="M70.3,22c-1.4-0.2-2.8,0-4,0.9c-1.2,0.9-1.7,2-1.8,3.2c0,2.2,1,3.6,2.7,4.3c2,0.9,3.9,0.6,5.6-0.9
					c1.5-1.3,1.9-3.8,0.7-5.5C72.8,22.8,71.7,22.1,70.3,22z M71.5,29.5c-1,1.3-2.7,1.3-3.9,0.1c-1.2-1.3-1.4-2.8-1.2-4.4
					c0.1-1,0.5-1.8,1.3-2.4c0.3-0.2,0.6-0.4,0.9-0.4c0.6-0.1,1.3-0.1,1.9,0.1c0.8,0.4,1.4,1,1.7,1.9c0.3,0.6,0.3,1.3,0.5,2
					C72.5,27.5,72.2,28.6,71.5,29.5z"/>
				<path fill="#4F2556" d="M34.1,30.3c-0.2,0-0.4,0.1-0.6,0.2c0,0.1,0,0.1,0,0.2c0.2,0,0.3,0.1,0.5,0.1c1.2,0,2.3,0,3.5,0
					c0.7,0,1.4,0,2.1,0c0.3,0,0.6,0,0.7-0.4c0.1-0.6,0.1-1.2,0.2-1.7c0,0-0.1-0.1-0.1-0.1c-0.1,0.1-0.2,0.1-0.3,0.2
					c-0.3,0.3-0.4,0.8-0.8,1c-0.6,0.5-1.4,0.5-2.2,0.4c-0.6-0.1-0.8-0.3-0.9-0.9c0-0.8,0-1.7,0-2.5c0-0.3,0.1-0.4,0.4-0.4
					c0.4,0,0.8,0,1.2,0c0.4,0,0.9,0.4,1,0.8c0,0.1,0,0.3,0.1,0.3c0.1,0.1,0.2,0.2,0.3,0.2c0-0.1,0.1-0.2,0.1-0.3c0-0.6,0-1.1,0-1.7
					c0-0.3,0-0.7,0-1c-0.1,0-0.1,0-0.2,0c-0.1,0.1-0.2,0.3-0.3,0.4c-0.1,0.1-0.1,0.3-0.2,0.5c-0.3,0.4-1.9,0.5-2.3,0.3
					c-0.1-0.1-0.2-0.3-0.2-0.4c0-0.7,0-1.4,0-2.1c0-0.5,0.2-0.7,0.7-0.7c0.5,0,1.1,0,1.6,0.1c0.4,0.1,0.8,0.3,1,0.7
					c0.1,0.2,0.3,0.4,0.4,0.6c0.1,0,0.1,0,0.2-0.1c0-0.5,0-1,0-1.5c0-0.3-0.1-0.4-0.4-0.4c-1.9,0-3.8,0-5.8,0c-0.1,0-0.2,0-0.3,0
					c-0.1,0-0.1,0.1-0.1,0.1c0,0.1,0,0.2,0.1,0.2c0.1,0.1,0.3,0.1,0.4,0.1c0.5,0.1,0.7,0.2,0.7,0.7c0,2.1,0,4.3,0,6.4
					C34.7,30,34.6,30.2,34.1,30.3z"/>
				<path fill="#4F2556" d="M61.3,30.8c0.7,0,1.3-0.2,1.9-0.4c0.2-0.1,0.5-0.4,0.6-0.7c0.1-0.3,0.1-0.7,0.1-1.1
					c0-0.1-0.1-0.2-0.1-0.3c-0.1,0.1-0.2,0.1-0.2,0.2c-0.2,0.3-0.4,0.7-0.7,1c-0.4,0.4-0.8,0.8-1.3,0.9c-1.3,0.4-3-0.6-3.5-1.9
					c-0.4-1.1-0.6-2.1-0.3-3.3c0.3-1.4,1.5-3.1,3.5-2.9c0.7,0.1,1.2,0.3,1.6,0.8c0.2,0.2,0.3,0.4,0.5,0.6c0.1,0.1,0.3,0.1,0.4,0.2
					c0-0.1,0.1-0.2,0.1-0.3c0-0.2,0-0.4-0.1-0.6c-0.1-0.6-0.2-0.8-0.8-0.9c-0.6-0.1-1.2-0.1-1.8-0.2c-2.1,0-3.9,0.9-4.8,2.3
					c-1,1.6-0.8,3.3,0.3,4.7C57.8,30.5,59.5,30.9,61.3,30.8z"/>
				<path fill="#4F2556" d="M42,30.4c0.5,0.2,1,0.3,1.5,0.4c1.6,0.2,3.2-0.5,3.5-2.3c0.2-0.9-0.2-2-1-2.5c-0.6-0.4-1.3-0.6-1.9-1
					c-0.4-0.2-0.8-0.5-1-0.8c-0.4-0.5-0.3-1,0-1.5c0.3-0.5,0.9-0.5,1.4-0.5c0.6,0,1,0.2,1.3,0.8c0.1,0.3,0.2,0.5,0.3,0.8
					c0.1,0.1,0.2,0.2,0.3,0.3c0-0.1,0.1-0.2,0.1-0.4c0-0.2,0-0.3,0-0.5c0-0.1,0-0.3,0-0.4c0.1-0.5-0.2-0.7-0.6-0.8
					c-0.6-0.1-1.3-0.1-1.9-0.1c-1.2,0.1-2.3,1-2.3,2.3c0,1,0.4,1.7,1.3,2.1c0.6,0.3,1.3,0.6,1.9,1c0.6,0.3,1,0.7,1.1,1.4
					c0.1,0.6-0.2,1-0.6,1.4c-0.6,0.4-1.2,0.5-1.8,0.2c-0.8-0.4-1.3-1-1.4-1.9c0-0.1-0.1-0.2-0.2-0.2c-0.1,0.1-0.2,0.2-0.2,0.2
					c0,0.5-0.1,1-0.1,1.5C41.6,30.1,41.8,30.3,42,30.4z"/>
				<path fill="#4F2556" d="M64.4,58.9c-4.8,0-8.7,3.9-8.7,8.7c0,4.8,3.9,8.7,8.7,8.7c4.8,0,8.7-3.9,8.7-8.7
					C73.1,62.8,69.2,58.9,64.4,58.9z M64.4,74c-3.5,0-6.4-2.9-6.4-6.4c0-3.5,2.9-6.4,6.4-6.4c3.5,0,6.4,2.9,6.4,6.4
					C70.8,71.2,67.9,74,64.4,74z"/>
				<path fill="#4F2556" d="M35.2,58.9h-3.6c-2.3,2.4-3.7,5.4-3.7,8.7c0,3.3,1.4,6.4,3.7,8.7h3.6c-3-2.1-4.9-5.2-4.9-8.7
					C30.3,64.1,32.2,61,35.2,58.9z"/>
				<path fill="#4F2556" d="M42.1,58.9h-3.6c-2.3,2.4-3.7,5.4-3.7,8.7c0,3.3,1.4,6.4,3.7,8.7h3.6c-3-2.1-4.9-5.2-4.9-8.7
					C37.2,64.1,39.1,61,42.1,58.9z"/>
				<path fill="#4F2556" d="M28.2,76.4c-3-2.1-4.9-5.2-4.9-8.7c0-3.5,1.9-6.7,4.9-8.7h-3.6c-2.3,2.4-3.7,5.4-3.7,8.7
					c0,3.3,1.4,6.4,3.7,8.7H28.2z"/>
				<path fill="#4F2556" d="M44.1,67.6c0-3.5,1.9-6.7,4.9-8.7h-3.6c-2.3,2.4-3.7,5.4-3.7,8.7c0,3.3,1.4,6.4,3.7,8.7H49
					C46,74.3,44.1,71.2,44.1,67.6z"/>
				<path fill="#4F2556" d="M55.9,58.9h-3.6c-2.3,2.4-3.7,5.4-3.7,8.7c0,3.3,1.4,6.4,3.7,8.7h3.6c-3-2.1-4.9-5.2-4.9-8.7
					C51,64.1,53,61,55.9,58.9z"/>
				<path fill="#4F2556" d="M24.6,79.8c-0.2,0-0.4,0.1-0.5,0.1c-0.1,0.1-0.3,0.2-0.4,0.3h0c-0.1-0.3-0.4-0.5-0.8-0.5
					c-0.5,0-0.7,0.3-0.8,0.4h0l0-0.4h-0.7c0,0.2,0,0.5,0,0.9v1.9h0.8V81c0-0.1,0-0.2,0-0.2c0.1-0.1,0.2-0.3,0.4-0.3
					c0.3,0,0.4,0.2,0.4,0.6v1.5h0.8V81c0-0.1,0-0.2,0-0.2c0.1-0.2,0.2-0.3,0.4-0.3c0.3,0,0.4,0.2,0.4,0.6v1.5h0.8V81
					C25.5,80.2,25.1,79.8,24.6,79.8z"/>
				<path fill="#4F2556" d="M27.6,79.8c-0.9,0-1.5,0.6-1.5,1.5c0,0.9,0.6,1.4,1.4,1.4c0.7,0,1.5-0.5,1.5-1.5
					C29,80.4,28.5,79.8,27.6,79.8z M27.6,82c-0.4,0-0.6-0.4-0.6-0.8c0-0.4,0.2-0.8,0.6-0.8c0.4,0,0.5,0.4,0.5,0.8
					C28.2,81.7,28,82,27.6,82z"/>
				<path fill="#4F2556" d="M31.3,79.8c-0.5,0-0.7,0.3-0.9,0.4h0l0-0.4h-0.7c0,0.2,0,0.5,0,0.9v1.9h0.9V81c0-0.1,0-0.2,0-0.2
					c0.1-0.2,0.2-0.3,0.4-0.3c0.3,0,0.4,0.2,0.4,0.6v1.5h0.9V81C32.3,80.2,31.9,79.8,31.3,79.8z"/>
				<path fill="#4F2556" d="M34.4,79.8c-1,0-1.4,0.8-1.4,1.5c0,0.9,0.5,1.4,1.5,1.4c0.4,0,0.7-0.1,1-0.2l-0.1-0.6
					C35.1,82,34.9,82,34.6,82c-0.4,0-0.8-0.2-0.8-0.5h1.8c0-0.1,0-0.2,0-0.3C35.6,80.5,35.3,79.8,34.4,79.8z M33.8,80.9
					c0-0.2,0.2-0.6,0.5-0.6c0.4,0,0.5,0.3,0.5,0.6H33.8z"/>
				<path fill="#4F2556" d="M37.6,81.2c0,0.2-0.1,0.4-0.1,0.5h0c0-0.1-0.1-0.4-0.1-0.5l-0.4-1.4h-1l1,2.5c0,0.1,0,0.1,0,0.1
					c0,0,0,0.1,0,0.1c-0.1,0.1-0.2,0.3-0.4,0.3c-0.1,0.1-0.3,0.1-0.4,0.1l0.2,0.7c0.2,0,0.5-0.1,0.8-0.4c0.3-0.3,0.6-0.7,1-1.8
					l0.6-1.8h-0.9L37.6,81.2z"/>
				<path fill="#4F2556" d="M41,79.8c-0.4,0-0.7,0.2-0.8,0.4h0v-1.6h-0.9v3.2c0,0.3,0,0.6,0,0.8H40l0-0.4h0c0.2,0.3,0.5,0.4,0.8,0.4
					c0.6,0,1.3-0.5,1.3-1.5C42.2,80.3,41.7,79.8,41,79.8z M40.7,82c-0.2,0-0.4-0.2-0.5-0.4c0,0,0-0.1,0-0.2V81c0-0.1,0-0.1,0-0.2
					c0.1-0.2,0.3-0.4,0.5-0.4c0.4,0,0.6,0.3,0.6,0.8C41.3,81.7,41.1,82,40.7,82z"/>
				<path fill="#4F2556" d="M44.2,79.8c-0.9,0-1.5,0.6-1.5,1.5c0,0.9,0.6,1.4,1.4,1.4c0.7,0,1.5-0.5,1.5-1.5
					C45.6,80.4,45,79.8,44.2,79.8z M44.2,82c-0.4,0-0.6-0.4-0.6-0.8c0-0.4,0.2-0.8,0.6-0.8c0.4,0,0.5,0.4,0.5,0.8
					C44.7,81.7,44.5,82,44.2,82z"/>
				<path fill="#4F2556" d="M47.6,79.8c-0.9,0-1.5,0.6-1.5,1.5c0,0.9,0.6,1.4,1.4,1.4c0.7,0,1.5-0.5,1.5-1.5
					C49,80.4,48.4,79.8,47.6,79.8z M47.6,82c-0.4,0-0.6-0.4-0.6-0.8c0-0.4,0.2-0.8,0.6-0.8c0.4,0,0.5,0.4,0.5,0.8
					C48.1,81.7,47.9,82,47.6,82z"/>
				<path fill="#4F2556" d="M52.3,79.8h-1l-0.6,0.8c-0.1,0.1-0.1,0.2-0.2,0.3h0v-2.4h-0.9v4h0.9v-0.9l0.2-0.3l0.7,1.1h1.1L51.3,81
					L52.3,79.8z"/>
				<path fill="#4F2556" d="M54,79.8c-1,0-1.4,0.8-1.4,1.5c0,0.9,0.5,1.4,1.5,1.4c0.4,0,0.7-0.1,1-0.2L55,81.9
					C54.7,82,54.5,82,54.2,82c-0.4,0-0.8-0.2-0.8-0.5h1.8c0-0.1,0-0.2,0-0.3C55.2,80.5,54.9,79.8,54,79.8z M53.4,80.9
					c0-0.2,0.2-0.6,0.5-0.6c0.4,0,0.5,0.3,0.5,0.6H53.4z"/>
				<path fill="#4F2556" d="M56.7,80.4L56.7,80.4l-0.1-0.5h-0.7c0,0.2,0,0.5,0,0.9v1.8h0.9v-1.4c0-0.1,0-0.1,0-0.2
					c0.1-0.3,0.3-0.4,0.6-0.4c0.1,0,0.2,0,0.2,0v-0.8c-0.1,0-0.1,0-0.2,0C57.1,79.8,56.8,79.9,56.7,80.4z"/>
				<path fill="#4F2556" d="M59.4,80.9c-0.3-0.1-0.4-0.2-0.4-0.3c0-0.1,0.1-0.2,0.3-0.2c0.2,0,0.5,0.1,0.6,0.2l0.1-0.6
					c-0.2-0.1-0.5-0.2-0.8-0.2c-0.7,0-1.1,0.4-1.1,0.9c0,0.3,0.2,0.6,0.8,0.8c0.3,0.1,0.4,0.2,0.4,0.3c0,0.1-0.1,0.2-0.4,0.2
					c-0.3,0-0.6-0.1-0.7-0.2L58,82.5c0.2,0.1,0.5,0.2,0.9,0.2c0.8,0,1.2-0.4,1.2-0.9C60.1,81.4,59.9,81.1,59.4,80.9z"/>
				<path fill="#4F2556" d="M61.4,81.8c-0.3,0-0.5,0.2-0.5,0.5c0,0.3,0.2,0.5,0.5,0.5c0.3,0,0.5-0.2,0.5-0.5
					C61.9,82,61.7,81.8,61.4,81.8z"/>
				<path fill="#4F2556" d="M63.7,80.3c0.2,0,0.4,0.1,0.5,0.1l0.1-0.5c-0.2-0.1-0.4-0.1-0.7-0.1c-1,0-1.5,0.6-1.5,1.5
					c0,0.9,0.6,1.4,1.4,1.4c0.3,0,0.6-0.1,0.8-0.1L64.3,82c-0.1,0.1-0.3,0.1-0.5,0.1c-0.5,0-0.8-0.3-0.8-0.9
					C62.9,80.7,63.2,80.3,63.7,80.3z"/>
				<path fill="#4F2556" d="M66.2,79.7c-0.8,0-1.4,0.6-1.4,1.5c0,0.9,0.6,1.4,1.4,1.4c0.7,0,1.4-0.5,1.4-1.5
					C67.6,80.3,67,79.7,66.2,79.7z M66.2,82.1c-0.4,0-0.7-0.4-0.7-0.9c0-0.5,0.2-0.9,0.7-0.9c0.5,0,0.7,0.5,0.7,0.9
					C66.9,81.7,66.6,82.1,66.2,82.1z"/>
				<path fill="#4F2556" d="M71.4,79.7c-0.2,0-0.4,0.1-0.6,0.2c-0.1,0.1-0.2,0.2-0.3,0.3h0c-0.1-0.3-0.4-0.5-0.8-0.5
					c-0.5,0-0.7,0.3-0.8,0.5h0l0-0.4h-0.6c0,0.2,0,0.5,0,0.8v1.9H69v-1.6c0-0.1,0-0.2,0-0.2c0.1-0.2,0.2-0.4,0.5-0.4
					c0.3,0,0.5,0.3,0.5,0.7v1.6h0.7v-1.6c0-0.1,0-0.2,0-0.2c0.1-0.2,0.2-0.4,0.5-0.4c0.3,0,0.5,0.3,0.5,0.7v1.5h0.7v-1.6
					C72.3,80,71.9,79.7,71.4,79.7z"/>
				<path fill="#4F2556" d="M49.6,45.8l0,3.7c0,0.4,0.3,0.7,0.7,0.7c0.4,0,0.7-0.3,0.7-0.7l0-0.3h0l0-3.4l3.7,0
					c0.4,0,0.7-0.3,0.7-0.7c0-0.4-0.3-0.7-0.7-0.7l-0.3,0v0l-3.4,0l0-3.7c0-0.4-0.3-0.7-0.7-0.7c-0.4,0-0.7,0.3-0.7,0.7l0,0.3h0
					l0,3.4l-3.7,0c-0.4,0-0.7,0.3-0.7,0.7c0,0.4,0.3,0.7,0.7,0.7l0.3,0v0L49.6,45.8z"/>
			</g>
		</g>
	</g>
</g>
<g id="ICONS_-_WARM_GREY" display="none">
	<g display="inline">
		<g>
			<g>
				<path fill="#534C63" d="M15.4,23.7c0.4,0.4,0.7,0.9,1,1.3c1.1,1.4,2.2,2.8,3.4,4.1c0.5,0.6,1,1.2,1.4,1.8c0.2,0,0.4,0,0.5,0
					c0-2.4,0-4.9,0-7.3c0-1,0-1,1-1.2c0.1,0,0.2-0.1,0.3-0.2c-0.1-0.1-0.2-0.2-0.3-0.2c-0.8,0-1.6,0-2.5,0c-0.2,0-0.3,0.1-0.5,0.2
					c0.2,0.1,0.3,0.2,0.5,0.2c0.1,0,0.2,0,0.3,0c0.3,0,0.5,0.1,0.5,0.4c0,0.2,0.1,0.4,0.1,0.6c0,1.5,0.1,3,0.1,4.5
					c0,0.1,0,0.2,0,0.4c-0.1-0.1-0.2-0.1-0.2-0.2c-0.5-0.6-0.9-1.2-1.4-1.8c-0.9-1.2-1.9-2.4-2.9-3.6c-0.4-0.5-0.7-0.9-1.4-0.8
					c-0.4,0.1-0.9,0-1.4,0c-0.2,0-0.4,0.1-0.6,0.2c0.2,0.1,0.4,0.2,0.6,0.2c0.3,0.1,0.6,0.1,0.6,0.5c0,2.3,0,4.5,0,6.8
					c0,0.2-0.3,0.4-0.4,0.6c-0.1,0.1-0.3,0-0.5,0.1c-0.1,0-0.2,0.2-0.3,0.2c0.1,0,0.2,0.1,0.4,0.1c0.8,0,1.7,0,2.5,0
					c0.2,0,0.3-0.1,0.5-0.1c0-0.1,0-0.1,0-0.2c-0.1,0-0.3-0.1-0.4-0.1c-0.7-0.1-0.9-0.2-1-0.9c-0.1-0.8-0.1-1.7-0.1-2.6
					c0-1.1,0-2.2,0-3.4C15.3,23.6,15.4,23.6,15.4,23.7z"/>
				<path fill="#534C63" d="M90.5,23.4C90,22.5,89.3,22,88.3,22c-1.5,0-3,0-4.5,0c-0.1,0-0.3,0.1-0.4,0.1c0.1,0.1,0.3,0.2,0.4,0.3
					c0,0,0.1,0,0.1,0c0.6,0.1,0.7,0.2,0.7,0.8c0,2.1,0,4.1,0,6.2c0,0.7-0.1,0.8-0.8,1c-0.2,0-0.3,0.1-0.5,0.2c0.3,0.3,4,0.2,4.2,0
					c-0.2-0.1-0.4-0.1-0.6-0.1c-0.6-0.1-0.8-0.3-0.8-0.9c0-0.3,0-0.7,0-1c0-0.6,0-1.3,0-1.9c0.4,0.1,0.7,0.2,1,0.3
					c1.1,0.3,2,0.1,2.8-0.7c0.3-0.2,0.4-0.6,0.6-0.9c0-0.6,0-1.1,0-1.7C90.6,23.5,90.5,23.4,90.5,23.4z M88.8,25.5
					c-0.5,0.7-1.5,1.1-2.3,0.7c-0.1,0-0.2-0.2-0.2-0.4c0-0.5,0-1,0-1.5c0-0.4,0-0.7,0-1.1c0-0.9,0.5-1.2,1.3-1
					C89,22.8,89.6,24.3,88.8,25.5z"/>
				<path fill="#534C63" d="M23.8,22.3c0.8,0,1,0.6,1.2,1.1c0.5,1.1,0.9,2.2,1.4,3.4c0.6,1.4,1.2,2.8,1.8,4.1c0.1,0,0.2,0,0.4,0
					c0.1-0.3,0.2-0.5,0.3-0.8c0.5-1.3,1-2.5,1.5-3.8c0.3-0.8,0.6-1.7,1-2.5c0.3-0.7,0.4-1.5,1.4-1.5c0.1,0,0.2-0.2,0.2-0.2
					c-1-0.1-2-0.1-3-0.1c-0.1,0-0.2,0.1-0.2,0.1c0.1,0.1,0.1,0.1,0.2,0.2c0.1,0,0.2,0.1,0.3,0.1c0.8,0.1,0.9,0.3,0.6,1
					c-0.4,1-0.8,2-1.2,3c-0.3,0.6-0.5,1.3-0.8,2c-0.2-0.3-0.3-0.4-0.4-0.6c-0.6-1.5-1.2-3-1.9-4.4c-0.3-0.7-0.3-0.8,0.5-1
					c0.1,0,0.1,0,0.2,0c0.1-0.1,0.1-0.2,0.2-0.3c-1.3,0-2.6,0-3.8,0c-0.1,0-0.2,0.1-0.2,0.1C23.7,22.2,23.8,22.3,23.8,22.3z"/>
				<path fill="#534C63" d="M47.5,24c0.1-0.1,0.2-0.1,0.2-0.2c0.5-0.9,1.3-1.3,2.3-1.3c0.4,0,0.6,0.2,0.6,0.6c0,2,0,4.1,0,6.1
					c0,0.8-0.1,1.1-0.9,1.2c-0.1,0-0.2,0.1-0.3,0.2c0.1,0.1,0.2,0.2,0.3,0.2c1.1,0,2.1,0,3.2,0c0.1,0,0.2-0.1,0.4-0.2
					c-0.1-0.1-0.2-0.2-0.3-0.2c-0.8-0.2-0.8-0.3-0.8-1c0-1.9,0-3.8,0-5.7c0-1-0.2-1.1,1.1-1.1c1,0,1.3,0.2,1.6,1.2
					c0,0.1,0,0.1,0,0.2c0.1,0.1,0.1,0.2,0.2,0.3c0.1-0.1,0.2-0.2,0.2-0.3c0.1-0.4,0.1-0.8,0.1-1.1c0-0.5,0-0.9-0.1-1.4
					c-0.1,0-0.2,0-0.3,0c-0.1,0.5-0.4,0.6-0.9,0.6c-1.8,0-3.6,0-5.4,0c-0.5,0-0.6-0.1-0.6-0.6c-0.1,0-0.2,0-0.3,0
					c-0.2,0.7-0.4,1.4-0.6,2.1c0,0.1-0.1,0.3,0,0.4c0,0.1,0.1,0.2,0.1,0.2C47.3,24.1,47.5,24,47.5,24z"/>
				<path fill="#534C63" d="M12.3,22.4c0.1,0,0.3-0.1,0.4-0.2c-0.1-0.1-0.3-0.2-0.4-0.2c-1.2,0-2.4,0-3.6,0c0,0.1,0,0.2,0,0.4
					c0.2,0,0.4,0,0.7,0.1c0.4,0.1,0.6,0.3,0.6,0.7c0,2.2,0,4.3,0,6.5c0,0.4-0.2,0.6-0.6,0.7c-0.2,0.1-0.5,0.1-0.7,0.1
					c0,0.1,0,0.2,0,0.3c0.1,0,0.3,0.1,0.4,0.1c1.1,0,2.2,0,3.2,0c0.1,0,0.2-0.1,0.4-0.2c-0.1-0.1-0.2-0.2-0.3-0.2
					c-0.7-0.1-0.9-0.2-0.9-0.9c0-2.1,0-4.2,0-6.3C11.5,22.6,11.7,22.5,12.3,22.4z"/>
				<path fill="#534C63" d="M82.5,30.3c-0.3-0.1-0.6-0.3-0.7-0.5c-0.4-0.6-0.7-1.2-1-1.7c-0.4-0.6-0.8-1.2-1.1-1.8
					c0.4-0.3,1-0.5,1.4-1c0.5-0.7,0.5-1.5,0-2.3c-0.4-0.7-1.1-1-1.8-1c-1.5,0-3,0-4.5,0c-0.1,0-0.3,0.1-0.4,0.2
					c0.1,0.1,0.2,0.2,0.4,0.2c0.8,0,0.9,0.4,0.9,1.1c0,1,0,1.9,0,2.9c0,1,0,2,0,3.1c0,0.6-0.2,0.8-0.8,0.9c-0.2,0-0.3,0.1-0.5,0.1
					c0.3,0.3,3.8,0.3,4.1,0c-0.2-0.1-0.3-0.1-0.5-0.1c-0.6-0.1-0.7-0.2-0.8-0.8c0-0.9,0-1.8,0-2.7c0-0.3,0.1-0.4,0.4-0.4
					c0.5,0,0.7,0.4,0.9,0.7c0.6,1.1,1.1,2.2,1.7,3.2c0.1,0.1,0.3,0.3,0.5,0.3c0.6,0,1.2,0,1.8,0c0.2,0,0.3-0.1,0.5-0.1
					c0,0,0-0.1,0-0.1C82.9,30.4,82.7,30.4,82.5,30.3z M78.3,26.1c-1.2,0-1.1,0.2-1.1-1.1c0-0.2,0-0.4,0-0.6c0,0,0,0,0,0
					c0-0.5,0-0.9,0-1.4c0-0.5,0.3-0.7,0.8-0.6c1.6,0.1,2.2,2,1.5,3.1C79.2,25.9,78.8,26.1,78.3,26.1z"/>
				<path fill="#534C63" d="M70.3,22c-1.4-0.2-2.8,0-4,0.9c-1.2,0.9-1.7,2-1.8,3.2c0,2.2,1,3.6,2.7,4.3c2,0.9,3.9,0.6,5.6-0.9
					c1.5-1.3,1.9-3.8,0.7-5.5C72.8,22.8,71.7,22.1,70.3,22z M71.5,29.5c-1,1.3-2.7,1.3-3.9,0.1c-1.2-1.3-1.4-2.8-1.2-4.4
					c0.1-1,0.5-1.8,1.3-2.4c0.3-0.2,0.6-0.4,0.9-0.4c0.6-0.1,1.3-0.1,1.9,0.1c0.8,0.4,1.4,1,1.7,1.9c0.3,0.6,0.3,1.3,0.5,2
					C72.5,27.5,72.2,28.6,71.5,29.5z"/>
				<path fill="#534C63" d="M34.1,30.3c-0.2,0-0.4,0.1-0.6,0.2c0,0.1,0,0.1,0,0.2c0.2,0,0.3,0.1,0.5,0.1c1.2,0,2.3,0,3.5,0
					c0.7,0,1.4,0,2.1,0c0.3,0,0.6,0,0.7-0.4c0.1-0.6,0.1-1.2,0.2-1.7c0,0-0.1-0.1-0.1-0.1c-0.1,0.1-0.2,0.1-0.3,0.2
					c-0.3,0.3-0.4,0.8-0.8,1c-0.6,0.5-1.4,0.5-2.2,0.4c-0.6-0.1-0.8-0.3-0.9-0.9c0-0.8,0-1.7,0-2.5c0-0.3,0.1-0.4,0.4-0.4
					c0.4,0,0.8,0,1.2,0c0.4,0,0.9,0.4,1,0.8c0,0.1,0,0.3,0.1,0.3c0.1,0.1,0.2,0.2,0.3,0.2c0-0.1,0.1-0.2,0.1-0.3c0-0.6,0-1.1,0-1.7
					c0-0.3,0-0.7,0-1c-0.1,0-0.1,0-0.2,0c-0.1,0.1-0.2,0.3-0.3,0.4c-0.1,0.1-0.1,0.3-0.2,0.5c-0.3,0.4-1.9,0.5-2.3,0.3
					c-0.1-0.1-0.2-0.3-0.2-0.4c0-0.7,0-1.4,0-2.1c0-0.5,0.2-0.7,0.7-0.7c0.5,0,1.1,0,1.6,0.1c0.4,0.1,0.8,0.3,1,0.7
					c0.1,0.2,0.3,0.4,0.4,0.6c0.1,0,0.1,0,0.2-0.1c0-0.5,0-1,0-1.5c0-0.3-0.1-0.4-0.4-0.4c-1.9,0-3.8,0-5.8,0c-0.1,0-0.2,0-0.3,0
					c-0.1,0-0.1,0.1-0.1,0.1c0,0.1,0,0.2,0.1,0.2c0.1,0.1,0.3,0.1,0.4,0.1c0.5,0.1,0.7,0.2,0.7,0.7c0,2.1,0,4.3,0,6.4
					C34.7,30,34.6,30.2,34.1,30.3z"/>
				<path fill="#534C63" d="M61.3,30.8c0.7,0,1.3-0.2,1.9-0.4c0.2-0.1,0.5-0.4,0.6-0.7c0.1-0.3,0.1-0.7,0.1-1.1
					c0-0.1-0.1-0.2-0.1-0.3c-0.1,0.1-0.2,0.1-0.2,0.2c-0.2,0.3-0.4,0.7-0.7,1c-0.4,0.4-0.8,0.8-1.3,0.9c-1.3,0.4-3-0.6-3.5-1.9
					c-0.4-1.1-0.6-2.1-0.3-3.3c0.3-1.4,1.5-3.1,3.5-2.9c0.7,0.1,1.2,0.3,1.6,0.8c0.2,0.2,0.3,0.4,0.5,0.6c0.1,0.1,0.3,0.1,0.4,0.2
					c0-0.1,0.1-0.2,0.1-0.3c0-0.2,0-0.4-0.1-0.6c-0.1-0.6-0.2-0.8-0.8-0.9c-0.6-0.1-1.2-0.1-1.8-0.2c-2.1,0-3.9,0.9-4.8,2.3
					c-1,1.6-0.8,3.3,0.3,4.7C57.8,30.5,59.5,30.9,61.3,30.8z"/>
				<path fill="#534C63" d="M42,30.4c0.5,0.2,1,0.3,1.5,0.4c1.6,0.2,3.2-0.5,3.5-2.3c0.2-0.9-0.2-2-1-2.5c-0.6-0.4-1.3-0.6-1.9-1
					c-0.4-0.2-0.8-0.5-1-0.8c-0.4-0.5-0.3-1,0-1.5c0.3-0.5,0.9-0.5,1.4-0.5c0.6,0,1,0.2,1.3,0.8c0.1,0.3,0.2,0.5,0.3,0.8
					c0.1,0.1,0.2,0.2,0.3,0.3c0-0.1,0.1-0.2,0.1-0.4c0-0.2,0-0.3,0-0.5c0-0.1,0-0.3,0-0.4c0.1-0.5-0.2-0.7-0.6-0.8
					c-0.6-0.1-1.3-0.1-1.9-0.1c-1.2,0.1-2.3,1-2.3,2.3c0,1,0.4,1.7,1.3,2.1c0.6,0.3,1.3,0.6,1.9,1c0.6,0.3,1,0.7,1.1,1.4
					c0.1,0.6-0.2,1-0.6,1.4c-0.6,0.4-1.2,0.5-1.8,0.2c-0.8-0.4-1.3-1-1.4-1.9c0-0.1-0.1-0.2-0.2-0.2c-0.1,0.1-0.2,0.2-0.2,0.2
					c0,0.5-0.1,1-0.1,1.5C41.6,30.1,41.8,30.3,42,30.4z"/>
				<path fill="#534C63" d="M64.4,58.9c-4.8,0-8.7,3.9-8.7,8.7c0,4.8,3.9,8.7,8.7,8.7c4.8,0,8.7-3.9,8.7-8.7
					C73.1,62.8,69.2,58.9,64.4,58.9z M64.4,74c-3.5,0-6.4-2.9-6.4-6.4c0-3.5,2.9-6.4,6.4-6.4c3.5,0,6.4,2.9,6.4,6.4
					C70.8,71.2,67.9,74,64.4,74z"/>
				<path fill="#534C63" d="M35.2,58.9h-3.6c-2.3,2.4-3.7,5.4-3.7,8.7c0,3.3,1.4,6.4,3.7,8.7h3.6c-3-2.1-4.9-5.2-4.9-8.7
					C30.3,64.1,32.2,61,35.2,58.9z"/>
				<path fill="#534C63" d="M42.1,58.9h-3.6c-2.3,2.4-3.7,5.4-3.7,8.7c0,3.3,1.4,6.4,3.7,8.7h3.6c-3-2.1-4.9-5.2-4.9-8.7
					C37.2,64.1,39.1,61,42.1,58.9z"/>
				<path fill="#534C63" d="M28.2,76.4c-3-2.1-4.9-5.2-4.9-8.7c0-3.5,1.9-6.7,4.9-8.7h-3.6c-2.3,2.4-3.7,5.4-3.7,8.7
					c0,3.3,1.4,6.4,3.7,8.7H28.2z"/>
				<path fill="#534C63" d="M44.1,67.6c0-3.5,1.9-6.7,4.9-8.7h-3.6c-2.3,2.4-3.7,5.4-3.7,8.7c0,3.3,1.4,6.4,3.7,8.7H49
					C46,74.3,44.1,71.2,44.1,67.6z"/>
				<path fill="#534C63" d="M55.9,58.9h-3.6c-2.3,2.4-3.7,5.4-3.7,8.7c0,3.3,1.4,6.4,3.7,8.7h3.6c-3-2.1-4.9-5.2-4.9-8.7
					C51,64.1,53,61,55.9,58.9z"/>
				<path fill="#534C63" d="M24.6,79.8c-0.2,0-0.4,0.1-0.5,0.1c-0.1,0.1-0.3,0.2-0.4,0.3h0c-0.1-0.3-0.4-0.5-0.8-0.5
					c-0.5,0-0.7,0.3-0.8,0.4h0l0-0.4h-0.7c0,0.2,0,0.5,0,0.9v1.9h0.8V81c0-0.1,0-0.2,0-0.2c0.1-0.1,0.2-0.3,0.4-0.3
					c0.3,0,0.4,0.2,0.4,0.6v1.5h0.8V81c0-0.1,0-0.2,0-0.2c0.1-0.2,0.2-0.3,0.4-0.3c0.3,0,0.4,0.2,0.4,0.6v1.5h0.8V81
					C25.5,80.2,25.1,79.8,24.6,79.8z"/>
				<path fill="#534C63" d="M27.6,79.8c-0.9,0-1.5,0.6-1.5,1.5c0,0.9,0.6,1.4,1.4,1.4c0.7,0,1.5-0.5,1.5-1.5
					C29,80.4,28.5,79.8,27.6,79.8z M27.6,82c-0.4,0-0.6-0.4-0.6-0.8c0-0.4,0.2-0.8,0.6-0.8c0.4,0,0.5,0.4,0.5,0.8
					C28.2,81.7,28,82,27.6,82z"/>
				<path fill="#534C63" d="M31.3,79.8c-0.5,0-0.7,0.3-0.9,0.4h0l0-0.4h-0.7c0,0.2,0,0.5,0,0.9v1.9h0.9V81c0-0.1,0-0.2,0-0.2
					c0.1-0.2,0.2-0.3,0.4-0.3c0.3,0,0.4,0.2,0.4,0.6v1.5h0.9V81C32.3,80.2,31.9,79.8,31.3,79.8z"/>
				<path fill="#534C63" d="M34.4,79.8c-1,0-1.4,0.8-1.4,1.5c0,0.9,0.5,1.4,1.5,1.4c0.4,0,0.7-0.1,1-0.2l-0.1-0.6
					C35.1,82,34.9,82,34.6,82c-0.4,0-0.8-0.2-0.8-0.5h1.8c0-0.1,0-0.2,0-0.3C35.6,80.5,35.3,79.8,34.4,79.8z M33.8,80.9
					c0-0.2,0.2-0.6,0.5-0.6c0.4,0,0.5,0.3,0.5,0.6H33.8z"/>
				<path fill="#534C63" d="M37.6,81.2c0,0.2-0.1,0.4-0.1,0.5h0c0-0.1-0.1-0.4-0.1-0.5l-0.4-1.4h-1l1,2.5c0,0.1,0,0.1,0,0.1
					c0,0,0,0.1,0,0.1c-0.1,0.1-0.2,0.3-0.4,0.3c-0.1,0.1-0.3,0.1-0.4,0.1l0.2,0.7c0.2,0,0.5-0.1,0.8-0.4c0.3-0.3,0.6-0.7,1-1.8
					l0.6-1.8h-0.9L37.6,81.2z"/>
				<path fill="#534C63" d="M41,79.8c-0.4,0-0.7,0.2-0.8,0.4h0v-1.6h-0.9v3.2c0,0.3,0,0.6,0,0.8H40l0-0.4h0c0.2,0.3,0.5,0.4,0.8,0.4
					c0.6,0,1.3-0.5,1.3-1.5C42.2,80.3,41.7,79.8,41,79.8z M40.7,82c-0.2,0-0.4-0.2-0.5-0.4c0,0,0-0.1,0-0.2V81c0-0.1,0-0.1,0-0.2
					c0.1-0.2,0.3-0.4,0.5-0.4c0.4,0,0.6,0.3,0.6,0.8C41.3,81.7,41.1,82,40.7,82z"/>
				<path fill="#534C63" d="M44.2,79.8c-0.9,0-1.5,0.6-1.5,1.5c0,0.9,0.6,1.4,1.4,1.4c0.7,0,1.5-0.5,1.5-1.5
					C45.6,80.4,45,79.8,44.2,79.8z M44.2,82c-0.4,0-0.6-0.4-0.6-0.8c0-0.4,0.2-0.8,0.6-0.8c0.4,0,0.5,0.4,0.5,0.8
					C44.7,81.7,44.5,82,44.2,82z"/>
				<path fill="#534C63" d="M47.6,79.8c-0.9,0-1.5,0.6-1.5,1.5c0,0.9,0.6,1.4,1.4,1.4c0.7,0,1.5-0.5,1.5-1.5
					C49,80.4,48.4,79.8,47.6,79.8z M47.6,82c-0.4,0-0.6-0.4-0.6-0.8c0-0.4,0.2-0.8,0.6-0.8c0.4,0,0.5,0.4,0.5,0.8
					C48.1,81.7,47.9,82,47.6,82z"/>
				<path fill="#534C63" d="M52.3,79.8h-1l-0.6,0.8c-0.1,0.1-0.1,0.2-0.2,0.3h0v-2.4h-0.9v4h0.9v-0.9l0.2-0.3l0.7,1.1h1.1L51.3,81
					L52.3,79.8z"/>
				<path fill="#534C63" d="M54,79.8c-1,0-1.4,0.8-1.4,1.5c0,0.9,0.5,1.4,1.5,1.4c0.4,0,0.7-0.1,1-0.2L55,81.9
					C54.7,82,54.5,82,54.2,82c-0.4,0-0.8-0.2-0.8-0.5h1.8c0-0.1,0-0.2,0-0.3C55.2,80.5,54.9,79.8,54,79.8z M53.4,80.9
					c0-0.2,0.2-0.6,0.5-0.6c0.4,0,0.5,0.3,0.5,0.6H53.4z"/>
				<path fill="#534C63" d="M56.7,80.4L56.7,80.4l-0.1-0.5h-0.7c0,0.2,0,0.5,0,0.9v1.8h0.9v-1.4c0-0.1,0-0.1,0-0.2
					c0.1-0.3,0.3-0.4,0.6-0.4c0.1,0,0.2,0,0.2,0v-0.8c-0.1,0-0.1,0-0.2,0C57.1,79.8,56.8,79.9,56.7,80.4z"/>
				<path fill="#534C63" d="M59.4,80.9c-0.3-0.1-0.4-0.2-0.4-0.3c0-0.1,0.1-0.2,0.3-0.2c0.2,0,0.5,0.1,0.6,0.2l0.1-0.6
					c-0.2-0.1-0.5-0.2-0.8-0.2c-0.7,0-1.1,0.4-1.1,0.9c0,0.3,0.2,0.6,0.8,0.8c0.3,0.1,0.4,0.2,0.4,0.3c0,0.1-0.1,0.2-0.4,0.2
					c-0.3,0-0.6-0.1-0.7-0.2L58,82.5c0.2,0.1,0.5,0.2,0.9,0.2c0.8,0,1.2-0.4,1.2-0.9C60.1,81.4,59.9,81.1,59.4,80.9z"/>
				<path fill="#534C63" d="M61.4,81.8c-0.3,0-0.5,0.2-0.5,0.5c0,0.3,0.2,0.5,0.5,0.5c0.3,0,0.5-0.2,0.5-0.5
					C61.9,82,61.7,81.8,61.4,81.8z"/>
				<path fill="#534C63" d="M63.7,80.3c0.2,0,0.4,0.1,0.5,0.1l0.1-0.5c-0.2-0.1-0.4-0.1-0.7-0.1c-1,0-1.5,0.6-1.5,1.5
					c0,0.9,0.6,1.4,1.4,1.4c0.3,0,0.6-0.1,0.8-0.1L64.3,82c-0.1,0.1-0.3,0.1-0.5,0.1c-0.5,0-0.8-0.3-0.8-0.9
					C62.9,80.7,63.2,80.3,63.7,80.3z"/>
				<path fill="#534C63" d="M66.2,79.7c-0.8,0-1.4,0.6-1.4,1.5c0,0.9,0.6,1.4,1.4,1.4c0.7,0,1.4-0.5,1.4-1.5
					C67.6,80.3,67,79.7,66.2,79.7z M66.2,82.1c-0.4,0-0.7-0.4-0.7-0.9c0-0.5,0.2-0.9,0.7-0.9c0.5,0,0.7,0.5,0.7,0.9
					C66.9,81.7,66.6,82.1,66.2,82.1z"/>
				<path fill="#534C63" d="M71.4,79.7c-0.2,0-0.4,0.1-0.6,0.2c-0.1,0.1-0.2,0.2-0.3,0.3h0c-0.1-0.3-0.4-0.5-0.8-0.5
					c-0.5,0-0.7,0.3-0.8,0.5h0l0-0.4h-0.6c0,0.2,0,0.5,0,0.8v1.9H69v-1.6c0-0.1,0-0.2,0-0.2c0.1-0.2,0.2-0.4,0.5-0.4
					c0.3,0,0.5,0.3,0.5,0.7v1.6h0.7v-1.6c0-0.1,0-0.2,0-0.2c0.1-0.2,0.2-0.4,0.5-0.4c0.3,0,0.5,0.3,0.5,0.7v1.5h0.7v-1.6
					C72.3,80,71.9,79.7,71.4,79.7z"/>
				<path fill="#534C63" d="M49.6,45.8l0,3.7c0,0.4,0.3,0.7,0.7,0.7c0.4,0,0.7-0.3,0.7-0.7l0-0.3h0l0-3.4l3.7,0
					c0.4,0,0.7-0.3,0.7-0.7c0-0.4-0.3-0.7-0.7-0.7l-0.3,0v0l-3.4,0l0-3.7c0-0.4-0.3-0.7-0.7-0.7c-0.4,0-0.7,0.3-0.7,0.7l0,0.3h0
					l0,3.4l-3.7,0c-0.4,0-0.7,0.3-0.7,0.7c0,0.4,0.3,0.7,0.7,0.7l0.3,0v0L49.6,45.8z"/>
			</g>
		</g>
	</g>
</g>
<g id="ICONS_-_SKRILL_TEAL" display="none">
	<g display="inline">
		<g>
			<g>
				<path fill="#41AEB5" d="M15.4,23.7c0.4,0.4,0.7,0.9,1,1.3c1.1,1.4,2.2,2.8,3.4,4.1c0.5,0.6,1,1.2,1.4,1.8c0.2,0,0.4,0,0.5,0
					c0-2.4,0-4.9,0-7.3c0-1,0-1,1-1.2c0.1,0,0.2-0.1,0.3-0.2c-0.1-0.1-0.2-0.2-0.3-0.2c-0.8,0-1.6,0-2.5,0c-0.2,0-0.3,0.1-0.5,0.2
					c0.2,0.1,0.3,0.2,0.5,0.2c0.1,0,0.2,0,0.3,0c0.3,0,0.5,0.1,0.5,0.4c0,0.2,0.1,0.4,0.1,0.6c0,1.5,0.1,3,0.1,4.5
					c0,0.1,0,0.2,0,0.4c-0.1-0.1-0.2-0.1-0.2-0.2c-0.5-0.6-0.9-1.2-1.4-1.8c-0.9-1.2-1.9-2.4-2.9-3.6c-0.4-0.5-0.7-0.9-1.4-0.8
					c-0.4,0.1-0.9,0-1.4,0c-0.2,0-0.4,0.1-0.6,0.2c0.2,0.1,0.4,0.2,0.6,0.2c0.3,0.1,0.6,0.1,0.6,0.5c0,2.3,0,4.5,0,6.8
					c0,0.2-0.3,0.4-0.4,0.6c-0.1,0.1-0.3,0-0.5,0.1c-0.1,0-0.2,0.2-0.3,0.2c0.1,0,0.2,0.1,0.4,0.1c0.8,0,1.7,0,2.5,0
					c0.2,0,0.3-0.1,0.5-0.1c0-0.1,0-0.1,0-0.2c-0.1,0-0.3-0.1-0.4-0.1c-0.7-0.1-0.9-0.2-1-0.9c-0.1-0.8-0.1-1.7-0.1-2.6
					c0-1.1,0-2.2,0-3.4C15.3,23.6,15.4,23.6,15.4,23.7z"/>
				<path fill="#41AEB5" d="M90.5,23.4C90,22.5,89.3,22,88.3,22c-1.5,0-3,0-4.5,0c-0.1,0-0.3,0.1-0.4,0.1c0.1,0.1,0.3,0.2,0.4,0.3
					c0,0,0.1,0,0.1,0c0.6,0.1,0.7,0.2,0.7,0.8c0,2.1,0,4.1,0,6.2c0,0.7-0.1,0.8-0.8,1c-0.2,0-0.3,0.1-0.5,0.2c0.3,0.3,4,0.2,4.2,0
					c-0.2-0.1-0.4-0.1-0.6-0.1c-0.6-0.1-0.8-0.3-0.8-0.9c0-0.3,0-0.7,0-1c0-0.6,0-1.3,0-1.9c0.4,0.1,0.7,0.2,1,0.3
					c1.1,0.3,2,0.1,2.8-0.7c0.3-0.2,0.4-0.6,0.6-0.9c0-0.6,0-1.1,0-1.7C90.6,23.5,90.5,23.4,90.5,23.4z M88.8,25.5
					c-0.5,0.7-1.5,1.1-2.3,0.7c-0.1,0-0.2-0.2-0.2-0.4c0-0.5,0-1,0-1.5c0-0.4,0-0.7,0-1.1c0-0.9,0.5-1.2,1.3-1
					C89,22.8,89.6,24.3,88.8,25.5z"/>
				<path fill="#41AEB5" d="M23.8,22.3c0.8,0,1,0.6,1.2,1.1c0.5,1.1,0.9,2.2,1.4,3.4c0.6,1.4,1.2,2.8,1.8,4.1c0.1,0,0.2,0,0.4,0
					c0.1-0.3,0.2-0.5,0.3-0.8c0.5-1.3,1-2.5,1.5-3.8c0.3-0.8,0.6-1.7,1-2.5c0.3-0.7,0.4-1.5,1.4-1.5c0.1,0,0.2-0.2,0.2-0.2
					c-1-0.1-2-0.1-3-0.1c-0.1,0-0.2,0.1-0.2,0.1c0.1,0.1,0.1,0.1,0.2,0.2c0.1,0,0.2,0.1,0.3,0.1c0.8,0.1,0.9,0.3,0.6,1
					c-0.4,1-0.8,2-1.2,3c-0.3,0.6-0.5,1.3-0.8,2c-0.2-0.3-0.3-0.4-0.4-0.6c-0.6-1.5-1.2-3-1.9-4.4c-0.3-0.7-0.3-0.8,0.5-1
					c0.1,0,0.1,0,0.2,0c0.1-0.1,0.1-0.2,0.2-0.3c-1.3,0-2.6,0-3.8,0c-0.1,0-0.2,0.1-0.2,0.1C23.7,22.2,23.8,22.3,23.8,22.3z"/>
				<path fill="#41AEB5" d="M47.5,24c0.1-0.1,0.2-0.1,0.2-0.2c0.5-0.9,1.3-1.3,2.3-1.3c0.4,0,0.6,0.2,0.6,0.6c0,2,0,4.1,0,6.1
					c0,0.8-0.1,1.1-0.9,1.2c-0.1,0-0.2,0.1-0.3,0.2c0.1,0.1,0.2,0.2,0.3,0.2c1.1,0,2.1,0,3.2,0c0.1,0,0.2-0.1,0.4-0.2
					c-0.1-0.1-0.2-0.2-0.3-0.2c-0.8-0.2-0.8-0.3-0.8-1c0-1.9,0-3.8,0-5.7c0-1-0.2-1.1,1.1-1.1c1,0,1.3,0.2,1.6,1.2
					c0,0.1,0,0.1,0,0.2c0.1,0.1,0.1,0.2,0.2,0.3c0.1-0.1,0.2-0.2,0.2-0.3c0.1-0.4,0.1-0.8,0.1-1.1c0-0.5,0-0.9-0.1-1.4
					c-0.1,0-0.2,0-0.3,0c-0.1,0.5-0.4,0.6-0.9,0.6c-1.8,0-3.6,0-5.4,0c-0.5,0-0.6-0.1-0.6-0.6c-0.1,0-0.2,0-0.3,0
					c-0.2,0.7-0.4,1.4-0.6,2.1c0,0.1-0.1,0.3,0,0.4c0,0.1,0.1,0.2,0.1,0.2C47.3,24.1,47.5,24,47.5,24z"/>
				<path fill="#41AEB5" d="M12.3,22.4c0.1,0,0.3-0.1,0.4-0.2c-0.1-0.1-0.3-0.2-0.4-0.2c-1.2,0-2.4,0-3.6,0c0,0.1,0,0.2,0,0.4
					c0.2,0,0.4,0,0.7,0.1c0.4,0.1,0.6,0.3,0.6,0.7c0,2.2,0,4.3,0,6.5c0,0.4-0.2,0.6-0.6,0.7c-0.2,0.1-0.5,0.1-0.7,0.1
					c0,0.1,0,0.2,0,0.3c0.1,0,0.3,0.1,0.4,0.1c1.1,0,2.2,0,3.2,0c0.1,0,0.2-0.1,0.4-0.2c-0.1-0.1-0.2-0.2-0.3-0.2
					c-0.7-0.1-0.9-0.2-0.9-0.9c0-2.1,0-4.2,0-6.3C11.5,22.6,11.7,22.5,12.3,22.4z"/>
				<path fill="#41AEB5" d="M82.5,30.3c-0.3-0.1-0.6-0.3-0.7-0.5c-0.4-0.6-0.7-1.2-1-1.7c-0.4-0.6-0.8-1.2-1.1-1.8
					c0.4-0.3,1-0.5,1.4-1c0.5-0.7,0.5-1.5,0-2.3c-0.4-0.7-1.1-1-1.8-1c-1.5,0-3,0-4.5,0c-0.1,0-0.3,0.1-0.4,0.2
					c0.1,0.1,0.2,0.2,0.4,0.2c0.8,0,0.9,0.4,0.9,1.1c0,1,0,1.9,0,2.9c0,1,0,2,0,3.1c0,0.6-0.2,0.8-0.8,0.9c-0.2,0-0.3,0.1-0.5,0.1
					c0.3,0.3,3.8,0.3,4.1,0c-0.2-0.1-0.3-0.1-0.5-0.1c-0.6-0.1-0.7-0.2-0.8-0.8c0-0.9,0-1.8,0-2.7c0-0.3,0.1-0.4,0.4-0.4
					c0.5,0,0.7,0.4,0.9,0.7c0.6,1.1,1.1,2.2,1.7,3.2c0.1,0.1,0.3,0.3,0.5,0.3c0.6,0,1.2,0,1.8,0c0.2,0,0.3-0.1,0.5-0.1
					c0,0,0-0.1,0-0.1C82.9,30.4,82.7,30.4,82.5,30.3z M78.3,26.1c-1.2,0-1.1,0.2-1.1-1.1c0-0.2,0-0.4,0-0.6c0,0,0,0,0,0
					c0-0.5,0-0.9,0-1.4c0-0.5,0.3-0.7,0.8-0.6c1.6,0.1,2.2,2,1.5,3.1C79.2,25.9,78.8,26.1,78.3,26.1z"/>
				<path fill="#41AEB5" d="M70.3,22c-1.4-0.2-2.8,0-4,0.9c-1.2,0.9-1.7,2-1.8,3.2c0,2.2,1,3.6,2.7,4.3c2,0.9,3.9,0.6,5.6-0.9
					c1.5-1.3,1.9-3.8,0.7-5.5C72.8,22.8,71.7,22.1,70.3,22z M71.5,29.5c-1,1.3-2.7,1.3-3.9,0.1c-1.2-1.3-1.4-2.8-1.2-4.4
					c0.1-1,0.5-1.8,1.3-2.4c0.3-0.2,0.6-0.4,0.9-0.4c0.6-0.1,1.3-0.1,1.9,0.1c0.8,0.4,1.4,1,1.7,1.9c0.3,0.6,0.3,1.3,0.5,2
					C72.5,27.5,72.2,28.6,71.5,29.5z"/>
				<path fill="#41AEB5" d="M34.1,30.3c-0.2,0-0.4,0.1-0.6,0.2c0,0.1,0,0.1,0,0.2c0.2,0,0.3,0.1,0.5,0.1c1.2,0,2.3,0,3.5,0
					c0.7,0,1.4,0,2.1,0c0.3,0,0.6,0,0.7-0.4c0.1-0.6,0.1-1.2,0.2-1.7c0,0-0.1-0.1-0.1-0.1c-0.1,0.1-0.2,0.1-0.3,0.2
					c-0.3,0.3-0.4,0.8-0.8,1c-0.6,0.5-1.4,0.5-2.2,0.4c-0.6-0.1-0.8-0.3-0.9-0.9c0-0.8,0-1.7,0-2.5c0-0.3,0.1-0.4,0.4-0.4
					c0.4,0,0.8,0,1.2,0c0.4,0,0.9,0.4,1,0.8c0,0.1,0,0.3,0.1,0.3c0.1,0.1,0.2,0.2,0.3,0.2c0-0.1,0.1-0.2,0.1-0.3c0-0.6,0-1.1,0-1.7
					c0-0.3,0-0.7,0-1c-0.1,0-0.1,0-0.2,0c-0.1,0.1-0.2,0.3-0.3,0.4c-0.1,0.1-0.1,0.3-0.2,0.5c-0.3,0.4-1.9,0.5-2.3,0.3
					c-0.1-0.1-0.2-0.3-0.2-0.4c0-0.7,0-1.4,0-2.1c0-0.5,0.2-0.7,0.7-0.7c0.5,0,1.1,0,1.6,0.1c0.4,0.1,0.8,0.3,1,0.7
					c0.1,0.2,0.3,0.4,0.4,0.6c0.1,0,0.1,0,0.2-0.1c0-0.5,0-1,0-1.5c0-0.3-0.1-0.4-0.4-0.4c-1.9,0-3.8,0-5.8,0c-0.1,0-0.2,0-0.3,0
					c-0.1,0-0.1,0.1-0.1,0.1c0,0.1,0,0.2,0.1,0.2c0.1,0.1,0.3,0.1,0.4,0.1c0.5,0.1,0.7,0.2,0.7,0.7c0,2.1,0,4.3,0,6.4
					C34.7,30,34.6,30.2,34.1,30.3z"/>
				<path fill="#41AEB5" d="M61.3,30.8c0.7,0,1.3-0.2,1.9-0.4c0.2-0.1,0.5-0.4,0.6-0.7c0.1-0.3,0.1-0.7,0.1-1.1
					c0-0.1-0.1-0.2-0.1-0.3c-0.1,0.1-0.2,0.1-0.2,0.2c-0.2,0.3-0.4,0.7-0.7,1c-0.4,0.4-0.8,0.8-1.3,0.9c-1.3,0.4-3-0.6-3.5-1.9
					c-0.4-1.1-0.6-2.1-0.3-3.3c0.3-1.4,1.5-3.1,3.5-2.9c0.7,0.1,1.2,0.3,1.6,0.8c0.2,0.2,0.3,0.4,0.5,0.6c0.1,0.1,0.3,0.1,0.4,0.2
					c0-0.1,0.1-0.2,0.1-0.3c0-0.2,0-0.4-0.1-0.6c-0.1-0.6-0.2-0.8-0.8-0.9c-0.6-0.1-1.2-0.1-1.8-0.2c-2.1,0-3.9,0.9-4.8,2.3
					c-1,1.6-0.8,3.3,0.3,4.7C57.8,30.5,59.5,30.9,61.3,30.8z"/>
				<path fill="#41AEB5" d="M42,30.4c0.5,0.2,1,0.3,1.5,0.4c1.6,0.2,3.2-0.5,3.5-2.3c0.2-0.9-0.2-2-1-2.5c-0.6-0.4-1.3-0.6-1.9-1
					c-0.4-0.2-0.8-0.5-1-0.8c-0.4-0.5-0.3-1,0-1.5c0.3-0.5,0.9-0.5,1.4-0.5c0.6,0,1,0.2,1.3,0.8c0.1,0.3,0.2,0.5,0.3,0.8
					c0.1,0.1,0.2,0.2,0.3,0.3c0-0.1,0.1-0.2,0.1-0.4c0-0.2,0-0.3,0-0.5c0-0.1,0-0.3,0-0.4c0.1-0.5-0.2-0.7-0.6-0.8
					c-0.6-0.1-1.3-0.1-1.9-0.1c-1.2,0.1-2.3,1-2.3,2.3c0,1,0.4,1.7,1.3,2.1c0.6,0.3,1.3,0.6,1.9,1c0.6,0.3,1,0.7,1.1,1.4
					c0.1,0.6-0.2,1-0.6,1.4c-0.6,0.4-1.2,0.5-1.8,0.2c-0.8-0.4-1.3-1-1.4-1.9c0-0.1-0.1-0.2-0.2-0.2c-0.1,0.1-0.2,0.2-0.2,0.2
					c0,0.5-0.1,1-0.1,1.5C41.6,30.1,41.8,30.3,42,30.4z"/>
				<path fill="#41AEB5" d="M64.4,58.9c-4.8,0-8.7,3.9-8.7,8.7c0,4.8,3.9,8.7,8.7,8.7c4.8,0,8.7-3.9,8.7-8.7
					C73.1,62.8,69.2,58.9,64.4,58.9z M64.4,74c-3.5,0-6.4-2.9-6.4-6.4c0-3.5,2.9-6.4,6.4-6.4c3.5,0,6.4,2.9,6.4,6.4
					C70.8,71.2,67.9,74,64.4,74z"/>
				<path fill="#41AEB5" d="M35.2,58.9h-3.6c-2.3,2.4-3.7,5.4-3.7,8.7c0,3.3,1.4,6.4,3.7,8.7h3.6c-3-2.1-4.9-5.2-4.9-8.7
					C30.3,64.1,32.2,61,35.2,58.9z"/>
				<path fill="#41AEB5" d="M42.1,58.9h-3.6c-2.3,2.4-3.7,5.4-3.7,8.7c0,3.3,1.4,6.4,3.7,8.7h3.6c-3-2.1-4.9-5.2-4.9-8.7
					C37.2,64.1,39.1,61,42.1,58.9z"/>
				<path fill="#41AEB5" d="M28.2,76.4c-3-2.1-4.9-5.2-4.9-8.7c0-3.5,1.9-6.7,4.9-8.7h-3.6c-2.3,2.4-3.7,5.4-3.7,8.7
					c0,3.3,1.4,6.4,3.7,8.7H28.2z"/>
				<path fill="#41AEB5" d="M44.1,67.6c0-3.5,1.9-6.7,4.9-8.7h-3.6c-2.3,2.4-3.7,5.4-3.7,8.7c0,3.3,1.4,6.4,3.7,8.7H49
					C46,74.3,44.1,71.2,44.1,67.6z"/>
				<path fill="#41AEB5" d="M55.9,58.9h-3.6c-2.3,2.4-3.7,5.4-3.7,8.7c0,3.3,1.4,6.4,3.7,8.7h3.6c-3-2.1-4.9-5.2-4.9-8.7
					C51,64.1,53,61,55.9,58.9z"/>
				<path fill="#41AEB5" d="M24.6,79.8c-0.2,0-0.4,0.1-0.5,0.1c-0.1,0.1-0.3,0.2-0.4,0.3h0c-0.1-0.3-0.4-0.5-0.8-0.5
					c-0.5,0-0.7,0.3-0.8,0.4h0l0-0.4h-0.7c0,0.2,0,0.5,0,0.9v1.9h0.8V81c0-0.1,0-0.2,0-0.2c0.1-0.1,0.2-0.3,0.4-0.3
					c0.3,0,0.4,0.2,0.4,0.6v1.5h0.8V81c0-0.1,0-0.2,0-0.2c0.1-0.2,0.2-0.3,0.4-0.3c0.3,0,0.4,0.2,0.4,0.6v1.5h0.8V81
					C25.5,80.2,25.1,79.8,24.6,79.8z"/>
				<path fill="#41AEB5" d="M27.6,79.8c-0.9,0-1.5,0.6-1.5,1.5c0,0.9,0.6,1.4,1.4,1.4c0.7,0,1.5-0.5,1.5-1.5
					C29,80.4,28.5,79.8,27.6,79.8z M27.6,82c-0.4,0-0.6-0.4-0.6-0.8c0-0.4,0.2-0.8,0.6-0.8c0.4,0,0.5,0.4,0.5,0.8
					C28.2,81.7,28,82,27.6,82z"/>
				<path fill="#41AEB5" d="M31.3,79.8c-0.5,0-0.7,0.3-0.9,0.4h0l0-0.4h-0.7c0,0.2,0,0.5,0,0.9v1.9h0.9V81c0-0.1,0-0.2,0-0.2
					c0.1-0.2,0.2-0.3,0.4-0.3c0.3,0,0.4,0.2,0.4,0.6v1.5h0.9V81C32.3,80.2,31.9,79.8,31.3,79.8z"/>
				<path fill="#41AEB5" d="M34.4,79.8c-1,0-1.4,0.8-1.4,1.5c0,0.9,0.5,1.4,1.5,1.4c0.4,0,0.7-0.1,1-0.2l-0.1-0.6
					C35.1,82,34.9,82,34.6,82c-0.4,0-0.8-0.2-0.8-0.5h1.8c0-0.1,0-0.2,0-0.3C35.6,80.5,35.3,79.8,34.4,79.8z M33.8,80.9
					c0-0.2,0.2-0.6,0.5-0.6c0.4,0,0.5,0.3,0.5,0.6H33.8z"/>
				<path fill="#41AEB5" d="M37.6,81.2c0,0.2-0.1,0.4-0.1,0.5h0c0-0.1-0.1-0.4-0.1-0.5l-0.4-1.4h-1l1,2.5c0,0.1,0,0.1,0,0.1
					c0,0,0,0.1,0,0.1c-0.1,0.1-0.2,0.3-0.4,0.3c-0.1,0.1-0.3,0.1-0.4,0.1l0.2,0.7c0.2,0,0.5-0.1,0.8-0.4c0.3-0.3,0.6-0.7,1-1.8
					l0.6-1.8h-0.9L37.6,81.2z"/>
				<path fill="#41AEB5" d="M41,79.8c-0.4,0-0.7,0.2-0.8,0.4h0v-1.6h-0.9v3.2c0,0.3,0,0.6,0,0.8H40l0-0.4h0c0.2,0.3,0.5,0.4,0.8,0.4
					c0.6,0,1.3-0.5,1.3-1.5C42.2,80.3,41.7,79.8,41,79.8z M40.7,82c-0.2,0-0.4-0.2-0.5-0.4c0,0,0-0.1,0-0.2V81c0-0.1,0-0.1,0-0.2
					c0.1-0.2,0.3-0.4,0.5-0.4c0.4,0,0.6,0.3,0.6,0.8C41.3,81.7,41.1,82,40.7,82z"/>
				<path fill="#41AEB5" d="M44.2,79.8c-0.9,0-1.5,0.6-1.5,1.5c0,0.9,0.6,1.4,1.4,1.4c0.7,0,1.5-0.5,1.5-1.5
					C45.6,80.4,45,79.8,44.2,79.8z M44.2,82c-0.4,0-0.6-0.4-0.6-0.8c0-0.4,0.2-0.8,0.6-0.8c0.4,0,0.5,0.4,0.5,0.8
					C44.7,81.7,44.5,82,44.2,82z"/>
				<path fill="#41AEB5" d="M47.6,79.8c-0.9,0-1.5,0.6-1.5,1.5c0,0.9,0.6,1.4,1.4,1.4c0.7,0,1.5-0.5,1.5-1.5
					C49,80.4,48.4,79.8,47.6,79.8z M47.6,82c-0.4,0-0.6-0.4-0.6-0.8c0-0.4,0.2-0.8,0.6-0.8c0.4,0,0.5,0.4,0.5,0.8
					C48.1,81.7,47.9,82,47.6,82z"/>
				<path fill="#41AEB5" d="M52.3,79.8h-1l-0.6,0.8c-0.1,0.1-0.1,0.2-0.2,0.3h0v-2.4h-0.9v4h0.9v-0.9l0.2-0.3l0.7,1.1h1.1L51.3,81
					L52.3,79.8z"/>
				<path fill="#41AEB5" d="M54,79.8c-1,0-1.4,0.8-1.4,1.5c0,0.9,0.5,1.4,1.5,1.4c0.4,0,0.7-0.1,1-0.2L55,81.9
					C54.7,82,54.5,82,54.2,82c-0.4,0-0.8-0.2-0.8-0.5h1.8c0-0.1,0-0.2,0-0.3C55.2,80.5,54.9,79.8,54,79.8z M53.4,80.9
					c0-0.2,0.2-0.6,0.5-0.6c0.4,0,0.5,0.3,0.5,0.6H53.4z"/>
				<path fill="#41AEB5" d="M56.7,80.4L56.7,80.4l-0.1-0.5h-0.7c0,0.2,0,0.5,0,0.9v1.8h0.9v-1.4c0-0.1,0-0.1,0-0.2
					c0.1-0.3,0.3-0.4,0.6-0.4c0.1,0,0.2,0,0.2,0v-0.8c-0.1,0-0.1,0-0.2,0C57.1,79.8,56.8,79.9,56.7,80.4z"/>
				<path fill="#41AEB5" d="M59.4,80.9c-0.3-0.1-0.4-0.2-0.4-0.3c0-0.1,0.1-0.2,0.3-0.2c0.2,0,0.5,0.1,0.6,0.2l0.1-0.6
					c-0.2-0.1-0.5-0.2-0.8-0.2c-0.7,0-1.1,0.4-1.1,0.9c0,0.3,0.2,0.6,0.8,0.8c0.3,0.1,0.4,0.2,0.4,0.3c0,0.1-0.1,0.2-0.4,0.2
					c-0.3,0-0.6-0.1-0.7-0.2L58,82.5c0.2,0.1,0.5,0.2,0.9,0.2c0.8,0,1.2-0.4,1.2-0.9C60.1,81.4,59.9,81.1,59.4,80.9z"/>
				<path fill="#41AEB5" d="M61.4,81.8c-0.3,0-0.5,0.2-0.5,0.5c0,0.3,0.2,0.5,0.5,0.5c0.3,0,0.5-0.2,0.5-0.5
					C61.9,82,61.7,81.8,61.4,81.8z"/>
				<path fill="#41AEB5" d="M63.7,80.3c0.2,0,0.4,0.1,0.5,0.1l0.1-0.5c-0.2-0.1-0.4-0.1-0.7-0.1c-1,0-1.5,0.6-1.5,1.5
					c0,0.9,0.6,1.4,1.4,1.4c0.3,0,0.6-0.1,0.8-0.1L64.3,82c-0.1,0.1-0.3,0.1-0.5,0.1c-0.5,0-0.8-0.3-0.8-0.9
					C62.9,80.7,63.2,80.3,63.7,80.3z"/>
				<path fill="#41AEB5" d="M66.2,79.7c-0.8,0-1.4,0.6-1.4,1.5c0,0.9,0.6,1.4,1.4,1.4c0.7,0,1.4-0.5,1.4-1.5
					C67.6,80.3,67,79.7,66.2,79.7z M66.2,82.1c-0.4,0-0.7-0.4-0.7-0.9c0-0.5,0.2-0.9,0.7-0.9c0.5,0,0.7,0.5,0.7,0.9
					C66.9,81.7,66.6,82.1,66.2,82.1z"/>
				<path fill="#41AEB5" d="M71.4,79.7c-0.2,0-0.4,0.1-0.6,0.2c-0.1,0.1-0.2,0.2-0.3,0.3h0c-0.1-0.3-0.4-0.5-0.8-0.5
					c-0.5,0-0.7,0.3-0.8,0.5h0l0-0.4h-0.6c0,0.2,0,0.5,0,0.8v1.9H69v-1.6c0-0.1,0-0.2,0-0.2c0.1-0.2,0.2-0.4,0.5-0.4
					c0.3,0,0.5,0.3,0.5,0.7v1.6h0.7v-1.6c0-0.1,0-0.2,0-0.2c0.1-0.2,0.2-0.4,0.5-0.4c0.3,0,0.5,0.3,0.5,0.7v1.5h0.7v-1.6
					C72.3,80,71.9,79.7,71.4,79.7z"/>
				<path fill="#41AEB5" d="M49.6,45.8l0,3.7c0,0.4,0.3,0.7,0.7,0.7c0.4,0,0.7-0.3,0.7-0.7l0-0.3h0l0-3.4l3.7,0
					c0.4,0,0.7-0.3,0.7-0.7c0-0.4-0.3-0.7-0.7-0.7l-0.3,0v0l-3.4,0l0-3.7c0-0.4-0.3-0.7-0.7-0.7c-0.4,0-0.7,0.3-0.7,0.7l0,0.3h0
					l0,3.4l-3.7,0c-0.4,0-0.7,0.3-0.7,0.7c0,0.4,0.3,0.7,0.7,0.7l0.3,0v0L49.6,45.8z"/>
			</g>
		</g>
	</g>
</g>
<g id="ICONS_-_SKRILL_PURPLE">
	<g>
		<g>
			<g>
				<path fill="#811E68" d="M15.4,23.7c0.4,0.4,0.7,0.9,1,1.3c1.1,1.4,2.2,2.8,3.4,4.1c0.5,0.6,1,1.2,1.4,1.8c0.2,0,0.4,0,0.5,0
					c0-2.4,0-4.9,0-7.3c0-1,0-1,1-1.2c0.1,0,0.2-0.1,0.3-0.2c-0.1-0.1-0.2-0.2-0.3-0.2c-0.8,0-1.6,0-2.5,0c-0.2,0-0.3,0.1-0.5,0.2
					c0.2,0.1,0.3,0.2,0.5,0.2c0.1,0,0.2,0,0.3,0c0.3,0,0.5,0.1,0.5,0.4c0,0.2,0.1,0.4,0.1,0.6c0,1.5,0.1,3,0.1,4.5
					c0,0.1,0,0.2,0,0.4c-0.1-0.1-0.2-0.1-0.2-0.2c-0.5-0.6-0.9-1.2-1.4-1.8c-0.9-1.2-1.9-2.4-2.9-3.6c-0.4-0.5-0.7-0.9-1.4-0.8
					c-0.4,0.1-0.9,0-1.4,0c-0.2,0-0.4,0.1-0.6,0.2c0.2,0.1,0.4,0.2,0.6,0.2c0.3,0.1,0.6,0.1,0.6,0.5c0,2.3,0,4.5,0,6.8
					c0,0.2-0.3,0.4-0.4,0.6c-0.1,0.1-0.3,0-0.5,0.1c-0.1,0-0.2,0.2-0.3,0.2c0.1,0,0.2,0.1,0.4,0.1c0.8,0,1.7,0,2.5,0
					c0.2,0,0.3-0.1,0.5-0.1c0-0.1,0-0.1,0-0.2c-0.1,0-0.3-0.1-0.4-0.1c-0.7-0.1-0.9-0.2-1-0.9c-0.1-0.8-0.1-1.7-0.1-2.6
					c0-1.1,0-2.2,0-3.4C15.3,23.6,15.4,23.6,15.4,23.7z"/>
				<path fill="#811E68" d="M90.5,23.4C90,22.5,89.3,22,88.3,22c-1.5,0-3,0-4.5,0c-0.1,0-0.3,0.1-0.4,0.1c0.1,0.1,0.3,0.2,0.4,0.3
					c0,0,0.1,0,0.1,0c0.6,0.1,0.7,0.2,0.7,0.8c0,2.1,0,4.1,0,6.2c0,0.7-0.1,0.8-0.8,1c-0.2,0-0.3,0.1-0.5,0.2c0.3,0.3,4,0.2,4.2,0
					c-0.2-0.1-0.4-0.1-0.6-0.1c-0.6-0.1-0.8-0.3-0.8-0.9c0-0.3,0-0.7,0-1c0-0.6,0-1.3,0-1.9c0.4,0.1,0.7,0.2,1,0.3
					c1.1,0.3,2,0.1,2.8-0.7c0.3-0.2,0.4-0.6,0.6-0.9c0-0.6,0-1.1,0-1.7C90.6,23.5,90.5,23.4,90.5,23.4z M88.8,25.5
					c-0.5,0.7-1.5,1.1-2.3,0.7c-0.1,0-0.2-0.2-0.2-0.4c0-0.5,0-1,0-1.5c0-0.4,0-0.7,0-1.1c0-0.9,0.5-1.2,1.3-1
					C89,22.8,89.6,24.3,88.8,25.5z"/>
				<path fill="#811E68" d="M23.8,22.3c0.8,0,1,0.6,1.2,1.1c0.5,1.1,0.9,2.2,1.4,3.4c0.6,1.4,1.2,2.8,1.8,4.1c0.1,0,0.2,0,0.4,0
					c0.1-0.3,0.2-0.5,0.3-0.8c0.5-1.3,1-2.5,1.5-3.8c0.3-0.8,0.6-1.7,1-2.5c0.3-0.7,0.4-1.5,1.4-1.5c0.1,0,0.2-0.2,0.2-0.2
					c-1-0.1-2-0.1-3-0.1c-0.1,0-0.2,0.1-0.2,0.1c0.1,0.1,0.1,0.1,0.2,0.2c0.1,0,0.2,0.1,0.3,0.1c0.8,0.1,0.9,0.3,0.6,1
					c-0.4,1-0.8,2-1.2,3c-0.3,0.6-0.5,1.3-0.8,2c-0.2-0.3-0.3-0.4-0.4-0.6c-0.6-1.5-1.2-3-1.9-4.4c-0.3-0.7-0.3-0.8,0.5-1
					c0.1,0,0.1,0,0.2,0c0.1-0.1,0.1-0.2,0.2-0.3c-1.3,0-2.6,0-3.8,0c-0.1,0-0.2,0.1-0.2,0.1C23.7,22.2,23.8,22.3,23.8,22.3z"/>
				<path fill="#811E68" d="M47.5,24c0.1-0.1,0.2-0.1,0.2-0.2c0.5-0.9,1.3-1.3,2.3-1.3c0.4,0,0.6,0.2,0.6,0.6c0,2,0,4.1,0,6.1
					c0,0.8-0.1,1.1-0.9,1.2c-0.1,0-0.2,0.1-0.3,0.2c0.1,0.1,0.2,0.2,0.3,0.2c1.1,0,2.1,0,3.2,0c0.1,0,0.2-0.1,0.4-0.2
					c-0.1-0.1-0.2-0.2-0.3-0.2c-0.8-0.2-0.8-0.3-0.8-1c0-1.9,0-3.8,0-5.7c0-1-0.2-1.1,1.1-1.1c1,0,1.3,0.2,1.6,1.2
					c0,0.1,0,0.1,0,0.2c0.1,0.1,0.1,0.2,0.2,0.3c0.1-0.1,0.2-0.2,0.2-0.3c0.1-0.4,0.1-0.8,0.1-1.1c0-0.5,0-0.9-0.1-1.4
					c-0.1,0-0.2,0-0.3,0c-0.1,0.5-0.4,0.6-0.9,0.6c-1.8,0-3.6,0-5.4,0c-0.5,0-0.6-0.1-0.6-0.6c-0.1,0-0.2,0-0.3,0
					c-0.2,0.7-0.4,1.4-0.6,2.1c0,0.1-0.1,0.3,0,0.4c0,0.1,0.1,0.2,0.1,0.2C47.3,24.1,47.5,24,47.5,24z"/>
				<path fill="#811E68" d="M12.3,22.4c0.1,0,0.3-0.1,0.4-0.2c-0.1-0.1-0.3-0.2-0.4-0.2c-1.2,0-2.4,0-3.6,0c0,0.1,0,0.2,0,0.4
					c0.2,0,0.4,0,0.7,0.1c0.4,0.1,0.6,0.3,0.6,0.7c0,2.2,0,4.3,0,6.5c0,0.4-0.2,0.6-0.6,0.7c-0.2,0.1-0.5,0.1-0.7,0.1
					c0,0.1,0,0.2,0,0.3c0.1,0,0.3,0.1,0.4,0.1c1.1,0,2.2,0,3.2,0c0.1,0,0.2-0.1,0.4-0.2c-0.1-0.1-0.2-0.2-0.3-0.2
					c-0.7-0.1-0.9-0.2-0.9-0.9c0-2.1,0-4.2,0-6.3C11.5,22.6,11.7,22.5,12.3,22.4z"/>
				<path fill="#811E68" d="M82.5,30.3c-0.3-0.1-0.6-0.3-0.7-0.5c-0.4-0.6-0.7-1.2-1-1.7c-0.4-0.6-0.8-1.2-1.1-1.8
					c0.4-0.3,1-0.5,1.4-1c0.5-0.7,0.5-1.5,0-2.3c-0.4-0.7-1.1-1-1.8-1c-1.5,0-3,0-4.5,0c-0.1,0-0.3,0.1-0.4,0.2
					c0.1,0.1,0.2,0.2,0.4,0.2c0.8,0,0.9,0.4,0.9,1.1c0,1,0,1.9,0,2.9c0,1,0,2,0,3.1c0,0.6-0.2,0.8-0.8,0.9c-0.2,0-0.3,0.1-0.5,0.1
					c0.3,0.3,3.8,0.3,4.1,0c-0.2-0.1-0.3-0.1-0.5-0.1c-0.6-0.1-0.7-0.2-0.8-0.8c0-0.9,0-1.8,0-2.7c0-0.3,0.1-0.4,0.4-0.4
					c0.5,0,0.7,0.4,0.9,0.7c0.6,1.1,1.1,2.2,1.7,3.2c0.1,0.1,0.3,0.3,0.5,0.3c0.6,0,1.2,0,1.8,0c0.2,0,0.3-0.1,0.5-0.1
					c0,0,0-0.1,0-0.1C82.9,30.4,82.7,30.4,82.5,30.3z M78.3,26.1c-1.2,0-1.1,0.2-1.1-1.1c0-0.2,0-0.4,0-0.6c0,0,0,0,0,0
					c0-0.5,0-0.9,0-1.4c0-0.5,0.3-0.7,0.8-0.6c1.6,0.1,2.2,2,1.5,3.1C79.2,25.9,78.8,26.1,78.3,26.1z"/>
				<path fill="#811E68" d="M70.3,22c-1.4-0.2-2.8,0-4,0.9c-1.2,0.9-1.7,2-1.8,3.2c0,2.2,1,3.6,2.7,4.3c2,0.9,3.9,0.6,5.6-0.9
					c1.5-1.3,1.9-3.8,0.7-5.5C72.8,22.8,71.7,22.1,70.3,22z M71.5,29.5c-1,1.3-2.7,1.3-3.9,0.1c-1.2-1.3-1.4-2.8-1.2-4.4
					c0.1-1,0.5-1.8,1.3-2.4c0.3-0.2,0.6-0.4,0.9-0.4c0.6-0.1,1.3-0.1,1.9,0.1c0.8,0.4,1.4,1,1.7,1.9c0.3,0.6,0.3,1.3,0.5,2
					C72.5,27.5,72.2,28.6,71.5,29.5z"/>
				<path fill="#811E68" d="M34.1,30.3c-0.2,0-0.4,0.1-0.6,0.2c0,0.1,0,0.1,0,0.2c0.2,0,0.3,0.1,0.5,0.1c1.2,0,2.3,0,3.5,0
					c0.7,0,1.4,0,2.1,0c0.3,0,0.6,0,0.7-0.4c0.1-0.6,0.1-1.2,0.2-1.7c0,0-0.1-0.1-0.1-0.1c-0.1,0.1-0.2,0.1-0.3,0.2
					c-0.3,0.3-0.4,0.8-0.8,1c-0.6,0.5-1.4,0.5-2.2,0.4c-0.6-0.1-0.8-0.3-0.9-0.9c0-0.8,0-1.7,0-2.5c0-0.3,0.1-0.4,0.4-0.4
					c0.4,0,0.8,0,1.2,0c0.4,0,0.9,0.4,1,0.8c0,0.1,0,0.3,0.1,0.3c0.1,0.1,0.2,0.2,0.3,0.2c0-0.1,0.1-0.2,0.1-0.3c0-0.6,0-1.1,0-1.7
					c0-0.3,0-0.7,0-1c-0.1,0-0.1,0-0.2,0c-0.1,0.1-0.2,0.3-0.3,0.4c-0.1,0.1-0.1,0.3-0.2,0.5c-0.3,0.4-1.9,0.5-2.3,0.3
					c-0.1-0.1-0.2-0.3-0.2-0.4c0-0.7,0-1.4,0-2.1c0-0.5,0.2-0.7,0.7-0.7c0.5,0,1.1,0,1.6,0.1c0.4,0.1,0.8,0.3,1,0.7
					c0.1,0.2,0.3,0.4,0.4,0.6c0.1,0,0.1,0,0.2-0.1c0-0.5,0-1,0-1.5c0-0.3-0.1-0.4-0.4-0.4c-1.9,0-3.8,0-5.8,0c-0.1,0-0.2,0-0.3,0
					c-0.1,0-0.1,0.1-0.1,0.1c0,0.1,0,0.2,0.1,0.2c0.1,0.1,0.3,0.1,0.4,0.1c0.5,0.1,0.7,0.2,0.7,0.7c0,2.1,0,4.3,0,6.4
					C34.7,30,34.6,30.2,34.1,30.3z"/>
				<path fill="#811E68" d="M61.3,30.8c0.7,0,1.3-0.2,1.9-0.4c0.2-0.1,0.5-0.4,0.6-0.7c0.1-0.3,0.1-0.7,0.1-1.1
					c0-0.1-0.1-0.2-0.1-0.3c-0.1,0.1-0.2,0.1-0.2,0.2c-0.2,0.3-0.4,0.7-0.7,1c-0.4,0.4-0.8,0.8-1.3,0.9c-1.3,0.4-3-0.6-3.5-1.9
					c-0.4-1.1-0.6-2.1-0.3-3.3c0.3-1.4,1.5-3.1,3.5-2.9c0.7,0.1,1.2,0.3,1.6,0.8c0.2,0.2,0.3,0.4,0.5,0.6c0.1,0.1,0.3,0.1,0.4,0.2
					c0-0.1,0.1-0.2,0.1-0.3c0-0.2,0-0.4-0.1-0.6c-0.1-0.6-0.2-0.8-0.8-0.9c-0.6-0.1-1.2-0.1-1.8-0.2c-2.1,0-3.9,0.9-4.8,2.3
					c-1,1.6-0.8,3.3,0.3,4.7C57.8,30.5,59.5,30.9,61.3,30.8z"/>
				<path fill="#811E68" d="M42,30.4c0.5,0.2,1,0.3,1.5,0.4c1.6,0.2,3.2-0.5,3.5-2.3c0.2-0.9-0.2-2-1-2.5c-0.6-0.4-1.3-0.6-1.9-1
					c-0.4-0.2-0.8-0.5-1-0.8c-0.4-0.5-0.3-1,0-1.5c0.3-0.5,0.9-0.5,1.4-0.5c0.6,0,1,0.2,1.3,0.8c0.1,0.3,0.2,0.5,0.3,0.8
					c0.1,0.1,0.2,0.2,0.3,0.3c0-0.1,0.1-0.2,0.1-0.4c0-0.2,0-0.3,0-0.5c0-0.1,0-0.3,0-0.4c0.1-0.5-0.2-0.7-0.6-0.8
					c-0.6-0.1-1.3-0.1-1.9-0.1c-1.2,0.1-2.3,1-2.3,2.3c0,1,0.4,1.7,1.3,2.1c0.6,0.3,1.3,0.6,1.9,1c0.6,0.3,1,0.7,1.1,1.4
					c0.1,0.6-0.2,1-0.6,1.4c-0.6,0.4-1.2,0.5-1.8,0.2c-0.8-0.4-1.3-1-1.4-1.9c0-0.1-0.1-0.2-0.2-0.2c-0.1,0.1-0.2,0.2-0.2,0.2
					c0,0.5-0.1,1-0.1,1.5C41.6,30.1,41.8,30.3,42,30.4z"/>
				<path fill="#811E68" d="M64.4,58.9c-4.8,0-8.7,3.9-8.7,8.7c0,4.8,3.9,8.7,8.7,8.7c4.8,0,8.7-3.9,8.7-8.7
					C73.1,62.8,69.2,58.9,64.4,58.9z M64.4,74c-3.5,0-6.4-2.9-6.4-6.4c0-3.5,2.9-6.4,6.4-6.4c3.5,0,6.4,2.9,6.4,6.4
					C70.8,71.2,67.9,74,64.4,74z"/>
				<path fill="#811E68" d="M35.2,58.9h-3.6c-2.3,2.4-3.7,5.4-3.7,8.7c0,3.3,1.4,6.4,3.7,8.7h3.6c-3-2.1-4.9-5.2-4.9-8.7
					C30.3,64.1,32.2,61,35.2,58.9z"/>
				<path fill="#811E68" d="M42.1,58.9h-3.6c-2.3,2.4-3.7,5.4-3.7,8.7c0,3.3,1.4,6.4,3.7,8.7h3.6c-3-2.1-4.9-5.2-4.9-8.7
					C37.2,64.1,39.1,61,42.1,58.9z"/>
				<path fill="#811E68" d="M28.2,76.4c-3-2.1-4.9-5.2-4.9-8.7c0-3.5,1.9-6.7,4.9-8.7h-3.6c-2.3,2.4-3.7,5.4-3.7,8.7
					c0,3.3,1.4,6.4,3.7,8.7H28.2z"/>
				<path fill="#811E68" d="M44.1,67.6c0-3.5,1.9-6.7,4.9-8.7h-3.6c-2.3,2.4-3.7,5.4-3.7,8.7c0,3.3,1.4,6.4,3.7,8.7H49
					C46,74.3,44.1,71.2,44.1,67.6z"/>
				<path fill="#811E68" d="M55.9,58.9h-3.6c-2.3,2.4-3.7,5.4-3.7,8.7c0,3.3,1.4,6.4,3.7,8.7h3.6c-3-2.1-4.9-5.2-4.9-8.7
					C51,64.1,53,61,55.9,58.9z"/>
				<path fill="#811E68" d="M24.6,79.8c-0.2,0-0.4,0.1-0.5,0.1c-0.1,0.1-0.3,0.2-0.4,0.3h0c-0.1-0.3-0.4-0.5-0.8-0.5
					c-0.5,0-0.7,0.3-0.8,0.4h0l0-0.4h-0.7c0,0.2,0,0.5,0,0.9v1.9h0.8V81c0-0.1,0-0.2,0-0.2c0.1-0.1,0.2-0.3,0.4-0.3
					c0.3,0,0.4,0.2,0.4,0.6v1.5h0.8V81c0-0.1,0-0.2,0-0.2c0.1-0.2,0.2-0.3,0.4-0.3c0.3,0,0.4,0.2,0.4,0.6v1.5h0.8V81
					C25.5,80.2,25.1,79.8,24.6,79.8z"/>
				<path fill="#811E68" d="M27.6,79.8c-0.9,0-1.5,0.6-1.5,1.5c0,0.9,0.6,1.4,1.4,1.4c0.7,0,1.5-0.5,1.5-1.5
					C29,80.4,28.5,79.8,27.6,79.8z M27.6,82c-0.4,0-0.6-0.4-0.6-0.8c0-0.4,0.2-0.8,0.6-0.8c0.4,0,0.5,0.4,0.5,0.8
					C28.2,81.7,28,82,27.6,82z"/>
				<path fill="#811E68" d="M31.3,79.8c-0.5,0-0.7,0.3-0.9,0.4h0l0-0.4h-0.7c0,0.2,0,0.5,0,0.9v1.9h0.9V81c0-0.1,0-0.2,0-0.2
					c0.1-0.2,0.2-0.3,0.4-0.3c0.3,0,0.4,0.2,0.4,0.6v1.5h0.9V81C32.3,80.2,31.9,79.8,31.3,79.8z"/>
				<path fill="#811E68" d="M34.4,79.8c-1,0-1.4,0.8-1.4,1.5c0,0.9,0.5,1.4,1.5,1.4c0.4,0,0.7-0.1,1-0.2l-0.1-0.6
					C35.1,82,34.9,82,34.6,82c-0.4,0-0.8-0.2-0.8-0.5h1.8c0-0.1,0-0.2,0-0.3C35.6,80.5,35.3,79.8,34.4,79.8z M33.8,80.9
					c0-0.2,0.2-0.6,0.5-0.6c0.4,0,0.5,0.3,0.5,0.6H33.8z"/>
				<path fill="#811E68" d="M37.6,81.2c0,0.2-0.1,0.4-0.1,0.5h0c0-0.1-0.1-0.4-0.1-0.5l-0.4-1.4h-1l1,2.5c0,0.1,0,0.1,0,0.1
					c0,0,0,0.1,0,0.1c-0.1,0.1-0.2,0.3-0.4,0.3c-0.1,0.1-0.3,0.1-0.4,0.1l0.2,0.7c0.2,0,0.5-0.1,0.8-0.4c0.3-0.3,0.6-0.7,1-1.8
					l0.6-1.8h-0.9L37.6,81.2z"/>
				<path fill="#811E68" d="M41,79.8c-0.4,0-0.7,0.2-0.8,0.4h0v-1.6h-0.9v3.2c0,0.3,0,0.6,0,0.8H40l0-0.4h0c0.2,0.3,0.5,0.4,0.8,0.4
					c0.6,0,1.3-0.5,1.3-1.5C42.2,80.3,41.7,79.8,41,79.8z M40.7,82c-0.2,0-0.4-0.2-0.5-0.4c0,0,0-0.1,0-0.2V81c0-0.1,0-0.1,0-0.2
					c0.1-0.2,0.3-0.4,0.5-0.4c0.4,0,0.6,0.3,0.6,0.8C41.3,81.7,41.1,82,40.7,82z"/>
				<path fill="#811E68" d="M44.2,79.8c-0.9,0-1.5,0.6-1.5,1.5c0,0.9,0.6,1.4,1.4,1.4c0.7,0,1.5-0.5,1.5-1.5
					C45.6,80.4,45,79.8,44.2,79.8z M44.2,82c-0.4,0-0.6-0.4-0.6-0.8c0-0.4,0.2-0.8,0.6-0.8c0.4,0,0.5,0.4,0.5,0.8
					C44.7,81.7,44.5,82,44.2,82z"/>
				<path fill="#811E68" d="M47.6,79.8c-0.9,0-1.5,0.6-1.5,1.5c0,0.9,0.6,1.4,1.4,1.4c0.7,0,1.5-0.5,1.5-1.5
					C49,80.4,48.4,79.8,47.6,79.8z M47.6,82c-0.4,0-0.6-0.4-0.6-0.8c0-0.4,0.2-0.8,0.6-0.8c0.4,0,0.5,0.4,0.5,0.8
					C48.1,81.7,47.9,82,47.6,82z"/>
				<path fill="#811E68" d="M52.3,79.8h-1l-0.6,0.8c-0.1,0.1-0.1,0.2-0.2,0.3h0v-2.4h-0.9v4h0.9v-0.9l0.2-0.3l0.7,1.1h1.1L51.3,81
					L52.3,79.8z"/>
				<path fill="#811E68" d="M54,79.8c-1,0-1.4,0.8-1.4,1.5c0,0.9,0.5,1.4,1.5,1.4c0.4,0,0.7-0.1,1-0.2L55,81.9
					C54.7,82,54.5,82,54.2,82c-0.4,0-0.8-0.2-0.8-0.5h1.8c0-0.1,0-0.2,0-0.3C55.2,80.5,54.9,79.8,54,79.8z M53.4,80.9
					c0-0.2,0.2-0.6,0.5-0.6c0.4,0,0.5,0.3,0.5,0.6H53.4z"/>
				<path fill="#811E68" d="M56.7,80.4L56.7,80.4l-0.1-0.5h-0.7c0,0.2,0,0.5,0,0.9v1.8h0.9v-1.4c0-0.1,0-0.1,0-0.2
					c0.1-0.3,0.3-0.4,0.6-0.4c0.1,0,0.2,0,0.2,0v-0.8c-0.1,0-0.1,0-0.2,0C57.1,79.8,56.8,79.9,56.7,80.4z"/>
				<path fill="#811E68" d="M59.4,80.9c-0.3-0.1-0.4-0.2-0.4-0.3c0-0.1,0.1-0.2,0.3-0.2c0.2,0,0.5,0.1,0.6,0.2l0.1-0.6
					c-0.2-0.1-0.5-0.2-0.8-0.2c-0.7,0-1.1,0.4-1.1,0.9c0,0.3,0.2,0.6,0.8,0.8c0.3,0.1,0.4,0.2,0.4,0.3c0,0.1-0.1,0.2-0.4,0.2
					c-0.3,0-0.6-0.1-0.7-0.2L58,82.5c0.2,0.1,0.5,0.2,0.9,0.2c0.8,0,1.2-0.4,1.2-0.9C60.1,81.4,59.9,81.1,59.4,80.9z"/>
				<path fill="#811E68" d="M61.4,81.8c-0.3,0-0.5,0.2-0.5,0.5c0,0.3,0.2,0.5,0.5,0.5c0.3,0,0.5-0.2,0.5-0.5
					C61.9,82,61.7,81.8,61.4,81.8z"/>
				<path fill="#811E68" d="M63.7,80.3c0.2,0,0.4,0.1,0.5,0.1l0.1-0.5c-0.2-0.1-0.4-0.1-0.7-0.1c-1,0-1.5,0.6-1.5,1.5
					c0,0.9,0.6,1.4,1.4,1.4c0.3,0,0.6-0.1,0.8-0.1L64.3,82c-0.1,0.1-0.3,0.1-0.5,0.1c-0.5,0-0.8-0.3-0.8-0.9
					C62.9,80.7,63.2,80.3,63.7,80.3z"/>
				<path fill="#811E68" d="M66.2,79.7c-0.8,0-1.4,0.6-1.4,1.5c0,0.9,0.6,1.4,1.4,1.4c0.7,0,1.4-0.5,1.4-1.5
					C67.6,80.3,67,79.7,66.2,79.7z M66.2,82.1c-0.4,0-0.7-0.4-0.7-0.9c0-0.5,0.2-0.9,0.7-0.9c0.5,0,0.7,0.5,0.7,0.9
					C66.9,81.7,66.6,82.1,66.2,82.1z"/>
				<path fill="#811E68" d="M71.4,79.7c-0.2,0-0.4,0.1-0.6,0.2c-0.1,0.1-0.2,0.2-0.3,0.3h0c-0.1-0.3-0.4-0.5-0.8-0.5
					c-0.5,0-0.7,0.3-0.8,0.5h0l0-0.4h-0.6c0,0.2,0,0.5,0,0.8v1.9H69v-1.6c0-0.1,0-0.2,0-0.2c0.1-0.2,0.2-0.4,0.5-0.4
					c0.3,0,0.5,0.3,0.5,0.7v1.6h0.7v-1.6c0-0.1,0-0.2,0-0.2c0.1-0.2,0.2-0.4,0.5-0.4c0.3,0,0.5,0.3,0.5,0.7v1.5h0.7v-1.6
					C72.3,80,71.9,79.7,71.4,79.7z"/>
				<path fill="#811E68" d="M49.6,45.8l0,3.7c0,0.4,0.3,0.7,0.7,0.7c0.4,0,0.7-0.3,0.7-0.7l0-0.3h0l0-3.4l3.7,0
					c0.4,0,0.7-0.3,0.7-0.7c0-0.4-0.3-0.7-0.7-0.7l-0.3,0v0l-3.4,0l0-3.7c0-0.4-0.3-0.7-0.7-0.7c-0.4,0-0.7,0.3-0.7,0.7l0,0.3h0
					l0,3.4l-3.7,0c-0.4,0-0.7,0.3-0.7,0.7c0,0.4,0.3,0.7,0.7,0.7l0.3,0v0L49.6,45.8z"/>
			</g>
		</g>
	</g>
</g>
<g id="ICONS_-_WHITE" display="none">
	<g display="inline">
		<g>
			<g>
				<path fill="#FFFFFF" d="M15.4,23.7c0.4,0.4,0.7,0.9,1,1.3c1.1,1.4,2.2,2.8,3.4,4.1c0.5,0.6,1,1.2,1.4,1.8c0.2,0,0.4,0,0.5,0
					c0-2.4,0-4.9,0-7.3c0-1,0-1,1-1.2c0.1,0,0.2-0.1,0.3-0.2c-0.1-0.1-0.2-0.2-0.3-0.2c-0.8,0-1.6,0-2.5,0c-0.2,0-0.3,0.1-0.5,0.2
					c0.2,0.1,0.3,0.2,0.5,0.2c0.1,0,0.2,0,0.3,0c0.3,0,0.5,0.1,0.5,0.4c0,0.2,0.1,0.4,0.1,0.6c0,1.5,0.1,3,0.1,4.5
					c0,0.1,0,0.2,0,0.4c-0.1-0.1-0.2-0.1-0.2-0.2c-0.5-0.6-0.9-1.2-1.4-1.8c-0.9-1.2-1.9-2.4-2.9-3.6c-0.4-0.5-0.7-0.9-1.4-0.8
					c-0.4,0.1-0.9,0-1.4,0c-0.2,0-0.4,0.1-0.6,0.2c0.2,0.1,0.4,0.2,0.6,0.2c0.3,0.1,0.6,0.1,0.6,0.5c0,2.3,0,4.5,0,6.8
					c0,0.2-0.3,0.4-0.4,0.6c-0.1,0.1-0.3,0-0.5,0.1c-0.1,0-0.2,0.2-0.3,0.2c0.1,0,0.2,0.1,0.4,0.1c0.8,0,1.7,0,2.5,0
					c0.2,0,0.3-0.1,0.5-0.1c0-0.1,0-0.1,0-0.2c-0.1,0-0.3-0.1-0.4-0.1c-0.7-0.1-0.9-0.2-1-0.9c-0.1-0.8-0.1-1.7-0.1-2.6
					c0-1.1,0-2.2,0-3.4C15.3,23.6,15.4,23.6,15.4,23.7z"/>
				<path fill="#FFFFFF" d="M90.5,23.4C90,22.5,89.3,22,88.3,22c-1.5,0-3,0-4.5,0c-0.1,0-0.3,0.1-0.4,0.1c0.1,0.1,0.3,0.2,0.4,0.3
					c0,0,0.1,0,0.1,0c0.6,0.1,0.7,0.2,0.7,0.8c0,2.1,0,4.1,0,6.2c0,0.7-0.1,0.8-0.8,1c-0.2,0-0.3,0.1-0.5,0.2c0.3,0.3,4,0.2,4.2,0
					c-0.2-0.1-0.4-0.1-0.6-0.1c-0.6-0.1-0.8-0.3-0.8-0.9c0-0.3,0-0.7,0-1c0-0.6,0-1.3,0-1.9c0.4,0.1,0.7,0.2,1,0.3
					c1.1,0.3,2,0.1,2.8-0.7c0.3-0.2,0.4-0.6,0.6-0.9c0-0.6,0-1.1,0-1.7C90.6,23.5,90.5,23.4,90.5,23.4z M88.8,25.5
					c-0.5,0.7-1.5,1.1-2.3,0.7c-0.1,0-0.2-0.2-0.2-0.4c0-0.5,0-1,0-1.5c0-0.4,0-0.7,0-1.1c0-0.9,0.5-1.2,1.3-1
					C89,22.8,89.6,24.3,88.8,25.5z"/>
				<path fill="#FFFFFF" d="M23.8,22.3c0.8,0,1,0.6,1.2,1.1c0.5,1.1,0.9,2.2,1.4,3.4c0.6,1.4,1.2,2.8,1.8,4.1c0.1,0,0.2,0,0.4,0
					c0.1-0.3,0.2-0.5,0.3-0.8c0.5-1.3,1-2.5,1.5-3.8c0.3-0.8,0.6-1.7,1-2.5c0.3-0.7,0.4-1.5,1.4-1.5c0.1,0,0.2-0.2,0.2-0.2
					c-1-0.1-2-0.1-3-0.1c-0.1,0-0.2,0.1-0.2,0.1c0.1,0.1,0.1,0.1,0.2,0.2c0.1,0,0.2,0.1,0.3,0.1c0.8,0.1,0.9,0.3,0.6,1
					c-0.4,1-0.8,2-1.2,3c-0.3,0.6-0.5,1.3-0.8,2c-0.2-0.3-0.3-0.4-0.4-0.6c-0.6-1.5-1.2-3-1.9-4.4c-0.3-0.7-0.3-0.8,0.5-1
					c0.1,0,0.1,0,0.2,0c0.1-0.1,0.1-0.2,0.2-0.3c-1.3,0-2.6,0-3.8,0c-0.1,0-0.2,0.1-0.2,0.1C23.7,22.2,23.8,22.3,23.8,22.3z"/>
				<path fill="#FFFFFF" d="M47.5,24c0.1-0.1,0.2-0.1,0.2-0.2c0.5-0.9,1.3-1.3,2.3-1.3c0.4,0,0.6,0.2,0.6,0.6c0,2,0,4.1,0,6.1
					c0,0.8-0.1,1.1-0.9,1.2c-0.1,0-0.2,0.1-0.3,0.2c0.1,0.1,0.2,0.2,0.3,0.2c1.1,0,2.1,0,3.2,0c0.1,0,0.2-0.1,0.4-0.2
					c-0.1-0.1-0.2-0.2-0.3-0.2c-0.8-0.2-0.8-0.3-0.8-1c0-1.9,0-3.8,0-5.7c0-1-0.2-1.1,1.1-1.1c1,0,1.3,0.2,1.6,1.2
					c0,0.1,0,0.1,0,0.2c0.1,0.1,0.1,0.2,0.2,0.3c0.1-0.1,0.2-0.2,0.2-0.3c0.1-0.4,0.1-0.8,0.1-1.1c0-0.5,0-0.9-0.1-1.4
					c-0.1,0-0.2,0-0.3,0c-0.1,0.5-0.4,0.6-0.9,0.6c-1.8,0-3.6,0-5.4,0c-0.5,0-0.6-0.1-0.6-0.6c-0.1,0-0.2,0-0.3,0
					c-0.2,0.7-0.4,1.4-0.6,2.1c0,0.1-0.1,0.3,0,0.4c0,0.1,0.1,0.2,0.1,0.2C47.3,24.1,47.5,24,47.5,24z"/>
				<path fill="#FFFFFF" d="M12.3,22.4c0.1,0,0.3-0.1,0.4-0.2c-0.1-0.1-0.3-0.2-0.4-0.2c-1.2,0-2.4,0-3.6,0c0,0.1,0,0.2,0,0.4
					c0.2,0,0.4,0,0.7,0.1c0.4,0.1,0.6,0.3,0.6,0.7c0,2.2,0,4.3,0,6.5c0,0.4-0.2,0.6-0.6,0.7c-0.2,0.1-0.5,0.1-0.7,0.1
					c0,0.1,0,0.2,0,0.3c0.1,0,0.3,0.1,0.4,0.1c1.1,0,2.2,0,3.2,0c0.1,0,0.2-0.1,0.4-0.2c-0.1-0.1-0.2-0.2-0.3-0.2
					c-0.7-0.1-0.9-0.2-0.9-0.9c0-2.1,0-4.2,0-6.3C11.5,22.6,11.7,22.5,12.3,22.4z"/>
				<path fill="#FFFFFF" d="M82.5,30.3c-0.3-0.1-0.6-0.3-0.7-0.5c-0.4-0.6-0.7-1.2-1-1.7c-0.4-0.6-0.8-1.2-1.1-1.8
					c0.4-0.3,1-0.5,1.4-1c0.5-0.7,0.5-1.5,0-2.3c-0.4-0.7-1.1-1-1.8-1c-1.5,0-3,0-4.5,0c-0.1,0-0.3,0.1-0.4,0.2
					c0.1,0.1,0.2,0.2,0.4,0.2c0.8,0,0.9,0.4,0.9,1.1c0,1,0,1.9,0,2.9c0,1,0,2,0,3.1c0,0.6-0.2,0.8-0.8,0.9c-0.2,0-0.3,0.1-0.5,0.1
					c0.3,0.3,3.8,0.3,4.1,0c-0.2-0.1-0.3-0.1-0.5-0.1c-0.6-0.1-0.7-0.2-0.8-0.8c0-0.9,0-1.8,0-2.7c0-0.3,0.1-0.4,0.4-0.4
					c0.5,0,0.7,0.4,0.9,0.7c0.6,1.1,1.1,2.2,1.7,3.2c0.1,0.1,0.3,0.3,0.5,0.3c0.6,0,1.2,0,1.8,0c0.2,0,0.3-0.1,0.5-0.1
					c0,0,0-0.1,0-0.1C82.9,30.4,82.7,30.4,82.5,30.3z M78.3,26.1c-1.2,0-1.1,0.2-1.1-1.1c0-0.2,0-0.4,0-0.6c0,0,0,0,0,0
					c0-0.5,0-0.9,0-1.4c0-0.5,0.3-0.7,0.8-0.6c1.6,0.1,2.2,2,1.5,3.1C79.2,25.9,78.8,26.1,78.3,26.1z"/>
				<path fill="#FFFFFF" d="M70.3,22c-1.4-0.2-2.8,0-4,0.9c-1.2,0.9-1.7,2-1.8,3.2c0,2.2,1,3.6,2.7,4.3c2,0.9,3.9,0.6,5.6-0.9
					c1.5-1.3,1.9-3.8,0.7-5.5C72.8,22.8,71.7,22.1,70.3,22z M71.5,29.5c-1,1.3-2.7,1.3-3.9,0.1c-1.2-1.3-1.4-2.8-1.2-4.4
					c0.1-1,0.5-1.8,1.3-2.4c0.3-0.2,0.6-0.4,0.9-0.4c0.6-0.1,1.3-0.1,1.9,0.1c0.8,0.4,1.4,1,1.7,1.9c0.3,0.6,0.3,1.3,0.5,2
					C72.5,27.5,72.2,28.6,71.5,29.5z"/>
				<path fill="#FFFFFF" d="M34.1,30.3c-0.2,0-0.4,0.1-0.6,0.2c0,0.1,0,0.1,0,0.2c0.2,0,0.3,0.1,0.5,0.1c1.2,0,2.3,0,3.5,0
					c0.7,0,1.4,0,2.1,0c0.3,0,0.6,0,0.7-0.4c0.1-0.6,0.1-1.2,0.2-1.7c0,0-0.1-0.1-0.1-0.1c-0.1,0.1-0.2,0.1-0.3,0.2
					c-0.3,0.3-0.4,0.8-0.8,1c-0.6,0.5-1.4,0.5-2.2,0.4c-0.6-0.1-0.8-0.3-0.9-0.9c0-0.8,0-1.7,0-2.5c0-0.3,0.1-0.4,0.4-0.4
					c0.4,0,0.8,0,1.2,0c0.4,0,0.9,0.4,1,0.8c0,0.1,0,0.3,0.1,0.3c0.1,0.1,0.2,0.2,0.3,0.2c0-0.1,0.1-0.2,0.1-0.3c0-0.6,0-1.1,0-1.7
					c0-0.3,0-0.7,0-1c-0.1,0-0.1,0-0.2,0c-0.1,0.1-0.2,0.3-0.3,0.4c-0.1,0.1-0.1,0.3-0.2,0.5c-0.3,0.4-1.9,0.5-2.3,0.3
					c-0.1-0.1-0.2-0.3-0.2-0.4c0-0.7,0-1.4,0-2.1c0-0.5,0.2-0.7,0.7-0.7c0.5,0,1.1,0,1.6,0.1c0.4,0.1,0.8,0.3,1,0.7
					c0.1,0.2,0.3,0.4,0.4,0.6c0.1,0,0.1,0,0.2-0.1c0-0.5,0-1,0-1.5c0-0.3-0.1-0.4-0.4-0.4c-1.9,0-3.8,0-5.8,0c-0.1,0-0.2,0-0.3,0
					c-0.1,0-0.1,0.1-0.1,0.1c0,0.1,0,0.2,0.1,0.2c0.1,0.1,0.3,0.1,0.4,0.1c0.5,0.1,0.7,0.2,0.7,0.7c0,2.1,0,4.3,0,6.4
					C34.7,30,34.6,30.2,34.1,30.3z"/>
				<path fill="#FFFFFF" d="M61.3,30.8c0.7,0,1.3-0.2,1.9-0.4c0.2-0.1,0.5-0.4,0.6-0.7c0.1-0.3,0.1-0.7,0.1-1.1
					c0-0.1-0.1-0.2-0.1-0.3c-0.1,0.1-0.2,0.1-0.2,0.2c-0.2,0.3-0.4,0.7-0.7,1c-0.4,0.4-0.8,0.8-1.3,0.9c-1.3,0.4-3-0.6-3.5-1.9
					c-0.4-1.1-0.6-2.1-0.3-3.3c0.3-1.4,1.5-3.1,3.5-2.9c0.7,0.1,1.2,0.3,1.6,0.8c0.2,0.2,0.3,0.4,0.5,0.6c0.1,0.1,0.3,0.1,0.4,0.2
					c0-0.1,0.1-0.2,0.1-0.3c0-0.2,0-0.4-0.1-0.6c-0.1-0.6-0.2-0.8-0.8-0.9c-0.6-0.1-1.2-0.1-1.8-0.2c-2.1,0-3.9,0.9-4.8,2.3
					c-1,1.6-0.8,3.3,0.3,4.7C57.8,30.5,59.5,30.9,61.3,30.8z"/>
				<path fill="#FFFFFF" d="M42,30.4c0.5,0.2,1,0.3,1.5,0.4c1.6,0.2,3.2-0.5,3.5-2.3c0.2-0.9-0.2-2-1-2.5c-0.6-0.4-1.3-0.6-1.9-1
					c-0.4-0.2-0.8-0.5-1-0.8c-0.4-0.5-0.3-1,0-1.5c0.3-0.5,0.9-0.5,1.4-0.5c0.6,0,1,0.2,1.3,0.8c0.1,0.3,0.2,0.5,0.3,0.8
					c0.1,0.1,0.2,0.2,0.3,0.3c0-0.1,0.1-0.2,0.1-0.4c0-0.2,0-0.3,0-0.5c0-0.1,0-0.3,0-0.4c0.1-0.5-0.2-0.7-0.6-0.8
					c-0.6-0.1-1.3-0.1-1.9-0.1c-1.2,0.1-2.3,1-2.3,2.3c0,1,0.4,1.7,1.3,2.1c0.6,0.3,1.3,0.6,1.9,1c0.6,0.3,1,0.7,1.1,1.4
					c0.1,0.6-0.2,1-0.6,1.4c-0.6,0.4-1.2,0.5-1.8,0.2c-0.8-0.4-1.3-1-1.4-1.9c0-0.1-0.1-0.2-0.2-0.2c-0.1,0.1-0.2,0.2-0.2,0.2
					c0,0.5-0.1,1-0.1,1.5C41.6,30.1,41.8,30.3,42,30.4z"/>
				<path fill="#FFFFFF" d="M64.4,58.9c-4.8,0-8.7,3.9-8.7,8.7c0,4.8,3.9,8.7,8.7,8.7c4.8,0,8.7-3.9,8.7-8.7
					C73.1,62.8,69.2,58.9,64.4,58.9z M64.4,74c-3.5,0-6.4-2.9-6.4-6.4c0-3.5,2.9-6.4,6.4-6.4c3.5,0,6.4,2.9,6.4,6.4
					C70.8,71.2,67.9,74,64.4,74z"/>
				<path fill="#FFFFFF" d="M35.2,58.9h-3.6c-2.3,2.4-3.7,5.4-3.7,8.7c0,3.3,1.4,6.4,3.7,8.7h3.6c-3-2.1-4.9-5.2-4.9-8.7
					C30.3,64.1,32.2,61,35.2,58.9z"/>
				<path fill="#FFFFFF" d="M42.1,58.9h-3.6c-2.3,2.4-3.7,5.4-3.7,8.7c0,3.3,1.4,6.4,3.7,8.7h3.6c-3-2.1-4.9-5.2-4.9-8.7
					C37.2,64.1,39.1,61,42.1,58.9z"/>
				<path fill="#FFFFFF" d="M28.2,76.4c-3-2.1-4.9-5.2-4.9-8.7c0-3.5,1.9-6.7,4.9-8.7h-3.6c-2.3,2.4-3.7,5.4-3.7,8.7
					c0,3.3,1.4,6.4,3.7,8.7H28.2z"/>
				<path fill="#FFFFFF" d="M44.1,67.6c0-3.5,1.9-6.7,4.9-8.7h-3.6c-2.3,2.4-3.7,5.4-3.7,8.7c0,3.3,1.4,6.4,3.7,8.7H49
					C46,74.3,44.1,71.2,44.1,67.6z"/>
				<path fill="#FFFFFF" d="M55.9,58.9h-3.6c-2.3,2.4-3.7,5.4-3.7,8.7c0,3.3,1.4,6.4,3.7,8.7h3.6c-3-2.1-4.9-5.2-4.9-8.7
					C51,64.1,53,61,55.9,58.9z"/>
				<path fill="#FFFFFF" d="M24.6,79.8c-0.2,0-0.4,0.1-0.5,0.1c-0.1,0.1-0.3,0.2-0.4,0.3h0c-0.1-0.3-0.4-0.5-0.8-0.5
					c-0.5,0-0.7,0.3-0.8,0.4h0l0-0.4h-0.7c0,0.2,0,0.5,0,0.9v1.9h0.8V81c0-0.1,0-0.2,0-0.2c0.1-0.1,0.2-0.3,0.4-0.3
					c0.3,0,0.4,0.2,0.4,0.6v1.5h0.8V81c0-0.1,0-0.2,0-0.2c0.1-0.2,0.2-0.3,0.4-0.3c0.3,0,0.4,0.2,0.4,0.6v1.5h0.8V81
					C25.5,80.2,25.1,79.8,24.6,79.8z"/>
				<path fill="#FFFFFF" d="M27.6,79.8c-0.9,0-1.5,0.6-1.5,1.5c0,0.9,0.6,1.4,1.4,1.4c0.7,0,1.5-0.5,1.5-1.5
					C29,80.4,28.5,79.8,27.6,79.8z M27.6,82c-0.4,0-0.6-0.4-0.6-0.8c0-0.4,0.2-0.8,0.6-0.8c0.4,0,0.5,0.4,0.5,0.8
					C28.2,81.7,28,82,27.6,82z"/>
				<path fill="#FFFFFF" d="M31.3,79.8c-0.5,0-0.7,0.3-0.9,0.4h0l0-0.4h-0.7c0,0.2,0,0.5,0,0.9v1.9h0.9V81c0-0.1,0-0.2,0-0.2
					c0.1-0.2,0.2-0.3,0.4-0.3c0.3,0,0.4,0.2,0.4,0.6v1.5h0.9V81C32.3,80.2,31.9,79.8,31.3,79.8z"/>
				<path fill="#FFFFFF" d="M34.4,79.8c-1,0-1.4,0.8-1.4,1.5c0,0.9,0.5,1.4,1.5,1.4c0.4,0,0.7-0.1,1-0.2l-0.1-0.6
					C35.1,82,34.9,82,34.6,82c-0.4,0-0.8-0.2-0.8-0.5h1.8c0-0.1,0-0.2,0-0.3C35.6,80.5,35.3,79.8,34.4,79.8z M33.8,80.9
					c0-0.2,0.2-0.6,0.5-0.6c0.4,0,0.5,0.3,0.5,0.6H33.8z"/>
				<path fill="#FFFFFF" d="M37.6,81.2c0,0.2-0.1,0.4-0.1,0.5h0c0-0.1-0.1-0.4-0.1-0.5l-0.4-1.4h-1l1,2.5c0,0.1,0,0.1,0,0.1
					c0,0,0,0.1,0,0.1c-0.1,0.1-0.2,0.3-0.4,0.3c-0.1,0.1-0.3,0.1-0.4,0.1l0.2,0.7c0.2,0,0.5-0.1,0.8-0.4c0.3-0.3,0.6-0.7,1-1.8
					l0.6-1.8h-0.9L37.6,81.2z"/>
				<path fill="#FFFFFF" d="M41,79.8c-0.4,0-0.7,0.2-0.8,0.4h0v-1.6h-0.9v3.2c0,0.3,0,0.6,0,0.8H40l0-0.4h0c0.2,0.3,0.5,0.4,0.8,0.4
					c0.6,0,1.3-0.5,1.3-1.5C42.2,80.3,41.7,79.8,41,79.8z M40.7,82c-0.2,0-0.4-0.2-0.5-0.4c0,0,0-0.1,0-0.2V81c0-0.1,0-0.1,0-0.2
					c0.1-0.2,0.3-0.4,0.5-0.4c0.4,0,0.6,0.3,0.6,0.8C41.3,81.7,41.1,82,40.7,82z"/>
				<path fill="#FFFFFF" d="M44.2,79.8c-0.9,0-1.5,0.6-1.5,1.5c0,0.9,0.6,1.4,1.4,1.4c0.7,0,1.5-0.5,1.5-1.5
					C45.6,80.4,45,79.8,44.2,79.8z M44.2,82c-0.4,0-0.6-0.4-0.6-0.8c0-0.4,0.2-0.8,0.6-0.8c0.4,0,0.5,0.4,0.5,0.8
					C44.7,81.7,44.5,82,44.2,82z"/>
				<path fill="#FFFFFF" d="M47.6,79.8c-0.9,0-1.5,0.6-1.5,1.5c0,0.9,0.6,1.4,1.4,1.4c0.7,0,1.5-0.5,1.5-1.5
					C49,80.4,48.4,79.8,47.6,79.8z M47.6,82c-0.4,0-0.6-0.4-0.6-0.8c0-0.4,0.2-0.8,0.6-0.8c0.4,0,0.5,0.4,0.5,0.8
					C48.1,81.7,47.9,82,47.6,82z"/>
				<path fill="#FFFFFF" d="M52.3,79.8h-1l-0.6,0.8c-0.1,0.1-0.1,0.2-0.2,0.3h0v-2.4h-0.9v4h0.9v-0.9l0.2-0.3l0.7,1.1h1.1L51.3,81
					L52.3,79.8z"/>
				<path fill="#FFFFFF" d="M54,79.8c-1,0-1.4,0.8-1.4,1.5c0,0.9,0.5,1.4,1.5,1.4c0.4,0,0.7-0.1,1-0.2L55,81.9
					C54.7,82,54.5,82,54.2,82c-0.4,0-0.8-0.2-0.8-0.5h1.8c0-0.1,0-0.2,0-0.3C55.2,80.5,54.9,79.8,54,79.8z M53.4,80.9
					c0-0.2,0.2-0.6,0.5-0.6c0.4,0,0.5,0.3,0.5,0.6H53.4z"/>
				<path fill="#FFFFFF" d="M56.7,80.4L56.7,80.4l-0.1-0.5h-0.7c0,0.2,0,0.5,0,0.9v1.8h0.9v-1.4c0-0.1,0-0.1,0-0.2
					c0.1-0.3,0.3-0.4,0.6-0.4c0.1,0,0.2,0,0.2,0v-0.8c-0.1,0-0.1,0-0.2,0C57.1,79.8,56.8,79.9,56.7,80.4z"/>
				<path fill="#FFFFFF" d="M59.4,80.9c-0.3-0.1-0.4-0.2-0.4-0.3c0-0.1,0.1-0.2,0.3-0.2c0.2,0,0.5,0.1,0.6,0.2l0.1-0.6
					c-0.2-0.1-0.5-0.2-0.8-0.2c-0.7,0-1.1,0.4-1.1,0.9c0,0.3,0.2,0.6,0.8,0.8c0.3,0.1,0.4,0.2,0.4,0.3c0,0.1-0.1,0.2-0.4,0.2
					c-0.3,0-0.6-0.1-0.7-0.2L58,82.5c0.2,0.1,0.5,0.2,0.9,0.2c0.8,0,1.2-0.4,1.2-0.9C60.1,81.4,59.9,81.1,59.4,80.9z"/>
				<path fill="#FFFFFF" d="M61.4,81.8c-0.3,0-0.5,0.2-0.5,0.5c0,0.3,0.2,0.5,0.5,0.5c0.3,0,0.5-0.2,0.5-0.5
					C61.9,82,61.7,81.8,61.4,81.8z"/>
				<path fill="#FFFFFF" d="M63.7,80.3c0.2,0,0.4,0.1,0.5,0.1l0.1-0.5c-0.2-0.1-0.4-0.1-0.7-0.1c-1,0-1.5,0.6-1.5,1.5
					c0,0.9,0.6,1.4,1.4,1.4c0.3,0,0.6-0.1,0.8-0.1L64.3,82c-0.1,0.1-0.3,0.1-0.5,0.1c-0.5,0-0.8-0.3-0.8-0.9
					C62.9,80.7,63.2,80.3,63.7,80.3z"/>
				<path fill="#FFFFFF" d="M66.2,79.7c-0.8,0-1.4,0.6-1.4,1.5c0,0.9,0.6,1.4,1.4,1.4c0.7,0,1.4-0.5,1.4-1.5
					C67.6,80.3,67,79.7,66.2,79.7z M66.2,82.1c-0.4,0-0.7-0.4-0.7-0.9c0-0.5,0.2-0.9,0.7-0.9c0.5,0,0.7,0.5,0.7,0.9
					C66.9,81.7,66.6,82.1,66.2,82.1z"/>
				<path fill="#FFFFFF" d="M71.4,79.7c-0.2,0-0.4,0.1-0.6,0.2c-0.1,0.1-0.2,0.2-0.3,0.3h0c-0.1-0.3-0.4-0.5-0.8-0.5
					c-0.5,0-0.7,0.3-0.8,0.5h0l0-0.4h-0.6c0,0.2,0,0.5,0,0.8v1.9H69v-1.6c0-0.1,0-0.2,0-0.2c0.1-0.2,0.2-0.4,0.5-0.4
					c0.3,0,0.5,0.3,0.5,0.7v1.6h0.7v-1.6c0-0.1,0-0.2,0-0.2c0.1-0.2,0.2-0.4,0.5-0.4c0.3,0,0.5,0.3,0.5,0.7v1.5h0.7v-1.6
					C72.3,80,71.9,79.7,71.4,79.7z"/>
				<path fill="#FFFFFF" d="M49.6,45.8l0,3.7c0,0.4,0.3,0.7,0.7,0.7c0.4,0,0.7-0.3,0.7-0.7l0-0.3h0l0-3.4l3.7,0
					c0.4,0,0.7-0.3,0.7-0.7c0-0.4-0.3-0.7-0.7-0.7l-0.3,0v0l-3.4,0l0-3.7c0-0.4-0.3-0.7-0.7-0.7c-0.4,0-0.7,0.3-0.7,0.7l0,0.3h0
					l0,3.4l-3.7,0c-0.4,0-0.7,0.3-0.7,0.7c0,0.4,0.3,0.7,0.7,0.7l0.3,0v0L49.6,45.8z"/>
			</g>
		</g>
	</g>
</g>
<g id="LABELS">
</g>
</svg>
