<?xml version="1.0" encoding="utf-8"?>
<!-- Generator: Adobe Illustrator 18.1.1, SVG Export Plug-In . SVG Version: 6.00 Build 0)  -->
<svg version="1.1" xmlns="http://www.w3.org/2000/svg" xmlns:xlink="http://www.w3.org/1999/xlink" x="0px" y="0px"
	 viewBox="0 0 100 100" enable-background="new 0 0 100 100" xml:space="preserve">
<g id="GUIDES">
</g>
<g id="ICONS_-_BLACK" display="none">
	<g display="inline">
		<g>
			<g>
				<path d="M78.1,19.7H21.9c-0.7,0-1.3,0.6-1.3,1.3v56.2c0,0.7,0.6,1.3,1.3,1.3h19.9c0.7,0,1.3-0.6,1.3-1.3S42.5,76,41.7,76H23.2
					V37.4h53.7V76H58.3h0v0c-0.7,0-1.3,0.6-1.3,1.3s0.6,1.3,1.3,1.3v0h0h19.8c0.7,0,1.3-0.6,1.3-1.3V21
					C79.4,20.3,78.8,19.7,78.1,19.7z M76.8,34.8H23.2V22.3h53.7V34.8z"/>
				<circle cx="29.4" cy="28.6" r="2.9"/>
				<circle cx="37.7" cy="28.6" r="2.9"/>
				<path d="M45.9,31.4c1.6,0,2.9-1.3,2.9-2.8c0-1.6-1.3-2.9-2.9-2.9c-1.6,0-2.9,1.3-2.9,2.9C43,30.1,44.3,31.4,45.9,31.4z"/>
				<path d="M51.3,58l8.6,8.6c0.5,0.5,1.3,0.5,1.8,0c0.3-0.3,0.4-0.6,0.4-0.9c0-0.3-0.1-0.7-0.4-0.9L50.9,53.9
					c-0.5-0.5-1.3-0.5-1.8,0L38.3,64.8c-0.5,0.5-0.5,1.3,0,1.8c0.5,0.5,1.3,0.5,1.8,0l8.6-8.6l0,10.3l0,20.3c0,0.2,0.1,0.4,0.2,0.6
					c0.2,0.4,0.6,0.7,1.1,0.7c0.5,0,0.9-0.3,1.1-0.7c0.1-0.2,0.2-0.4,0.2-0.6l0-20.3L51.3,58z"/>
			</g>
		</g>
	</g>
</g>
<g id="ICONS_-_DARK_PURPLE" display="none">
	<g display="inline">
		<g>
			<g>
				<path fill="#4F2556" d="M78.1,19.7H21.9c-0.7,0-1.3,0.6-1.3,1.3v56.2c0,0.7,0.6,1.3,1.3,1.3h19.9c0.7,0,1.3-0.6,1.3-1.3
					S42.5,76,41.7,76H23.2V37.4h53.7V76H58.3h0v0c-0.7,0-1.3,0.6-1.3,1.3s0.6,1.3,1.3,1.3v0h0h19.8c0.7,0,1.3-0.6,1.3-1.3V21
					C79.4,20.3,78.8,19.7,78.1,19.7z M76.8,34.8H23.2V22.3h53.7V34.8z"/>
				<circle fill="#4F2556" cx="29.4" cy="28.6" r="2.9"/>
				<circle fill="#4F2556" cx="37.7" cy="28.6" r="2.9"/>
				<path fill="#4F2556" d="M45.9,31.4c1.6,0,2.9-1.3,2.9-2.8c0-1.6-1.3-2.9-2.9-2.9c-1.6,0-2.9,1.3-2.9,2.9
					C43,30.1,44.3,31.4,45.9,31.4z"/>
				<path fill="#4F2556" d="M51.3,58l8.6,8.6c0.5,0.5,1.3,0.5,1.8,0c0.3-0.3,0.4-0.6,0.4-0.9c0-0.3-0.1-0.7-0.4-0.9L50.9,53.9
					c-0.5-0.5-1.3-0.5-1.8,0L38.3,64.8c-0.5,0.5-0.5,1.3,0,1.8c0.5,0.5,1.3,0.5,1.8,0l8.6-8.6l0,10.3l0,20.3c0,0.2,0.1,0.4,0.2,0.6
					c0.2,0.4,0.6,0.7,1.1,0.7c0.5,0,0.9-0.3,1.1-0.7c0.1-0.2,0.2-0.4,0.2-0.6l0-20.3L51.3,58z"/>
			</g>
		</g>
	</g>
</g>
<g id="ICONS_-_WARM_GREY" display="none">
	<g display="inline">
		<g>
			<g>
				<path fill="#534C63" d="M78.1,19.7H21.9c-0.7,0-1.3,0.6-1.3,1.3v56.2c0,0.7,0.6,1.3,1.3,1.3h19.9c0.7,0,1.3-0.6,1.3-1.3
					S42.5,76,41.7,76H23.2V37.4h53.7V76H58.3h0v0c-0.7,0-1.3,0.6-1.3,1.3s0.6,1.3,1.3,1.3v0h0h19.8c0.7,0,1.3-0.6,1.3-1.3V21
					C79.4,20.3,78.8,19.7,78.1,19.7z M76.8,34.8H23.2V22.3h53.7V34.8z"/>
				<circle fill="#534C63" cx="29.4" cy="28.6" r="2.9"/>
				<circle fill="#534C63" cx="37.7" cy="28.6" r="2.9"/>
				<path fill="#534C63" d="M45.9,31.4c1.6,0,2.9-1.3,2.9-2.8c0-1.6-1.3-2.9-2.9-2.9c-1.6,0-2.9,1.3-2.9,2.9
					C43,30.1,44.3,31.4,45.9,31.4z"/>
				<path fill="#534C63" d="M51.3,58l8.6,8.6c0.5,0.5,1.3,0.5,1.8,0c0.3-0.3,0.4-0.6,0.4-0.9c0-0.3-0.1-0.7-0.4-0.9L50.9,53.9
					c-0.5-0.5-1.3-0.5-1.8,0L38.3,64.8c-0.5,0.5-0.5,1.3,0,1.8c0.5,0.5,1.3,0.5,1.8,0l8.6-8.6l0,10.3l0,20.3c0,0.2,0.1,0.4,0.2,0.6
					c0.2,0.4,0.6,0.7,1.1,0.7c0.5,0,0.9-0.3,1.1-0.7c0.1-0.2,0.2-0.4,0.2-0.6l0-20.3L51.3,58z"/>
			</g>
		</g>
	</g>
</g>
<g id="ICONS_-_SKRILL_TEAL" display="none">
	<g display="inline">
		<g>
			<g>
				<path fill="#41AEB5" d="M78.1,19.7H21.9c-0.7,0-1.3,0.6-1.3,1.3v56.2c0,0.7,0.6,1.3,1.3,1.3h19.9c0.7,0,1.3-0.6,1.3-1.3
					S42.5,76,41.7,76H23.2V37.4h53.7V76H58.3h0v0c-0.7,0-1.3,0.6-1.3,1.3s0.6,1.3,1.3,1.3v0h0h19.8c0.7,0,1.3-0.6,1.3-1.3V21
					C79.4,20.3,78.8,19.7,78.1,19.7z M76.8,34.8H23.2V22.3h53.7V34.8z"/>
				<circle fill="#41AEB5" cx="29.4" cy="28.6" r="2.9"/>
				<circle fill="#41AEB5" cx="37.7" cy="28.6" r="2.9"/>
				<path fill="#41AEB5" d="M45.9,31.4c1.6,0,2.9-1.3,2.9-2.8c0-1.6-1.3-2.9-2.9-2.9c-1.6,0-2.9,1.3-2.9,2.9
					C43,30.1,44.3,31.4,45.9,31.4z"/>
				<path fill="#41AEB5" d="M51.3,58l8.6,8.6c0.5,0.5,1.3,0.5,1.8,0c0.3-0.3,0.4-0.6,0.4-0.9c0-0.3-0.1-0.7-0.4-0.9L50.9,53.9
					c-0.5-0.5-1.3-0.5-1.8,0L38.3,64.8c-0.5,0.5-0.5,1.3,0,1.8c0.5,0.5,1.3,0.5,1.8,0l8.6-8.6l0,10.3l0,20.3c0,0.2,0.1,0.4,0.2,0.6
					c0.2,0.4,0.6,0.7,1.1,0.7c0.5,0,0.9-0.3,1.1-0.7c0.1-0.2,0.2-0.4,0.2-0.6l0-20.3L51.3,58z"/>
			</g>
		</g>
	</g>
</g>
<g id="ICONS_-_SKRILL_PURPLE">
	<g>
		<g>
			<g>
				<path fill="#811E68" d="M78.1,19.7H21.9c-0.7,0-1.3,0.6-1.3,1.3v56.2c0,0.7,0.6,1.3,1.3,1.3h19.9c0.7,0,1.3-0.6,1.3-1.3
					S42.5,76,41.7,76H23.2V37.4h53.7V76H58.3h0v0c-0.7,0-1.3,0.6-1.3,1.3s0.6,1.3,1.3,1.3v0h0h19.8c0.7,0,1.3-0.6,1.3-1.3V21
					C79.4,20.3,78.8,19.7,78.1,19.7z M76.8,34.8H23.2V22.3h53.7V34.8z"/>
				<circle fill="#811E68" cx="29.4" cy="28.6" r="2.9"/>
				<circle fill="#811E68" cx="37.7" cy="28.6" r="2.9"/>
				<path fill="#811E68" d="M45.9,31.4c1.6,0,2.9-1.3,2.9-2.8c0-1.6-1.3-2.9-2.9-2.9c-1.6,0-2.9,1.3-2.9,2.9
					C43,30.1,44.3,31.4,45.9,31.4z"/>
				<path fill="#811E68" d="M51.3,58l8.6,8.6c0.5,0.5,1.3,0.5,1.8,0c0.3-0.3,0.4-0.6,0.4-0.9c0-0.3-0.1-0.7-0.4-0.9L50.9,53.9
					c-0.5-0.5-1.3-0.5-1.8,0L38.3,64.8c-0.5,0.5-0.5,1.3,0,1.8c0.5,0.5,1.3,0.5,1.8,0l8.6-8.6l0,10.3l0,20.3c0,0.2,0.1,0.4,0.2,0.6
					c0.2,0.4,0.6,0.7,1.1,0.7c0.5,0,0.9-0.3,1.1-0.7c0.1-0.2,0.2-0.4,0.2-0.6l0-20.3L51.3,58z"/>
			</g>
		</g>
	</g>
</g>
<g id="ICONS_-_WHITE" display="none">
	<g display="inline">
		<g>
			<g>
				<path fill="#FFFFFF" d="M78.1,19.7H21.9c-0.7,0-1.3,0.6-1.3,1.3v56.2c0,0.7,0.6,1.3,1.3,1.3h19.9c0.7,0,1.3-0.6,1.3-1.3
					S42.5,76,41.7,76H23.2V37.4h53.7V76H58.3h0v0c-0.7,0-1.3,0.6-1.3,1.3s0.6,1.3,1.3,1.3v0h0h19.8c0.7,0,1.3-0.6,1.3-1.3V21
					C79.4,20.3,78.8,19.7,78.1,19.7z M76.8,34.8H23.2V22.3h53.7V34.8z"/>
				<circle fill="#FFFFFF" cx="29.4" cy="28.6" r="2.9"/>
				<circle fill="#FFFFFF" cx="37.7" cy="28.6" r="2.9"/>
				<path fill="#FFFFFF" d="M45.9,31.4c1.6,0,2.9-1.3,2.9-2.8c0-1.6-1.3-2.9-2.9-2.9c-1.6,0-2.9,1.3-2.9,2.9
					C43,30.1,44.3,31.4,45.9,31.4z"/>
				<path fill="#FFFFFF" d="M51.3,58l8.6,8.6c0.5,0.5,1.3,0.5,1.8,0c0.3-0.3,0.4-0.6,0.4-0.9c0-0.3-0.1-0.7-0.4-0.9L50.9,53.9
					c-0.5-0.5-1.3-0.5-1.8,0L38.3,64.8c-0.5,0.5-0.5,1.3,0,1.8c0.5,0.5,1.3,0.5,1.8,0l8.6-8.6l0,10.3l0,20.3c0,0.2,0.1,0.4,0.2,0.6
					c0.2,0.4,0.6,0.7,1.1,0.7c0.5,0,0.9-0.3,1.1-0.7c0.1-0.2,0.2-0.4,0.2-0.6l0-20.3L51.3,58z"/>
			</g>
		</g>
	</g>
</g>
<g id="LABELS">
</g>
</svg>
