<?xml version="1.0" encoding="utf-8"?>
<!-- Generator: Adobe Illustrator 18.1.1, SVG Export Plug-In . SVG Version: 6.00 Build 0)  -->
<svg version="1.1" xmlns="http://www.w3.org/2000/svg" xmlns:xlink="http://www.w3.org/1999/xlink" x="0px" y="0px"
	 viewBox="0 0 100 100" enable-background="new 0 0 100 100" xml:space="preserve">
<g id="GUIDES">
</g>
<g id="ICONS_-_BLACK" display="none">
	<g display="inline">
		<g>
			<g>
				<path d="M78.1,20.8H21.9c-4,0-7.3,3.3-7.3,7.3v12c0,4,3.3,7.3,7.3,7.3h13.4l5.3,8.6l-0.4-0.2c-1.2-0.5-2.6-0.7-3.5-0.7
					c-2.3,0-4.8,0.6-6.2,1.5c-0.2,0.1-0.4,0.3-0.5,0.6c-1.3,2.8-0.1,6.2,2.7,7.5l23.1,10.9c2.2,1,4.4,1.5,6.6,1.5h0
					c5.6,0,11.1-3.3,14.3-8.7c3.2-5.4,3.4-11.8,0.5-17.1l-2.2-4.1h3.2c4,0,7.3-3.3,7.3-7.3v-12C85.4,24.1,82.1,20.8,78.1,20.8z
					 M74.4,67.2c-2.7,4.6-7.3,7.4-12,7.4c0,0,0,0,0,0c-1.9,0-3.7-0.4-5.5-1.3L33.7,62.4c-1.4-0.7-2.1-2.3-1.6-3.7
					c1.1-0.6,2.9-0.9,4.5-0.9c1,0,1.9,0.1,2.4,0.4l4.4,2.1c0.5,0.2,1.1,0.1,1.5-0.3c0.4-0.4,0.4-1.1,0.1-1.5L31.9,37
					c-0.9-1.4-0.4-3.3,1-4.2c0.5-0.3,1-0.5,1.6-0.5c1.1,0,2,0.5,2.6,1.4l6.1,9.9c0.3,0.5,0.8,0.7,1.3,0.6c0.5-0.1,0.9-0.5,1-1
					c0.2-0.8,0.7-1.5,1.4-2c1.3-0.8,3-0.5,3.9,0.6c0.3,0.4,0.9,0.6,1.4,0.4c0.5-0.2,0.9-0.6,0.9-1.1c0.1-1,0.6-1.9,1.4-2.4
					c1.3-0.8,3-0.5,3.9,0.6c0.3,0.4,0.9,0.6,1.4,0.4c0.5-0.2,0.9-0.6,0.9-1.1c0.1-1,0.6-1.9,1.4-2.4c0.5-0.3,1.1-0.5,1.7-0.5
					c1.1,0,2,0.5,2.5,1.4l8.4,15.4C77.3,57.1,77.1,62.6,74.4,67.2z M82.8,40.1c0,2.6-2.1,4.7-4.7,4.7h-4.7L68.7,36
					c-0.9-1.7-2.8-2.7-4.8-2.7c-1.1,0-2.1,0.3-3,0.9c-0.9,0.6-1.6,1.4-2.1,2.3c-1.7-0.9-3.9-0.8-5.6,0.2c-0.9,0.6-1.6,1.4-2.1,2.3
					c-1.7-0.9-3.9-0.8-5.6,0.2c-0.5,0.3-1,0.7-1.4,1.2l-4.9-7.9c-1-1.7-2.8-2.7-4.8-2.7c-1,0-2.1,0.3-3,0.8
					c-2.6,1.6-3.5,5.1-1.8,7.8l3.9,6.4H21.9c-2.6,0-4.7-2.1-4.7-4.7v-12c0-2.6,2.1-4.7,4.7-4.7h56.2c2.6,0,4.7,2.1,4.7,4.7V40.1z"/>
			</g>
		</g>
	</g>
</g>
<g id="ICONS_-_DARK_PURPLE" display="none">
	<g display="inline">
		<g>
			<g>
				<path fill="#4F2556" d="M78.1,20.8H21.9c-4,0-7.3,3.3-7.3,7.3v12c0,4,3.3,7.3,7.3,7.3h13.4l5.3,8.6l-0.4-0.2
					c-1.2-0.5-2.6-0.7-3.5-0.7c-2.3,0-4.8,0.6-6.2,1.5c-0.2,0.1-0.4,0.3-0.5,0.6c-1.3,2.8-0.1,6.2,2.7,7.5l23.1,10.9
					c2.2,1,4.4,1.5,6.6,1.5h0c5.6,0,11.1-3.3,14.3-8.7c3.2-5.4,3.4-11.8,0.5-17.1l-2.2-4.1h3.2c4,0,7.3-3.3,7.3-7.3v-12
					C85.4,24.1,82.1,20.8,78.1,20.8z M74.4,67.2c-2.7,4.6-7.3,7.4-12,7.4c0,0,0,0,0,0c-1.9,0-3.7-0.4-5.5-1.3L33.7,62.4
					c-1.4-0.7-2.1-2.3-1.6-3.7c1.1-0.6,2.9-0.9,4.5-0.9c1,0,1.9,0.1,2.4,0.4l4.4,2.1c0.5,0.2,1.1,0.1,1.5-0.3
					c0.4-0.4,0.4-1.1,0.1-1.5L31.9,37c-0.9-1.4-0.4-3.3,1-4.2c0.5-0.3,1-0.5,1.6-0.5c1.1,0,2,0.5,2.6,1.4l6.1,9.9
					c0.3,0.5,0.8,0.7,1.3,0.6c0.5-0.1,0.9-0.5,1-1c0.2-0.8,0.7-1.5,1.4-2c1.3-0.8,3-0.5,3.9,0.6c0.3,0.4,0.9,0.6,1.4,0.4
					c0.5-0.2,0.9-0.6,0.9-1.1c0.1-1,0.6-1.9,1.4-2.4c1.3-0.8,3-0.5,3.9,0.6c0.3,0.4,0.9,0.6,1.4,0.4c0.5-0.2,0.9-0.6,0.9-1.1
					c0.1-1,0.6-1.9,1.4-2.4c0.5-0.3,1.1-0.5,1.7-0.5c1.1,0,2,0.5,2.5,1.4l8.4,15.4C77.3,57.1,77.1,62.6,74.4,67.2z M82.8,40.1
					c0,2.6-2.1,4.7-4.7,4.7h-4.7L68.7,36c-0.9-1.7-2.8-2.7-4.8-2.7c-1.1,0-2.1,0.3-3,0.9c-0.9,0.6-1.6,1.4-2.1,2.3
					c-1.7-0.9-3.9-0.8-5.6,0.2c-0.9,0.6-1.6,1.4-2.1,2.3c-1.7-0.9-3.9-0.8-5.6,0.2c-0.5,0.3-1,0.7-1.4,1.2l-4.9-7.9
					c-1-1.7-2.8-2.7-4.8-2.7c-1,0-2.1,0.3-3,0.8c-2.6,1.6-3.5,5.1-1.8,7.8l3.9,6.4H21.9c-2.6,0-4.7-2.1-4.7-4.7v-12
					c0-2.6,2.1-4.7,4.7-4.7h56.2c2.6,0,4.7,2.1,4.7,4.7V40.1z"/>
			</g>
		</g>
	</g>
</g>
<g id="ICONS_-_WARM_GREY" display="none">
	<g display="inline">
		<g>
			<g>
				<path fill="#534C63" d="M78.1,20.8H21.9c-4,0-7.3,3.3-7.3,7.3v12c0,4,3.3,7.3,7.3,7.3h13.4l5.3,8.6l-0.4-0.2
					c-1.2-0.5-2.6-0.7-3.5-0.7c-2.3,0-4.8,0.6-6.2,1.5c-0.2,0.1-0.4,0.3-0.5,0.6c-1.3,2.8-0.1,6.2,2.7,7.5l23.1,10.9
					c2.2,1,4.4,1.5,6.6,1.5h0c5.6,0,11.1-3.3,14.3-8.7c3.2-5.4,3.4-11.8,0.5-17.1l-2.2-4.1h3.2c4,0,7.3-3.3,7.3-7.3v-12
					C85.4,24.1,82.1,20.8,78.1,20.8z M74.4,67.2c-2.7,4.6-7.3,7.4-12,7.4c0,0,0,0,0,0c-1.9,0-3.7-0.4-5.5-1.3L33.7,62.4
					c-1.4-0.7-2.1-2.3-1.6-3.7c1.1-0.6,2.9-0.9,4.5-0.9c1,0,1.9,0.1,2.4,0.4l4.4,2.1c0.5,0.2,1.1,0.1,1.5-0.3
					c0.4-0.4,0.4-1.1,0.1-1.5L31.9,37c-0.9-1.4-0.4-3.3,1-4.2c0.5-0.3,1-0.5,1.6-0.5c1.1,0,2,0.5,2.6,1.4l6.1,9.9
					c0.3,0.5,0.8,0.7,1.3,0.6c0.5-0.1,0.9-0.5,1-1c0.2-0.8,0.7-1.5,1.4-2c1.3-0.8,3-0.5,3.9,0.6c0.3,0.4,0.9,0.6,1.4,0.4
					c0.5-0.2,0.9-0.6,0.9-1.1c0.1-1,0.6-1.9,1.4-2.4c1.3-0.8,3-0.5,3.9,0.6c0.3,0.4,0.9,0.6,1.4,0.4c0.5-0.2,0.9-0.6,0.9-1.1
					c0.1-1,0.6-1.9,1.4-2.4c0.5-0.3,1.1-0.5,1.7-0.5c1.1,0,2,0.5,2.5,1.4l8.4,15.4C77.3,57.1,77.1,62.6,74.4,67.2z M82.8,40.1
					c0,2.6-2.1,4.7-4.7,4.7h-4.7L68.7,36c-0.9-1.7-2.8-2.7-4.8-2.7c-1.1,0-2.1,0.3-3,0.9c-0.9,0.6-1.6,1.4-2.1,2.3
					c-1.7-0.9-3.9-0.8-5.6,0.2c-0.9,0.6-1.6,1.4-2.1,2.3c-1.7-0.9-3.9-0.8-5.6,0.2c-0.5,0.3-1,0.7-1.4,1.2l-4.9-7.9
					c-1-1.7-2.8-2.7-4.8-2.7c-1,0-2.1,0.3-3,0.8c-2.6,1.6-3.5,5.1-1.8,7.8l3.9,6.4H21.9c-2.6,0-4.7-2.1-4.7-4.7v-12
					c0-2.6,2.1-4.7,4.7-4.7h56.2c2.6,0,4.7,2.1,4.7,4.7V40.1z"/>
			</g>
		</g>
	</g>
</g>
<g id="ICONS_-_SKRILL_TEAL" display="none">
	<g display="inline">
		<g>
			<g>
				<path fill="#41AEB5" d="M78.1,20.8H21.9c-4,0-7.3,3.3-7.3,7.3v12c0,4,3.3,7.3,7.3,7.3h13.4l5.3,8.6l-0.4-0.2
					c-1.2-0.5-2.6-0.7-3.5-0.7c-2.3,0-4.8,0.6-6.2,1.5c-0.2,0.1-0.4,0.3-0.5,0.6c-1.3,2.8-0.1,6.2,2.7,7.5l23.1,10.9
					c2.2,1,4.4,1.5,6.6,1.5h0c5.6,0,11.1-3.3,14.3-8.7c3.2-5.4,3.4-11.8,0.5-17.1l-2.2-4.1h3.2c4,0,7.3-3.3,7.3-7.3v-12
					C85.4,24.1,82.1,20.8,78.1,20.8z M74.4,67.2c-2.7,4.6-7.3,7.4-12,7.4c0,0,0,0,0,0c-1.9,0-3.7-0.4-5.5-1.3L33.7,62.4
					c-1.4-0.7-2.1-2.3-1.6-3.7c1.1-0.6,2.9-0.9,4.5-0.9c1,0,1.9,0.1,2.4,0.4l4.4,2.1c0.5,0.2,1.1,0.1,1.5-0.3
					c0.4-0.4,0.4-1.1,0.1-1.5L31.9,37c-0.9-1.4-0.4-3.3,1-4.2c0.5-0.3,1-0.5,1.6-0.5c1.1,0,2,0.5,2.6,1.4l6.1,9.9
					c0.3,0.5,0.8,0.7,1.3,0.6c0.5-0.1,0.9-0.5,1-1c0.2-0.8,0.7-1.5,1.4-2c1.3-0.8,3-0.5,3.9,0.6c0.3,0.4,0.9,0.6,1.4,0.4
					c0.5-0.2,0.9-0.6,0.9-1.1c0.1-1,0.6-1.9,1.4-2.4c1.3-0.8,3-0.5,3.9,0.6c0.3,0.4,0.9,0.6,1.4,0.4c0.5-0.2,0.9-0.6,0.9-1.1
					c0.1-1,0.6-1.9,1.4-2.4c0.5-0.3,1.1-0.5,1.7-0.5c1.1,0,2,0.5,2.5,1.4l8.4,15.4C77.3,57.1,77.1,62.6,74.4,67.2z M82.8,40.1
					c0,2.6-2.1,4.7-4.7,4.7h-4.7L68.7,36c-0.9-1.7-2.8-2.7-4.8-2.7c-1.1,0-2.1,0.3-3,0.9c-0.9,0.6-1.6,1.4-2.1,2.3
					c-1.7-0.9-3.9-0.8-5.6,0.2c-0.9,0.6-1.6,1.4-2.1,2.3c-1.7-0.9-3.9-0.8-5.6,0.2c-0.5,0.3-1,0.7-1.4,1.2l-4.9-7.9
					c-1-1.7-2.8-2.7-4.8-2.7c-1,0-2.1,0.3-3,0.8c-2.6,1.6-3.5,5.1-1.8,7.8l3.9,6.4H21.9c-2.6,0-4.7-2.1-4.7-4.7v-12
					c0-2.6,2.1-4.7,4.7-4.7h56.2c2.6,0,4.7,2.1,4.7,4.7V40.1z"/>
			</g>
		</g>
	</g>
</g>
<g id="ICONS_-_SKRILL_PURPLE">
	<g>
		<g>
			<g>
				<path fill="#811E68" d="M78.1,20.8H21.9c-4,0-7.3,3.3-7.3,7.3v12c0,4,3.3,7.3,7.3,7.3h13.4l5.3,8.6l-0.4-0.2
					c-1.2-0.5-2.6-0.7-3.5-0.7c-2.3,0-4.8,0.6-6.2,1.5c-0.2,0.1-0.4,0.3-0.5,0.6c-1.3,2.8-0.1,6.2,2.7,7.5l23.1,10.9
					c2.2,1,4.4,1.5,6.6,1.5h0c5.6,0,11.1-3.3,14.3-8.7c3.2-5.4,3.4-11.8,0.5-17.1l-2.2-4.1h3.2c4,0,7.3-3.3,7.3-7.3v-12
					C85.4,24.1,82.1,20.8,78.1,20.8z M74.4,67.2c-2.7,4.6-7.3,7.4-12,7.4c0,0,0,0,0,0c-1.9,0-3.7-0.4-5.5-1.3L33.7,62.4
					c-1.4-0.7-2.1-2.3-1.6-3.7c1.1-0.6,2.9-0.9,4.5-0.9c1,0,1.9,0.1,2.4,0.4l4.4,2.1c0.5,0.2,1.1,0.1,1.5-0.3
					c0.4-0.4,0.4-1.1,0.1-1.5L31.9,37c-0.9-1.4-0.4-3.3,1-4.2c0.5-0.3,1-0.5,1.6-0.5c1.1,0,2,0.5,2.6,1.4l6.1,9.9
					c0.3,0.5,0.8,0.7,1.3,0.6c0.5-0.1,0.9-0.5,1-1c0.2-0.8,0.7-1.5,1.4-2c1.3-0.8,3-0.5,3.9,0.6c0.3,0.4,0.9,0.6,1.4,0.4
					c0.5-0.2,0.9-0.6,0.9-1.1c0.1-1,0.6-1.9,1.4-2.4c1.3-0.8,3-0.5,3.9,0.6c0.3,0.4,0.9,0.6,1.4,0.4c0.5-0.2,0.9-0.6,0.9-1.1
					c0.1-1,0.6-1.9,1.4-2.4c0.5-0.3,1.1-0.5,1.7-0.5c1.1,0,2,0.5,2.5,1.4l8.4,15.4C77.3,57.1,77.1,62.6,74.4,67.2z M82.8,40.1
					c0,2.6-2.1,4.7-4.7,4.7h-4.7L68.7,36c-0.9-1.7-2.8-2.7-4.8-2.7c-1.1,0-2.1,0.3-3,0.9c-0.9,0.6-1.6,1.4-2.1,2.3
					c-1.7-0.9-3.9-0.8-5.6,0.2c-0.9,0.6-1.6,1.4-2.1,2.3c-1.7-0.9-3.9-0.8-5.6,0.2c-0.5,0.3-1,0.7-1.4,1.2l-4.9-7.9
					c-1-1.7-2.8-2.7-4.8-2.7c-1,0-2.1,0.3-3,0.8c-2.6,1.6-3.5,5.1-1.8,7.8l3.9,6.4H21.9c-2.6,0-4.7-2.1-4.7-4.7v-12
					c0-2.6,2.1-4.7,4.7-4.7h56.2c2.6,0,4.7,2.1,4.7,4.7V40.1z"/>
			</g>
		</g>
	</g>
</g>
<g id="ICONS_-_WHITE" display="none">
	<g display="inline">
		<g>
			<g>
				<path fill="#FFFFFF" d="M78.1,20.8H21.9c-4,0-7.3,3.3-7.3,7.3v12c0,4,3.3,7.3,7.3,7.3h13.4l5.3,8.6l-0.4-0.2
					c-1.2-0.5-2.6-0.7-3.5-0.7c-2.3,0-4.8,0.6-6.2,1.5c-0.2,0.1-0.4,0.3-0.5,0.6c-1.3,2.8-0.1,6.2,2.7,7.5l23.1,10.9
					c2.2,1,4.4,1.5,6.6,1.5h0c5.6,0,11.1-3.3,14.3-8.7c3.2-5.4,3.4-11.8,0.5-17.1l-2.2-4.1h3.2c4,0,7.3-3.3,7.3-7.3v-12
					C85.4,24.1,82.1,20.8,78.1,20.8z M74.4,67.2c-2.7,4.6-7.3,7.4-12,7.4c0,0,0,0,0,0c-1.9,0-3.7-0.4-5.5-1.3L33.7,62.4
					c-1.4-0.7-2.1-2.3-1.6-3.7c1.1-0.6,2.9-0.9,4.5-0.9c1,0,1.9,0.1,2.4,0.4l4.4,2.1c0.5,0.2,1.1,0.1,1.5-0.3
					c0.4-0.4,0.4-1.1,0.1-1.5L31.9,37c-0.9-1.4-0.4-3.3,1-4.2c0.5-0.3,1-0.5,1.6-0.5c1.1,0,2,0.5,2.6,1.4l6.1,9.9
					c0.3,0.5,0.8,0.7,1.3,0.6c0.5-0.1,0.9-0.5,1-1c0.2-0.8,0.7-1.5,1.4-2c1.3-0.8,3-0.5,3.9,0.6c0.3,0.4,0.9,0.6,1.4,0.4
					c0.5-0.2,0.9-0.6,0.9-1.1c0.1-1,0.6-1.9,1.4-2.4c1.3-0.8,3-0.5,3.9,0.6c0.3,0.4,0.9,0.6,1.4,0.4c0.5-0.2,0.9-0.6,0.9-1.1
					c0.1-1,0.6-1.9,1.4-2.4c0.5-0.3,1.1-0.5,1.7-0.5c1.1,0,2,0.5,2.5,1.4l8.4,15.4C77.3,57.1,77.1,62.6,74.4,67.2z M82.8,40.1
					c0,2.6-2.1,4.7-4.7,4.7h-4.7L68.7,36c-0.9-1.7-2.8-2.7-4.8-2.7c-1.1,0-2.1,0.3-3,0.9c-0.9,0.6-1.6,1.4-2.1,2.3
					c-1.7-0.9-3.9-0.8-5.6,0.2c-0.9,0.6-1.6,1.4-2.1,2.3c-1.7-0.9-3.9-0.8-5.6,0.2c-0.5,0.3-1,0.7-1.4,1.2l-4.9-7.9
					c-1-1.7-2.8-2.7-4.8-2.7c-1,0-2.1,0.3-3,0.8c-2.6,1.6-3.5,5.1-1.8,7.8l3.9,6.4H21.9c-2.6,0-4.7-2.1-4.7-4.7v-12
					c0-2.6,2.1-4.7,4.7-4.7h56.2c2.6,0,4.7,2.1,4.7,4.7V40.1z"/>
			</g>
		</g>
	</g>
</g>
<g id="LABELS">
</g>
</svg>
