<?xml version="1.0" encoding="utf-8"?>
<!-- Generator: Adobe Illustrator 18.1.1, SVG Export Plug-In . SVG Version: 6.00 Build 0)  -->
<svg version="1.1" xmlns="http://www.w3.org/2000/svg" xmlns:xlink="http://www.w3.org/1999/xlink" x="0px" y="0px"
	 viewBox="0 0 100 100" enable-background="new 0 0 100 100" xml:space="preserve">
<g id="GUIDES">
</g>
<g id="ICONS_-_BLACK" display="none">
	<g display="inline">
		<g>
			<g>
				<path d="M25.8,63.5c0.1,0,0.1,0,0.2,0l0.1,0c0.1,0,0.1,0,0.2,0c0.7,0,1.3-0.6,1.3-1.3V42.7c0-13.5,11.1-24.5,24.8-24.5
					s24.8,11,24.8,24.5v19.5c0,0.1,0,0.2,0.1,0.4l0,0.3c-0.1,0.2-0.1,0.3-0.1,0.4c0,0.3,0,8-10.3,9.3l-0.5-0.3
					c-0.7-2.2-2.7-3.7-5-3.7c-2.9,0-5.2,2.3-5.2,5.2c0,2.8,2.4,5.2,5.2,5.2c2.2,0,4.2-1.4,5-3.4l0.4-0.3
					c11.2-1.3,12.8-9.1,13.1-11.5l0.4-0.4c7-0.5,12.5-6,12.5-12.5c0-6.6-5.6-12.1-12.9-12.5l-0.4-0.4c-2.3-13-13.7-22.4-27-22.4
					c-13.4,0-24.8,9.4-27.1,22.5L25,38.5c-7.2,0.4-12.9,5.9-12.9,12.5C12.1,57.9,18.2,63.5,25.8,63.5z M61.5,76.5
					c-1.5,0-2.6-1.2-2.6-2.6c0-1.4,1.2-2.6,2.6-2.6s2.6,1.2,2.6,2.6C64.2,75.3,63,76.5,61.5,76.5z M80,41.5l0.5-0.4l0,0
					c5.6,0.6,9.8,4.8,9.8,9.9c0,5.1-4.2,9.3-9.8,9.9l-0.5-0.5V42.7C79.9,42.3,79.9,42,80,41.5z M24.5,41.1L24.5,41.1l0.5,0.4l0,0.1
					l0,0c0,0.3,0,0.7,0,1l0,17.8l-0.5,0.4c-5.6-0.6-9.8-4.8-9.8-9.9C14.7,45.9,18.9,41.6,24.5,41.1z"/>
			</g>
		</g>
	</g>
</g>
<g id="ICONS_-_DARK_PURPLE" display="none">
	<g display="inline">
		<g>
			<g>
				<path fill="#4F2556" d="M25.8,63.5c0.1,0,0.1,0,0.2,0l0.1,0c0.1,0,0.1,0,0.2,0c0.7,0,1.3-0.6,1.3-1.3V42.7
					c0-13.5,11.1-24.5,24.8-24.5s24.8,11,24.8,24.5v19.5c0,0.1,0,0.2,0.1,0.4l0,0.3c-0.1,0.2-0.1,0.3-0.1,0.4c0,0.3,0,8-10.3,9.3
					l-0.5-0.3c-0.7-2.2-2.7-3.7-5-3.7c-2.9,0-5.2,2.3-5.2,5.2c0,2.8,2.4,5.2,5.2,5.2c2.2,0,4.2-1.4,5-3.4l0.4-0.3
					c11.2-1.3,12.8-9.1,13.1-11.5l0.4-0.4c7-0.5,12.5-6,12.5-12.5c0-6.6-5.6-12.1-12.9-12.5l-0.4-0.4c-2.3-13-13.7-22.4-27-22.4
					c-13.4,0-24.8,9.4-27.1,22.5L25,38.5c-7.2,0.4-12.9,5.9-12.9,12.5C12.1,57.9,18.2,63.5,25.8,63.5z M61.5,76.5
					c-1.5,0-2.6-1.2-2.6-2.6c0-1.4,1.2-2.6,2.6-2.6s2.6,1.2,2.6,2.6C64.2,75.3,63,76.5,61.5,76.5z M80,41.5l0.5-0.4l0,0
					c5.6,0.6,9.8,4.8,9.8,9.9c0,5.1-4.2,9.3-9.8,9.9l-0.5-0.5V42.7C79.9,42.3,79.9,42,80,41.5z M24.5,41.1L24.5,41.1l0.5,0.4l0,0.1
					l0,0c0,0.3,0,0.7,0,1l0,17.8l-0.5,0.4c-5.6-0.6-9.8-4.8-9.8-9.9C14.7,45.9,18.9,41.6,24.5,41.1z"/>
			</g>
		</g>
	</g>
</g>
<g id="ICONS_-_WARM_GREY" display="none">
	<g display="inline">
		<g>
			<g>
				<path fill="#534C63" d="M25.8,63.5c0.1,0,0.1,0,0.2,0l0.1,0c0.1,0,0.1,0,0.2,0c0.7,0,1.3-0.6,1.3-1.3V42.7
					c0-13.5,11.1-24.5,24.8-24.5s24.8,11,24.8,24.5v19.5c0,0.1,0,0.2,0.1,0.4l0,0.3c-0.1,0.2-0.1,0.3-0.1,0.4c0,0.3,0,8-10.3,9.3
					l-0.5-0.3c-0.7-2.2-2.7-3.7-5-3.7c-2.9,0-5.2,2.3-5.2,5.2c0,2.8,2.4,5.2,5.2,5.2c2.2,0,4.2-1.4,5-3.4l0.4-0.3
					c11.2-1.3,12.8-9.1,13.1-11.5l0.4-0.4c7-0.5,12.5-6,12.5-12.5c0-6.6-5.6-12.1-12.9-12.5l-0.4-0.4c-2.3-13-13.7-22.4-27-22.4
					c-13.4,0-24.8,9.4-27.1,22.5L25,38.5c-7.2,0.4-12.9,5.9-12.9,12.5C12.1,57.9,18.2,63.5,25.8,63.5z M61.5,76.5
					c-1.5,0-2.6-1.2-2.6-2.6c0-1.4,1.2-2.6,2.6-2.6s2.6,1.2,2.6,2.6C64.2,75.3,63,76.5,61.5,76.5z M80,41.5l0.5-0.4l0,0
					c5.6,0.6,9.8,4.8,9.8,9.9c0,5.1-4.2,9.3-9.8,9.9l-0.5-0.5V42.7C79.9,42.3,79.9,42,80,41.5z M24.5,41.1L24.5,41.1l0.5,0.4l0,0.1
					l0,0c0,0.3,0,0.7,0,1l0,17.8l-0.5,0.4c-5.6-0.6-9.8-4.8-9.8-9.9C14.7,45.9,18.9,41.6,24.5,41.1z"/>
			</g>
		</g>
	</g>
</g>
<g id="ICONS_-_SKRILL_TEAL" display="none">
	<g display="inline">
		<g>
			<g>
				<path fill="#41AEB5" d="M25.8,63.5c0.1,0,0.1,0,0.2,0l0.1,0c0.1,0,0.1,0,0.2,0c0.7,0,1.3-0.6,1.3-1.3V42.7
					c0-13.5,11.1-24.5,24.8-24.5s24.8,11,24.8,24.5v19.5c0,0.1,0,0.2,0.1,0.4l0,0.3c-0.1,0.2-0.1,0.3-0.1,0.4c0,0.3,0,8-10.3,9.3
					l-0.5-0.3c-0.7-2.2-2.7-3.7-5-3.7c-2.9,0-5.2,2.3-5.2,5.2c0,2.8,2.4,5.2,5.2,5.2c2.2,0,4.2-1.4,5-3.4l0.4-0.3
					c11.2-1.3,12.8-9.1,13.1-11.5l0.4-0.4c7-0.5,12.5-6,12.5-12.5c0-6.6-5.6-12.1-12.9-12.5l-0.4-0.4c-2.3-13-13.7-22.4-27-22.4
					c-13.4,0-24.8,9.4-27.1,22.5L25,38.5c-7.2,0.4-12.9,5.9-12.9,12.5C12.1,57.9,18.2,63.5,25.8,63.5z M61.5,76.5
					c-1.5,0-2.6-1.2-2.6-2.6c0-1.4,1.2-2.6,2.6-2.6s2.6,1.2,2.6,2.6C64.2,75.3,63,76.5,61.5,76.5z M80,41.5l0.5-0.4l0,0
					c5.6,0.6,9.8,4.8,9.8,9.9c0,5.1-4.2,9.3-9.8,9.9l-0.5-0.5V42.7C79.9,42.3,79.9,42,80,41.5z M24.5,41.1L24.5,41.1l0.5,0.4l0,0.1
					l0,0c0,0.3,0,0.7,0,1l0,17.8l-0.5,0.4c-5.6-0.6-9.8-4.8-9.8-9.9C14.7,45.9,18.9,41.6,24.5,41.1z"/>
			</g>
		</g>
	</g>
</g>
<g id="ICONS_-_SKRILL_PURPLE">
	<g>
		<g>
			<g>
				<path fill="#811E68" d="M25.8,63.5c0.1,0,0.1,0,0.2,0l0.1,0c0.1,0,0.1,0,0.2,0c0.7,0,1.3-0.6,1.3-1.3V42.7
					c0-13.5,11.1-24.5,24.8-24.5s24.8,11,24.8,24.5v19.5c0,0.1,0,0.2,0.1,0.4l0,0.3c-0.1,0.2-0.1,0.3-0.1,0.4c0,0.3,0,8-10.3,9.3
					l-0.5-0.3c-0.7-2.2-2.7-3.7-5-3.7c-2.9,0-5.2,2.3-5.2,5.2c0,2.8,2.4,5.2,5.2,5.2c2.2,0,4.2-1.4,5-3.4l0.4-0.3
					c11.2-1.3,12.8-9.1,13.1-11.5l0.4-0.4c7-0.5,12.5-6,12.5-12.5c0-6.6-5.6-12.1-12.9-12.5l-0.4-0.4c-2.3-13-13.7-22.4-27-22.4
					c-13.4,0-24.8,9.4-27.1,22.5L25,38.5c-7.2,0.4-12.9,5.9-12.9,12.5C12.1,57.9,18.2,63.5,25.8,63.5z M61.5,76.5
					c-1.5,0-2.6-1.2-2.6-2.6c0-1.4,1.2-2.6,2.6-2.6s2.6,1.2,2.6,2.6C64.2,75.3,63,76.5,61.5,76.5z M80,41.5l0.5-0.4l0,0
					c5.6,0.6,9.8,4.8,9.8,9.9c0,5.1-4.2,9.3-9.8,9.9l-0.5-0.5V42.7C79.9,42.3,79.9,42,80,41.5z M24.5,41.1L24.5,41.1l0.5,0.4l0,0.1
					l0,0c0,0.3,0,0.7,0,1l0,17.8l-0.5,0.4c-5.6-0.6-9.8-4.8-9.8-9.9C14.7,45.9,18.9,41.6,24.5,41.1z"/>
			</g>
		</g>
	</g>
</g>
<g id="ICONS_-_WHITE" display="none">
	<g display="inline">
		<g>
			<g>
				<path fill="#FFFFFF" d="M25.8,63.5c0.1,0,0.1,0,0.2,0l0.1,0c0.1,0,0.1,0,0.2,0c0.7,0,1.3-0.6,1.3-1.3V42.7
					c0-13.5,11.1-24.5,24.8-24.5s24.8,11,24.8,24.5v19.5c0,0.1,0,0.2,0.1,0.4l0,0.3c-0.1,0.2-0.1,0.3-0.1,0.4c0,0.3,0,8-10.3,9.3
					l-0.5-0.3c-0.7-2.2-2.7-3.7-5-3.7c-2.9,0-5.2,2.3-5.2,5.2c0,2.8,2.4,5.2,5.2,5.2c2.2,0,4.2-1.4,5-3.4l0.4-0.3
					c11.2-1.3,12.8-9.1,13.1-11.5l0.4-0.4c7-0.5,12.5-6,12.5-12.5c0-6.6-5.6-12.1-12.9-12.5l-0.4-0.4c-2.3-13-13.7-22.4-27-22.4
					c-13.4,0-24.8,9.4-27.1,22.5L25,38.5c-7.2,0.4-12.9,5.9-12.9,12.5C12.1,57.9,18.2,63.5,25.8,63.5z M61.5,76.5
					c-1.5,0-2.6-1.2-2.6-2.6c0-1.4,1.2-2.6,2.6-2.6s2.6,1.2,2.6,2.6C64.2,75.3,63,76.5,61.5,76.5z M80,41.5l0.5-0.4l0,0
					c5.6,0.6,9.8,4.8,9.8,9.9c0,5.1-4.2,9.3-9.8,9.9l-0.5-0.5V42.7C79.9,42.3,79.9,42,80,41.5z M24.5,41.1L24.5,41.1l0.5,0.4l0,0.1
					l0,0c0,0.3,0,0.7,0,1l0,17.8l-0.5,0.4c-5.6-0.6-9.8-4.8-9.8-9.9C14.7,45.9,18.9,41.6,24.5,41.1z"/>
			</g>
		</g>
	</g>
</g>
<g id="LABELS">
</g>
</svg>
