<?xml version="1.0" encoding="utf-8"?>
<!-- Generator: Adobe Illustrator 18.1.1, SVG Export Plug-In . SVG Version: 6.00 Build 0)  -->
<svg version="1.1" xmlns="http://www.w3.org/2000/svg" xmlns:xlink="http://www.w3.org/1999/xlink" x="0px" y="0px"
	 viewBox="0 0 100 100" enable-background="new 0 0 100 100" xml:space="preserve">
<g id="GUIDES">
</g>
<g id="ICONS_-_BLACK" display="none">
	<g display="inline">
		<g>
			<g>
				<path d="M43.9,68.4c0.2,0.1,0.3,0.1,0.5,0.1c0.5,0,0.9-0.3,1.1-0.7l9.6-21.5c0.3-0.6,0-1.4-0.6-1.7c-0.6-0.3-1.4,0-1.7,0.6
					l-9.6,21.5C43,67.4,43.2,68.1,43.9,68.4z"/>
				<path d="M78.1,20.2H21.9c-0.7,0-1.3,0.6-1.3,1.3v56.2c0,0.7,0.6,1.3,0.9,1.3h41.8h3.3h11.5c0.7,0,1.3-0.6,1.3-1.3V21.4
					C79.4,20.7,78.8,20.2,78.1,20.2z M76.8,76.4h-6.2h-4.8H23.2V37.8h53.7V76.4z M76.8,35.2H23.2V22.7h53.7V35.2z"/>
				<circle cx="29.4" cy="29" r="2.9"/>
				<circle cx="37.7" cy="29" r="2.9"/>
				<path d="M45.9,31.8c1.6,0,2.9-1.3,2.9-2.8c0-1.6-1.3-2.9-2.9-2.9c-1.6,0-2.9,1.3-2.9,2.9C43,30.5,44.3,31.8,45.9,31.8z"/>
				<path d="M38.4,65.6c0.2,0.2,0.6,0.4,0.9,0.4s0.6-0.1,0.9-0.4c0.5-0.5,0.5-1.3,0-1.8l-6.9-6.9l6.8-6.8c0.5-0.5,0.5-1.3,0-1.8
					s-1.3-0.5-1.8,0L30.6,56c-0.5,0.5-0.5,1.3,0,1.8L38.4,65.6z"/>
				<path d="M65.3,57l-6.8,6.8c-0.5,0.5-0.5,1.3,0,1.8c0.2,0.2,0.6,0.4,0.9,0.4s0.6-0.1,0.9-0.4l7.7-7.7c0.5-0.5,0.5-1.3,0-1.8
					l-7.8-7.8c-0.5-0.5-1.3-0.5-1.8,0s-0.5,1.3,0,1.8L65.3,57z"/>
			</g>
		</g>
	</g>
</g>
<g id="ICONS_-_DARK_PURPLE" display="none">
	<g display="inline">
		<g>
			<g>
				<path fill="#4F2556" d="M43.9,68.4c0.2,0.1,0.3,0.1,0.5,0.1c0.5,0,0.9-0.3,1.1-0.7l9.6-21.5c0.3-0.6,0-1.4-0.6-1.7
					c-0.6-0.3-1.4,0-1.7,0.6l-9.6,21.5C43,67.4,43.2,68.1,43.9,68.4z"/>
				<path fill="#4F2556" d="M78.1,20.2H21.9c-0.7,0-1.3,0.6-1.3,1.3v56.2c0,0.7,0.6,1.3,0.9,1.3h41.8h3.3h11.5
					c0.7,0,1.3-0.6,1.3-1.3V21.4C79.4,20.7,78.8,20.2,78.1,20.2z M76.8,76.4h-6.2h-4.8H23.2V37.8h53.7V76.4z M76.8,35.2H23.2V22.7
					h53.7V35.2z"/>
				<circle fill="#4F2556" cx="29.4" cy="29" r="2.9"/>
				<circle fill="#4F2556" cx="37.7" cy="29" r="2.9"/>
				<path fill="#4F2556" d="M45.9,31.8c1.6,0,2.9-1.3,2.9-2.8c0-1.6-1.3-2.9-2.9-2.9c-1.6,0-2.9,1.3-2.9,2.9
					C43,30.5,44.3,31.8,45.9,31.8z"/>
				<path fill="#4F2556" d="M38.4,65.6c0.2,0.2,0.6,0.4,0.9,0.4s0.6-0.1,0.9-0.4c0.5-0.5,0.5-1.3,0-1.8l-6.9-6.9l6.8-6.8
					c0.5-0.5,0.5-1.3,0-1.8s-1.3-0.5-1.8,0L30.6,56c-0.5,0.5-0.5,1.3,0,1.8L38.4,65.6z"/>
				<path fill="#4F2556" d="M65.3,57l-6.8,6.8c-0.5,0.5-0.5,1.3,0,1.8c0.2,0.2,0.6,0.4,0.9,0.4s0.6-0.1,0.9-0.4l7.7-7.7
					c0.5-0.5,0.5-1.3,0-1.8l-7.8-7.8c-0.5-0.5-1.3-0.5-1.8,0s-0.5,1.3,0,1.8L65.3,57z"/>
			</g>
		</g>
	</g>
</g>
<g id="ICONS_-_WARM_GREY" display="none">
	<g display="inline">
		<g>
			<g>
				<path fill="#534C63" d="M43.9,68.4c0.2,0.1,0.3,0.1,0.5,0.1c0.5,0,0.9-0.3,1.1-0.7l9.6-21.5c0.3-0.6,0-1.4-0.6-1.7
					c-0.6-0.3-1.4,0-1.7,0.6l-9.6,21.5C43,67.4,43.2,68.1,43.9,68.4z"/>
				<path fill="#534C63" d="M78.1,20.2H21.9c-0.7,0-1.3,0.6-1.3,1.3v56.2c0,0.7,0.6,1.3,0.9,1.3h41.8h3.3h11.5
					c0.7,0,1.3-0.6,1.3-1.3V21.4C79.4,20.7,78.8,20.2,78.1,20.2z M76.8,76.4h-6.2h-4.8H23.2V37.8h53.7V76.4z M76.8,35.2H23.2V22.7
					h53.7V35.2z"/>
				<circle fill="#534C63" cx="29.4" cy="29" r="2.9"/>
				<circle fill="#534C63" cx="37.7" cy="29" r="2.9"/>
				<path fill="#534C63" d="M45.9,31.8c1.6,0,2.9-1.3,2.9-2.8c0-1.6-1.3-2.9-2.9-2.9c-1.6,0-2.9,1.3-2.9,2.9
					C43,30.5,44.3,31.8,45.9,31.8z"/>
				<path fill="#534C63" d="M38.4,65.6c0.2,0.2,0.6,0.4,0.9,0.4s0.6-0.1,0.9-0.4c0.5-0.5,0.5-1.3,0-1.8l-6.9-6.9l6.8-6.8
					c0.5-0.5,0.5-1.3,0-1.8s-1.3-0.5-1.8,0L30.6,56c-0.5,0.5-0.5,1.3,0,1.8L38.4,65.6z"/>
				<path fill="#534C63" d="M65.3,57l-6.8,6.8c-0.5,0.5-0.5,1.3,0,1.8c0.2,0.2,0.6,0.4,0.9,0.4s0.6-0.1,0.9-0.4l7.7-7.7
					c0.5-0.5,0.5-1.3,0-1.8l-7.8-7.8c-0.5-0.5-1.3-0.5-1.8,0s-0.5,1.3,0,1.8L65.3,57z"/>
			</g>
		</g>
	</g>
</g>
<g id="ICONS_-_SKRILL_TEAL" display="none">
	<g display="inline">
		<g>
			<g>
				<path fill="#41AEB5" d="M43.9,68.4c0.2,0.1,0.3,0.1,0.5,0.1c0.5,0,0.9-0.3,1.1-0.7l9.6-21.5c0.3-0.6,0-1.4-0.6-1.7
					c-0.6-0.3-1.4,0-1.7,0.6l-9.6,21.5C43,67.4,43.2,68.1,43.9,68.4z"/>
				<path fill="#41AEB5" d="M78.1,20.2H21.9c-0.7,0-1.3,0.6-1.3,1.3v56.2c0,0.7,0.6,1.3,0.9,1.3h41.8h3.3h11.5
					c0.7,0,1.3-0.6,1.3-1.3V21.4C79.4,20.7,78.8,20.2,78.1,20.2z M76.8,76.4h-6.2h-4.8H23.2V37.8h53.7V76.4z M76.8,35.2H23.2V22.7
					h53.7V35.2z"/>
				<circle fill="#41AEB5" cx="29.4" cy="29" r="2.9"/>
				<circle fill="#41AEB5" cx="37.7" cy="29" r="2.9"/>
				<path fill="#41AEB5" d="M45.9,31.8c1.6,0,2.9-1.3,2.9-2.8c0-1.6-1.3-2.9-2.9-2.9c-1.6,0-2.9,1.3-2.9,2.9
					C43,30.5,44.3,31.8,45.9,31.8z"/>
				<path fill="#41AEB5" d="M38.4,65.6c0.2,0.2,0.6,0.4,0.9,0.4s0.6-0.1,0.9-0.4c0.5-0.5,0.5-1.3,0-1.8l-6.9-6.9l6.8-6.8
					c0.5-0.5,0.5-1.3,0-1.8s-1.3-0.5-1.8,0L30.6,56c-0.5,0.5-0.5,1.3,0,1.8L38.4,65.6z"/>
				<path fill="#41AEB5" d="M65.3,57l-6.8,6.8c-0.5,0.5-0.5,1.3,0,1.8c0.2,0.2,0.6,0.4,0.9,0.4s0.6-0.1,0.9-0.4l7.7-7.7
					c0.5-0.5,0.5-1.3,0-1.8l-7.8-7.8c-0.5-0.5-1.3-0.5-1.8,0s-0.5,1.3,0,1.8L65.3,57z"/>
			</g>
		</g>
	</g>
</g>
<g id="ICONS_-_SKRILL_PURPLE">
	<g>
		<g>
			<g>
				<path fill="#811E68" d="M43.9,68.4c0.2,0.1,0.3,0.1,0.5,0.1c0.5,0,0.9-0.3,1.1-0.7l9.6-21.5c0.3-0.6,0-1.4-0.6-1.7
					c-0.6-0.3-1.4,0-1.7,0.6l-9.6,21.5C43,67.4,43.2,68.1,43.9,68.4z"/>
				<path fill="#811E68" d="M78.1,20.2H21.9c-0.7,0-1.3,0.6-1.3,1.3v56.2c0,0.7,0.6,1.3,0.9,1.3h41.8h3.3h11.5
					c0.7,0,1.3-0.6,1.3-1.3V21.4C79.4,20.7,78.8,20.2,78.1,20.2z M76.8,76.4h-6.2h-4.8H23.2V37.8h53.7V76.4z M76.8,35.2H23.2V22.7
					h53.7V35.2z"/>
				<circle fill="#811E68" cx="29.4" cy="29" r="2.9"/>
				<circle fill="#811E68" cx="37.7" cy="29" r="2.9"/>
				<path fill="#811E68" d="M45.9,31.8c1.6,0,2.9-1.3,2.9-2.8c0-1.6-1.3-2.9-2.9-2.9c-1.6,0-2.9,1.3-2.9,2.9
					C43,30.5,44.3,31.8,45.9,31.8z"/>
				<path fill="#811E68" d="M38.4,65.6c0.2,0.2,0.6,0.4,0.9,0.4s0.6-0.1,0.9-0.4c0.5-0.5,0.5-1.3,0-1.8l-6.9-6.9l6.8-6.8
					c0.5-0.5,0.5-1.3,0-1.8s-1.3-0.5-1.8,0L30.6,56c-0.5,0.5-0.5,1.3,0,1.8L38.4,65.6z"/>
				<path fill="#811E68" d="M65.3,57l-6.8,6.8c-0.5,0.5-0.5,1.3,0,1.8c0.2,0.2,0.6,0.4,0.9,0.4s0.6-0.1,0.9-0.4l7.7-7.7
					c0.5-0.5,0.5-1.3,0-1.8l-7.8-7.8c-0.5-0.5-1.3-0.5-1.8,0s-0.5,1.3,0,1.8L65.3,57z"/>
			</g>
		</g>
	</g>
</g>
<g id="ICONS_-_WHITE" display="none">
	<g display="inline">
		<g>
			<g>
				<path fill="#FFFFFF" d="M43.9,68.4c0.2,0.1,0.3,0.1,0.5,0.1c0.5,0,0.9-0.3,1.1-0.7l9.6-21.5c0.3-0.6,0-1.4-0.6-1.7
					c-0.6-0.3-1.4,0-1.7,0.6l-9.6,21.5C43,67.4,43.2,68.1,43.9,68.4z"/>
				<path fill="#FFFFFF" d="M78.1,20.2H21.9c-0.7,0-1.3,0.6-1.3,1.3v56.2c0,0.7,0.6,1.3,0.9,1.3h41.8h3.3h11.5
					c0.7,0,1.3-0.6,1.3-1.3V21.4C79.4,20.7,78.8,20.2,78.1,20.2z M76.8,76.4h-6.2h-4.8H23.2V37.8h53.7V76.4z M76.8,35.2H23.2V22.7
					h53.7V35.2z"/>
				<circle fill="#FFFFFF" cx="29.4" cy="29" r="2.9"/>
				<circle fill="#FFFFFF" cx="37.7" cy="29" r="2.9"/>
				<path fill="#FFFFFF" d="M45.9,31.8c1.6,0,2.9-1.3,2.9-2.8c0-1.6-1.3-2.9-2.9-2.9c-1.6,0-2.9,1.3-2.9,2.9
					C43,30.5,44.3,31.8,45.9,31.8z"/>
				<path fill="#FFFFFF" d="M38.4,65.6c0.2,0.2,0.6,0.4,0.9,0.4s0.6-0.1,0.9-0.4c0.5-0.5,0.5-1.3,0-1.8l-6.9-6.9l6.8-6.8
					c0.5-0.5,0.5-1.3,0-1.8s-1.3-0.5-1.8,0L30.6,56c-0.5,0.5-0.5,1.3,0,1.8L38.4,65.6z"/>
				<path fill="#FFFFFF" d="M65.3,57l-6.8,6.8c-0.5,0.5-0.5,1.3,0,1.8c0.2,0.2,0.6,0.4,0.9,0.4s0.6-0.1,0.9-0.4l7.7-7.7
					c0.5-0.5,0.5-1.3,0-1.8l-7.8-7.8c-0.5-0.5-1.3-0.5-1.8,0s-0.5,1.3,0,1.8L65.3,57z"/>
			</g>
		</g>
	</g>
</g>
<g id="LABELS">
</g>
</svg>
