<?xml version="1.0" encoding="utf-8"?>
<!-- Generator: Adobe Illustrator 18.1.1, SVG Export Plug-In . SVG Version: 6.00 Build 0)  -->
<svg version="1.1" xmlns="http://www.w3.org/2000/svg" xmlns:xlink="http://www.w3.org/1999/xlink" x="0px" y="0px"
	 viewBox="0 0 100 100" enable-background="new 0 0 100 100" xml:space="preserve">
<g id="GUIDES">
</g>
<g id="ICONS_-_BLACK" display="none">
	<g display="inline">
		<g>
			<g>
				<path d="M94.6,47.2L85,37.8c-0.5-0.4-1.2-0.4-1.6,0c-0.4,0.4-0.4,1.2,0,1.6l7.7,7.5l-9.1,0l-9.3,0H71c-0.6,0-1.2,0.5-1.2,1.1
					c0,0.6,0.5,1.1,1.2,1.1h1.6l9.3,0h9.1l-7.7,7.5c-0.4,0.4-0.4,1.2,0,1.6c0.2,0.2,0.5,0.3,0.8,0.3c0.3,0,0.6-0.1,0.8-0.3l9.6-9.4
					C95.1,48.4,95.1,47.6,94.6,47.2z"/>
				<path d="M27.4,48l1.6,0c0.6,0,1.2-0.5,1.2-1.1c0-0.6-0.5-1.1-1.2-1.1h-1.6l-9.3,0H8.9l7.7-7.5c0.4-0.4,0.4-1.1,0-1.6
					c-0.2-0.2-0.5-0.3-0.8-0.3c-0.3,0-0.6,0.1-0.8,0.3l-9.6,9.4c-0.4,0.4-0.4,1.2,0,1.6l9.6,9.4c0.4,0.4,1.2,0.4,1.6,0
					c0.4-0.4,0.4-1.2,0-1.6L8.9,48l9.1,0L27.4,48z"/>
				<path d="M36.3,37h-6.8c-0.7,0-1.2,0.6-1.2,1.2s0.6,1.2,1.2,1.2h6.8c0.7,0,1.2-0.6,1.2-1.2S37,37,36.3,37z"/>
				<path d="M36.3,54.7h-6.8c-0.7,0-1.2,0.6-1.2,1.2s0.6,1.2,1.2,1.2h6.8c0.7,0,1.2-0.6,1.2-1.2S37,54.7,36.3,54.7z"/>
				<path d="M72.8,38.3c0-0.7-0.6-1.2-1.2-1.2h-6.8c-0.7,0-1.2,0.6-1.2,1.2s0.6,1.2,1.2,1.2h6.8C72.3,39.5,72.8,39,72.8,38.3z"/>
				<path d="M63.5,55.9c0,0.7,0.6,1.2,1.2,1.2h6.8c0.7,0,1.2-0.6,1.2-1.2s-0.6-1.2-1.2-1.2h-6.8C64,54.7,63.5,55.2,63.5,55.9z"/>
				<path d="M23,40.6c0.6,0,1.1-0.5,1.1-1.2l0-6h52.4v7.1h0c0,0,0,0,0,0c0,0.6,0.5,1.2,1.2,1.2s1.1-0.5,1.1-1.2l0-8.2
					c0-0.6-0.5-1.1-1.2-1.1H23c-0.6,0-1.2,0.5-1.2,1.1l0,7.1C21.8,40.1,22.3,40.6,23,40.6z"/>
				<path d="M77.6,54.3c-0.6,0-1.2,0.5-1.2,1.2c0,0,0,0,0,0h0v4.9H24.1l0-6c0-0.6-0.5-1.2-1.2-1.2c-0.6,0-1.2,0.5-1.2,1.2v7.2v11.6
					c0,0.6,0.5,1.1,1.2,1.1h54.7c0.6,0,1.2-0.5,1.2-1.1V61.5l0-6C78.8,54.8,78.3,54.3,77.6,54.3z M76.5,72H24.1v-3.3h52.3
					c0,0,0.1,0,0.1,0V72z M76.5,66.5c0,0-0.1,0-0.1,0H24.1v-3.8h52.4V66.5z"/>
				<path d="M50,57.1c0,0.5,0.4,1,1,1s1-0.4,1-1v-2v0c2.6-0.3,4.2-2,4.2-4.5c0-2.6-2.5-3.7-4.2-4.3v0v-4.6c1.5,0.4,1.8,1.7,1.8,1.8
					c0.1,0.5,0.5,0.8,0.9,0.8l0.1,0c0.3,0,0.5-0.2,0.6-0.4s0.2-0.5,0.2-0.7c0,0-0.5-3-3.7-3.5v0v-1.9c0-0.5-0.4-1-1-1s-1,0.4-1,1
					v1.9v0.1c-2.8,0.4-3.6,2.5-3.6,3.8c0,1.8,1.2,3.1,3.6,4.2v5.5c-1.6-0.4-2.2-1.8-2.2-2.1c0-0.5-0.4-1-1-1s-1,0.4-1,1
					c0,1.2,1.4,3.6,4.2,4v0.1V57.1z M51.9,53.2v-4.8c1.4,0.6,2.3,1.2,2.3,2.3C54.1,52.4,52.9,53,51.9,53.2z M50,41.6v3.9
					c-1.5-0.8-1.7-1.5-1.7-2.1C48.3,43.2,48.4,42,50,41.6z"/>
			</g>
		</g>
	</g>
</g>
<g id="ICONS_-_DARK_PURPLE" display="none">
	<g display="inline">
		<g>
			<g>
				<path fill="#4F2556" d="M94.6,47.2L85,37.8c-0.5-0.4-1.2-0.4-1.6,0c-0.4,0.4-0.4,1.2,0,1.6l7.7,7.5l-9.1,0l-9.3,0H71
					c-0.6,0-1.2,0.5-1.2,1.1c0,0.6,0.5,1.1,1.2,1.1h1.6l9.3,0h9.1l-7.7,7.5c-0.4,0.4-0.4,1.2,0,1.6c0.2,0.2,0.5,0.3,0.8,0.3
					c0.3,0,0.6-0.1,0.8-0.3l9.6-9.4C95.1,48.4,95.1,47.6,94.6,47.2z"/>
				<path fill="#4F2556" d="M27.4,48l1.6,0c0.6,0,1.2-0.5,1.2-1.1c0-0.6-0.5-1.1-1.2-1.1h-1.6l-9.3,0H8.9l7.7-7.5
					c0.4-0.4,0.4-1.1,0-1.6c-0.2-0.2-0.5-0.3-0.8-0.3c-0.3,0-0.6,0.1-0.8,0.3l-9.6,9.4c-0.4,0.4-0.4,1.2,0,1.6l9.6,9.4
					c0.4,0.4,1.2,0.4,1.6,0c0.4-0.4,0.4-1.2,0-1.6L8.9,48l9.1,0L27.4,48z"/>
				<path fill="#4F2556" d="M36.3,37h-6.8c-0.7,0-1.2,0.6-1.2,1.2s0.6,1.2,1.2,1.2h6.8c0.7,0,1.2-0.6,1.2-1.2S37,37,36.3,37z"/>
				<path fill="#4F2556" d="M36.3,54.7h-6.8c-0.7,0-1.2,0.6-1.2,1.2s0.6,1.2,1.2,1.2h6.8c0.7,0,1.2-0.6,1.2-1.2S37,54.7,36.3,54.7z"
					/>
				<path fill="#4F2556" d="M72.8,38.3c0-0.7-0.6-1.2-1.2-1.2h-6.8c-0.7,0-1.2,0.6-1.2,1.2s0.6,1.2,1.2,1.2h6.8
					C72.3,39.5,72.8,39,72.8,38.3z"/>
				<path fill="#4F2556" d="M63.5,55.9c0,0.7,0.6,1.2,1.2,1.2h6.8c0.7,0,1.2-0.6,1.2-1.2s-0.6-1.2-1.2-1.2h-6.8
					C64,54.7,63.5,55.2,63.5,55.9z"/>
				<path fill="#4F2556" d="M23,40.6c0.6,0,1.1-0.5,1.1-1.2l0-6h52.4v7.1h0c0,0,0,0,0,0c0,0.6,0.5,1.2,1.2,1.2s1.1-0.5,1.1-1.2
					l0-8.2c0-0.6-0.5-1.1-1.2-1.1H23c-0.6,0-1.2,0.5-1.2,1.1l0,7.1C21.8,40.1,22.3,40.6,23,40.6z"/>
				<path fill="#4F2556" d="M77.6,54.3c-0.6,0-1.2,0.5-1.2,1.2c0,0,0,0,0,0h0v4.9H24.1l0-6c0-0.6-0.5-1.2-1.2-1.2
					c-0.6,0-1.2,0.5-1.2,1.2v7.2v11.6c0,0.6,0.5,1.1,1.2,1.1h54.7c0.6,0,1.2-0.5,1.2-1.1V61.5l0-6C78.8,54.8,78.3,54.3,77.6,54.3z
					 M76.5,72H24.1v-3.3h52.3c0,0,0.1,0,0.1,0V72z M76.5,66.5c0,0-0.1,0-0.1,0H24.1v-3.8h52.4V66.5z"/>
				<path fill="#4F2556" d="M50,57.1c0,0.5,0.4,1,1,1s1-0.4,1-1v-2v0c2.6-0.3,4.2-2,4.2-4.5c0-2.6-2.5-3.7-4.2-4.3v0v-4.6
					c1.5,0.4,1.8,1.7,1.8,1.8c0.1,0.5,0.5,0.8,0.9,0.8l0.1,0c0.3,0,0.5-0.2,0.6-0.4s0.2-0.5,0.2-0.7c0,0-0.5-3-3.7-3.5v0v-1.9
					c0-0.5-0.4-1-1-1s-1,0.4-1,1v1.9v0.1c-2.8,0.4-3.6,2.5-3.6,3.8c0,1.8,1.2,3.1,3.6,4.2v5.5c-1.6-0.4-2.2-1.8-2.2-2.1
					c0-0.5-0.4-1-1-1s-1,0.4-1,1c0,1.2,1.4,3.6,4.2,4v0.1V57.1z M51.9,53.2v-4.8c1.4,0.6,2.3,1.2,2.3,2.3
					C54.1,52.4,52.9,53,51.9,53.2z M50,41.6v3.9c-1.5-0.8-1.7-1.5-1.7-2.1C48.3,43.2,48.4,42,50,41.6z"/>
			</g>
		</g>
	</g>
</g>
<g id="ICONS_-_WARM_GREY" display="none">
	<g display="inline">
		<g>
			<g>
				<path fill="#534C63" d="M94.6,47.2L85,37.8c-0.5-0.4-1.2-0.4-1.6,0c-0.4,0.4-0.4,1.2,0,1.6l7.7,7.5l-9.1,0l-9.3,0H71
					c-0.6,0-1.2,0.5-1.2,1.1c0,0.6,0.5,1.1,1.2,1.1h1.6l9.3,0h9.1l-7.7,7.5c-0.4,0.4-0.4,1.2,0,1.6c0.2,0.2,0.5,0.3,0.8,0.3
					c0.3,0,0.6-0.1,0.8-0.3l9.6-9.4C95.1,48.4,95.1,47.6,94.6,47.2z"/>
				<path fill="#534C63" d="M27.4,48l1.6,0c0.6,0,1.2-0.5,1.2-1.1c0-0.6-0.5-1.1-1.2-1.1h-1.6l-9.3,0H8.9l7.7-7.5
					c0.4-0.4,0.4-1.1,0-1.6c-0.2-0.2-0.5-0.3-0.8-0.3c-0.3,0-0.6,0.1-0.8,0.3l-9.6,9.4c-0.4,0.4-0.4,1.2,0,1.6l9.6,9.4
					c0.4,0.4,1.2,0.4,1.6,0c0.4-0.4,0.4-1.2,0-1.6L8.9,48l9.1,0L27.4,48z"/>
				<path fill="#534C63" d="M36.3,37h-6.8c-0.7,0-1.2,0.6-1.2,1.2s0.6,1.2,1.2,1.2h6.8c0.7,0,1.2-0.6,1.2-1.2S37,37,36.3,37z"/>
				<path fill="#534C63" d="M36.3,54.7h-6.8c-0.7,0-1.2,0.6-1.2,1.2s0.6,1.2,1.2,1.2h6.8c0.7,0,1.2-0.6,1.2-1.2S37,54.7,36.3,54.7z"
					/>
				<path fill="#534C63" d="M72.8,38.3c0-0.7-0.6-1.2-1.2-1.2h-6.8c-0.7,0-1.2,0.6-1.2,1.2s0.6,1.2,1.2,1.2h6.8
					C72.3,39.5,72.8,39,72.8,38.3z"/>
				<path fill="#534C63" d="M63.5,55.9c0,0.7,0.6,1.2,1.2,1.2h6.8c0.7,0,1.2-0.6,1.2-1.2s-0.6-1.2-1.2-1.2h-6.8
					C64,54.7,63.5,55.2,63.5,55.9z"/>
				<path fill="#534C63" d="M23,40.6c0.6,0,1.1-0.5,1.1-1.2l0-6h52.4v7.1h0c0,0,0,0,0,0c0,0.6,0.5,1.2,1.2,1.2s1.1-0.5,1.1-1.2
					l0-8.2c0-0.6-0.5-1.1-1.2-1.1H23c-0.6,0-1.2,0.5-1.2,1.1l0,7.1C21.8,40.1,22.3,40.6,23,40.6z"/>
				<path fill="#534C63" d="M77.6,54.3c-0.6,0-1.2,0.5-1.2,1.2c0,0,0,0,0,0h0v4.9H24.1l0-6c0-0.6-0.5-1.2-1.2-1.2
					c-0.6,0-1.2,0.5-1.2,1.2v7.2v11.6c0,0.6,0.5,1.1,1.2,1.1h54.7c0.6,0,1.2-0.5,1.2-1.1V61.5l0-6C78.8,54.8,78.3,54.3,77.6,54.3z
					 M76.5,72H24.1v-3.3h52.3c0,0,0.1,0,0.1,0V72z M76.5,66.5c0,0-0.1,0-0.1,0H24.1v-3.8h52.4V66.5z"/>
				<path fill="#534C63" d="M50,57.1c0,0.5,0.4,1,1,1s1-0.4,1-1v-2v0c2.6-0.3,4.2-2,4.2-4.5c0-2.6-2.5-3.7-4.2-4.3v0v-4.6
					c1.5,0.4,1.8,1.7,1.8,1.8c0.1,0.5,0.5,0.8,0.9,0.8l0.1,0c0.3,0,0.5-0.2,0.6-0.4s0.2-0.5,0.2-0.7c0,0-0.5-3-3.7-3.5v0v-1.9
					c0-0.5-0.4-1-1-1s-1,0.4-1,1v1.9v0.1c-2.8,0.4-3.6,2.5-3.6,3.8c0,1.8,1.2,3.1,3.6,4.2v5.5c-1.6-0.4-2.2-1.8-2.2-2.1
					c0-0.5-0.4-1-1-1s-1,0.4-1,1c0,1.2,1.4,3.6,4.2,4v0.1V57.1z M51.9,53.2v-4.8c1.4,0.6,2.3,1.2,2.3,2.3
					C54.1,52.4,52.9,53,51.9,53.2z M50,41.6v3.9c-1.5-0.8-1.7-1.5-1.7-2.1C48.3,43.2,48.4,42,50,41.6z"/>
			</g>
		</g>
	</g>
</g>
<g id="ICONS_-_SKRILL_TEAL" display="none">
	<g display="inline">
		<g>
			<g>
				<path fill="#41AEB5" d="M94.6,47.2L85,37.8c-0.5-0.4-1.2-0.4-1.6,0c-0.4,0.4-0.4,1.2,0,1.6l7.7,7.5l-9.1,0l-9.3,0H71
					c-0.6,0-1.2,0.5-1.2,1.1c0,0.6,0.5,1.1,1.2,1.1h1.6l9.3,0h9.1l-7.7,7.5c-0.4,0.4-0.4,1.2,0,1.6c0.2,0.2,0.5,0.3,0.8,0.3
					c0.3,0,0.6-0.1,0.8-0.3l9.6-9.4C95.1,48.4,95.1,47.6,94.6,47.2z"/>
				<path fill="#41AEB5" d="M27.4,48l1.6,0c0.6,0,1.2-0.5,1.2-1.1c0-0.6-0.5-1.1-1.2-1.1h-1.6l-9.3,0H8.9l7.7-7.5
					c0.4-0.4,0.4-1.1,0-1.6c-0.2-0.2-0.5-0.3-0.8-0.3c-0.3,0-0.6,0.1-0.8,0.3l-9.6,9.4c-0.4,0.4-0.4,1.2,0,1.6l9.6,9.4
					c0.4,0.4,1.2,0.4,1.6,0c0.4-0.4,0.4-1.2,0-1.6L8.9,48l9.1,0L27.4,48z"/>
				<path fill="#41AEB5" d="M36.3,37h-6.8c-0.7,0-1.2,0.6-1.2,1.2s0.6,1.2,1.2,1.2h6.8c0.7,0,1.2-0.6,1.2-1.2S37,37,36.3,37z"/>
				<path fill="#41AEB5" d="M36.3,54.7h-6.8c-0.7,0-1.2,0.6-1.2,1.2s0.6,1.2,1.2,1.2h6.8c0.7,0,1.2-0.6,1.2-1.2S37,54.7,36.3,54.7z"
					/>
				<path fill="#41AEB5" d="M72.8,38.3c0-0.7-0.6-1.2-1.2-1.2h-6.8c-0.7,0-1.2,0.6-1.2,1.2s0.6,1.2,1.2,1.2h6.8
					C72.3,39.5,72.8,39,72.8,38.3z"/>
				<path fill="#41AEB5" d="M63.5,55.9c0,0.7,0.6,1.2,1.2,1.2h6.8c0.7,0,1.2-0.6,1.2-1.2s-0.6-1.2-1.2-1.2h-6.8
					C64,54.7,63.5,55.2,63.5,55.9z"/>
				<path fill="#41AEB5" d="M23,40.6c0.6,0,1.1-0.5,1.1-1.2l0-6h52.4v7.1h0c0,0,0,0,0,0c0,0.6,0.5,1.2,1.2,1.2s1.1-0.5,1.1-1.2
					l0-8.2c0-0.6-0.5-1.1-1.2-1.1H23c-0.6,0-1.2,0.5-1.2,1.1l0,7.1C21.8,40.1,22.3,40.6,23,40.6z"/>
				<path fill="#41AEB5" d="M77.6,54.3c-0.6,0-1.2,0.5-1.2,1.2c0,0,0,0,0,0h0v4.9H24.1l0-6c0-0.6-0.5-1.2-1.2-1.2
					c-0.6,0-1.2,0.5-1.2,1.2v7.2v11.6c0,0.6,0.5,1.1,1.2,1.1h54.7c0.6,0,1.2-0.5,1.2-1.1V61.5l0-6C78.8,54.8,78.3,54.3,77.6,54.3z
					 M76.5,72H24.1v-3.3h52.3c0,0,0.1,0,0.1,0V72z M76.5,66.5c0,0-0.1,0-0.1,0H24.1v-3.8h52.4V66.5z"/>
				<path fill="#41AEB5" d="M50,57.1c0,0.5,0.4,1,1,1s1-0.4,1-1v-2v0c2.6-0.3,4.2-2,4.2-4.5c0-2.6-2.5-3.7-4.2-4.3v0v-4.6
					c1.5,0.4,1.8,1.7,1.8,1.8c0.1,0.5,0.5,0.8,0.9,0.8l0.1,0c0.3,0,0.5-0.2,0.6-0.4s0.2-0.5,0.2-0.7c0,0-0.5-3-3.7-3.5v0v-1.9
					c0-0.5-0.4-1-1-1s-1,0.4-1,1v1.9v0.1c-2.8,0.4-3.6,2.5-3.6,3.8c0,1.8,1.2,3.1,3.6,4.2v5.5c-1.6-0.4-2.2-1.8-2.2-2.1
					c0-0.5-0.4-1-1-1s-1,0.4-1,1c0,1.2,1.4,3.6,4.2,4v0.1V57.1z M51.9,53.2v-4.8c1.4,0.6,2.3,1.2,2.3,2.3
					C54.1,52.4,52.9,53,51.9,53.2z M50,41.6v3.9c-1.5-0.8-1.7-1.5-1.7-2.1C48.3,43.2,48.4,42,50,41.6z"/>
			</g>
		</g>
	</g>
</g>
<g id="ICONS_-_SKRILL_PURPLE">
	<g>
		<g>
			<g>
				<path fill="#811E68" d="M94.6,47.2L85,37.8c-0.5-0.4-1.2-0.4-1.6,0c-0.4,0.4-0.4,1.2,0,1.6l7.7,7.5l-9.1,0l-9.3,0H71
					c-0.6,0-1.2,0.5-1.2,1.1c0,0.6,0.5,1.1,1.2,1.1h1.6l9.3,0h9.1l-7.7,7.5c-0.4,0.4-0.4,1.2,0,1.6c0.2,0.2,0.5,0.3,0.8,0.3
					c0.3,0,0.6-0.1,0.8-0.3l9.6-9.4C95.1,48.4,95.1,47.6,94.6,47.2z"/>
				<path fill="#811E68" d="M27.4,48l1.6,0c0.6,0,1.2-0.5,1.2-1.1c0-0.6-0.5-1.1-1.2-1.1h-1.6l-9.3,0H8.9l7.7-7.5
					c0.4-0.4,0.4-1.1,0-1.6c-0.2-0.2-0.5-0.3-0.8-0.3c-0.3,0-0.6,0.1-0.8,0.3l-9.6,9.4c-0.4,0.4-0.4,1.2,0,1.6l9.6,9.4
					c0.4,0.4,1.2,0.4,1.6,0c0.4-0.4,0.4-1.2,0-1.6L8.9,48l9.1,0L27.4,48z"/>
				<path fill="#811E68" d="M36.3,37h-6.8c-0.7,0-1.2,0.6-1.2,1.2s0.6,1.2,1.2,1.2h6.8c0.7,0,1.2-0.6,1.2-1.2S37,37,36.3,37z"/>
				<path fill="#811E68" d="M36.3,54.7h-6.8c-0.7,0-1.2,0.6-1.2,1.2s0.6,1.2,1.2,1.2h6.8c0.7,0,1.2-0.6,1.2-1.2S37,54.7,36.3,54.7z"
					/>
				<path fill="#811E68" d="M72.8,38.3c0-0.7-0.6-1.2-1.2-1.2h-6.8c-0.7,0-1.2,0.6-1.2,1.2s0.6,1.2,1.2,1.2h6.8
					C72.3,39.5,72.8,39,72.8,38.3z"/>
				<path fill="#811E68" d="M63.5,55.9c0,0.7,0.6,1.2,1.2,1.2h6.8c0.7,0,1.2-0.6,1.2-1.2s-0.6-1.2-1.2-1.2h-6.8
					C64,54.7,63.5,55.2,63.5,55.9z"/>
				<path fill="#811E68" d="M23,40.6c0.6,0,1.1-0.5,1.1-1.2l0-6h52.4v7.1h0c0,0,0,0,0,0c0,0.6,0.5,1.2,1.2,1.2s1.1-0.5,1.1-1.2
					l0-8.2c0-0.6-0.5-1.1-1.2-1.1H23c-0.6,0-1.2,0.5-1.2,1.1l0,7.1C21.8,40.1,22.3,40.6,23,40.6z"/>
				<path fill="#811E68" d="M77.6,54.3c-0.6,0-1.2,0.5-1.2,1.2c0,0,0,0,0,0h0v4.9H24.1l0-6c0-0.6-0.5-1.2-1.2-1.2
					c-0.6,0-1.2,0.5-1.2,1.2v7.2v11.6c0,0.6,0.5,1.1,1.2,1.1h54.7c0.6,0,1.2-0.5,1.2-1.1V61.5l0-6C78.8,54.8,78.3,54.3,77.6,54.3z
					 M76.5,72H24.1v-3.3h52.3c0,0,0.1,0,0.1,0V72z M76.5,66.5c0,0-0.1,0-0.1,0H24.1v-3.8h52.4V66.5z"/>
				<path fill="#811E68" d="M50,57.1c0,0.5,0.4,1,1,1s1-0.4,1-1v-2v0c2.6-0.3,4.2-2,4.2-4.5c0-2.6-2.5-3.7-4.2-4.3v0v-4.6
					c1.5,0.4,1.8,1.7,1.8,1.8c0.1,0.5,0.5,0.8,0.9,0.8l0.1,0c0.3,0,0.5-0.2,0.6-0.4s0.2-0.5,0.2-0.7c0,0-0.5-3-3.7-3.5v0v-1.9
					c0-0.5-0.4-1-1-1s-1,0.4-1,1v1.9v0.1c-2.8,0.4-3.6,2.5-3.6,3.8c0,1.8,1.2,3.1,3.6,4.2v5.5c-1.6-0.4-2.2-1.8-2.2-2.1
					c0-0.5-0.4-1-1-1s-1,0.4-1,1c0,1.2,1.4,3.6,4.2,4v0.1V57.1z M51.9,53.2v-4.8c1.4,0.6,2.3,1.2,2.3,2.3
					C54.1,52.4,52.9,53,51.9,53.2z M50,41.6v3.9c-1.5-0.8-1.7-1.5-1.7-2.1C48.3,43.2,48.4,42,50,41.6z"/>
			</g>
		</g>
	</g>
</g>
<g id="ICONS_-_WHITE" display="none">
	<g display="inline">
		<g>
			<g>
				<path fill="#FFFFFF" d="M94.6,47.2L85,37.8c-0.5-0.4-1.2-0.4-1.6,0c-0.4,0.4-0.4,1.2,0,1.6l7.7,7.5l-9.1,0l-9.3,0H71
					c-0.6,0-1.2,0.5-1.2,1.1c0,0.6,0.5,1.1,1.2,1.1h1.6l9.3,0h9.1l-7.7,7.5c-0.4,0.4-0.4,1.2,0,1.6c0.2,0.2,0.5,0.3,0.8,0.3
					c0.3,0,0.6-0.1,0.8-0.3l9.6-9.4C95.1,48.4,95.1,47.6,94.6,47.2z"/>
				<path fill="#FFFFFF" d="M27.4,48l1.6,0c0.6,0,1.2-0.5,1.2-1.1c0-0.6-0.5-1.1-1.2-1.1h-1.6l-9.3,0H8.9l7.7-7.5
					c0.4-0.4,0.4-1.1,0-1.6c-0.2-0.2-0.5-0.3-0.8-0.3c-0.3,0-0.6,0.1-0.8,0.3l-9.6,9.4c-0.4,0.4-0.4,1.2,0,1.6l9.6,9.4
					c0.4,0.4,1.2,0.4,1.6,0c0.4-0.4,0.4-1.2,0-1.6L8.9,48l9.1,0L27.4,48z"/>
				<path fill="#FFFFFF" d="M36.3,37h-6.8c-0.7,0-1.2,0.6-1.2,1.2s0.6,1.2,1.2,1.2h6.8c0.7,0,1.2-0.6,1.2-1.2S37,37,36.3,37z"/>
				<path fill="#FFFFFF" d="M36.3,54.7h-6.8c-0.7,0-1.2,0.6-1.2,1.2s0.6,1.2,1.2,1.2h6.8c0.7,0,1.2-0.6,1.2-1.2S37,54.7,36.3,54.7z"
					/>
				<path fill="#FFFFFF" d="M72.8,38.3c0-0.7-0.6-1.2-1.2-1.2h-6.8c-0.7,0-1.2,0.6-1.2,1.2s0.6,1.2,1.2,1.2h6.8
					C72.3,39.5,72.8,39,72.8,38.3z"/>
				<path fill="#FFFFFF" d="M63.5,55.9c0,0.7,0.6,1.2,1.2,1.2h6.8c0.7,0,1.2-0.6,1.2-1.2s-0.6-1.2-1.2-1.2h-6.8
					C64,54.7,63.5,55.2,63.5,55.9z"/>
				<path fill="#FFFFFF" d="M23,40.6c0.6,0,1.1-0.5,1.1-1.2l0-6h52.4v7.1h0c0,0,0,0,0,0c0,0.6,0.5,1.2,1.2,1.2s1.1-0.5,1.1-1.2
					l0-8.2c0-0.6-0.5-1.1-1.2-1.1H23c-0.6,0-1.2,0.5-1.2,1.1l0,7.1C21.8,40.1,22.3,40.6,23,40.6z"/>
				<path fill="#FFFFFF" d="M77.6,54.3c-0.6,0-1.2,0.5-1.2,1.2c0,0,0,0,0,0h0v4.9H24.1l0-6c0-0.6-0.5-1.2-1.2-1.2
					c-0.6,0-1.2,0.5-1.2,1.2v7.2v11.6c0,0.6,0.5,1.1,1.2,1.1h54.7c0.6,0,1.2-0.5,1.2-1.1V61.5l0-6C78.8,54.8,78.3,54.3,77.6,54.3z
					 M76.5,72H24.1v-3.3h52.3c0,0,0.1,0,0.1,0V72z M76.5,66.5c0,0-0.1,0-0.1,0H24.1v-3.8h52.4V66.5z"/>
				<path fill="#FFFFFF" d="M50,57.1c0,0.5,0.4,1,1,1s1-0.4,1-1v-2v0c2.6-0.3,4.2-2,4.2-4.5c0-2.6-2.5-3.7-4.2-4.3v0v-4.6
					c1.5,0.4,1.8,1.7,1.8,1.8c0.1,0.5,0.5,0.8,0.9,0.8l0.1,0c0.3,0,0.5-0.2,0.6-0.4s0.2-0.5,0.2-0.7c0,0-0.5-3-3.7-3.5v0v-1.9
					c0-0.5-0.4-1-1-1s-1,0.4-1,1v1.9v0.1c-2.8,0.4-3.6,2.5-3.6,3.8c0,1.8,1.2,3.1,3.6,4.2v5.5c-1.6-0.4-2.2-1.8-2.2-2.1
					c0-0.5-0.4-1-1-1s-1,0.4-1,1c0,1.2,1.4,3.6,4.2,4v0.1V57.1z M51.9,53.2v-4.8c1.4,0.6,2.3,1.2,2.3,2.3
					C54.1,52.4,52.9,53,51.9,53.2z M50,41.6v3.9c-1.5-0.8-1.7-1.5-1.7-2.1C48.3,43.2,48.4,42,50,41.6z"/>
			</g>
		</g>
	</g>
</g>
<g id="LABELS">
</g>
</svg>
