<?xml version="1.0" encoding="utf-8"?>
<!-- Generator: Adobe Illustrator 18.1.1, SVG Export Plug-In . SVG Version: 6.00 Build 0)  -->
<svg version="1.1" xmlns="http://www.w3.org/2000/svg" xmlns:xlink="http://www.w3.org/1999/xlink" x="0px" y="0px"
	 viewBox="0 0 100 100" enable-background="new 0 0 100 100" xml:space="preserve">
<g id="GUIDES">
</g>
<g id="ICONS_-_BLACK" display="none">
	<g display="inline">
		<g>
			<g>
				<path d="M84.1,24.5H15.9c-0.6,0-1.1,0.5-1.1,1.1v48c0,0.6,0.5,1.1,1.1,1.1h68.3c0.6,0,1.1-0.5,1.1-1.1v-48
					C85.3,25,84.8,24.5,84.1,24.5z M83,72.5H17v-3.7l65.5,0l0.1,0l0.4,0V72.5z M83,66.7l-0.3,0c0,0-0.1,0-0.1,0H17v-3.4h66V66.7z
					 M83,61H17V26.7h66V61z"/>
				<path d="M22,33.4h8.5c0.7,0,1.2-0.6,1.2-1.2s-0.6-1.2-1.2-1.2H22c-0.7,0-1.2,0.6-1.2,1.2S21.3,33.4,22,33.4z"/>
				<path d="M22,57.4h8.5c0.7,0,1.2-0.6,1.2-1.2s-0.6-1.2-1.2-1.2H22c-0.7,0-1.2,0.6-1.2,1.2S21.3,57.4,22,57.4z"/>
				<path d="M70,33.4h8.5c0.7,0,1.2-0.6,1.2-1.2s-0.6-1.2-1.2-1.2H70c-0.7,0-1.2,0.6-1.2,1.2S69.3,33.4,70,33.4z"/>
				<path d="M70,57.4h8.5c0.7,0,1.2-0.6,1.2-1.2s-0.6-1.2-1.2-1.2H70c-0.7,0-1.2,0.6-1.2,1.2S69.3,57.4,70,57.4z"/>
				<path d="M48.4,52.9L48.4,52.9v2.7c0,0.6,0.5,1,1,1s1-0.5,1-1v-2.7v0c3.2-0.4,5.2-2.4,5.2-5.5c0-3.2-3.1-4.5-5.2-5.3v0v-6.1
					c2.2,0.5,2.6,2.4,2.6,2.5c0.1,0.5,0.5,0.9,1,0.9l0.2,0c0.3,0,0.5-0.2,0.7-0.4c0.2-0.2,0.2-0.5,0.2-0.8c0,0-0.6-3.7-4.6-4.3v0
					v-2.6c0-0.6-0.5-1-1-1s-1,0.5-1,1v2.6v0c-3.6,0.4-4.5,3.1-4.5,4.6c0,2.2,1.5,3.9,4.5,5.1v7.2c-2.2-0.5-3.1-2.4-3.1-2.8
					c0-0.6-0.5-1-1-1s-1,0.5-1,1C43.2,49.4,45,52.4,48.4,52.9z M50.5,50.7v-6.5c2,0.8,3.1,1.7,3.1,3.1
					C53.7,49.3,52.6,50.4,50.5,50.7z M48.4,35.8v5.3c-2.2-1.1-2.4-2.1-2.4-2.8C46,38,46.1,36.2,48.4,35.8z"/>
			</g>
		</g>
	</g>
</g>
<g id="ICONS_-_DARK_PURPLE" display="none">
	<g display="inline">
		<g>
			<g>
				<path fill="#4F2556" d="M84.1,24.5H15.9c-0.6,0-1.1,0.5-1.1,1.1v48c0,0.6,0.5,1.1,1.1,1.1h68.3c0.6,0,1.1-0.5,1.1-1.1v-48
					C85.3,25,84.8,24.5,84.1,24.5z M83,72.5H17v-3.7l65.5,0l0.1,0l0.4,0V72.5z M83,66.7l-0.3,0c0,0-0.1,0-0.1,0H17v-3.4h66V66.7z
					 M83,61H17V26.7h66V61z"/>
				<path fill="#4F2556" d="M22,33.4h8.5c0.7,0,1.2-0.6,1.2-1.2s-0.6-1.2-1.2-1.2H22c-0.7,0-1.2,0.6-1.2,1.2S21.3,33.4,22,33.4z"/>
				<path fill="#4F2556" d="M22,57.4h8.5c0.7,0,1.2-0.6,1.2-1.2s-0.6-1.2-1.2-1.2H22c-0.7,0-1.2,0.6-1.2,1.2S21.3,57.4,22,57.4z"/>
				<path fill="#4F2556" d="M70,33.4h8.5c0.7,0,1.2-0.6,1.2-1.2s-0.6-1.2-1.2-1.2H70c-0.7,0-1.2,0.6-1.2,1.2S69.3,33.4,70,33.4z"/>
				<path fill="#4F2556" d="M70,57.4h8.5c0.7,0,1.2-0.6,1.2-1.2s-0.6-1.2-1.2-1.2H70c-0.7,0-1.2,0.6-1.2,1.2S69.3,57.4,70,57.4z"/>
				<path fill="#4F2556" d="M48.4,52.9L48.4,52.9v2.7c0,0.6,0.5,1,1,1s1-0.5,1-1v-2.7v0c3.2-0.4,5.2-2.4,5.2-5.5
					c0-3.2-3.1-4.5-5.2-5.3v0v-6.1c2.2,0.5,2.6,2.4,2.6,2.5c0.1,0.5,0.5,0.9,1,0.9l0.2,0c0.3,0,0.5-0.2,0.7-0.4
					c0.2-0.2,0.2-0.5,0.2-0.8c0,0-0.6-3.7-4.6-4.3v0v-2.6c0-0.6-0.5-1-1-1s-1,0.5-1,1v2.6v0c-3.6,0.4-4.5,3.1-4.5,4.6
					c0,2.2,1.5,3.9,4.5,5.1v7.2c-2.2-0.5-3.1-2.4-3.1-2.8c0-0.6-0.5-1-1-1s-1,0.5-1,1C43.2,49.4,45,52.4,48.4,52.9z M50.5,50.7v-6.5
					c2,0.8,3.1,1.7,3.1,3.1C53.7,49.3,52.6,50.4,50.5,50.7z M48.4,35.8v5.3c-2.2-1.1-2.4-2.1-2.4-2.8C46,38,46.1,36.2,48.4,35.8z"/>
			</g>
		</g>
	</g>
</g>
<g id="ICONS_-_WARM_GREY" display="none">
	<g display="inline">
		<g>
			<g>
				<path fill="#534C63" d="M84.1,24.5H15.9c-0.6,0-1.1,0.5-1.1,1.1v48c0,0.6,0.5,1.1,1.1,1.1h68.3c0.6,0,1.1-0.5,1.1-1.1v-48
					C85.3,25,84.8,24.5,84.1,24.5z M83,72.5H17v-3.7l65.5,0l0.1,0l0.4,0V72.5z M83,66.7l-0.3,0c0,0-0.1,0-0.1,0H17v-3.4h66V66.7z
					 M83,61H17V26.7h66V61z"/>
				<path fill="#534C63" d="M22,33.4h8.5c0.7,0,1.2-0.6,1.2-1.2s-0.6-1.2-1.2-1.2H22c-0.7,0-1.2,0.6-1.2,1.2S21.3,33.4,22,33.4z"/>
				<path fill="#534C63" d="M22,57.4h8.5c0.7,0,1.2-0.6,1.2-1.2s-0.6-1.2-1.2-1.2H22c-0.7,0-1.2,0.6-1.2,1.2S21.3,57.4,22,57.4z"/>
				<path fill="#534C63" d="M70,33.4h8.5c0.7,0,1.2-0.6,1.2-1.2s-0.6-1.2-1.2-1.2H70c-0.7,0-1.2,0.6-1.2,1.2S69.3,33.4,70,33.4z"/>
				<path fill="#534C63" d="M70,57.4h8.5c0.7,0,1.2-0.6,1.2-1.2s-0.6-1.2-1.2-1.2H70c-0.7,0-1.2,0.6-1.2,1.2S69.3,57.4,70,57.4z"/>
				<path fill="#534C63" d="M48.4,52.9L48.4,52.9v2.7c0,0.6,0.5,1,1,1s1-0.5,1-1v-2.7v0c3.2-0.4,5.2-2.4,5.2-5.5
					c0-3.2-3.1-4.5-5.2-5.3v0v-6.1c2.2,0.5,2.6,2.4,2.6,2.5c0.1,0.5,0.5,0.9,1,0.9l0.2,0c0.3,0,0.5-0.2,0.7-0.4
					c0.2-0.2,0.2-0.5,0.2-0.8c0,0-0.6-3.7-4.6-4.3v0v-2.6c0-0.6-0.5-1-1-1s-1,0.5-1,1v2.6v0c-3.6,0.4-4.5,3.1-4.5,4.6
					c0,2.2,1.5,3.9,4.5,5.1v7.2c-2.2-0.5-3.1-2.4-3.1-2.8c0-0.6-0.5-1-1-1s-1,0.5-1,1C43.2,49.4,45,52.4,48.4,52.9z M50.5,50.7v-6.5
					c2,0.8,3.1,1.7,3.1,3.1C53.7,49.3,52.6,50.4,50.5,50.7z M48.4,35.8v5.3c-2.2-1.1-2.4-2.1-2.4-2.8C46,38,46.1,36.2,48.4,35.8z"/>
			</g>
		</g>
	</g>
</g>
<g id="ICONS_-_SKRILL_TEAL" display="none">
	<g display="inline">
		<g>
			<g>
				<path fill="#41AEB5" d="M84.1,24.5H15.9c-0.6,0-1.1,0.5-1.1,1.1v48c0,0.6,0.5,1.1,1.1,1.1h68.3c0.6,0,1.1-0.5,1.1-1.1v-48
					C85.3,25,84.8,24.5,84.1,24.5z M83,72.5H17v-3.7l65.5,0l0.1,0l0.4,0V72.5z M83,66.7l-0.3,0c0,0-0.1,0-0.1,0H17v-3.4h66V66.7z
					 M83,61H17V26.7h66V61z"/>
				<path fill="#41AEB5" d="M22,33.4h8.5c0.7,0,1.2-0.6,1.2-1.2s-0.6-1.2-1.2-1.2H22c-0.7,0-1.2,0.6-1.2,1.2S21.3,33.4,22,33.4z"/>
				<path fill="#41AEB5" d="M22,57.4h8.5c0.7,0,1.2-0.6,1.2-1.2s-0.6-1.2-1.2-1.2H22c-0.7,0-1.2,0.6-1.2,1.2S21.3,57.4,22,57.4z"/>
				<path fill="#41AEB5" d="M70,33.4h8.5c0.7,0,1.2-0.6,1.2-1.2s-0.6-1.2-1.2-1.2H70c-0.7,0-1.2,0.6-1.2,1.2S69.3,33.4,70,33.4z"/>
				<path fill="#41AEB5" d="M70,57.4h8.5c0.7,0,1.2-0.6,1.2-1.2s-0.6-1.2-1.2-1.2H70c-0.7,0-1.2,0.6-1.2,1.2S69.3,57.4,70,57.4z"/>
				<path fill="#41AEB5" d="M48.4,52.9L48.4,52.9v2.7c0,0.6,0.5,1,1,1s1-0.5,1-1v-2.7v0c3.2-0.4,5.2-2.4,5.2-5.5
					c0-3.2-3.1-4.5-5.2-5.3v0v-6.1c2.2,0.5,2.6,2.4,2.6,2.5c0.1,0.5,0.5,0.9,1,0.9l0.2,0c0.3,0,0.5-0.2,0.7-0.4
					c0.2-0.2,0.2-0.5,0.2-0.8c0,0-0.6-3.7-4.6-4.3v0v-2.6c0-0.6-0.5-1-1-1s-1,0.5-1,1v2.6v0c-3.6,0.4-4.5,3.1-4.5,4.6
					c0,2.2,1.5,3.9,4.5,5.1v7.2c-2.2-0.5-3.1-2.4-3.1-2.8c0-0.6-0.5-1-1-1s-1,0.5-1,1C43.2,49.4,45,52.4,48.4,52.9z M50.5,50.7v-6.5
					c2,0.8,3.1,1.7,3.1,3.1C53.7,49.3,52.6,50.4,50.5,50.7z M48.4,35.8v5.3c-2.2-1.1-2.4-2.1-2.4-2.8C46,38,46.1,36.2,48.4,35.8z"/>
			</g>
		</g>
	</g>
</g>
<g id="ICONS_-_SKRILL_PURPLE">
	<g>
		<g>
			<g>
				<path fill="#811E68" d="M84.1,24.5H15.9c-0.6,0-1.1,0.5-1.1,1.1v48c0,0.6,0.5,1.1,1.1,1.1h68.3c0.6,0,1.1-0.5,1.1-1.1v-48
					C85.3,25,84.8,24.5,84.1,24.5z M83,72.5H17v-3.7l65.5,0l0.1,0l0.4,0V72.5z M83,66.7l-0.3,0c0,0-0.1,0-0.1,0H17v-3.4h66V66.7z
					 M83,61H17V26.7h66V61z"/>
				<path fill="#811E68" d="M22,33.4h8.5c0.7,0,1.2-0.6,1.2-1.2s-0.6-1.2-1.2-1.2H22c-0.7,0-1.2,0.6-1.2,1.2S21.3,33.4,22,33.4z"/>
				<path fill="#811E68" d="M22,57.4h8.5c0.7,0,1.2-0.6,1.2-1.2s-0.6-1.2-1.2-1.2H22c-0.7,0-1.2,0.6-1.2,1.2S21.3,57.4,22,57.4z"/>
				<path fill="#811E68" d="M70,33.4h8.5c0.7,0,1.2-0.6,1.2-1.2s-0.6-1.2-1.2-1.2H70c-0.7,0-1.2,0.6-1.2,1.2S69.3,33.4,70,33.4z"/>
				<path fill="#811E68" d="M70,57.4h8.5c0.7,0,1.2-0.6,1.2-1.2s-0.6-1.2-1.2-1.2H70c-0.7,0-1.2,0.6-1.2,1.2S69.3,57.4,70,57.4z"/>
				<path fill="#811E68" d="M48.4,52.9L48.4,52.9v2.7c0,0.6,0.5,1,1,1s1-0.5,1-1v-2.7v0c3.2-0.4,5.2-2.4,5.2-5.5
					c0-3.2-3.1-4.5-5.2-5.3v0v-6.1c2.2,0.5,2.6,2.4,2.6,2.5c0.1,0.5,0.5,0.9,1,0.9l0.2,0c0.3,0,0.5-0.2,0.7-0.4
					c0.2-0.2,0.2-0.5,0.2-0.8c0,0-0.6-3.7-4.6-4.3v0v-2.6c0-0.6-0.5-1-1-1s-1,0.5-1,1v2.6v0c-3.6,0.4-4.5,3.1-4.5,4.6
					c0,2.2,1.5,3.9,4.5,5.1v7.2c-2.2-0.5-3.1-2.4-3.1-2.8c0-0.6-0.5-1-1-1s-1,0.5-1,1C43.2,49.4,45,52.4,48.4,52.9z M50.5,50.7v-6.5
					c2,0.8,3.1,1.7,3.1,3.1C53.7,49.3,52.6,50.4,50.5,50.7z M48.4,35.8v5.3c-2.2-1.1-2.4-2.1-2.4-2.8C46,38,46.1,36.2,48.4,35.8z"/>
			</g>
		</g>
	</g>
</g>
<g id="ICONS_-_WHITE" display="none">
	<g display="inline">
		<g>
			<g>
				<path fill="#FFFFFF" d="M84.1,24.5H15.9c-0.6,0-1.1,0.5-1.1,1.1v48c0,0.6,0.5,1.1,1.1,1.1h68.3c0.6,0,1.1-0.5,1.1-1.1v-48
					C85.3,25,84.8,24.5,84.1,24.5z M83,72.5H17v-3.7l65.5,0l0.1,0l0.4,0V72.5z M83,66.7l-0.3,0c0,0-0.1,0-0.1,0H17v-3.4h66V66.7z
					 M83,61H17V26.7h66V61z"/>
				<path fill="#FFFFFF" d="M22,33.4h8.5c0.7,0,1.2-0.6,1.2-1.2s-0.6-1.2-1.2-1.2H22c-0.7,0-1.2,0.6-1.2,1.2S21.3,33.4,22,33.4z"/>
				<path fill="#FFFFFF" d="M22,57.4h8.5c0.7,0,1.2-0.6,1.2-1.2s-0.6-1.2-1.2-1.2H22c-0.7,0-1.2,0.6-1.2,1.2S21.3,57.4,22,57.4z"/>
				<path fill="#FFFFFF" d="M70,33.4h8.5c0.7,0,1.2-0.6,1.2-1.2s-0.6-1.2-1.2-1.2H70c-0.7,0-1.2,0.6-1.2,1.2S69.3,33.4,70,33.4z"/>
				<path fill="#FFFFFF" d="M70,57.4h8.5c0.7,0,1.2-0.6,1.2-1.2s-0.6-1.2-1.2-1.2H70c-0.7,0-1.2,0.6-1.2,1.2S69.3,57.4,70,57.4z"/>
				<path fill="#FFFFFF" d="M48.4,52.9L48.4,52.9v2.7c0,0.6,0.5,1,1,1s1-0.5,1-1v-2.7v0c3.2-0.4,5.2-2.4,5.2-5.5
					c0-3.2-3.1-4.5-5.2-5.3v0v-6.1c2.2,0.5,2.6,2.4,2.6,2.5c0.1,0.5,0.5,0.9,1,0.9l0.2,0c0.3,0,0.5-0.2,0.7-0.4
					c0.2-0.2,0.2-0.5,0.2-0.8c0,0-0.6-3.7-4.6-4.3v0v-2.6c0-0.6-0.5-1-1-1s-1,0.5-1,1v2.6v0c-3.6,0.4-4.5,3.1-4.5,4.6
					c0,2.2,1.5,3.9,4.5,5.1v7.2c-2.2-0.5-3.1-2.4-3.1-2.8c0-0.6-0.5-1-1-1s-1,0.5-1,1C43.2,49.4,45,52.4,48.4,52.9z M50.5,50.7v-6.5
					c2,0.8,3.1,1.7,3.1,3.1C53.7,49.3,52.6,50.4,50.5,50.7z M48.4,35.8v5.3c-2.2-1.1-2.4-2.1-2.4-2.8C46,38,46.1,36.2,48.4,35.8z"/>
			</g>
		</g>
	</g>
</g>
<g id="LABELS">
</g>
</svg>
