<?xml version="1.0" encoding="utf-8"?>
<!-- Generator: Adobe Illustrator 18.1.1, SVG Export Plug-In . SVG Version: 6.00 Build 0)  -->
<svg version="1.1" xmlns="http://www.w3.org/2000/svg" xmlns:xlink="http://www.w3.org/1999/xlink" x="0px" y="0px"
	 viewBox="0 0 100 100" enable-background="new 0 0 100 100" xml:space="preserve">
<g id="GUIDES">
</g>
<g id="ICONS_-_BLACK" display="none">
	<g display="inline">
		<g>
			<path d="M86,49.8c0-1.3-0.5-2.6-1.4-3.5l-9.5-9.5c-0.2-0.2-0.6-0.4-0.9-0.4c-0.1,0-0.2,0-0.4,0.1c-0.4,0.1-0.8,0.5-0.9,0.9
				c-0.4,1.7-1.2,3.3-2.4,4.5c-1.7,1.7-4,2.6-6.4,2.6c-2.4,0-4.7-0.9-6.4-2.6c-1.6-1.6-2.6-4-2.6-6.4c0-2.4,0.9-4.8,2.6-6.4
				c1.2-1.2,2.8-2.1,4.5-2.4c0.5-0.1,0.8-0.4,0.9-0.9c0.1-0.4,0-0.9-0.3-1.3l-8.5-8.5c-0.9-0.9-2.2-1.4-3.5-1.4
				c-1.3,0-2.5,0.5-3.5,1.4l-8.4,8.4L39,23.9c-0.5-2.1-1.5-4-3-5.5c-2.2-2.2-5.1-3.4-8.2-3.4s-6,1.2-8.2,3.4
				c-2.1,2.1-3.3,5.1-3.3,8.2c0,3.1,1.2,6.1,3.3,8.2c1.5,1.5,3.4,2.6,5.5,3l0.6,0.1l-8.4,8.4c-0.9,0.9-1.4,2.1-1.4,3.5
				c0,1.3,0.5,2.6,1.4,3.5l8.5,8.5c0.2,0.2,0.6,0.4,0.9,0.4c0.1,0,0.2,0,0.4-0.1c0.4-0.1,0.8-0.5,0.9-0.9c0.4-1.7,1.2-3.3,2.4-4.5
				c1.7-1.7,4-2.6,6.4-2.6s4.7,0.9,6.4,2.6c1.6,1.6,2.6,4,2.6,6.4c0,2.4-0.9,4.8-2.6,6.4c-1.2,1.2-2.8,2.1-4.5,2.4
				c-0.5,0.1-0.8,0.4-0.9,0.9c-0.1,0.4,0,0.9,0.3,1.3l9.5,9.5c0.9,0.9,2.2,1.5,3.5,1.5c1.3,0,2.5-0.5,3.5-1.4l8.4-8.4l0.1,0.6
				c0.5,2.1,1.5,4,3,5.5c2.2,2.2,5.1,3.4,8.2,3.4c3.1,0,6-1.2,8.2-3.4c2.1-2.1,3.3-5.1,3.3-8.2c0-3.1-1.2-6.1-3.3-8.2
				c-1.5-1.5-3.4-2.6-5.5-3l-0.6-0.1l8.4-8.4C85.5,52.4,86,51.1,86,49.8z M82.8,51.5L72.4,61.9c-0.4,0.4-0.5,0.9-0.3,1.4
				c0.2,0.4,0.7,0.7,1.1,0.7l0.1,0c0.2,0,0.5,0,0.7,0c2.4,0,4.7,0.9,6.4,2.6c3.4,3.4,3.4,9.4,0,12.8c-1.7,1.7-4,2.6-6.4,2.6
				c-2.4,0-4.7-0.9-6.4-2.6c-1.8-1.8-2.8-4.4-2.6-7.1c0-0.5-0.3-1-0.7-1.2c-0.2-0.1-0.3-0.1-0.5-0.1c-0.3,0-0.7,0.1-0.9,0.4
				L52.6,81.7c-0.4,0.5-1,0.7-1.7,0.7c-0.6,0-1.2-0.3-1.7-0.7l-8-8l0.4-0.2c1.2-0.6,2.3-1.3,3.3-2.3c2.1-2.1,3.3-5.1,3.3-8.2
				c0-3.1-1.2-6.1-3.3-8.2c-2.2-2.2-5.1-3.4-8.2-3.4c-3.1,0-6,1.2-8.2,3.4c-0.9,0.9-1.7,2-2.3,3.3l-0.2,0.4l-7-7
				c-0.9-0.9-0.9-2.5,0-3.4l10.4-10.4c0.4-0.4,0.5-0.9,0.3-1.4c-0.2-0.5-0.7-0.7-1.2-0.7c-0.2,0-0.5,0-0.7,0c-2.4,0-4.7-0.9-6.4-2.6
				c-3.4-3.4-3.4-9.4,0-12.8c1.7-1.7,4-2.6,6.4-2.6c2.4,0,4.7,0.9,6.4,2.6c1.8,1.8,2.8,4.4,2.6,7.1c0,0.5,0.3,1,0.7,1.2
				c0.2,0.1,0.3,0.1,0.5,0.1c0.3,0,0.7-0.1,0.9-0.4l10.4-10.4c0.4-0.5,1-0.7,1.7-0.7c0.6,0,1.2,0.3,1.7,0.7l7,7l-0.4,0.2
				c-1.2,0.6-2.3,1.3-3.3,2.3c-2.1,2.1-3.3,5.1-3.3,8.2c0,3.1,1.2,6.1,3.3,8.2c2.2,2.2,5.1,3.4,8.2,3.4c3.1,0,6-1.2,8.2-3.4
				c0.9-0.9,1.7-2,2.3-3.3l0.2-0.4l8,8C83.7,49,83.7,50.6,82.8,51.5z"/>
		</g>
	</g>
</g>
<g id="ICONS_-_DARK_PURPLE" display="none">
	<g display="inline">
		<g>
			<path fill="#4F2556" d="M86,49.8c0-1.3-0.5-2.6-1.4-3.5l-9.5-9.5c-0.2-0.2-0.6-0.4-0.9-0.4c-0.1,0-0.2,0-0.4,0.1
				c-0.4,0.1-0.8,0.5-0.9,0.9c-0.4,1.7-1.2,3.3-2.4,4.5c-1.7,1.7-4,2.6-6.4,2.6c-2.4,0-4.7-0.9-6.4-2.6c-1.6-1.6-2.6-4-2.6-6.4
				c0-2.4,0.9-4.8,2.6-6.4c1.2-1.2,2.8-2.1,4.5-2.4c0.5-0.1,0.8-0.4,0.9-0.9c0.1-0.4,0-0.9-0.3-1.3l-8.5-8.5
				c-0.9-0.9-2.2-1.4-3.5-1.4c-1.3,0-2.5,0.5-3.5,1.4l-8.4,8.4L39,23.9c-0.5-2.1-1.5-4-3-5.5c-2.2-2.2-5.1-3.4-8.2-3.4
				s-6,1.2-8.2,3.4c-2.1,2.1-3.3,5.1-3.3,8.2c0,3.1,1.2,6.1,3.3,8.2c1.5,1.5,3.4,2.6,5.5,3l0.6,0.1l-8.4,8.4
				c-0.9,0.9-1.4,2.1-1.4,3.5c0,1.3,0.5,2.6,1.4,3.5l8.5,8.5c0.2,0.2,0.6,0.4,0.9,0.4c0.1,0,0.2,0,0.4-0.1c0.4-0.1,0.8-0.5,0.9-0.9
				c0.4-1.7,1.2-3.3,2.4-4.5c1.7-1.7,4-2.6,6.4-2.6s4.7,0.9,6.4,2.6c1.6,1.6,2.6,4,2.6,6.4c0,2.4-0.9,4.8-2.6,6.4
				c-1.2,1.2-2.8,2.1-4.5,2.4c-0.5,0.1-0.8,0.4-0.9,0.9c-0.1,0.4,0,0.9,0.3,1.3l9.5,9.5c0.9,0.9,2.2,1.5,3.5,1.5
				c1.3,0,2.5-0.5,3.5-1.4l8.4-8.4l0.1,0.6c0.5,2.1,1.5,4,3,5.5c2.2,2.2,5.1,3.4,8.2,3.4c3.1,0,6-1.2,8.2-3.4
				c2.1-2.1,3.3-5.1,3.3-8.2c0-3.1-1.2-6.1-3.3-8.2c-1.5-1.5-3.4-2.6-5.5-3l-0.6-0.1l8.4-8.4C85.5,52.4,86,51.1,86,49.8z M82.8,51.5
				L72.4,61.9c-0.4,0.4-0.5,0.9-0.3,1.4c0.2,0.4,0.7,0.7,1.1,0.7l0.1,0c0.2,0,0.5,0,0.7,0c2.4,0,4.7,0.9,6.4,2.6
				c3.4,3.4,3.4,9.4,0,12.8c-1.7,1.7-4,2.6-6.4,2.6c-2.4,0-4.7-0.9-6.4-2.6c-1.8-1.8-2.8-4.4-2.6-7.1c0-0.5-0.3-1-0.7-1.2
				c-0.2-0.1-0.3-0.1-0.5-0.1c-0.3,0-0.7,0.1-0.9,0.4L52.6,81.7c-0.4,0.5-1,0.7-1.7,0.7c-0.6,0-1.2-0.3-1.7-0.7l-8-8l0.4-0.2
				c1.2-0.6,2.3-1.3,3.3-2.3c2.1-2.1,3.3-5.1,3.3-8.2c0-3.1-1.2-6.1-3.3-8.2c-2.2-2.2-5.1-3.4-8.2-3.4c-3.1,0-6,1.2-8.2,3.4
				c-0.9,0.9-1.7,2-2.3,3.3l-0.2,0.4l-7-7c-0.9-0.9-0.9-2.5,0-3.4l10.4-10.4c0.4-0.4,0.5-0.9,0.3-1.4c-0.2-0.5-0.7-0.7-1.2-0.7
				c-0.2,0-0.5,0-0.7,0c-2.4,0-4.7-0.9-6.4-2.6c-3.4-3.4-3.4-9.4,0-12.8c1.7-1.7,4-2.6,6.4-2.6c2.4,0,4.7,0.9,6.4,2.6
				c1.8,1.8,2.8,4.4,2.6,7.1c0,0.5,0.3,1,0.7,1.2c0.2,0.1,0.3,0.1,0.5,0.1c0.3,0,0.7-0.1,0.9-0.4l10.4-10.4c0.4-0.5,1-0.7,1.7-0.7
				c0.6,0,1.2,0.3,1.7,0.7l7,7l-0.4,0.2c-1.2,0.6-2.3,1.3-3.3,2.3c-2.1,2.1-3.3,5.1-3.3,8.2c0,3.1,1.2,6.1,3.3,8.2
				c2.2,2.2,5.1,3.4,8.2,3.4c3.1,0,6-1.2,8.2-3.4c0.9-0.9,1.7-2,2.3-3.3l0.2-0.4l8,8C83.7,49,83.7,50.6,82.8,51.5z"/>
		</g>
	</g>
</g>
<g id="ICONS_-_WARM_GREY" display="none">
	<g display="inline">
		<g>
			<path fill="#534C63" d="M86,49.8c0-1.3-0.5-2.6-1.4-3.5l-9.5-9.5c-0.2-0.2-0.6-0.4-0.9-0.4c-0.1,0-0.2,0-0.4,0.1
				c-0.4,0.1-0.8,0.5-0.9,0.9c-0.4,1.7-1.2,3.3-2.4,4.5c-1.7,1.7-4,2.6-6.4,2.6c-2.4,0-4.7-0.9-6.4-2.6c-1.6-1.6-2.6-4-2.6-6.4
				c0-2.4,0.9-4.8,2.6-6.4c1.2-1.2,2.8-2.1,4.5-2.4c0.5-0.1,0.8-0.4,0.9-0.9c0.1-0.4,0-0.9-0.3-1.3l-8.5-8.5
				c-0.9-0.9-2.2-1.4-3.5-1.4c-1.3,0-2.5,0.5-3.5,1.4l-8.4,8.4L39,23.9c-0.5-2.1-1.5-4-3-5.5c-2.2-2.2-5.1-3.4-8.2-3.4
				s-6,1.2-8.2,3.4c-2.1,2.1-3.3,5.1-3.3,8.2c0,3.1,1.2,6.1,3.3,8.2c1.5,1.5,3.4,2.6,5.5,3l0.6,0.1l-8.4,8.4
				c-0.9,0.9-1.4,2.1-1.4,3.5c0,1.3,0.5,2.6,1.4,3.5l8.5,8.5c0.2,0.2,0.6,0.4,0.9,0.4c0.1,0,0.2,0,0.4-0.1c0.4-0.1,0.8-0.5,0.9-0.9
				c0.4-1.7,1.2-3.3,2.4-4.5c1.7-1.7,4-2.6,6.4-2.6s4.7,0.9,6.4,2.6c1.6,1.6,2.6,4,2.6,6.4c0,2.4-0.9,4.8-2.6,6.4
				c-1.2,1.2-2.8,2.1-4.5,2.4c-0.5,0.1-0.8,0.4-0.9,0.9c-0.1,0.4,0,0.9,0.3,1.3l9.5,9.5c0.9,0.9,2.2,1.5,3.5,1.5
				c1.3,0,2.5-0.5,3.5-1.4l8.4-8.4l0.1,0.6c0.5,2.1,1.5,4,3,5.5c2.2,2.2,5.1,3.4,8.2,3.4c3.1,0,6-1.2,8.2-3.4
				c2.1-2.1,3.3-5.1,3.3-8.2c0-3.1-1.2-6.1-3.3-8.2c-1.5-1.5-3.4-2.6-5.5-3l-0.6-0.1l8.4-8.4C85.5,52.4,86,51.1,86,49.8z M82.8,51.5
				L72.4,61.9c-0.4,0.4-0.5,0.9-0.3,1.4c0.2,0.4,0.7,0.7,1.1,0.7l0.1,0c0.2,0,0.5,0,0.7,0c2.4,0,4.7,0.9,6.4,2.6
				c3.4,3.4,3.4,9.4,0,12.8c-1.7,1.7-4,2.6-6.4,2.6c-2.4,0-4.7-0.9-6.4-2.6c-1.8-1.8-2.8-4.4-2.6-7.1c0-0.5-0.3-1-0.7-1.2
				c-0.2-0.1-0.3-0.1-0.5-0.1c-0.3,0-0.7,0.1-0.9,0.4L52.6,81.7c-0.4,0.5-1,0.7-1.7,0.7c-0.6,0-1.2-0.3-1.7-0.7l-8-8l0.4-0.2
				c1.2-0.6,2.3-1.3,3.3-2.3c2.1-2.1,3.3-5.1,3.3-8.2c0-3.1-1.2-6.1-3.3-8.2c-2.2-2.2-5.1-3.4-8.2-3.4c-3.1,0-6,1.2-8.2,3.4
				c-0.9,0.9-1.7,2-2.3,3.3l-0.2,0.4l-7-7c-0.9-0.9-0.9-2.5,0-3.4l10.4-10.4c0.4-0.4,0.5-0.9,0.3-1.4c-0.2-0.5-0.7-0.7-1.2-0.7
				c-0.2,0-0.5,0-0.7,0c-2.4,0-4.7-0.9-6.4-2.6c-3.4-3.4-3.4-9.4,0-12.8c1.7-1.7,4-2.6,6.4-2.6c2.4,0,4.7,0.9,6.4,2.6
				c1.8,1.8,2.8,4.4,2.6,7.1c0,0.5,0.3,1,0.7,1.2c0.2,0.1,0.3,0.1,0.5,0.1c0.3,0,0.7-0.1,0.9-0.4l10.4-10.4c0.4-0.5,1-0.7,1.7-0.7
				c0.6,0,1.2,0.3,1.7,0.7l7,7l-0.4,0.2c-1.2,0.6-2.3,1.3-3.3,2.3c-2.1,2.1-3.3,5.1-3.3,8.2c0,3.1,1.2,6.1,3.3,8.2
				c2.2,2.2,5.1,3.4,8.2,3.4c3.1,0,6-1.2,8.2-3.4c0.9-0.9,1.7-2,2.3-3.3l0.2-0.4l8,8C83.7,49,83.7,50.6,82.8,51.5z"/>
		</g>
	</g>
</g>
<g id="ICONS_-_SKRILL_TEAL" display="none">
	<g display="inline">
		<g>
			<path fill="#41AEB5" d="M86,49.8c0-1.3-0.5-2.6-1.4-3.5l-9.5-9.5c-0.2-0.2-0.6-0.4-0.9-0.4c-0.1,0-0.2,0-0.4,0.1
				c-0.4,0.1-0.8,0.5-0.9,0.9c-0.4,1.7-1.2,3.3-2.4,4.5c-1.7,1.7-4,2.6-6.4,2.6c-2.4,0-4.7-0.9-6.4-2.6c-1.6-1.6-2.6-4-2.6-6.4
				c0-2.4,0.9-4.8,2.6-6.4c1.2-1.2,2.8-2.1,4.5-2.4c0.5-0.1,0.8-0.4,0.9-0.9c0.1-0.4,0-0.9-0.3-1.3l-8.5-8.5
				c-0.9-0.9-2.2-1.4-3.5-1.4c-1.3,0-2.5,0.5-3.5,1.4l-8.4,8.4L39,23.9c-0.5-2.1-1.5-4-3-5.5c-2.2-2.2-5.1-3.4-8.2-3.4
				s-6,1.2-8.2,3.4c-2.1,2.1-3.3,5.1-3.3,8.2c0,3.1,1.2,6.1,3.3,8.2c1.5,1.5,3.4,2.6,5.5,3l0.6,0.1l-8.4,8.4
				c-0.9,0.9-1.4,2.1-1.4,3.5c0,1.3,0.5,2.6,1.4,3.5l8.5,8.5c0.2,0.2,0.6,0.4,0.9,0.4c0.1,0,0.2,0,0.4-0.1c0.4-0.1,0.8-0.5,0.9-0.9
				c0.4-1.7,1.2-3.3,2.4-4.5c1.7-1.7,4-2.6,6.4-2.6s4.7,0.9,6.4,2.6c1.6,1.6,2.6,4,2.6,6.4c0,2.4-0.9,4.8-2.6,6.4
				c-1.2,1.2-2.8,2.1-4.5,2.4c-0.5,0.1-0.8,0.4-0.9,0.9c-0.1,0.4,0,0.9,0.3,1.3l9.5,9.5c0.9,0.9,2.2,1.5,3.5,1.5
				c1.3,0,2.5-0.5,3.5-1.4l8.4-8.4l0.1,0.6c0.5,2.1,1.5,4,3,5.5c2.2,2.2,5.1,3.4,8.2,3.4c3.1,0,6-1.2,8.2-3.4
				c2.1-2.1,3.3-5.1,3.3-8.2c0-3.1-1.2-6.1-3.3-8.2c-1.5-1.5-3.4-2.6-5.5-3l-0.6-0.1l8.4-8.4C85.5,52.4,86,51.1,86,49.8z M82.8,51.5
				L72.4,61.9c-0.4,0.4-0.5,0.9-0.3,1.4c0.2,0.4,0.7,0.7,1.1,0.7l0.1,0c0.2,0,0.5,0,0.7,0c2.4,0,4.7,0.9,6.4,2.6
				c3.4,3.4,3.4,9.4,0,12.8c-1.7,1.7-4,2.6-6.4,2.6c-2.4,0-4.7-0.9-6.4-2.6c-1.8-1.8-2.8-4.4-2.6-7.1c0-0.5-0.3-1-0.7-1.2
				c-0.2-0.1-0.3-0.1-0.5-0.1c-0.3,0-0.7,0.1-0.9,0.4L52.6,81.7c-0.4,0.5-1,0.7-1.7,0.7c-0.6,0-1.2-0.3-1.7-0.7l-8-8l0.4-0.2
				c1.2-0.6,2.3-1.3,3.3-2.3c2.1-2.1,3.3-5.1,3.3-8.2c0-3.1-1.2-6.1-3.3-8.2c-2.2-2.2-5.1-3.4-8.2-3.4c-3.1,0-6,1.2-8.2,3.4
				c-0.9,0.9-1.7,2-2.3,3.3l-0.2,0.4l-7-7c-0.9-0.9-0.9-2.5,0-3.4l10.4-10.4c0.4-0.4,0.5-0.9,0.3-1.4c-0.2-0.5-0.7-0.7-1.2-0.7
				c-0.2,0-0.5,0-0.7,0c-2.4,0-4.7-0.9-6.4-2.6c-3.4-3.4-3.4-9.4,0-12.8c1.7-1.7,4-2.6,6.4-2.6c2.4,0,4.7,0.9,6.4,2.6
				c1.8,1.8,2.8,4.4,2.6,7.1c0,0.5,0.3,1,0.7,1.2c0.2,0.1,0.3,0.1,0.5,0.1c0.3,0,0.7-0.1,0.9-0.4l10.4-10.4c0.4-0.5,1-0.7,1.7-0.7
				c0.6,0,1.2,0.3,1.7,0.7l7,7l-0.4,0.2c-1.2,0.6-2.3,1.3-3.3,2.3c-2.1,2.1-3.3,5.1-3.3,8.2c0,3.1,1.2,6.1,3.3,8.2
				c2.2,2.2,5.1,3.4,8.2,3.4c3.1,0,6-1.2,8.2-3.4c0.9-0.9,1.7-2,2.3-3.3l0.2-0.4l8,8C83.7,49,83.7,50.6,82.8,51.5z"/>
		</g>
	</g>
</g>
<g id="ICONS_-_SKRILL_PURPLE">
	<g>
		<g>
			<path fill="#811E68" d="M86,49.8c0-1.3-0.5-2.6-1.4-3.5l-9.5-9.5c-0.2-0.2-0.6-0.4-0.9-0.4c-0.1,0-0.2,0-0.4,0.1
				c-0.4,0.1-0.8,0.5-0.9,0.9c-0.4,1.7-1.2,3.3-2.4,4.5c-1.7,1.7-4,2.6-6.4,2.6c-2.4,0-4.7-0.9-6.4-2.6c-1.6-1.6-2.6-4-2.6-6.4
				c0-2.4,0.9-4.8,2.6-6.4c1.2-1.2,2.8-2.1,4.5-2.4c0.5-0.1,0.8-0.4,0.9-0.9c0.1-0.4,0-0.9-0.3-1.3l-8.5-8.5
				c-0.9-0.9-2.2-1.4-3.5-1.4c-1.3,0-2.5,0.5-3.5,1.4l-8.4,8.4L39,23.9c-0.5-2.1-1.5-4-3-5.5c-2.2-2.2-5.1-3.4-8.2-3.4
				s-6,1.2-8.2,3.4c-2.1,2.1-3.3,5.1-3.3,8.2c0,3.1,1.2,6.1,3.3,8.2c1.5,1.5,3.4,2.6,5.5,3l0.6,0.1l-8.4,8.4
				c-0.9,0.9-1.4,2.1-1.4,3.5c0,1.3,0.5,2.6,1.4,3.5l8.5,8.5c0.2,0.2,0.6,0.4,0.9,0.4c0.1,0,0.2,0,0.4-0.1c0.4-0.1,0.8-0.5,0.9-0.9
				c0.4-1.7,1.2-3.3,2.4-4.5c1.7-1.7,4-2.6,6.4-2.6s4.7,0.9,6.4,2.6c1.6,1.6,2.6,4,2.6,6.4c0,2.4-0.9,4.8-2.6,6.4
				c-1.2,1.2-2.8,2.1-4.5,2.4c-0.5,0.1-0.8,0.4-0.9,0.9c-0.1,0.4,0,0.9,0.3,1.3l9.5,9.5c0.9,0.9,2.2,1.5,3.5,1.5
				c1.3,0,2.5-0.5,3.5-1.4l8.4-8.4l0.1,0.6c0.5,2.1,1.5,4,3,5.5c2.2,2.2,5.1,3.4,8.2,3.4c3.1,0,6-1.2,8.2-3.4
				c2.1-2.1,3.3-5.1,3.3-8.2c0-3.1-1.2-6.1-3.3-8.2c-1.5-1.5-3.4-2.6-5.5-3l-0.6-0.1l8.4-8.4C85.5,52.4,86,51.1,86,49.8z M82.8,51.5
				L72.4,61.9c-0.4,0.4-0.5,0.9-0.3,1.4c0.2,0.4,0.7,0.7,1.1,0.7l0.1,0c0.2,0,0.5,0,0.7,0c2.4,0,4.7,0.9,6.4,2.6
				c3.4,3.4,3.4,9.4,0,12.8c-1.7,1.7-4,2.6-6.4,2.6c-2.4,0-4.7-0.9-6.4-2.6c-1.8-1.8-2.8-4.4-2.6-7.1c0-0.5-0.3-1-0.7-1.2
				c-0.2-0.1-0.3-0.1-0.5-0.1c-0.3,0-0.7,0.1-0.9,0.4L52.6,81.7c-0.4,0.5-1,0.7-1.7,0.7c-0.6,0-1.2-0.3-1.7-0.7l-8-8l0.4-0.2
				c1.2-0.6,2.3-1.3,3.3-2.3c2.1-2.1,3.3-5.1,3.3-8.2c0-3.1-1.2-6.1-3.3-8.2c-2.2-2.2-5.1-3.4-8.2-3.4c-3.1,0-6,1.2-8.2,3.4
				c-0.9,0.9-1.7,2-2.3,3.3l-0.2,0.4l-7-7c-0.9-0.9-0.9-2.5,0-3.4l10.4-10.4c0.4-0.4,0.5-0.9,0.3-1.4c-0.2-0.5-0.7-0.7-1.2-0.7
				c-0.2,0-0.5,0-0.7,0c-2.4,0-4.7-0.9-6.4-2.6c-3.4-3.4-3.4-9.4,0-12.8c1.7-1.7,4-2.6,6.4-2.6c2.4,0,4.7,0.9,6.4,2.6
				c1.8,1.8,2.8,4.4,2.6,7.1c0,0.5,0.3,1,0.7,1.2c0.2,0.1,0.3,0.1,0.5,0.1c0.3,0,0.7-0.1,0.9-0.4l10.4-10.4c0.4-0.5,1-0.7,1.7-0.7
				c0.6,0,1.2,0.3,1.7,0.7l7,7l-0.4,0.2c-1.2,0.6-2.3,1.3-3.3,2.3c-2.1,2.1-3.3,5.1-3.3,8.2c0,3.1,1.2,6.1,3.3,8.2
				c2.2,2.2,5.1,3.4,8.2,3.4c3.1,0,6-1.2,8.2-3.4c0.9-0.9,1.7-2,2.3-3.3l0.2-0.4l8,8C83.7,49,83.7,50.6,82.8,51.5z"/>
		</g>
	</g>
</g>
<g id="ICONS_-_WHITE" display="none">
	<g display="inline">
		<g>
			<path fill="#FFFFFF" d="M86,49.8c0-1.3-0.5-2.6-1.4-3.5l-9.5-9.5c-0.2-0.2-0.6-0.4-0.9-0.4c-0.1,0-0.2,0-0.4,0.1
				c-0.4,0.1-0.8,0.5-0.9,0.9c-0.4,1.7-1.2,3.3-2.4,4.5c-1.7,1.7-4,2.6-6.4,2.6c-2.4,0-4.7-0.9-6.4-2.6c-1.6-1.6-2.6-4-2.6-6.4
				c0-2.4,0.9-4.8,2.6-6.4c1.2-1.2,2.8-2.1,4.5-2.4c0.5-0.1,0.8-0.4,0.9-0.9c0.1-0.4,0-0.9-0.3-1.3l-8.5-8.5
				c-0.9-0.9-2.2-1.4-3.5-1.4c-1.3,0-2.5,0.5-3.5,1.4l-8.4,8.4L39,23.9c-0.5-2.1-1.5-4-3-5.5c-2.2-2.2-5.1-3.4-8.2-3.4
				s-6,1.2-8.2,3.4c-2.1,2.1-3.3,5.1-3.3,8.2c0,3.1,1.2,6.1,3.3,8.2c1.5,1.5,3.4,2.6,5.5,3l0.6,0.1l-8.4,8.4
				c-0.9,0.9-1.4,2.1-1.4,3.5c0,1.3,0.5,2.6,1.4,3.5l8.5,8.5c0.2,0.2,0.6,0.4,0.9,0.4c0.1,0,0.2,0,0.4-0.1c0.4-0.1,0.8-0.5,0.9-0.9
				c0.4-1.7,1.2-3.3,2.4-4.5c1.7-1.7,4-2.6,6.4-2.6s4.7,0.9,6.4,2.6c1.6,1.6,2.6,4,2.6,6.4c0,2.4-0.9,4.8-2.6,6.4
				c-1.2,1.2-2.8,2.1-4.5,2.4c-0.5,0.1-0.8,0.4-0.9,0.9c-0.1,0.4,0,0.9,0.3,1.3l9.5,9.5c0.9,0.9,2.2,1.5,3.5,1.5
				c1.3,0,2.5-0.5,3.5-1.4l8.4-8.4l0.1,0.6c0.5,2.1,1.5,4,3,5.5c2.2,2.2,5.1,3.4,8.2,3.4c3.1,0,6-1.2,8.2-3.4
				c2.1-2.1,3.3-5.1,3.3-8.2c0-3.1-1.2-6.1-3.3-8.2c-1.5-1.5-3.4-2.6-5.5-3l-0.6-0.1l8.4-8.4C85.5,52.4,86,51.1,86,49.8z M82.8,51.5
				L72.4,61.9c-0.4,0.4-0.5,0.9-0.3,1.4c0.2,0.4,0.7,0.7,1.1,0.7l0.1,0c0.2,0,0.5,0,0.7,0c2.4,0,4.7,0.9,6.4,2.6
				c3.4,3.4,3.4,9.4,0,12.8c-1.7,1.7-4,2.6-6.4,2.6c-2.4,0-4.7-0.9-6.4-2.6c-1.8-1.8-2.8-4.4-2.6-7.1c0-0.5-0.3-1-0.7-1.2
				c-0.2-0.1-0.3-0.1-0.5-0.1c-0.3,0-0.7,0.1-0.9,0.4L52.6,81.7c-0.4,0.5-1,0.7-1.7,0.7c-0.6,0-1.2-0.3-1.7-0.7l-8-8l0.4-0.2
				c1.2-0.6,2.3-1.3,3.3-2.3c2.1-2.1,3.3-5.1,3.3-8.2c0-3.1-1.2-6.1-3.3-8.2c-2.2-2.2-5.1-3.4-8.2-3.4c-3.1,0-6,1.2-8.2,3.4
				c-0.9,0.9-1.7,2-2.3,3.3l-0.2,0.4l-7-7c-0.9-0.9-0.9-2.5,0-3.4l10.4-10.4c0.4-0.4,0.5-0.9,0.3-1.4c-0.2-0.5-0.7-0.7-1.2-0.7
				c-0.2,0-0.5,0-0.7,0c-2.4,0-4.7-0.9-6.4-2.6c-3.4-3.4-3.4-9.4,0-12.8c1.7-1.7,4-2.6,6.4-2.6c2.4,0,4.7,0.9,6.4,2.6
				c1.8,1.8,2.8,4.4,2.6,7.1c0,0.5,0.3,1,0.7,1.2c0.2,0.1,0.3,0.1,0.5,0.1c0.3,0,0.7-0.1,0.9-0.4l10.4-10.4c0.4-0.5,1-0.7,1.7-0.7
				c0.6,0,1.2,0.3,1.7,0.7l7,7l-0.4,0.2c-1.2,0.6-2.3,1.3-3.3,2.3c-2.1,2.1-3.3,5.1-3.3,8.2c0,3.1,1.2,6.1,3.3,8.2
				c2.2,2.2,5.1,3.4,8.2,3.4c3.1,0,6-1.2,8.2-3.4c0.9-0.9,1.7-2,2.3-3.3l0.2-0.4l8,8C83.7,49,83.7,50.6,82.8,51.5z"/>
		</g>
	</g>
</g>
<g id="LABELS">
</g>
</svg>
